<svg id="Layer_1" data-name="Layer 1" xmlns="http://www.w3.org/2000/svg" viewBox="0 0 27 30"><defs><style>.cls-1{fill:#ffde00;}.cls-2{fill:#fffedb;}.cls-3{fill:#fffdbe;}.cls-4{fill:#fffdbf;fill-opacity:0.94;}.cls-5{fill:#e3c604;}.cls-6{fill:#eb743b;}</style></defs><g id="g3429"><g id="g3374"><polygon id="polygon3514" class="cls-1" points="13.06 1 1.1 7.81 1.1 22.19 13.06 29 13.06 1"/><g id="layer1-1"><rect id="rect5065" class="cls-2" x="4.78" y="6.95" width="7.03" height="16.23"/><rect id="rect5071" class="cls-1" x="5.42" y="7.34" width="5.71" height="4.16"/><rect id="rect5073" class="cls-3" x="7.02" y="8" width="2.49" height="0.3"/><rect id="rect5085" class="cls-1" x="5.41" y="12.68" width="5.71" height="4.16"/><rect id="rect5087" class="cls-4" x="7.01" y="13.34" width="2.49" height="0.3"/><rect id="rect5091" class="cls-1" x="5.44" y="18.1" width="5.71" height="4.16"/><rect id="rect5093" class="cls-4" x="7.03" y="18.76" width="2.49" height="0.3"/><rect id="rect5552" class="cls-5" x="5.38" y="6.84" width="6.65" height="0.13"/><rect id="rect5554" class="cls-5" x="11.78" y="6.94" width="0.24" height="16.24"/><rect id="rect5556" class="cls-5" x="5.91" y="23.17" width="6.11" height="0.13"/></g></g></g><polygon class="cls-6" points="13.94 1 13.94 29 25.9 22 25.9 8 13.94 1"/><path class="cls-2" d="M23.35,17.36a1.94,1.94,0,0,0-1.66-.92,1.9,1.9,0,0,0-.58.09,5.17,5.17,0,0,0-2.5-1.65,8.61,8.61,0,0,0,1.72-1.79,2.06,2.06,0,0,0,1.5-.24,2,2,0,1,0-2.72-.62l.12.17a6.85,6.85,0,0,1-2.77,2.27h0a5.38,5.38,0,0,1-2.51.62v1.46a6.36,6.36,0,0,0,2.92-.85,4.33,4.33,0,0,1,3.2,1.39,2,2,0,0,0,2.68,2.79,2,2,0,0,0,.61-2.72Zm-3-6.83a.75.75,0,0,1,.41-.12.76.76,0,0,1,.41,1.41.73.73,0,0,1-.41.12.72.72,0,0,1-.4-.12.69.69,0,0,1-.24-.24A.76.76,0,0,1,20.37,10.53Zm2.06,8a.77.77,0,0,1-.74.6.77.77,0,0,1-.45-1.39l0,0a.77.77,0,0,1,1,.24A.72.72,0,0,1,22.43,18.58Z"/></svg>