<svg id="Layer_1" data-name="Layer 1" xmlns="http://www.w3.org/2000/svg" viewBox="0 0 27 30"><defs><style>.cls-1{fill:#eb743b;}.cls-2{fill:#20656c;}.cls-3{fill:#fffedb;}.cls-4{fill:#579ca0;}</style></defs><polygon class="cls-1" points="13.89 1 13.89 29 25.85 22 25.85 8 13.89 1"/><polygon class="cls-2" points="13.01 1 1.06 8 1.06 22 13.01 29 13.01 1"/><path class="cls-3" d="M23.3,17.36a1.94,1.94,0,0,0-1.66-.92,1.79,1.79,0,0,0-.57.09,5.24,5.24,0,0,0-2.51-1.65,8.61,8.61,0,0,0,1.72-1.79,2.1,2.1,0,0,0,1.51-.24,2,2,0,0,0,.61-2.73,2,2,0,0,0-2.72-.61,2,2,0,0,0-.62,2.72l.12.17a6.85,6.85,0,0,1-2.77,2.27h0a5.38,5.38,0,0,1-2.51.62v1.46a6.33,6.33,0,0,0,2.92-.85A4.36,4.36,0,0,1,20,17.29a2,2,0,0,0,2.67,2.79,1.92,1.92,0,0,0,.87-1.24A1.89,1.89,0,0,0,23.3,17.36Zm-3-6.83a.78.78,0,0,1,.41-.12.76.76,0,0,1,.41,1.41.73.73,0,0,1-.41.12.72.72,0,0,1-.4-.12.69.69,0,0,1-.24-.24A.76.76,0,0,1,20.32,10.53Zm2.06,8a.77.77,0,0,1-.74.6.77.77,0,0,1-.45-1.39l0,0a.77.77,0,0,1,1.05.24A.72.72,0,0,1,22.38,18.58Z"/><path class="cls-3" d="M3.7,20.46V11l1.45.29v-.51l-1.63-.36h-.1l0,0,0,0v0a.11.11,0,0,0,0,.05.13.13,0,0,0,0,.06V20.81a4975520849297.1,4975520849297.1,0,0,1,0,.1s0,0,0,0l0,0s0,0,0,0l0,0h.07l1.63-.36v-.51Z"/><path class="cls-3" d="M5.69,21.52V9.9l1.88.32V9.59L6.16,9.33l-.74-.14H5.31l0,0,0,0,0,0a4654128265351.55,4654128265351.55,0,0,0,0,.12V22a.14.14,0,0,0,0,.06s0,0,0,.05l0,.05,0,0,0,0h.11l.74-.14,1.41-.27v-.62Z"/><rect class="cls-4" x="8.36" y="8.9" width="4.66" height="13.62"/><path class="cls-3" d="M7.57,8.51v14.4a.4.4,0,0,0,.39.4H13v-.79H8.36V8.9H13V8.12H8A.39.39,0,0,0,7.57,8.51Z"/></svg>