<?xml version="1.0" encoding="UTF-8"?>
<svg id="Layer_1" data-name="Layer 1" xmlns="http://www.w3.org/2000/svg" version="1.1" viewBox="0 0 27 30">
  <defs>
    <style>
      .cls-1 {
        fill: #20656c;
      }

      .cls-1, .cls-2, .cls-3, .cls-4 {
        stroke-width: 0px;
      }

      .cls-2 {
        fill: #fffedb;
      }

      .cls-3 {
        fill: #579ca0;
      }

      .cls-4 {
        fill: #eb743b;
      }
    </style>
  </defs>
  <polygon class="cls-4" points="13.94 1 13.94 29 25.9 22 25.9 8 13.94 1"/>
  <polygon class="cls-1" points="13.06 1 1.1 8 1.1 22 13.06 29 13.06 1"/>
  <path class="cls-2" d="M23.35,17.36c-.36-.57-.99-.92-1.67-.92-.19,0-.39.03-.57.09-.77-.91-1.7-1.39-2.51-1.64.65-.5,1.23-1.1,1.72-1.79.51.11,1.06.04,1.51-.24.92-.59,1.2-1.81.61-2.73-.36-.58-.99-.92-1.67-.92-.37,0-.74.11-1.05.31-.92.58-1.19,1.8-.61,2.72.04.06.08.12.12.17-.73,1-1.66,1.77-2.78,2.27h0c-1.03.47-1.64.62-2.52.62v1.46c1.17,0,1.73-.33,2.92-.85.4,0,2.03.05,3.21,1.38-.44.63-.48,1.49-.05,2.18.36.57.99.92,1.67.92.37,0,.74-.11,1.05-.3.45-.28.76-.72.87-1.24.12-.51.02-1.04-.26-1.48ZM20.37,10.53c.12-.08.26-.12.41-.12.26,0,.51.13.65.36.23.35.12.83-.24,1.05-.12.08-.26.12-.4.12s-.28-.04-.41-.11c-.1-.06-.18-.14-.24-.24-.23-.36-.12-.83.24-1.06ZM22.43,18.58c-.05.2-.16.37-.34.48-.12.08-.26.12-.41.12-.26,0-.51-.13-.64-.36-.22-.34-.13-.8.2-1.03l.03-.02c.35-.22.84-.11,1.05.24.11.17.14.38.1.57Z"/>
  <g>
    <path class="cls-2" d="M3.75,20.46v-9.5l1.45.29v-.51l-1.62-.36s-.02,0-.03,0c-.01,0-.02,0-.03,0-.01,0-.02.01-.03.02,0,0-.02.02-.03.03,0,.01-.02.02-.02.04,0,.01-.01.03-.02.04s0,.03-.01.05,0,.04,0,.05v10.19s0,.04,0,.05c0,.02,0,.03.01.05,0,.02.01.03.02.04,0,.01.01.03.02.04,0,.01.02.02.03.03,0,0,.02.01.03.02.01,0,.02,0,.03,0,.01,0,.02,0,.03,0l1.62-.36v-.51l-1.45.29Z"/>
    <path class="cls-2" d="M5.74,21.52v-11.62l1.88.32v-.63l-1.41-.27-.74-.14s-.04,0-.05,0c-.02,0-.03,0-.05,0-.02,0-.03.01-.05.02-.02,0-.03.02-.04.03-.01.01-.02.03-.03.05,0,.02-.02.03-.03.05,0,.02-.01.04-.02.06,0,.02,0,.04,0,.06v12.48s0,.04,0,.06c0,.02,0,.04.02.06,0,.02.02.04.03.05,0,.02.02.03.03.04.01.01.03.02.04.03.01,0,.03.02.05.02.02,0,.03,0,.05,0,.02,0,.04,0,.05,0l.74-.14,1.41-.27v-.63l-1.88.32Z"/>
    <rect class="cls-3" x="8.4" y="8.9" width="4.66" height="13.62"/>
    <path class="cls-2" d="M7.62,8.51v14.4c0,.22.18.39.39.39h5.05v-.79h-4.66v-13.62h4.66v-.79h-5.05c-.22,0-.39.18-.39.39Z"/>
  </g>
</svg>