<?xml version="1.0" encoding="UTF-8"?><svg xmlns="http://www.w3.org/2000/svg" viewBox="0 0 679 150"><defs><style>.b{mix-blend-mode:multiply;opacity:.07;}.c{fill:#8db2e3;}.d{isolation:isolate;}.e{fill:#fffedb;}.f{fill:#4e7ec2;}.g{fill:#d3562c;}.h{fill:#eb743b;}</style></defs><g class="d"><g id="a"><g><g><g><polygon class="h" points="68.68 2.82 68.68 146.82 129.68 111.82 129.68 37.82 68.68 2.82"/><polygon class="f" points="63.68 2.82 2.68 37.82 2.68 111.82 63.68 146.82 63.68 2.82"/><g><g class="b"><path d="M85.98,94.56c.39-.64,1.07-1.03,1.82-1.03,.38,0,.75,.1,1.08,.3,1,.6,1.33,1.9,.74,2.9-.38,.65-1.06,1.03-1.82,1.03-.38,0-.75-.1-1.08-.3-.48-.29-.83-.75-.96-1.29-.14-.55-.06-1.12,.23-1.6Zm12.6,22.36c-.49,.42-1.02,.51-1.37,.51-.62,0-1.21-.27-1.61-.73-.76-.88-.65-2.22,.23-2.98,.49-.42,1.02-.51,1.37-.51,.62,0,1.2,.27,1.61,.74,.37,.43,.55,.98,.5,1.54-.04,.56-.3,1.07-.73,1.44Z"/><path d="M77.68,48.43c.07,.02,.14,.03,.21,.05-.07-.01-.14-.03-.21-.05Z"/><path d="M89.06,58.08c.17-.27,.39-.49,.67-.66,.33-.21,.72-.32,1.12-.32s.79,.11,1.12,.32c.99,.63,1.28,1.94,.66,2.92-.39,.62-1.06,.99-1.79,.99-.4,0-.79-.11-1.12-.33-.98-.62-1.28-1.94-.66-2.92Zm6.38-20.19c-.6,.95-1.94,1.27-2.91,.65l-.1-.06c-.91-.65-1.16-1.9-.56-2.85,.39-.61,1.05-.98,1.78-.98,.4,0,.79,.11,1.12,.33,.48,.3,.81,.78,.94,1.33,.12,.55,.03,1.11-.28,1.58Z"/><path d="M112.2,49.49c.39-.61,1.05-.98,1.78-.98,.4,0,.79,.11,1.12,.33,.48,.3,.81,.78,.94,1.33,.12,.55,.02,1.11-.28,1.58-.6,.95-1.94,1.27-2.91,.65l-.09-.06c-.92-.65-1.16-1.9-.56-2.85Zm0,23.46c.39-.61,1.05-.98,1.78-.98,.4,0,.79,.11,1.12,.33,.48,.3,.81,.77,.94,1.33,.12,.55,.02,1.11-.28,1.58-.6,.95-1.94,1.27-2.91,.65l-.09-.06c-.92-.65-1.16-1.9-.56-2.85Zm0,26.3c.39-.61,1.05-.98,1.78-.98,.4,0,.79,.11,1.12,.33,.48,.3,.81,.78,.94,1.33,.12,.55,.02,1.11-.28,1.58-.6,.95-1.94,1.27-2.91,.65l-.09-.06c-.92-.65-1.16-1.9-.56-2.85Z"/><path d="M101.85,108.93c-1.17-1.36-2.86-2.14-4.65-2.14-1.46,0-2.88,.53-3.98,1.48-1.61,1.38-2.33,3.43-2.09,5.4-1.95,.7-4.26,1.37-5.33,1.33-.82-.04-1.3-.35-2.22-.97-1.17-.79-2.42-1.51-4.15-1.85,2.94-2.76,6.01-6.83,8.58-12.83,2.06-.08,3.98-1.19,5.04-2.97,1.72-2.9,.77-6.66-2.12-8.39-.95-.57-2.03-.86-3.13-.86-2.15,0-4.16,1.14-5.26,2.99-.84,1.41-1.08,3.05-.68,4.64,.35,1.39,1.16,2.59,2.3,3.43-4.05,9.22-9.22,13.08-12.57,14.68-.13,.04-.25,.1-.36,.17-1.19,.53-2.05,.7-2.56,.81v4c.28-.03,1.88-.12,4.25-1.19,5.35-1.36,6.84-.35,8.41,.71,1.02,.69,2.29,1.55,4.26,1.66,.1,0,.2,0,.31,0,2.11,0,5.17-1.02,7.02-1.72,1.14,1.12,2.68,1.75,4.29,1.75h0c1.46,0,2.88-.52,3.98-1.48,1.24-1.06,1.99-2.55,2.12-4.18,.12-1.63-.39-3.21-1.46-4.45Zm-15.87-16.78c.39-.64,1.07-1.03,1.82-1.03,.38,0,.75,.1,1.08,.3,1,.6,1.33,1.9,.74,2.9-.38,.65-1.06,1.03-1.82,1.03-.38,0-.75-.1-1.08-.3-.48-.29-.83-.75-.96-1.29-.14-.55-.06-1.12,.23-1.6Zm12.6,22.36c-.49,.42-1.02,.51-1.37,.51-.62,0-1.21-.27-1.61-.73-.76-.88-.65-2.22,.23-2.98,.49-.42,1.02-.51,1.37-.51,.62,0,1.2,.27,1.61,.74,.37,.43,.55,.98,.5,1.54-.04,.56-.3,1.07-.73,1.44Z"/><path d="M77.68,46.03c.07,.02,.14,.03,.21,.05-.07-.01-.14-.03-.21-.05Z"/><path d="M99.63,33.03c-.36-1.6-1.32-2.96-2.71-3.84-.98-.62-2.11-.94-3.26-.94-2.12,0-4.05,1.07-5.17,2.85-1.35,2.14-1.22,4.8,.14,6.76-3.65,4.12-8.71,4.31-9.94,4.29-3.69-1.6-7.23-2.16-10-2.32v4c2.44,.14,5.55,.69,8.75,2.14h.01c3.45,1.57,6.33,3.93,8.61,7.05-.14,.17-.26,.35-.38,.54-1.8,2.85-.94,6.64,1.9,8.44,.98,.62,2.11,.95,3.27,.95,2.11,0,4.05-1.07,5.18-2.85,1.81-2.85,.95-6.64-1.91-8.45-1.38-.87-3.09-1.11-4.67-.75-1.54-2.15-3.32-4.02-5.34-5.57,2.52-.78,5.4-2.27,7.78-5.1,.57,.17,1.17,.27,1.77,.27,2.12,0,4.05-1.07,5.17-2.85,.88-1.38,1.16-3.01,.8-4.6Zm-10.57,22.65c.17-.27,.39-.49,.67-.66,.33-.21,.72-.32,1.12-.32s.79,.11,1.12,.32c.99,.63,1.28,1.94,.66,2.92-.39,.62-1.06,.99-1.79,.99-.4,0-.79-.11-1.12-.33-.98-.62-1.28-1.94-.66-2.92Zm6.38-20.19c-.6,.95-1.94,1.27-2.91,.65l-.1-.06c-.91-.65-1.16-1.9-.56-2.85,.39-.61,1.05-.98,1.78-.98,.4,0,.79,.11,1.12,.33,.48,.3,.81,.78,.94,1.33,.12,.55,.03,1.11-.28,1.58Z"/><path d="M108.32,74.01c.42,1.04,1.14,1.96,2.11,2.65,.07,.05,.15,.11,.28,.19,.98,.62,2.11,.95,3.27,.95,2.12,0,4.05-1.07,5.17-2.85,.88-1.38,1.16-3.01,.8-4.6-.36-1.6-1.32-2.96-2.71-3.84-.98-.62-2.11-.94-3.27-.94-.12,0-.25,0-.38,.02-.71-3.16-.92-7.77,.04-11.26,.11,.01,.22,.02,.34,.02,2.12,0,4.05-1.07,5.17-2.85,.88-1.38,1.16-3.01,.8-4.6-.36-1.6-1.32-2.96-2.71-3.84-.98-.62-2.11-.94-3.27-.94-2.11,0-4.05,1.07-5.17,2.85-1.6,2.53-1.12,5.8,1.02,7.76,.02,.02,.05,.04,.07,.06-1.35,4.52-1.15,10.32-.04,14.42-.14,.13-.29,.25-.43,.4-.23,.25-.45,.53-.63,.82-.32,.5-.55,1.03-.71,1.58-3.37,.49-5.2,1.67-6.82,2.73-2.04,1.32-3.96,2.57-9.64,2.67-1.96-.23-3.55-.18-5.29-.12-1.43,.05-2.91,.11-4.85,0-1.33-.07-2.1-.88-3.46-2.42-1.8-2.05-4.22-4.65-9.37-5.02v4c3.29,.3,4.8,1.89,6.36,3.67,1.49,1.69,3.17,3.62,6.26,3.78,2.12,.11,3.76,.05,5.21,0,2.49-.09,4.45-.16,7.86,.68,2.61,.64,12.1,9.67,14.77,14.32-.11,.14-.22,.28-.31,.43-1.74,2.75-1.03,6.38,1.62,8.25,.07,.05,.15,.1,.28,.19,.98,.62,2.11,.95,3.27,.95,2.12,0,4.05-1.07,5.17-2.85,.88-1.37,1.16-3.01,.8-4.6-.36-1.6-1.32-2.96-2.71-3.84-.98-.62-2.11-.94-3.27-.94-.53,0-1.05,.07-1.54,.2-2.56-4.19-8.65-10.46-13.19-13.79,1.81-.63,3.05-1.43,4.21-2.19,1.43-.93,2.61-1.69,4.86-2.07Zm3.88-26.92c.39-.61,1.05-.98,1.78-.98,.4,0,.79,.11,1.12,.33,.48,.3,.81,.78,.94,1.33,.12,.55,.02,1.11-.28,1.58-.6,.95-1.94,1.27-2.91,.65l-.09-.06c-.92-.65-1.16-1.9-.56-2.85Zm0,23.46c.39-.61,1.05-.98,1.78-.98,.4,0,.79,.11,1.12,.33,.48,.3,.81,.77,.94,1.33,.12,.55,.02,1.11-.28,1.58-.6,.95-1.94,1.27-2.91,.65l-.09-.06c-.92-.65-1.16-1.9-.56-2.85Zm0,26.3c.39-.61,1.05-.98,1.78-.98,.4,0,.79,.11,1.12,.33,.48,.3,.81,.78,.94,1.33,.12,.55,.02,1.11-.28,1.58-.6,.95-1.94,1.27-2.91,.65l-.09-.06c-.92-.65-1.16-1.9-.56-2.85Z"/></g><g><g><path class="g" d="M101.85,111.93c-1.17-1.36-2.86-2.14-4.65-2.14-1.46,0-2.88,.53-3.98,1.48-1.61,1.38-2.33,3.43-2.09,5.4-1.95,.7-4.26,1.37-5.33,1.33-.82-.04-1.3-.35-2.22-.97-1.17-.79-2.42-1.51-4.15-1.85,2.94-2.76,6.01-6.83,8.58-12.83,2.06-.08,3.98-1.19,5.04-2.97,1.72-2.9,.77-6.66-2.12-8.39-.95-.57-2.03-.86-3.13-.86-2.15,0-4.16,1.14-5.26,2.99-.84,1.41-1.08,3.05-.68,4.64,.35,1.39,1.16,2.59,2.3,3.43-4.05,9.22-9.22,13.08-12.57,14.68-.13,.04-.25,.1-.36,.17-1.19,.53-2.05,.7-2.56,.81v4c.28-.03,1.88-.12,4.25-1.19,5.35-1.36,6.84-.35,8.41,.71,1.02,.69,2.29,1.55,4.26,1.66,.1,0,.2,0,.31,0,2.11,0,5.17-1.02,7.02-1.72,1.14,1.12,2.68,1.75,4.29,1.75h0c1.46,0,2.88-.52,3.98-1.48,1.24-1.06,1.99-2.55,2.12-4.18,.12-1.63-.39-3.21-1.46-4.45Zm-15.87-16.78c.39-.64,1.07-1.03,1.82-1.03,.38,0,.75,.1,1.08,.3,1,.6,1.33,1.9,.74,2.9-.38,.65-1.06,1.03-1.82,1.03-.38,0-.75-.1-1.08-.3-.48-.29-.83-.75-.96-1.29-.14-.55-.06-1.12,.23-1.6Zm12.6,22.36c-.49,.42-1.02,.51-1.37,.51-.62,0-1.21-.27-1.61-.73-.76-.88-.65-2.22,.23-2.98,.49-.42,1.02-.51,1.37-.51,.62,0,1.2,.27,1.61,.74,.37,.43,.55,.98,.5,1.54-.04,.56-.3,1.07-.73,1.44Z"/><path d="M77.68,48.43c.07,.02,.14,.03,.21,.05-.07-.01-.14-.03-.21-.05Z"/><path class="g" d="M99.63,36.03c-.36-1.6-1.32-2.96-2.71-3.84-.98-.62-2.11-.94-3.26-.94-2.12,0-4.05,1.07-5.17,2.85-1.35,2.14-1.22,4.8,.14,6.76-3.65,4.12-8.71,4.31-9.94,4.29-3.69-1.6-7.23-2.16-10-2.32v4c2.44,.14,5.55,.69,8.75,2.14h.01c3.45,1.57,6.33,3.93,8.61,7.05-.14,.17-.26,.35-.38,.54-1.8,2.85-.94,6.64,1.9,8.44,.98,.62,2.11,.95,3.27,.95,2.11,0,4.05-1.07,5.18-2.85,1.81-2.85,.95-6.64-1.91-8.45-1.38-.87-3.09-1.11-4.67-.75-1.54-2.15-3.32-4.02-5.34-5.57,2.52-.78,5.4-2.27,7.78-5.1,.57,.17,1.17,.27,1.77,.27,2.12,0,4.05-1.07,5.17-2.85,.88-1.38,1.16-3.01,.8-4.6Zm-10.57,22.65c.17-.27,.39-.49,.67-.66,.33-.21,.72-.32,1.12-.32s.79,.11,1.12,.32c.99,.63,1.28,1.94,.66,2.92-.39,.62-1.06,.99-1.79,.99-.4,0-.79-.11-1.12-.33-.98-.62-1.28-1.94-.66-2.92Zm6.38-20.19c-.6,.95-1.94,1.27-2.91,.65l-.1-.06c-.91-.65-1.16-1.9-.56-2.85,.39-.61,1.05-.98,1.78-.98,.4,0,.79,.11,1.12,.33,.48,.3,.81,.78,.94,1.33,.12,.55,.03,1.11-.28,1.58Z"/><path class="g" d="M108.32,77.01c.42,1.04,1.14,1.96,2.11,2.65,.07,.05,.15,.11,.28,.19,.98,.62,2.11,.95,3.27,.95,2.12,0,4.05-1.07,5.17-2.85,.88-1.38,1.16-3.01,.8-4.6-.36-1.6-1.32-2.96-2.71-3.84-.98-.62-2.11-.94-3.27-.94-.12,0-.25,0-.38,.02-.71-3.16-.92-7.77,.04-11.26,.11,.01,.22,.02,.34,.02,2.12,0,4.05-1.07,5.17-2.85,.88-1.38,1.16-3.01,.8-4.6-.36-1.6-1.32-2.96-2.71-3.84-.98-.62-2.11-.94-3.27-.94-2.11,0-4.05,1.07-5.17,2.85-1.6,2.53-1.12,5.8,1.02,7.76,.02,.02,.05,.04,.07,.06-1.35,4.52-1.15,10.32-.04,14.42-.14,.13-.29,.25-.43,.4-.23,.25-.45,.53-.63,.82-.32,.5-.55,1.03-.71,1.58-3.37,.49-5.2,1.67-6.82,2.73-2.04,1.32-3.96,2.57-9.64,2.67-1.96-.23-3.55-.18-5.29-.12-1.43,.05-2.91,.11-4.85,0-1.33-.07-2.1-.88-3.46-2.42-1.8-2.05-4.22-4.65-9.37-5.02v4c3.29,.3,4.8,1.89,6.36,3.67,1.49,1.69,3.17,3.62,6.26,3.78,2.12,.11,3.76,.05,5.21,0,2.49-.09,4.45-.16,7.86,.68,2.61,.64,12.1,9.67,14.77,14.32-.11,.14-.22,.28-.31,.43-1.74,2.75-1.03,6.38,1.62,8.25,.07,.05,.15,.1,.28,.19,.98,.62,2.11,.95,3.27,.95,2.12,0,4.05-1.07,5.17-2.85,.88-1.37,1.16-3.01,.8-4.6-.36-1.6-1.32-2.96-2.71-3.84-.98-.62-2.11-.94-3.27-.94-.53,0-1.05,.07-1.54,.2-2.56-4.19-8.65-10.46-13.19-13.79,1.81-.63,3.05-1.43,4.21-2.19,1.43-.93,2.61-1.69,4.86-2.07Zm3.88-26.92c.39-.61,1.05-.98,1.78-.98,.4,0,.79,.11,1.12,.33,.48,.3,.81,.78,.94,1.33,.12,.55,.02,1.11-.28,1.58-.6,.95-1.94,1.27-2.91,.65l-.09-.06c-.92-.65-1.16-1.9-.56-2.85Zm0,23.46c.39-.61,1.05-.98,1.78-.98,.4,0,.79,.11,1.12,.33,.48,.3,.81,.77,.94,1.33,.12,.55,.02,1.11-.28,1.58-.6,.95-1.94,1.27-2.91,.65l-.09-.06c-.92-.65-1.16-1.9-.56-2.85Zm0,26.3c.39-.61,1.05-.98,1.78-.98,.4,0,.79,.11,1.12,.33,.48,.3,.81,.78,.94,1.33,.12,.55,.02,1.11-.28,1.58-.6,.95-1.94,1.27-2.91,.65l-.09-.06c-.92-.65-1.16-1.9-.56-2.85Z"/></g><g><path class="e" d="M101.85,108.93c-1.17-1.36-2.86-2.14-4.65-2.14-1.46,0-2.88,.53-3.98,1.48-1.61,1.38-2.33,3.43-2.09,5.4-1.95,.7-4.26,1.37-5.33,1.33-.82-.04-1.3-.35-2.22-.97-1.17-.79-2.42-1.51-4.15-1.85,2.94-2.76,6.01-6.83,8.58-12.83,2.06-.08,3.98-1.19,5.04-2.97,1.72-2.9,.77-6.66-2.12-8.39-.95-.57-2.03-.86-3.13-.86-2.15,0-4.16,1.14-5.26,2.99-.84,1.41-1.08,3.05-.68,4.64,.35,1.39,1.16,2.59,2.3,3.43-4.05,9.22-9.22,13.08-12.57,14.68-.13,.04-.25,.1-.36,.17-1.19,.53-2.05,.7-2.56,.81v4c.28-.03,1.88-.12,4.25-1.19,5.35-1.36,6.84-.35,8.41,.71,1.02,.69,2.29,1.55,4.26,1.66,.1,0,.2,0,.31,0,2.11,0,5.17-1.02,7.02-1.72,1.14,1.12,2.68,1.75,4.29,1.75h0c1.46,0,2.88-.52,3.98-1.48,1.24-1.06,1.99-2.55,2.12-4.18,.12-1.63-.39-3.21-1.46-4.45Zm-15.87-16.78c.39-.64,1.07-1.03,1.82-1.03,.38,0,.75,.1,1.08,.3,1,.6,1.33,1.9,.74,2.9-.38,.65-1.06,1.03-1.82,1.03-.38,0-.75-.1-1.08-.3-.48-.29-.83-.75-.96-1.29-.14-.55-.06-1.12,.23-1.6Zm12.6,22.36c-.49,.42-1.02,.51-1.37,.51-.62,0-1.21-.27-1.61-.73-.76-.88-.65-2.22,.23-2.98,.49-.42,1.02-.51,1.37-.51,.62,0,1.2,.27,1.61,.74,.37,.43,.55,.98,.5,1.54-.04,.56-.3,1.07-.73,1.44Z"/><path class="e" d="M77.68,46.03c.07,.02,.14,.03,.21,.05-.07-.01-.14-.03-.21-.05Z"/><path class="e" d="M99.63,33.03c-.36-1.6-1.32-2.96-2.71-3.84-.98-.62-2.11-.94-3.26-.94-2.12,0-4.05,1.07-5.17,2.85-1.35,2.14-1.22,4.8,.14,6.76-3.65,4.12-8.71,4.31-9.94,4.29-3.69-1.6-7.23-2.16-10-2.32v4c2.44,.14,5.55,.69,8.75,2.14h.01c3.45,1.57,6.33,3.93,8.61,7.05-.14,.17-.26,.35-.38,.54-1.8,2.85-.94,6.64,1.9,8.44,.98,.62,2.11,.95,3.27,.95,2.11,0,4.05-1.07,5.18-2.85,1.81-2.85,.95-6.64-1.91-8.45-1.38-.87-3.09-1.11-4.67-.75-1.54-2.15-3.32-4.02-5.34-5.57,2.52-.78,5.4-2.27,7.78-5.1,.57,.17,1.17,.27,1.77,.27,2.12,0,4.05-1.07,5.17-2.85,.88-1.38,1.16-3.01,.8-4.6Zm-10.57,22.65c.17-.27,.39-.49,.67-.66,.33-.21,.72-.32,1.12-.32s.79,.11,1.12,.32c.99,.63,1.28,1.94,.66,2.92-.39,.62-1.06,.99-1.79,.99-.4,0-.79-.11-1.12-.33-.98-.62-1.28-1.94-.66-2.92Zm6.38-20.19c-.6,.95-1.94,1.27-2.91,.65l-.1-.06c-.91-.65-1.16-1.9-.56-2.85,.39-.61,1.05-.98,1.78-.98,.4,0,.79,.11,1.12,.33,.48,.3,.81,.78,.94,1.33,.12,.55,.03,1.11-.28,1.58Z"/><path class="e" d="M108.32,74.01c.42,1.04,1.14,1.96,2.11,2.65,.07,.05,.15,.11,.28,.19,.98,.62,2.11,.95,3.27,.95,2.12,0,4.05-1.07,5.17-2.85,.88-1.38,1.16-3.01,.8-4.6-.36-1.6-1.32-2.96-2.71-3.84-.98-.62-2.11-.94-3.27-.94-.12,0-.25,0-.38,.02-.71-3.16-.92-7.77,.04-11.26,.11,.01,.22,.02,.34,.02,2.12,0,4.05-1.07,5.17-2.85,.88-1.38,1.16-3.01,.8-4.6-.36-1.6-1.32-2.96-2.71-3.84-.98-.62-2.11-.94-3.27-.94-2.11,0-4.05,1.07-5.17,2.85-1.6,2.53-1.12,5.8,1.02,7.76,.02,.02,.05,.04,.07,.06-1.35,4.52-1.15,10.32-.04,14.42-.14,.13-.29,.25-.43,.4-.23,.25-.45,.53-.63,.82-.32,.5-.55,1.03-.71,1.58-3.37,.49-5.2,1.67-6.82,2.73-2.04,1.32-3.96,2.57-9.64,2.67-1.96-.23-3.55-.18-5.29-.12-1.43,.05-2.91,.11-4.85,0-1.33-.07-2.1-.88-3.46-2.42-1.8-2.05-4.22-4.65-9.37-5.02v4c3.29,.3,4.8,1.89,6.36,3.67,1.49,1.69,3.17,3.62,6.26,3.78,2.12,.11,3.76,.05,5.21,0,2.49-.09,4.45-.16,7.86,.68,2.61,.64,12.1,9.67,14.77,14.32-.11,.14-.22,.28-.31,.43-1.74,2.75-1.03,6.38,1.62,8.25,.07,.05,.15,.1,.28,.19,.98,.62,2.11,.95,3.27,.95,2.12,0,4.05-1.07,5.17-2.85,.88-1.37,1.16-3.01,.8-4.6-.36-1.6-1.32-2.96-2.71-3.84-.98-.62-2.11-.94-3.27-.94-.53,0-1.05,.07-1.54,.2-2.56-4.19-8.65-10.46-13.19-13.79,1.81-.63,3.05-1.43,4.21-2.19,1.43-.93,2.61-1.69,4.86-2.07Zm3.88-26.92c.39-.61,1.05-.98,1.78-.98,.4,0,.79,.11,1.12,.33,.48,.3,.81,.78,.94,1.33,.12,.55,.02,1.11-.28,1.58-.6,.95-1.94,1.27-2.91,.65l-.09-.06c-.92-.65-1.16-1.9-.56-2.85Zm0,23.46c.39-.61,1.05-.98,1.78-.98,.4,0,.79,.11,1.12,.33,.48,.3,.81,.77,.94,1.33,.12,.55,.02,1.11-.28,1.58-.6,.95-1.94,1.27-2.91,.65l-.09-.06c-.92-.65-1.16-1.9-.56-2.85Zm0,26.3c.39-.61,1.05-.98,1.78-.98,.4,0,.79,.11,1.12,.33,.48,.3,.81,.78,.94,1.33,.12,.55,.02,1.11-.28,1.58-.6,.95-1.94,1.27-2.91,.65l-.09-.06c-.92-.65-1.16-1.9-.56-2.85Z"/></g></g></g></g><g><rect class="e" x="52.68" y="19.82" width="6" height="4"/><rect class="e" x="52.68" y="26.82" width="6" height="4"/><rect class="e" x="52.68" y="33.82" width="6" height="4"/><rect class="e" x="52.68" y="40.82" width="6" height="4"/><rect class="e" x="52.68" y="47.82" width="6" height="4"/><rect class="e" x="52.68" y="54.82" width="6" height="4"/><rect class="e" x="52.68" y="61.82" width="6" height="4"/><rect class="e" x="52.68" y="68.82" width="6" height="4"/><rect class="c" x="52.68" y="75.82" width="6" height="4"/><rect class="c" x="52.68" y="82.82" width="6" height="4"/><rect class="c" x="52.68" y="89.82" width="6" height="4"/><rect class="c" x="52.68" y="96.82" width="6" height="4"/><rect class="c" x="52.68" y="103.82" width="6" height="4"/><rect class="c" x="52.68" y="110.82" width="6" height="4"/><rect class="c" x="52.68" y="117.82" width="6" height="4"/><rect class="c" x="52.68" y="124.82" width="6" height="4"/><rect class="e" x="43.68" y="33.82" width="6" height="4"/><rect class="e" x="43.68" y="40.82" width="6" height="4"/><rect class="e" x="43.68" y="47.82" width="6" height="4"/><rect class="e" x="43.68" y="54.82" width="6" height="4"/><rect class="e" x="43.68" y="61.82" width="6" height="4"/><rect class="e" x="43.68" y="68.82" width="6" height="4"/><rect class="c" x="43.68" y="75.82" width="6" height="4"/><rect class="c" x="43.68" y="82.82" width="6" height="4"/><rect class="c" x="43.68" y="89.82" width="6" height="4"/><rect class="c" x="43.68" y="96.82" width="6" height="4"/><rect class="c" x="43.68" y="103.82" width="6" height="4"/><rect class="c" x="43.68" y="110.82" width="6" height="4"/><rect class="e" x="34.68" y="61.82" width="6" height="4"/><rect class="e" x="34.68" y="68.82" width="6" height="4"/><rect class="c" x="34.68" y="75.82" width="6" height="4"/><rect class="c" x="34.68" y="82.82" width="6" height="4"/><rect class="e" x="25.68" y="47.82" width="6" height="4"/><rect class="e" x="25.68" y="54.82" width="6" height="4"/><rect class="e" x="25.68" y="61.82" width="6" height="4"/><rect class="e" x="25.68" y="68.82" width="6" height="4"/><rect class="c" x="25.68" y="75.82" width="6" height="4"/><rect class="c" x="25.68" y="82.82" width="6" height="4"/><rect class="c" x="25.68" y="89.82" width="6" height="4"/><rect class="c" x="25.68" y="96.82" width="6" height="4"/><rect class="e" x="16.68" y="68.82" width="6" height="4"/><rect class="c" x="16.68" y="75.82" width="6" height="4"/><rect class="e" x="7.68" y="61.82" width="6" height="4"/><rect class="e" x="7.68" y="68.82" width="6" height="4"/><rect class="c" x="7.68" y="75.82" width="6" height="4"/><rect class="c" x="7.68" y="82.82" width="6" height="4"/></g></g><g><path class="f" d="M184.88,92.6h-18.08l-3.16,10.23h-14.1l20.08-54.74h12.41l20.23,54.74h-14.17l-3.2-10.23Zm-14.93-10.19h11.77l-5.9-18.99-5.87,18.99Z"/><path class="f" d="M222.86,93.8c1.78,0,3.16-.48,4.14-1.45s1.45-2.31,1.43-4.04h11.88c0,4.46-1.6,8.12-4.79,10.98-3.2,2.86-7.31,4.29-12.35,4.29-5.92,0-10.58-1.85-13.99-5.56-3.41-3.71-5.11-8.85-5.11-15.42v-.53c0-4.11,.76-7.74,2.27-10.88,1.52-3.15,3.7-5.56,6.56-7.26,2.86-1.69,6.24-2.54,10.15-2.54,5.29,0,9.49,1.47,12.6,4.4,3.11,2.93,4.66,6.91,4.66,11.92h-11.88c0-2.11-.51-3.72-1.54-4.85-1.03-1.13-2.41-1.69-4.14-1.69-3.28,0-5.2,2.09-5.75,6.28-.18,1.33-.26,3.16-.26,5.49,0,4.08,.49,6.92,1.47,8.5,.98,1.58,2.53,2.37,4.66,2.37Z"/><path class="f" d="M244.06,82.11c0-4.06,.79-7.68,2.37-10.85,1.58-3.17,3.85-5.61,6.8-7.31,2.96-1.7,6.43-2.56,10.41-2.56,6.09,0,10.89,1.89,14.4,5.66,3.51,3.77,5.26,8.91,5.26,15.4v.45c0,6.34-1.76,11.37-5.28,15.1-3.52,3.72-8.29,5.58-14.31,5.58s-10.44-1.74-13.95-5.21c-3.51-3.47-5.4-8.18-5.68-14.12l-.04-2.14Zm12.67,.79c0,3.76,.59,6.52,1.77,8.27,1.18,1.75,2.92,2.63,5.23,2.63,4.51,0,6.82-3.47,6.92-10.41v-1.28c0-7.29-2.33-10.94-6.99-10.94-4.24,0-6.53,3.15-6.88,9.44l-.04,2.29Z"/><path class="f" d="M313.13,98.42c-2.68,3.43-6.3,5.15-10.87,5.15s-7.84-1.3-10.13-3.89c-2.29-2.59-3.44-6.32-3.44-11.18v-26.36h12.67v26.43c0,3.48,1.69,5.23,5.08,5.23,2.91,0,4.98-1.04,6.2-3.12v-28.54h12.75v40.68h-11.88l-.38-4.4Z"/><path class="f" d="M353.62,91.39c0-1.08-.56-1.94-1.69-2.59-1.13-.65-3.27-1.33-6.43-2.03-3.16-.7-5.76-1.62-7.82-2.76-2.05-1.14-3.62-2.53-4.7-4.16-1.08-1.63-1.62-3.5-1.62-5.6,0-3.73,1.54-6.81,4.62-9.23,3.08-2.42,7.12-3.63,12.11-3.63,5.36,0,9.67,1.22,12.93,3.65,3.26,2.43,4.89,5.63,4.89,9.59h-12.71c0-3.26-1.72-4.89-5.15-4.89-1.33,0-2.44,.37-3.35,1.11s-1.35,1.66-1.35,2.76,.55,2.04,1.65,2.74c1.1,.7,2.86,1.28,5.28,1.73s4.54,.99,6.37,1.62c6.12,2.11,9.17,5.88,9.17,11.32,0,3.71-1.65,6.73-4.94,9.06-3.3,2.33-7.56,3.5-12.8,3.5-3.48,0-6.59-.63-9.32-1.88-2.73-1.25-4.86-2.96-6.39-5.11-1.53-2.16-2.29-4.42-2.29-6.81h11.84c.05,1.88,.68,3.25,1.88,4.12,1.2,.87,2.74,1.3,4.62,1.3,1.73,0,3.03-.35,3.89-1.05,.87-.7,1.3-1.62,1.3-2.74Z"/><path class="f" d="M386.52,52.03v10.11h6.69v8.8h-6.69v18.61c0,1.53,.28,2.59,.83,3.2,.55,.6,1.64,.9,3.27,.9,1.25,0,2.31-.08,3.16-.23v9.06c-2.28,.73-4.66,1.09-7.14,1.09-4.36,0-7.58-1.03-9.66-3.08-2.08-2.05-3.12-5.18-3.12-9.36v-20.19h-5.19v-8.8h5.19v-10.11h12.67Z"/><path class="f" d="M398.1,51.62c0-1.82,.65-3.3,1.96-4.46,1.3-1.16,3-1.74,5.08-1.74s3.77,.58,5.08,1.74c1.3,1.16,1.96,2.65,1.96,4.46s-.65,3.3-1.96,4.46c-1.3,1.16-3,1.74-5.08,1.74s-3.77-.58-5.08-1.74c-1.3-1.16-1.96-2.65-1.96-4.46Zm13.46,51.21h-12.71V62.14h12.71v40.68Z"/><path class="f" d="M436.56,93.8c1.78,0,3.16-.48,4.14-1.45s1.45-2.31,1.43-4.04h11.88c0,4.46-1.6,8.12-4.79,10.98-3.2,2.86-7.31,4.29-12.35,4.29-5.92,0-10.58-1.85-13.99-5.56-3.41-3.71-5.11-8.85-5.11-15.42v-.53c0-4.11,.76-7.74,2.27-10.88,1.52-3.15,3.7-5.56,6.56-7.26,2.86-1.69,6.24-2.54,10.15-2.54,5.29,0,9.49,1.47,12.6,4.4,3.11,2.93,4.66,6.91,4.66,11.92h-11.88c0-2.11-.51-3.72-1.54-4.85-1.03-1.13-2.41-1.69-4.14-1.69-3.28,0-5.2,2.09-5.75,6.28-.18,1.33-.26,3.16-.26,5.49,0,4.08,.49,6.92,1.47,8.5,.98,1.58,2.53,2.37,4.66,2.37Z"/><path class="h" d="M459.95,102.82V48.08h19.66c7.04,0,12.4,1.29,16.07,3.87,3.67,2.58,5.51,6.33,5.51,11.24,0,2.83-.65,5.25-1.96,7.26-1.3,2-3.22,3.48-5.75,4.44,2.86,.75,5.05,2.16,6.58,4.21,1.53,2.06,2.29,4.56,2.29,7.52,0,5.36-1.7,9.39-5.09,12.09-3.4,2.7-8.43,4.07-15.1,4.12h-22.22Zm13.2-31.92h6.88c2.88-.03,4.94-.55,6.17-1.58,1.23-1.03,1.84-2.55,1.84-4.56,0-2.31-.66-3.98-1.99-5-1.33-1.02-3.47-1.53-6.43-1.53h-6.47v12.67Zm0,8.65v13.12h8.65c2.38,0,4.21-.54,5.49-1.64,1.28-1.09,1.92-2.62,1.92-4.61,0-4.56-2.27-6.86-6.8-6.88h-9.25Z"/><path class="h" d="M533.64,73.61l-4.17-.3c-3.99,0-6.54,1.25-7.67,3.76v25.75h-12.67V62.14h11.88l.41,5.23c2.13-3.98,5.1-5.98,8.91-5.98,1.35,0,2.53,.15,3.54,.45l-.23,11.77Z"/><path class="h" d="M560,102.82c-.45-.83-.85-2.04-1.2-3.65-2.33,2.93-5.59,4.4-9.78,4.4-3.83,0-7.09-1.16-9.78-3.48-2.68-2.32-4.02-5.23-4.02-8.74,0-4.41,1.63-7.75,4.89-10,3.26-2.26,8-3.38,14.21-3.38h3.91v-2.15c0-3.75-1.62-5.63-4.85-5.63-3.01,0-4.51,1.49-4.51,4.46h-12.67c0-3.93,1.67-7.12,5.02-9.58,3.35-2.45,7.61-3.68,12.8-3.68s9.29,1.27,12.29,3.8c3.01,2.53,4.55,6,4.62,10.41v18.01c.05,3.73,.63,6.59,1.73,8.57v.64h-12.67Zm-7.93-8.27c1.58,0,2.89-.34,3.93-1.02,1.04-.68,1.79-1.44,2.24-2.29v-6.5h-3.68c-4.41,0-6.62,1.98-6.62,5.94,0,1.15,.39,2.09,1.17,2.8,.78,.71,1.77,1.07,2.97,1.07Z"/><path class="h" d="M577.86,51.62c0-1.82,.65-3.3,1.96-4.46,1.3-1.16,3-1.74,5.08-1.74s3.77,.58,5.08,1.74c1.3,1.16,1.96,2.65,1.96,4.46s-.65,3.3-1.96,4.46c-1.3,1.16-3,1.74-5.08,1.74s-3.77-.58-5.08-1.74c-1.3-1.16-1.96-2.65-1.96-4.46Zm13.46,51.21h-12.71V62.14h12.71v40.68Z"/><path class="h" d="M610.75,62.14l.41,4.77c2.81-3.68,6.68-5.53,11.62-5.53,4.24,0,7.4,1.27,9.49,3.8,2.09,2.53,3.18,6.34,3.25,11.43v26.21h-12.71v-25.68c0-2.05-.41-3.56-1.24-4.53-.83-.96-2.33-1.45-4.51-1.45-2.48,0-4.32,.98-5.53,2.93v28.72h-12.67V62.14h11.88Z"/><path class="h" d="M657.49,93.05h18.54v9.78h-34.55v-7.07l18.05-23.84h-17.26v-9.78h33.35v6.84l-18.12,24.06Z"/></g></g></g></g></svg>