<svg id="Layer_1" data-name="Layer 1" xmlns="http://www.w3.org/2000/svg" viewBox="0 0 145 160"><defs><style>.cls-1{fill:#eb743b;}.cls-2{fill:#5aa854;}.cls-3{fill:#fffedb;}</style></defs><polygon class="cls-1" points="74.74 8 74.74 152 136 116 136 44 74.74 8"/><polygon class="cls-2" points="70.26 8 9 44 9 116 70.26 152 70.26 8"/><path class="cls-3" d="M123,92.13a10,10,0,0,0-8.54-4.72,9.93,9.93,0,0,0-2.92.44A27,27,0,0,0,98.65,79.4a43.08,43.08,0,0,0,8.83-9.23,10.31,10.31,0,0,0,7.72-1.25,10.2,10.2,0,0,0,3.14-14,10.09,10.09,0,0,0-14-3.16,10.2,10.2,0,0,0-3.15,14,9,9,0,0,0,.63.89A35.84,35.84,0,0,1,87.65,78.32h0c-5.28,2.41-8.41,3.18-12.89,3.18V89c6,0,8.86-1.69,15-4.35,2,0,10.4.28,16.42,7.12a10.16,10.16,0,0,0-.24,11.21A10.12,10.12,0,0,0,123,92.13ZM107.7,57a4,4,0,0,1,2.09-.6,3.88,3.88,0,0,1,3.31,1.83,3.93,3.93,0,0,1-1.22,5.42,3.87,3.87,0,0,1-2.07.6,4,4,0,0,1-2.08-.59,3.84,3.84,0,0,1-1.24-1.23A4,4,0,0,1,107.7,57Zm10.55,41.4a3.87,3.87,0,0,1-1.74,2.47,3.8,3.8,0,0,1-2.07.61,3.92,3.92,0,0,1-2.27-7.12l.17-.12a4,4,0,0,1,5.39,1.22A3.82,3.82,0,0,1,118.25,98.4Z"/><path class="cls-3" d="M26.37,61.89a10.08,10.08,0,0,0,6.45,7.35,9.9,9.9,0,0,0,2.9.58c2.12,5.74,6.06,10.81,9.75,13.13-3.81,1.58-5.54,2.14-9.24,5.19a10.29,10.29,0,0,0-7.77-.79,10.17,10.17,0,0,0,.38,19.51,10,10,0,0,0,5.63-.12A10.18,10.18,0,0,0,41.12,94a9.81,9.81,0,0,0-.38-1c5-4,8.08-4.67,14.25-5.7h0A30.34,30.34,0,0,1,70.26,89V81.5C64.94,80,60.19,80,53.61,81c-2-.5-8.15-4.56-11.51-13a10.16,10.16,0,0,0,4-10.47,10.11,10.11,0,1,0-19.73,4.41Zm6.25,38.91a3.91,3.91,0,0,1-2.17,0,3.93,3.93,0,0,1-.15-7.55,3.84,3.84,0,0,1,2.15,0,3.92,3.92,0,0,1,1.86,1.1,4,4,0,0,1,.88,1.51A4,4,0,0,1,32.62,100.8Zm.31-43.21a3.91,3.91,0,1,1,4.36,5.87l-.21,0a4,4,0,0,1-4.66-3A3.88,3.88,0,0,1,32.93,57.59Z"/></svg>