<svg id="Layer_1" data-name="Layer 1" xmlns="http://www.w3.org/2000/svg" viewBox="0 0 593 150"><defs><style>.cls-1{fill:#eb743b;}.cls-2{fill:#5aa854;}.cls-3{fill:#fffedb;}.cls-4{fill:#444;}</style></defs><polygon class="cls-1" points="68.42 2.82 68.42 146.82 129.68 110.82 129.68 38.82 68.42 2.82"/><polygon class="cls-2" points="63.94 2.82 2.68 38.82 2.68 110.82 63.94 146.82 63.94 2.82"/><path class="cls-3" d="M116.65,87a10,10,0,0,0-8.54-4.72,9.88,9.88,0,0,0-2.92.44,27.1,27.1,0,0,0-12.86-8.45A43.08,43.08,0,0,0,101.16,65,10.1,10.1,0,0,0,112,49.72a10.08,10.08,0,0,0-14-3.15,10.2,10.2,0,0,0-3.14,14,7.94,7.94,0,0,0,.63.89A35.67,35.67,0,0,1,81.33,73.14h0c-5.28,2.4-8.41,3.17-12.89,3.17v7.5c6,0,8.86-1.68,15-4.34,2,0,10.41.27,16.43,7.12a10.13,10.13,0,0,0-.24,11.2A10.12,10.12,0,0,0,116.65,87ZM101.38,51.83a3.89,3.89,0,0,1,5.4,1.23,3.94,3.94,0,0,1-1.22,5.41,3.93,3.93,0,0,1-5.39-1.21A4,4,0,0,1,101.38,51.83Zm10.55,41.4a3.89,3.89,0,0,1-1.74,2.46,3.83,3.83,0,0,1-2.08.61,3.88,3.88,0,0,1-3.3-1.82,3.94,3.94,0,0,1,1-5.3l.18-.11a3.92,3.92,0,0,1,5.91,4.16Z"/><path class="cls-3" d="M20.05,56.72a10.07,10.07,0,0,0,9.34,7.92c2.13,5.74,6.07,10.81,9.75,13.14-3.8,1.58-5.53,2.13-9.23,5.19A10.07,10.07,0,0,0,15.48,94.89a10.11,10.11,0,0,0,12.67,6.68A10.2,10.2,0,0,0,34.8,88.86c-.11-.35-.24-.69-.38-1,5-4,8.08-4.67,14.25-5.69h0a30.23,30.23,0,0,1,15.25,1.68v-7.5c-5.33-1.5-10.07-1.49-16.65-.51-2-.49-8.15-4.55-11.51-13A10.13,10.13,0,1,0,21.37,49.09,10,10,0,0,0,20.05,56.72Zm6.25,38.9A3.93,3.93,0,0,1,24,88.12a3.83,3.83,0,0,1,2.15,0A3.91,3.91,0,0,1,28,89.19a3.85,3.85,0,0,1,.88,1.51A3.93,3.93,0,0,1,26.3,95.62Zm.3-43.2a3.93,3.93,0,0,1,2.47-1.74A3.92,3.92,0,0,1,31,58.29l-.21.05a4,4,0,0,1-4.66-3A3.91,3.91,0,0,1,26.6,52.42Z"/><path class="cls-4" d="M408.76,116.26a8.51,8.51,0,0,1-3.33,6.74,12.93,12.93,0,0,1-8.26,2.51q-5.62,0-8.74-3.32c-2.08-2.22-3.11-5.36-3.11-9.45V112a15,15,0,0,1,1.44-6.74,10.17,10.17,0,0,1,4.09-4.43A12,12,0,0,1,397,99.32a12.85,12.85,0,0,1,8.32,2.54,9.6,9.6,0,0,1,3.51,7h-7.37a3.35,3.35,0,0,0-1.14-2.8,5,5,0,0,0-3.32-1q-3.93,0-4.22,5.9l0,1.94a10.91,10.91,0,0,0,1,5.37,3.72,3.72,0,0,0,3.46,1.62q4.31,0,4.22-3.57Z"/><path class="cls-4" d="M410.62,114.68a12.1,12.1,0,0,1,1.2-5.48,8.5,8.5,0,0,1,3.44-3.7,10.39,10.39,0,0,1,5.27-1.29,9.44,9.44,0,0,1,7.28,2.86,11,11,0,0,1,2.67,7.79v.22a10.67,10.67,0,0,1-2.68,7.64,9.48,9.48,0,0,1-7.23,2.82,9.59,9.59,0,0,1-7.06-2.63,10.34,10.34,0,0,1-2.87-7.14Zm6.41.4a7.72,7.72,0,0,0,.89,4.19,3,3,0,0,0,2.65,1.33q3.42,0,3.5-5.27v-.65c0-3.68-1.18-5.53-3.54-5.53q-3.21,0-3.48,4.77Z"/><path class="cls-4" d="M439.36,104.58l.21,2.42a7.06,7.06,0,0,1,5.87-2.79q3.9,0,5.27,3.09a6.86,6.86,0,0,1,6.05-3.09q6.25,0,6.43,7.56v13.39h-6.43v-13a4,4,0,0,0-.53-2.3,2.28,2.28,0,0,0-1.94-.72,3,3,0,0,0-2.84,1.69l0,.27v14H445v-13a4.14,4.14,0,0,0-.51-2.34,2.26,2.26,0,0,0-2-.72,3.05,3.05,0,0,0-2.81,1.69v14.32h-6.41V104.58Z"/><path class="cls-4" d="M472.91,104.58l.21,2.42a7.06,7.06,0,0,1,5.87-2.79q3.9,0,5.27,3.09a6.86,6.86,0,0,1,6.05-3.09q6.26,0,6.43,7.56v13.39h-6.43v-13a4,4,0,0,0-.53-2.3,2.28,2.28,0,0,0-1.94-.72,3,3,0,0,0-2.84,1.69l0,.27v14h-6.43v-13a4.14,4.14,0,0,0-.51-2.34,2.27,2.27,0,0,0-2-.72,3.05,3.05,0,0,0-2.81,1.69v14.32H466.9V104.58Z"/><path class="cls-4" d="M512.66,122.94a6.6,6.6,0,0,1-5.5,2.6,6.49,6.49,0,0,1-5.13-2,8.3,8.3,0,0,1-1.74-5.66V104.58h6.41V118c0,1.76.86,2.64,2.57,2.64a3.36,3.36,0,0,0,3.14-1.58V104.58h6.45v20.58h-6Z"/><path class="cls-4" d="M528.25,104.58l.21,2.42a7,7,0,0,1,5.88-2.79,5.87,5.87,0,0,1,4.8,1.92c1.06,1.28,1.61,3.2,1.65,5.78v13.25h-6.43v-13a3.46,3.46,0,0,0-.63-2.29,2.9,2.9,0,0,0-2.28-.73,3.06,3.06,0,0,0-2.8,1.48v14.53h-6.41V104.58Z"/><path class="cls-4" d="M544.29,99.26a2.88,2.88,0,0,1,1-2.26,4.19,4.19,0,0,1,5.14,0,3.07,3.07,0,0,1,0,4.52,4.19,4.19,0,0,1-5.14,0A2.88,2.88,0,0,1,544.29,99.26Zm6.8,25.9h-6.42V104.58h6.42Z"/><path class="cls-4" d="M562.51,99.47v5.11h3.38V109h-3.38v9.41a2.43,2.43,0,0,0,.41,1.62,2.27,2.27,0,0,0,1.66.45,9.11,9.11,0,0,0,1.6-.11V125a11.81,11.81,0,0,1-3.62.55,6.78,6.78,0,0,1-4.89-1.55,6.41,6.41,0,0,1-1.57-4.74V109h-2.63v-4.46h2.63V99.47Z"/><path class="cls-4" d="M576.64,116.19l3.42-11.61h6.86l-8.38,24-.36.87a6.39,6.39,0,0,1-6.32,4,10.14,10.14,0,0,1-2.64-.38v-4.57h.84a4.38,4.38,0,0,0,2.06-.39,2.36,2.36,0,0,0,1-1.4l.52-1.37-7.15-20.79h6.84Z"/><path class="cls-2" d="M166.37,33.34,180,70.14l13.54-36.8h17.95V88H197.87V76.88l1.41-28.68L184.52,88h-9.05L160.75,48.34l1.41,28.54V88H148.52V33.34Z"/><path class="cls-2" d="M242.46,88.81q-10.26,0-16.71-6.3t-6.44-16.77V64.53A28.23,28.23,0,0,1,222,52a20,20,0,0,1,7.7-8.54,21.59,21.59,0,0,1,11.36-3q9.58,0,15.08,6t5.49,17.12v5.09H231.94A11.59,11.59,0,0,0,235.58,76a11,11,0,0,0,7.7,2.76,13.47,13.47,0,0,0,11.26-5.22l6.12,6.86a18.68,18.68,0,0,1-7.59,6.19A24.92,24.92,0,0,1,242.46,88.81ZM241,50.47A7.79,7.79,0,0,0,235,53a13,13,0,0,0-3,7.19h17.34v-1a9.27,9.27,0,0,0-2.25-6.43A8,8,0,0,0,241,50.47Z"/><path class="cls-2" d="M283.65,29.82V41.29h8v9.14h-8V73.72a5.54,5.54,0,0,0,1,3.7c.66.75,1.92,1.13,3.79,1.13a19.12,19.12,0,0,0,3.67-.31v9.45a25.56,25.56,0,0,1-7.55,1.12q-13.11,0-13.37-13.24V50.43h-6.81V41.29h6.81V29.82Z"/><path class="cls-2" d="M325.61,88a13.74,13.74,0,0,1-1.26-4.19,15,15,0,0,1-11.77,5,16.53,16.53,0,0,1-11.36-4,12.74,12.74,0,0,1-4.51-10q0-7.43,5.5-11.39t15.89-4h5.74V56.77a7.74,7.74,0,0,0-1.66-5.18q-1.67-1.94-5.24-1.94A7.46,7.46,0,0,0,312,51.16a5.15,5.15,0,0,0-1.79,4.14H297.75a12.5,12.5,0,0,1,2.5-7.5,16.54,16.54,0,0,1,7.07-5.41,25.75,25.75,0,0,1,10.26-2q8.63,0,13.7,4.34t5.06,12.18V77.17q0,6.63,1.86,10V88ZM315.3,79.28a10.75,10.75,0,0,0,5.09-1.23,8.11,8.11,0,0,0,3.45-3.3v-8h-4.66q-9.36,0-10,6.47l0,.73a5,5,0,0,0,1.63,3.84A6.37,6.37,0,0,0,315.3,79.28Z"/><path class="cls-1" d="M345.77,88V33.34h21.09q10.92,0,16.78,3.87a12.65,12.65,0,0,1,5.86,11.25,12.55,12.55,0,0,1-2.13,7.25,12.23,12.23,0,0,1-6.12,4.58,12.12,12.12,0,0,1,7,4.44,12.37,12.37,0,0,1,2.44,7.59q0,8.09-5.58,11.86T368.93,88Zm13.59-31.88h8.35q8.19,0,8.2-5.74,0-3.28-2-4.68t-6.07-1.39h-8.49Zm0,9.24V77h9.57A10.27,10.27,0,0,0,375,75.47a4.81,4.81,0,0,0,2.16-4.1q0-5.88-7.18-6.06Z"/><path class="cls-1" d="M425.24,53a33.67,33.67,0,0,0-4.48-.34q-7.08,0-9.27,4.79V88H399V41.29H410.8l.34,5.56q3.75-6.42,10.39-6.43a12.93,12.93,0,0,1,3.89.57Z"/><path class="cls-1" d="M457,88a14,14,0,0,1-1.25-4.19,15.06,15.06,0,0,1-11.77,5,16.53,16.53,0,0,1-11.36-4,12.74,12.74,0,0,1-4.51-10q0-7.43,5.5-11.39t15.89-4h5.73V56.77a7.69,7.69,0,0,0-1.66-5.18q-1.65-1.94-5.24-1.94a7.45,7.45,0,0,0-4.93,1.51,5.12,5.12,0,0,0-1.79,4.14H429.12a12.51,12.51,0,0,1,2.51-7.5,16.48,16.48,0,0,1,7.07-5.41,25.75,25.75,0,0,1,10.26-2q8.63,0,13.69,4.34t5.07,12.18V77.17q0,6.63,1.85,10V88Zm-10.3-8.67a10.69,10.69,0,0,0,5.08-1.23,8,8,0,0,0,3.45-3.3v-8h-4.65q-9.36,0-10,6.47l-.05.73a5,5,0,0,0,1.64,3.84A6.35,6.35,0,0,0,446.68,79.28Z"/><path class="cls-1" d="M477.21,29.21a6.13,6.13,0,0,1,1.87-4.61,8.09,8.09,0,0,1,10.2,0,6.08,6.08,0,0,1,1.9,4.61,6.12,6.12,0,0,1-1.92,4.66,8,8,0,0,1-10.13,0A6.12,6.12,0,0,1,477.21,29.21ZM490.45,88H477.94V41.29h12.51Z"/><path class="cls-1" d="M512.18,41.29l.39,5.39A16.28,16.28,0,0,1,526,40.42q7.41,0,11,4.36c2.41,2.9,3.65,7.25,3.71,13V88H528.27V58c0-2.65-.58-4.58-1.73-5.77s-3.06-1.8-5.74-1.8a8.58,8.58,0,0,0-7.89,4.5V88H500.45V41.29Z"/><path class="cls-1" d="M564.49,77.9H587.3V88H548.58V80.36l21.95-29H549.22v-10h37.39v7.34Z"/></svg>