<?xml version="1.0" encoding="UTF-8"?>
<svg id="Layer_1" data-name="Layer 1" xmlns="http://www.w3.org/2000/svg" width="145" height="160" viewBox="0 0 145 160">
  <defs>
    <style>
      .cls-1 {
        fill: #fffedb;
      }

      .cls-2 {
        fill: #5aa854;
      }

      .cls-3 {
        fill: #eb743b;
      }
    </style>
  </defs>
  <polygon class="cls-3" points="74.74 8 74.74 152 136 116 136 44 74.74 8"/>
  <polygon class="cls-2" points="70.26 8 9 44 9 116 70.26 152 70.26 8"/>
  <path class="cls-1" d="m122.97,92.13c-1.85-2.95-5.05-4.72-8.54-4.72-1,0-1.98.15-2.92.44-3.93-4.69-8.69-7.16-12.85-8.45,3.34-2.57,6.29-5.66,8.83-9.23,2.6.59,5.42.19,7.71-1.25,4.72-3.01,6.13-9.3,3.14-14.02-1.87-2.96-5.06-4.73-8.55-4.73-1.92,0-3.78.54-5.4,1.57-4.7,2.99-6.12,9.27-3.15,14,.19.31.4.61.63.89-3.76,5.16-8.53,9.08-14.22,11.68h-.02c-5.28,2.41-8.4,3.18-12.89,3.18v7.5c5.98,0,8.86-1.69,14.96-4.35,2.04-.04,10.4.28,16.42,7.12-2.25,3.25-2.47,7.66-.24,11.21,1.85,2.95,5.05,4.73,8.55,4.73,1.91,0,3.77-.54,5.39-1.57,2.3-1.46,3.88-3.72,4.48-6.38.59-2.64.12-5.35-1.33-7.63Zm-15.27-35.13c.63-.4,1.35-.61,2.09-.61,1.35,0,2.59.68,3.32,1.84,1.15,1.82.6,4.25-1.22,5.42-.61.39-1.34.6-2.07.6s-1.45-.2-2.08-.59c-.51-.32-.93-.73-1.24-1.23-1.15-1.84-.61-4.27,1.21-5.43Zm10.55,41.4c-.23,1.03-.84,1.9-1.73,2.47-.62.4-1.34.61-2.08.61-1.35,0-2.59-.69-3.3-1.83-1.11-1.77-.66-4.09,1.03-5.29l.18-.12c1.8-1.15,4.28-.55,5.39,1.21.56.89.74,1.93.52,2.95Z"/>
  <path class="cls-1" d="m26.37,61.89c.75,3.41,3.16,6.16,6.45,7.34.94.34,1.91.53,2.9.58,2.12,5.75,6.07,10.81,9.75,13.14-3.8,1.58-5.54,2.13-9.24,5.19-2.36-1.25-5.19-1.59-7.77-.8-5.33,1.68-8.32,7.39-6.65,12.73,1.04,3.35,3.67,5.88,7.04,6.79,1.85.5,3.8.46,5.62-.12,5.31-1.66,8.3-7.37,6.65-12.71-.11-.35-.23-.69-.38-1.03,4.96-4.01,8.08-4.67,14.25-5.7h.02c5.72-.95,11.03.17,15.25,1.69v-7.5c-5.32-1.5-10.07-1.49-16.65-.51-1.98-.5-8.15-4.56-11.51-13.04,3.21-2.29,4.91-6.37,4-10.46-.75-3.41-3.16-6.16-6.45-7.35-1.8-.65-3.73-.77-5.6-.36-2.66.6-4.91,2.19-6.36,4.48-1.45,2.28-1.91,5-1.32,7.63Zm6.25,38.91c-.71.22-1.46.24-2.17.04-1.3-.35-2.32-1.33-2.73-2.63-.64-2.06.52-4.27,2.58-4.91.69-.22,1.45-.23,2.16-.04.71.19,1.35.57,1.85,1.11.41.44.71.95.88,1.51.64,2.07-.51,4.28-2.57,4.93Zm.3-43.21c.56-.89,1.43-1.51,2.46-1.73.71-.16,1.47-.12,2.16.13,1.27.46,2.2,1.52,2.49,2.84.45,2.04-.76,4.07-2.75,4.63l-.2.05c-2.09.47-4.22-.94-4.67-2.97-.23-1.03-.05-2.07.51-2.95Z"/>
</svg>