<svg id="Layer_1" data-name="Layer 1" xmlns="http://www.w3.org/2000/svg" viewBox="0 0 95 30"><defs><style>.cls-1{fill:#5aa854;}.cls-2{fill:#eb743b;}.cls-3{fill:#444;}</style></defs><polygon class="cls-1" points="14 1 2 8 2 22 14 29 14 1"/><polygon class="cls-2" points="15 1 27 8 27 22 15 29 15 1"/><path class="cls-1" d="M37.74,5.24l4.94,13.31,4.9-13.31h6.5V25H49.14V21l.51-10.39L44.31,25H41L35.71,10.67,36.22,21v4H31.28V5.24Z"/><path class="cls-2" d="M57.46,25V5.24h7.63a11,11,0,0,1,6.07,1.4,4.56,4.56,0,0,1,2.12,4.07,4.49,4.49,0,0,1-.77,2.62A4.37,4.37,0,0,1,70.3,15a4.38,4.38,0,0,1,2.54,1.61,4.44,4.44,0,0,1,.88,2.74,4.82,4.82,0,0,1-2,4.3A10.52,10.52,0,0,1,65.83,25Zm4.92-11.54h3q3,0,3-2.07a1.93,1.93,0,0,0-.72-1.7,3.89,3.89,0,0,0-2.19-.5H62.38Zm0,3.35v4.24h3.45A3.76,3.76,0,0,0,68,20.49,1.76,1.76,0,0,0,68.82,19c0-1.42-.86-2.15-2.59-2.19Z"/><path class="cls-3" d="M93.74,18.23a6.86,6.86,0,0,1-2.55,5.14A9.53,9.53,0,0,1,85,25.27a8.45,8.45,0,0,1-6.48-2.52,10,10,0,0,1-2.44-6.94V14.69a10.14,10.14,0,0,1,2.4-7.08A8.35,8.35,0,0,1,85,5a9.29,9.29,0,0,1,6.14,1.92,7.56,7.56,0,0,1,2.65,5.29h-4.9C88.74,10,87.45,8.92,85,8.92s-3.91,1.8-4,5.4v1.26a7.81,7.81,0,0,0,1,4.38A3.45,3.45,0,0,0,85,21.32a4.5,4.5,0,0,0,2.8-.74,3,3,0,0,0,1-2.35Z"/></svg>