<?xml version="1.0" encoding="UTF-8"?>
<svg id="Layer_1" data-name="Layer 1" xmlns="http://www.w3.org/2000/svg" width="370.56" height="33.71" viewBox="0 0 370.56 33.71">
  <defs>
    <style>
      .cls-1 {
        fill: #5aa854;
      }

      .cls-2 {
        fill: #444;
      }

      .cls-3 {
        fill: #eb743b;
      }
    </style>
  </defs>
  <g>
    <polygon class="cls-1" points="14 1 2 8 2 22 14 29 14 1"/>
    <polygon class="cls-3" points="15 1 27 8 27 22 15 29 15 1"/>
  </g>
  <g>
    <path class="cls-1" d="m38.51,3.28l5.07,15.81,5.06-15.81h7.21v22.72h-5.49v-5.31l.53-10.86-5.49,16.17h-3.62l-5.51-16.18.53,10.88v5.31h-5.48V3.28h7.19Z"/>
    <path class="cls-1" d="m67.26,26.31c-2.59,0-4.69-.77-6.29-2.32-1.6-1.54-2.4-3.56-2.4-6.03v-.44c0-1.73.32-3.25.96-4.57.64-1.32,1.57-2.34,2.8-3.07,1.23-.72,2.68-1.08,4.37-1.08,2.37,0,4.25.74,5.62,2.21,1.37,1.47,2.06,3.52,2.06,6.16v2.04h-10.46c.19.95.6,1.69,1.23,2.23s1.46.81,2.47.81c1.67,0,2.96-.58,3.9-1.75l2.4,2.84c-.66.91-1.58,1.63-2.79,2.16-1.2.54-2.5.8-3.88.8Zm-.59-13.45c-1.54,0-2.46,1.02-2.75,3.06h5.31v-.41c.02-.84-.19-1.5-.64-1.96s-1.09-.69-1.92-.69Z"/>
    <path class="cls-1" d="m82.61,4.92v4.2h2.78v3.65h-2.78v7.72c0,.63.11,1.08.34,1.33.23.25.68.38,1.36.38.52,0,.96-.03,1.31-.09v3.76c-.95.3-1.93.45-2.96.45-1.81,0-3.15-.43-4.01-1.28-.86-.85-1.29-2.15-1.29-3.89v-8.38h-2.15v-3.65h2.15v-4.2h5.26Z"/>
    <path class="cls-1" d="m96.97,26c-.19-.34-.35-.85-.5-1.51-.97,1.22-2.32,1.83-4.06,1.83-1.59,0-2.94-.48-4.06-1.44-1.11-.96-1.67-2.17-1.67-3.63,0-1.83.68-3.21,2.03-4.15,1.35-.94,3.32-1.4,5.9-1.4h1.62v-.89c0-1.56-.67-2.34-2.01-2.34-1.25,0-1.87.62-1.87,1.85h-5.26c0-1.63.69-2.96,2.08-3.97,1.39-1.02,3.16-1.53,5.31-1.53s3.85.53,5.1,1.58c1.25,1.05,1.89,2.49,1.92,4.32v7.48c.02,1.55.26,2.74.72,3.56v.27h-5.26Zm-3.29-3.43c.66,0,1.2-.14,1.63-.42s.74-.6.93-.95v-2.7h-1.53c-1.83,0-2.75.82-2.75,2.46,0,.48.16.87.48,1.16.32.3.73.44,1.23.44Z"/>
    <path class="cls-3" d="m104.66,26V3.28h8.16c2.92,0,5.15.54,6.67,1.61,1.52,1.07,2.29,2.63,2.29,4.67,0,1.18-.27,2.18-.81,3.01-.54.83-1.34,1.45-2.39,1.84,1.19.31,2.1.89,2.73,1.75.63.85.95,1.89.95,3.12,0,2.23-.71,3.9-2.11,5.02-1.41,1.12-3.5,1.69-6.27,1.71h-9.22Zm5.48-13.25h2.86c1.2-.01,2.05-.23,2.56-.66s.76-1.06.76-1.89c0-.96-.28-1.65-.83-2.07-.55-.42-1.44-.63-2.67-.63h-2.68v5.26Zm0,3.59v5.45h3.59c.99,0,1.75-.23,2.28-.68.53-.45.8-1.09.8-1.91,0-1.89-.94-2.85-2.82-2.86h-3.84Z"/>
    <path class="cls-3" d="m135.25,13.88l-1.73-.12c-1.65,0-2.71.52-3.18,1.56v10.69h-5.26V9.12h4.93l.17,2.17c.88-1.65,2.12-2.48,3.7-2.48.56,0,1.05.06,1.47.19l-.09,4.88Z"/>
    <path class="cls-3" d="m146.19,26c-.19-.34-.35-.85-.5-1.51-.97,1.22-2.32,1.83-4.06,1.83-1.59,0-2.94-.48-4.06-1.44-1.11-.96-1.67-2.17-1.67-3.63,0-1.83.68-3.21,2.03-4.15,1.35-.94,3.32-1.4,5.9-1.4h1.62v-.89c0-1.56-.67-2.34-2.01-2.34-1.25,0-1.87.62-1.87,1.85h-5.26c0-1.63.69-2.96,2.08-3.97,1.39-1.02,3.16-1.53,5.31-1.53s3.85.53,5.1,1.58c1.25,1.05,1.89,2.49,1.92,4.32v7.48c.02,1.55.26,2.74.72,3.56v.27h-5.26Zm-3.29-3.43c.66,0,1.2-.14,1.63-.42s.74-.6.93-.95v-2.7h-1.53c-1.83,0-2.75.82-2.75,2.46,0,.48.16.87.48,1.16.32.3.73.44,1.23.44Z"/>
    <path class="cls-3" d="m153.6,4.75c0-.75.27-1.37.81-1.85s1.24-.72,2.11-.72,1.57.24,2.11.72.81,1.1.81,1.85-.27,1.37-.81,1.85-1.24.72-2.11.72-1.57-.24-2.11-.72-.81-1.1-.81-1.85Zm5.59,21.25h-5.27V9.12h5.27v16.88Z"/>
    <path class="cls-3" d="m167.26,9.12l.17,1.98c1.17-1.53,2.77-2.29,4.82-2.29,1.76,0,3.07.53,3.94,1.58.87,1.05,1.32,2.63,1.35,4.74v10.88h-5.27v-10.66c0-.85-.17-1.48-.52-1.88-.34-.4-.97-.6-1.87-.6-1.03,0-1.79.41-2.29,1.22v11.92h-5.26V9.12h4.93Z"/>
    <path class="cls-3" d="m186.65,21.94h7.69v4.06h-14.34v-2.93l7.49-9.89h-7.16v-4.06h13.84v2.84l-7.52,9.99Z"/>
    <path class="cls-2" d="m223.48,18.31c-.07,1.58-.5,2.98-1.28,4.19-.78,1.21-1.88,2.15-3.29,2.82s-3.02,1-4.83,1c-2.99,0-5.34-.97-7.05-2.92-1.72-1.95-2.57-4.69-2.57-8.24v-1.12c0-2.23.39-4.17,1.16-5.84s1.89-2.96,3.35-3.87c1.46-.91,3.14-1.37,5.06-1.37,2.76,0,4.97.73,6.65,2.18,1.67,1.45,2.63,3.45,2.86,6h-5.46c-.04-1.38-.39-2.38-1.04-2.98-.66-.6-1.65-.91-3-.91s-2.36.51-3,1.53-.97,2.65-1,4.88v1.61c0,2.42.3,4.16.91,5.2.61,1.04,1.66,1.56,3.14,1.56,1.26,0,2.22-.3,2.89-.89.67-.59,1.02-1.53,1.06-2.82h5.45Z"/>
    <path class="cls-2" d="m225.17,17.4c0-1.69.33-3.19.98-4.5s1.6-2.33,2.82-3.04c1.23-.71,2.67-1.06,4.32-1.06,2.53,0,4.52.78,5.98,2.35,1.46,1.57,2.18,3.7,2.18,6.39v.19c0,2.63-.73,4.72-2.19,6.27s-3.44,2.32-5.94,2.32-4.33-.72-5.79-2.16c-1.46-1.44-2.24-3.39-2.36-5.86l-.02-.89Zm5.26.33c0,1.56.24,2.71.73,3.43.49.73,1.21,1.09,2.17,1.09,1.87,0,2.83-1.44,2.87-4.32v-.53c0-3.03-.97-4.54-2.9-4.54-1.76,0-2.71,1.31-2.86,3.92l-.02.95Z"/>
    <path class="cls-2" d="m248.75,9.12l.17,1.98c1.2-1.53,2.8-2.29,4.82-2.29,2.13,0,3.57.85,4.32,2.54,1.14-1.7,2.8-2.54,4.96-2.54,3.42,0,5.18,2.07,5.28,6.21v10.99h-5.28v-10.66c0-.86-.15-1.49-.44-1.89s-.82-.59-1.59-.59c-1.04,0-1.82.46-2.33,1.39l.02.22v11.53h-5.27v-10.63c0-.88-.14-1.52-.42-1.92-.28-.4-.82-.59-1.61-.59-1.01,0-1.78.46-2.31,1.39v11.75h-5.26V9.12h4.93Z"/>
    <path class="cls-2" d="m276.28,9.12l.17,1.98c1.2-1.53,2.8-2.29,4.82-2.29,2.13,0,3.57.85,4.32,2.54,1.14-1.7,2.8-2.54,4.96-2.54,3.42,0,5.18,2.07,5.28,6.21v10.99h-5.28v-10.66c0-.86-.15-1.49-.44-1.89s-.82-.59-1.59-.59c-1.04,0-1.82.46-2.33,1.39l.02.22v11.53h-5.27v-10.63c0-.88-.14-1.52-.42-1.92-.28-.4-.82-.59-1.61-.59-1.01,0-1.78.46-2.31,1.39v11.75h-5.26V9.12h4.93Z"/>
    <path class="cls-2" d="m308.89,24.17c-1.11,1.43-2.62,2.14-4.51,2.14s-3.25-.54-4.21-1.62c-.95-1.08-1.43-2.62-1.43-4.64v-10.94h5.26v10.97c0,1.45.7,2.17,2.11,2.17,1.21,0,2.06-.43,2.57-1.3v-11.84h5.29v16.88h-4.93l-.16-1.83Z"/>
    <path class="cls-2" d="m321.69,9.12l.17,1.98c1.17-1.53,2.77-2.29,4.82-2.29,1.76,0,3.07.53,3.94,1.58.87,1.05,1.32,2.63,1.35,4.74v10.88h-5.27v-10.66c0-.85-.17-1.48-.52-1.88-.34-.4-.97-.6-1.87-.6-1.03,0-1.79.41-2.29,1.22v11.92h-5.26V9.12h4.93Z"/>
    <path class="cls-2" d="m334.84,4.75c0-.75.27-1.37.81-1.85s1.24-.72,2.11-.72,1.57.24,2.11.72.81,1.1.81,1.85-.27,1.37-.81,1.85-1.24.72-2.11.72-1.57-.24-2.11-.72-.81-1.1-.81-1.85Zm5.59,21.25h-5.27V9.12h5.27v16.88Z"/>
    <path class="cls-2" d="m349.79,4.92v4.2h2.78v3.65h-2.78v7.72c0,.63.11,1.08.34,1.33.23.25.68.38,1.36.38.52,0,.96-.03,1.31-.09v3.76c-.95.3-1.93.45-2.96.45-1.81,0-3.15-.43-4.01-1.28-.86-.85-1.29-2.15-1.29-3.89v-8.38h-2.15v-3.65h2.15v-4.2h5.26Z"/>
    <path class="cls-2" d="m361.39,18.63l2.81-9.52h5.63l-6.88,19.71-.3.72c-.98,2.19-2.71,3.28-5.18,3.28-.69,0-1.41-.1-2.17-.31v-3.75h.69c.74,0,1.3-.11,1.69-.32.39-.21.68-.6.87-1.15l.42-1.12-5.87-17.05h5.62l2.67,9.52Z"/>
  </g>
</svg>