<svg id="Layer_1" data-name="Layer 1" xmlns="http://www.w3.org/2000/svg" viewBox="0 0 240 32"><defs><style>.cls-1{fill:#5aa854;}.cls-2{fill:#eb743b;}.cls-3{fill:#444;}</style></defs><polygon class="cls-1" points="14 1 2 8 2 22 14 29 14 1"/><polygon class="cls-2" points="15 1 27 8 27 22 15 29 15 1"/><path class="cls-1" d="M37.74,5.24l4.94,13.31,4.9-13.31h6.5V25H49.14V21l.51-10.39L44.31,25H41L35.71,10.67,36.22,21v4H31.28V5.24Z"/><path class="cls-2" d="M57.46,25V5.24h7.63a11,11,0,0,1,6.07,1.4,4.56,4.56,0,0,1,2.12,4.07,4.49,4.49,0,0,1-.77,2.62A4.37,4.37,0,0,1,70.3,15a4.38,4.38,0,0,1,2.54,1.61,4.44,4.44,0,0,1,.88,2.74,4.82,4.82,0,0,1-2,4.3A10.52,10.52,0,0,1,65.83,25Zm4.92-11.54h3q3,0,3-2.07a1.93,1.93,0,0,0-.72-1.7,3.89,3.89,0,0,0-2.19-.5H62.38Zm0,3.35v4.24h3.45A3.76,3.76,0,0,0,68,20.49,1.76,1.76,0,0,0,68.82,19c0-1.42-.86-2.15-2.59-2.19Z"/><path class="cls-3" d="M93.74,18.23a6.86,6.86,0,0,1-2.55,5.14A9.53,9.53,0,0,1,85,25.27a8.45,8.45,0,0,1-6.48-2.52,10,10,0,0,1-2.44-6.94V14.69a10.14,10.14,0,0,1,2.4-7.08A8.35,8.35,0,0,1,85,5a9.29,9.29,0,0,1,6.14,1.92,7.56,7.56,0,0,1,2.65,5.29h-4.9C88.74,10,87.45,8.92,85,8.92s-3.91,1.8-4,5.4v1.26a7.81,7.81,0,0,0,1,4.38A3.45,3.45,0,0,0,85,21.32a4.5,4.5,0,0,0,2.8-.74,3,3,0,0,0,1-2.35Z"/><path class="cls-3" d="M95.62,16.4a10,10,0,0,1,1-4.48,7.06,7.06,0,0,1,2.78-3,8.1,8.1,0,0,1,4.22-1.08,7.7,7.7,0,0,1,5.58,2.09,8.38,8.38,0,0,1,2.41,5.68l0,1.16A8.83,8.83,0,0,1,109.45,23,8.41,8.41,0,0,1,97.8,23a9,9,0,0,1-2.18-6.37Zm4.51.32A6.25,6.25,0,0,0,101,20.4a3.24,3.24,0,0,0,5.14,0,6.86,6.86,0,0,0,.93-4,6.17,6.17,0,0,0-.93-3.65,3,3,0,0,0-2.59-1.3A2.93,2.93,0,0,0,101,12.73,7,7,0,0,0,100.13,16.72Z"/><path class="cls-3" d="M118.62,8.12l.14,1.88a6,6,0,0,1,4.86-2.2,4.49,4.49,0,0,1,4.47,2.58,5.81,5.81,0,0,1,5.08-2.58,5,5,0,0,1,4.08,1.6,7.33,7.33,0,0,1,1.35,4.82V25h-4.53V14.21a3.29,3.29,0,0,0-.56-2.11,2.5,2.5,0,0,0-2-.66,2.82,2.82,0,0,0-2.81,1.94V25h-4.51V14.22a3.18,3.18,0,0,0-.57-2.12,2.51,2.51,0,0,0-2-.66A2.93,2.93,0,0,0,118.9,13V25h-4.51V8.12Z"/><path class="cls-3" d="M146.29,8.12l.14,1.88a6,6,0,0,1,4.86-2.2,4.49,4.49,0,0,1,4.47,2.58,5.81,5.81,0,0,1,5.08-2.58,5,5,0,0,1,4.08,1.6,7.33,7.33,0,0,1,1.35,4.82V25h-4.53V14.21a3.29,3.29,0,0,0-.56-2.11,2.51,2.51,0,0,0-2-.66,2.81,2.81,0,0,0-2.81,1.94V25h-4.51V14.22a3.18,3.18,0,0,0-.57-2.12,2.51,2.51,0,0,0-2-.66A2.92,2.92,0,0,0,146.57,13V25h-4.51V8.12Z"/><path class="cls-3" d="M179.84,23.28a5.63,5.63,0,0,1-4.62,2,5.33,5.33,0,0,1-4.14-1.56,6.66,6.66,0,0,1-1.46-4.57V8.12h4.51V19q0,2.64,2.4,2.64a3.28,3.28,0,0,0,3.16-1.6v-12h4.52V25H180Z"/><path class="cls-3" d="M191.76,8.12l.15,2a5.88,5.88,0,0,1,4.85-2.27,4.89,4.89,0,0,1,4,1.58,7.3,7.3,0,0,1,1.35,4.71V25h-4.51V14.18a2.92,2.92,0,0,0-.63-2.09,2.79,2.79,0,0,0-2.07-.65A3.11,3.11,0,0,0,192,13.07V25h-4.51V8.12Z"/><path class="cls-3" d="M205.48,3.75a2.22,2.22,0,0,1,.68-1.67,2.91,2.91,0,0,1,3.69,0,2.19,2.19,0,0,1,.69,1.67,2.2,2.2,0,0,1-.7,1.68,2.87,2.87,0,0,1-3.66,0A2.2,2.2,0,0,1,205.48,3.75ZM210.27,25h-4.52V8.12h4.52Z"/><path class="cls-3" d="M219.39,4V8.12h2.88v3.3h-2.88v8.43a2,2,0,0,0,.36,1.34,1.78,1.78,0,0,0,1.37.41,7.52,7.52,0,0,0,1.33-.11v3.42a9.37,9.37,0,0,1-2.74.4q-4.74,0-4.83-4.79v-9.1h-2.47V8.12h2.47V4Z"/><path class="cls-3" d="M231.09,18.62l3.12-10.5h4.84l-6.79,19.5-.37.89a5.15,5.15,0,0,1-5,3.31,7,7,0,0,1-2-.3V28.11h.68a3.68,3.68,0,0,0,1.91-.39,2.53,2.53,0,0,0,1-1.29l.53-1.39L223.1,8.12H228Z"/></svg>