<?xml version="1.0" encoding="UTF-8"?>
<svg id="Layer_1" data-name="Layer 1" xmlns="http://www.w3.org/2000/svg" width="601" height="152" viewBox="0 0 601 152">
  <defs>
    <style>
      .cls-1 {
        fill: #fffedb;
      }

      .cls-2 {
        fill: #5aa854;
      }

      .cls-3 {
        fill: #444;
      }

      .cls-4 {
        fill: #eb743b;
      }
    </style>
  </defs>
  <g>
    <polygon class="cls-4" points="68.42 3.82 68.42 147.82 129.68 111.82 129.68 39.82 68.42 3.82"/>
    <polygon class="cls-2" points="63.94 3.82 2.68 39.82 2.68 111.82 63.94 147.82 63.94 3.82"/>
    <path class="cls-1" d="m116.65,87.95c-1.85-2.95-5.05-4.72-8.54-4.72-1,0-1.98.15-2.92.44-3.93-4.69-8.69-7.16-12.85-8.45,3.34-2.57,6.29-5.66,8.83-9.23,2.6.59,5.42.19,7.71-1.25,4.72-3.01,6.13-9.3,3.14-14.02-1.87-2.96-5.06-4.73-8.55-4.73-1.92,0-3.78.54-5.4,1.57-4.7,2.99-6.12,9.27-3.15,14,.19.31.4.61.63.89-3.76,5.16-8.53,9.08-14.22,11.68h-.02c-5.28,2.41-8.4,3.18-12.89,3.18v7.5c5.98,0,8.86-1.69,14.96-4.35,2.04-.04,10.4.28,16.42,7.12-2.25,3.25-2.47,7.66-.24,11.21,1.85,2.95,5.05,4.73,8.55,4.73,1.91,0,3.77-.54,5.39-1.57,2.3-1.46,3.88-3.72,4.48-6.38.59-2.64.12-5.35-1.33-7.63Zm-15.27-35.13c.63-.4,1.35-.61,2.09-.61,1.35,0,2.59.68,3.32,1.84,1.15,1.82.6,4.25-1.22,5.42-.61.39-1.34.6-2.07.6s-1.45-.2-2.08-.59c-.51-.32-.93-.73-1.24-1.23-1.15-1.84-.61-4.27,1.21-5.43Zm10.55,41.4c-.23,1.03-.84,1.9-1.73,2.47-.62.4-1.34.61-2.08.61-1.35,0-2.59-.69-3.3-1.83-1.11-1.77-.66-4.09,1.03-5.29l.18-.12c1.8-1.15,4.28-.55,5.39,1.21.56.89.74,1.93.52,2.95Z"/>
    <path class="cls-1" d="m20.05,57.72c.75,3.41,3.16,6.16,6.45,7.34.94.34,1.91.53,2.9.58,2.12,5.75,6.07,10.81,9.75,13.14-3.8,1.58-5.54,2.13-9.24,5.19-2.36-1.25-5.19-1.59-7.77-.8-5.33,1.68-8.32,7.39-6.65,12.73,1.04,3.35,3.67,5.88,7.04,6.79,1.85.5,3.8.46,5.62-.12,5.31-1.66,8.3-7.37,6.65-12.71-.11-.35-.23-.69-.38-1.03,4.96-4.01,8.08-4.67,14.25-5.7h.02c5.72-.95,11.03.17,15.25,1.69v-7.5c-5.32-1.5-10.07-1.49-16.65-.51-1.98-.5-8.15-4.56-11.51-13.04,3.21-2.29,4.91-6.37,4-10.46-.75-3.41-3.16-6.16-6.45-7.35-1.8-.65-3.73-.77-5.6-.36-2.66.6-4.91,2.19-6.36,4.48-1.45,2.28-1.91,5-1.32,7.63Zm6.25,38.91c-.71.22-1.46.24-2.17.04-1.3-.35-2.32-1.33-2.73-2.63-.64-2.06.52-4.27,2.58-4.91.69-.22,1.45-.23,2.16-.04.71.19,1.35.57,1.85,1.11.41.44.71.95.88,1.51.64,2.07-.51,4.28-2.57,4.93Zm.3-43.21c.56-.89,1.43-1.51,2.46-1.73.71-.16,1.47-.12,2.16.13,1.27.46,2.2,1.52,2.49,2.84.45,2.04-.76,4.07-2.75,4.63l-.2.05c-2.09.47-4.22-.94-4.67-2.97-.23-1.03-.05-2.07.51-2.95Z"/>
  </g>
  <g>
    <path class="cls-3" d="m419.76,133.26c-.09,2.81-1.2,5.06-3.32,6.74-2.13,1.68-4.88,2.51-8.27,2.51-3.75,0-6.66-1.11-8.74-3.32s-3.12-5.37-3.12-9.45v-.72c0-2.57.48-4.81,1.44-6.75.96-1.93,2.33-3.41,4.09-4.43,1.76-1.02,3.8-1.53,6.12-1.53,3.46,0,6.23.85,8.32,2.55s3.26,4.01,3.51,6.94h-7.37c.03-1.2-.35-2.13-1.14-2.8-.79-.67-1.9-1.01-3.32-1.01-2.62,0-4.03,1.97-4.22,5.9l-.02,1.94c0,2.5.33,4.29.98,5.37s1.81,1.62,3.46,1.62c2.87,0,4.28-1.19,4.22-3.56h7.37Z"/>
    <path class="cls-3" d="m421.62,131.68c0-2.05.4-3.88,1.2-5.49.8-1.6,1.95-2.84,3.44-3.7s3.25-1.29,5.27-1.29c3.08,0,5.51.95,7.28,2.86,1.78,1.91,2.66,4.5,2.66,7.79v.23c0,3.21-.89,5.75-2.67,7.64-1.78,1.88-4.19,2.83-7.24,2.83s-5.28-.88-7.06-2.63c-1.78-1.76-2.73-4.14-2.87-7.14l-.02-1.08Zm6.41.4c0,1.9.3,3.3.89,4.18s1.48,1.33,2.64,1.33c2.28,0,3.45-1.76,3.5-5.27v-.65c0-3.69-1.18-5.53-3.54-5.53-2.14,0-3.3,1.59-3.48,4.77l-.02,1.16Z"/>
    <path class="cls-3" d="m450.36,121.58l.21,2.42c1.46-1.86,3.42-2.8,5.88-2.8,2.6,0,4.36,1.03,5.27,3.1,1.39-2.07,3.41-3.1,6.05-3.1,4.17,0,6.31,2.52,6.43,7.57v13.39h-6.43v-12.99c0-1.05-.18-1.82-.53-2.3-.36-.48-1-.72-1.94-.72-1.27,0-2.21.56-2.83,1.69l.02.27v14.05h-6.43v-12.95c0-1.08-.17-1.86-.51-2.34-.34-.48-1-.72-1.96-.72-1.23,0-2.17.56-2.82,1.69v14.32h-6.41v-20.58h6.01Z"/>
    <path class="cls-3" d="m483.91,121.58l.21,2.42c1.46-1.86,3.42-2.8,5.88-2.8,2.6,0,4.36,1.03,5.27,3.1,1.39-2.07,3.41-3.1,6.05-3.1,4.17,0,6.31,2.52,6.43,7.57v13.39h-6.43v-12.99c0-1.05-.18-1.82-.53-2.3-.36-.48-1-.72-1.94-.72-1.27,0-2.21.56-2.83,1.69l.02.27v14.05h-6.43v-12.95c0-1.08-.17-1.86-.51-2.34-.34-.48-1-.72-1.96-.72-1.23,0-2.17.56-2.82,1.69v14.32h-6.41v-20.58h6.01Z"/>
    <path class="cls-3" d="m523.66,139.94c-1.36,1.74-3.19,2.61-5.5,2.61s-3.97-.66-5.13-1.97-1.74-3.2-1.74-5.66v-13.33h6.41v13.37c0,1.76.86,2.64,2.57,2.64,1.47,0,2.52-.53,3.14-1.58v-14.44h6.45v20.58h-6.01l-.19-2.23Z"/>
    <path class="cls-3" d="m539.25,121.58l.21,2.42c1.42-1.86,3.38-2.8,5.88-2.8,2.14,0,3.74.64,4.8,1.92,1.06,1.28,1.61,3.21,1.64,5.78v13.26h-6.43v-12.99c0-1.04-.21-1.8-.63-2.29-.42-.49-1.18-.73-2.28-.73-1.25,0-2.19.49-2.8,1.48v14.53h-6.41v-20.58h6.01Z"/>
    <path class="cls-3" d="m555.29,116.26c0-.92.33-1.67.99-2.26s1.52-.88,2.57-.88,1.91.29,2.57.88.99,1.34.99,2.26-.33,1.67-.99,2.26c-.66.59-1.52.88-2.57.88s-1.91-.29-2.57-.88c-.66-.59-.99-1.34-.99-2.26Zm6.81,25.9h-6.43v-20.58h6.43v20.58Z"/>
    <path class="cls-3" d="m573.51,116.47v5.12h3.38v4.45h-3.38v9.41c0,.77.14,1.31.42,1.62.28.3.83.46,1.65.46.63,0,1.17-.04,1.6-.11v4.58c-1.15.37-2.36.55-3.61.55-2.21,0-3.84-.52-4.89-1.56-1.05-1.04-1.58-2.62-1.58-4.74v-10.21h-2.62v-4.45h2.62v-5.12h6.41Z"/>
    <path class="cls-3" d="m587.64,133.19l3.42-11.6h6.87l-8.39,24.02-.36.88c-1.19,2.66-3.3,3.99-6.31,3.99-.84,0-1.72-.13-2.64-.38v-4.57h.84c.9,0,1.59-.13,2.06-.39.48-.26.83-.73,1.06-1.4l.51-1.37-7.15-20.79h6.85l3.25,11.6Z"/>
  </g>
  <g>
    <path class="cls-2" d="m168.5,42.16l14.02,43.68,13.97-43.68h19.92v62.79h-15.18v-14.66l1.47-30.01-15.18,44.68h-10l-15.22-44.72,1.47,30.06v14.66h-15.14v-62.79h19.88Z"/>
    <path class="cls-2" d="m247.93,105.81c-7.16,0-12.95-2.13-17.38-6.4-4.43-4.27-6.64-9.83-6.64-16.67v-1.21c0-4.77.88-8.98,2.65-12.63,1.77-3.65,4.35-6.48,7.74-8.47,3.39-2,7.42-3,12.07-3,6.55,0,11.73,2.03,15.52,6.1s5.69,9.74,5.69,17.01v5.65h-28.89c.52,2.62,1.65,4.67,3.41,6.17,1.75,1.5,4.02,2.24,6.81,2.24,4.6,0,8.19-1.61,10.78-4.83l6.64,7.85c-1.81,2.5-4.38,4.49-7.7,5.97s-6.89,2.22-10.72,2.22Zm-1.64-37.17c-4.25,0-6.79,2.82-7.59,8.45h14.66v-1.12c.06-2.33-.53-4.13-1.77-5.41s-3-1.92-5.3-1.92Z"/>
    <path class="cls-2" d="m290.37,46.69v11.6h7.68v10.09h-7.68v21.35c0,1.75.32,2.98.95,3.67.63.69,1.88,1.03,3.75,1.03,1.44,0,2.65-.09,3.62-.26v10.39c-2.62.83-5.35,1.25-8.19,1.25-5,0-8.7-1.18-11.08-3.54-2.39-2.36-3.58-5.94-3.58-10.74v-23.16h-5.95v-10.09h5.95v-11.6h14.53Z"/>
    <path class="cls-2" d="m330.04,104.95c-.52-.95-.98-2.34-1.38-4.18-2.67,3.36-6.41,5.04-11.21,5.04-4.4,0-8.14-1.33-11.21-3.99s-4.61-6-4.61-10.03c0-5.06,1.87-8.88,5.61-11.47,3.74-2.59,9.17-3.88,16.3-3.88h4.48v-2.47c0-4.3-1.85-6.46-5.56-6.46-3.45,0-5.17,1.71-5.17,5.11h-14.53c0-4.51,1.92-8.17,5.76-10.98,3.84-2.81,8.73-4.22,14.68-4.22s10.65,1.45,14.1,4.36c3.45,2.9,5.22,6.89,5.3,11.95v20.66c.06,4.28.72,7.56,1.98,9.83v.73h-14.53Zm-9.1-9.49c1.81,0,3.31-.39,4.51-1.16,1.19-.78,2.05-1.65,2.57-2.63v-7.46h-4.23c-5.06,0-7.59,2.27-7.59,6.81,0,1.32.45,2.39,1.34,3.21.89.82,2.03,1.23,3.41,1.23Z"/>
    <path class="cls-4" d="m351.3,104.95v-62.79h22.55c8.08,0,14.22,1.48,18.44,4.44,4.21,2.96,6.32,7.26,6.32,12.89,0,3.25-.75,6.02-2.24,8.32-1.5,2.3-3.69,4-6.6,5.09,3.28.86,5.79,2.47,7.55,4.83s2.63,5.23,2.63,8.62c0,6.15-1.95,10.77-5.84,13.86-3.9,3.09-9.67,4.66-17.31,4.72h-25.49Zm15.14-36.61h7.89c3.31-.03,5.66-.63,7.07-1.82,1.41-1.18,2.11-2.93,2.11-5.23,0-2.65-.76-4.56-2.29-5.73s-3.98-1.75-7.37-1.75h-7.42v14.53Zm0,9.92v15.05h9.92c2.73,0,4.83-.62,6.3-1.88,1.47-1.25,2.2-3.01,2.2-5.28,0-5.23-2.6-7.86-7.81-7.89h-10.61Z"/>
    <path class="cls-4" d="m435.82,71.44l-4.79-.34c-4.57,0-7.5,1.44-8.8,4.31v29.54h-14.53v-46.66h13.63l.47,5.99c2.44-4.57,5.85-6.86,10.22-6.86,1.55,0,2.9.17,4.05.52l-.26,13.5Z"/>
    <path class="cls-4" d="m466.05,104.95c-.52-.95-.98-2.34-1.38-4.18-2.67,3.36-6.41,5.04-11.21,5.04-4.4,0-8.14-1.33-11.21-3.99s-4.61-6-4.61-10.03c0-5.06,1.87-8.88,5.61-11.47,3.74-2.59,9.17-3.88,16.3-3.88h4.48v-2.47c0-4.3-1.85-6.46-5.56-6.46-3.45,0-5.17,1.71-5.17,5.11h-14.53c0-4.51,1.92-8.17,5.76-10.98,3.84-2.81,8.73-4.22,14.68-4.22s10.65,1.45,14.1,4.36c3.45,2.9,5.22,6.89,5.3,11.95v20.66c.06,4.28.72,7.56,1.98,9.83v.73h-14.53Zm-9.1-9.49c1.81,0,3.31-.39,4.51-1.16,1.19-.78,2.05-1.65,2.57-2.63v-7.46h-4.23c-5.06,0-7.59,2.27-7.59,6.81,0,1.32.45,2.39,1.34,3.21.89.82,2.03,1.23,3.41,1.23Z"/>
    <path class="cls-4" d="m486.53,46.21c0-2.08.75-3.79,2.24-5.12,1.49-1.33,3.43-2,5.82-2s4.33.67,5.82,2c1.49,1.33,2.24,3.04,2.24,5.12s-.75,3.79-2.24,5.12c-1.5,1.33-3.44,2-5.82,2s-4.33-.67-5.82-2c-1.5-1.33-2.24-3.04-2.24-5.12Zm15.44,58.73h-14.58v-46.66h14.58v46.66Z"/>
    <path class="cls-4" d="m524.27,58.29l.47,5.48c3.22-4.23,7.66-6.34,13.33-6.34,4.86,0,8.49,1.45,10.89,4.36,2.4,2.9,3.64,7.27,3.73,13.11v30.06h-14.58v-29.45c0-2.36-.47-4.09-1.42-5.2-.95-1.11-2.67-1.66-5.17-1.66-2.85,0-4.96,1.12-6.34,3.36v32.95h-14.53v-46.66h13.63Z"/>
    <path class="cls-4" d="m577.87,93.74h21.26v11.21h-39.63v-8.11l20.7-27.34h-19.79v-11.21h38.25v7.85l-20.79,27.6Z"/>
  </g>
</svg>