<?xml version="1.0" encoding="UTF-8"?>
<svg xmlns="http://www.w3.org/2000/svg" width="145" height="160" viewBox="0 0 145 160">
  <defs>
    <style>
      .cls-1 {
        mix-blend-mode: multiply;
        opacity: .07;
      }

      .cls-2 {
        fill: #43883e;
      }

      .cls-3 {
        isolation: isolate;
      }

      .cls-4 {
        fill: #fffedb;
      }

      .cls-5 {
        fill: #5aa854;
      }

      .cls-6 {
        fill: #d3562c;
      }

      .cls-7 {
        fill: #eb743b;
      }
    </style>
  </defs>
  <g class="cls-3">
    <g id="Layer_1" data-name="Layer 1">
      <g>
        <polygon class="cls-7" points="75 8 75 152 136 117 136 43 75 8"/>
        <polygon class="cls-5" points="70 152 9 117 9 43 70 8 70 152"/>
        <g>
          <g class="cls-1">
            <path d="m92.3,99.73c.39-.64,1.07-1.03,1.82-1.03.38,0,.75.1,1.08.3,1,.6,1.33,1.9.74,2.9-.38.65-1.06,1.03-1.82,1.03-.38,0-.75-.1-1.08-.3-.48-.29-.83-.75-.96-1.29-.14-.55-.06-1.12.23-1.6Zm12.6,22.36c-.49.42-1.02.51-1.37.51-.62,0-1.21-.27-1.61-.73-.76-.88-.65-2.22.23-2.98.49-.42,1.02-.51,1.37-.51.62,0,1.2.27,1.61.74.37.43.55.98.5,1.54-.04.56-.3,1.07-.73,1.44Z"/>
            <path d="m84,53.61c.07.02.14.03.21.05-.07-.01-.14-.03-.21-.05Z"/>
            <path d="m95.38,63.26c.17-.27.39-.49.67-.66.33-.21.72-.32,1.12-.32s.79.11,1.12.32c.99.63,1.28,1.94.66,2.92-.39.62-1.06.99-1.79.99-.4,0-.79-.11-1.12-.33-.98-.62-1.28-1.94-.66-2.92Zm6.38-20.19c-.6.95-1.94,1.27-2.91.65l-.1-.06c-.91-.65-1.16-1.9-.56-2.85.39-.61,1.05-.98,1.78-.98.4,0,.79.11,1.12.33.48.3.81.78.94,1.33.12.55.03,1.11-.28,1.58Z"/>
            <path d="m118.53,54.67c.39-.61,1.05-.98,1.78-.98.4,0,.79.11,1.12.33.48.3.81.78.94,1.33.12.55.02,1.11-.28,1.58-.6.95-1.94,1.27-2.91.65l-.09-.06c-.92-.65-1.16-1.9-.56-2.85Zm0,23.46c.39-.61,1.05-.98,1.78-.98.4,0,.79.11,1.12.33.48.3.81.77.94,1.33.12.55.02,1.11-.28,1.58-.6.95-1.94,1.27-2.91.65l-.09-.06c-.92-.65-1.16-1.9-.56-2.85Zm0,26.3c.39-.61,1.05-.98,1.78-.98.4,0,.79.11,1.12.33.48.3.81.78.94,1.33.12.55.02,1.11-.28,1.58-.6.95-1.94,1.27-2.91.65l-.09-.06c-.92-.65-1.16-1.9-.56-2.85Z"/>
            <path d="m108.18,114.1c-1.17-1.36-2.86-2.14-4.65-2.14-1.46,0-2.88.53-3.98,1.48-1.61,1.38-2.33,3.43-2.09,5.4-1.95.7-4.26,1.37-5.33,1.33-.82-.04-1.3-.35-2.22-.97-1.17-.79-2.42-1.51-4.15-1.85,2.94-2.76,6.01-6.83,8.58-12.83,2.06-.08,3.98-1.19,5.04-2.97,1.72-2.9.77-6.66-2.12-8.39-.95-.57-2.03-.86-3.13-.86-2.15,0-4.16,1.14-5.26,2.99-.84,1.41-1.08,3.05-.68,4.64.35,1.39,1.16,2.59,2.3,3.43-4.05,9.22-9.22,13.08-12.57,14.68-.13.04-.25.1-.36.17-1.19.53-2.05.7-2.56.81v4c.28-.03,1.88-.12,4.25-1.19,5.35-1.36,6.84-.35,8.41.71,1.02.69,2.29,1.55,4.26,1.66.1,0,.2,0,.31,0,2.11,0,5.17-1.02,7.02-1.72,1.14,1.12,2.68,1.75,4.29,1.75h0c1.46,0,2.88-.52,3.98-1.48,1.24-1.06,1.99-2.55,2.12-4.18.12-1.63-.39-3.21-1.46-4.45Zm-15.87-16.78c.39-.64,1.07-1.03,1.82-1.03.38,0,.75.1,1.08.3,1,.6,1.33,1.9.74,2.9-.38.65-1.06,1.03-1.82,1.03-.38,0-.75-.1-1.08-.3-.48-.29-.83-.75-.96-1.29-.14-.55-.06-1.12.23-1.6Zm12.6,22.36c-.49.42-1.02.51-1.37.51-.62,0-1.21-.27-1.61-.73-.76-.88-.65-2.22.23-2.98.49-.42,1.02-.51,1.37-.51.62,0,1.2.27,1.61.74.37.43.55.98.5,1.54-.04.56-.3,1.07-.73,1.44Z"/>
            <path d="m84,51.21c.07.02.14.03.21.05-.07-.01-.14-.03-.21-.05Z"/>
            <path d="m105.95,38.2c-.36-1.6-1.32-2.96-2.71-3.84-.98-.62-2.11-.94-3.26-.94-2.12,0-4.05,1.07-5.17,2.85-1.35,2.14-1.22,4.8.14,6.76-3.65,4.12-8.71,4.31-9.94,4.29-3.69-1.6-7.23-2.16-10-2.32v4c2.44.14,5.55.69,8.75,2.14,0,0,0,0,.01,0,3.45,1.56,6.33,3.93,8.61,7.04-.14.17-.26.35-.38.54-1.8,2.85-.94,6.64,1.9,8.44.98.62,2.11.95,3.27.95,2.11,0,4.05-1.07,5.18-2.85,1.81-2.85.95-6.64-1.91-8.45-1.38-.87-3.09-1.11-4.67-.75-1.54-2.15-3.32-4.02-5.34-5.57,2.52-.78,5.4-2.27,7.78-5.1.57.17,1.17.27,1.77.27,2.12,0,4.05-1.07,5.17-2.85.88-1.38,1.16-3.01.8-4.6Zm-10.57,22.65c.17-.27.39-.49.67-.66.33-.21.72-.32,1.12-.32s.79.11,1.12.32c.99.63,1.28,1.94.66,2.92-.39.62-1.06.99-1.79.99-.4,0-.79-.11-1.12-.33-.98-.62-1.28-1.94-.66-2.92Zm6.38-20.19c-.6.95-1.94,1.27-2.91.65l-.1-.06c-.91-.65-1.16-1.9-.56-2.85.39-.61,1.05-.98,1.78-.98.4,0,.79.11,1.12.33.48.3.81.78.94,1.33.12.55.03,1.11-.28,1.58Z"/>
            <path d="m114.65,79.19c.42,1.04,1.14,1.96,2.11,2.65.07.05.15.11.28.19.98.62,2.11.95,3.27.95,2.12,0,4.05-1.07,5.17-2.85.88-1.38,1.16-3.01.8-4.6-.36-1.6-1.32-2.96-2.71-3.84-.98-.62-2.11-.94-3.27-.94-.12,0-.25,0-.38.02-.71-3.16-.92-7.77.04-11.26.11.01.22.02.34.02,2.12,0,4.05-1.07,5.17-2.85.88-1.38,1.16-3.01.8-4.6-.36-1.6-1.32-2.96-2.71-3.84-.98-.62-2.11-.94-3.27-.94-2.11,0-4.05,1.07-5.17,2.85-1.6,2.53-1.12,5.8,1.02,7.76.02.02.05.04.07.06-1.35,4.52-1.15,10.32-.04,14.42-.14.13-.29.25-.43.4-.23.25-.45.53-.63.82-.32.5-.55,1.03-.71,1.58-3.37.49-5.2,1.67-6.82,2.73-2.04,1.32-3.96,2.57-9.64,2.67-1.96-.23-3.55-.18-5.29-.12-1.43.05-2.91.11-4.85,0-1.33-.07-2.1-.88-3.46-2.42-1.8-2.05-4.22-4.65-9.37-5.02v4c3.29.3,4.8,1.89,6.36,3.67,1.49,1.69,3.17,3.62,6.26,3.78,2.12.11,3.76.05,5.21,0,2.49-.09,4.45-.16,7.86.68,2.61.64,12.1,9.67,14.77,14.32-.11.14-.22.28-.31.43-1.74,2.75-1.03,6.38,1.62,8.25.07.05.15.1.28.19.98.62,2.11.95,3.27.95,2.12,0,4.05-1.07,5.17-2.85.88-1.37,1.16-3.01.8-4.6-.36-1.6-1.32-2.96-2.71-3.84-.98-.62-2.11-.94-3.27-.94-.53,0-1.05.07-1.54.2-2.56-4.19-8.65-10.46-13.19-13.79,1.81-.63,3.05-1.43,4.21-2.19,1.43-.93,2.61-1.69,4.86-2.07Zm3.88-26.92c.39-.61,1.05-.98,1.78-.98.4,0,.79.11,1.12.33.48.3.81.78.94,1.33.12.55.02,1.11-.28,1.58-.6.95-1.94,1.27-2.91.65l-.09-.06c-.92-.65-1.16-1.9-.56-2.85Zm0,23.46c.39-.61,1.05-.98,1.78-.98.4,0,.79.11,1.12.33.48.3.81.77.94,1.33.12.55.02,1.11-.28,1.59-.6.95-1.94,1.27-2.91.65l-.09-.06c-.92-.65-1.16-1.9-.56-2.85Zm0,26.3c.39-.61,1.05-.98,1.78-.98.4,0,.79.11,1.12.33.48.3.81.78.94,1.33.12.55.02,1.11-.28,1.58-.6.95-1.94,1.27-2.91.65l-.09-.06c-.92-.65-1.16-1.9-.56-2.85Z"/>
          </g>
          <g>
            <g>
              <path class="cls-6" d="m108.18,117.1c-1.17-1.36-2.86-2.14-4.65-2.14-1.46,0-2.88.53-3.98,1.48-1.61,1.38-2.33,3.43-2.09,5.4-1.95.7-4.26,1.37-5.33,1.33-.82-.04-1.3-.35-2.22-.97-1.17-.79-2.42-1.51-4.15-1.85,2.94-2.76,6.01-6.83,8.58-12.83,2.06-.08,3.98-1.19,5.04-2.97,1.72-2.9.77-6.66-2.12-8.39-.95-.57-2.03-.86-3.13-.86-2.15,0-4.16,1.14-5.26,2.99-.84,1.41-1.08,3.05-.68,4.64.35,1.39,1.16,2.59,2.3,3.43-4.05,9.22-9.22,13.08-12.57,14.68-.13.04-.25.1-.36.17-1.19.53-2.05.7-2.56.81v4c.28-.03,1.88-.12,4.25-1.19,5.35-1.36,6.84-.35,8.41.71,1.02.69,2.29,1.55,4.26,1.66.1,0,.2,0,.31,0,2.11,0,5.17-1.02,7.02-1.72,1.14,1.12,2.68,1.75,4.29,1.75h0c1.46,0,2.88-.52,3.98-1.48,1.24-1.06,1.99-2.55,2.12-4.18.12-1.63-.39-3.21-1.46-4.45Zm-15.87-16.78c.39-.64,1.07-1.03,1.82-1.03.38,0,.75.1,1.08.3,1,.6,1.33,1.9.74,2.9-.38.65-1.06,1.03-1.82,1.03-.38,0-.75-.1-1.08-.3-.48-.29-.83-.75-.96-1.29-.14-.55-.06-1.12.23-1.6Zm12.6,22.36c-.49.42-1.02.51-1.37.51-.62,0-1.21-.27-1.61-.73-.76-.88-.65-2.22.23-2.98.49-.42,1.02-.51,1.37-.51.62,0,1.2.27,1.61.74.37.43.55.98.5,1.54-.04.56-.3,1.07-.73,1.44Z"/>
              <path d="m84,53.61c.07.02.14.03.21.05-.07-.01-.14-.03-.21-.05Z"/>
              <path class="cls-6" d="m105.95,41.21c-.36-1.6-1.32-2.96-2.71-3.84-.98-.62-2.11-.94-3.26-.94-2.12,0-4.05,1.07-5.17,2.85-1.35,2.14-1.22,4.8.14,6.76-3.65,4.12-8.71,4.31-9.94,4.29-3.69-1.6-7.23-2.16-10-2.32v4c2.44.14,5.55.69,8.75,2.14,0,0,0,0,.01,0,3.45,1.56,6.33,3.93,8.61,7.04-.14.17-.26.35-.38.54-1.8,2.85-.94,6.64,1.9,8.44.98.62,2.11.95,3.27.95,2.11,0,4.05-1.07,5.18-2.85,1.81-2.85.95-6.64-1.91-8.45-1.38-.87-3.09-1.11-4.67-.75-1.54-2.15-3.32-4.02-5.34-5.57,2.52-.78,5.4-2.27,7.78-5.1.57.17,1.17.27,1.77.27,2.12,0,4.05-1.07,5.17-2.85.88-1.38,1.16-3.01.8-4.6Zm-10.57,22.65c.17-.27.39-.49.67-.66.33-.21.72-.32,1.12-.32s.79.11,1.12.32c.99.63,1.28,1.94.66,2.92-.39.62-1.06.99-1.79.99-.4,0-.79-.11-1.12-.33-.98-.62-1.28-1.94-.66-2.92Zm6.38-20.19c-.6.95-1.94,1.27-2.91.65l-.1-.06c-.91-.65-1.16-1.9-.56-2.85.39-.61,1.05-.98,1.78-.98.4,0,.79.11,1.12.33.48.3.81.78.94,1.33.12.55.03,1.11-.28,1.58Z"/>
              <path class="cls-6" d="m114.65,82.19c.42,1.04,1.14,1.96,2.11,2.65.07.05.15.11.28.19.98.62,2.11.95,3.27.95,2.12,0,4.05-1.07,5.17-2.85.88-1.38,1.16-3.01.8-4.6-.36-1.6-1.32-2.96-2.71-3.84-.98-.62-2.11-.94-3.27-.94-.12,0-.25,0-.38.02-.71-3.16-.92-7.77.04-11.26.11.01.22.02.34.02,2.12,0,4.05-1.07,5.17-2.85.88-1.38,1.16-3.01.8-4.6-.36-1.6-1.32-2.96-2.71-3.84-.98-.62-2.11-.94-3.27-.94-2.11,0-4.05,1.07-5.17,2.85-1.6,2.53-1.12,5.8,1.02,7.76.02.02.05.04.07.06-1.35,4.52-1.15,10.32-.04,14.42-.14.13-.29.25-.43.4-.23.25-.45.53-.63.82-.32.5-.55,1.03-.71,1.58-3.37.49-5.2,1.67-6.82,2.73-2.04,1.32-3.96,2.57-9.64,2.67-1.96-.23-3.55-.18-5.29-.12-1.43.05-2.91.11-4.85,0-1.33-.07-2.1-.88-3.46-2.42-1.8-2.05-4.22-4.65-9.37-5.02v4c3.29.3,4.8,1.89,6.36,3.67,1.49,1.69,3.17,3.62,6.26,3.78,2.12.11,3.76.05,5.21,0,2.49-.09,4.45-.16,7.86.68,2.61.64,12.1,9.67,14.77,14.32-.11.14-.22.28-.31.43-1.74,2.75-1.03,6.38,1.62,8.25.07.05.15.1.28.19.98.62,2.11.95,3.27.95,2.12,0,4.05-1.07,5.17-2.85.88-1.37,1.16-3.01.8-4.6-.36-1.6-1.32-2.96-2.71-3.84-.98-.62-2.11-.94-3.27-.94-.53,0-1.05.07-1.54.2-2.56-4.19-8.65-10.46-13.19-13.79,1.81-.63,3.05-1.43,4.21-2.19,1.43-.93,2.61-1.69,4.86-2.07Zm3.88-26.92c.39-.61,1.05-.98,1.78-.98.4,0,.79.11,1.12.33.48.3.81.78.94,1.33.12.55.02,1.11-.28,1.58-.6.95-1.94,1.27-2.91.65l-.09-.06c-.92-.65-1.16-1.9-.56-2.85Zm0,23.46c.39-.61,1.05-.98,1.78-.98.4,0,.79.11,1.12.33.48.3.81.77.94,1.33.12.55.02,1.11-.28,1.59-.6.95-1.94,1.27-2.91.65l-.09-.06c-.92-.65-1.16-1.9-.56-2.85Zm0,26.3c.39-.61,1.05-.98,1.78-.98.4,0,.79.11,1.12.33.48.3.81.78.94,1.33.12.55.02,1.11-.28,1.58-.6.95-1.94,1.27-2.91.65l-.09-.06c-.92-.65-1.16-1.9-.56-2.85Z"/>
            </g>
            <g>
              <path class="cls-4" d="m108.18,114.1c-1.17-1.36-2.86-2.14-4.65-2.14-1.46,0-2.88.53-3.98,1.48-1.61,1.38-2.33,3.43-2.09,5.4-1.95.7-4.26,1.37-5.33,1.33-.82-.04-1.3-.35-2.22-.97-1.17-.79-2.42-1.51-4.15-1.85,2.94-2.76,6.01-6.83,8.58-12.83,2.06-.08,3.98-1.19,5.04-2.97,1.72-2.9.77-6.66-2.12-8.39-.95-.57-2.03-.86-3.13-.86-2.15,0-4.16,1.14-5.26,2.99-.84,1.41-1.08,3.05-.68,4.64.35,1.39,1.16,2.59,2.3,3.43-4.05,9.22-9.22,13.08-12.57,14.68-.13.04-.25.1-.36.17-1.19.53-2.05.7-2.56.81v4c.28-.03,1.88-.12,4.25-1.19,5.35-1.36,6.84-.35,8.41.71,1.02.69,2.29,1.55,4.26,1.66.1,0,.2,0,.31,0,2.11,0,5.17-1.02,7.02-1.72,1.14,1.12,2.68,1.75,4.29,1.75h0c1.46,0,2.88-.52,3.98-1.48,1.24-1.06,1.99-2.55,2.12-4.18.12-1.63-.39-3.21-1.46-4.45Zm-15.87-16.78c.39-.64,1.07-1.03,1.82-1.03.38,0,.75.1,1.08.3,1,.6,1.33,1.9.74,2.9-.38.65-1.06,1.03-1.82,1.03-.38,0-.75-.1-1.08-.3-.48-.29-.83-.75-.96-1.29-.14-.55-.06-1.12.23-1.6Zm12.6,22.36c-.49.42-1.02.51-1.37.51-.62,0-1.21-.27-1.61-.73-.76-.88-.65-2.22.23-2.98.49-.42,1.02-.51,1.37-.51.62,0,1.2.27,1.61.74.37.43.55.98.5,1.54-.04.56-.3,1.07-.73,1.44Z"/>
              <path class="cls-4" d="m84,51.21c.07.02.14.03.21.05-.07-.01-.14-.03-.21-.05Z"/>
              <path class="cls-4" d="m105.95,38.2c-.36-1.6-1.32-2.96-2.71-3.84-.98-.62-2.11-.94-3.26-.94-2.12,0-4.05,1.07-5.17,2.85-1.35,2.14-1.22,4.8.14,6.76-3.65,4.12-8.71,4.31-9.94,4.29-3.69-1.6-7.23-2.16-10-2.32v4c2.44.14,5.55.69,8.75,2.14,0,0,0,0,.01,0,3.45,1.56,6.33,3.93,8.61,7.04-.14.17-.26.35-.38.54-1.8,2.85-.94,6.64,1.9,8.44.98.62,2.11.95,3.27.95,2.11,0,4.05-1.07,5.18-2.85,1.81-2.85.95-6.64-1.91-8.45-1.38-.87-3.09-1.11-4.67-.75-1.54-2.15-3.32-4.02-5.34-5.57,2.52-.78,5.4-2.27,7.78-5.1.57.17,1.17.27,1.77.27,2.12,0,4.05-1.07,5.17-2.85.88-1.38,1.16-3.01.8-4.6Zm-10.57,22.65c.17-.27.39-.49.67-.66.33-.21.72-.32,1.12-.32s.79.11,1.12.32c.99.63,1.28,1.94.66,2.92-.39.62-1.06.99-1.79.99-.4,0-.79-.11-1.12-.33-.98-.62-1.28-1.94-.66-2.92Zm6.38-20.19c-.6.95-1.94,1.27-2.91.65l-.1-.06c-.91-.65-1.16-1.9-.56-2.85.39-.61,1.05-.98,1.78-.98.4,0,.79.11,1.12.33.48.3.81.78.94,1.33.12.55.03,1.11-.28,1.58Z"/>
              <path class="cls-4" d="m114.65,79.19c.42,1.04,1.14,1.96,2.11,2.65.07.05.15.11.28.19.98.62,2.11.95,3.27.95,2.12,0,4.05-1.07,5.17-2.85.88-1.38,1.16-3.01.8-4.6-.36-1.6-1.32-2.96-2.71-3.84-.98-.62-2.11-.94-3.27-.94-.12,0-.25,0-.38.02-.71-3.16-.92-7.77.04-11.26.11.01.22.02.34.02,2.12,0,4.05-1.07,5.17-2.85.88-1.38,1.16-3.01.8-4.6-.36-1.6-1.32-2.96-2.71-3.84-.98-.62-2.11-.94-3.27-.94-2.11,0-4.05,1.07-5.17,2.85-1.6,2.53-1.12,5.8,1.02,7.76.02.02.05.04.07.06-1.35,4.52-1.15,10.32-.04,14.42-.14.13-.29.25-.43.4-.23.25-.45.53-.63.82-.32.5-.55,1.03-.71,1.58-3.37.49-5.2,1.67-6.82,2.73-2.04,1.32-3.96,2.57-9.64,2.67-1.96-.23-3.55-.18-5.29-.12-1.43.05-2.91.11-4.85,0-1.33-.07-2.1-.88-3.46-2.42-1.8-2.05-4.22-4.65-9.37-5.02v4c3.29.3,4.8,1.89,6.36,3.67,1.49,1.69,3.17,3.62,6.26,3.78,2.12.11,3.76.05,5.21,0,2.49-.09,4.45-.16,7.86.68,2.61.64,12.1,9.67,14.77,14.32-.11.14-.22.28-.31.43-1.74,2.75-1.03,6.38,1.62,8.25.07.05.15.1.28.19.98.62,2.11.95,3.27.95,2.12,0,4.05-1.07,5.17-2.85.88-1.37,1.16-3.01.8-4.6-.36-1.6-1.32-2.96-2.71-3.84-.98-.62-2.11-.94-3.27-.94-.53,0-1.05.07-1.54.2-2.56-4.19-8.65-10.46-13.19-13.79,1.81-.63,3.05-1.43,4.21-2.19,1.43-.93,2.61-1.69,4.86-2.07Zm3.88-26.92c.39-.61,1.05-.98,1.78-.98.4,0,.79.11,1.12.33.48.3.81.78.94,1.33.12.55.02,1.11-.28,1.58-.6.95-1.94,1.27-2.91.65l-.09-.06c-.92-.65-1.16-1.9-.56-2.85Zm0,23.46c.39-.61,1.05-.98,1.78-.98.4,0,.79.11,1.12.33.48.3.81.77.94,1.33.12.55.02,1.11-.28,1.59-.6.95-1.94,1.27-2.91.65l-.09-.06c-.92-.65-1.16-1.9-.56-2.85Zm0,26.3c.39-.61,1.05-.98,1.78-.98.4,0,.79.11,1.12.33.48.3.81.78.94,1.33.12.55.02,1.11-.28,1.58-.6.95-1.94,1.27-2.91.65l-.09-.06c-.92-.65-1.16-1.9-.56-2.85Z"/>
            </g>
          </g>
        </g>
        <g>
          <path class="cls-2" d="m70,73.06c-.36-.85-.72-1.71-1.08-2.56-1.14-2.69-2.29-5.38-3.42-8.07-.44-1.04-.85-2.1-1.24-3.16-.2-.55-.37-1.12-.35-1.72.02-.57.26-1,.78-1.26.35-.18.72-.26,1.1-.32.54-.09,1.07-.2,1.6-.32.36-.08.43-.17.43-.57,0-.73,0-1.45,0-2.18,0-.09,0-.18-.02-.27-.02-.15-.11-.26-.26-.27-.2-.02-.41-.03-.61-.03-5.63,0-11.25,0-16.88,0-.16,0-.32-.01-.48,0-.13.02-.25.07-.36.11-.03.1-.06.16-.06.23,0,.73,0,1.45-.01,2.18,0,.34.18.56.49.66.32.1.66.16.99.23.35.07.71.14,1.07.2.95.18,1.64.73,2.16,1.53.48.74.87,1.54,1.22,2.35,1.18,2.72,2.35,5.45,3.54,8.17,1.51,3.47,3.05,6.92,4.56,10.39,1.18,2.7,2.44,5.36,3.48,8.12.44,1.16.9,2.32,1.36,3.51-3.44,7.94-6.88,15.88-10.32,23.82-.04.1-.11.19-.17.28-.3.02-.5-.1-.62-.35-.06-.12-.11-.25-.16-.37-.44-1.07-.87-2.14-1.31-3.21-1.35-3.32-2.71-6.63-4.05-9.95-1.27-3.13-2.52-6.26-3.77-9.4-1.35-3.37-2.7-6.73-4.03-10.1-1.68-4.28-3.36-8.56-5.01-12.85-.88-2.28-1.71-4.59-2.56-6.88-.32-.87-.58-1.76-.7-2.69-.1-.83.21-1.46.9-1.91.35-.23.73-.37,1.14-.42.65-.08,1.31-.14,1.96-.18.81-.05,1.63-.06,2.45-.08.37,0,.72-.11,1.05-.26.3-.13.55-.34.55-.71,0-.61,0-1.22,0-1.84,0-.2-.11-.35-.32-.39-.31-.06-.63-.13-.94-.13-3.11-.03-6.21.01-9.32-.05-2.77-.06-5.54-.02-8.3,0-1.9,0-3.81.04-5.71.06-.2,0-.41.03-.6.08-.35.09-.42.16-.43.51-.01.57-.01,1.13,0,1.7,0,.5.15.71.62.85.35.1.71.19,1.06.2.96.05,1.89.21,2.82.44,1.14.28,2.05.85,2.57,1.93.37.77.76,1.54,1.08,2.34.63,1.62,1.2,3.27,1.83,4.9,1.68,4.38,3.35,8.76,5.08,13.12,2.15,5.41,4.34,10.81,6.52,16.21,1.62,4.01,3.24,8.02,4.85,12.04,1.51,3.79,3.02,7.58,4.5,11.38.93,2.38,1.8,4.79,2.71,7.18.28.74.58,1.48,1.03,2.14.25.37.53.74.85,1.05.74.71,1.65.74,2.46.13.53-.4.97-.89,1.32-1.45.39-.63.79-1.28,1.11-1.95.58-1.2,1.12-2.43,1.65-3.65,1.55-3.55,3.1-7.1,4.62-10.67,1.52-3.54,3-7.09,4.5-10.64.35-.84.71-1.68,1.06-2.52v-24.66Z"/>
          <path class="cls-4" d="m70,69.76c-.36-.85-.72-1.71-1.08-2.56-1.14-2.69-2.29-5.38-3.42-8.07-.44-1.04-.85-2.1-1.24-3.16-.2-.55-.37-1.12-.35-1.72.02-.57.26-1,.78-1.26.35-.18.72-.26,1.1-.32.54-.09,1.07-.2,1.6-.32.36-.08.43-.17.43-.57,0-.73,0-1.45,0-2.18,0-.09,0-.18-.02-.27-.02-.15-.11-.26-.26-.27-.2-.02-.41-.03-.61-.03-5.63,0-11.25,0-16.88,0-.16,0-.32-.01-.48,0-.13.02-.25.07-.36.11-.03.1-.06.16-.06.23,0,.73,0,1.45-.01,2.18,0,.34.18.56.49.66.32.1.66.16.99.23.35.07.71.14,1.07.2.95.18,1.64.73,2.16,1.53.48.74.87,1.54,1.22,2.35,1.18,2.72,2.35,5.45,3.54,8.17,1.51,3.47,3.05,6.92,4.56,10.39,1.18,2.7,2.44,5.36,3.48,8.12.44,1.16.9,2.32,1.36,3.51-3.44,7.94-6.88,15.88-10.32,23.82-.04.1-.11.19-.17.28-.3.02-.5-.1-.62-.35-.06-.12-.11-.25-.16-.37-.44-1.07-.87-2.14-1.31-3.21-1.35-3.32-2.71-6.63-4.05-9.95-1.27-3.13-2.52-6.26-3.77-9.4-1.35-3.37-2.7-6.73-4.03-10.1-1.68-4.28-3.36-8.56-5.01-12.85-.88-2.28-1.71-4.59-2.56-6.88-.32-.87-.58-1.76-.7-2.69-.1-.83.21-1.46.9-1.91.35-.23.73-.37,1.14-.42.65-.08,1.31-.14,1.96-.18.81-.05,1.63-.06,2.45-.08.37,0,.72-.11,1.05-.26.3-.13.55-.34.55-.71,0-.61,0-1.22,0-1.84,0-.2-.11-.35-.32-.39-.31-.06-.63-.13-.94-.13-3.11-.03-6.21.01-9.32-.05-2.77-.06-5.54-.02-8.3,0-1.9,0-3.81.04-5.71.06-.2,0-.41.03-.6.08-.35.09-.42.16-.43.51-.01.57-.01,1.13,0,1.7,0,.5.15.71.62.85.35.1.71.19,1.06.2.96.05,1.89.21,2.82.44,1.14.28,2.05.85,2.57,1.93.37.77.76,1.54,1.08,2.34.63,1.62,1.2,3.27,1.83,4.9,1.68,4.38,3.35,8.76,5.08,13.12,2.15,5.41,4.34,10.81,6.52,16.21,1.62,4.01,3.24,8.02,4.85,12.04,1.51,3.79,3.02,7.58,4.5,11.38.93,2.38,1.8,4.79,2.71,7.18.28.74.58,1.48,1.03,2.14.25.37.53.74.85,1.05.74.71,1.65.74,2.46.13.53-.4.97-.89,1.32-1.45.39-.63.79-1.28,1.11-1.95.58-1.2,1.12-2.43,1.65-3.65,1.55-3.55,3.1-7.1,4.62-10.67,1.52-3.54,3-7.09,4.5-10.64.35-.84.71-1.68,1.06-2.52v-24.66Z"/>
        </g>
      </g>
    </g>
  </g>
</svg>