<?xml version="1.0" encoding="UTF-8"?>
<svg id="Layer_1" data-name="Layer 1" xmlns="http://www.w3.org/2000/svg" width="142.03" height="30.22" viewBox="0 0 142.03 30.22">
  <defs>
    <style>
      .cls-1 {
        fill: #5aa854;
      }

      .cls-2 {
        fill: #444;
      }

      .cls-3 {
        fill: #eb743b;
      }
    </style>
  </defs>
  <g>
    <polygon class="cls-1" points="14 1 2 8 2 22 14 29 14 1"/>
    <polygon class="cls-3" points="15 1 27 8 27 22 15 29 15 1"/>
  </g>
  <g>
    <path class="cls-1" d="m38.51,3.28l5.07,15.81,5.06-15.81h7.21v22.72h-5.49v-5.31l.53-10.86-5.49,16.17h-3.62l-5.51-16.18.53,10.88v5.31h-5.48V3.28h7.19Z"/>
    <path class="cls-3" d="m59.33,26V3.28h8.16c2.92,0,5.15.54,6.67,1.61,1.52,1.07,2.29,2.63,2.29,4.67,0,1.18-.27,2.18-.81,3.01-.54.83-1.34,1.45-2.39,1.84,1.19.31,2.1.89,2.73,1.75.63.85.95,1.89.95,3.12,0,2.23-.71,3.9-2.11,5.02-1.41,1.12-3.5,1.69-6.27,1.71h-9.22Zm5.48-13.25h2.86c1.2-.01,2.05-.23,2.56-.66s.76-1.06.76-1.89c0-.96-.28-1.65-.83-2.07-.55-.42-1.44-.63-2.67-.63h-2.68v5.26Zm0,3.59v5.45h3.59c.99,0,1.75-.23,2.28-.68.53-.45.8-1.09.8-1.91,0-1.89-.94-2.85-2.82-2.86h-3.84Z"/>
    <path class="cls-2" d="m97.55,17.53l2.61-14.25h5.43l-4.82,22.72h-5.68l-3.04-12.95-2.98,12.95h-5.67l-4.84-22.72h5.45l2.61,14.25,3.12-14.25h4.65l3.17,14.25Z"/>
    <path class="cls-2" d="m107.44,4.75c0-.75.27-1.37.81-1.85s1.24-.72,2.11-.72,1.57.24,2.11.72.81,1.1.81,1.85-.27,1.37-.81,1.85-1.24.72-2.11.72-1.57-.24-2.11-.72-.81-1.1-.81-1.85Zm5.59,21.25h-5.27V9.12h5.27v16.88Z"/>
    <path class="cls-2" d="m123.04,19.71l-1.48,1.48v4.81h-5.26V2.01h5.26v12.73l.53-.7,3.96-4.93h6.3l-5.91,6.94,6.3,9.94h-6.02l-3.68-6.29Z"/>
    <path class="cls-2" d="m133.7,4.75c0-.75.27-1.37.81-1.85s1.24-.72,2.11-.72,1.57.24,2.11.72.81,1.1.81,1.85-.27,1.37-.81,1.85-1.24.72-2.11.72-1.57-.24-2.11-.72-.81-1.1-.81-1.85Zm5.59,21.25h-5.27V9.12h5.27v16.88Z"/>
  </g>
</svg>