<?xml version="1.0" encoding="UTF-8"?>
<svg id="Layer_1" data-name="Layer 1" xmlns="http://www.w3.org/2000/svg" width="102" height="30" viewBox="0 0 102 30">
  <defs>
    <style>
      .cls-1 {
        fill: #5aa854;
      }

      .cls-2 {
        fill: #444;
      }

      .cls-3 {
        fill: #eb743b;
      }
    </style>
  </defs>
  <g>
    <polygon class="cls-1" points="14 1 2 8 2 22 14 29 14 1"/>
    <polygon class="cls-3" points="15 1 27 8 27 22 15 29 15 1"/>
  </g>
  <g>
    <path class="cls-1" d="m38.56,5.24l4.12,12.6,4.12-12.6h7.62v19.76h-5.77v-3.05l.58-10.57-4.7,13.62h-3.7l-4.7-13.61.59,10.55v3.05h-5.75V5.24h7.58Z"/>
    <path class="cls-3" d="m57.18,25V5.24h7.94c2.82,0,4.96.47,6.44,1.4,1.48.93,2.21,2.29,2.21,4.07,0,2.18-.98,3.63-2.93,4.35,1.05.26,1.88.77,2.47,1.54s.89,1.67.89,2.73c0,1.91-.65,3.33-1.96,4.26-1.31.92-3.34,1.4-6.1,1.42h-8.96Zm5.73-11.59h2.71c.87-.01,1.49-.17,1.86-.47s.55-.75.55-1.35c0-.71-.19-1.22-.57-1.51-.38-.29-.98-.44-1.79-.44h-2.76v3.77Zm0,3.58v3.6h3.02c.78,0,1.4-.16,1.85-.47s.68-.74.68-1.27c0-1.19-.7-1.81-2.09-1.86h-3.46Z"/>
    <path class="cls-2" d="m93.01,16.69l2.05-11.45h5.43l-4.31,19.76h-5.83l-2.32-10.2-2.22,10.2h-5.82l-4.36-19.76h5.48l2.02,11.43,2.39-11.43h5.04l2.46,11.45Z"/>
  </g>
</svg>