<?xml version="1.0" encoding="UTF-8"?>
<svg id="Layer_1" data-name="Layer 1" xmlns="http://www.w3.org/2000/svg" width="145" height="160" viewBox="0 0 145 160">
  <defs>
    <style>
      .cls-1 {
        fill: #fffedb;
      }

      .cls-2 {
        fill: #5aa854;
      }

      .cls-3 {
        fill: #eb743b;
      }
    </style>
  </defs>
  <g>
    <polygon class="cls-3" points="74.74 8 74.74 152 136 116 136 44 74.74 8"/>
    <polygon class="cls-2" points="70.26 8 9 44 9 116 70.26 152 70.26 8"/>
    <path class="cls-1" d="m122.97,92.13c-1.85-2.95-5.05-4.72-8.54-4.72-1,0-1.98.15-2.92.44-3.93-4.69-8.69-7.16-12.85-8.45,3.34-2.57,6.29-5.66,8.83-9.23,2.6.59,5.42.19,7.71-1.25,4.72-3.01,6.13-9.3,3.14-14.02-1.87-2.96-5.06-4.73-8.55-4.73-1.92,0-3.78.54-5.4,1.57-4.7,2.99-6.12,9.27-3.15,14,.19.31.4.61.63.89-3.76,5.16-8.53,9.08-14.22,11.68h-.02c-5.28,2.41-8.4,3.18-12.89,3.18v7.5c5.98,0,8.86-1.69,14.96-4.35,2.04-.04,10.4.28,16.42,7.12-2.25,3.25-2.47,7.66-.24,11.21,1.85,2.95,5.05,4.73,8.55,4.73,1.91,0,3.77-.54,5.39-1.57,2.3-1.46,3.88-3.72,4.48-6.38.59-2.64.12-5.35-1.33-7.63Zm-15.27-35.13c.63-.4,1.35-.61,2.09-.61,1.35,0,2.59.68,3.32,1.84,1.15,1.82.6,4.25-1.22,5.42-.61.39-1.34.6-2.07.6s-1.45-.2-2.08-.59c-.51-.32-.93-.73-1.24-1.23-1.15-1.84-.61-4.27,1.21-5.43Zm10.55,41.4c-.23,1.03-.84,1.9-1.73,2.47-.62.4-1.34.61-2.08.61-1.35,0-2.59-.69-3.3-1.83-1.11-1.77-.66-4.09,1.03-5.29l.18-.12c1.8-1.15,4.28-.55,5.39,1.21.56.89.74,1.93.52,2.95Z"/>
  </g>
  <path class="cls-1" d="m70.26,81.87l-16.86,24.84c-.66-.14-1.34-.21-2.04-.21s-1.42.08-2.09.22L24.1,35.13l-6.15,3.61,25.29,71.93c-1.2,1.65-1.91,3.68-1.91,5.87,0,5.53,4.5,10.04,10.04,10.04s10.04-4.5,10.04-10.04c0-2.29-.78-4.4-2.08-6.09l10.94-16.11v-12.47Zm-18.89,38.71c-2.23,0-4.04-1.81-4.04-4.04s1.81-4.04,4.04-4.04,4.04,1.81,4.04,4.04-1.81,4.04-4.04,4.04Z"/>
</svg>