<?xml version="1.0" encoding="UTF-8"?>
<svg id="Layer_1" data-name="Layer 1" xmlns="http://www.w3.org/2000/svg" width="27" height="30" viewBox="0 0 27 30">
  <defs>
    <style>
      .cls-1 {
        fill: #fffedb;
      }

      .cls-2 {
        fill: #5aa854;
      }

      .cls-3 {
        fill: #eb743b;
      }
    </style>
  </defs>
  <g>
    <polygon class="cls-2" points="13 1 1 8 1 22 13 29 13 1"/>
    <polygon class="cls-3" points="14 1 26 8 26 22 14 29 14 1"/>
  </g>
  <path class="cls-1" d="m23.49,17.27c-.36-.58-.99-.93-1.68-.93-.2,0-.39.03-.58.09-.77-.92-1.71-1.4-2.53-1.66.66-.5,1.24-1.11,1.74-1.81.51.12,1.07.04,1.52-.24.93-.59,1.21-1.82.62-2.75-.37-.58-1-.93-1.68-.93-.38,0-.75.11-1.06.31-.93.59-1.2,1.82-.62,2.75.04.06.08.12.12.18-.74,1.01-1.68,1.78-2.8,2.29h0c-1.04.47-1.65.62-2.54.62v1.47c1.18,0,1.74-.33,2.95-.85.4,0,2.05.05,3.23,1.4-.44.64-.49,1.5-.05,2.2.37.58.99.93,1.68.93.38,0,.74-.11,1.06-.31.45-.29.76-.73.88-1.25.12-.52.02-1.05-.26-1.5Zm-3.01-6.89c.12-.08.27-.12.41-.12.27,0,.51.13.65.36.23.36.12.83-.24,1.06-.12.08-.26.12-.41.12s-.29-.04-.41-.11c-.1-.06-.18-.14-.24-.24-.23-.36-.12-.84.24-1.06Zm2.08,8.12c-.05.2-.17.37-.34.48-.12.08-.26.12-.41.12-.27,0-.51-.13-.65-.36-.22-.35-.13-.8.2-1.04l.03-.02c.36-.23.84-.11,1.06.24.11.17.15.38.1.58Z"/>
  <path class="cls-1" d="m13,16.46v-.91l-2.92,3.95c-.23-.1-.48-.15-.75-.15-.14,0-.28.02-.41.04L4.5,5.96l-.94.55-.38.22,4.48,13.6c-.17.29-.28.63-.28.99,0,1.08.88,1.96,1.96,1.96s1.96-.88,1.96-1.96c0-.26-.05-.51-.15-.73l1.85-2.5v-1.62Zm-3.66,5.31c-.25,0-.46-.21-.46-.46s.21-.46.46-.46.46.21.46.46-.21.46-.46.46Z"/>
</svg>