<?xml version="1.0" encoding="UTF-8"?>
<svg xmlns="http://www.w3.org/2000/svg" width="601" height="152" viewBox="0 0 601 152">
  <defs>
    <style>
      .cls-1 {
        mix-blend-mode: multiply;
        opacity: .07;
      }

      .cls-2 {
        fill: #43883e;
      }

      .cls-3 {
        isolation: isolate;
      }

      .cls-4 {
        fill: #fffedb;
      }

      .cls-5 {
        fill: #5aa854;
      }

      .cls-6 {
        fill: #444;
      }

      .cls-7 {
        fill: #d3562c;
      }

      .cls-8 {
        fill: #eb743b;
      }
    </style>
  </defs>
  <g class="cls-3">
    <g id="Layer_1" data-name="Layer 1">
      <g>
        <polygon class="cls-8" points="69.18 3.57 69.18 147.57 130.18 112.57 130.18 38.57 69.18 3.57"/>
        <polygon class="cls-5" points="64.18 147.57 3.18 112.57 3.18 38.57 64.18 3.57 64.18 147.57"/>
        <g>
          <g class="cls-1">
            <path d="m86.48,95.31c.39-.64,1.07-1.03,1.82-1.03.38,0,.75.1,1.08.3,1,.6,1.33,1.9.74,2.9-.38.65-1.06,1.03-1.82,1.03-.38,0-.75-.1-1.08-.3-.48-.29-.83-.75-.96-1.29-.14-.55-.06-1.12.23-1.6Zm12.6,22.36c-.49.42-1.02.51-1.37.51-.62,0-1.21-.27-1.61-.73-.76-.88-.65-2.22.23-2.98.49-.42,1.02-.51,1.37-.51.62,0,1.2.27,1.61.74.37.43.55.98.5,1.54-.04.56-.3,1.07-.73,1.44Z"/>
            <path d="m78.18,49.18c.07.02.14.03.21.05-.07-.01-.14-.03-.21-.05Z"/>
            <path d="m89.56,58.83c.17-.27.39-.49.67-.66.33-.21.72-.32,1.12-.32s.79.11,1.12.32c.99.63,1.28,1.94.66,2.92-.39.62-1.06.99-1.79.99-.4,0-.79-.11-1.12-.33-.98-.62-1.28-1.94-.66-2.92Zm6.38-20.19c-.6.95-1.94,1.27-2.91.65l-.1-.06c-.91-.65-1.16-1.9-.56-2.85.39-.61,1.05-.98,1.78-.98.4,0,.79.11,1.12.33.48.3.81.78.94,1.33.12.55.03,1.11-.28,1.58Z"/>
            <path d="m112.7,50.24c.39-.61,1.05-.98,1.78-.98.4,0,.79.11,1.12.33.48.3.81.78.94,1.33.12.55.02,1.11-.28,1.58-.6.95-1.94,1.27-2.91.65l-.09-.06c-.92-.65-1.16-1.9-.56-2.85Zm0,23.46c.39-.61,1.05-.98,1.78-.98.4,0,.79.11,1.12.33.48.3.81.77.94,1.33.12.55.02,1.11-.28,1.58-.6.95-1.94,1.27-2.91.65l-.09-.06c-.92-.65-1.16-1.9-.56-2.85Zm0,26.3c.39-.61,1.05-.98,1.78-.98.4,0,.79.11,1.12.33.48.3.81.78.94,1.33.12.55.02,1.11-.28,1.58-.6.95-1.94,1.27-2.91.65l-.09-.06c-.92-.65-1.16-1.9-.56-2.85Z"/>
            <path d="m102.35,109.68c-1.17-1.36-2.86-2.14-4.65-2.14-1.46,0-2.88.53-3.98,1.48-1.61,1.38-2.33,3.43-2.09,5.4-1.95.7-4.26,1.37-5.33,1.33-.82-.04-1.3-.35-2.22-.97-1.17-.79-2.42-1.51-4.15-1.85,2.94-2.76,6.01-6.83,8.58-12.83,2.06-.08,3.98-1.19,5.04-2.97,1.72-2.9.77-6.66-2.12-8.39-.95-.57-2.03-.86-3.13-.86-2.15,0-4.16,1.14-5.26,2.99-.84,1.41-1.08,3.05-.68,4.64.35,1.39,1.16,2.59,2.3,3.43-4.05,9.22-9.22,13.08-12.57,14.68-.13.04-.25.1-.36.17-1.19.53-2.05.7-2.56.81v4c.28-.03,1.88-.12,4.25-1.19,5.35-1.36,6.84-.35,8.41.71,1.02.69,2.29,1.55,4.26,1.66.1,0,.2,0,.31,0,2.11,0,5.17-1.02,7.02-1.72,1.14,1.12,2.68,1.75,4.29,1.75h0c1.46,0,2.88-.52,3.98-1.48,1.24-1.06,1.99-2.55,2.12-4.18.12-1.63-.39-3.21-1.46-4.45Zm-15.87-16.78c.39-.64,1.07-1.03,1.82-1.03.38,0,.75.1,1.08.3,1,.6,1.33,1.9.74,2.9-.38.65-1.06,1.03-1.82,1.03-.38,0-.75-.1-1.08-.3-.48-.29-.83-.75-.96-1.29-.14-.55-.06-1.12.23-1.6Zm12.6,22.36c-.49.42-1.02.51-1.37.51-.62,0-1.21-.27-1.61-.73-.76-.88-.65-2.22.23-2.98.49-.42,1.02-.51,1.37-.51.62,0,1.2.27,1.61.74.37.43.55.98.5,1.54-.04.56-.3,1.07-.73,1.44Z"/>
            <path d="m78.18,46.78c.07.02.14.03.21.05-.07-.01-.14-.03-.21-.05Z"/>
            <path d="m100.13,33.78c-.36-1.6-1.32-2.96-2.71-3.84-.98-.62-2.11-.94-3.26-.94-2.12,0-4.05,1.07-5.17,2.85-1.35,2.14-1.22,4.8.14,6.76-3.65,4.12-8.71,4.31-9.94,4.29-3.69-1.6-7.23-2.16-10-2.32v4c2.44.14,5.55.69,8.75,2.14,0,0,0,0,.01,0,3.45,1.56,6.33,3.93,8.61,7.04-.14.17-.26.35-.38.54-1.8,2.85-.94,6.64,1.9,8.44.98.62,2.11.95,3.27.95,2.11,0,4.05-1.07,5.18-2.85,1.81-2.85.95-6.64-1.91-8.45-1.38-.87-3.09-1.11-4.67-.75-1.54-2.15-3.32-4.02-5.34-5.57,2.52-.78,5.4-2.27,7.78-5.1.57.17,1.17.27,1.77.27,2.12,0,4.05-1.07,5.17-2.85.88-1.38,1.16-3.01.8-4.6Zm-10.57,22.65c.17-.27.39-.49.67-.66.33-.21.72-.32,1.12-.32s.79.11,1.12.32c.99.63,1.28,1.94.66,2.92-.39.62-1.06.99-1.79.99-.4,0-.79-.11-1.12-.33-.98-.62-1.28-1.94-.66-2.92Zm6.38-20.19c-.6.95-1.94,1.27-2.91.65l-.1-.06c-.91-.65-1.16-1.9-.56-2.85.39-.61,1.05-.98,1.78-.98.4,0,.79.11,1.12.33.48.3.81.78.94,1.33.12.55.03,1.11-.28,1.58Z"/>
            <path d="m108.82,74.76c.42,1.04,1.14,1.96,2.11,2.65.07.05.15.11.28.19.98.62,2.11.95,3.27.95,2.12,0,4.05-1.07,5.17-2.85.88-1.38,1.16-3.01.8-4.6-.36-1.6-1.32-2.96-2.71-3.84-.98-.62-2.11-.94-3.27-.94-.12,0-.25,0-.38.02-.71-3.16-.92-7.77.04-11.26.11.01.22.02.34.02,2.12,0,4.05-1.07,5.17-2.85.88-1.38,1.16-3.01.8-4.6-.36-1.6-1.32-2.96-2.71-3.84-.98-.62-2.11-.94-3.27-.94-2.11,0-4.05,1.07-5.17,2.85-1.6,2.53-1.12,5.8,1.02,7.76.02.02.05.04.07.06-1.35,4.52-1.15,10.32-.04,14.42-.14.13-.29.25-.43.4-.23.25-.45.53-.63.82-.32.5-.55,1.03-.71,1.58-3.37.49-5.2,1.67-6.82,2.73-2.04,1.32-3.96,2.57-9.64,2.67-1.96-.23-3.55-.18-5.29-.12-1.43.05-2.91.11-4.85,0-1.33-.07-2.1-.88-3.46-2.42-1.8-2.05-4.22-4.65-9.37-5.02v4c3.29.3,4.8,1.89,6.36,3.67,1.49,1.69,3.17,3.62,6.26,3.78,2.12.11,3.76.05,5.21,0,2.49-.09,4.45-.16,7.86.68,2.61.64,12.1,9.67,14.77,14.32-.11.14-.22.28-.31.43-1.74,2.75-1.03,6.38,1.62,8.25.07.05.15.1.28.19.98.62,2.11.95,3.27.95,2.12,0,4.05-1.07,5.17-2.85.88-1.37,1.16-3.01.8-4.6-.36-1.6-1.32-2.96-2.71-3.84-.98-.62-2.11-.94-3.27-.94-.53,0-1.05.07-1.54.2-2.56-4.19-8.65-10.46-13.19-13.79,1.81-.63,3.05-1.43,4.21-2.19,1.43-.93,2.61-1.69,4.86-2.07Zm3.88-26.92c.39-.61,1.05-.98,1.78-.98.4,0,.79.11,1.12.33.48.3.81.78.94,1.33.12.55.02,1.11-.28,1.58-.6.95-1.94,1.27-2.91.65l-.09-.06c-.92-.65-1.16-1.9-.56-2.85Zm0,23.46c.39-.61,1.05-.98,1.78-.98.4,0,.79.11,1.12.33.48.3.81.77.94,1.33.12.55.02,1.11-.28,1.58-.6.95-1.94,1.27-2.91.65l-.09-.06c-.92-.65-1.16-1.9-.56-2.85Zm0,26.3c.39-.61,1.05-.98,1.78-.98.4,0,.79.11,1.12.33.48.3.81.78.94,1.33.12.55.02,1.11-.28,1.58-.6.95-1.94,1.27-2.91.65l-.09-.06c-.92-.65-1.16-1.9-.56-2.85Z"/>
          </g>
          <g>
            <g>
              <path class="cls-7" d="m102.35,112.68c-1.17-1.36-2.86-2.14-4.65-2.14-1.46,0-2.88.53-3.98,1.48-1.61,1.38-2.33,3.43-2.09,5.4-1.95.7-4.26,1.37-5.33,1.33-.82-.04-1.3-.35-2.22-.97-1.17-.79-2.42-1.51-4.15-1.85,2.94-2.76,6.01-6.83,8.58-12.83,2.06-.08,3.98-1.19,5.04-2.97,1.72-2.9.77-6.66-2.12-8.39-.95-.57-2.03-.86-3.13-.86-2.15,0-4.16,1.14-5.26,2.99-.84,1.41-1.08,3.05-.68,4.64.35,1.39,1.16,2.59,2.3,3.43-4.05,9.22-9.22,13.08-12.57,14.68-.13.04-.25.1-.36.17-1.19.53-2.05.7-2.56.81v4c.28-.03,1.88-.12,4.25-1.19,5.35-1.36,6.84-.35,8.41.71,1.02.69,2.29,1.55,4.26,1.66.1,0,.2,0,.31,0,2.11,0,5.17-1.02,7.02-1.72,1.14,1.12,2.68,1.75,4.29,1.75h0c1.46,0,2.88-.52,3.98-1.48,1.24-1.06,1.99-2.55,2.12-4.18.12-1.63-.39-3.21-1.46-4.45Zm-15.87-16.78c.39-.64,1.07-1.03,1.82-1.03.38,0,.75.1,1.08.3,1,.6,1.33,1.9.74,2.9-.38.65-1.06,1.03-1.82,1.03-.38,0-.75-.1-1.08-.3-.48-.29-.83-.75-.96-1.29-.14-.55-.06-1.12.23-1.6Zm12.6,22.36c-.49.42-1.02.51-1.37.51-.62,0-1.21-.27-1.61-.73-.76-.88-.65-2.22.23-2.98.49-.42,1.02-.51,1.37-.51.62,0,1.2.27,1.61.74.37.43.55.98.5,1.54-.04.56-.3,1.07-.73,1.44Z"/>
              <path d="m78.18,49.18c.07.02.14.03.21.05-.07-.01-.14-.03-.21-.05Z"/>
              <path class="cls-7" d="m100.13,36.78c-.36-1.6-1.32-2.96-2.71-3.84-.98-.62-2.11-.94-3.26-.94-2.12,0-4.05,1.07-5.17,2.85-1.35,2.14-1.22,4.8.14,6.76-3.65,4.12-8.71,4.31-9.94,4.29-3.69-1.6-7.23-2.16-10-2.32v4c2.44.14,5.55.69,8.75,2.14,0,0,0,0,.01,0,3.45,1.56,6.33,3.93,8.61,7.04-.14.17-.26.35-.38.54-1.8,2.85-.94,6.64,1.9,8.44.98.62,2.11.95,3.27.95,2.11,0,4.05-1.07,5.18-2.85,1.81-2.85.95-6.64-1.91-8.45-1.38-.87-3.09-1.11-4.67-.75-1.54-2.15-3.32-4.02-5.34-5.57,2.52-.78,5.4-2.27,7.78-5.1.57.17,1.17.27,1.77.27,2.12,0,4.05-1.07,5.17-2.85.88-1.38,1.16-3.01.8-4.6Zm-10.57,22.65c.17-.27.39-.49.67-.66.33-.21.72-.32,1.12-.32s.79.11,1.12.32c.99.63,1.28,1.94.66,2.92-.39.62-1.06.99-1.79.99-.4,0-.79-.11-1.12-.33-.98-.62-1.28-1.94-.66-2.92Zm6.38-20.19c-.6.95-1.94,1.27-2.91.65l-.1-.06c-.91-.65-1.16-1.9-.56-2.85.39-.61,1.05-.98,1.78-.98.4,0,.79.11,1.12.33.48.3.81.78.94,1.33.12.55.03,1.11-.28,1.58Z"/>
              <path class="cls-7" d="m108.82,77.76c.42,1.04,1.14,1.96,2.11,2.65.07.05.15.11.28.19.98.62,2.11.95,3.27.95,2.12,0,4.05-1.07,5.17-2.85.88-1.38,1.16-3.01.8-4.6-.36-1.6-1.32-2.96-2.71-3.84-.98-.62-2.11-.94-3.27-.94-.12,0-.25,0-.38.02-.71-3.16-.92-7.77.04-11.26.11.01.22.02.34.02,2.12,0,4.05-1.07,5.17-2.85.88-1.38,1.16-3.01.8-4.6-.36-1.6-1.32-2.96-2.71-3.84-.98-.62-2.11-.94-3.27-.94-2.11,0-4.05,1.07-5.17,2.85-1.6,2.53-1.12,5.8,1.02,7.76.02.02.05.04.07.06-1.35,4.52-1.15,10.32-.04,14.42-.14.13-.29.25-.43.4-.23.25-.45.53-.63.82-.32.5-.55,1.03-.71,1.58-3.37.49-5.2,1.67-6.82,2.73-2.04,1.32-3.96,2.57-9.64,2.67-1.96-.23-3.55-.18-5.29-.12-1.43.05-2.91.11-4.85,0-1.33-.07-2.1-.88-3.46-2.42-1.8-2.05-4.22-4.65-9.37-5.02v4c3.29.3,4.8,1.89,6.36,3.67,1.49,1.69,3.17,3.62,6.26,3.78,2.12.11,3.76.05,5.21,0,2.49-.09,4.45-.16,7.86.68,2.61.64,12.1,9.67,14.77,14.32-.11.14-.22.28-.31.43-1.74,2.75-1.03,6.38,1.62,8.25.07.05.15.1.28.19.98.62,2.11.95,3.27.95,2.12,0,4.05-1.07,5.17-2.85.88-1.37,1.16-3.01.8-4.6-.36-1.6-1.32-2.96-2.71-3.84-.98-.62-2.11-.94-3.27-.94-.53,0-1.05.07-1.54.2-2.56-4.19-8.65-10.46-13.19-13.79,1.81-.63,3.05-1.43,4.21-2.19,1.43-.93,2.61-1.69,4.86-2.07Zm3.88-26.92c.39-.61,1.05-.98,1.78-.98.4,0,.79.11,1.12.33.48.3.81.78.94,1.33.12.55.02,1.11-.28,1.58-.6.95-1.94,1.27-2.91.65l-.09-.06c-.92-.65-1.16-1.9-.56-2.85Zm0,23.46c.39-.61,1.05-.98,1.78-.98.4,0,.79.11,1.12.33.48.3.81.77.94,1.33.12.55.02,1.11-.28,1.58-.6.95-1.94,1.27-2.91.65l-.09-.06c-.92-.65-1.16-1.9-.56-2.85Zm0,26.3c.39-.61,1.05-.98,1.78-.98.4,0,.79.11,1.12.33.48.3.81.78.94,1.33.12.55.02,1.11-.28,1.58-.6.95-1.94,1.27-2.91.65l-.09-.06c-.92-.65-1.16-1.9-.56-2.85Z"/>
            </g>
            <g>
              <path class="cls-4" d="m102.35,109.68c-1.17-1.36-2.86-2.14-4.65-2.14-1.46,0-2.88.53-3.98,1.48-1.61,1.38-2.33,3.43-2.09,5.4-1.95.7-4.26,1.37-5.33,1.33-.82-.04-1.3-.35-2.22-.97-1.17-.79-2.42-1.51-4.15-1.85,2.94-2.76,6.01-6.83,8.58-12.83,2.06-.08,3.98-1.19,5.04-2.97,1.72-2.9.77-6.66-2.12-8.39-.95-.57-2.03-.86-3.13-.86-2.15,0-4.16,1.14-5.26,2.99-.84,1.41-1.08,3.05-.68,4.64.35,1.39,1.16,2.59,2.3,3.43-4.05,9.22-9.22,13.08-12.57,14.68-.13.04-.25.1-.36.17-1.19.53-2.05.7-2.56.81v4c.28-.03,1.88-.12,4.25-1.19,5.35-1.36,6.84-.35,8.41.71,1.02.69,2.29,1.55,4.26,1.66.1,0,.2,0,.31,0,2.11,0,5.17-1.02,7.02-1.72,1.14,1.12,2.68,1.75,4.29,1.75h0c1.46,0,2.88-.52,3.98-1.48,1.24-1.06,1.99-2.55,2.12-4.18.12-1.63-.39-3.21-1.46-4.45Zm-15.87-16.78c.39-.64,1.07-1.03,1.82-1.03.38,0,.75.1,1.08.3,1,.6,1.33,1.9.74,2.9-.38.65-1.06,1.03-1.82,1.03-.38,0-.75-.1-1.08-.3-.48-.29-.83-.75-.96-1.29-.14-.55-.06-1.12.23-1.6Zm12.6,22.36c-.49.42-1.02.51-1.37.51-.62,0-1.21-.27-1.61-.73-.76-.88-.65-2.22.23-2.98.49-.42,1.02-.51,1.37-.51.62,0,1.2.27,1.61.74.37.43.55.98.5,1.54-.04.56-.3,1.07-.73,1.44Z"/>
              <path class="cls-4" d="m78.18,46.78c.07.02.14.03.21.05-.07-.01-.14-.03-.21-.05Z"/>
              <path class="cls-4" d="m100.13,33.78c-.36-1.6-1.32-2.96-2.71-3.84-.98-.62-2.11-.94-3.26-.94-2.12,0-4.05,1.07-5.17,2.85-1.35,2.14-1.22,4.8.14,6.76-3.65,4.12-8.71,4.31-9.94,4.29-3.69-1.6-7.23-2.16-10-2.32v4c2.44.14,5.55.69,8.75,2.14,0,0,0,0,.01,0,3.45,1.56,6.33,3.93,8.61,7.04-.14.17-.26.35-.38.54-1.8,2.85-.94,6.64,1.9,8.44.98.62,2.11.95,3.27.95,2.11,0,4.05-1.07,5.18-2.85,1.81-2.85.95-6.64-1.91-8.45-1.38-.87-3.09-1.11-4.67-.75-1.54-2.15-3.32-4.02-5.34-5.57,2.52-.78,5.4-2.27,7.78-5.1.57.17,1.17.27,1.77.27,2.12,0,4.05-1.07,5.17-2.85.88-1.38,1.16-3.01.8-4.6Zm-10.57,22.65c.17-.27.39-.49.67-.66.33-.21.72-.32,1.12-.32s.79.11,1.12.32c.99.63,1.28,1.94.66,2.92-.39.62-1.06.99-1.79.99-.4,0-.79-.11-1.12-.33-.98-.62-1.28-1.94-.66-2.92Zm6.38-20.19c-.6.95-1.94,1.27-2.91.65l-.1-.06c-.91-.65-1.16-1.9-.56-2.85.39-.61,1.05-.98,1.78-.98.4,0,.79.11,1.12.33.48.3.81.78.94,1.33.12.55.03,1.11-.28,1.58Z"/>
              <path class="cls-4" d="m108.82,74.76c.42,1.04,1.14,1.96,2.11,2.65.07.05.15.11.28.19.98.62,2.11.95,3.27.95,2.12,0,4.05-1.07,5.17-2.85.88-1.38,1.16-3.01.8-4.6-.36-1.6-1.32-2.96-2.71-3.84-.98-.62-2.11-.94-3.27-.94-.12,0-.25,0-.38.02-.71-3.16-.92-7.77.04-11.26.11.01.22.02.34.02,2.12,0,4.05-1.07,5.17-2.85.88-1.38,1.16-3.01.8-4.6-.36-1.6-1.32-2.96-2.71-3.84-.98-.62-2.11-.94-3.27-.94-2.11,0-4.05,1.07-5.17,2.85-1.6,2.53-1.12,5.8,1.02,7.76.02.02.05.04.07.06-1.35,4.52-1.15,10.32-.04,14.42-.14.13-.29.25-.43.4-.23.25-.45.53-.63.82-.32.5-.55,1.03-.71,1.58-3.37.49-5.2,1.67-6.82,2.73-2.04,1.32-3.96,2.57-9.64,2.67-1.96-.23-3.55-.18-5.29-.12-1.43.05-2.91.11-4.85,0-1.33-.07-2.1-.88-3.46-2.42-1.8-2.05-4.22-4.65-9.37-5.02v4c3.29.3,4.8,1.89,6.36,3.67,1.49,1.69,3.17,3.62,6.26,3.78,2.12.11,3.76.05,5.21,0,2.49-.09,4.45-.16,7.86.68,2.61.64,12.1,9.67,14.77,14.32-.11.14-.22.28-.31.43-1.74,2.75-1.03,6.38,1.62,8.25.07.05.15.1.28.19.98.62,2.11.95,3.27.95,2.12,0,4.05-1.07,5.17-2.85.88-1.37,1.16-3.01.8-4.6-.36-1.6-1.32-2.96-2.71-3.84-.98-.62-2.11-.94-3.27-.94-.53,0-1.05.07-1.54.2-2.56-4.19-8.65-10.46-13.19-13.79,1.81-.63,3.05-1.43,4.21-2.19,1.43-.93,2.61-1.69,4.86-2.07Zm3.88-26.92c.39-.61,1.05-.98,1.78-.98.4,0,.79.11,1.12.33.48.3.81.78.94,1.33.12.55.02,1.11-.28,1.58-.6.95-1.94,1.27-2.91.65l-.09-.06c-.92-.65-1.16-1.9-.56-2.85Zm0,23.46c.39-.61,1.05-.98,1.78-.98.4,0,.79.11,1.12.33.48.3.81.77.94,1.33.12.55.02,1.11-.28,1.58-.6.95-1.94,1.27-2.91.65l-.09-.06c-.92-.65-1.16-1.9-.56-2.85Zm0,26.3c.39-.61,1.05-.98,1.78-.98.4,0,.79.11,1.12.33.48.3.81.78.94,1.33.12.55.02,1.11-.28,1.58-.6.95-1.94,1.27-2.91.65l-.09-.06c-.92-.65-1.16-1.9-.56-2.85Z"/>
            </g>
          </g>
        </g>
        <g>
          <path class="cls-2" d="m64.18,68.64c-.36-.85-.72-1.71-1.08-2.56-1.14-2.69-2.29-5.38-3.42-8.07-.44-1.04-.85-2.1-1.24-3.16-.2-.55-.37-1.12-.35-1.72.02-.57.26-1,.78-1.26.35-.18.72-.26,1.1-.32.54-.09,1.07-.2,1.6-.32.36-.08.43-.17.43-.57,0-.73,0-1.45,0-2.18,0-.09,0-.18-.02-.27-.02-.15-.11-.26-.26-.27-.2-.02-.41-.03-.61-.03-5.63,0-11.25,0-16.88,0-.16,0-.32-.01-.48,0-.13.02-.25.07-.36.11-.03.1-.06.16-.06.23,0,.73,0,1.45-.01,2.18,0,.34.18.56.49.66.32.1.66.16.99.23.35.07.71.14,1.07.2.95.18,1.64.73,2.16,1.53.48.74.87,1.54,1.22,2.35,1.18,2.72,2.35,5.45,3.54,8.17,1.51,3.47,3.05,6.92,4.56,10.39,1.18,2.7,2.44,5.36,3.48,8.12.44,1.16.9,2.32,1.36,3.51-3.44,7.94-6.88,15.88-10.32,23.82-.04.1-.11.19-.17.28-.3.02-.5-.1-.62-.35-.06-.12-.11-.25-.16-.37-.44-1.07-.87-2.14-1.31-3.21-1.35-3.32-2.71-6.63-4.05-9.95-1.27-3.13-2.52-6.26-3.77-9.4-1.35-3.37-2.7-6.73-4.03-10.1-1.68-4.28-3.36-8.56-5.01-12.85-.88-2.28-1.71-4.59-2.56-6.88-.32-.87-.58-1.76-.7-2.69-.1-.83.21-1.46.9-1.91.35-.23.73-.37,1.14-.42.65-.08,1.31-.14,1.96-.18.81-.05,1.63-.06,2.45-.08.37,0,.72-.11,1.05-.26.3-.13.55-.34.55-.71,0-.61,0-1.22,0-1.84,0-.2-.11-.35-.32-.39-.31-.06-.63-.13-.94-.13-3.11-.03-6.21.01-9.32-.05-2.77-.06-5.54-.02-8.3,0-1.9,0-3.81.04-5.71.06-.2,0-.41.03-.6.08-.35.09-.42.16-.43.51-.01.57-.01,1.13,0,1.7,0,.5.15.71.62.85.35.1.71.19,1.06.2.96.05,1.89.21,2.82.44,1.14.28,2.05.85,2.57,1.93.37.77.76,1.54,1.08,2.34.63,1.62,1.2,3.27,1.83,4.9,1.68,4.38,3.35,8.76,5.08,13.12,2.15,5.41,4.34,10.81,6.52,16.21,1.62,4.01,3.24,8.02,4.85,12.04,1.51,3.79,3.02,7.58,4.5,11.38.93,2.38,1.8,4.79,2.71,7.18.28.74.58,1.48,1.03,2.14.25.37.53.74.85,1.05.74.71,1.65.74,2.46.13.53-.4.97-.89,1.32-1.45.39-.63.79-1.28,1.11-1.95.58-1.2,1.12-2.43,1.65-3.65,1.55-3.55,3.1-7.1,4.62-10.67,1.52-3.54,3-7.09,4.5-10.64.35-.84.71-1.68,1.06-2.52v-24.66Z"/>
          <path class="cls-4" d="m64.18,65.34c-.36-.85-.72-1.71-1.08-2.56-1.14-2.69-2.29-5.38-3.42-8.07-.44-1.04-.85-2.1-1.24-3.16-.2-.55-.37-1.12-.35-1.72.02-.57.26-1,.78-1.26.35-.18.72-.26,1.1-.32.54-.09,1.07-.2,1.6-.32.36-.08.43-.17.43-.57,0-.73,0-1.45,0-2.18,0-.09,0-.18-.02-.27-.02-.15-.11-.26-.26-.27-.2-.02-.41-.03-.61-.03-5.63,0-11.25,0-16.88,0-.16,0-.32-.01-.48,0-.13.02-.25.07-.36.11-.03.1-.06.16-.06.23,0,.73,0,1.45-.01,2.18,0,.34.18.56.49.66.32.1.66.16.99.23.35.07.71.14,1.07.2.95.18,1.64.73,2.16,1.53.48.74.87,1.54,1.22,2.35,1.18,2.72,2.35,5.45,3.54,8.17,1.51,3.47,3.05,6.92,4.56,10.39,1.18,2.7,2.44,5.36,3.48,8.12.44,1.16.9,2.32,1.36,3.51-3.44,7.94-6.88,15.88-10.32,23.82-.04.1-.11.19-.17.28-.3.02-.5-.1-.62-.35-.06-.12-.11-.25-.16-.37-.44-1.07-.87-2.14-1.31-3.21-1.35-3.32-2.71-6.63-4.05-9.95-1.27-3.13-2.52-6.26-3.77-9.4-1.35-3.37-2.7-6.73-4.03-10.1-1.68-4.28-3.36-8.56-5.01-12.85-.88-2.28-1.71-4.59-2.56-6.88-.32-.87-.58-1.76-.7-2.69-.1-.83.21-1.46.9-1.91.35-.23.73-.37,1.14-.42.65-.08,1.31-.14,1.96-.18.81-.05,1.63-.06,2.45-.08.37,0,.72-.11,1.05-.26.3-.13.55-.34.55-.71,0-.61,0-1.22,0-1.84,0-.2-.11-.35-.32-.39-.31-.06-.63-.13-.94-.13-3.11-.03-6.21.01-9.32-.05-2.77-.06-5.54-.02-8.3,0-1.9,0-3.81.04-5.71.06-.2,0-.41.03-.6.08-.35.09-.42.16-.43.51-.01.57-.01,1.13,0,1.7,0,.5.15.71.62.85.35.1.71.19,1.06.2.96.05,1.89.21,2.82.44,1.14.28,2.05.85,2.57,1.93.37.77.76,1.54,1.08,2.34.63,1.62,1.2,3.27,1.83,4.9,1.68,4.38,3.35,8.76,5.08,13.12,2.15,5.41,4.34,10.81,6.52,16.21,1.62,4.01,3.24,8.02,4.85,12.04,1.51,3.79,3.02,7.58,4.5,11.38.93,2.38,1.8,4.79,2.71,7.18.28.74.58,1.48,1.03,2.14.25.37.53.74.85,1.05.74.71,1.65.74,2.46.13.53-.4.97-.89,1.32-1.45.39-.63.79-1.28,1.11-1.95.58-1.2,1.12-2.43,1.65-3.65,1.55-3.55,3.1-7.1,4.62-10.67,1.52-3.54,3-7.09,4.5-10.64.35-.84.71-1.68,1.06-2.52v-24.66Z"/>
        </g>
      </g>
      <g>
        <g>
          <path class="cls-6" d="m548.18,131.45l2.65-14.76h7l-5.55,25.48h-7.52l-3-13.14-2.86,13.14h-7.5l-5.62-25.48h7.06l2.6,14.74,3.08-14.74h6.5l3.17,14.76Z"/>
          <path class="cls-6" d="m560.32,116.26c0-.92.33-1.67.99-2.26s1.52-.88,2.57-.88,1.91.29,2.57.88.99,1.34.99,2.26-.33,1.67-.99,2.26c-.66.59-1.52.88-2.57.88s-1.91-.29-2.57-.88c-.66-.59-.99-1.34-.99-2.26Zm6.81,25.9h-6.43v-20.58h6.43v20.58Z"/>
          <path class="cls-6" d="m579.33,134.5l-1.81,1.81v5.86h-6.41v-29.23h6.41v15.52l.65-.86,4.83-6.01h7.68l-7.21,8.46,7.68,12.12h-7.34l-4.49-7.67Z"/>
          <path class="cls-6" d="m592.32,116.26c0-.92.33-1.67.99-2.26s1.52-.88,2.57-.88,1.91.29,2.57.88.99,1.34.99,2.26-.33,1.67-.99,2.26c-.66.59-1.52.88-2.57.88s-1.91-.29-2.57-.88c-.66-.59-.99-1.34-.99-2.26Zm6.81,25.9h-6.43v-20.58h6.43v20.58Z"/>
        </g>
        <g>
          <path class="cls-5" d="m168.5,42.16l14.02,43.68,13.97-43.68h19.92v62.79h-15.18v-14.66l1.47-30.01-15.18,44.68h-10l-15.22-44.72,1.47,30.06v14.66h-15.14v-62.79h19.88Z"/>
          <path class="cls-5" d="m247.93,105.81c-7.16,0-12.95-2.13-17.38-6.4-4.43-4.27-6.64-9.83-6.64-16.67v-1.21c0-4.77.88-8.98,2.65-12.63,1.77-3.65,4.35-6.48,7.74-8.47,3.39-2,7.42-3,12.07-3,6.55,0,11.73,2.03,15.52,6.1s5.69,9.74,5.69,17.01v5.65h-28.89c.52,2.62,1.65,4.67,3.41,6.17,1.75,1.5,4.02,2.24,6.81,2.24,4.6,0,8.19-1.61,10.78-4.83l6.64,7.85c-1.81,2.5-4.38,4.49-7.7,5.97s-6.89,2.22-10.72,2.22Zm-1.64-37.17c-4.25,0-6.79,2.82-7.59,8.45h14.66v-1.12c.06-2.33-.53-4.13-1.77-5.41s-3-1.92-5.3-1.92Z"/>
          <path class="cls-5" d="m290.37,46.69v11.6h7.68v10.09h-7.68v21.35c0,1.75.32,2.98.95,3.67.63.69,1.88,1.03,3.75,1.03,1.44,0,2.65-.09,3.62-.26v10.39c-2.62.83-5.35,1.25-8.19,1.25-5,0-8.7-1.18-11.08-3.54-2.39-2.36-3.58-5.94-3.58-10.74v-23.16h-5.95v-10.09h5.95v-11.6h14.53Z"/>
          <path class="cls-5" d="m330.04,104.95c-.52-.95-.98-2.34-1.38-4.18-2.67,3.36-6.41,5.04-11.21,5.04-4.4,0-8.14-1.33-11.21-3.99s-4.61-6-4.61-10.03c0-5.06,1.87-8.88,5.61-11.47,3.74-2.59,9.17-3.88,16.3-3.88h4.48v-2.47c0-4.3-1.85-6.46-5.56-6.46-3.45,0-5.17,1.71-5.17,5.11h-14.53c0-4.51,1.92-8.17,5.76-10.98,3.84-2.81,8.73-4.22,14.68-4.22s10.65,1.45,14.1,4.36c3.45,2.9,5.22,6.89,5.3,11.95v20.66c.06,4.28.72,7.56,1.98,9.83v.73h-14.53Zm-9.1-9.49c1.81,0,3.31-.39,4.51-1.16,1.19-.78,2.05-1.65,2.57-2.63v-7.46h-4.23c-5.06,0-7.59,2.27-7.59,6.81,0,1.32.45,2.39,1.34,3.21.89.82,2.03,1.23,3.41,1.23Z"/>
          <path class="cls-8" d="m351.3,104.95v-62.79h22.55c8.08,0,14.22,1.48,18.44,4.44,4.21,2.96,6.32,7.26,6.32,12.89,0,3.25-.75,6.02-2.24,8.32-1.5,2.3-3.69,4-6.6,5.09,3.28.86,5.79,2.47,7.55,4.83s2.63,5.23,2.63,8.62c0,6.15-1.95,10.77-5.84,13.86-3.9,3.09-9.67,4.66-17.31,4.72h-25.49Zm15.14-36.61h7.89c3.31-.03,5.66-.63,7.07-1.82,1.41-1.18,2.11-2.93,2.11-5.23,0-2.65-.76-4.56-2.29-5.73s-3.98-1.75-7.37-1.75h-7.42v14.53Zm0,9.92v15.05h9.92c2.73,0,4.83-.62,6.3-1.88,1.47-1.25,2.2-3.01,2.2-5.28,0-5.23-2.6-7.86-7.81-7.89h-10.61Z"/>
          <path class="cls-8" d="m435.82,71.44l-4.79-.34c-4.57,0-7.5,1.44-8.8,4.31v29.54h-14.53v-46.66h13.63l.47,5.99c2.44-4.57,5.85-6.86,10.22-6.86,1.55,0,2.9.17,4.05.52l-.26,13.5Z"/>
          <path class="cls-8" d="m466.05,104.95c-.52-.95-.98-2.34-1.38-4.18-2.67,3.36-6.41,5.04-11.21,5.04-4.4,0-8.14-1.33-11.21-3.99s-4.61-6-4.61-10.03c0-5.06,1.87-8.88,5.61-11.47,3.74-2.59,9.17-3.88,16.3-3.88h4.48v-2.47c0-4.3-1.85-6.46-5.56-6.46-3.45,0-5.17,1.71-5.17,5.11h-14.53c0-4.51,1.92-8.17,5.76-10.98,3.84-2.81,8.73-4.22,14.68-4.22s10.65,1.45,14.1,4.36c3.45,2.9,5.22,6.89,5.3,11.95v20.66c.06,4.28.72,7.56,1.98,9.83v.73h-14.53Zm-9.1-9.49c1.81,0,3.31-.39,4.51-1.16,1.19-.78,2.05-1.65,2.57-2.63v-7.46h-4.23c-5.06,0-7.59,2.27-7.59,6.81,0,1.32.45,2.39,1.34,3.21.89.82,2.03,1.23,3.41,1.23Z"/>
          <path class="cls-8" d="m486.54,46.21c0-2.08.75-3.79,2.24-5.12,1.49-1.33,3.43-2,5.82-2s4.33.67,5.82,2c1.49,1.33,2.24,3.04,2.24,5.12s-.75,3.79-2.24,5.12c-1.5,1.33-3.44,2-5.82,2s-4.33-.67-5.82-2c-1.5-1.33-2.24-3.04-2.24-5.12Zm15.44,58.73h-14.58v-46.66h14.58v46.66Z"/>
          <path class="cls-8" d="m524.27,58.29l.47,5.48c3.22-4.23,7.66-6.34,13.33-6.34,4.86,0,8.49,1.45,10.89,4.36,2.4,2.9,3.64,7.27,3.73,13.11v30.06h-14.58v-29.45c0-2.36-.47-4.09-1.42-5.2-.95-1.11-2.67-1.66-5.17-1.66-2.85,0-4.96,1.12-6.34,3.36v32.95h-14.53v-46.66h13.63Z"/>
          <path class="cls-8" d="m577.87,93.74h21.26v11.21h-39.63v-8.11l20.7-27.34h-19.79v-11.21h38.25v7.85l-20.79,27.6Z"/>
        </g>
      </g>
    </g>
  </g>
</svg>