<?xml version="1.0" encoding="UTF-8"?>
<svg id="Layer_1" data-name="Layer 1" xmlns="http://www.w3.org/2000/svg" width="142.06" height="30.21" viewBox="0 0 142.06 30.21">
  <defs>
    <style>
      .cls-1 {
        fill: #fffedb;
      }

      .cls-2 {
        fill: #5aa854;
      }

      .cls-3 {
        fill: #444;
      }

      .cls-4 {
        fill: #eb743b;
      }
    </style>
  </defs>
  <g>
    <g>
      <polygon class="cls-2" points="14 1 2 8 2 22 14 29 14 1"/>
      <polygon class="cls-4" points="15 1 27 8 27 22 15 29 15 1"/>
    </g>
    <g>
      <path class="cls-2" d="m38.51,3.28l5.07,15.81,5.06-15.81h7.21v22.72h-5.49v-5.31l.53-10.86-5.49,16.17h-3.62l-5.51-16.18.53,10.88v5.31h-5.48V3.28h7.19Z"/>
      <path class="cls-4" d="m59.33,26V3.28h8.16c2.92,0,5.15.54,6.67,1.61,1.52,1.07,2.29,2.63,2.29,4.67,0,1.18-.27,2.18-.81,3.01-.54.83-1.34,1.45-2.39,1.84,1.19.31,2.1.89,2.73,1.75.63.85.95,1.89.95,3.12,0,2.23-.71,3.9-2.11,5.02-1.41,1.12-3.5,1.69-6.27,1.71h-9.22Zm5.48-13.25h2.86c1.2-.01,2.05-.23,2.56-.66s.76-1.06.76-1.89c0-.96-.28-1.65-.83-2.07-.55-.42-1.44-.63-2.67-.63h-2.68v5.26Zm0,3.59v5.45h3.59c.99,0,1.75-.23,2.28-.68.53-.45.8-1.09.8-1.91,0-1.89-.94-2.85-2.82-2.86h-3.84Z"/>
      <path class="cls-3" d="m97.55,17.53l2.61-14.25h5.43l-4.82,22.72h-5.68l-3.04-12.95-2.98,12.95h-5.67l-4.84-22.72h5.45l2.61,14.25,3.12-14.25h4.65l3.17,14.25Z"/>
      <path class="cls-3" d="m107.44,4.75c0-.75.27-1.37.81-1.85s1.24-.72,2.11-.72,1.57.24,2.11.72.81,1.1.81,1.85-.27,1.37-.81,1.85-1.24.72-2.11.72-1.57-.24-2.11-.72-.81-1.1-.81-1.85Zm5.59,21.25h-5.27V9.12h5.27v16.88Z"/>
      <path class="cls-3" d="m123.04,19.71l-1.48,1.48v4.81h-5.26V2.01h5.26v12.73l.53-.7,3.96-4.93h6.3l-5.91,6.94,6.3,9.94h-6.02l-3.68-6.29Z"/>
      <path class="cls-3" d="m133.7,4.75c0-.75.27-1.37.81-1.85s1.24-.72,2.11-.72,1.57.24,2.11.72.81,1.1.81,1.85-.27,1.37-.81,1.85-1.24.72-2.11.72-1.57-.24-2.11-.72-.81-1.1-.81-1.85Zm5.59,21.25h-5.27V9.12h5.27v16.88Z"/>
    </g>
  </g>
  <path class="cls-1" d="m24.49,17.27c-.36-.58-.99-.93-1.68-.93-.2,0-.39.03-.58.09-.77-.92-1.71-1.4-2.53-1.66.66-.5,1.24-1.11,1.74-1.81.51.12,1.07.04,1.52-.24.93-.59,1.21-1.82.62-2.75-.37-.58-1-.93-1.68-.93-.38,0-.75.11-1.06.31-.93.59-1.2,1.82-.62,2.75.04.06.08.12.12.18-.74,1.01-1.68,1.78-2.8,2.29h0c-1.04.47-1.65.62-2.54.62v1.47c1.18,0,1.74-.33,2.95-.85.4,0,2.05.05,3.23,1.4-.44.64-.49,1.5-.05,2.2.37.58.99.93,1.68.93.38,0,.74-.11,1.06-.31.45-.29.76-.73.88-1.25.12-.52.02-1.05-.26-1.5Zm-3.01-6.89c.12-.08.27-.12.41-.12.27,0,.51.13.65.36.23.36.12.83-.24,1.06-.12.08-.26.12-.41.12s-.29-.04-.41-.11c-.1-.06-.18-.14-.24-.24-.23-.36-.12-.84.24-1.06Zm2.08,8.12c-.05.2-.17.37-.34.48-.12.08-.26.12-.41.12-.27,0-.51-.13-.65-.36-.22-.35-.13-.8.2-1.04l.03-.02c.36-.23.84-.11,1.06.24.11.17.15.38.1.58Z"/>
  <path class="cls-1" d="m14,16.46l-.43-.32-2.48,3.36c-.23-.1-.48-.15-.75-.15-.14,0-.28.02-.41.04L5.57,6.17l-1.02.33-.38.22,4.48,13.6c-.17.29-.28.63-.28.99,0,1.08.88,1.96,1.96,1.96s1.96-.88,1.96-1.96c0-.26-.05-.51-.15-.73l1.85-2.5v-1.62Zm-3.66,5.31c-.25,0-.46-.21-.46-.46s.21-.46.46-.46.46.21.46.46-.21.46-.46.46Z"/>
</svg>