<?xml version="1.0" encoding="utf-8"?>
<!-- Generator: Adobe Illustrator 27.4.1, SVG Export Plug-In . SVG Version: 6.00 Build 0)  -->
<svg version="1.1" id="Layer_1" xmlns="http://www.w3.org/2000/svg" xmlns:xlink="http://www.w3.org/1999/xlink" x="0px" y="0px"
	 viewBox="0 0 32 32" style="enable-background:new 0 0 32 32;" xml:space="preserve">
<style type="text/css">
	.st0{fill:#5AA854;}
	.st1{fill:#EB743B;}
	.st2{fill:#FFFEDB;}
</style>
<g>
	<polygon class="st0" points="15.4,0 1.7,8 1.7,24 15.4,32 	"/>
	<polygon class="st1" points="16.6,0 30.3,8 30.3,24 16.6,32 	"/>
</g>
<path class="st2" d="M27.4,18.6c-0.4-0.7-1.1-1.1-1.9-1.1c-0.2,0-0.4,0-0.7,0.1c-0.9-1.1-2-1.6-2.9-1.9c0.8-0.6,1.4-1.3,2-2.1
	c0.6,0.1,1.2,0,1.7-0.3c1.1-0.7,1.4-2.1,0.7-3.1c-0.4-0.7-1.1-1.1-1.9-1.1c-0.4,0-0.9,0.1-1.2,0.4c-1.1,0.7-1.4,2.1-0.7,3.1
	c0,0.1,0.1,0.1,0.1,0.2c-0.8,1.2-1.9,2-3.2,2.6l0,0c-1.2,0.5-1.9,0.7-2.9,0.7v1.7c1.3,0,2-0.4,3.4-1c0.5,0,2.3,0.1,3.7,1.6
	c-0.5,0.7-0.6,1.7-0.1,2.5c0.4,0.7,1.1,1.1,1.9,1.1c0.4,0,0.8-0.1,1.2-0.4c0.5-0.3,0.9-0.8,1-1.4C27.9,19.7,27.7,19.1,27.4,18.6
	L27.4,18.6z M24,10.7c0.1-0.1,0.3-0.1,0.5-0.1c0.3,0,0.6,0.1,0.7,0.4c0.3,0.4,0.1,0.9-0.3,1.2c-0.1,0.1-0.3,0.1-0.5,0.1
	c-0.2,0-0.3,0-0.5-0.1c-0.1-0.1-0.2-0.2-0.3-0.3C23.4,11.5,23.6,11,24,10.7L24,10.7z M26.4,20c-0.1,0.2-0.2,0.4-0.4,0.5
	c-0.1,0.1-0.3,0.1-0.5,0.1c-0.3,0-0.6-0.1-0.7-0.4c-0.3-0.4-0.1-0.9,0.2-1.2l0,0c0.4-0.3,1-0.1,1.2,0.3C26.4,19.5,26.4,19.8,26.4,20
	L26.4,20z"/>
<path class="st2" d="M15.4,17.7v-1l-3.3,4.5C11.8,21,11.6,21,11.3,21c-0.2,0-0.3,0-0.5,0L5.7,5.7L4.6,6.3L4.2,6.5l5.1,15.5
	C9.1,22.4,9,22.8,9,23.2c0,1.2,1,2.2,2.2,2.2s2.2-1,2.2-2.2c0-0.3-0.1-0.6-0.2-0.8l2.1-2.9L15.4,17.7L15.4,17.7z M11.3,23.7
	c-0.3,0-0.5-0.2-0.5-0.5c0-0.3,0.2-0.5,0.5-0.5s0.5,0.2,0.5,0.5C11.8,23.5,11.5,23.7,11.3,23.7z"/>
</svg>
