<?xml version="1.0" encoding="utf-8"?>
<!-- Generator: Adobe Illustrator 27.8.1, SVG Export Plug-In . SVG Version: 6.00 Build 0)  -->
<svg version="1.1" id="Layer_1" xmlns="http://www.w3.org/2000/svg" xmlns:xlink="http://www.w3.org/1999/xlink" x="0px" y="0px"
	 viewBox="0 0 150 150" style="enable-background:new 0 0 150 150;" xml:space="preserve">
<style type="text/css">
	.st0{fill:#282422;}
</style>
<g>
	<g>
		<path class="st0" d="M77.2,3.5v73.6c4.5,0,7.6-0.8,12.9-3.2c5.7-2.6,10.4-6.5,14.2-11.7c-0.2-0.3-0.4-0.6-0.6-0.9
			c-3-4.7-1.6-11,3.1-14c1.6-1.1,3.5-1.6,5.4-1.6c3.5,0,6.7,1.7,8.6,4.7c3,4.7,1.6,11-3.1,14c-2.3,1.4-5.1,1.8-7.7,1.2
			c-2.5,3.5-5.5,6.6-8.8,9.2c4.2,1.3,9,3.8,12.9,8.5c0.9-0.2,1.9-0.4,2.9-0.4c3.5,0,6.6,1.7,8.5,4.7c1.4,2.3,1.9,5,1.3,7.7
			c-0.6,2.7-2.2,4.9-4.5,6.4c-1.6,1.1-3.5,1.6-5.4,1.6c-3.4,0-6.6-1.7-8.5-4.7c-2.3-3.5-2.1-8,0.2-11.2c-6-6.8-14.4-7.1-16.4-7.1
			c-6.1,2.6-9,4.3-15,4.3v62.9l61.3-36v-72L77.2,3.5z"/>
		<path class="st0" d="M110.2,59.1c0.6,0.4,1.4,0.6,2.1,0.6c0.8,0,1.5-0.2,2.1-0.6c1.8-1.1,2.4-3.6,1.2-5.4c-0.7-1.1-2-1.8-3.3-1.8
			c-0.8,0-1.5,0.2-2.1,0.6c-1.8,1.2-2.4,3.6-1.2,5.4C109.3,58.4,109.7,58.8,110.2,59.1z"/>
		<path class="st0" d="M116.9,97c0.8,0,1.5-0.2,2.1-0.6c0.9-0.6,1.5-1.5,1.7-2.5c0.3-1,0.1-2.1-0.5-2.9c-1.1-1.8-3.6-2.3-5.4-1.2
			l-0.2,0.1c-1.7,1.2-2.1,3.5-1,5.3C114.3,96.3,115.5,97,116.9,97z"/>
	</g>
	<path class="st0" d="M61,81.2l-0.1,2c-0.6,9.4-1.9,18.6-4.1,29.8c-0.8,3.8-2.8,16-5.5,20.8c-0.1,0.1-0.3,0.4-0.6,0.6l-2.7-1.6
		c0.9-4.2,2-10.1,2.6-12.9c1.2-5.4,4.5-34.1,4.4-40.2c-0.1-6-0.9-26.1-1.3-27.7c-1.5,0.6-9.4,9.5-11.5,11.7s-8,7.6-8.3,8.3
		s1,1.9,1,2.6c-0.1,0.6-1.7,3-2.8,4c-1.1,1-3.8,2.8-5.8,3.3s-4.3-0.3-5.1-0.7c-0.8-0.4-2.2-2.5-2.2-2.5c1.3-1.4,3.6-2.8,6-5.1
		c2.3-2.3,7.9-8.1,10.8-11.3c2.9-3.2,8.4-9.7,10.3-11.4c1.9-1.7,5.5-8.4,7.9-11.1c2.4-2.6,3.9-5.1,4.4-4.5c0.5,0.5,1.8,3.3,2.1,4.1
		c0.3,0.8,0.9,15.7,1,18c0,1.1,0.1,7.2-0.4,16.9c4.6,2,7.6,2.7,11.7,2.7V3.5l-61.3,36v72l61.3,36V84.4C68,84.4,65.2,83.1,61,81.2z"
		/>
</g>
</svg>
