<?xml version="1.0" encoding="UTF-8"?>
<svg id="Layer_1" data-name="Layer 1" xmlns="http://www.w3.org/2000/svg" width="100" height="100" viewBox="0 0 100 100">
  <defs>
    <style>
      .cls-1 {
        fill: #282422;
        stroke-width: 0px;
      }
    </style>
  </defs>
  <g>
    <path class="cls-1" d="m7.5,26.33v48l41,24v-19.52h-17.32c-.74,0-1.35-.6-1.35-1.35v-3.71l-4.84.91-2.53.48c-.06.01-.12.02-.18.01-.06,0-.12-.01-.17-.03-.06-.02-.11-.04-.16-.08-.05-.03-.1-.07-.14-.12-.04-.04-.08-.1-.12-.15-.03-.06-.06-.12-.09-.18-.02-.07-.04-.13-.05-.21-.01-.07-.02-.15-.02-.22v-4.35l-5.57,1.23s-.08.01-.12,0c-.04,0-.08-.01-.12-.03-.04-.02-.07-.04-.11-.06-.03-.03-.07-.06-.09-.09-.03-.04-.05-.08-.08-.13-.02-.05-.04-.1-.06-.15-.02-.05-.03-.11-.04-.17,0-.06-.01-.12-.01-.18v-34.95c0-.06,0-.12.01-.18s.02-.12.04-.17.04-.1.06-.15c.02-.05.05-.09.08-.12.03-.04.06-.07.09-.1.03-.03.07-.05.11-.07s.08-.03.12-.03c.04,0,.08,0,.12,0l5.57,1.23v-4.34c0-.08,0-.15.02-.22.01-.07.03-.14.05-.21.02-.07.05-.13.09-.18.03-.06.07-.11.12-.15.04-.04.09-.08.14-.12.05-.03.1-.06.16-.08.06-.02.12-.03.17-.03s.12,0,.18.01l2.53.48,4.84.91v-3.71c0-.75.6-1.35,1.35-1.35h17.32V2.33L7.5,26.33Z"/>
    <rect class="cls-1" x="32.53" y="29.43" width="15.97" height="46.68"/>
    <polygon class="cls-1" points="23.38 72.7 29.83 71.61 29.83 33.94 23.38 32.85 23.38 72.7"/>
    <polygon class="cls-1" points="21.52 68.07 21.52 37.47 16.56 36.48 16.56 69.06 21.52 68.07"/>
  </g>
  <g>
    <path class="cls-1" d="m51.7,2.17v49c3,0,5.09-.51,8.62-2.12h.01c3.81-1.73,7-4.35,9.52-7.79-.15-.19-.29-.39-.42-.6-1.99-3.16-1.04-7.34,2.11-9.34,1.08-.69,2.33-1.05,3.62-1.05,2.33,0,4.47,1.18,5.72,3.15,2,3.15,1.05,7.34-2.1,9.35-1.53.96-3.42,1.23-5.16.83-1.7,2.38-3.67,4.44-5.91,6.15,2.78.86,5.97,2.51,8.6,5.64.63-.19,1.29-.29,1.96-.29,2.34,0,4.48,1.18,5.72,3.15.97,1.52,1.29,3.33.89,5.09-.4,1.77-1.46,3.28-3,4.25-1.08.68-2.33,1.04-3.61,1.04-2.34,0-4.48-1.18-5.72-3.15-1.5-2.36-1.35-5.31.16-7.47-4.03-4.56-9.62-4.77-10.99-4.75-4.08,1.77-6.02,2.9-10.02,2.9v42l41-24V26.17L51.7,2.17Z"/>
    <path class="cls-1" d="m73.78,39.27c.42.26.9.39,1.39.39s.98-.14,1.39-.4c1.22-.77,1.59-2.4.82-3.61-.49-.77-1.32-1.22-2.22-1.22-.5,0-.97.14-1.4.41-1.22.77-1.58,2.39-.81,3.62.21.33.49.6.83.82Z"/>
    <path class="cls-1" d="m78.27,64.49c.49,0,.98-.14,1.39-.41.6-.38,1.01-.96,1.16-1.64.15-.68.03-1.37-.34-1.97-.74-1.17-2.4-1.57-3.61-.81l-.12.08c-1.13.8-1.44,2.35-.69,3.53.48.76,1.3,1.22,2.21,1.22Z"/>
  </g>
</svg>