<?xml version="1.0" encoding="UTF-8"?>
<svg id="Layer_1" data-name="Layer 1" xmlns="http://www.w3.org/2000/svg" width="671.78" height="100" viewBox="0 0 671.78 100">
  <defs>
    <style>
      .cls-1 {
        fill: #282422;
        stroke-width: 0px;
      }
    </style>
  </defs>
  <g>
    <path class="cls-1" d="m3.2,26.33v48l41,24v-19.52h-17.32c-.74,0-1.35-.6-1.35-1.35v-3.71l-4.84.91-2.53.48c-.06.01-.12.02-.18.01-.06,0-.12-.01-.17-.03-.06-.02-.11-.04-.16-.08-.05-.03-.1-.07-.14-.12-.04-.04-.08-.1-.12-.15-.03-.06-.06-.12-.09-.18-.02-.07-.04-.13-.05-.21-.01-.07-.02-.15-.02-.22v-4.35l-5.57,1.23s-.08.01-.12,0c-.04,0-.08-.01-.12-.03-.04-.02-.07-.04-.11-.06-.03-.03-.07-.06-.09-.09-.03-.04-.05-.08-.08-.13-.02-.05-.04-.1-.06-.15-.02-.05-.03-.11-.04-.17,0-.06-.01-.12-.01-.18v-34.95c0-.06,0-.12.01-.18s.02-.12.04-.17.04-.1.06-.15c.02-.05.05-.09.08-.12.03-.04.06-.07.09-.1.03-.03.07-.05.11-.07s.08-.03.12-.03c.04,0,.08,0,.12,0l5.57,1.23v-4.34c0-.08,0-.15.02-.22.01-.07.03-.14.05-.21.02-.07.05-.13.09-.18.03-.06.07-.11.12-.15.04-.04.09-.08.14-.12.05-.03.1-.06.16-.08.06-.02.12-.03.17-.03s.12,0,.18.01l2.53.48,4.84.91v-3.71c0-.75.6-1.35,1.35-1.35h17.32V2.33L3.2,26.33Z"/>
    <rect class="cls-1" x="28.23" y="29.43" width="15.97" height="46.68"/>
    <polygon class="cls-1" points="19.08 72.7 25.53 71.61 25.53 33.94 19.08 32.85 19.08 72.7"/>
    <polygon class="cls-1" points="17.23 68.07 17.23 37.47 12.26 36.48 12.26 69.06 17.23 68.07"/>
  </g>
  <g>
    <path class="cls-1" d="m144.96,57.1c-.16,3.51-1.11,6.6-2.84,9.29-1.73,2.69-4.16,4.77-7.28,6.24s-6.69,2.21-10.71,2.21c-6.62,0-11.83-2.16-15.63-6.47-3.8-4.31-5.71-10.4-5.71-18.26v-2.49c0-4.93.86-9.25,2.58-12.95,1.72-3.7,4.19-6.56,7.42-8.58,3.23-2.02,6.96-3.03,11.21-3.03,6.11,0,11.02,1.61,14.74,4.83,3.71,3.22,5.82,7.65,6.33,13.3h-12.11c-.09-3.07-.87-5.27-2.32-6.61-1.45-1.34-3.67-2.01-6.64-2.01s-5.23,1.13-6.64,3.39c-1.41,2.26-2.14,5.87-2.21,10.83v3.56c0,5.37.67,9.21,2.02,11.52,1.35,2.31,3.67,3.46,6.97,3.46,2.79,0,4.92-.66,6.4-1.97s2.26-3.4,2.35-6.26h12.07Z"/>
    <path class="cls-1" d="m148.7,55.1c0-3.74.73-7.06,2.18-9.98,1.45-2.92,3.54-5.16,6.26-6.73,2.72-1.57,5.92-2.35,9.58-2.35,5.6,0,10.02,1.74,13.25,5.21,3.23,3.47,4.84,8.19,4.84,14.17v.42c0,5.83-1.62,10.46-4.86,13.89-3.24,3.42-7.63,5.14-13.16,5.14s-9.6-1.6-12.83-4.79c-3.23-3.19-4.97-7.52-5.22-12.99l-.03-1.97Zm11.66.73c0,3.46.54,6,1.63,7.61s2.69,2.42,4.81,2.42c4.15,0,6.27-3.19,6.36-9.58v-1.18c0-6.71-2.14-10.07-6.43-10.07-3.9,0-6.01,2.89-6.33,8.68l-.04,2.11Z"/>
    <path class="cls-1" d="m204.35,60.28l5.91-23.56h12.28l-12.21,37.43h-11.9l-12.21-37.43h12.31l5.81,23.56Z"/>
    <path class="cls-1" d="m243.68,74.85c-5.74,0-10.39-1.71-13.94-5.14-3.55-3.42-5.33-7.88-5.33-13.37v-.97c0-3.83.71-7.21,2.13-10.13,1.42-2.93,3.49-5.19,6.21-6.8,2.72-1.6,5.95-2.4,9.68-2.4,5.26,0,9.41,1.63,12.45,4.89,3.04,3.26,4.57,7.81,4.57,13.65v4.53h-23.17c.42,2.1,1.33,3.75,2.73,4.95,1.41,1.2,3.23,1.8,5.46,1.8,3.69,0,6.57-1.29,8.65-3.87l5.33,6.3c-1.45,2.01-3.51,3.6-6.17,4.79s-5.53,1.78-8.6,1.78Zm-1.31-29.82c-3.41,0-5.44,2.26-6.09,6.78h11.76v-.9c.05-1.87-.43-3.31-1.42-4.34-.99-1.03-2.41-1.54-4.25-1.54Z"/>
    <path class="cls-1" d="m286.78,47.28l-3.84-.28c-3.67,0-6.02,1.15-7.06,3.46v23.69h-11.66v-37.43h10.93l.38,4.81c1.96-3.67,4.69-5.5,8.2-5.5,1.25,0,2.33.14,3.25.42l-.21,10.83Z"/>
    <path class="cls-1" d="m337.76,64.75h-16.64l-2.91,9.41h-12.97l18.47-50.36h11.41l18.61,50.36h-13.04l-2.94-9.41Zm-13.73-9.37h10.83l-5.43-17.47-5.4,17.47Z"/>
    <path class="cls-1" d="m379.51,47.28l-3.84-.28c-3.67,0-6.02,1.15-7.06,3.46v23.69h-11.66v-37.43h10.93l.38,4.81c1.96-3.67,4.69-5.5,8.2-5.5,1.25,0,2.33.14,3.25.42l-.21,10.83Z"/>
    <path class="cls-1" d="m399.02,27.42v9.3h6.16v8.09h-6.16v17.12c0,1.41.25,2.39.76,2.94.51.55,1.51.83,3.01.83,1.15,0,2.12-.07,2.91-.21v8.34c-2.1.67-4.29,1-6.57,1-4.01,0-6.98-.95-8.89-2.84-1.91-1.89-2.87-4.76-2.87-8.61v-18.58h-4.77v-8.09h4.77v-9.3h11.66Z"/>
    <path class="cls-1" d="m456.54,64.75h-16.64l-2.91,9.41h-12.97l18.47-50.36h11.41l18.61,50.36h-13.04l-2.94-9.41Zm-13.73-9.37h10.83l-5.43-17.47-5.4,17.47Z"/>
    <path class="cls-1" d="m498.29,47.28l-3.84-.28c-3.67,0-6.02,1.15-7.06,3.46v23.69h-11.66v-37.43h10.93l.38,4.81c1.96-3.67,4.69-5.5,8.2-5.5,1.25,0,2.33.14,3.25.42l-.21,10.83Z"/>
    <path class="cls-1" d="m517.66,65.85c1.64,0,2.91-.44,3.8-1.33s1.34-2.13,1.31-3.72h10.93c0,4.1-1.47,7.47-4.41,10.1-2.94,2.63-6.73,3.94-11.36,3.94-5.44,0-9.73-1.71-12.87-5.12-3.14-3.41-4.7-8.14-4.7-14.18v-.48c0-3.78.7-7.12,2.09-10.01,1.39-2.89,3.41-5.12,6.04-6.68,2.63-1.56,5.74-2.33,9.34-2.33,4.87,0,8.73,1.35,11.59,4.05,2.86,2.7,4.29,6.35,4.29,10.96h-10.93c0-1.94-.47-3.42-1.42-4.46-.95-1.04-2.21-1.56-3.81-1.56-3.02,0-4.79,1.93-5.29,5.78-.16,1.22-.24,2.91-.24,5.05,0,3.76.45,6.36,1.35,7.82.9,1.45,2.33,2.18,4.29,2.18Z"/>
    <path class="cls-1" d="m550.04,40.74c2.49-3.14,5.67-4.7,9.55-4.7,4.13,0,7.24,1.22,9.34,3.67,2.1,2.44,3.17,6.05,3.22,10.83v23.62h-11.69v-23.35c0-1.98-.4-3.44-1.21-4.38-.81-.93-2.18-1.4-4.12-1.4-2.4,0-4.09.76-5.08,2.28v26.84h-11.66V21.03h11.66v19.72Z"/>
    <path class="cls-1" d="m578.54,27.04c0-1.67.6-3.04,1.8-4.11s2.76-1.6,4.67-1.6,3.47.53,4.67,1.6c1.2,1.07,1.8,2.44,1.8,4.11s-.6,3.04-1.8,4.11c-1.2,1.07-2.76,1.6-4.67,1.6s-3.47-.53-4.67-1.6c-1.2-1.07-1.8-2.44-1.8-4.11Zm12.38,47.11h-11.69v-37.43h11.69v37.43Z"/>
    <path class="cls-1" d="m613.03,60.28l5.91-23.56h12.28l-12.21,37.43h-11.9l-12.21-37.43h12.31l5.81,23.56Z"/>
    <path class="cls-1" d="m652.35,74.85c-5.74,0-10.39-1.71-13.94-5.14-3.55-3.42-5.33-7.88-5.33-13.37v-.97c0-3.83.71-7.21,2.13-10.13,1.42-2.93,3.49-5.19,6.21-6.8,2.72-1.6,5.95-2.4,9.68-2.4,5.26,0,9.41,1.63,12.45,4.89,3.04,3.26,4.57,7.81,4.57,13.65v4.53h-23.17c.42,2.1,1.33,3.75,2.73,4.95,1.41,1.2,3.23,1.8,5.46,1.8,3.69,0,6.57-1.29,8.65-3.87l5.33,6.3c-1.45,2.01-3.51,3.6-6.17,4.79s-5.53,1.78-8.6,1.78Zm-1.31-29.82c-3.41,0-5.44,2.26-6.09,6.78h11.76v-.9c.05-1.87-.43-3.31-1.42-4.34-.99-1.03-2.41-1.54-4.25-1.54Z"/>
  </g>
  <g>
    <path class="cls-1" d="m47.6,2.33v49c3,0,5.09-.51,8.62-2.12h.01c3.81-1.73,7-4.35,9.52-7.79-.15-.19-.29-.39-.42-.6-1.99-3.16-1.04-7.34,2.11-9.34,1.08-.69,2.33-1.05,3.62-1.05,2.33,0,4.47,1.18,5.72,3.15,2,3.15,1.05,7.34-2.1,9.35-1.53.96-3.42,1.23-5.16.83-1.7,2.38-3.67,4.44-5.91,6.15,2.78.86,5.97,2.51,8.6,5.64.63-.19,1.29-.29,1.96-.29,2.34,0,4.48,1.18,5.72,3.15.97,1.52,1.29,3.33.89,5.09-.4,1.77-1.46,3.28-3,4.25-1.08.68-2.33,1.04-3.61,1.04-2.34,0-4.48-1.18-5.72-3.15-1.5-2.36-1.35-5.31.16-7.47-4.03-4.56-9.62-4.77-10.99-4.75-4.08,1.77-6.02,2.9-10.02,2.9v42l41-24V26.33L47.6,2.33Z"/>
    <path class="cls-1" d="m69.68,39.44c.42.26.9.39,1.39.39s.98-.14,1.39-.4c1.22-.77,1.59-2.4.82-3.61-.49-.77-1.32-1.22-2.22-1.22-.5,0-.97.14-1.4.41-1.22.77-1.58,2.39-.81,3.62.21.33.49.6.83.82Z"/>
    <path class="cls-1" d="m74.17,64.65c.49,0,.98-.14,1.39-.41.6-.38,1.01-.96,1.16-1.64.15-.68.03-1.37-.34-1.97-.74-1.17-2.4-1.57-3.61-.81l-.12.08c-1.13.8-1.44,2.35-.69,3.53.48.76,1.3,1.22,2.21,1.22Z"/>
  </g>
</svg>