<?xml version="1.0" encoding="UTF-8"?>
<svg id="Layer_1" data-name="Layer 1" xmlns="http://www.w3.org/2000/svg" width="601" height="152" viewBox="0 0 601 152">
  <defs>
    <style>
      .cls-1 {
        fill: #fffedb;
      }

      .cls-2 {
        fill: #5aa854;
      }

      .cls-3 {
        fill: #444;
      }

      .cls-4 {
        fill: #eb743b;
      }
    </style>
  </defs>
  <g>
    <polygon class="cls-4" points="68.92 3.57 68.92 147.57 130.18 111.57 130.18 39.57 68.92 3.57"/>
    <polygon class="cls-2" points="64.44 3.57 3.18 39.57 3.18 111.57 64.44 147.57 64.44 3.57"/>
    <path class="cls-1" d="m117.15,87.7c-1.85-2.95-5.05-4.72-8.54-4.72-1,0-1.98.15-2.92.44-3.93-4.69-8.69-7.16-12.85-8.45,3.34-2.57,6.29-5.66,8.83-9.23,2.6.59,5.42.19,7.71-1.25,4.72-3.01,6.13-9.3,3.14-14.02-1.87-2.96-5.06-4.73-8.55-4.73-1.92,0-3.78.54-5.4,1.57-4.7,2.99-6.12,9.27-3.15,14,.19.31.4.61.63.89-3.76,5.16-8.53,9.08-14.22,11.68h-.02c-5.28,2.41-8.4,3.18-12.89,3.18v7.5c5.98,0,8.86-1.69,14.96-4.35,2.04-.04,10.4.28,16.42,7.12-2.25,3.25-2.47,7.66-.24,11.21,1.85,2.95,5.05,4.73,8.55,4.73,1.91,0,3.77-.54,5.39-1.57,2.3-1.46,3.88-3.72,4.48-6.38.59-2.64.12-5.35-1.33-7.63Zm-15.27-35.13c.63-.4,1.35-.61,2.09-.61,1.35,0,2.59.68,3.32,1.84,1.15,1.82.6,4.25-1.22,5.42-.61.39-1.34.6-2.07.6s-1.45-.2-2.08-.59c-.51-.32-.93-.73-1.24-1.23-1.15-1.84-.61-4.27,1.21-5.43Zm10.55,41.4c-.23,1.03-.84,1.9-1.73,2.47-.62.4-1.34.61-2.08.61-1.35,0-2.59-.69-3.3-1.83-1.11-1.77-.66-4.09,1.03-5.29l.18-.12c1.8-1.15,4.28-.55,5.39,1.21.56.89.74,1.93.52,2.95Z"/>
  </g>
  <g>
    <g>
      <path class="cls-3" d="m494.24,122.37h-8.11v19.79h-7.41v-19.79h-7.87v-5.69h23.4v5.69Z"/>
      <path class="cls-3" d="m496.64,116.26c0-.92.33-1.67.99-2.26.66-.59,1.51-.88,2.57-.88s1.91.29,2.57.88.99,1.34.99,2.26-.33,1.67-.99,2.26c-.66.59-1.52.88-2.57.88s-1.91-.29-2.57-.88c-.66-.59-.99-1.34-.99-2.26Zm6.81,25.9h-6.43v-20.58h6.43v20.58Z"/>
      <path class="cls-3" d="m516.1,137.6c.9,0,1.6-.24,2.09-.73.49-.49.74-1.17.72-2.04h6.01c0,2.26-.81,4.11-2.42,5.55-1.62,1.45-3.7,2.17-6.25,2.17-2.99,0-5.35-.94-7.08-2.82-1.72-1.88-2.59-4.48-2.59-7.8v-.27c0-2.08.38-3.91,1.15-5.51.77-1.59,1.87-2.81,3.32-3.67,1.45-.86,3.16-1.28,5.14-1.28,2.67,0,4.8.74,6.37,2.23,1.57,1.48,2.36,3.49,2.36,6.03h-6.01c0-1.06-.26-1.88-.78-2.45s-1.22-.86-2.09-.86c-1.66,0-2.63,1.06-2.91,3.18-.09.67-.13,1.6-.13,2.78,0,2.07.25,3.5.74,4.3.5.8,1.28,1.2,2.36,1.2Z"/>
      <path class="cls-3" d="m535.9,134.5l-1.81,1.81v5.86h-6.41v-29.23h6.41v15.52l.65-.86,4.83-6.01h7.68l-7.21,8.46,7.68,12.12h-7.34l-4.49-7.67Z"/>
      <path class="cls-3" d="m558.51,142.54c-3.16,0-5.71-.94-7.67-2.83s-2.93-4.33-2.93-7.35v-.53c0-2.1.39-3.96,1.17-5.57.78-1.61,1.92-2.86,3.41-3.74,1.5-.88,3.27-1.32,5.33-1.32,2.89,0,5.17.9,6.85,2.69s2.51,4.29,2.51,7.5v2.49h-12.74c.23,1.15.73,2.06,1.5,2.72.77.66,1.77.99,3,.99,2.03,0,3.61-.71,4.75-2.13l2.93,3.46c-.8,1.1-1.93,1.98-3.4,2.63-1.46.65-3.04.98-4.73.98Zm-.72-16.39c-1.88,0-2.99,1.24-3.35,3.73h6.47v-.5c.03-1.03-.24-1.82-.78-2.39-.54-.56-1.33-.85-2.34-.85Z"/>
      <path class="cls-3" d="m577.22,116.47v5.12h3.38v4.45h-3.38v9.41c0,.77.14,1.31.42,1.62.28.3.83.46,1.65.46.63,0,1.17-.04,1.6-.11v4.58c-1.15.37-2.36.55-3.61.55-2.21,0-3.84-.52-4.89-1.56-1.05-1.04-1.58-2.62-1.58-4.74v-10.21h-2.62v-4.45h2.62v-5.12h6.41Z"/>
      <path class="cls-3" d="m593.9,136.38c0-.54-.29-.98-.86-1.31-.57-.33-1.66-.67-3.25-1.03-1.6-.35-2.92-.82-3.96-1.4-1.04-.58-1.83-1.28-2.38-2.1-.54-.82-.82-1.77-.82-2.83,0-1.89.78-3.45,2.34-4.67s3.6-1.83,6.12-1.83c2.71,0,4.89.62,6.54,1.84,1.65,1.23,2.47,2.85,2.47,4.85h-6.43c0-1.65-.87-2.47-2.61-2.47-.67,0-1.24.19-1.69.56-.46.37-.69.84-.69,1.4s.28,1.03.84,1.39c.56.36,1.45.65,2.67.88,1.22.23,2.3.5,3.22.82,3.09,1.06,4.64,2.97,4.64,5.72,0,1.88-.83,3.4-2.5,4.58-1.67,1.18-3.83,1.77-6.48,1.77-1.76,0-3.33-.32-4.72-.95s-2.46-1.5-3.23-2.59c-.77-1.09-1.16-2.24-1.16-3.44h5.99c.03.95.34,1.65.95,2.08.61.44,1.39.66,2.34.66.87,0,1.53-.18,1.97-.53.44-.35.66-.82.66-1.39Z"/>
    </g>
    <g>
      <path class="cls-2" d="m168.5,42.16l14.02,43.68,13.97-43.68h19.92v62.79h-15.18v-14.66l1.47-30.01-15.18,44.68h-10l-15.22-44.72,1.47,30.06v14.66h-15.14v-62.79h19.88Z"/>
      <path class="cls-2" d="m247.93,105.81c-7.16,0-12.95-2.13-17.38-6.4-4.43-4.27-6.64-9.83-6.64-16.67v-1.21c0-4.77.88-8.98,2.65-12.63,1.77-3.65,4.35-6.48,7.74-8.47,3.39-2,7.42-3,12.07-3,6.55,0,11.73,2.03,15.52,6.1s5.69,9.74,5.69,17.01v5.65h-28.89c.52,2.62,1.65,4.67,3.41,6.17,1.75,1.5,4.02,2.24,6.81,2.24,4.6,0,8.19-1.61,10.78-4.83l6.64,7.85c-1.81,2.5-4.38,4.49-7.7,5.97s-6.89,2.22-10.72,2.22Zm-1.64-37.17c-4.25,0-6.79,2.82-7.59,8.45h14.66v-1.12c.06-2.33-.53-4.13-1.77-5.41s-3-1.92-5.3-1.92Z"/>
      <path class="cls-2" d="m290.37,46.69v11.6h7.68v10.09h-7.68v21.35c0,1.75.32,2.98.95,3.67.63.69,1.88,1.03,3.75,1.03,1.44,0,2.65-.09,3.62-.26v10.39c-2.62.83-5.35,1.25-8.19,1.25-5,0-8.7-1.18-11.08-3.54-2.39-2.36-3.58-5.94-3.58-10.74v-23.16h-5.95v-10.09h5.95v-11.6h14.53Z"/>
      <path class="cls-2" d="m330.04,104.95c-.52-.95-.98-2.34-1.38-4.18-2.67,3.36-6.41,5.04-11.21,5.04-4.4,0-8.14-1.33-11.21-3.99s-4.61-6-4.61-10.03c0-5.06,1.87-8.88,5.61-11.47,3.74-2.59,9.17-3.88,16.3-3.88h4.48v-2.47c0-4.3-1.85-6.46-5.56-6.46-3.45,0-5.17,1.71-5.17,5.11h-14.53c0-4.51,1.92-8.17,5.76-10.98,3.84-2.81,8.73-4.22,14.68-4.22s10.65,1.45,14.1,4.36c3.45,2.9,5.22,6.89,5.3,11.95v20.66c.06,4.28.72,7.56,1.98,9.83v.73h-14.53Zm-9.1-9.49c1.81,0,3.31-.39,4.51-1.16,1.19-.78,2.05-1.65,2.57-2.63v-7.46h-4.23c-5.06,0-7.59,2.27-7.59,6.81,0,1.32.45,2.39,1.34,3.21.89.82,2.03,1.23,3.41,1.23Z"/>
      <path class="cls-4" d="m351.3,104.95v-62.79h22.55c8.08,0,14.22,1.48,18.44,4.44,4.21,2.96,6.32,7.26,6.32,12.89,0,3.25-.75,6.02-2.24,8.32-1.5,2.3-3.69,4-6.6,5.09,3.28.86,5.79,2.47,7.55,4.83s2.63,5.23,2.63,8.62c0,6.15-1.95,10.77-5.84,13.86-3.9,3.09-9.67,4.66-17.31,4.72h-25.49Zm15.14-36.61h7.89c3.31-.03,5.66-.63,7.07-1.82,1.41-1.18,2.11-2.93,2.11-5.23,0-2.65-.76-4.56-2.29-5.73s-3.98-1.75-7.37-1.75h-7.42v14.53Zm0,9.92v15.05h9.92c2.73,0,4.83-.62,6.3-1.88,1.47-1.25,2.2-3.01,2.2-5.28,0-5.23-2.6-7.86-7.81-7.89h-10.61Z"/>
      <path class="cls-4" d="m435.82,71.44l-4.79-.34c-4.57,0-7.5,1.44-8.8,4.31v29.54h-14.53v-46.66h13.63l.47,5.99c2.44-4.57,5.85-6.86,10.22-6.86,1.55,0,2.9.17,4.05.52l-.26,13.5Z"/>
      <path class="cls-4" d="m466.05,104.95c-.52-.95-.98-2.34-1.38-4.18-2.67,3.36-6.41,5.04-11.21,5.04-4.4,0-8.14-1.33-11.21-3.99s-4.61-6-4.61-10.03c0-5.06,1.87-8.88,5.61-11.47,3.74-2.59,9.17-3.88,16.3-3.88h4.48v-2.47c0-4.3-1.85-6.46-5.56-6.46-3.45,0-5.17,1.71-5.17,5.11h-14.53c0-4.51,1.92-8.17,5.76-10.98,3.84-2.81,8.73-4.22,14.68-4.22s10.65,1.45,14.1,4.36c3.45,2.9,5.22,6.89,5.3,11.95v20.66c.06,4.28.72,7.56,1.98,9.83v.73h-14.53Zm-9.1-9.49c1.81,0,3.31-.39,4.51-1.16,1.19-.78,2.05-1.65,2.57-2.63v-7.46h-4.23c-5.06,0-7.59,2.27-7.59,6.81,0,1.32.45,2.39,1.34,3.21.89.82,2.03,1.23,3.41,1.23Z"/>
      <path class="cls-4" d="m486.54,46.21c0-2.08.75-3.79,2.24-5.12,1.49-1.33,3.43-2,5.82-2s4.33.67,5.82,2c1.49,1.33,2.24,3.04,2.24,5.12s-.75,3.79-2.24,5.12c-1.5,1.33-3.44,2-5.82,2s-4.33-.67-5.82-2c-1.5-1.33-2.24-3.04-2.24-5.12Zm15.44,58.73h-14.58v-46.66h14.58v46.66Z"/>
      <path class="cls-4" d="m524.27,58.29l.47,5.48c3.22-4.23,7.66-6.34,13.33-6.34,4.86,0,8.49,1.45,10.89,4.36,2.4,2.9,3.64,7.27,3.73,13.11v30.06h-14.58v-29.45c0-2.36-.47-4.09-1.42-5.2-.95-1.11-2.67-1.66-5.17-1.66-2.85,0-4.96,1.12-6.34,3.36v32.95h-14.53v-46.66h13.63Z"/>
      <path class="cls-4" d="m577.87,93.74h21.26v11.21h-39.63v-8.11l20.7-27.34h-19.79v-11.21h38.25v7.85l-20.79,27.6Z"/>
    </g>
  </g>
  <path class="cls-1" d="m35.18,86.37c-5.67,0-10.29-4.62-10.29-10.29s4.62-10.29,10.29-10.29,10.29,4.62,10.29,10.29-4.62,10.29-10.29,10.29Zm0-14.08c-2.09,0-3.79,1.7-3.79,3.79s1.7,3.79,3.79,3.79,3.79-1.7,3.79-3.79-1.7-3.79-3.79-3.79Z"/>
</svg>