<?xml version="1.0" encoding="UTF-8"?>
<svg id="Layer_1" data-name="Layer 1" xmlns="http://www.w3.org/2000/svg" width="310.56" height="30.21" viewBox="0 0 310.56 30.21">
  <defs>
    <style>
      .cls-1 {
        fill: #fffedb;
      }

      .cls-2 {
        fill: #5aa854;
      }

      .cls-3 {
        fill: #444;
      }

      .cls-4 {
        fill: #eb743b;
      }
    </style>
  </defs>
  <g>
    <g>
      <polygon class="cls-2" points="14 1 2 8 2 22 14 29 14 1"/>
      <polygon class="cls-4" points="15 1 27 8 27 22 15 29 15 1"/>
    </g>
    <g>
      <path class="cls-2" d="m38.51,3.28l5.07,15.81,5.06-15.81h7.21v22.72h-5.49v-5.31l.53-10.86-5.49,16.17h-3.62l-5.51-16.18.53,10.88v5.31h-5.48V3.28h7.19Z"/>
      <path class="cls-2" d="m67.26,26.31c-2.59,0-4.69-.77-6.29-2.32-1.6-1.54-2.4-3.56-2.4-6.03v-.44c0-1.73.32-3.25.96-4.57.64-1.32,1.57-2.34,2.8-3.07,1.23-.72,2.68-1.08,4.37-1.08,2.37,0,4.25.74,5.62,2.21,1.37,1.47,2.06,3.52,2.06,6.16v2.04h-10.46c.19.95.6,1.69,1.23,2.23s1.46.81,2.47.81c1.67,0,2.96-.58,3.9-1.75l2.4,2.84c-.66.91-1.58,1.63-2.79,2.16-1.2.54-2.5.8-3.88.8Zm-.59-13.45c-1.54,0-2.46,1.02-2.75,3.06h5.31v-.41c.02-.84-.19-1.5-.64-1.96s-1.09-.69-1.92-.69Z"/>
      <path class="cls-2" d="m82.61,4.92v4.2h2.78v3.65h-2.78v7.72c0,.63.11,1.08.34,1.33.23.25.68.38,1.36.38.52,0,.96-.03,1.31-.09v3.76c-.95.3-1.93.45-2.96.45-1.81,0-3.15-.43-4.01-1.28-.86-.85-1.29-2.15-1.29-3.89v-8.38h-2.15v-3.65h2.15v-4.2h5.26Z"/>
      <path class="cls-2" d="m96.97,26c-.19-.34-.35-.85-.5-1.51-.97,1.22-2.32,1.83-4.06,1.83-1.59,0-2.94-.48-4.06-1.44-1.11-.96-1.67-2.17-1.67-3.63,0-1.83.68-3.21,2.03-4.15,1.35-.94,3.32-1.4,5.9-1.4h1.62v-.89c0-1.56-.67-2.34-2.01-2.34-1.25,0-1.87.62-1.87,1.85h-5.26c0-1.63.69-2.96,2.08-3.97,1.39-1.02,3.16-1.53,5.31-1.53s3.85.53,5.1,1.58c1.25,1.05,1.89,2.49,1.92,4.32v7.48c.02,1.55.26,2.74.72,3.56v.27h-5.26Zm-3.29-3.43c.66,0,1.2-.14,1.63-.42s.74-.6.93-.95v-2.7h-1.53c-1.83,0-2.75.82-2.75,2.46,0,.48.16.87.48,1.16.32.3.73.44,1.23.44Z"/>
      <path class="cls-4" d="m104.66,26V3.28h8.16c2.92,0,5.15.54,6.67,1.61,1.52,1.07,2.29,2.63,2.29,4.67,0,1.18-.27,2.18-.81,3.01-.54.83-1.34,1.45-2.39,1.84,1.19.31,2.1.89,2.73,1.75.63.85.95,1.89.95,3.12,0,2.23-.71,3.9-2.11,5.02-1.41,1.12-3.5,1.69-6.27,1.71h-9.22Zm5.48-13.25h2.86c1.2-.01,2.05-.23,2.56-.66s.76-1.06.76-1.89c0-.96-.28-1.65-.83-2.07-.55-.42-1.44-.63-2.67-.63h-2.68v5.26Zm0,3.59v5.45h3.59c.99,0,1.75-.23,2.28-.68.53-.45.8-1.09.8-1.91,0-1.89-.94-2.85-2.82-2.86h-3.84Z"/>
      <path class="cls-4" d="m135.25,13.88l-1.73-.12c-1.65,0-2.71.52-3.18,1.56v10.69h-5.26V9.12h4.93l.17,2.17c.88-1.65,2.12-2.48,3.7-2.48.56,0,1.05.06,1.47.19l-.09,4.88Z"/>
      <path class="cls-4" d="m146.19,26c-.19-.34-.35-.85-.5-1.51-.97,1.22-2.32,1.83-4.06,1.83-1.59,0-2.94-.48-4.06-1.44-1.11-.96-1.67-2.17-1.67-3.63,0-1.83.68-3.21,2.03-4.15,1.35-.94,3.32-1.4,5.9-1.4h1.62v-.89c0-1.56-.67-2.34-2.01-2.34-1.25,0-1.87.62-1.87,1.85h-5.26c0-1.63.69-2.96,2.08-3.97,1.39-1.02,3.16-1.53,5.31-1.53s3.85.53,5.1,1.58c1.25,1.05,1.89,2.49,1.92,4.32v7.48c.02,1.55.26,2.74.72,3.56v.27h-5.26Zm-3.29-3.43c.66,0,1.2-.14,1.63-.42s.74-.6.93-.95v-2.7h-1.53c-1.83,0-2.75.82-2.75,2.46,0,.48.16.87.48,1.16.32.3.73.44,1.23.44Z"/>
      <path class="cls-4" d="m153.6,4.75c0-.75.27-1.37.81-1.85s1.24-.72,2.11-.72,1.57.24,2.11.72.81,1.1.81,1.85-.27,1.37-.81,1.85-1.24.72-2.11.72-1.57-.24-2.11-.72-.81-1.1-.81-1.85Zm5.59,21.25h-5.27V9.12h5.27v16.88Z"/>
      <path class="cls-4" d="m167.26,9.12l.17,1.98c1.17-1.53,2.77-2.29,4.82-2.29,1.76,0,3.07.53,3.94,1.58.87,1.05,1.32,2.63,1.35,4.74v10.88h-5.27v-10.66c0-.85-.17-1.48-.52-1.88-.34-.4-.97-.6-1.87-.6-1.03,0-1.79.41-2.29,1.22v11.92h-5.26V9.12h4.93Z"/>
      <path class="cls-4" d="m186.65,21.94h7.69v4.06h-14.34v-2.93l7.49-9.89h-7.16v-4.06h13.84v2.84l-7.52,9.99Z"/>
      <path class="cls-3" d="m222,7.51h-6.82v18.49h-5.48V7.51h-6.7V3.28h18.99v4.23Z"/>
      <path class="cls-3" d="m224.03,4.75c0-.75.27-1.37.81-1.85s1.24-.72,2.11-.72,1.57.24,2.11.72.81,1.1.81,1.85-.27,1.37-.81,1.85-1.24.72-2.11.72-1.57-.24-2.11-.72-.81-1.1-.81-1.85Zm5.59,21.25h-5.27V9.12h5.27v16.88Z"/>
      <path class="cls-3" d="m239.99,22.25c.74,0,1.31-.2,1.72-.6.41-.4.6-.96.59-1.68h4.93c0,1.85-.66,3.37-1.99,4.56-1.33,1.19-3.04,1.78-5.13,1.78-2.46,0-4.39-.77-5.81-2.31-1.42-1.54-2.12-3.67-2.12-6.4v-.22c0-1.71.31-3.21.94-4.52.63-1.31,1.54-2.31,2.72-3.01,1.19-.7,2.59-1.05,4.21-1.05,2.2,0,3.94.61,5.23,1.83,1.29,1.22,1.94,2.87,1.94,4.95h-4.93c0-.87-.21-1.54-.64-2.01s-1-.7-1.72-.7c-1.36,0-2.16.87-2.39,2.61-.07.55-.11,1.31-.11,2.28,0,1.7.2,2.87.61,3.53.41.66,1.05.98,1.94.98Z"/>
      <path class="cls-3" d="m256.24,19.71l-1.48,1.48v4.81h-5.26V2.01h5.26v12.73l.53-.7,3.96-4.93h6.3l-5.91,6.94,6.3,9.94h-6.02l-3.68-6.29Z"/>
      <path class="cls-3" d="m274.79,26.31c-2.59,0-4.69-.77-6.29-2.32-1.6-1.54-2.4-3.56-2.4-6.03v-.44c0-1.73.32-3.25.96-4.57.64-1.32,1.57-2.34,2.8-3.07,1.23-.72,2.68-1.08,4.37-1.08,2.37,0,4.25.74,5.62,2.21,1.37,1.47,2.06,3.52,2.06,6.16v2.04h-10.46c.19.95.6,1.69,1.23,2.23s1.46.81,2.47.81c1.67,0,2.96-.58,3.9-1.75l2.4,2.84c-.66.91-1.58,1.63-2.79,2.16-1.2.54-2.5.8-3.88.8Zm-.59-13.45c-1.54,0-2.46,1.02-2.75,3.06h5.31v-.41c.02-.84-.19-1.5-.64-1.96s-1.09-.69-1.92-.69Z"/>
      <path class="cls-3" d="m290.15,4.92v4.2h2.78v3.65h-2.78v7.72c0,.63.11,1.08.34,1.33.23.25.68.38,1.36.38.52,0,.96-.03,1.31-.09v3.76c-.95.3-1.93.45-2.96.45-1.81,0-3.15-.43-4.01-1.28-.86-.85-1.29-2.15-1.29-3.89v-8.38h-2.15v-3.65h2.15v-4.2h5.26Z"/>
      <path class="cls-3" d="m303.83,21.26c0-.45-.23-.81-.7-1.08-.47-.27-1.36-.55-2.67-.84-1.31-.29-2.39-.67-3.25-1.15-.85-.47-1.5-1.05-1.95-1.72-.45-.68-.67-1.45-.67-2.33,0-1.55.64-2.83,1.92-3.83,1.28-1,2.96-1.51,5.03-1.51,2.23,0,4.02.5,5.37,1.51,1.35,1.01,2.03,2.34,2.03,3.98h-5.27c0-1.35-.71-2.03-2.14-2.03-.55,0-1.01.15-1.39.46-.38.31-.56.69-.56,1.15s.23.85.69,1.14,1.19.53,2.19.72c1,.19,1.88.41,2.64.67,2.54.87,3.81,2.44,3.81,4.7,0,1.54-.68,2.79-2.05,3.76-1.37.97-3.14,1.45-5.31,1.45-1.45,0-2.74-.26-3.87-.78-1.13-.52-2.02-1.23-2.65-2.12-.63-.89-.95-1.84-.95-2.82h4.92c.02.78.28,1.35.78,1.71.5.36,1.14.54,1.92.54.72,0,1.26-.15,1.61-.44.36-.29.54-.67.54-1.14Z"/>
    </g>
  </g>
  <path class="cls-1" d="m24.49,17.27c-.36-.58-.99-.93-1.68-.93-.2,0-.39.03-.58.09-.77-.92-1.71-1.4-2.53-1.66.66-.5,1.24-1.11,1.74-1.81.51.12,1.07.04,1.52-.24.93-.59,1.21-1.82.62-2.75-.37-.58-1-.93-1.68-.93-.38,0-.75.11-1.06.31-.93.59-1.2,1.82-.62,2.75.04.06.08.12.12.18-.74,1.01-1.68,1.78-2.8,2.29h0c-1.04.47-1.65.62-2.54.62v1.47c1.18,0,1.74-.33,2.95-.85.4,0,2.05.05,3.23,1.4-.44.64-.49,1.5-.05,2.2.37.58.99.93,1.68.93.38,0,.74-.11,1.06-.31.45-.29.76-.73.88-1.25.12-.52.02-1.05-.26-1.5Zm-3.01-6.89c.12-.08.27-.12.41-.12.27,0,.51.13.65.36.23.36.12.83-.24,1.06-.12.08-.26.12-.41.12s-.29-.04-.41-.11c-.1-.06-.18-.14-.24-.24-.23-.36-.12-.84.24-1.06Zm2.08,8.12c-.05.2-.17.37-.34.48-.12.08-.26.12-.41.12-.27,0-.51-.13-.65-.36-.22-.35-.13-.8.2-1.04l.03-.02c.36-.23.84-.11,1.06.24.11.17.15.38.1.58Z"/>
  <path class="cls-1" d="m8.51,16.62c-1.08,0-1.96-.88-1.96-1.96s.88-1.96,1.96-1.96,1.96.88,1.96,1.96-.88,1.96-1.96,1.96Zm0-2.42c-.25,0-.46.21-.46.46s.21.46.46.46.46-.21.46-.46-.21-.46-.46-.46Z"/>
</svg>