<?xml version="1.0" encoding="UTF-8"?>
<svg id="Layer_1" data-name="Layer 1" xmlns="http://www.w3.org/2000/svg" width="150" height="150" viewBox="0 0 150 150">
  <defs>
    <style>
      .cls-1 {
        fill: #fffedb;
      }

      .cls-2 {
        fill: #5aa854;
      }

      .cls-3 {
        fill: #eb743b;
      }
    </style>
  </defs>
  <g>
    <polygon class="cls-3" points="77.24 3 77.24 147 138.5 111 138.5 39 77.24 3"/>
    <polygon class="cls-2" points="72.76 3 11.5 39 11.5 111 72.76 147 72.76 3"/>
    <path class="cls-1" d="m125.47,87.13c-1.85-2.95-5.05-4.72-8.54-4.72-1,0-1.98.15-2.92.44-3.93-4.69-8.69-7.16-12.85-8.45,3.34-2.57,6.29-5.66,8.83-9.23,2.6.59,5.42.19,7.71-1.25,4.72-3.01,6.13-9.3,3.14-14.02-1.87-2.96-5.06-4.73-8.55-4.73-1.92,0-3.78.54-5.4,1.57-4.7,2.99-6.12,9.27-3.15,14,.19.31.4.61.63.89-3.76,5.16-8.53,9.08-14.22,11.68h-.02c-5.28,2.41-8.4,3.18-12.89,3.18v7.5c5.98,0,8.86-1.69,14.96-4.35,2.04-.04,10.4.28,16.42,7.12-2.25,3.25-2.47,7.66-.24,11.21,1.85,2.95,5.05,4.73,8.55,4.73,1.91,0,3.77-.54,5.39-1.57,2.3-1.46,3.88-3.72,4.48-6.38.59-2.64.12-5.35-1.33-7.63Zm-15.27-35.13c.63-.4,1.35-.61,2.09-.61,1.35,0,2.59.68,3.32,1.84,1.15,1.82.6,4.25-1.22,5.42-.61.39-1.34.6-2.07.6s-1.45-.2-2.08-.59c-.51-.32-.93-.73-1.24-1.23-1.15-1.84-.61-4.27,1.21-5.43Zm10.55,41.4c-.23,1.03-.84,1.9-1.73,2.47-.62.4-1.34.61-2.08.61-1.35,0-2.59-.69-3.3-1.83-1.11-1.77-.66-4.09,1.03-5.29l.18-.12c1.8-1.15,4.28-.55,5.39,1.21.56.89.74,1.93.52,2.95Z"/>
  </g>
  <path class="cls-1" d="m43.5,85.79c-5.67,0-10.29-4.62-10.29-10.29s4.62-10.29,10.29-10.29,10.29,4.62,10.29,10.29-4.62,10.29-10.29,10.29Zm0-14.08c-2.09,0-3.79,1.7-3.79,3.79s1.7,3.79,3.79,3.79,3.79-1.7,3.79-3.79-1.7-3.79-3.79-3.79Z"/>
</svg>