<?xml version="1.0" encoding="UTF-8"?>
<svg id="Layer_1" data-name="Layer 1" xmlns="http://www.w3.org/2000/svg" width="96.47" height="30" viewBox="0 0 96.47 30">
  <defs>
    <style>
      .cls-1 {
        fill: #5aa854;
      }

      .cls-2 {
        fill: #444;
      }

      .cls-3 {
        fill: #eb743b;
      }
    </style>
  </defs>
  <g>
    <polygon class="cls-1" points="13 1 1 8 1 22 13 29 13 1"/>
    <polygon class="cls-3" points="14 1 26 8 26 22 14 29 14 1"/>
  </g>
  <g>
    <path class="cls-1" d="m37.56,5.24l4.12,12.6,4.12-12.6h7.62v19.76h-5.77v-3.05l.58-10.57-4.7,13.62h-3.7l-4.7-13.61.59,10.55v3.05h-5.75V5.24h7.58Z"/>
    <path class="cls-3" d="m56.18,25V5.24h7.94c2.82,0,4.96.47,6.44,1.4,1.48.93,2.21,2.29,2.21,4.07,0,2.18-.98,3.63-2.93,4.35,1.05.26,1.88.77,2.47,1.54s.89,1.67.89,2.73c0,1.91-.65,3.33-1.96,4.26-1.31.92-3.34,1.4-6.1,1.42h-8.96Zm5.73-11.59h2.71c.87-.01,1.49-.17,1.86-.47s.55-.75.55-1.35c0-.71-.19-1.22-.57-1.51-.38-.29-.98-.44-1.79-.44h-2.76v3.77Zm0,3.58v3.6h3.02c.78,0,1.4-.16,1.85-.47s.68-.74.68-1.27c0-1.19-.7-1.81-2.09-1.86h-3.46Z"/>
    <path class="cls-2" d="m92.88,9.65h-6.29v15.35h-5.75v-15.35h-6.11v-4.41h18.15v4.41Z"/>
  </g>
</svg>