<?xml version="1.0" encoding="UTF-8"?><svg xmlns="http://www.w3.org/2000/svg" viewBox="0 0 27 30"><defs><style>.b{isolation:isolate;}.c{fill:#fffedb;}.d{fill:#353070;}.e{mix-blend-mode:multiply;opacity:.25;}.f{fill:#eb743b;}</style></defs><g class="b"><g id="a"><g><g><polygon class="d" points="13.04 1 1.1 7.85 1.1 22.32 13.04 29.17 13.04 1"/><g><g class="e"><path d="M9.72,19.95s-.1-.01-.14-.04c-.11-.08-.13-.23-.06-.34,.05-.08,.1-.16,.15-.25,.29-.58,.25-1.25-.1-1.79-.07-.11-.04-.26,.07-.33,.11-.07,.26-.04,.33,.07,.44,.68,.48,1.55,.13,2.27-.05,.11-.12,.21-.18,.31-.05,.07-.12,.1-.2,.1"/><path d="M10.83,20.53s-.1-.02-.14-.05c-.11-.08-.13-.23-.05-.34,.09-.12,.17-.26,.24-.39,.45-.9,.35-1.96-.25-2.77-.08-.11-.06-.26,.05-.34,.11-.08,.26-.06,.34,.05,.71,.95,.82,2.21,.3,3.27-.08,.16-.18,.32-.28,.47-.05,.06-.12,.1-.2,.1"/><path d="M8.63,19.34s-.08-.01-.12-.03c-.12-.07-.16-.21-.09-.33,.15-.27,.17-.59,.04-.87-.06-.12,0-.26,.12-.32,.12-.06,.26,0,.32,.12,.19,.42,.17,.91-.05,1.31-.04,.08-.13,.12-.21,.12"/></g><g><path class="f" d="M9.72,19.55s-.1-.01-.14-.04c-.11-.08-.13-.23-.06-.34,.05-.08,.1-.16,.15-.25,.29-.58,.25-1.25-.1-1.79-.07-.11-.04-.26,.07-.33,.11-.07,.26-.04,.33,.07,.44,.68,.48,1.55,.13,2.27-.05,.11-.12,.21-.18,.31-.05,.07-.12,.1-.2,.1"/><path class="f" d="M10.83,20.13s-.1-.02-.14-.05c-.11-.08-.13-.23-.05-.34,.09-.12,.17-.26,.24-.39,.45-.9,.35-1.96-.25-2.77-.08-.11-.06-.26,.05-.34,.11-.08,.26-.06,.34,.05,.71,.95,.82,2.21,.3,3.27-.08,.16-.18,.32-.28,.47-.05,.06-.12,.1-.2,.1"/><path class="f" d="M8.63,18.94s-.08-.01-.12-.03c-.12-.07-.16-.21-.09-.33,.15-.27,.17-.59,.04-.87-.06-.12,0-.26,.12-.32,.12-.06,.26,0,.32,.12,.19,.42,.17,.91-.05,1.31-.04,.08-.13,.12-.21,.12"/></g></g><g><g class="e"><path d="M12.18,8.49c-2.02,0-4.07,.73-5.35,1.91-1.38,1.27-2.1,3.25-2.07,5.6-.39,.06-.68,.39-.68,.79v3.62c0,.44,.36,.8,.8,.8h.41c.06,0,.12,0,.18-.02v.32c0,.44,.31,.8,.7,.8h.38c.39,0,.7-.36,.7-.8v-5.93c0-.44-.31-.8-.7-.8h-.38c-.34,0-.63,.28-.69,.66,.01-.37,.04-.73,.09-1.02,.23-1.45,.82-2.65,1.74-3.5,1.13-1.05,3.05-1.72,4.87-1.72,.21,0,.65,0,.86,.03v-.7c-.24-.02-.63-.03-.86-.03Zm-6.89,11.84c-.29,0-.53-.24-.53-.53v-2.4c0-.29,.24-.53,.53-.53h.18v3.46h-.18Z"/></g><path class="c" d="M12.18,8.09c-2.02,0-4.07,.73-5.35,1.91-1.38,1.27-2.1,3.25-2.07,5.6-.39,.06-.68,.39-.68,.79v3.62c0,.44,.36,.8,.8,.8h.41c.06,0,.12,0,.18-.02v.32c0,.44,.31,.8,.7,.8h.38c.39,0,.7-.36,.7-.8v-5.93c0-.44-.31-.8-.7-.8h-.38c-.34,0-.63,.28-.69,.66,.01-.37,.04-.73,.09-1.02,.23-1.45,.82-2.65,1.74-3.5,1.13-1.05,3.05-1.72,4.87-1.72,.21,0,.65,0,.86,.03v-.7c-.24-.02-.63-.03-.86-.03Zm-6.89,11.84c-.29,0-.53-.24-.53-.53v-2.4c0-.29,.24-.53,.53-.53h.18v3.46h-.18Z"/></g></g><polygon class="f" points="13.91 1.11 13.91 29.17 25.9 22.15 25.9 8.12 13.91 1.11"/><path class="c" d="M23.35,17.5c-.36-.58-.99-.92-1.67-.92-.19,0-.39,.03-.57,.09-.77-.91-1.7-1.4-2.51-1.65,.65-.5,1.23-1.1,1.73-1.8,.51,.12,1.06,.04,1.51-.24,.92-.59,1.2-1.81,.62-2.73-.37-.58-.99-.92-1.67-.92-.38,0-.74,.11-1.06,.31-.92,.58-1.2,1.81-.62,2.73,.04,.06,.08,.12,.12,.17-.73,1.01-1.67,1.77-2.78,2.28h0c-1.03,.47-1.64,.62-2.52,.62v1.46c1.17,0,1.73-.33,2.93-.85,.4,0,2.03,.05,3.21,1.39-.44,.63-.48,1.49-.05,2.18,.36,.58,.99,.92,1.67,.92,.37,0,.74-.11,1.05-.31,.45-.28,.76-.73,.88-1.24,.12-.51,.02-1.04-.26-1.49Zm-2.99-6.84c.12-.08,.26-.12,.41-.12,.26,0,.51,.13,.65,.36,.23,.35,.12,.83-.24,1.06-.12,.08-.26,.12-.41,.12s-.28-.04-.41-.11c-.1-.06-.18-.14-.24-.24-.23-.36-.12-.83,.24-1.06Zm2.06,8.07c-.05,.2-.16,.37-.34,.48-.12,.08-.26,.12-.41,.12-.26,0-.51-.13-.65-.36-.22-.34-.13-.8,.2-1.03l.03-.02c.35-.22,.84-.11,1.05,.24,.11,.17,.15,.38,.1,.57Z"/></g></g></g></svg>