<?xml version="1.0" encoding="UTF-8"?><svg id="a" xmlns="http://www.w3.org/2000/svg" viewBox="0 0 27 30"><defs><style>.k{fill:#fffedb;}.l{fill:#b50437;}.m{fill:#8e0324;}.n{fill:none;}.o{fill:#eb743b;}</style></defs><g/><g/><polygon class="l" points="13 .87 1.04 7.68 1.04 22.06 13 28.87 13 .87"/><polygon class="o" points="13.88 .87 13.88 28.87 25.84 21.87 25.84 7.87 13.88 .87"/><path class="k" d="M23.29,17.23c-.36-.57-.99-.92-1.67-.92-.19,0-.39,.03-.57,.09-.77-.91-1.7-1.39-2.51-1.64,.65-.5,1.23-1.1,1.72-1.79,.51,.11,1.06,.04,1.51-.24,.92-.59,1.2-1.81,.61-2.73-.36-.58-.99-.92-1.67-.92-.37,0-.74,.11-1.05,.31-.92,.58-1.19,1.8-.61,2.72,.04,.06,.08,.12,.12,.17-.73,1-1.66,1.77-2.78,2.27h0c-1.03,.47-1.64,.62-2.52,.62v1.46c1.17,0,1.73-.33,2.92-.85,.4,0,2.03,.05,3.21,1.38-.44,.63-.48,1.49-.05,2.18,.36,.57,.99,.92,1.67,.92,.37,0,.74-.11,1.05-.3,.45-.28,.76-.72,.87-1.24,.12-.51,.02-1.04-.26-1.48Zm-2.98-6.83c.12-.08,.26-.12,.41-.12,.26,0,.51,.13,.65,.36,.23,.35,.12,.83-.24,1.05-.12,.08-.26,.12-.4,.12s-.28-.04-.41-.11c-.1-.06-.18-.14-.24-.24-.23-.36-.12-.83,.24-1.06Zm2.06,8.05c-.05,.2-.16,.37-.34,.48-.12,.08-.26,.12-.41,.12-.26,0-.51-.13-.64-.36-.22-.34-.13-.8,.2-1.03l.03-.02c.35-.22,.84-.11,1.05,.24,.11,.17,.14,.38,.1,.57Z"/><polygon class="k" points="2.93 10.16 2.87 10.46 2.8 10.62 2.69 10.79 2.57 10.94 2.42 11.08 2.26 11.19 2.1 11.27 1.9 11.35 1.78 11.37 1.78 12.34 1.87 12.33 2.19 12.26 2.52 12.13 2.79 11.99 3.05 11.8 3.29 11.58 3.49 11.32 3.66 11.04 3.79 10.74 3.86 10.4 3.99 9.93 3.06 9.68 2.93 10.16"/><polygon class="m" points="1.78 8.89 1.95 8.92 2.14 8.98 2.32 9.06 2.48 9.16 2.64 9.29 2.77 9.44 2.88 9.6 2.97 9.78 3.03 9.96 3.07 10.15 3.08 10.35 3.06 10.54 3.02 10.73 2.95 10.92 2.86 11.09 2.74 11.25 2.6 11.4 2.76 11.55 2.76 11.55 2.76 11.56 2.92 11.7 2.92 11.7 3.09 11.86 3.3 12.05 3.5 11.84 3.69 11.57 3.84 11.28 3.95 10.97 4.02 10.65 4.04 10.32 4.02 10.01 3.95 9.69 3.84 9.38 3.69 9.09 3.51 8.82 3.28 8.58 3.03 8.38 2.75 8.21 2.46 8.07 2.11 7.97 2 7.96 1.78 8.09 1.78 8.89"/><polygon class="m" points="12.75 14.38 10.54 14.39 10.47 14.39 10.4 14.39 10.34 14.39 10.28 14.4 10.22 14.41 10.17 14.42 10.12 14.42 10.06 14.43 10.02 14.44 9.62 14.53 9.58 14.54 9.55 14.55 9.51 14.56 9.48 14.57 9.45 14.58 9.42 14.58 9.4 14.59 9.35 14.61 9.28 14.64 9.18 14.67 9.09 14.71 9 14.75 8.92 14.8 8.65 14.95 8.58 14.99 8.52 15.03 8.45 15.08 8.4 15.12 8.86 15.74 8.9 15.71 8.94 15.68 8.99 15.65 9.04 15.62 9.28 15.48 9.34 15.45 9.4 15.42 9.47 15.39 9.54 15.36 9.59 15.34 9.64 15.33 9.65 15.32 9.68 15.32 9.7 15.31 9.72 15.31 9.74 15.3 9.77 15.29 9.79 15.29 10.17 15.2 10.21 15.19 10.24 15.19 10.28 15.18 10.32 15.18 10.36 15.17 10.4 15.17 10.44 15.16 10.49 15.16 10.54 15.16 12.75 15.16 12.75 14.38"/><polygon class="k" points="12.75 13.51 10.54 13.51 10.47 13.51 10.4 13.52 10.34 13.52 10.28 13.53 10.22 13.53 10.17 13.54 10.12 13.55 10.06 13.56 10.02 13.57 9.62 13.66 9.58 13.67 9.55 13.67 9.51 13.68 9.48 13.69 9.45 13.7 9.42 13.71 9.4 13.72 9.35 13.73 9.28 13.76 9.18 13.8 9.09 13.84 9 13.88 8.92 13.92 8.65 14.07 8.58 14.12 8.52 14.16 8.45 14.2 8.4 14.24 8.86 14.86 8.9 14.83 8.94 14.8 8.99 14.78 9.04 14.75 9.28 14.61 9.34 14.58 9.4 14.55 9.47 14.52 9.54 14.49 9.59 14.47 9.64 14.46 9.65 14.45 9.68 14.44 9.7 14.44 9.72 14.43 9.74 14.42 9.77 14.42 9.79 14.41 10.17 14.33 10.21 14.32 10.24 14.31 10.28 14.31 10.32 14.3 10.36 14.3 10.4 14.29 10.44 14.29 10.49 14.29 10.54 14.28 12.75 14.28 12.75 13.51"/><g><g id="b"><polyline class="m" points="8.26 16.4 8.27 16.39 8.28 16.38 8.28 16.36 8.29 16.35 8.3 16.33 8.31 16.31 8.32 16.3 8.33 16.28 8.34 16.26 8.36 16.24 8.37 16.22 8.38 16.21 8.4 16.18 8.41 16.16 8.43 16.14 8.45 16.12 8.47 16.1 8.49 16.07 8.51 16.05 8.53 16.02 8.55 16 8.58 15.97 8.61 15.95 8.63 15.92 8.66 15.89 8.7 15.87 8.73 15.84 8.77 15.81 8.81 15.77 8.86 15.74 8.4 15.12 8.35 15.15 8.3 15.19 8.25 15.23 8.2 15.27 8.15 15.31 8.11 15.35 8.07 15.38 8.03 15.42 7.99 15.46 7.96 15.5 7.93 15.53 7.9 15.56 7.87 15.6 7.84 15.63 7.82 15.66 7.79 15.69 7.77 15.72 7.75 15.75 7.73 15.78 7.71 15.81 7.69 15.83 7.68 15.86 7.66 15.89 7.65 15.91 7.63 15.93 7.62 15.95 7.61 15.98 7.59 16 7.58 16.02 7.57 16.04"/></g><g id="c"><polyline class="k" points="8.26 15.53 8.27 15.51 8.28 15.5 8.28 15.49 8.29 15.47 8.3 15.46 8.31 15.44 8.32 15.42 8.33 15.41 8.34 15.39 8.36 15.37 8.37 15.35 8.38 15.33 8.4 15.31 8.41 15.29 8.43 15.27 8.45 15.25 8.47 15.22 8.49 15.2 8.51 15.17 8.53 15.15 8.55 15.12 8.58 15.1 8.61 15.07 8.63 15.05 8.66 15.02 8.7 14.99 8.73 14.96 8.77 14.93 8.81 14.9 8.86 14.86 8.4 14.24 8.35 14.28 8.3 14.31 8.25 14.35 8.2 14.39 8.15 14.43 8.11 14.47 8.07 14.51 8.03 14.55 7.99 14.58 7.96 14.62 7.93 14.66 7.9 14.69 7.87 14.72 7.84 14.76 7.82 14.79 7.79 14.82 7.77 14.85 7.75 14.88 7.73 14.91 7.71 14.93 7.69 14.96 7.68 14.99 7.66 15.01 7.65 15.03 7.63 15.06 7.62 15.08 7.61 15.1 7.59 15.12 7.58 15.14 7.57 15.16"/></g></g><polygon class="m" points="7.36 16.16 7.23 16.3 7.08 16.43 6.91 16.53 6.73 16.61 6.54 16.67 6.35 16.7 6.16 16.71 5.95 16.68 5.77 16.64 5.59 16.57 1.78 14.5 1.78 15.58 5.19 17.44 5.52 17.56 5.81 17.63 6.15 17.66 6.46 17.65 6.79 17.6 7.1 17.5 7.39 17.36 7.67 17.19 7.92 16.97 8.13 16.73 8.46 16.25 7.59 15.83 7.36 16.16"/><polygon class="k" points="7.36 15.28 7.23 15.43 7.08 15.55 6.91 15.66 6.73 15.74 6.54 15.8 6.35 15.83 6.16 15.83 5.95 15.81 5.77 15.77 5.59 15.69 1.78 13.62 1.78 14.71 5.19 16.56 5.52 16.69 5.81 16.76 6.15 16.79 6.46 16.78 6.79 16.72 7.1 16.63 7.39 16.49 7.67 16.31 7.92 16.1 8.13 15.86 8.46 15.38 7.59 14.96 7.36 15.28"/><path class="m" d="M5.83,20.75c-.8-.11-1.26,.31-1.63,.65-.16,.15-.32,.3-.49,.38l-.19,.1-.17,.06-.19,.04-.21,.02h-.02l1.17,.66,.13-.07c.37-.18,.54-.37,.68-.52,.18-.2,.29-.32,.92-.32h.26l-.05-.97-.18-.02Z"/><path class="k" d="M5.83,19.88c-.8-.11-1.26,.31-1.63,.65-.16,.15-.32,.3-.49,.38l-.19,.1-.17,.06-.19,.04-.21,.02h-.18l-.21-.05-.19-.06-.16-.08-.18-.12-.15-.13-.1-.12v.79l1.28,.73,.25-.02,.32-.07,.31-.11,.28-.15c.37-.18,.54-.37,.68-.52,.18-.2,.29-.32,.92-.32h.26l-.05-.97-.18-.02Z"/><polygon class="m" points="7.46 22.3 7.33 22 7.17 21.72 6.97 21.46 6.73 21.23 6.47 21.04 6.18 20.88 5.88 20.77 5.72 21.18 5.72 21.18 5.69 21.25 5.69 21.25 5.54 21.67 5.75 21.74 5.91 21.82 6.08 21.94 6.23 22.07 6.35 22.23 6.45 22.39 6.53 22.57 6.59 22.76 6.62 22.95 6.62 23.15 6.6 23.34 6.55 23.53 6.47 23.71 6.37 23.88 6.33 23.94 7.17 24.41 7.3 24.19 7.44 23.9 7.53 23.58 7.58 23.26 7.58 22.94 7.54 22.61 7.46 22.3"/><polygon class="k" points="7.46 21.42 7.33 21.12 7.17 20.84 6.97 20.59 6.73 20.36 6.47 20.17 6.18 20.01 5.88 19.89 5.72 20.3 5.72 20.3 5.69 20.38 5.69 20.38 5.54 20.79 5.75 20.86 5.91 20.94 6.08 21.07 6.23 21.2 6.35 21.35 6.45 21.52 6.53 21.7 6.59 21.88 6.62 22.08 6.62 22.27 6.6 22.47 6.55 22.66 6.47 22.84 6.37 23.01 6.25 23.16 6.11 23.3 5.95 23.41 5.77 23.51 5.65 23.55 6.62 24.1 6.68 24.06 6.92 23.84 7.13 23.59 7.3 23.32 7.44 23.02 7.53 22.71 7.58 22.39 7.58 22.06 7.54 21.74 7.46 21.42"/><polygon class="m" points="3.71 15.23 3.62 14.92 3.49 14.62 3.32 14.34 3.12 14.09 2.86 13.84 1.78 13.07 1.78 14.25 2.28 14.61 2.43 14.75 2.55 14.9 2.65 15.07 2.72 15.25 2.77 15.44 2.8 15.64 2.79 15.83 2.77 16.02 2.71 16.21 2.63 16.39 2.53 16.56 2.4 16.71 2.26 16.84 2.11 16.95 1.78 17.13 1.78 18.21 2.62 17.76 2.89 17.57 3.12 17.34 3.33 17.09 3.5 16.81 3.62 16.51 3.71 16.2 3.76 15.86 3.75 15.55 3.71 15.23"/><polygon class="k" points="3.71 14.35 3.62 14.04 3.49 13.74 3.32 13.46 3.12 13.21 2.86 12.97 1.78 12.2 1.78 13.37 2.28 13.74 2.43 13.87 2.55 14.03 2.65 14.2 2.72 14.38 2.77 14.57 2.8 14.76 2.79 14.96 2.77 15.15 2.71 15.34 2.63 15.52 2.53 15.68 2.4 15.83 2.26 15.97 2.11 16.08 1.78 16.25 1.78 17.33 2.62 16.88 2.89 16.69 3.12 16.47 3.33 16.22 3.5 15.94 3.62 15.64 3.71 15.32 3.76 14.99 3.75 14.68 3.71 14.35"/><polygon class="m" points="7.78 24.05 7.61 23.77 7.4 23.52 7.16 23.3 6.9 23.11 6.61 22.96 6.3 22.85 5.98 22.78 5.64 22.75 5.33 22.77 5.01 22.83 4.7 22.93 4.62 22.97 6.03 23.77 6.05 23.77 6.23 23.84 6.41 23.93 6.57 24.05 6.62 24.1 8.19 24.99 7.78 24.05"/><polygon class="k" points="7.78 23.18 7.61 22.9 7.4 22.65 7.16 22.42 6.9 22.23 6.61 22.08 6.3 21.97 5.98 21.9 5.64 21.88 5.33 21.89 5.01 21.96 4.7 22.06 4.4 22.2 4.13 22.38 3.92 22.57 4.82 23.08 4.9 23.02 5.08 22.94 5.25 22.88 5.46 22.84 5.64 22.83 5.86 22.85 6.05 22.9 6.23 22.97 6.41 23.06 6.57 23.18 6.71 23.31 6.83 23.47 6.93 23.62 7.3 24.49 8.69 25.28 7.78 23.18"/><polygon class="m" points="8.91 20.18 8.81 19.9 8.65 19.62 8.46 19.35 8.24 19.12 7.98 18.91 7.7 18.75 7.4 18.62 1.78 17.16 1.78 18.14 7.03 19.51 7.23 19.58 7.4 19.68 7.56 19.8 7.7 19.94 7.82 20.09 7.92 20.26 7.99 20.45 9.23 25.58 10.36 26.23 8.91 20.18"/><polygon class="k" points="8.91 19.31 8.81 19.03 8.65 18.74 8.46 18.48 8.24 18.24 7.98 18.04 7.7 17.87 7.4 17.74 1.78 16.28 1.78 17.27 7.03 18.63 7.23 18.71 7.4 18.81 7.56 18.92 7.7 19.06 7.82 19.22 7.92 19.39 7.99 19.57 9.43 25.57 9.45 25.71 10.38 26.24 10.4 26.13 10.42 25.79 10.39 25.48 8.91 19.31"/><polygon class="m" points="7.62 13.67 7.49 13.37 7.33 13.09 7.13 12.83 6.9 12.6 6.63 12.41 6.35 12.25 6.04 12.13 3.43 11.54 3.23 11.48 3.06 11.41 2.88 11.3 2.72 11.18 2.59 11.03 2.48 10.87 2.38 10.7 2.32 10.52 2.28 10.33 2.26 10.13 2.27 9.94 2.31 9.74 2.37 9.56 2.46 9.38 2.57 9.22 2.71 9.08 2.84 8.96 3.02 8.84 3.19 8.77 3.39 8.71 3.59 8.67 3.77 8.67 3.98 8.69 4.16 8.73 4.36 8.81 4.53 8.91 4.69 9.03 4.83 9.16 5.07 9.48 5.91 9.02 5.59 8.58 5.36 8.34 5.11 8.14 4.83 7.97 4.53 7.85 4.21 7.76 3.86 7.71 3.56 7.72 3.23 7.76 2.92 7.85 2.62 7.98 2.34 8.14 2.08 8.35 1.86 8.58 1.78 8.69 1.78 11.55 1.81 11.59 2.03 11.84 2.27 12.05 2.55 12.22 2.85 12.36 3.17 12.46 5.71 13.03 5.91 13.1 6.08 13.19 6.24 13.31 6.39 13.44 6.51 13.59 6.61 13.76 6.69 13.94 6.75 14.13 6.78 14.32 6.78 14.52 6.75 14.71 6.7 14.9 6.63 15.08 6.53 15.25 6.4 15.4 6.26 15.54 6.1 15.65 5.94 15.74 5.74 15.82 5.35 15.91 5.43 16.86 5.96 16.75 6.27 16.64 6.56 16.49 6.83 16.31 7.07 16.09 7.28 15.84 7.46 15.56 7.59 15.27 7.68 14.95 7.73 14.63 7.74 14.29 7.7 13.98 7.62 13.67"/><polygon class="k" points="1.78 10.67 1.81 10.72 2.03 10.96 2.27 11.17 2.55 11.35 2.85 11.49 3.17 11.59 5.71 12.16 5.91 12.23 6.08 12.32 6.24 12.43 6.39 12.57 6.51 12.72 6.61 12.88 6.69 13.06 6.75 13.25 6.78 13.45 6.78 13.64 6.75 13.83 6.7 14.02 6.63 14.2 6.53 14.37 6.4 14.53 6.26 14.66 6.1 14.78 5.94 14.87 5.74 14.94 5.35 15.03 5.43 15.99 5.96 15.87 6.27 15.77 6.56 15.62 6.83 15.43 7.07 15.21 7.28 14.96 7.46 14.69 7.59 14.39 7.68 14.08 7.73 13.76 7.74 13.42 7.7 13.11 7.62 12.79 7.49 12.49 7.33 12.21 7.13 11.96 6.9 11.73 6.63 11.53 6.35 11.38 6.04 11.26 3.43 10.67 3.23 10.61 3.06 10.54 2.88 10.43 2.72 10.3 2.59 10.16 2.48 10 2.38 9.83 2.32 9.64 2.28 9.45 2.26 9.26 2.27 9.06 2.31 8.87 2.37 8.68 2.46 8.51 2.57 8.35 2.71 8.2 2.84 8.08 3.02 7.97 3.19 7.89 3.39 7.83 3.59 7.8 3.77 7.79 3.98 7.82 4.16 7.86 4.36 7.94 4.53 8.03 4.69 8.15 4.83 8.29 5.07 8.61 5.91 8.14 5.59 7.7 5.36 7.47 5.11 7.27 4.83 7.1 4.53 6.97 4.21 6.88 3.94 6.85 1.78 8.09 1.78 10.67"/><path class="m" d="M2.48,7.89c.5,.87,1.18,.9,1.2,.9h0l.31,.03,.34-.02,.29-.05,.31-.1,.3-.14,.27-.18,.25-.21,.22-.24,.46-.7,.13-.15,.15-.13,.16-.11,.18-.09,.17-.06,.21-.04h.4l.18,.05,.2,.07,.17,.09,.16,.12,.14,.14,1.03,1.3,.11,.18,.08,.18,.06,.2,.42-.12h0l.08-.02h0l.2-.06h0l.21-.06-.08-.28-.13-.3-.18-.3-1.11-1.39-.24-.23-.27-.19-.29-.15-.31-.11-.35-.07-.31-.02-.31,.02-.32,.06-.31,.1-.29,.14-.27,.18-.24,.22-.23,.27-.39,.61-.14,.16-.15,.13-.16,.11-.18,.09-.17,.06-.21,.04h-.38c-.07-.03-.33-.14-.57-.47-.03-.04-.05-.07-.08-.1l-.8,.46c.02,.05,.05,.1,.08,.16Z"/><path class="k" d="M5.24,6.37l-.14,.16-.15,.13-.16,.11-.18,.09-.17,.06-.21,.04h-.38s-.04-.02-.07-.03l-.95,.54c.42,.41,.83,.43,.85,.43h0l.31,.03,.34-.02,.29-.05,.31-.1,.3-.14,.27-.18,.25-.21,.22-.24,.46-.7,.13-.15,.15-.13,.16-.11,.18-.09,.17-.06,.21-.04h.4l.18,.05,.2,.07,.17,.09,.16,.12,.14,.14,1.03,1.3,.11,.18,.08,.18,.06,.2,.42-.12h0l.08-.02h0l.2-.06h0l.21-.06-.08-.28-.13-.3-.18-.3-1.11-1.39-.24-.23-.27-.19-.29-.15-.31-.11-.35-.07-.31-.02h0l-2.1,1.2-.26,.41Z"/><polygon class="m" points="7.69 4.71 6.57 7.67 4.86 11.76 5.27 11.92 5.27 11.92 5.55 12.04 5.55 12.04 5.75 12.12 7.46 8.03 9.01 3.96 7.69 4.71"/><polygon class="k" points="7.27 4.96 6.57 6.79 4.86 10.88 5.27 11.05 5.27 11.05 5.55 11.16 5.55 11.16 5.75 11.25 7.46 7.15 8.58 4.21 7.27 4.96"/><g id="d"><g id="e"><polyline class="m" points="6.07 20.7 6.35 20.6 6.61 20.45 6.85 20.27 7.06 20.07 7.24 19.83 7.39 19.57 7.5 19.3 7.57 19.01 7.61 18.72 7.6 18.42 7.55 18.13 7.47 17.85 7.35 17.58 7.19 17.33 7 17.1 6.77 16.91 6.53 16.74 5.39 16.16 5.21 16.03 5.04 15.88 4.89 15.71 4.77 15.52 4.68 15.31 4.61 15.1 4.57 14.87 4.57 14.65 4.59 14.42 4.65 14.21 5.45 12.28 5.55 12.04 5.07 11.84 4.97 12.08 4.16 14.01 4.09 14.29 4.05 14.59 4.05 14.88 4.09 15.17 4.17 15.46 4.29 15.73 4.44 15.98 4.63 16.21 4.85 16.41 5.09 16.58 6.29 17.2 6.47 17.33 6.64 17.49 6.78 17.66 6.9 17.85 6.99 18.06 7.05 18.28 7.08 18.5 7.08 18.73 7.05 18.95 6.99 19.17 6.9 19.38 6.79 19.57 6.65 19.75 6.48 19.9 6.3 20.03 6.1 20.14 5.88 20.22"/><polygon class="m" points="6.15 20.91 5.99 20.5 6.26 20.4 6.49 20.27 6.7 20.11 6.9 19.92 7.06 19.71 7.19 19.48 7.29 19.23 7.36 18.97 7.39 18.71 7.38 18.44 7.34 18.18 7.26 17.93 7.15 17.69 7.01 17.46 6.84 17.26 6.64 17.08 6.41 16.92 5.29 16.35 5.06 16.19 4.87 16.02 4.71 15.82 4.57 15.61 4.47 15.38 4.39 15.13 4.35 14.88 4.35 14.64 4.38 14.37 4.45 14.12 5.26 12.16 5.18 12.13 4.37 14.09 4.3 14.33 4.27 14.6 4.27 14.86 4.3 15.13 4.38 15.38 4.48 15.63 4.62 15.85 4.79 16.06 4.99 16.24 5.21 16.4 6.42 17.02 6.62 17.17 6.81 17.35 6.97 17.55 7.1 17.77 7.2 18 7.27 18.25 7.3 18.5 7.3 18.74 7.26 19.01 7.19 19.25 7.09 19.49 6.96 19.71 6.8 19.9 6.61 20.08 6.4 20.23 6.17 20.34 5.96 20.42 5.81 20.01 6.01 19.94 6.18 19.85 6.34 19.73 6.48 19.6 6.61 19.44 6.71 19.28 6.79 19.1 6.84 18.91 6.86 18.71 6.86 18.52 6.84 18.32 6.78 18.14 6.7 17.96 6.6 17.79 6.48 17.64 6.33 17.5 6.17 17.39 4.97 16.76 4.7 16.57 4.46 16.35 4.26 16.1 4.09 15.82 3.96 15.52 3.87 15.2 3.83 14.88 3.83 14.57 3.87 14.23 3.95 13.95 4.95 11.56 5.84 11.92 4.86 14.27 4.81 14.46 4.79 14.66 4.79 14.85 4.82 15.05 4.88 15.23 4.96 15.41 5.07 15.58 5.2 15.73 5.34 15.86 5.52 15.98 6.63 16.54 6.92 16.74 7.16 16.96 7.37 17.21 7.54 17.49 7.68 17.79 7.77 18.1 7.82 18.42 7.83 18.73 7.79 19.07 7.7 19.38 7.58 19.68 7.41 19.96 7.21 20.22 6.98 20.45 6.72 20.64 6.43 20.8 6.15 20.91"/></g><g id="f"><polyline class="k" points="6.07 19.83 6.35 19.72 6.61 19.58 6.85 19.4 7.06 19.19 7.24 18.96 7.39 18.7 7.5 18.43 7.57 18.14 7.61 17.85 7.6 17.55 7.55 17.26 7.47 16.97 7.35 16.71 7.19 16.46 7 16.23 6.77 16.03 6.53 15.86 5.39 15.28 5.21 15.16 5.04 15 4.89 14.83 4.77 14.64 4.68 14.44 4.61 14.22 4.57 14 4.57 13.77 4.59 13.55 4.65 13.33 5.45 11.41 5.55 11.16 5.07 10.97 4.97 11.21 4.16 13.13 4.09 13.42 4.05 13.71 4.05 14.01 4.09 14.3 4.17 14.58 4.29 14.85 4.44 15.11 4.63 15.34 4.85 15.54 5.09 15.71 6.29 16.33 6.47 16.46 6.64 16.61 6.78 16.79 6.9 16.98 6.99 17.19 7.05 17.4 7.08 17.63 7.08 17.85 7.05 18.08 6.99 18.29 6.9 18.5 6.79 18.69 6.65 18.87 6.48 19.03 6.3 19.16 6.1 19.26 5.88 19.34"/><polygon class="k" points="6.15 20.03 5.99 19.63 6.26 19.52 6.49 19.39 6.7 19.23 6.9 19.04 7.06 18.83 7.19 18.6 7.29 18.36 7.36 18.1 7.39 17.83 7.38 17.57 7.34 17.31 7.26 17.05 7.15 16.81 7.01 16.59 6.84 16.38 6.64 16.2 6.41 16.04 5.29 15.48 5.06 15.32 4.87 15.15 4.71 14.95 4.57 14.73 4.47 14.5 4.39 14.26 4.35 14 4.35 13.76 4.38 13.5 4.45 13.25 5.26 11.28 5.18 11.25 4.37 13.22 4.3 13.46 4.27 13.72 4.27 13.99 4.3 14.25 4.38 14.51 4.48 14.75 4.62 14.98 4.79 15.19 4.99 15.37 5.21 15.52 6.42 16.15 6.62 16.3 6.81 16.47 6.97 16.67 7.1 16.89 7.2 17.13 7.27 17.37 7.3 17.63 7.3 17.87 7.26 18.13 7.19 18.38 7.09 18.61 6.96 18.83 6.8 19.03 6.61 19.2 6.4 19.35 6.17 19.47 5.96 19.55 5.81 19.14 6.01 19.06 6.18 18.97 6.34 18.86 6.48 18.72 6.61 18.57 6.71 18.4 6.79 18.22 6.84 18.03 6.86 17.84 6.86 17.64 6.84 17.45 6.78 17.26 6.7 17.08 6.6 16.91 6.48 16.76 6.33 16.63 6.17 16.51 4.97 15.89 4.7 15.7 4.46 15.47 4.26 15.22 4.09 14.94 3.96 14.64 3.87 14.33 3.83 14.01 3.83 13.7 3.87 13.36 3.95 13.07 4.95 10.68 5.84 11.05 4.86 13.4 4.81 13.59 4.79 13.78 4.79 13.98 4.82 14.17 4.88 14.36 4.96 14.54 5.07 14.7 5.2 14.85 5.34 14.98 5.52 15.1 6.63 15.67 6.92 15.87 7.16 16.09 7.37 16.34 7.54 16.61 7.68 16.91 7.77 17.22 7.82 17.54 7.83 17.86 7.79 18.19 7.7 18.51 7.58 18.81 7.41 19.09 7.21 19.35 6.98 19.57 6.72 19.77 6.43 19.92 6.15 20.03"/></g></g><path class="m" d="M6.09,20.14c-.02-.06-.07-.1-.13-.12-.06-.02-.12-.02-.18,0-.08,.04-.26,.06-.37,.05l-3.64-.68v.97l3.57,.66s.06,0,.14,0c.17,0,.46-.02,.69-.14,.1-.05,.15-.17,.11-.27l-.19-.49Z"/><path class="k" d="M6.09,19.26c-.02-.06-.07-.1-.13-.12-.06-.02-.12-.02-.18,0-.08,.04-.26,.06-.37,.05l-3.64-.68v.97l3.57,.66s.06,0,.14,0c.17,0,.46-.02,.69-.14,.1-.05,.15-.17,.11-.27l-.19-.49Z"/><g id="g"><g><polyline class="m" points="3.27 19.23 3.55 19.14 3.83 19.02 4.08 18.86 4.31 18.67 4.51 18.45 4.67 18.21 4.81 17.94 4.91 17.66 5.43 15.15 5.5 14.93 5.61 14.73 5.73 14.55 8.07 12.03 8.24 11.79 8.37 11.52 8.47 11.24 8.53 10.96 8.55 10.66 8.52 10.37 8.46 10.08 8.36 9.8 8.23 9.54 8.05 9.29 7.85 9.08 7.62 8.89 7.37 8.74 7.09 8.62 6.81 8.53 6.51 8.49 6.22 8.49 5.92 8.52 5.63 8.6 5.83 9.08 6.05 9.03 6.28 9 6.5 9.01 6.73 9.05 6.94 9.12 7.15 9.21 7.34 9.33 7.51 9.48 7.67 9.65 7.79 9.83 7.89 10.03 7.97 10.25 8.01 10.47 8.02 10.69 8 10.92 7.96 11.14 7.88 11.35 7.77 11.55 7.64 11.73 5.35 14.19 5.17 14.44 5.04 14.7 4.93 14.97 4.39 17.56 4.31 17.77 4.21 17.97 4.08 18.15 3.92 18.32 3.74 18.46 3.55 18.58 3.34 18.66 3.12 18.73"/><polygon class="m" points="3.33 19.44 3.21 19.02 3.48 18.94 3.72 18.82 3.95 18.68 4.15 18.51 4.33 18.31 4.49 18.1 4.61 17.86 4.7 17.59 5.22 15.1 5.31 14.84 5.43 14.61 5.57 14.4 7.9 11.89 8.05 11.68 8.17 11.44 8.26 11.19 8.31 10.93 8.33 10.66 8.31 10.4 8.25 10.14 8.16 9.89 8.04 9.65 7.88 9.43 7.7 9.24 7.49 9.07 7.27 8.93 7.02 8.82 6.75 8.74 6.5 8.71 6.21 8.71 5.93 8.75 5.96 8.83 6.03 8.81 6.25 8.79 6.54 8.8 6.79 8.84 7.04 8.92 7.27 9.03 7.48 9.16 7.68 9.33 7.85 9.52 7.99 9.73 8.1 9.96 8.18 10.21 8.23 10.46 8.24 10.7 8.22 10.97 8.16 11.21 8.07 11.45 7.96 11.65 7.82 11.86 5.51 14.34 5.36 14.55 5.24 14.79 5.15 15.04 4.6 17.63 4.51 17.87 4.39 18.1 4.23 18.3 4.06 18.49 3.86 18.65 3.64 18.78 3.43 18.87 3.18 18.94 3.06 18.52 3.28 18.45 3.45 18.38 3.62 18.28 3.77 18.15 3.91 18.01 4.02 17.85 4.11 17.68 4.18 17.5 4.73 14.9 4.84 14.59 5 14.31 5.17 14.07 7.48 11.58 7.59 11.42 7.68 11.26 7.74 11.08 7.79 10.89 7.8 10.69 7.79 10.5 7.75 10.3 7.69 10.12 7.6 9.94 7.49 9.78 7.36 9.64 7.21 9.51 7.05 9.4 6.87 9.32 6.68 9.26 6.48 9.23 6.27 9.22 6.09 9.24 5.7 9.34 5.33 8.45 5.89 8.31 6.19 8.27 6.55 8.27 6.84 8.32 7.18 8.42 7.48 8.55 7.76 8.72 8.01 8.93 8.23 9.17 8.42 9.43 8.57 9.72 8.68 10.03 8.74 10.35 8.77 10.66 8.74 11 8.68 11.32 8.57 11.62 8.42 11.91 8.23 12.18 5.9 14.68 5.79 14.85 5.71 15.02 5.64 15.22 5.12 17.71 5 18.04 4.85 18.33 4.67 18.6 4.45 18.84 4.19 19.05 3.92 19.22 3.62 19.35 3.33 19.44"/></g><g><polyline class="k" points="3.27 18.35 3.55 18.27 3.83 18.14 4.08 17.98 4.31 17.79 4.51 17.58 4.67 17.33 4.81 17.07 4.91 16.79 5.43 14.27 5.5 14.06 5.61 13.86 5.73 13.67 8.07 11.16 8.24 10.91 8.37 10.65 8.47 10.37 8.53 10.08 8.55 9.79 8.52 9.49 8.46 9.2 8.36 8.92 8.23 8.66 8.05 8.42 7.85 8.2 7.62 8.02 7.37 7.86 7.09 7.74 6.81 7.66 6.51 7.62 6.22 7.61 5.92 7.65 5.63 7.72 5.83 8.21 6.05 8.15 6.28 8.13 6.5 8.14 6.73 8.17 6.94 8.24 7.15 8.34 7.34 8.46 7.51 8.6 7.67 8.77 7.79 8.96 7.89 9.16 7.97 9.37 8.01 9.59 8.02 9.82 8 10.04 7.96 10.26 7.88 10.48 7.77 10.68 7.64 10.86 5.35 13.32 5.17 13.56 5.04 13.82 4.93 14.1 4.39 16.68 4.31 16.89 4.21 17.09 4.08 17.28 3.92 17.44 3.74 17.58 3.55 17.7 3.34 17.79 3.12 17.85"/><polygon class="k" points="3.33 18.56 3.21 18.14 3.48 18.06 3.72 17.95 3.95 17.81 4.15 17.64 4.33 17.44 4.49 17.22 4.61 16.98 4.7 16.72 5.22 14.23 5.31 13.96 5.43 13.73 5.57 13.52 7.9 11.02 8.05 10.8 8.17 10.56 8.26 10.31 8.31 10.05 8.33 9.79 8.31 9.52 8.25 9.26 8.16 9.01 8.04 8.78 7.88 8.56 7.7 8.36 7.49 8.19 7.27 8.06 7.02 7.95 6.75 7.87 6.5 7.83 6.21 7.83 5.93 7.87 5.96 7.95 6.03 7.94 6.25 7.91 6.54 7.92 6.79 7.96 7.04 8.04 7.27 8.15 7.48 8.29 7.68 8.46 7.85 8.65 7.99 8.86 8.1 9.09 8.18 9.33 8.23 9.58 8.24 9.82 8.22 10.09 8.16 10.34 8.07 10.58 7.96 10.78 7.82 10.99 5.51 13.47 5.36 13.67 5.24 13.91 5.15 14.16 4.6 16.76 4.51 17 4.39 17.22 4.23 17.43 4.06 17.61 3.86 17.77 3.64 17.9 3.43 17.99 3.18 18.06 3.06 17.64 3.28 17.58 3.45 17.51 3.62 17.4 3.77 17.28 3.91 17.14 4.02 16.98 4.11 16.81 4.18 16.62 4.73 14.02 4.84 13.72 5 13.43 5.17 13.19 7.48 10.71 7.59 10.55 7.68 10.39 7.74 10.2 7.79 10.01 7.8 9.82 7.79 9.62 7.75 9.43 7.69 9.24 7.6 9.07 7.49 8.91 7.36 8.76 7.21 8.63 7.05 8.53 6.87 8.45 6.68 8.39 6.48 8.35 6.27 8.35 6.09 8.37 5.7 8.46 5.33 7.58 5.89 7.43 6.19 7.4 6.55 7.4 6.84 7.44 7.18 7.54 7.48 7.67 7.76 7.85 8.01 8.05 8.23 8.29 8.42 8.56 8.57 8.85 8.68 9.16 8.74 9.47 8.77 9.78 8.74 10.12 8.68 10.44 8.57 10.75 8.42 11.04 8.23 11.31 5.9 13.81 5.79 13.97 5.71 14.15 5.64 14.34 5.12 16.83 5 17.17 4.85 17.46 4.67 17.72 4.45 17.96 4.19 18.17 3.92 18.34 3.62 18.48 3.33 18.56"/></g></g><g id="h"><g id="i"><polyline class="m" points="10.16 8.86 10.22 9.08 10.24 9.3 10.24 9.53 10.2 9.75 10.14 9.97 10.04 10.17 9.92 10.36 9.77 10.53 9.6 10.69 9.42 10.81 9.21 10.91 9 10.99 8.78 11.03 8.55 11.04 8.32 11.03 8.1 10.98 7.89 10.9 7.5 10.67 7.5 10.67 5.74 9.12 5.28 9.34 7.14 11.05 7.38 11.22 7.64 11.36 7.92 11.47 8.21 11.54 8.5 11.56 8.8 11.55 9.1 11.5 9.38 11.41 9.65 11.28 9.9 11.12 10.12 10.92 10.32 10.7 10.48 10.45 10.61 10.19 10.7 9.91 10.76 9.62 10.77 9.32 10.74 9.03 10.67 8.74"/><polygon class="m" points="8.5 11.78 8.16 11.75 7.84 11.67 7.54 11.56 7.25 11.4 7.01 11.22 4.89 9.29 5.77 8.86 7.63 10.49 7.98 10.71 8.16 10.77 8.35 10.81 8.55 10.82 8.76 10.81 8.94 10.78 9.13 10.71 9.31 10.62 9.47 10.51 9.62 10.38 9.74 10.23 9.85 10.07 9.93 9.89 9.99 9.7 10.02 9.51 10.02 9.31 10 9.12 9.95 8.91 10.38 8.81 10.44 9.05 10.46 9.29 10.45 9.56 10.41 9.81 10.33 10.06 10.23 10.29 10.09 10.5 9.92 10.7 9.73 10.87 9.51 11.01 9.28 11.12 9.04 11.2 8.82 11.25 8.55 11.26 8.28 11.24 8.03 11.19 7.77 11.09 7.36 10.83 5.7 9.38 5.66 9.4 7.29 10.89 7.49 11.04 7.73 11.16 7.98 11.26 8.24 11.32 8.51 11.34 8.78 11.33 9.04 11.29 9.3 11.2 9.54 11.09 9.76 10.94 9.97 10.77 10.14 10.57 10.29 10.35 10.41 10.11 10.49 9.85 10.54 9.59 10.55 9.33 10.52 9.06 10.46 8.79 10.89 8.69 10.96 9.01 10.99 9.32 10.97 9.66 10.91 9.98 10.81 10.28 10.66 10.58 10.48 10.85 10.26 11.09 10.02 11.3 9.74 11.48 9.45 11.62 9.13 11.71 8.81 11.77 8.5 11.78"/></g><g id="j"><polyline class="k" points="10.16 7.99 10.22 8.2 10.24 8.43 10.24 8.65 10.2 8.88 10.14 9.09 10.04 9.3 9.92 9.49 9.77 9.66 9.6 9.81 9.42 9.94 9.21 10.04 9 10.11 8.78 10.16 8.55 10.17 8.32 10.15 8.1 10.11 7.89 10.03 7.5 9.79 7.5 9.79 5.74 8.24 5.28 8.47 7.14 10.17 7.38 10.35 7.64 10.49 7.92 10.59 8.21 10.66 8.5 10.69 8.8 10.68 9.1 10.62 9.38 10.53 9.65 10.41 9.9 10.24 10.12 10.05 10.32 9.83 10.48 9.58 10.61 9.31 10.7 9.03 10.76 8.74 10.77 8.45 10.74 8.15 10.67 7.86"/><polygon class="k" points="8.5 10.91 8.16 10.87 7.84 10.8 7.54 10.68 7.25 10.52 7.01 10.35 4.89 8.41 5.77 7.98 7.63 9.62 7.98 9.83 8.16 9.89 8.35 9.94 8.55 9.95 8.76 9.94 8.94 9.9 9.13 9.84 9.31 9.75 9.47 9.64 9.62 9.51 9.74 9.36 9.85 9.19 9.93 9.01 9.99 8.83 10.02 8.63 10.02 8.44 10 8.24 9.95 8.04 10.38 7.93 10.44 8.18 10.46 8.42 10.45 8.69 10.41 8.94 10.33 9.18 10.23 9.41 10.09 9.63 9.92 9.82 9.73 9.99 9.51 10.13 9.28 10.25 9.04 10.33 8.82 10.37 8.55 10.39 8.28 10.37 8.03 10.31 7.77 10.22 7.36 9.96 5.7 8.5 5.66 8.52 7.29 10.01 7.49 10.16 7.73 10.29 7.98 10.38 8.24 10.44 8.51 10.47 8.78 10.46 9.04 10.41 9.3 10.33 9.54 10.21 9.76 10.07 9.97 9.89 10.14 9.69 10.29 9.47 10.41 9.23 10.49 8.98 10.54 8.72 10.55 8.45 10.52 8.19 10.46 7.91 10.89 7.81 10.96 8.13 10.99 8.44 10.97 8.78 10.91 9.1 10.81 9.41 10.66 9.7 10.48 9.97 10.26 10.21 10.02 10.43 9.74 10.6 9.45 10.74 9.13 10.84 8.81 10.89 8.5 10.91"/></g></g><polygon class="k" points="2.03 17.94 1.78 18.05 1.78 19.23 1.83 19.17 1.99 19.04 2.16 18.93 2.34 18.85 3.54 18.5 3.27 17.58 2.03 17.94"/><path class="m" d="M6.62,8.66l-.35-.38-.03-.22-.3,.03-.32,.09-3.84,1.64v1.11l4.18-1.79,.19-.05,.19-.02c.13,0,.37,.02,.45,.06l.1-.19h0l.1-.19c-.1-.05-.24-.08-.37-.09Z"/><path class="k" d="M6.62,7.79l-.35-.38-.03-.22-.3,.03-.32,.09-3.84,1.64v1.11l4.18-1.79,.19-.05,.19-.02c.13,0,.37,.02,.45,.06l.1-.19h0l.1-.19c-.1-.05-.24-.08-.36-.09Z"/><polygon class="n" points="2.03 18.82 1.78 18.93 1.78 20.1 1.83 20.05 1.99 19.91 2.16 19.81 2.34 19.72 3.54 19.37 3.27 18.46 2.03 18.82"/></svg>