<svg id="Layer_1" data-name="Layer 1" xmlns="http://www.w3.org/2000/svg" viewBox="0 0 27 30"><defs><style>.cls-1{fill:#eb743b;}.cls-2{fill:#ba478f;}.cls-3{fill:#fffedb;}</style></defs><polygon class="cls-1" points="13.94 1 13.94 29 25.9 22 25.9 8 13.94 1"/><polygon class="cls-2" points="13.06 1 1.1 8 1.1 22 13.06 29 13.06 1"/><path class="cls-3" d="M13.06,11.21,7.52,14.42V12.08l5.54-3.2V4.5L6.64,8.38h0l-.06,0,0,0,0,0,0,0,0,.05s0,0,0,.05,0,0,0,0a.14.14,0,0,0,0,.06.43.43,0,0,0,0,.05v10a2.61,2.61,0,0,0-1.56.3A1.9,1.9,0,0,0,4,21.53a1.86,1.86,0,0,0,2.57.18,2.43,2.43,0,0,0,1-1.46c0-.06,0-4.37,0-4.37l5.54-3.21Z"/><path class="cls-3" d="M23.35,17.36a1.94,1.94,0,0,0-1.66-.92,1.9,1.9,0,0,0-.58.09,5.17,5.17,0,0,0-2.5-1.65,8.61,8.61,0,0,0,1.72-1.79,2.06,2.06,0,0,0,1.5-.24,2,2,0,1,0-2.72-.62l.12.17a6.85,6.85,0,0,1-2.77,2.27h0a5.38,5.38,0,0,1-2.51.62v1.46a6.36,6.36,0,0,0,2.92-.85,4.33,4.33,0,0,1,3.2,1.39,2,2,0,0,0,2.68,2.79,2,2,0,0,0,.61-2.72Zm-3-6.83a.75.75,0,0,1,.41-.12.76.76,0,0,1,.41,1.41.73.73,0,0,1-.41.12.72.72,0,0,1-.4-.12.69.69,0,0,1-.24-.24A.76.76,0,0,1,20.37,10.53Zm2.06,8a.77.77,0,0,1-.74.6.77.77,0,0,1-.45-1.39l0,0a.77.77,0,0,1,1,.24A.72.72,0,0,1,22.43,18.58Z"/></svg>