<?xml version="1.0" encoding="UTF-8"?><svg id="a" xmlns="http://www.w3.org/2000/svg" viewBox="0 0 586 100"><defs><style>.b{fill:#8db2e3;}.c{fill:#fffedb;}.d{fill:#4e7ec2;}.e{fill:#eb743b;}</style></defs><g><path class="d" d="M132.41,65.42h-16.64l-2.91,9.41h-12.97l18.47-50.36h11.41l18.61,50.36h-13.04l-2.94-9.41Zm-13.73-9.37h10.83l-5.43-17.47-5.4,17.47Z"/><path class="d" d="M167.35,66.52c1.64,0,2.91-.44,3.8-1.33s1.34-2.13,1.31-3.72h10.93c0,4.1-1.47,7.47-4.41,10.1-2.94,2.63-6.73,3.94-11.36,3.94-5.44,0-9.73-1.71-12.87-5.12-3.14-3.41-4.7-8.14-4.7-14.18v-.48c0-3.78,.7-7.12,2.09-10.01,1.39-2.89,3.41-5.12,6.04-6.68,2.63-1.56,5.74-2.33,9.34-2.33,4.87,0,8.73,1.35,11.59,4.05,2.86,2.7,4.29,6.35,4.29,10.96h-10.93c0-1.94-.47-3.42-1.42-4.46-.95-1.04-2.21-1.56-3.81-1.56-3.02,0-4.79,1.93-5.29,5.78-.16,1.22-.24,2.91-.24,5.05,0,3.76,.45,6.36,1.35,7.82,.9,1.45,2.33,2.18,4.29,2.18Z"/><path class="d" d="M186.85,55.76c0-3.74,.73-7.06,2.18-9.98,1.45-2.92,3.54-5.16,6.26-6.73,2.72-1.57,5.92-2.35,9.58-2.35,5.6,0,10.02,1.74,13.25,5.21,3.23,3.47,4.84,8.19,4.84,14.17v.42c0,5.83-1.62,10.46-4.86,13.89-3.24,3.42-7.63,5.14-13.16,5.14s-9.6-1.6-12.83-4.79c-3.23-3.19-4.97-7.52-5.22-12.99l-.03-1.97Zm11.66,.73c0,3.46,.54,6,1.63,7.61s2.69,2.42,4.81,2.42c4.15,0,6.27-3.19,6.36-9.58v-1.18c0-6.71-2.14-10.07-6.43-10.07-3.9,0-6.01,2.89-6.33,8.68l-.04,2.11Z"/><path class="d" d="M250.39,70.78c-2.47,3.16-5.8,4.74-10,4.74s-7.21-1.19-9.32-3.58c-2.11-2.39-3.17-5.82-3.17-10.29v-24.25h11.66v24.32c0,3.21,1.56,4.81,4.67,4.81,2.67,0,4.58-.96,5.71-2.87v-26.25h11.73v37.43h-10.93l-.35-4.05Z"/><path class="d" d="M287.65,64.31c0-.99-.52-1.79-1.56-2.39-1.04-.6-3.01-1.22-5.91-1.87-2.91-.65-5.3-1.49-7.2-2.54-1.89-1.05-3.33-2.32-4.32-3.82-.99-1.5-1.49-3.22-1.49-5.15,0-3.44,1.42-6.27,4.25-8.49,2.84-2.23,6.55-3.34,11.14-3.34,4.93,0,8.9,1.12,11.9,3.35,3,2.24,4.5,5.18,4.5,8.82h-11.69c0-3-1.58-4.5-4.74-4.5-1.22,0-2.25,.34-3.08,1.02-.83,.68-1.25,1.53-1.25,2.54s.51,1.88,1.52,2.53,2.63,1.18,4.86,1.59c2.22,.42,4.18,.91,5.86,1.49,5.63,1.94,8.44,5.41,8.44,10.41,0,3.41-1.52,6.19-4.55,8.34s-6.96,3.22-11.78,3.22c-3.21,0-6.07-.58-8.58-1.73-2.51-1.15-4.47-2.72-5.88-4.7-1.41-1.98-2.11-4.07-2.11-6.26h10.9c.05,1.73,.62,2.99,1.73,3.79,1.11,.79,2.52,1.19,4.25,1.19,1.59,0,2.79-.32,3.58-.97,.8-.65,1.19-1.49,1.19-2.53Z"/><path class="d" d="M317.91,28.09v9.3h6.16v8.09h-6.16v17.12c0,1.41,.25,2.39,.76,2.94,.51,.55,1.51,.83,3.01,.83,1.15,0,2.12-.07,2.91-.21v8.34c-2.1,.67-4.29,1-6.57,1-4.01,0-6.98-.95-8.89-2.84-1.91-1.89-2.87-4.76-2.87-8.61v-18.58h-4.77v-8.09h4.77v-9.3h11.66Z"/><path class="d" d="M328.57,27.71c0-1.67,.6-3.04,1.8-4.11s2.76-1.6,4.67-1.6,3.47,.53,4.67,1.6c1.2,1.07,1.8,2.44,1.8,4.11s-.6,3.04-1.8,4.11c-1.2,1.07-2.76,1.6-4.67,1.6s-3.47-.53-4.67-1.6c-1.2-1.07-1.8-2.44-1.8-4.11Zm12.38,47.11h-11.69V37.4h11.69v37.43Z"/><path class="d" d="M363.95,66.52c1.64,0,2.91-.44,3.8-1.33s1.34-2.13,1.31-3.72h10.93c0,4.1-1.47,7.47-4.41,10.1-2.94,2.63-6.73,3.94-11.36,3.94-5.44,0-9.73-1.71-12.87-5.12-3.14-3.41-4.7-8.14-4.7-14.18v-.48c0-3.78,.7-7.12,2.09-10.01,1.39-2.89,3.41-5.12,6.04-6.68,2.63-1.56,5.74-2.33,9.34-2.33,4.87,0,8.73,1.35,11.59,4.05,2.86,2.7,4.29,6.35,4.29,10.96h-10.93c0-1.94-.47-3.42-1.42-4.46-.95-1.04-2.21-1.56-3.81-1.56-3.02,0-4.79,1.93-5.29,5.78-.16,1.22-.24,2.91-.24,5.05,0,3.76,.45,6.36,1.35,7.82,.9,1.45,2.33,2.18,4.29,2.18Z"/><path class="e" d="M385.47,74.82V24.46h18.09c6.48,0,11.41,1.19,14.79,3.56,3.38,2.38,5.07,5.82,5.07,10.34,0,2.61-.6,4.83-1.8,6.68-1.2,1.84-2.96,3.21-5.29,4.08,2.63,.69,4.65,1.98,6.05,3.87,1.41,1.89,2.11,4.2,2.11,6.92,0,4.94-1.56,8.64-4.69,11.12-3.12,2.48-7.75,3.74-13.89,3.79h-20.44Zm12.14-29.37h6.33c2.65-.02,4.54-.51,5.67-1.46s1.7-2.35,1.7-4.2c0-2.13-.61-3.66-1.83-4.6s-3.19-1.41-5.91-1.41h-5.95v11.66Zm0,7.96v12.07h7.96c2.19,0,3.87-.5,5.05-1.5s1.76-2.42,1.76-4.24c0-4.2-2.09-6.31-6.26-6.33h-8.51Z"/><path class="e" d="M453.26,47.95l-3.84-.28c-3.67,0-6.02,1.15-7.06,3.46v23.69h-11.66V37.4h10.93l.38,4.81c1.96-3.67,4.69-5.5,8.2-5.5,1.25,0,2.33,.14,3.25,.42l-.21,10.83Z"/><path class="e" d="M477.51,74.82c-.42-.76-.78-1.88-1.11-3.36-2.14,2.7-5.14,4.05-8.99,4.05-3.53,0-6.53-1.07-8.99-3.2-2.47-2.13-3.7-4.81-3.7-8.04,0-4.06,1.5-7.12,4.5-9.2,3-2.08,7.36-3.11,13.08-3.11h3.6v-1.98c0-3.45-1.49-5.18-4.46-5.18-2.77,0-4.15,1.37-4.15,4.1h-11.66c0-3.62,1.54-6.55,4.62-8.81,3.08-2.26,7-3.39,11.78-3.39s8.54,1.16,11.31,3.49c2.77,2.33,4.19,5.52,4.25,9.58v16.57c.05,3.44,.58,6.07,1.59,7.89v.59h-11.66Zm-7.3-7.61c1.45,0,2.66-.31,3.61-.93,.96-.62,1.64-1.33,2.06-2.11v-5.98h-3.39c-4.06,0-6.09,1.82-6.09,5.46,0,1.06,.36,1.92,1.07,2.58,.71,.66,1.62,.99,2.73,.99Z"/><path class="e" d="M493.94,27.71c0-1.67,.6-3.04,1.8-4.11s2.76-1.6,4.67-1.6,3.47,.53,4.67,1.6c1.2,1.07,1.8,2.44,1.8,4.11s-.6,3.04-1.8,4.11c-1.2,1.07-2.76,1.6-4.67,1.6s-3.47-.53-4.67-1.6c-1.2-1.07-1.8-2.44-1.8-4.11Zm12.38,47.11h-11.69V37.4h11.69v37.43Z"/><path class="e" d="M524.21,37.4l.38,4.39c2.58-3.39,6.15-5.08,10.69-5.08,3.9,0,6.81,1.16,8.73,3.49s2.92,5.83,2.99,10.52v24.11h-11.69v-23.62c0-1.89-.38-3.28-1.14-4.17-.76-.89-2.14-1.33-4.15-1.33-2.28,0-3.98,.9-5.08,2.7v26.43h-11.66V37.4h10.93Z"/><path class="e" d="M567.2,65.83h17.05v8.99h-31.79v-6.5l16.6-21.93h-15.88v-8.99h30.68v6.29l-16.67,22.14Z"/></g><g><polygon class="e" points="47 2 47 98 88 74 88 26 47 2"/><polygon class="d" points="44 2 3 26 3 74 44 98 44 2"/><rect class="c" x="35" y="16" width="6" height="4"/><rect class="c" x="35" y="23" width="6" height="4"/><rect class="c" x="35" y="30" width="6" height="4"/><rect class="c" x="35" y="37" width="6" height="4"/><rect class="c" x="35" y="44" width="6" height="4"/><rect class="b" x="35" y="51" width="6" height="4"/><rect class="b" x="35" y="58" width="6" height="4"/><rect class="b" x="35" y="65" width="6" height="4"/><rect class="b" x="35" y="72" width="6" height="4"/><rect class="b" x="35" y="79" width="6" height="4"/><rect class="c" x="26" y="30" width="6" height="4"/><rect class="c" x="26" y="37" width="6" height="4"/><rect class="c" x="26" y="44" width="6" height="4"/><rect class="b" x="26" y="51" width="6" height="4"/><rect class="b" x="26" y="58" width="6" height="4"/><rect class="b" x="26" y="65" width="6" height="4"/><rect class="c" x="17" y="44" width="6" height="4"/><rect class="b" x="17" y="51" width="6" height="4"/><rect class="c" x="8" y="37" width="6" height="4"/><rect class="c" x="8" y="44" width="6" height="4"/><rect class="b" x="8" y="51" width="6" height="4"/><rect class="b" x="8" y="58" width="6" height="4"/><path class="c" d="M79.28,58.09c-1.24-1.97-3.38-3.15-5.72-3.15-.67,0-1.32,.1-1.96,.29-2.63-3.12-5.82-4.78-8.6-5.64,2.24-1.71,4.21-3.77,5.91-6.15,1.74,.39,3.63,.13,5.16-.83,3.16-2.01,4.1-6.2,2.1-9.35-1.25-1.97-3.39-3.15-5.72-3.15-1.28,0-2.53,.36-3.62,1.05-3.15,1.99-4.09,6.18-2.11,9.34,.13,.21,.27,.4,.42,.6-2.51,3.44-5.71,6.06-9.52,7.79h-.01c-3.53,1.61-5.62,2.12-8.62,2.12v5c4,0,5.93-1.12,10.02-2.9,1.37-.02,6.96,.18,10.99,4.75-1.51,2.16-1.66,5.11-.16,7.47,1.24,1.97,3.38,3.15,5.72,3.15,1.28,0,2.52-.36,3.61-1.04,1.54-.97,2.6-2.48,3-4.25,.4-1.76,.08-3.57-.89-5.09Zm-10.22-23.42c.42-.27,.9-.41,1.4-.41,.9,0,1.73,.46,2.22,1.22,.77,1.21,.4,2.84-.82,3.61-.41,.26-.9,.4-1.39,.4s-.97-.13-1.39-.39c-.34-.21-.62-.49-.83-.82-.77-1.22-.41-2.85,.81-3.62Zm7.06,27.6c-.15,.69-.56,1.27-1.16,1.64-.41,.26-.9,.41-1.39,.41-.91,0-1.73-.46-2.21-1.22-.75-1.18-.44-2.73,.69-3.53l.12-.08c1.21-.77,2.87-.37,3.61,.81,.38,.59,.5,1.29,.34,1.97Z"/></g></svg>