<?xml version="1.0" encoding="UTF-8"?><svg xmlns="http://www.w3.org/2000/svg" viewBox="0 0 310 290"><defs><style>.b{mix-blend-mode:multiply;opacity:.07;}.c{fill:#8db2e3;}.d{isolation:isolate;}.e{fill:#fffedb;}.f{fill:#4e7ec2;}.g{fill:#d3562c;}.h{fill:#eb743b;}</style></defs><g class="d"><g id="a"><g><g><path class="f" d="M33.9,206.1H17.78l-2.95,10.36H1.56l18.05-54.61h12.42l18.23,54.61h-13.31l-3.05-10.36Zm-13.22-9.98h10.27l-5.2-17.62-5.06,17.62Z"/><path class="f" d="M72.26,207.19c3.54,0,5.33-2.3,5.39-6.9h11.47c-.06,5.09-1.62,9.2-4.7,12.33-3.08,3.13-7.04,4.7-11.9,4.7-6.01,0-10.59-1.87-13.76-5.61-3.16-3.74-4.77-9.24-4.83-16.52v-3.71c0-7.33,1.56-12.92,4.68-16.77s7.73-5.78,13.82-5.78c5.15,0,9.2,1.59,12.16,4.77,2.96,3.18,4.47,7.68,4.53,13.52h-11.47c-.03-2.62-.46-4.63-1.29-6.04-.83-1.41-2.21-2.11-4.14-2.11-2.13,0-3.65,.75-4.57,2.26-.92,1.51-1.41,4.43-1.47,8.78v4.74c0,3.79,.19,6.45,.56,7.96,.37,1.51,.99,2.62,1.85,3.32,.86,.71,2.08,1.06,3.67,1.06Z"/><path class="f" d="M94.6,191.62c0-7.07,1.67-12.62,5-16.65,3.33-4.03,7.95-6.04,13.84-6.04s10.59,2.01,13.93,6.04c3.33,4.02,5,9.6,5,16.73v2.98c0,7.1-1.65,12.65-4.96,16.65-3.31,4-7.93,5.99-13.89,5.99s-10.63-2-13.95-6.02c-3.32-4.01-4.98-9.58-4.98-16.71v-2.98Zm12.25,3.06c0,8.34,2.23,12.51,6.68,12.51,4.11,0,6.32-3.48,6.64-10.44l.04-5.13c0-4.25-.59-7.41-1.77-9.47-1.18-2.05-2.85-3.08-5-3.08s-3.69,1.03-4.85,3.08c-1.17,2.06-1.75,5.21-1.75,9.47v3.06Z"/><path class="f" d="M162.91,212.19c-2.53,3.42-5.92,5.13-10.18,5.13s-7.53-1.47-9.75-4.42c-2.21-2.95-3.32-7.24-3.32-12.87v-30.23h12.2v30.53c.06,4.54,1.57,6.81,4.53,6.81,2.79,0,4.8-1.21,6.04-3.62v-33.72h12.29v46.66h-11.47l-.34-4.27Z"/><path class="f" d="M204.09,203.95c0-1.04-.5-1.99-1.49-2.87-.99-.88-3.2-2.06-6.62-3.56-5.03-2.04-8.49-4.15-10.37-6.34-1.88-2.18-2.82-4.9-2.82-8.15,0-4.08,1.47-7.45,4.42-10.11,2.95-2.66,6.85-3.99,11.71-3.99,5.12,0,9.21,1.32,12.29,3.97,3.08,2.65,4.61,6.2,4.61,10.65h-12.2c0-3.79-1.58-5.69-4.74-5.69-1.29,0-2.36,.4-3.19,1.21s-1.25,1.93-1.25,3.36c0,1.04,.46,1.95,1.38,2.74,.92,.79,3.09,1.92,6.51,3.38,4.97,1.84,8.49,3.89,10.54,6.15s3.08,5.18,3.08,8.78c0,4.17-1.57,7.52-4.7,10.05-3.13,2.53-7.25,3.79-12.33,3.79-3.42,0-6.44-.67-9.06-2-2.62-1.34-4.67-3.2-6.15-5.58-1.48-2.39-2.22-4.96-2.22-7.72h11.6c.06,2.13,.55,3.72,1.49,4.79s2.46,1.59,4.59,1.59c3.28,0,4.92-1.48,4.92-4.44Z"/><path class="f" d="M237.73,158.33v11.47h6.25v9.14h-6.25v23.19c0,1.84,.25,3.11,.75,3.8s1.47,1.04,2.91,1.04c1.18,0,2.14-.1,2.89-.3l-.09,9.49c-2.07,.78-4.31,1.16-6.73,1.16-7.88,0-11.86-4.52-11.94-13.56v-24.82h-5.39v-9.14h5.39v-11.47h12.2Z"/><path class="f" d="M250.67,157.72c0-1.9,.6-3.45,1.81-4.66,1.21-1.21,2.82-1.81,4.83-1.81s3.62,.6,4.83,1.81,1.81,2.76,1.81,4.66-.6,3.42-1.79,4.66c-1.19,1.24-2.81,1.85-4.85,1.85s-3.66-.62-4.85-1.85c-1.19-1.24-1.79-2.79-1.79-4.66Zm12.81,58.73h-12.25v-46.66h12.25v46.66Z"/><path class="f" d="M289.78,207.19c3.54,0,5.33-2.3,5.39-6.9h11.47c-.06,5.09-1.62,9.2-4.7,12.33-3.08,3.13-7.04,4.7-11.9,4.7-6.01,0-10.59-1.87-13.76-5.61-3.16-3.74-4.77-9.24-4.83-16.52v-3.71c0-7.33,1.56-12.92,4.68-16.77s7.73-5.78,13.82-5.78c5.15,0,9.2,1.59,12.16,4.77,2.96,3.18,4.47,7.68,4.53,13.52h-11.47c-.03-2.62-.46-4.63-1.29-6.04-.83-1.41-2.21-2.11-4.14-2.11-2.13,0-3.65,.75-4.57,2.26-.92,1.51-1.41,4.43-1.47,8.78v4.74c0,3.79,.19,6.45,.56,7.96,.37,1.51,.99,2.62,1.85,3.32,.86,.71,2.08,1.06,3.67,1.06Z"/><path class="h" d="M48.18,285.46v-54.61h18.56c6.38,0,11.24,1.29,14.6,3.87,3.36,2.58,5.04,6.32,5.04,11.23,0,2.78-.61,5.2-1.83,7.27-1.22,2.06-3.02,3.58-5.39,4.55,2.56,.75,4.55,2.18,5.95,4.29,1.41,2.11,2.11,4.7,2.11,7.76,0,5.44-1.58,9.41-4.73,11.91-3.16,2.5-7.91,3.75-14.25,3.75h-20.06Zm13.26-31.92h6.38c3.53-.09,5.3-1.97,5.3-5.62,0-2.16-.44-3.69-1.31-4.62-.88-.92-2.22-1.38-4.03-1.38h-6.33v11.62Zm0,9.23v11.76h6.8c1.84,0,3.26-.5,4.24-1.51,.98-1,1.48-2.38,1.48-4.14,0-3.95-1.59-5.99-4.78-6.12h-7.73Z"/><path class="h" d="M118.35,250.57l-4.05-.34c-3.33,0-5.59,1.47-6.77,4.4v30.83h-12.25v-46.66h11.51l.35,5.04c1.93-3.94,4.58-5.91,7.98-5.91,1.38,0,2.5,.19,3.36,.56l-.13,12.08Z"/><path class="h" d="M145.47,285.46c-.35-.72-.69-1.93-1.04-3.62-2.19,2.99-5.15,4.48-8.88,4.48s-7.15-1.29-9.72-3.88c-2.57-2.59-3.86-5.94-3.86-10.05,0-4.89,1.56-8.67,4.68-11.34,3.12-2.67,7.61-4.04,13.48-4.1h3.71v-3.75c0-2.1-.36-3.58-1.08-4.44-.72-.86-1.77-1.29-3.15-1.29-3.05,0-4.57,1.78-4.57,5.35h-12.2c0-4.31,1.62-7.87,4.85-10.67,3.23-2.8,7.32-4.21,12.27-4.21s9.08,1.33,11.88,3.99,4.21,6.46,4.21,11.41v21.95c.06,4.03,.63,7.17,1.72,9.44v.73h-12.29Zm-7.2-8.71c1.35,0,2.5-.27,3.45-.82,.95-.55,1.65-1.19,2.11-1.94v-9.7h-2.93c-2.07,0-3.7,.66-4.89,1.98-1.19,1.32-1.79,3.09-1.79,5.3,0,3.45,1.35,5.17,4.05,5.17Z"/><path class="h" d="M164.88,226.72c0-1.9,.6-3.45,1.81-4.66,1.21-1.21,2.82-1.81,4.83-1.81s3.62,.6,4.83,1.81,1.81,2.76,1.81,4.66-.6,3.42-1.79,4.66c-1.19,1.24-2.81,1.85-4.85,1.85s-3.66-.62-4.85-1.85c-1.19-1.24-1.79-2.79-1.79-4.66Zm12.81,58.73h-12.25v-46.66h12.25v46.66Z"/><path class="h" d="M198.3,238.8l.35,4.61c2.76-3.65,6.37-5.48,10.82-5.48,8.02,0,12.15,5.62,12.38,16.86v30.66h-12.25v-29.75c0-2.64-.4-4.56-1.19-5.76-.79-1.19-2.18-1.79-4.16-1.79-2.21,0-3.94,1.14-5.17,3.41v33.9h-12.25v-46.66h11.47Z"/><path class="h" d="M244.1,275.32h18.46v10.13h-32.95v-7.63l18.03-28.85h-17.59v-10.18h32.26v7.37l-18.2,29.15Z"/></g><g><g><polygon class="h" points="157 2.46 157 146.46 218 111.46 218 37.46 157 2.46"/><polygon class="f" points="152 2.46 91 37.46 91 111.46 152 146.46 152 2.46"/><g><g class="b"><path d="M174.3,94.19c.39-.64,1.07-1.03,1.82-1.03,.38,0,.75,.1,1.08,.3,1,.6,1.33,1.9,.74,2.9-.38,.65-1.06,1.03-1.82,1.03-.38,0-.75-.1-1.08-.3-.48-.29-.83-.75-.96-1.29-.14-.55-.06-1.12,.23-1.6Zm12.6,22.36c-.49,.42-1.02,.51-1.37,.51-.62,0-1.21-.27-1.61-.73-.76-.88-.65-2.22,.23-2.98,.49-.42,1.02-.51,1.37-.51,.62,0,1.2,.27,1.61,.74,.37,.43,.55,.98,.5,1.54-.04,.56-.3,1.07-.73,1.44Z"/><path d="M166,48.07c.07,.02,.14,.03,.21,.05-.07-.01-.14-.03-.21-.05Z"/><path d="M177.38,57.71c.17-.27,.39-.49,.67-.66,.33-.21,.72-.32,1.12-.32s.79,.11,1.12,.32c.99,.63,1.28,1.94,.66,2.92-.39,.62-1.06,.99-1.79,.99-.4,0-.79-.11-1.12-.33-.98-.62-1.28-1.94-.66-2.92Zm6.38-20.19c-.6,.95-1.94,1.27-2.91,.65l-.1-.06c-.91-.65-1.16-1.9-.56-2.85,.39-.61,1.05-.98,1.78-.98,.4,0,.79,.11,1.12,.33,.48,.3,.81,.78,.94,1.33,.12,.55,.03,1.11-.28,1.58Z"/><path d="M200.53,49.12c.39-.61,1.05-.98,1.78-.98,.4,0,.79,.11,1.12,.33,.48,.3,.81,.78,.94,1.33,.12,.55,.02,1.11-.28,1.58-.6,.95-1.94,1.27-2.91,.65l-.09-.06c-.92-.65-1.16-1.9-.56-2.85Zm0,23.46c.39-.61,1.05-.98,1.78-.98,.4,0,.79,.11,1.12,.33,.48,.3,.81,.77,.94,1.33,.12,.55,.02,1.11-.28,1.58-.6,.95-1.94,1.27-2.91,.65l-.09-.06c-.92-.65-1.16-1.9-.56-2.85Zm0,26.3c.39-.61,1.05-.98,1.78-.98,.4,0,.79,.11,1.12,.33,.48,.3,.81,.78,.94,1.33,.12,.55,.02,1.11-.28,1.58-.6,.95-1.94,1.27-2.91,.65l-.09-.06c-.92-.65-1.16-1.9-.56-2.85Z"/><path d="M190.18,108.56c-1.17-1.36-2.86-2.14-4.65-2.14-1.46,0-2.88,.53-3.98,1.48-1.61,1.38-2.33,3.43-2.09,5.4-1.95,.7-4.26,1.37-5.33,1.33-.82-.04-1.3-.35-2.22-.97-1.17-.79-2.42-1.51-4.15-1.85,2.94-2.76,6.01-6.83,8.58-12.83,2.06-.08,3.98-1.19,5.04-2.97,1.72-2.9,.77-6.66-2.12-8.39-.95-.57-2.03-.86-3.13-.86-2.15,0-4.16,1.14-5.26,2.99-.84,1.41-1.08,3.05-.68,4.64,.35,1.39,1.16,2.59,2.3,3.43-4.05,9.22-9.22,13.08-12.57,14.68-.13,.04-.25,.1-.36,.17-1.19,.53-2.05,.7-2.56,.81v4c.28-.03,1.88-.12,4.25-1.19,5.35-1.36,6.84-.35,8.41,.71,1.02,.69,2.29,1.55,4.26,1.66,.1,0,.2,0,.31,0,2.11,0,5.17-1.02,7.02-1.72,1.14,1.12,2.68,1.75,4.29,1.75h0c1.46,0,2.88-.52,3.98-1.48,1.24-1.06,1.99-2.55,2.12-4.18,.12-1.63-.39-3.21-1.46-4.45Zm-15.87-16.78c.39-.64,1.07-1.03,1.82-1.03,.38,0,.75,.1,1.08,.3,1,.6,1.33,1.9,.74,2.9-.38,.65-1.06,1.03-1.82,1.03-.38,0-.75-.1-1.08-.3-.48-.29-.83-.75-.96-1.29-.14-.55-.06-1.12,.23-1.6Zm12.6,22.36c-.49,.42-1.02,.51-1.37,.51-.62,0-1.21-.27-1.61-.73-.76-.88-.65-2.22,.23-2.98,.49-.42,1.02-.51,1.37-.51,.62,0,1.2,.27,1.61,.74,.37,.43,.55,.98,.5,1.54-.04,.56-.3,1.07-.73,1.44Z"/><path d="M166,45.66c.07,.02,.14,.03,.21,.05-.07-.01-.14-.03-.21-.05Z"/><path d="M187.95,32.66c-.36-1.6-1.32-2.96-2.71-3.84-.98-.62-2.11-.94-3.26-.94-2.12,0-4.05,1.07-5.17,2.85-1.35,2.14-1.22,4.8,.14,6.76-3.65,4.12-8.71,4.31-9.94,4.29-3.69-1.6-7.23-2.16-10-2.32v4c2.44,.14,5.55,.69,8.75,2.14h.01c3.45,1.57,6.33,3.93,8.61,7.05-.14,.17-.26,.35-.38,.54-1.8,2.85-.94,6.64,1.9,8.44,.98,.62,2.11,.95,3.27,.95,2.11,0,4.05-1.07,5.18-2.85,1.81-2.85,.95-6.64-1.91-8.45-1.38-.87-3.09-1.11-4.67-.75-1.54-2.15-3.32-4.02-5.34-5.57,2.52-.78,5.4-2.27,7.78-5.1,.57,.17,1.17,.27,1.77,.27,2.12,0,4.05-1.07,5.17-2.85,.88-1.38,1.16-3.01,.8-4.6Zm-10.57,22.65c.17-.27,.39-.49,.67-.66,.33-.21,.72-.32,1.12-.32s.79,.11,1.12,.32c.99,.63,1.28,1.94,.66,2.92-.39,.62-1.06,.99-1.79,.99-.4,0-.79-.11-1.12-.33-.98-.62-1.28-1.94-.66-2.92Zm6.38-20.19c-.6,.95-1.94,1.27-2.91,.65l-.1-.06c-.91-.65-1.16-1.9-.56-2.85,.39-.61,1.05-.98,1.78-.98,.4,0,.79,.11,1.12,.33,.48,.3,.81,.78,.94,1.33,.12,.55,.03,1.11-.28,1.58Z"/><path d="M196.65,73.64c.42,1.04,1.14,1.96,2.11,2.65,.07,.05,.15,.11,.28,.19,.98,.62,2.11,.95,3.27,.95,2.12,0,4.05-1.07,5.17-2.85,.88-1.38,1.16-3.01,.8-4.6-.36-1.6-1.32-2.96-2.71-3.84-.98-.62-2.11-.94-3.27-.94-.12,0-.25,0-.38,.02-.71-3.16-.92-7.77,.04-11.26,.11,.01,.22,.02,.34,.02,2.12,0,4.05-1.07,5.17-2.85,.88-1.38,1.16-3.01,.8-4.6-.36-1.6-1.32-2.96-2.71-3.84-.98-.62-2.11-.94-3.27-.94-2.11,0-4.05,1.07-5.17,2.85-1.6,2.53-1.12,5.8,1.02,7.76,.02,.02,.05,.04,.07,.06-1.35,4.52-1.15,10.32-.04,14.42-.14,.13-.29,.25-.43,.4-.23,.25-.45,.53-.63,.82-.32,.5-.55,1.03-.71,1.58-3.37,.49-5.2,1.67-6.82,2.73-2.04,1.32-3.96,2.57-9.64,2.67-1.96-.23-3.55-.18-5.29-.12-1.43,.05-2.91,.11-4.85,0-1.33-.07-2.1-.88-3.46-2.42-1.8-2.05-4.22-4.65-9.37-5.02v4c3.29,.3,4.8,1.89,6.36,3.67,1.49,1.69,3.17,3.62,6.26,3.78,2.12,.11,3.76,.05,5.21,0,2.49-.09,4.45-.16,7.86,.68,2.61,.64,12.1,9.67,14.77,14.32-.11,.14-.22,.28-.31,.43-1.74,2.75-1.03,6.38,1.62,8.25,.07,.05,.15,.1,.28,.19,.98,.62,2.11,.95,3.27,.95,2.12,0,4.05-1.07,5.17-2.85,.88-1.37,1.16-3.01,.8-4.6-.36-1.6-1.32-2.96-2.71-3.84-.98-.62-2.11-.94-3.27-.94-.53,0-1.05,.07-1.54,.2-2.56-4.19-8.65-10.46-13.19-13.79,1.81-.63,3.05-1.43,4.21-2.19,1.43-.93,2.61-1.69,4.86-2.07Zm3.88-26.92c.39-.61,1.05-.98,1.78-.98,.4,0,.79,.11,1.12,.33,.48,.3,.81,.78,.94,1.33,.12,.55,.02,1.11-.28,1.58-.6,.95-1.94,1.27-2.91,.65l-.09-.06c-.92-.65-1.16-1.9-.56-2.85Zm0,23.46c.39-.61,1.05-.98,1.78-.98,.4,0,.79,.11,1.12,.33,.48,.3,.81,.77,.94,1.33,.12,.55,.02,1.11-.28,1.58-.6,.95-1.94,1.27-2.91,.65l-.09-.06c-.92-.65-1.16-1.9-.56-2.85Zm0,26.3c.39-.61,1.05-.98,1.78-.98,.4,0,.79,.11,1.12,.33,.48,.3,.81,.78,.94,1.33,.12,.55,.02,1.11-.28,1.58-.6,.95-1.94,1.27-2.91,.65l-.09-.06c-.92-.65-1.16-1.9-.56-2.85Z"/></g><g><g><path class="g" d="M190.18,111.56c-1.17-1.36-2.86-2.14-4.65-2.14-1.46,0-2.88,.53-3.98,1.48-1.61,1.38-2.33,3.43-2.09,5.4-1.95,.7-4.26,1.37-5.33,1.33-.82-.04-1.3-.35-2.22-.97-1.17-.79-2.42-1.51-4.15-1.85,2.94-2.76,6.01-6.83,8.58-12.83,2.06-.08,3.98-1.19,5.04-2.97,1.72-2.9,.77-6.66-2.12-8.39-.95-.57-2.03-.86-3.13-.86-2.15,0-4.16,1.14-5.26,2.99-.84,1.41-1.08,3.05-.68,4.64,.35,1.39,1.16,2.59,2.3,3.43-4.05,9.22-9.22,13.08-12.57,14.68-.13,.04-.25,.1-.36,.17-1.19,.53-2.05,.7-2.56,.81v4c.28-.03,1.88-.12,4.25-1.19,5.35-1.36,6.84-.35,8.41,.71,1.02,.69,2.29,1.55,4.26,1.66,.1,0,.2,0,.31,0,2.11,0,5.17-1.02,7.02-1.72,1.14,1.12,2.68,1.75,4.29,1.75h0c1.46,0,2.88-.52,3.98-1.48,1.24-1.06,1.99-2.55,2.12-4.18,.12-1.63-.39-3.21-1.46-4.45Zm-15.87-16.78c.39-.64,1.07-1.03,1.82-1.03,.38,0,.75,.1,1.08,.3,1,.6,1.33,1.9,.74,2.9-.38,.65-1.06,1.03-1.82,1.03-.38,0-.75-.1-1.08-.3-.48-.29-.83-.75-.96-1.29-.14-.55-.06-1.12,.23-1.6Zm12.6,22.36c-.49,.42-1.02,.51-1.37,.51-.62,0-1.21-.27-1.61-.73-.76-.88-.65-2.22,.23-2.98,.49-.42,1.02-.51,1.37-.51,.62,0,1.2,.27,1.61,.74,.37,.43,.55,.98,.5,1.54-.04,.56-.3,1.07-.73,1.44Z"/><path d="M166,48.07c.07,.02,.14,.03,.21,.05-.07-.01-.14-.03-.21-.05Z"/><path class="g" d="M187.95,35.67c-.36-1.6-1.32-2.96-2.71-3.84-.98-.62-2.11-.94-3.26-.94-2.12,0-4.05,1.07-5.17,2.85-1.35,2.14-1.22,4.8,.14,6.76-3.65,4.12-8.71,4.31-9.94,4.29-3.69-1.6-7.23-2.16-10-2.32v4c2.44,.14,5.55,.69,8.75,2.14h.01c3.45,1.57,6.33,3.93,8.61,7.05-.14,.17-.26,.35-.38,.54-1.8,2.85-.94,6.64,1.9,8.44,.98,.62,2.11,.95,3.27,.95,2.11,0,4.05-1.07,5.18-2.85,1.81-2.85,.95-6.64-1.91-8.45-1.38-.87-3.09-1.11-4.67-.75-1.54-2.15-3.32-4.02-5.34-5.57,2.52-.78,5.4-2.27,7.78-5.1,.57,.17,1.17,.27,1.77,.27,2.12,0,4.05-1.07,5.17-2.85,.88-1.38,1.16-3.01,.8-4.6Zm-10.57,22.65c.17-.27,.39-.49,.67-.66,.33-.21,.72-.32,1.12-.32s.79,.11,1.12,.32c.99,.63,1.28,1.94,.66,2.92-.39,.62-1.06,.99-1.79,.99-.4,0-.79-.11-1.12-.33-.98-.62-1.28-1.94-.66-2.92Zm6.38-20.19c-.6,.95-1.94,1.27-2.91,.65l-.1-.06c-.91-.65-1.16-1.9-.56-2.85,.39-.61,1.05-.98,1.78-.98,.4,0,.79,.11,1.12,.33,.48,.3,.81,.78,.94,1.33,.12,.55,.03,1.11-.28,1.58Z"/><path class="g" d="M196.65,76.64c.42,1.04,1.14,1.96,2.11,2.65,.07,.05,.15,.11,.28,.19,.98,.62,2.11,.95,3.27,.95,2.12,0,4.05-1.07,5.17-2.85,.88-1.38,1.16-3.01,.8-4.6-.36-1.6-1.32-2.96-2.71-3.84-.98-.62-2.11-.94-3.27-.94-.12,0-.25,0-.38,.02-.71-3.16-.92-7.77,.04-11.26,.11,.01,.22,.02,.34,.02,2.12,0,4.05-1.07,5.17-2.85,.88-1.38,1.16-3.01,.8-4.6-.36-1.6-1.32-2.96-2.71-3.84-.98-.62-2.11-.94-3.27-.94-2.11,0-4.05,1.07-5.17,2.85-1.6,2.53-1.12,5.8,1.02,7.76,.02,.02,.05,.04,.07,.06-1.35,4.52-1.15,10.32-.04,14.42-.14,.13-.29,.25-.43,.4-.23,.25-.45,.53-.63,.82-.32,.5-.55,1.03-.71,1.58-3.37,.49-5.2,1.67-6.82,2.73-2.04,1.32-3.96,2.57-9.64,2.67-1.96-.23-3.55-.18-5.29-.12-1.43,.05-2.91,.11-4.85,0-1.33-.07-2.1-.88-3.46-2.42-1.8-2.05-4.22-4.65-9.37-5.02v4c3.29,.3,4.8,1.89,6.36,3.67,1.49,1.69,3.17,3.62,6.26,3.78,2.12,.11,3.76,.05,5.21,0,2.49-.09,4.45-.16,7.86,.68,2.61,.64,12.1,9.67,14.77,14.32-.11,.14-.22,.28-.31,.43-1.74,2.75-1.03,6.38,1.62,8.25,.07,.05,.15,.1,.28,.19,.98,.62,2.11,.95,3.27,.95,2.12,0,4.05-1.07,5.17-2.85,.88-1.37,1.16-3.01,.8-4.6-.36-1.6-1.32-2.96-2.71-3.84-.98-.62-2.11-.94-3.27-.94-.53,0-1.05,.07-1.54,.2-2.56-4.19-8.65-10.46-13.19-13.79,1.81-.63,3.05-1.43,4.21-2.19,1.43-.93,2.61-1.69,4.86-2.07Zm3.88-26.92c.39-.61,1.05-.98,1.78-.98,.4,0,.79,.11,1.12,.33,.48,.3,.81,.78,.94,1.33,.12,.55,.02,1.11-.28,1.58-.6,.95-1.94,1.27-2.91,.65l-.09-.06c-.92-.65-1.16-1.9-.56-2.85Zm0,23.46c.39-.61,1.05-.98,1.78-.98,.4,0,.79,.11,1.12,.33,.48,.3,.81,.77,.94,1.33,.12,.55,.02,1.11-.28,1.58-.6,.95-1.94,1.27-2.91,.65l-.09-.06c-.92-.65-1.16-1.9-.56-2.85Zm0,26.3c.39-.61,1.05-.98,1.78-.98,.4,0,.79,.11,1.12,.33,.48,.3,.81,.78,.94,1.33,.12,.55,.02,1.11-.28,1.58-.6,.95-1.94,1.27-2.91,.65l-.09-.06c-.92-.65-1.16-1.9-.56-2.85Z"/></g><g><path class="e" d="M190.18,108.56c-1.17-1.36-2.86-2.14-4.65-2.14-1.46,0-2.88,.53-3.98,1.48-1.61,1.38-2.33,3.43-2.09,5.4-1.95,.7-4.26,1.37-5.33,1.33-.82-.04-1.3-.35-2.22-.97-1.17-.79-2.42-1.51-4.15-1.85,2.94-2.76,6.01-6.83,8.58-12.83,2.06-.08,3.98-1.19,5.04-2.97,1.72-2.9,.77-6.66-2.12-8.39-.95-.57-2.03-.86-3.13-.86-2.15,0-4.16,1.14-5.26,2.99-.84,1.41-1.08,3.05-.68,4.64,.35,1.39,1.16,2.59,2.3,3.43-4.05,9.22-9.22,13.08-12.57,14.68-.13,.04-.25,.1-.36,.17-1.19,.53-2.05,.7-2.56,.81v4c.28-.03,1.88-.12,4.25-1.19,5.35-1.36,6.84-.35,8.41,.71,1.02,.69,2.29,1.55,4.26,1.66,.1,0,.2,0,.31,0,2.11,0,5.17-1.02,7.02-1.72,1.14,1.12,2.68,1.75,4.29,1.75h0c1.46,0,2.88-.52,3.98-1.48,1.24-1.06,1.99-2.55,2.12-4.18,.12-1.63-.39-3.21-1.46-4.45Zm-15.87-16.78c.39-.64,1.07-1.03,1.82-1.03,.38,0,.75,.1,1.08,.3,1,.6,1.33,1.9,.74,2.9-.38,.65-1.06,1.03-1.82,1.03-.38,0-.75-.1-1.08-.3-.48-.29-.83-.75-.96-1.29-.14-.55-.06-1.12,.23-1.6Zm12.6,22.36c-.49,.42-1.02,.51-1.37,.51-.62,0-1.21-.27-1.61-.73-.76-.88-.65-2.22,.23-2.98,.49-.42,1.02-.51,1.37-.51,.62,0,1.2,.27,1.61,.74,.37,.43,.55,.98,.5,1.54-.04,.56-.3,1.07-.73,1.44Z"/><path class="e" d="M166,45.66c.07,.02,.14,.03,.21,.05-.07-.01-.14-.03-.21-.05Z"/><path class="e" d="M187.95,32.66c-.36-1.6-1.32-2.96-2.71-3.84-.98-.62-2.11-.94-3.26-.94-2.12,0-4.05,1.07-5.17,2.85-1.35,2.14-1.22,4.8,.14,6.76-3.65,4.12-8.71,4.31-9.94,4.29-3.69-1.6-7.23-2.16-10-2.32v4c2.44,.14,5.55,.69,8.75,2.14h.01c3.45,1.57,6.33,3.93,8.61,7.05-.14,.17-.26,.35-.38,.54-1.8,2.85-.94,6.64,1.9,8.44,.98,.62,2.11,.95,3.27,.95,2.11,0,4.05-1.07,5.18-2.85,1.81-2.85,.95-6.64-1.91-8.45-1.38-.87-3.09-1.11-4.67-.75-1.54-2.15-3.32-4.02-5.34-5.57,2.52-.78,5.4-2.27,7.78-5.1,.57,.17,1.17,.27,1.77,.27,2.12,0,4.05-1.07,5.17-2.85,.88-1.38,1.16-3.01,.8-4.6Zm-10.57,22.65c.17-.27,.39-.49,.67-.66,.33-.21,.72-.32,1.12-.32s.79,.11,1.12,.32c.99,.63,1.28,1.94,.66,2.92-.39,.62-1.06,.99-1.79,.99-.4,0-.79-.11-1.12-.33-.98-.62-1.28-1.94-.66-2.92Zm6.38-20.19c-.6,.95-1.94,1.27-2.91,.65l-.1-.06c-.91-.65-1.16-1.9-.56-2.85,.39-.61,1.05-.98,1.78-.98,.4,0,.79,.11,1.12,.33,.48,.3,.81,.78,.94,1.33,.12,.55,.03,1.11-.28,1.58Z"/><path class="e" d="M196.65,73.64c.42,1.04,1.14,1.96,2.11,2.65,.07,.05,.15,.11,.28,.19,.98,.62,2.11,.95,3.27,.95,2.12,0,4.05-1.07,5.17-2.85,.88-1.38,1.16-3.01,.8-4.6-.36-1.6-1.32-2.96-2.71-3.84-.98-.62-2.11-.94-3.27-.94-.12,0-.25,0-.38,.02-.71-3.16-.92-7.77,.04-11.26,.11,.01,.22,.02,.34,.02,2.12,0,4.05-1.07,5.17-2.85,.88-1.38,1.16-3.01,.8-4.6-.36-1.6-1.32-2.96-2.71-3.84-.98-.62-2.11-.94-3.27-.94-2.11,0-4.05,1.07-5.17,2.85-1.6,2.53-1.12,5.8,1.02,7.76,.02,.02,.05,.04,.07,.06-1.35,4.52-1.15,10.32-.04,14.42-.14,.13-.29,.25-.43,.4-.23,.25-.45,.53-.63,.82-.32,.5-.55,1.03-.71,1.58-3.37,.49-5.2,1.67-6.82,2.73-2.04,1.32-3.96,2.57-9.64,2.67-1.96-.23-3.55-.18-5.29-.12-1.43,.05-2.91,.11-4.85,0-1.33-.07-2.1-.88-3.46-2.42-1.8-2.05-4.22-4.65-9.37-5.02v4c3.29,.3,4.8,1.89,6.36,3.67,1.49,1.69,3.17,3.62,6.26,3.78,2.12,.11,3.76,.05,5.21,0,2.49-.09,4.45-.16,7.86,.68,2.61,.64,12.1,9.67,14.77,14.32-.11,.14-.22,.28-.31,.43-1.74,2.75-1.03,6.38,1.62,8.25,.07,.05,.15,.1,.28,.19,.98,.62,2.11,.95,3.27,.95,2.12,0,4.05-1.07,5.17-2.85,.88-1.37,1.16-3.01,.8-4.6-.36-1.6-1.32-2.96-2.71-3.84-.98-.62-2.11-.94-3.27-.94-.53,0-1.05,.07-1.54,.2-2.56-4.19-8.65-10.46-13.19-13.79,1.81-.63,3.05-1.43,4.21-2.19,1.43-.93,2.61-1.69,4.86-2.07Zm3.88-26.92c.39-.61,1.05-.98,1.78-.98,.4,0,.79,.11,1.12,.33,.48,.3,.81,.78,.94,1.33,.12,.55,.02,1.11-.28,1.58-.6,.95-1.94,1.27-2.91,.65l-.09-.06c-.92-.65-1.16-1.9-.56-2.85Zm0,23.46c.39-.61,1.05-.98,1.78-.98,.4,0,.79,.11,1.12,.33,.48,.3,.81,.77,.94,1.33,.12,.55,.02,1.11-.28,1.58-.6,.95-1.94,1.27-2.91,.65l-.09-.06c-.92-.65-1.16-1.9-.56-2.85Zm0,26.3c.39-.61,1.05-.98,1.78-.98,.4,0,.79,.11,1.12,.33,.48,.3,.81,.78,.94,1.33,.12,.55,.02,1.11-.28,1.58-.6,.95-1.94,1.27-2.91,.65l-.09-.06c-.92-.65-1.16-1.9-.56-2.85Z"/></g></g></g></g><g><rect class="e" x="141" y="19.46" width="6" height="4"/><rect class="e" x="141" y="26.46" width="6" height="4"/><rect class="e" x="141" y="33.46" width="6" height="4"/><rect class="e" x="141" y="40.46" width="6" height="4"/><rect class="e" x="141" y="47.46" width="6" height="4"/><rect class="e" x="141" y="54.46" width="6" height="4"/><rect class="e" x="141" y="61.46" width="6" height="4"/><rect class="e" x="141" y="68.46" width="6" height="4"/><rect class="c" x="141" y="75.46" width="6" height="4"/><rect class="c" x="141" y="82.46" width="6" height="4"/><rect class="c" x="141" y="89.46" width="6" height="4"/><rect class="c" x="141" y="96.46" width="6" height="4"/><rect class="c" x="141" y="103.46" width="6" height="4"/><rect class="c" x="141" y="110.46" width="6" height="4"/><rect class="c" x="141" y="117.46" width="6" height="4"/><rect class="c" x="141" y="124.46" width="6" height="4"/><rect class="e" x="132" y="33.46" width="6" height="4"/><rect class="e" x="132" y="40.46" width="6" height="4"/><rect class="e" x="132" y="47.46" width="6" height="4"/><rect class="e" x="132" y="54.46" width="6" height="4"/><rect class="e" x="132" y="61.46" width="6" height="4"/><rect class="e" x="132" y="68.46" width="6" height="4"/><rect class="c" x="132" y="75.46" width="6" height="4"/><rect class="c" x="132" y="82.46" width="6" height="4"/><rect class="c" x="132" y="89.46" width="6" height="4"/><rect class="c" x="132" y="96.46" width="6" height="4"/><rect class="c" x="132" y="103.46" width="6" height="4"/><rect class="c" x="132" y="110.46" width="6" height="4"/><rect class="e" x="123" y="61.46" width="6" height="4"/><rect class="e" x="123" y="68.46" width="6" height="4"/><rect class="c" x="123" y="75.46" width="6" height="4"/><rect class="c" x="123" y="82.46" width="6" height="4"/><rect class="e" x="114" y="47.46" width="6" height="4"/><rect class="e" x="114" y="54.46" width="6" height="4"/><rect class="e" x="114" y="61.46" width="6" height="4"/><rect class="e" x="114" y="68.46" width="6" height="4"/><rect class="c" x="114" y="75.46" width="6" height="4"/><rect class="c" x="114" y="82.46" width="6" height="4"/><rect class="c" x="114" y="89.46" width="6" height="4"/><rect class="c" x="114" y="96.46" width="6" height="4"/><rect class="e" x="105" y="68.46" width="6" height="4"/><rect class="c" x="105" y="75.46" width="6" height="4"/><rect class="e" x="96" y="61.46" width="6" height="4"/><rect class="e" x="96" y="68.46" width="6" height="4"/><rect class="c" x="96" y="75.46" width="6" height="4"/><rect class="c" x="96" y="82.46" width="6" height="4"/></g></g></g></g></g></svg>