<?xml version="1.0" encoding="UTF-8"?><svg id="a" xmlns="http://www.w3.org/2000/svg" viewBox="0 0 200 190"><defs><style>.b{fill:#8db2e3;}.c{fill:#fffedb;}.d{fill:#4e7ec2;}.e{fill:#eb743b;}</style></defs><g><path class="d" d="M22.72,135.3H12.3l-1.91,6.7H1.82l11.67-35.3h8.03l11.79,35.3h-8.6l-1.97-6.7Zm-8.54-6.45h6.64l-3.36-11.39-3.27,11.39Z"/><path class="d" d="M47.52,136.01c2.29,0,3.45-1.49,3.48-4.46h7.41c-.04,3.29-1.05,5.95-3.04,7.97s-4.55,3.04-7.69,3.04c-3.88,0-6.85-1.21-8.89-3.62-2.04-2.42-3.08-5.97-3.12-10.68v-2.4c0-4.74,1.01-8.35,3.02-10.84,2.02-2.49,4.99-3.73,8.93-3.73,3.33,0,5.95,1.03,7.86,3.08s2.89,4.97,2.93,8.74h-7.41c-.02-1.69-.3-2.99-.84-3.9-.54-.91-1.43-1.37-2.68-1.37-1.38,0-2.36,.49-2.96,1.46s-.91,2.87-.95,5.67v3.07c0,2.45,.12,4.17,.36,5.14,.24,.98,.64,1.69,1.2,2.15s1.35,.68,2.37,.68Z"/><path class="d" d="M61.96,125.94c0-4.57,1.08-8.16,3.23-10.76,2.16-2.6,5.14-3.9,8.95-3.9s6.85,1.3,9,3.9c2.16,2.6,3.23,6.21,3.23,10.81v1.92c0,4.59-1.07,8.18-3.21,10.76-2.14,2.58-5.13,3.88-8.98,3.88s-6.87-1.3-9.02-3.89c-2.15-2.59-3.22-6.19-3.22-10.8v-1.92Zm7.92,1.98c0,5.39,1.44,8.08,4.32,8.08,2.66,0,4.09-2.25,4.29-6.75l.03-3.32c0-2.75-.38-4.79-1.14-6.12-.76-1.33-1.84-1.99-3.23-1.99s-2.38,.67-3.14,1.99c-.75,1.33-1.13,3.37-1.13,6.12v1.98Z"/><path class="d" d="M106.11,139.24c-1.64,2.21-3.83,3.32-6.58,3.32s-4.87-.95-6.3-2.86c-1.43-1.9-2.15-4.68-2.15-8.32v-19.54h7.89v19.73c.04,2.94,1.01,4.4,2.93,4.4,1.8,0,3.1-.78,3.9-2.34v-21.8h7.94v30.16h-7.41l-.22-2.76Z"/><path class="d" d="M132.73,133.92c0-.67-.32-1.29-.96-1.85-.64-.57-2.07-1.33-4.28-2.3-3.25-1.32-5.49-2.69-6.7-4.1s-1.83-3.17-1.83-5.27c0-2.64,.95-4.82,2.86-6.54,1.91-1.72,4.43-2.58,7.57-2.58,3.31,0,5.96,.85,7.94,2.56,1.99,1.71,2.98,4,2.98,6.88h-7.89c0-2.45-1.02-3.68-3.07-3.68-.84,0-1.52,.26-2.06,.78-.54,.52-.81,1.25-.81,2.17,0,.67,.3,1.26,.89,1.77,.59,.51,2,1.24,4.21,2.19,3.21,1.19,5.49,2.51,6.81,3.97,1.33,1.46,1.99,3.35,1.99,5.67,0,2.69-1.01,4.86-3.04,6.49-2.03,1.64-4.68,2.45-7.97,2.45-2.21,0-4.16-.43-5.85-1.3-1.69-.86-3.02-2.07-3.97-3.61-.96-1.54-1.44-3.21-1.44-4.99h7.5c.04,1.38,.36,2.41,.96,3.09,.6,.69,1.59,1.03,2.97,1.03,2.12,0,3.18-.96,3.18-2.87Z"/><path class="d" d="M154.47,104.43v7.42h4.04v5.91h-4.04v14.99c0,1.19,.16,2.01,.49,2.46,.33,.45,.95,.67,1.88,.67,.76,0,1.38-.07,1.87-.2l-.06,6.13c-1.34,.5-2.79,.75-4.35,.75-5.09,0-7.67-2.92-7.72-8.76v-16.04h-3.48v-5.91h3.48v-7.42h7.89Z"/><path class="d" d="M162.83,104.04c0-1.23,.39-2.23,1.17-3.01s1.82-1.17,3.12-1.17,2.34,.39,3.12,1.17c.78,.78,1.17,1.78,1.17,3.01s-.39,2.21-1.16,3.01c-.77,.8-1.82,1.2-3.14,1.2s-2.37-.4-3.14-1.2c-.77-.8-1.16-1.8-1.16-3.01Zm8.28,37.96h-7.92v-30.16h7.92v30.16Z"/><path class="d" d="M188.12,136.01c2.29,0,3.45-1.49,3.48-4.46h7.41c-.04,3.29-1.05,5.95-3.04,7.97s-4.55,3.04-7.69,3.04c-3.88,0-6.85-1.21-8.89-3.62-2.04-2.42-3.08-5.97-3.12-10.68v-2.4c0-4.74,1.01-8.35,3.02-10.84,2.02-2.49,4.99-3.73,8.93-3.73,3.33,0,5.95,1.03,7.86,3.08s2.89,4.97,2.93,8.74h-7.41c-.02-1.69-.3-2.99-.84-3.9-.54-.91-1.43-1.37-2.68-1.37-1.38,0-2.36,.49-2.96,1.46s-.91,2.87-.95,5.67v3.07c0,2.45,.12,4.17,.36,5.14,.24,.98,.64,1.69,1.2,2.15s1.35,.68,2.37,.68Z"/><path class="e" d="M31.95,188v-35.3h12c4.12,0,7.27,.83,9.44,2.5,2.17,1.67,3.26,4.08,3.26,7.26,0,1.8-.39,3.36-1.18,4.7-.79,1.33-1.95,2.31-3.48,2.94,1.66,.49,2.94,1.41,3.85,2.77s1.36,3.04,1.36,5.01c0,3.51-1.02,6.08-3.06,7.7-2.04,1.62-5.11,2.42-9.21,2.42h-12.97Zm8.57-20.63h4.12c2.28-.06,3.42-1.27,3.42-3.64,0-1.39-.28-2.39-.85-2.98s-1.43-.89-2.61-.89h-4.09v7.51Zm0,5.97v7.6h4.39c1.19,0,2.11-.32,2.74-.97,.64-.65,.95-1.54,.95-2.68,0-2.55-1.03-3.87-3.09-3.95h-5Z"/><path class="e" d="M77.31,165.45l-2.62-.22c-2.16,0-3.61,.95-4.38,2.84v19.93h-7.92v-30.16h7.44l.22,3.26c1.24-2.55,2.96-3.82,5.16-3.82,.89,0,1.62,.12,2.17,.36l-.08,7.8Z"/><path class="e" d="M94.84,188c-.22-.46-.45-1.25-.67-2.34-1.41,1.93-3.33,2.9-5.74,2.9s-4.62-.84-6.29-2.51c-1.66-1.67-2.5-3.84-2.5-6.49,0-3.16,1.01-5.6,3.02-7.33,2.02-1.73,4.92-2.61,8.71-2.65h2.4v-2.42c0-1.36-.23-2.31-.7-2.87-.46-.56-1.14-.84-2.04-.84-1.97,0-2.95,1.15-2.95,3.46h-7.89c0-2.79,1.04-5.09,3.14-6.9,2.09-1.81,4.73-2.72,7.93-2.72s5.87,.86,7.68,2.58,2.72,4.18,2.72,7.37v14.19c.04,2.6,.41,4.64,1.12,6.1v.47h-7.94Zm-4.66-5.63c.87,0,1.62-.18,2.23-.53,.61-.35,1.07-.77,1.37-1.25v-6.27h-1.9c-1.34,0-2.39,.43-3.16,1.28-.77,.86-1.16,2-1.16,3.43,0,2.23,.87,3.34,2.62,3.34Z"/><path class="e" d="M107.39,150.04c0-1.23,.39-2.23,1.17-3.01s1.82-1.17,3.12-1.17,2.34,.39,3.12,1.17c.78,.78,1.17,1.78,1.17,3.01s-.39,2.21-1.16,3.01c-.77,.8-1.82,1.2-3.14,1.2s-2.37-.4-3.14-1.2c-.77-.8-1.16-1.8-1.16-3.01Zm8.28,37.96h-7.92v-30.16h7.92v30.16Z"/><path class="e" d="M128.99,157.84l.22,2.98c1.78-2.36,4.12-3.54,7-3.54,5.18,0,7.85,3.63,8,10.9v19.82h-7.92v-19.23c0-1.71-.26-2.95-.77-3.72-.51-.77-1.41-1.16-2.69-1.16-1.43,0-2.55,.73-3.34,2.2v21.91h-7.92v-30.16h7.42Z"/><path class="e" d="M158.59,181.45h11.93v6.55h-21.3v-4.93l11.65-18.65h-11.37v-6.58h20.85v4.77l-11.76,18.84Z"/></g><g><polygon class="e" points="102 3 102 99 143 75 143 27 102 3"/><polygon class="d" points="99 3 58 27 58 75 99 99 99 3"/><rect class="c" x="90" y="17" width="6" height="4"/><rect class="c" x="90" y="24" width="6" height="4"/><rect class="c" x="90" y="31" width="6" height="4"/><rect class="c" x="90" y="38" width="6" height="4"/><rect class="c" x="90" y="45" width="6" height="4"/><rect class="b" x="90" y="52" width="6" height="4"/><rect class="b" x="90" y="59" width="6" height="4"/><rect class="b" x="90" y="66" width="6" height="4"/><rect class="b" x="90" y="73" width="6" height="4"/><rect class="b" x="90" y="80" width="6" height="4"/><rect class="c" x="81" y="31" width="6" height="4"/><rect class="c" x="81" y="38" width="6" height="4"/><rect class="c" x="81" y="45" width="6" height="4"/><rect class="b" x="81" y="52" width="6" height="4"/><rect class="b" x="81" y="59" width="6" height="4"/><rect class="b" x="81" y="66" width="6" height="4"/><rect class="c" x="72" y="45" width="6" height="4"/><rect class="b" x="72" y="52" width="6" height="4"/><rect class="c" x="63" y="38" width="6" height="4"/><rect class="c" x="63" y="45" width="6" height="4"/><rect class="b" x="63" y="52" width="6" height="4"/><rect class="b" x="63" y="59" width="6" height="4"/><path class="c" d="M134.28,59.09c-1.24-1.97-3.38-3.15-5.72-3.15-.67,0-1.32,.1-1.96,.29-2.63-3.12-5.82-4.78-8.6-5.64,2.24-1.71,4.21-3.77,5.91-6.15,1.74,.39,3.63,.13,5.16-.83,3.16-2.01,4.1-6.2,2.1-9.35-1.25-1.97-3.39-3.15-5.72-3.15-1.28,0-2.53,.36-3.62,1.05-3.15,1.99-4.09,6.18-2.11,9.34,.13,.21,.27,.4,.42,.6-2.51,3.44-5.71,6.06-9.52,7.79h-.01c-3.53,1.61-5.62,2.12-8.62,2.12v5c4,0,5.93-1.12,10.02-2.9,1.37-.02,6.96,.18,10.99,4.75-1.51,2.16-1.66,5.11-.16,7.47,1.24,1.97,3.38,3.15,5.72,3.15,1.28,0,2.52-.36,3.61-1.04,1.54-.97,2.6-2.48,3-4.25,.4-1.76,.08-3.57-.89-5.09Zm-10.22-23.42c.42-.27,.9-.41,1.4-.41,.9,0,1.73,.46,2.22,1.22,.77,1.21,.4,2.84-.82,3.61-.41,.26-.9,.4-1.39,.4s-.97-.13-1.39-.39c-.34-.21-.62-.49-.83-.82-.77-1.22-.41-2.85,.81-3.62Zm7.06,27.6c-.15,.69-.56,1.27-1.16,1.64-.41,.26-.9,.41-1.39,.41-.91,0-1.73-.46-2.21-1.22-.75-1.18-.44-2.73,.69-3.53l.12-.08c1.21-.77,2.87-.37,3.61,.81,.38,.59,.5,1.29,.34,1.97Z"/></g></svg>