<svg id="Layer_1" data-name="Layer 1" xmlns="http://www.w3.org/2000/svg" viewBox="0 0 27 30"><defs><style>.cls-1{fill:#eb743b;}.cls-2{fill:#4e7ec2;}.cls-3{fill:#fffedb;}.cls-4{fill:#8db2e3;}</style></defs><polygon class="cls-1" points="13.93 1 13.93 29 25.89 22 25.89 8 13.93 1"/><polygon class="cls-2" points="13.06 1 1.1 8 1.1 22 13.06 29 13.06 1"/><rect class="cls-3" x="10.43" y="5.08" width="1.75" height="1.17"/><rect class="cls-3" x="10.43" y="7.12" width="1.75" height="1.17"/><rect class="cls-3" x="10.43" y="9.16" width="1.75" height="1.17"/><rect class="cls-3" x="10.43" y="11.21" width="1.75" height="1.17"/><rect class="cls-3" x="10.43" y="13.25" width="1.75" height="1.17"/><rect class="cls-4" x="10.43" y="15.29" width="1.75" height="1.17"/><rect class="cls-4" x="10.43" y="17.33" width="1.75" height="1.17"/><rect class="cls-4" x="10.43" y="19.37" width="1.75" height="1.17"/><rect class="cls-4" x="10.43" y="21.41" width="1.75" height="1.17"/><rect class="cls-4" x="10.43" y="23.46" width="1.75" height="1.17"/><rect class="cls-3" x="7.81" y="9.16" width="1.75" height="1.17"/><rect class="cls-3" x="7.81" y="11.21" width="1.75" height="1.17"/><rect class="cls-3" x="7.81" y="13.25" width="1.75" height="1.17"/><rect class="cls-4" x="7.81" y="15.29" width="1.75" height="1.17"/><rect class="cls-4" x="7.81" y="17.33" width="1.75" height="1.17"/><rect class="cls-4" x="7.81" y="19.37" width="1.75" height="1.17"/><rect class="cls-3" x="5.18" y="13.25" width="1.75" height="1.17"/><rect class="cls-4" x="5.18" y="15.29" width="1.75" height="1.17"/><rect class="cls-3" x="2.56" y="11.21" width="1.75" height="1.17"/><rect class="cls-3" x="2.56" y="13.25" width="1.75" height="1.17"/><rect class="cls-4" x="2.56" y="15.29" width="1.75" height="1.17"/><rect class="cls-4" x="2.56" y="17.33" width="1.75" height="1.17"/><path class="cls-3" d="M23.35,17.36a2,2,0,0,0-1.67-.92,2.12,2.12,0,0,0-.57.08,5.29,5.29,0,0,0-2.51-1.64,8.36,8.36,0,0,0,1.72-1.79,2.05,2.05,0,0,0,1.51-.25A2,2,0,0,0,20.77,9.2a1.94,1.94,0,0,0-1.05.3,2,2,0,0,0-.62,2.73l.13.17a7,7,0,0,1-2.78,2.27h0a5.39,5.39,0,0,1-2.52.62v1.46a6.33,6.33,0,0,0,2.92-.85,4.36,4.36,0,0,1,3.21,1.39,2,2,0,0,0,1.62,3.09,1.94,1.94,0,0,0,1.05-.3,2,2,0,0,0,.62-2.72Zm-3-6.83a.72.72,0,0,1,.4-.12.76.76,0,0,1,.65.35.77.77,0,0,1-.24,1.06.8.8,0,0,1-.4.11.72.72,0,0,1-.41-.11.69.69,0,0,1-.24-.24A.75.75,0,0,1,20.37,10.53Zm2.05,8a.74.74,0,0,1-.33.48.87.87,0,0,1-.41.11.74.74,0,0,1-.64-.35.76.76,0,0,1,.2-1l0,0a.77.77,0,0,1,1.05.23A.75.75,0,0,1,22.42,18.58Z"/></svg>