<?xml version="1.0" encoding="UTF-8"?><svg id="a" xmlns="http://www.w3.org/2000/svg" viewBox="0 0 180 200"><defs><style>.b{fill:#fffedb;}.c{fill:#36b5b2;}.d{fill:#65d9d7;}.e{fill:#eb743b;}</style></defs><g><polygon class="e" points="92 3 92 99 133 75 133 27 92 3"/><polygon class="c" points="89 3 48 27 48 75 89 99 89 3"/><path class="b" d="M124.28,59.09c-1.24-1.97-3.38-3.15-5.72-3.15-.67,0-1.32,.1-1.96,.29-2.63-3.12-5.82-4.78-8.6-5.64,2.24-1.71,4.21-3.77,5.91-6.15,1.74,.39,3.63,.13,5.16-.83,3.16-2.01,4.1-6.2,2.1-9.35-1.25-1.97-3.39-3.15-5.72-3.15-1.28,0-2.53,.36-3.62,1.05-3.15,1.99-4.09,6.18-2.11,9.34,.13,.21,.27,.4,.42,.6-2.51,3.44-5.71,6.06-9.52,7.79h-.01c-3.53,1.61-5.62,2.12-8.62,2.12v5c4,0,5.93-1.12,10.02-2.9,1.37-.02,6.96,.18,10.99,4.75-1.51,2.16-1.66,5.11-.16,7.47,1.24,1.97,3.38,3.15,5.72,3.15,1.28,0,2.52-.36,3.61-1.04,1.54-.97,2.6-2.48,3-4.25,.4-1.76,.08-3.57-.89-5.09Zm-10.22-23.42c.42-.27,.9-.41,1.4-.41,.9,0,1.73,.46,2.22,1.22,.77,1.21,.4,2.84-.82,3.61-.41,.26-.9,.4-1.39,.4s-.97-.13-1.39-.39c-.34-.21-.62-.49-.83-.82-.77-1.22-.41-2.85,.81-3.62Zm7.06,27.6c-.15,.69-.56,1.27-1.16,1.64-.41,.26-.9,.41-1.39,.41-.91,0-1.73-.46-2.21-1.22-.75-1.18-.44-2.73,.69-3.53l.12-.08c1.21-.77,2.87-.37,3.61,.81,.38,.59,.5,1.29,.34,1.97Z"/><polygon class="d" points="59.04 32.14 58.11 58.94 64.11 65.85 64.29 65.86 63.68 74.33 80.03 66.51 89 66.88 89 27.09 65.95 26.14 59.04 32.14"/><g><path class="b" d="M69.38,53.47c-.04,1.42,1.33,2.63,2.43,2.68l17.2,.85v-5l-17.05-.84c-1.13-.08-2.53,.89-2.58,2.31Z"/><path class="b" d="M69.38,41.15c-.04,1.42,1.33,2.63,2.43,2.68l17.2,.85v-5l-17.05-.84c-1.13-.08-2.53,.89-2.58,2.31Z"/></g></g><g><path class="c" d="M29.28,135.91c-.16,3.9-1.45,6.97-3.86,9.21s-5.6,3.36-9.56,3.36c-4.28,0-7.65-1.52-10.1-4.56s-3.68-7.33-3.68-12.86v-1.48c0-5.33,1.24-9.56,3.73-12.68s5.81-4.68,9.97-4.68,7.12,1.13,9.48,3.39c2.36,2.26,3.73,5.42,4.09,9.48h-8.6c0-3.84-1.66-5.76-4.97-5.76-1.74,0-3.01,.81-3.83,2.43s-1.24,4.13-1.26,7.52v1.91c0,3.74,.4,6.38,1.2,7.92s2.13,2.31,3.98,2.31c1.64,0,2.85-.44,3.64-1.32s1.19-2.28,1.21-4.2h8.57Z"/><path class="c" d="M48.58,125.45l-2.62-.22c-2.16,0-3.61,.95-4.38,2.84v19.93h-7.92v-30.16h7.44l.22,3.26c1.24-2.55,2.96-3.82,5.16-3.82,.89,0,1.62,.12,2.17,.36l-.08,7.8Z"/><path class="c" d="M52.62,110.04c0-1.23,.39-2.23,1.17-3.01s1.82-1.17,3.12-1.17,2.34,.39,3.12,1.17c.78,.78,1.17,1.78,1.17,3.01s-.39,2.21-1.16,3.01c-.77,.8-1.82,1.2-3.14,1.2s-2.37-.4-3.14-1.2c-.77-.8-1.16-1.8-1.16-3.01Zm8.28,37.96h-7.92v-30.16h7.92v30.16Z"/><path class="c" d="M76.17,110.43v7.42h4.04v5.91h-4.04v14.99c0,1.19,.16,2.01,.49,2.46,.33,.45,.95,.67,1.88,.67,.76,0,1.38-.07,1.87-.2l-.06,6.13c-1.34,.5-2.79,.75-4.35,.75-5.09,0-7.67-2.92-7.72-8.76v-16.04h-3.48v-5.91h3.48v-7.42h7.89Z"/><path class="c" d="M84.54,110.04c0-1.23,.39-2.23,1.17-3.01s1.82-1.17,3.12-1.17,2.34,.39,3.12,1.17c.78,.78,1.17,1.78,1.17,3.01s-.39,2.21-1.16,3.01c-.77,.8-1.82,1.2-3.14,1.2s-2.37-.4-3.14-1.2c-.77-.8-1.16-1.8-1.16-3.01Zm8.28,37.96h-7.92v-30.16h7.92v30.16Z"/><path class="c" d="M97.86,131.94c0-4.94,.83-8.62,2.48-11.04,1.65-2.42,4.11-3.62,7.36-3.62,2.64,0,4.74,1.19,6.3,3.57l.5-3.01h6.88v41.75h-7.92v-13.94c-1.47,1.93-3.4,2.9-5.8,2.9-3.18,0-5.6-1.23-7.26-3.69-1.66-2.46-2.51-6.01-2.55-10.63v-2.29Zm7.92,1.98c0,2.92,.32,4.99,.95,6.23,.63,1.24,1.71,1.85,3.23,1.85s2.77-.62,3.51-1.87v-14.36c-.74-1.3-1.9-1.95-3.48-1.95s-2.58,.6-3.22,1.81c-.64,1.21-.97,3.22-.99,6.05v2.23Z"/><path class="c" d="M142.12,145.24c-1.64,2.21-3.83,3.32-6.58,3.32s-4.87-.95-6.3-2.86c-1.43-1.9-2.15-4.68-2.15-8.32v-19.54h7.89v19.73c.04,2.94,1.01,4.4,2.93,4.4,1.8,0,3.1-.78,3.9-2.34v-21.8h7.94v30.16h-7.41l-.22-2.76Z"/><path class="c" d="M167.57,148.56c-4.05,0-7.21-1.21-9.48-3.62-2.27-2.42-3.4-5.87-3.4-10.37v-2.4c0-4.76,1.04-8.43,3.12-11.01,2.08-2.58,5.06-3.87,8.95-3.87s6.64,1.21,8.56,3.63c1.91,2.42,2.89,6.01,2.93,10.76v3.87h-15.69c.11,2.24,.6,3.88,1.48,4.91,.87,1.04,2.22,1.55,4.04,1.55,2.64,0,4.84-.9,6.61-2.7l3.09,4.77c-.97,1.34-2.37,2.42-4.21,3.25-1.84,.83-3.84,1.24-5.99,1.24Zm-4.96-18.51h7.89v-.72c-.04-1.8-.33-3.17-.89-4.1-.56-.93-1.52-1.39-2.9-1.39s-2.37,.49-3,1.48c-.62,.99-.99,2.56-1.1,4.74Z"/><path class="e" d="M20.95,197v-35.3h12c4.12,0,7.27,.83,9.44,2.5,2.17,1.67,3.26,4.08,3.26,7.26,0,1.8-.39,3.36-1.18,4.7-.79,1.33-1.95,2.31-3.48,2.94,1.66,.49,2.94,1.41,3.85,2.77s1.36,3.04,1.36,5.01c0,3.51-1.02,6.08-3.06,7.7-2.04,1.62-5.11,2.42-9.21,2.42h-12.97Zm8.57-20.63h4.12c2.28-.06,3.42-1.27,3.42-3.64,0-1.39-.28-2.39-.85-2.98s-1.43-.89-2.61-.89h-4.09v7.51Zm0,5.97v7.6h4.39c1.19,0,2.11-.32,2.74-.97,.64-.65,.95-1.54,.95-2.68,0-2.55-1.03-3.87-3.09-3.95h-5Z"/><path class="e" d="M66.31,174.45l-2.62-.22c-2.16,0-3.61,.95-4.38,2.84v19.93h-7.92v-30.16h7.44l.22,3.26c1.24-2.55,2.96-3.82,5.16-3.82,.89,0,1.62,.12,2.17,.36l-.08,7.8Z"/><path class="e" d="M83.84,197c-.22-.46-.45-1.25-.67-2.34-1.41,1.93-3.33,2.9-5.74,2.9s-4.62-.84-6.29-2.51c-1.66-1.67-2.5-3.84-2.5-6.49,0-3.16,1.01-5.6,3.02-7.33,2.02-1.73,4.92-2.61,8.71-2.65h2.4v-2.42c0-1.36-.23-2.31-.7-2.87-.46-.56-1.14-.84-2.04-.84-1.97,0-2.95,1.15-2.95,3.46h-7.89c0-2.79,1.04-5.09,3.14-6.9,2.09-1.81,4.73-2.72,7.93-2.72s5.87,.86,7.68,2.58,2.72,4.18,2.72,7.37v14.19c.04,2.6,.41,4.64,1.12,6.1v.47h-7.94Zm-4.66-5.63c.87,0,1.62-.18,2.23-.53,.61-.35,1.07-.77,1.37-1.25v-6.27h-1.9c-1.34,0-2.39,.43-3.16,1.28-.77,.86-1.16,2-1.16,3.43,0,2.23,.87,3.34,2.62,3.34Z"/><path class="e" d="M96.39,159.04c0-1.23,.39-2.23,1.17-3.01s1.82-1.17,3.12-1.17,2.34,.39,3.12,1.17c.78,.78,1.17,1.78,1.17,3.01s-.39,2.21-1.16,3.01c-.77,.8-1.82,1.2-3.14,1.2s-2.37-.4-3.14-1.2c-.77-.8-1.16-1.8-1.16-3.01Zm8.28,37.96h-7.92v-30.16h7.92v30.16Z"/><path class="e" d="M117.99,166.84l.22,2.98c1.78-2.36,4.12-3.54,7-3.54,5.18,0,7.85,3.63,8,10.9v19.82h-7.92v-19.23c0-1.71-.26-2.95-.77-3.72-.51-.77-1.41-1.16-2.69-1.16-1.43,0-2.55,.73-3.34,2.2v21.91h-7.92v-30.16h7.42Z"/><path class="e" d="M147.59,190.45h11.93v6.55h-21.3v-4.93l11.65-18.65h-11.37v-6.58h20.85v4.77l-11.76,18.84Z"/></g></svg>