<?xml version="1.0" encoding="UTF-8"?><svg id="a" xmlns="http://www.w3.org/2000/svg" viewBox="0 0 300.41 100"><defs><style>.b{fill:#fffedb;}.c{fill:#36b5b2;}.d{fill:#65d9d7;}.e{fill:#eb743b;}</style></defs><g><path class="c" d="M135.1,33.76c-.12,2.72-.86,5.13-2.2,7.21-1.34,2.09-3.23,3.7-5.65,4.85s-5.2,1.72-8.31,1.72c-5.14,0-9.18-1.67-12.14-5.02-2.95-3.35-4.43-8.08-4.43-14.18v-1.93c0-3.83,.67-7.18,2-10.06,1.33-2.87,3.25-5.09,5.76-6.66s5.41-2.35,8.7-2.35c4.74,0,8.56,1.25,11.44,3.75,2.88,2.5,4.52,5.94,4.91,10.33h-9.4c-.07-2.38-.67-4.09-1.8-5.13s-2.85-1.56-5.16-1.56-4.06,.88-5.16,2.63-1.67,4.56-1.72,8.41v2.77c0,4.17,.52,7.15,1.57,8.94,1.05,1.79,2.85,2.69,5.41,2.69,2.17,0,3.82-.51,4.97-1.53,1.15-1.02,1.75-2.64,1.83-4.86h9.37Z"/><path class="c" d="M156.72,26.13l-2.98-.21c-2.85,0-4.67,.9-5.48,2.69v18.4h-9.05V17.94h8.49l.29,3.73c1.52-2.85,3.64-4.27,6.37-4.27,.97,0,1.81,.11,2.52,.32l-.16,8.41Z"/><path class="c" d="M159.92,10.42c0-1.3,.47-2.36,1.4-3.19,.93-.83,2.14-1.24,3.62-1.24s2.7,.41,3.63,1.24c.93,.83,1.4,1.89,1.4,3.19s-.47,2.36-1.4,3.19-2.14,1.24-3.63,1.24-2.69-.41-3.62-1.24-1.4-1.89-1.4-3.19Zm9.61,36.58h-9.08V17.94h9.08v29.06Z"/><path class="c" d="M185.65,10.72v7.22h4.78v6.28h-4.78v13.29c0,1.09,.2,1.85,.59,2.28,.39,.43,1.17,.64,2.34,.64,.9,0,1.65-.05,2.26-.16v6.47c-1.63,.52-3.33,.78-5.1,.78-3.12,0-5.42-.73-6.9-2.2-1.49-1.47-2.23-3.7-2.23-6.69v-14.42h-3.71v-6.28h3.71v-7.22h9.05Z"/><path class="c" d="M193.92,10.42c0-1.3,.47-2.36,1.4-3.19,.93-.83,2.14-1.24,3.62-1.24s2.7,.41,3.63,1.24c.93,.83,1.4,1.89,1.4,3.19s-.47,2.36-1.4,3.19-2.14,1.24-3.63,1.24-2.69-.41-3.62-1.24-1.4-1.89-1.4-3.19Zm9.61,36.58h-9.08V17.94h9.08v29.06Z"/><path class="c" d="M207.96,32.18c0-4.62,1-8.24,3.01-10.85s4.77-3.92,8.3-3.92c2.97,0,5.35,1.22,7.14,3.65l.64-3.12h7.84V58.17h-9.08v-13.59c-1.74,1.97-3.94,2.95-6.61,2.95-3.44,0-6.17-1.33-8.2-3.99-2.03-2.66-3.05-6.45-3.05-11.37Zm9.05,.56c0,5.21,1.5,7.81,4.51,7.81,2.08,0,3.51-.79,4.3-2.36v-11.49c-.75-1.54-2.17-2.31-4.24-2.31-2.81,0-4.32,2.25-4.54,6.74l-.03,1.61Z"/><path class="c" d="M257.32,43.86c-1.92,2.45-4.5,3.68-7.76,3.68s-5.6-.93-7.24-2.78c-1.64-1.85-2.46-4.52-2.46-7.99V17.94h9.05v18.88c0,2.49,1.21,3.73,3.63,3.73,2.08,0,3.55-.74,4.43-2.23V17.94h9.1v29.06h-8.49l-.27-3.14Z"/><path class="c" d="M285.09,47.54c-4.46,0-8.07-1.33-10.82-3.99-2.76-2.66-4.13-6.12-4.13-10.38v-.75c0-2.97,.55-5.6,1.65-7.87,1.1-2.27,2.71-4.03,4.82-5.28,2.11-1.24,4.62-1.87,7.52-1.87,4.08,0,7.3,1.27,9.67,3.8,2.36,2.53,3.54,6.07,3.54,10.59v3.52h-17.99c.32,1.63,1.03,2.91,2.12,3.84,1.09,.93,2.51,1.4,4.24,1.4,2.86,0,5.1-1,6.71-3.01l4.14,4.89c-1.13,1.56-2.73,2.8-4.79,3.72-2.07,.92-4.29,1.38-6.67,1.38Zm-1.02-23.15c-2.65,0-4.23,1.75-4.73,5.26h9.13v-.7c.04-1.45-.33-2.57-1.1-3.37-.77-.8-1.87-1.2-3.3-1.2Z"/><path class="e" d="M103.47,93V53.9h14.05c5.03,0,8.86,.92,11.48,2.77,2.62,1.84,3.93,4.52,3.93,8.03,0,2.02-.46,3.75-1.4,5.18-.93,1.43-2.3,2.49-4.11,3.17,2.04,.54,3.61,1.54,4.7,3.01,1.09,1.47,1.64,3.26,1.64,5.37,0,3.83-1.21,6.71-3.64,8.63-2.43,1.92-6.02,2.9-10.78,2.94h-15.87Zm9.43-22.8h4.91c2.06-.02,3.53-.39,4.4-1.13s1.32-1.82,1.32-3.26c0-1.65-.47-2.84-1.42-3.57-.95-.73-2.48-1.09-4.59-1.09h-4.62v9.05Zm0,6.18v9.37h6.18c1.7,0,3.01-.39,3.92-1.17,.91-.78,1.37-1.88,1.37-3.29,0-3.26-1.62-4.9-4.86-4.91h-6.61Z"/><path class="e" d="M156.11,72.13l-2.98-.21c-2.85,0-4.67,.9-5.48,2.69v18.4h-9.05v-29.06h8.49l.29,3.73c1.52-2.85,3.64-4.27,6.37-4.27,.97,0,1.81,.11,2.52,.32l-.16,8.41Z"/><path class="e" d="M174.93,93c-.32-.59-.61-1.46-.86-2.61-1.67,2.1-3.99,3.14-6.98,3.14-2.74,0-5.07-.83-6.98-2.48-1.92-1.66-2.87-3.74-2.87-6.24,0-3.15,1.16-5.53,3.49-7.14,2.33-1.61,5.71-2.42,10.15-2.42h2.79v-1.54c0-2.68-1.16-4.02-3.46-4.02-2.15,0-3.22,1.06-3.22,3.18h-9.05c0-2.81,1.2-5.09,3.59-6.84,2.39-1.75,5.44-2.63,9.14-2.63s6.63,.9,8.78,2.71c2.15,1.81,3.25,4.29,3.3,7.44v12.86c.04,2.67,.45,4.71,1.24,6.12v.46h-9.05Zm-5.67-5.91c1.13,0,2.06-.24,2.81-.72,.74-.48,1.28-1.03,1.6-1.64v-4.65h-2.63c-3.15,0-4.73,1.42-4.73,4.24,0,.82,.28,1.49,.83,2,.55,.51,1.26,.77,2.12,.77Z"/><path class="e" d="M187.69,56.42c0-1.3,.47-2.36,1.4-3.19,.93-.83,2.14-1.24,3.62-1.24s2.7,.41,3.63,1.24c.93,.83,1.4,1.89,1.4,3.19s-.47,2.36-1.4,3.19-2.14,1.24-3.63,1.24-2.69-.41-3.62-1.24-1.4-1.89-1.4-3.19Zm9.61,36.58h-9.08v-29.06h9.08v29.06Z"/><path class="e" d="M211.19,63.94l.29,3.41c2.01-2.63,4.77-3.95,8.3-3.95,3.03,0,5.29,.9,6.78,2.71,1.49,1.81,2.27,4.53,2.32,8.16v18.72h-9.08v-18.34c0-1.47-.3-2.55-.89-3.24s-1.67-1.03-3.22-1.03c-1.77,0-3.09,.7-3.95,2.09v20.52h-9.05v-29.06h8.49Z"/><path class="e" d="M244.57,86.02h13.24v6.98h-24.68v-5.05l12.89-17.03h-12.33v-6.98h23.82v4.89l-12.94,17.19Z"/></g><g><polygon class="e" points="46 2 46 98 87 74 87 26 46 2"/><polygon class="c" points="43 2 2 26 2 74 43 98 43 2"/><path class="b" d="M78.28,58.09c-1.24-1.97-3.38-3.15-5.72-3.15-.67,0-1.32,.1-1.96,.29-2.63-3.12-5.82-4.78-8.6-5.64,2.24-1.71,4.21-3.77,5.91-6.15,1.74,.39,3.63,.13,5.16-.83,3.16-2.01,4.1-6.2,2.1-9.35-1.25-1.97-3.39-3.15-5.72-3.15-1.28,0-2.53,.36-3.62,1.05-3.15,1.99-4.09,6.18-2.11,9.34,.13,.21,.27,.4,.42,.6-2.51,3.44-5.71,6.06-9.52,7.79h-.01c-3.53,1.61-5.62,2.12-8.62,2.12v5c4,0,5.93-1.12,10.02-2.9,1.37-.02,6.96,.18,10.99,4.75-1.51,2.16-1.66,5.11-.16,7.47,1.24,1.97,3.38,3.15,5.72,3.15,1.28,0,2.52-.36,3.61-1.04,1.54-.97,2.6-2.48,3-4.25,.4-1.76,.08-3.57-.89-5.09Zm-10.22-23.42c.42-.27,.9-.41,1.4-.41,.9,0,1.73,.46,2.22,1.22,.77,1.21,.4,2.84-.82,3.61-.41,.26-.9,.4-1.39,.4s-.97-.13-1.39-.39c-.34-.21-.62-.49-.83-.82-.77-1.22-.41-2.85,.81-3.62Zm7.06,27.6c-.15,.69-.56,1.27-1.16,1.64-.41,.26-.9,.41-1.39,.41-.91,0-1.73-.46-2.21-1.22-.75-1.18-.44-2.73,.69-3.53l.12-.08c1.21-.77,2.87-.37,3.61,.81,.38,.59,.5,1.29,.34,1.97Z"/><polygon class="d" points="13.04 31.14 12.11 57.94 18.11 64.85 18.29 64.86 17.68 73.33 34.03 65.51 43 65.88 43 26.09 19.95 25.14 13.04 31.14"/><g><path class="b" d="M23.38,52.47c-.04,1.42,1.33,2.63,2.43,2.68l17.2,.85v-5l-17.05-.84c-1.13-.08-2.53,.89-2.58,2.31Z"/><path class="b" d="M23.38,40.15c-.04,1.42,1.33,2.63,2.43,2.68l17.2,.85v-5l-17.05-.84c-1.13-.08-2.53,.89-2.58,2.31Z"/></g></g></svg>