<?xml version="1.0" encoding="UTF-8"?><svg id="a" xmlns="http://www.w3.org/2000/svg" viewBox="0 0 70 30"><defs><style>.b{fill:#36b5b2;}.c{fill:#eb743b;}</style></defs><g><polygon class="b" points="14 1 2 8 2 22 14 29 14 1"/><polygon class="c" points="15 1 27 8 27 22 15 29 15 1"/></g><g><path class="b" d="M48.58,18.1c-.07,2.18-.93,3.92-2.58,5.22-1.65,1.3-3.79,1.95-6.41,1.95-2.91,0-5.17-.86-6.78-2.58-1.61-1.72-2.42-4.16-2.42-7.33v-.56c0-1.99,.37-3.74,1.12-5.23,.75-1.5,1.8-2.64,3.17-3.44,1.37-.79,2.95-1.19,4.75-1.19,2.68,0,4.83,.66,6.46,1.98s2.53,3.11,2.72,5.39h-5.72c.02-.93-.27-1.65-.88-2.17-.61-.52-1.47-.78-2.58-.78-2.04,0-3.13,1.53-3.27,4.57l-.02,1.51c0,1.94,.25,3.33,.76,4.17s1.4,1.25,2.68,1.25c2.23,0,3.32-.92,3.27-2.76h5.72Z"/><path class="c" d="M50.64,25V5.24h7.94c2.82,0,4.96,.47,6.44,1.4,1.48,.93,2.21,2.29,2.21,4.07,0,2.18-.98,3.63-2.93,4.35,1.05,.26,1.88,.77,2.47,1.54s.89,1.67,.89,2.73c0,1.91-.65,3.33-1.96,4.26-1.31,.92-3.34,1.4-6.1,1.42h-8.96Zm5.73-11.59h2.71c.87-.01,1.49-.17,1.86-.47s.55-.75,.55-1.35c0-.71-.19-1.22-.57-1.51-.38-.29-.98-.44-1.79-.44h-2.76v3.77Zm0,3.58v3.6h3.02c.78,0,1.4-.16,1.85-.47s.68-.74,.68-1.27c0-1.19-.7-1.81-2.09-1.86h-3.46Z"/></g></svg>