<?xml version="1.0" encoding="UTF-8"?><svg id="a" xmlns="http://www.w3.org/2000/svg" viewBox="0 0 561.6 100"><defs><style>.b{fill:#fffedb;}.c{fill:#36b5b2;}.d{fill:#65d9d7;}.e{fill:#eb743b;}</style></defs><g><path class="c" d="M144.55,57.77c-.16,3.51-1.11,6.6-2.84,9.29-1.73,2.69-4.16,4.77-7.28,6.24s-6.69,2.21-10.71,2.21c-6.62,0-11.83-2.16-15.63-6.47-3.8-4.31-5.71-10.4-5.71-18.26v-2.49c0-4.93,.86-9.25,2.58-12.95,1.72-3.7,4.19-6.56,7.42-8.58,3.23-2.02,6.96-3.03,11.21-3.03,6.11,0,11.02,1.61,14.74,4.83,3.71,3.22,5.82,7.65,6.33,13.3h-12.11c-.09-3.07-.87-5.27-2.32-6.61-1.45-1.34-3.67-2.01-6.64-2.01s-5.23,1.13-6.64,3.39c-1.41,2.26-2.14,5.87-2.21,10.83v3.56c0,5.37,.67,9.21,2.02,11.52,1.35,2.31,3.67,3.46,6.97,3.46,2.79,0,4.92-.66,6.4-1.97s2.26-3.4,2.35-6.26h12.07Z"/><path class="c" d="M172.4,47.95l-3.84-.28c-3.67,0-6.02,1.15-7.06,3.46v23.69h-11.66V37.4h10.93l.38,4.81c1.96-3.67,4.69-5.5,8.2-5.5,1.25,0,2.33,.14,3.25,.42l-.21,10.83Z"/><path class="c" d="M176.51,27.71c0-1.67,.6-3.04,1.8-4.11s2.76-1.6,4.67-1.6,3.47,.53,4.67,1.6c1.2,1.07,1.8,2.44,1.8,4.11s-.6,3.04-1.8,4.11c-1.2,1.07-2.76,1.6-4.67,1.6s-3.47-.53-4.67-1.6c-1.2-1.07-1.8-2.44-1.8-4.11Zm12.38,47.11h-11.69V37.4h11.69v37.43Z"/><path class="c" d="M209.65,28.09v9.3h6.16v8.09h-6.16v17.12c0,1.41,.25,2.39,.76,2.94,.51,.55,1.51,.83,3.01,.83,1.15,0,2.12-.07,2.91-.21v8.34c-2.1,.67-4.29,1-6.57,1-4.01,0-6.98-.95-8.89-2.84-1.91-1.89-2.87-4.76-2.87-8.61v-18.58h-4.77v-8.09h4.77v-9.3h11.66Z"/><path class="c" d="M220.3,27.71c0-1.67,.6-3.04,1.8-4.11s2.76-1.6,4.67-1.6,3.47,.53,4.67,1.6c1.2,1.07,1.8,2.44,1.8,4.11s-.6,3.04-1.8,4.11c-1.2,1.07-2.76,1.6-4.67,1.6s-3.47-.53-4.67-1.6c-1.2-1.07-1.8-2.44-1.8-4.11Zm12.38,47.11h-11.69V37.4h11.69v37.43Z"/><path class="c" d="M238.39,55.73c0-5.95,1.29-10.61,3.87-13.97,2.58-3.37,6.14-5.05,10.69-5.05,3.83,0,6.9,1.57,9.2,4.7l.83-4.01h10.1v51.82h-11.69v-17.5c-2.24,2.54-5.07,3.8-8.51,3.8-4.43,0-7.95-1.71-10.57-5.14-2.62-3.42-3.93-8.31-3.93-14.65Zm11.66,.73c0,6.71,1.94,10.07,5.81,10.07,2.67,0,4.52-1.01,5.53-3.04v-14.8c-.97-1.98-2.79-2.97-5.46-2.97-3.62,0-5.57,2.89-5.85,8.68l-.04,2.08Z"/><path class="c" d="M301.97,70.78c-2.47,3.16-5.8,4.74-10,4.74s-7.21-1.19-9.32-3.58c-2.11-2.39-3.17-5.82-3.17-10.29v-24.25h11.66v24.32c0,3.21,1.56,4.81,4.67,4.81,2.67,0,4.58-.96,5.71-2.87v-26.25h11.73v37.43h-10.93l-.35-4.05Z"/><path class="c" d="M337.73,75.51c-5.74,0-10.39-1.71-13.94-5.14-3.55-3.42-5.33-7.88-5.33-13.37v-.97c0-3.83,.71-7.21,2.13-10.13,1.42-2.93,3.49-5.19,6.21-6.8,2.72-1.6,5.95-2.4,9.68-2.4,5.26,0,9.41,1.63,12.45,4.89,3.04,3.26,4.57,7.81,4.57,13.65v4.53h-23.17c.42,2.1,1.33,3.75,2.73,4.95,1.41,1.2,3.23,1.8,5.46,1.8,3.69,0,6.57-1.29,8.65-3.87l5.33,6.3c-1.45,2.01-3.51,3.6-6.17,4.79s-5.53,1.78-8.6,1.78Zm-1.31-29.82c-3.41,0-5.44,2.26-6.09,6.78h11.76v-.9c.05-1.87-.43-3.31-1.42-4.34-.99-1.03-2.41-1.54-4.25-1.54Z"/><path class="e" d="M358.73,74.82V24.46h18.09c6.48,0,11.41,1.19,14.79,3.56,3.38,2.38,5.07,5.82,5.07,10.34,0,2.61-.6,4.83-1.8,6.68-1.2,1.84-2.96,3.21-5.29,4.08,2.63,.69,4.65,1.98,6.05,3.87,1.41,1.89,2.11,4.2,2.11,6.92,0,4.94-1.56,8.64-4.69,11.12-3.12,2.48-7.75,3.74-13.89,3.79h-20.44Zm12.14-29.37h6.33c2.65-.02,4.54-.51,5.67-1.46s1.7-2.35,1.7-4.2c0-2.13-.61-3.66-1.83-4.6s-3.19-1.41-5.91-1.41h-5.95v11.66Zm0,7.96v12.07h7.96c2.19,0,3.87-.5,5.05-1.5s1.76-2.42,1.76-4.24c0-4.2-2.09-6.31-6.26-6.33h-8.51Z"/><path class="e" d="M426.52,47.95l-3.84-.28c-3.67,0-6.02,1.15-7.06,3.46v23.69h-11.66V37.4h10.93l.38,4.81c1.96-3.67,4.69-5.5,8.2-5.5,1.25,0,2.33,.14,3.25,.42l-.21,10.83Z"/><path class="e" d="M450.77,74.82c-.42-.76-.78-1.88-1.11-3.36-2.14,2.7-5.14,4.05-8.99,4.05-3.53,0-6.53-1.07-8.99-3.2-2.47-2.13-3.7-4.81-3.7-8.04,0-4.06,1.5-7.12,4.5-9.2,3-2.08,7.36-3.11,13.08-3.11h3.6v-1.98c0-3.45-1.49-5.18-4.46-5.18-2.77,0-4.15,1.37-4.15,4.1h-11.66c0-3.62,1.54-6.55,4.62-8.81,3.08-2.26,7-3.39,11.78-3.39s8.54,1.16,11.31,3.49c2.77,2.33,4.19,5.52,4.25,9.58v16.57c.05,3.44,.58,6.07,1.59,7.89v.59h-11.66Zm-7.3-7.61c1.45,0,2.66-.31,3.61-.93,.96-.62,1.64-1.33,2.06-2.11v-5.98h-3.39c-4.06,0-6.09,1.82-6.09,5.46,0,1.06,.36,1.92,1.07,2.58,.71,.66,1.62,.99,2.73,.99Z"/><path class="e" d="M467.2,27.71c0-1.67,.6-3.04,1.8-4.11s2.76-1.6,4.67-1.6,3.47,.53,4.67,1.6c1.2,1.07,1.8,2.44,1.8,4.11s-.6,3.04-1.8,4.11c-1.2,1.07-2.76,1.6-4.67,1.6s-3.47-.53-4.67-1.6c-1.2-1.07-1.8-2.44-1.8-4.11Zm12.38,47.11h-11.69V37.4h11.69v37.43Z"/><path class="e" d="M497.47,37.4l.38,4.39c2.58-3.39,6.15-5.08,10.69-5.08,3.9,0,6.81,1.16,8.73,3.49s2.92,5.83,2.99,10.52v24.11h-11.69v-23.62c0-1.89-.38-3.28-1.14-4.17-.76-.89-2.14-1.33-4.15-1.33-2.28,0-3.98,.9-5.08,2.7v26.43h-11.66V37.4h10.93Z"/><path class="e" d="M540.46,65.83h17.05v8.99h-31.79v-6.5l16.6-21.93h-15.88v-8.99h30.68v6.29l-16.67,22.14Z"/></g><g><polygon class="e" points="47 2 47 98 88 74 88 26 47 2"/><polygon class="c" points="44 2 3 26 3 74 44 98 44 2"/><path class="b" d="M79.28,58.09c-1.24-1.97-3.38-3.15-5.72-3.15-.67,0-1.32,.1-1.96,.29-2.63-3.12-5.82-4.78-8.6-5.64,2.24-1.71,4.21-3.77,5.91-6.15,1.74,.39,3.63,.13,5.16-.83,3.16-2.01,4.1-6.2,2.1-9.35-1.25-1.97-3.39-3.15-5.72-3.15-1.28,0-2.53,.36-3.62,1.05-3.15,1.99-4.09,6.18-2.11,9.34,.13,.21,.27,.4,.42,.6-2.51,3.44-5.71,6.06-9.52,7.79h-.01c-3.53,1.61-5.62,2.12-8.62,2.12v5c4,0,5.93-1.12,10.02-2.9,1.37-.02,6.96,.18,10.99,4.75-1.51,2.16-1.66,5.11-.16,7.47,1.24,1.97,3.38,3.15,5.72,3.15,1.28,0,2.52-.36,3.61-1.04,1.54-.97,2.6-2.48,3-4.25,.4-1.76,.08-3.57-.89-5.09Zm-10.22-23.42c.42-.27,.9-.41,1.4-.41,.9,0,1.73,.46,2.22,1.22,.77,1.21,.4,2.84-.82,3.61-.41,.26-.9,.4-1.39,.4s-.97-.13-1.39-.39c-.34-.21-.62-.49-.83-.82-.77-1.22-.41-2.85,.81-3.62Zm7.06,27.6c-.15,.69-.56,1.27-1.16,1.64-.41,.26-.9,.41-1.39,.41-.91,0-1.73-.46-2.21-1.22-.75-1.18-.44-2.73,.69-3.53l.12-.08c1.21-.77,2.87-.37,3.61,.81,.38,.59,.5,1.29,.34,1.97Z"/><polygon class="d" points="14.04 31.14 13.11 57.94 19.11 64.85 19.29 64.86 18.68 73.33 35.03 65.51 44 65.88 44 26.09 20.95 25.14 14.04 31.14"/><g><path class="b" d="M24.38,52.47c-.04,1.42,1.33,2.63,2.43,2.68l17.2,.85v-5l-17.05-.84c-1.13-.08-2.53,.89-2.58,2.31Z"/><path class="b" d="M24.38,40.15c-.04,1.42,1.33,2.63,2.43,2.68l17.2,.85v-5l-17.05-.84c-1.13-.08-2.53,.89-2.58,2.31Z"/></g></g></svg>