<?xml version="1.0" encoding="UTF-8"?>
<svg xmlns="http://www.w3.org/2000/svg" width="220" height="274.92" xmlns:xlink="http://www.w3.org/1999/xlink" viewBox="0 0 220 274.92">
  <defs>
    <style>
      .cls-1 {
        fill: #d3562c;
      }

      .cls-1, .cls-2, .cls-3, .cls-4, .cls-5, .cls-6, .cls-7, .cls-8 {
        stroke-width: 0px;
      }

      .cls-9 {
        isolation: isolate;
      }

      .cls-2, .cls-10 {
        opacity: .25;
      }

      .cls-4 {
        fill: #353070;
      }

      .cls-5 {
        fill: none;
      }

      .cls-6 {
        fill: #6969af;
      }

      .cls-11 {
        opacity: .07;
      }

      .cls-11, .cls-10 {
        mix-blend-mode: multiply;
      }

      .cls-7 {
        fill: #eb743b;
      }

      .cls-12 {
        clip-path: url(#clippath);
      }

      .cls-8 {
        fill: #fffedb;
      }
    </style>
    <clipPath id="clippath">
      <rect class="cls-5" x="112.5" y="27.91" width="51.43" height="90.79"/>
    </clipPath>
  </defs>
  <g class="cls-9">
    <g id="Layer_1" data-name="Layer 1">
      <g>
        <polygon class="cls-7" points="112.5 2.5 112.5 146.5 173.5 111.5 173.5 37.5 112.5 2.5"/>
        <polygon class="cls-4" points="107.5 2.42 46.5 37.42 46.5 111.42 107.5 146.42 107.5 2.42"/>
        <g class="cls-11">
          <g class="cls-12">
            <path class="cls-3" d="M129.8,94.23c.39-.65,1.07-1.03,1.82-1.03.38,0,.75.1,1.08.3,1,.6,1.33,1.9.74,2.9-.39.65-1.06,1.03-1.82,1.03-.38,0-.75-.11-1.08-.3-.48-.29-.83-.75-.96-1.29-.14-.55-.06-1.12.23-1.6M142.4,116.59c-.49.42-1.02.51-1.37.51-.62,0-1.21-.27-1.61-.74-.76-.88-.66-2.22.23-2.98.49-.42,1.02-.51,1.37-.51.62,0,1.2.27,1.61.74.37.43.55.98.5,1.54-.04.56-.3,1.07-.73,1.44"/>
            <path class="cls-3" d="M121.5,48.11c.07.02.14.03.21.05-.07-.01-.14-.03-.21-.05"/>
            <path class="cls-3" d="M132.88,57.75c.17-.27.39-.49.67-.66.33-.21.72-.32,1.12-.32s.79.11,1.12.32c.99.63,1.28,1.94.66,2.92-.39.62-1.06.99-1.8.99-.4,0-.78-.11-1.12-.33-.98-.63-1.28-1.94-.66-2.92M139.26,37.57c-.6.95-1.94,1.27-2.91.65l-.1-.06c-.91-.65-1.16-1.9-.56-2.85.38-.61,1.05-.98,1.78-.98.4,0,.79.11,1.12.33.48.3.81.77.94,1.33.12.55.03,1.1-.28,1.58"/>
            <path class="cls-3" d="M156.03,49.17c.39-.62,1.05-.98,1.78-.98.4,0,.79.11,1.12.33.48.3.81.77.94,1.33.12.55.02,1.11-.28,1.58-.6.95-1.94,1.27-2.91.65l-.09-.06c-.92-.65-1.16-1.9-.56-2.85M156.03,72.63c.39-.61,1.05-.98,1.78-.98.4,0,.79.11,1.12.33.48.3.81.77.94,1.33.12.55.02,1.11-.28,1.58-.6.95-1.94,1.27-2.91.65l-.09-.06c-.92-.65-1.16-1.9-.56-2.85M156.03,98.93c.39-.61,1.05-.98,1.78-.98.4,0,.79.11,1.12.33.48.3.81.77.94,1.33.12.55.02,1.11-.28,1.58-.6.95-1.94,1.27-2.91.65l-.09-.06c-.92-.65-1.16-1.9-.56-2.85"/>
            <path class="cls-3" d="M145.68,108.6c-1.16-1.36-2.86-2.14-4.65-2.14-1.46,0-2.88.53-3.98,1.48-1.61,1.38-2.33,3.43-2.09,5.4-1.95.7-4.26,1.37-5.33,1.33-.82-.04-1.3-.34-2.22-.97-1.17-.79-2.42-1.51-4.15-1.85,2.94-2.76,6.01-6.83,8.58-12.83,2.06-.08,3.98-1.19,5.04-2.97,1.72-2.9.77-6.66-2.12-8.39-.95-.57-2.03-.86-3.13-.86-2.15,0-4.16,1.14-5.26,2.99-.84,1.41-1.08,3.05-.68,4.64.35,1.39,1.16,2.59,2.3,3.43-4.05,9.22-9.22,13.08-12.56,14.68-.13.04-.25.1-.36.17-1.19.53-2.05.71-2.56.81v4c.27-.03,1.88-.12,4.25-1.19,5.35-1.36,6.84-.35,8.41.71,1.02.69,2.29,1.55,4.26,1.66.1,0,.2,0,.31,0,2.11,0,5.17-1.02,7.02-1.72,1.14,1.12,2.68,1.75,4.29,1.75,1.46,0,2.88-.53,3.98-1.48,1.24-1.06,1.99-2.55,2.12-4.18.12-1.63-.39-3.21-1.46-4.45M129.8,91.83c.39-.65,1.07-1.03,1.82-1.03.38,0,.75.11,1.08.3,1,.6,1.33,1.9.74,2.9-.39.65-1.06,1.03-1.82,1.03-.38,0-.75-.11-1.08-.3-.48-.29-.83-.75-.96-1.29-.14-.55-.06-1.12.23-1.6M142.4,114.19c-.49.42-1.02.51-1.37.51-.62,0-1.21-.27-1.61-.73-.76-.88-.66-2.22.23-2.98.49-.42,1.02-.51,1.37-.51.62,0,1.2.27,1.61.74.37.43.55.98.5,1.54s-.3,1.07-.73,1.44"/>
            <path class="cls-3" d="M121.5,45.7c.07.02.14.03.21.05-.07-.01-.14-.03-.21-.05"/>
            <path class="cls-3" d="M143.45,32.7c-.36-1.6-1.32-2.96-2.71-3.84-.98-.62-2.11-.94-3.26-.94-2.12,0-4.05,1.07-5.17,2.85-1.35,2.14-1.22,4.8.14,6.76-3.65,4.12-8.71,4.31-9.94,4.29-3.69-1.6-7.23-2.16-10-2.32v4c2.44.14,5.55.69,8.75,2.14,0,0,0,0,.01,0,3.45,1.56,6.33,3.93,8.61,7.04-.13.17-.26.35-.38.54-1.8,2.85-.94,6.65,1.9,8.44.98.62,2.11.95,3.27.95,2.11,0,4.05-1.06,5.18-2.85,1.81-2.85.95-6.64-1.91-8.45-1.38-.87-3.09-1.11-4.67-.75-1.54-2.16-3.32-4.02-5.34-5.57,2.52-.78,5.4-2.27,7.78-5.09.57.17,1.17.27,1.77.27,2.12,0,4.05-1.07,5.17-2.85.87-1.38,1.16-3.01.8-4.6M132.88,55.35c.17-.27.39-.49.67-.66.33-.21.72-.32,1.12-.32s.79.11,1.12.32c.99.63,1.28,1.94.66,2.92-.39.62-1.06.99-1.8.99-.4,0-.78-.11-1.12-.33-.98-.62-1.28-1.94-.66-2.92M139.26,35.16c-.6.95-1.94,1.27-2.91.65l-.1-.06c-.91-.65-1.16-1.9-.56-2.85.38-.61,1.05-.98,1.78-.98.4,0,.79.11,1.12.33.48.31.81.77.94,1.33.12.55.03,1.11-.28,1.58"/>
            <path class="cls-3" d="M152.15,73.69c.42,1.03,1.14,1.96,2.11,2.65.07.05.15.1.28.19.98.62,2.11.95,3.27.95,2.12,0,4.05-1.07,5.17-2.85.88-1.38,1.16-3.01.8-4.61-.36-1.6-1.32-2.96-2.71-3.84-.98-.62-2.11-.94-3.27-.94-.12,0-.25,0-.37.02-.71-3.16-.92-7.77.03-11.26.11.01.23.02.34.02,2.12,0,4.05-1.07,5.17-2.85.88-1.38,1.16-3.01.8-4.6-.36-1.6-1.32-2.96-2.71-3.84-.98-.62-2.11-.94-3.27-.94-2.11,0-4.05,1.07-5.17,2.85-1.6,2.53-1.12,5.8,1.02,7.77.02.02.05.04.07.06-1.35,4.52-1.14,10.32-.04,14.42-.14.13-.29.26-.43.4-.23.26-.45.53-.63.82-.32.5-.55,1.03-.71,1.58-3.37.49-5.2,1.67-6.82,2.73-2.04,1.33-3.96,2.57-9.64,2.67-1.96-.23-3.55-.18-5.29-.12-1.43.05-2.91.11-4.85,0-1.34-.07-2.1-.88-3.46-2.42-1.8-2.06-4.22-4.65-9.37-5.02v4c3.29.3,4.8,1.89,6.36,3.67,1.49,1.69,3.17,3.62,6.26,3.78,2.12.11,3.76.05,5.21,0,2.49-.09,4.45-.16,7.85.68,2.61.64,12.1,9.67,14.77,14.32-.11.14-.22.28-.31.43-1.74,2.76-1.03,6.39,1.62,8.25.07.05.15.11.28.19.98.62,2.11.95,3.27.95,2.12,0,4.05-1.07,5.17-2.85.88-1.37,1.16-3.01.8-4.6-.36-1.6-1.32-2.96-2.71-3.84-.98-.62-2.11-.94-3.27-.94-.53,0-1.05.07-1.54.19-2.56-4.19-8.65-10.45-13.19-13.79,1.81-.63,3.05-1.44,4.21-2.19,1.43-.93,2.61-1.69,4.86-2.07M156.03,46.76c.39-.61,1.05-.98,1.78-.98.4,0,.79.11,1.12.32.48.3.81.77.94,1.33.12.55.02,1.11-.28,1.58-.6.95-1.94,1.27-2.91.65l-.09-.06c-.92-.65-1.16-1.9-.56-2.85M156.03,70.22c.39-.62,1.05-.98,1.78-.98.4,0,.79.11,1.12.33.48.31.81.77.94,1.33.12.55.02,1.11-.28,1.58-.6.95-1.94,1.27-2.91.65l-.09-.06c-.92-.65-1.16-1.9-.56-2.85M156.03,96.53c.39-.61,1.05-.98,1.78-.98.4,0,.79.11,1.12.33.48.31.81.78.94,1.33.12.55.02,1.11-.28,1.58-.6.95-1.94,1.27-2.91.66l-.09-.06c-.92-.65-1.16-1.9-.56-2.85"/>
          </g>
        </g>
        <path class="cls-1" d="M145.68,111.6c-1.16-1.36-2.86-2.14-4.65-2.14-1.46,0-2.88.53-3.98,1.48-1.61,1.38-2.33,3.43-2.09,5.4-1.95.7-4.26,1.37-5.33,1.33-.82-.04-1.3-.34-2.22-.97-1.17-.79-2.42-1.51-4.15-1.85,2.94-2.76,6.01-6.83,8.58-12.83,2.06-.08,3.98-1.19,5.04-2.97,1.72-2.9.77-6.66-2.12-8.39-.95-.57-2.03-.86-3.13-.86-2.15,0-4.16,1.14-5.26,2.99-.84,1.41-1.08,3.05-.68,4.64.35,1.39,1.16,2.59,2.3,3.43-4.05,9.22-9.22,13.08-12.56,14.68-.13.04-.25.1-.36.17-1.19.53-2.05.71-2.56.81v4c.27-.03,1.88-.12,4.25-1.19,5.35-1.36,6.84-.35,8.41.71,1.02.69,2.29,1.55,4.26,1.66.1,0,.2,0,.31,0,2.11,0,5.17-1.02,7.02-1.72,1.14,1.12,2.68,1.75,4.29,1.75,1.46,0,2.88-.53,3.98-1.48,1.24-1.06,1.99-2.54,2.12-4.18.12-1.63-.39-3.21-1.46-4.45M129.8,94.83c.39-.65,1.07-1.03,1.82-1.03.38,0,.75.11,1.08.3,1,.6,1.33,1.9.74,2.9-.39.65-1.06,1.03-1.82,1.03-.38,0-.75-.11-1.08-.3-.48-.29-.83-.75-.96-1.29-.14-.55-.06-1.12.23-1.6M142.4,117.19c-.49.42-1.02.51-1.37.51-.62,0-1.21-.27-1.61-.73-.76-.88-.66-2.22.23-2.98.49-.42,1.02-.51,1.37-.51.62,0,1.2.27,1.61.74.37.43.55.98.5,1.54s-.3,1.07-.73,1.44"/>
        <path class="cls-3" d="M121.5,48.11c.07.02.14.03.21.05-.07-.01-.14-.03-.21-.05"/>
        <path class="cls-1" d="M143.45,34.71c-.36-1.6-1.32-2.96-2.71-3.84-.98-.62-2.11-.94-3.26-.94-2.12,0-4.05,1.06-5.17,2.85-1.35,2.14-1.22,4.8.14,6.76-3.65,4.12-8.71,4.31-9.94,4.29-3.69-1.61-7.23-2.17-10-2.32v3.99c2.44.14,5.55.69,8.75,2.14,0,0,0,0,.01,0,3.45,1.56,6.33,3.93,8.61,7.04-.13.17-.26.35-.38.54-1.8,2.85-.94,6.64,1.9,8.44.98.62,2.11.95,3.27.95,2.11,0,4.05-1.07,5.18-2.85,1.81-2.85.95-6.64-1.91-8.45-1.38-.87-3.09-1.11-4.67-.75-1.54-2.16-3.32-4.02-5.34-5.57,2.52-.78,5.4-2.27,7.78-5.1.57.17,1.17.27,1.77.27,2.12,0,4.05-1.07,5.17-2.85.87-1.38,1.16-3.01.8-4.6M132.88,57.35c.17-.27.39-.49.67-.66.33-.21.72-.32,1.12-.32s.79.11,1.12.32c.99.63,1.28,1.94.66,2.92-.39.62-1.06.99-1.8.99-.4,0-.78-.11-1.12-.33-.98-.63-1.28-1.94-.66-2.92M139.26,37.17c-.6.95-1.94,1.27-2.91.65l-.1-.06c-.91-.65-1.16-1.9-.56-2.85.38-.61,1.05-.98,1.78-.98.4,0,.79.11,1.12.33.48.3.81.77.94,1.33.12.55.03,1.1-.28,1.58"/>
        <path class="cls-1" d="M152.15,76.69c.42,1.03,1.14,1.96,2.11,2.65.07.05.15.1.28.19.98.62,2.11.95,3.27.95,2.12,0,4.05-1.07,5.17-2.85.88-1.37,1.16-3.01.8-4.6-.36-1.6-1.32-2.96-2.71-3.84-.98-.62-2.11-.94-3.27-.94-.12,0-.25,0-.37.02-.71-3.16-.92-7.77.03-11.26.11.01.23.02.34.02,2.12,0,4.05-1.07,5.17-2.85.88-1.38,1.16-3.01.8-4.6-.36-1.6-1.32-2.96-2.71-3.84-.98-.62-2.11-.94-3.27-.94-2.11,0-4.05,1.06-5.17,2.85-1.6,2.53-1.12,5.8,1.02,7.77.02.02.05.04.07.06-1.35,4.52-1.14,10.32-.04,14.42-.14.13-.29.25-.43.4-.23.26-.45.53-.63.82-.32.5-.55,1.03-.71,1.58-3.37.49-5.2,1.67-6.82,2.73-2.04,1.32-3.96,2.57-9.64,2.66-1.96-.23-3.55-.18-5.29-.12-1.43.05-2.91.11-4.85,0-1.34-.07-2.1-.88-3.46-2.42-1.8-2.06-4.22-4.65-9.37-5.02v4c3.29.3,4.8,1.89,6.36,3.67,1.49,1.69,3.17,3.62,6.26,3.78,2.12.11,3.76.05,5.21,0,2.49-.09,4.45-.16,7.85.68,2.61.64,12.1,9.67,14.77,14.32-.11.14-.22.28-.31.43-1.74,2.76-1.03,6.39,1.62,8.25.07.05.15.11.28.19.98.62,2.11.95,3.27.95,2.12,0,4.05-1.07,5.17-2.85.88-1.37,1.16-3.01.8-4.6-.36-1.6-1.32-2.96-2.71-3.84-.98-.62-2.11-.94-3.27-.94-.53,0-1.05.07-1.54.19-2.56-4.19-8.65-10.45-13.19-13.79,1.81-.63,3.05-1.44,4.21-2.19,1.43-.93,2.61-1.69,4.86-2.07M156.03,49.76c.39-.61,1.05-.98,1.78-.98.4,0,.79.11,1.12.32.48.31.81.77.94,1.33.12.55.02,1.11-.28,1.58-.6.95-1.94,1.27-2.91.65l-.09-.06c-.92-.65-1.16-1.9-.56-2.85M156.03,73.22c.39-.62,1.05-.98,1.78-.98.4,0,.79.11,1.12.33.48.31.81.77.94,1.33.12.55.02,1.11-.28,1.58-.6.95-1.94,1.27-2.91.65l-.09-.06c-.92-.65-1.16-1.9-.56-2.85M156.03,99.53c.39-.61,1.05-.98,1.78-.98.4,0,.79.11,1.12.33.48.31.81.78.94,1.33.12.55.02,1.11-.28,1.58-.6.95-1.94,1.27-2.91.66l-.09-.06c-.92-.65-1.16-1.9-.56-2.85"/>
        <path class="cls-8" d="M145.68,108.6c-1.16-1.36-2.86-2.14-4.65-2.14-1.46,0-2.88.53-3.98,1.48-1.61,1.38-2.33,3.43-2.09,5.4-1.95.7-4.26,1.37-5.33,1.33-.82-.04-1.3-.34-2.22-.97-1.17-.79-2.42-1.51-4.15-1.85,2.94-2.76,6.01-6.83,8.58-12.83,2.06-.08,3.98-1.19,5.04-2.97,1.72-2.9.77-6.66-2.12-8.39-.95-.57-2.03-.86-3.13-.86-2.15,0-4.16,1.14-5.26,2.99-.84,1.41-1.08,3.05-.68,4.64.35,1.39,1.16,2.59,2.3,3.43-4.05,9.22-9.22,13.08-12.56,14.68-.13.04-.25.1-.36.17-1.19.53-2.05.71-2.56.81v4c.27-.03,1.88-.12,4.25-1.19,5.35-1.36,6.84-.35,8.41.71,1.02.69,2.29,1.55,4.26,1.66.1,0,.2,0,.31,0,2.11,0,5.17-1.02,7.02-1.72,1.14,1.12,2.68,1.75,4.29,1.75,1.46,0,2.88-.53,3.98-1.48,1.24-1.06,1.99-2.55,2.12-4.18.12-1.63-.39-3.21-1.46-4.45M129.8,91.83c.39-.65,1.07-1.03,1.82-1.03.38,0,.75.11,1.08.3,1,.6,1.33,1.9.74,2.9-.39.65-1.06,1.03-1.82,1.03-.38,0-.75-.11-1.08-.3-.48-.29-.83-.75-.96-1.29-.14-.55-.06-1.12.23-1.6M142.4,114.19c-.49.42-1.02.51-1.37.51-.62,0-1.21-.27-1.61-.73-.76-.88-.66-2.22.23-2.98.49-.42,1.02-.51,1.37-.51.62,0,1.2.27,1.61.74.37.43.55.98.5,1.54s-.3,1.07-.73,1.44"/>
        <path class="cls-8" d="M121.5,45.7c.07.02.14.03.21.05-.07-.01-.14-.03-.21-.05"/>
        <path class="cls-8" d="M143.45,32.7c-.36-1.6-1.32-2.96-2.71-3.84-.98-.62-2.11-.94-3.26-.94-2.12,0-4.05,1.07-5.17,2.85-1.35,2.14-1.22,4.8.14,6.76-3.65,4.12-8.71,4.31-9.94,4.29-3.69-1.6-7.23-2.16-10-2.32v4c2.44.14,5.55.69,8.75,2.14,0,0,0,0,.01,0,3.45,1.56,6.33,3.93,8.61,7.04-.13.17-.26.35-.38.54-1.8,2.85-.94,6.65,1.9,8.44.98.62,2.11.95,3.27.95,2.11,0,4.05-1.06,5.18-2.85,1.81-2.85.95-6.64-1.91-8.45-1.38-.87-3.09-1.11-4.67-.75-1.54-2.16-3.32-4.02-5.34-5.57,2.52-.78,5.4-2.27,7.78-5.09.57.17,1.17.27,1.77.27,2.12,0,4.05-1.07,5.17-2.85.87-1.38,1.16-3.01.8-4.6M132.88,55.35c.17-.27.39-.49.67-.66.33-.21.72-.32,1.12-.32s.79.11,1.12.32c.99.63,1.28,1.94.66,2.92-.39.62-1.06.99-1.8.99-.4,0-.78-.11-1.12-.33-.98-.62-1.28-1.94-.66-2.92M139.26,35.16c-.6.95-1.94,1.27-2.91.65l-.1-.06c-.91-.65-1.16-1.9-.56-2.85.38-.61,1.05-.98,1.78-.98.4,0,.79.11,1.12.33.48.31.81.77.94,1.33.12.55.03,1.11-.28,1.58"/>
        <path class="cls-8" d="M152.15,73.69c.42,1.03,1.14,1.96,2.11,2.65.07.05.15.1.28.19.98.62,2.11.95,3.27.95,2.12,0,4.05-1.07,5.17-2.85.88-1.38,1.16-3.01.8-4.61-.36-1.6-1.32-2.96-2.71-3.84-.98-.62-2.11-.94-3.27-.94-.12,0-.25,0-.37.02-.71-3.16-.92-7.77.03-11.26.11.01.23.02.34.02,2.12,0,4.05-1.07,5.17-2.85.88-1.38,1.16-3.01.8-4.6-.36-1.6-1.32-2.96-2.71-3.84-.98-.62-2.11-.94-3.27-.94-2.11,0-4.05,1.07-5.17,2.85-1.6,2.53-1.12,5.8,1.02,7.77.02.02.05.04.07.06-1.35,4.52-1.14,10.32-.04,14.42-.14.13-.29.26-.43.4-.23.26-.45.53-.63.82-.32.5-.55,1.03-.71,1.58-3.37.49-5.2,1.67-6.82,2.73-2.04,1.33-3.96,2.57-9.64,2.67-1.96-.23-3.55-.18-5.29-.12-1.43.05-2.91.11-4.85,0-1.34-.07-2.1-.88-3.46-2.42-1.8-2.06-4.22-4.65-9.37-5.02v4c3.29.3,4.8,1.89,6.36,3.67,1.49,1.69,3.17,3.62,6.26,3.78,2.12.11,3.76.05,5.21,0,2.49-.09,4.45-.16,7.85.68,2.61.64,12.1,9.67,14.77,14.32-.11.14-.22.28-.31.43-1.74,2.76-1.03,6.39,1.62,8.25.07.05.15.11.28.19.98.62,2.11.95,3.27.95,2.12,0,4.05-1.07,5.17-2.85.88-1.37,1.16-3.01.8-4.6-.36-1.6-1.32-2.96-2.71-3.84-.98-.62-2.11-.94-3.27-.94-.53,0-1.05.07-1.54.19-2.56-4.19-8.65-10.45-13.19-13.79,1.81-.63,3.05-1.44,4.21-2.19,1.43-.93,2.61-1.69,4.86-2.07M156.03,46.76c.39-.61,1.05-.98,1.78-.98.4,0,.79.11,1.12.32.48.3.81.77.94,1.33.12.55.02,1.11-.28,1.58-.6.95-1.94,1.27-2.91.65l-.09-.06c-.92-.65-1.16-1.9-.56-2.85M156.03,70.22c.39-.62,1.05-.98,1.78-.98.4,0,.79.11,1.12.33.48.31.81.77.94,1.33.12.55.02,1.11-.28,1.58-.6.95-1.94,1.27-2.91.65l-.09-.06c-.92-.65-1.16-1.9-.56-2.85M156.03,96.53c.39-.61,1.05-.98,1.78-.98.4,0,.79.11,1.12.33.48.31.81.78.94,1.33.12.55.02,1.11-.28,1.58-.6.95-1.94,1.27-2.91.66l-.09-.06c-.92-.65-1.16-1.9-.56-2.85"/>
        <path class="cls-6" d="M107.5,68.96v-29.66h-38.92c-2.56,0-3.25,3.25-3.25,3.25v79.67l42.17,24.2v-29.06c-5.01-.2-22.38-2.44-22.38-23.71,0-19.99,16.08-23.91,22.38-24.68Z"/>
        <path class="cls-2" d="M107.5,74.53v-4.01c-13.97.11-25.3,11.5-25.3,25.49s11.33,25.39,25.3,25.49v-4.01c-11.76-.11-21.3-9.7-21.3-21.49s9.54-21.38,21.3-21.49Z"/>
        <path class="cls-8" d="M107.5,71.71v-4.01c-13.97.11-25.3,11.5-25.3,25.49s11.33,25.39,25.3,25.49v-4.01c-11.76-.11-21.3-9.7-21.3-21.49s9.54-21.38,21.3-21.49Z"/>
        <g>
          <g class="cls-10">
            <path class="cls-3" d="M67.58,100.19c.24,0,.49-.07.71-.22.56-.39.69-1.17.3-1.72-.28-.4-.53-.82-.75-1.25-1.46-2.96-1.27-6.38.51-9.16.37-.58.2-1.34-.37-1.71-.57-.37-1.34-.2-1.71.37-2.23,3.47-2.47,7.91-.65,11.6.27.55.59,1.08.94,1.58.24.34.63.52,1.02.52"/>
            <path class="cls-3" d="M61.9,103.13c.25,0,.5-.08.72-.24.55-.4.67-1.17.27-1.73-.46-.63-.87-1.31-1.22-2.02-2.28-4.61-1.79-10.03,1.28-14.16.41-.55.29-1.32-.25-1.73-.55-.41-1.32-.29-1.73.25-3.63,4.88-4.21,11.28-1.51,16.73.41.84.9,1.64,1.45,2.38.24.33.62.51,1,.51"/>
            <path class="cls-3" d="M73.14,97.07c.2,0,.41-.05.6-.16.59-.34.8-1.09.47-1.68-.78-1.37-.84-3.04-.18-4.47.29-.62.02-1.35-.6-1.64-.62-.29-1.35-.01-1.64.61-.99,2.15-.89,4.66.28,6.72.23.4.65.63,1.08.63"/>
          </g>
          <g>
            <path class="cls-7" d="M67.58,98.14c.24,0,.49-.07.71-.22.56-.39.69-1.17.3-1.72-.28-.4-.53-.82-.75-1.25-1.46-2.96-1.27-6.38.51-9.16.37-.58.2-1.34-.37-1.71-.57-.37-1.34-.2-1.71.37-2.23,3.47-2.47,7.91-.65,11.6.27.55.59,1.08.94,1.58.24.34.63.52,1.02.52"/>
            <path class="cls-7" d="M61.9,101.08c.25,0,.5-.08.72-.24.55-.4.67-1.17.27-1.73-.46-.63-.87-1.31-1.22-2.02-2.28-4.61-1.79-10.03,1.28-14.16.41-.55.29-1.32-.25-1.73-.55-.41-1.32-.29-1.73.25-3.63,4.88-4.21,11.28-1.51,16.73.41.84.9,1.64,1.45,2.38.24.33.62.51,1,.51"/>
            <path class="cls-7" d="M73.14,95.02c.2,0,.41-.05.6-.16.59-.34.8-1.09.47-1.68-.78-1.37-.84-3.04-.18-4.47.29-.62.02-1.35-.6-1.64-.62-.29-1.35-.01-1.64.61-.99,2.15-.89,4.66.28,6.72.23.4.65.63,1.08.63"/>
          </g>
        </g>
      </g>
      <g>
        <g>
          <path class="cls-4" d="M19.01,254.67h27.17v14.79H1.05v-73.95h17.96v59.16Z"/>
          <path class="cls-4" d="M52.49,241.05c0-8.09,1.91-14.43,5.72-19.04,3.81-4.6,9.09-6.9,15.83-6.9s12.11,2.3,15.93,6.9c3.81,4.6,5.72,10.98,5.72,19.13v3.4c0,8.12-1.89,14.47-5.67,19.04-3.78,4.57-9.07,6.86-15.88,6.86s-12.16-2.29-15.95-6.88c-3.8-4.59-5.7-10.96-5.7-19.11v-3.4ZM66.49,244.55c0,9.53,2.55,14.3,7.64,14.3,4.7,0,7.23-3.98,7.6-11.93l.05-5.87c0-4.87-.67-8.47-2.02-10.83-1.35-2.35-3.26-3.53-5.72-3.53s-4.22,1.18-5.55,3.53c-1.33,2.35-2,5.96-2,10.83v3.5Z"/>
          <path class="cls-4" d="M125.67,258.85c4.04,0,6.1-2.63,6.17-7.89h13.12c-.07,5.82-1.86,10.52-5.38,14.11-3.52,3.58-8.06,5.38-13.61,5.38-6.87,0-12.12-2.14-15.73-6.41-3.62-4.27-5.46-10.57-5.52-18.89v-4.24c0-8.38,1.78-14.78,5.35-19.18,3.57-4.41,8.83-6.61,15.81-6.61,5.88,0,10.52,1.82,13.91,5.45,3.39,3.63,5.11,8.79,5.18,15.46h-13.12c-.03-2.99-.53-5.29-1.48-6.9-.95-1.61-2.53-2.42-4.73-2.42-2.43,0-4.17.86-5.23,2.59-1.05,1.73-1.61,5.07-1.68,10.04v5.43c0,4.34.21,7.37.64,9.1.43,1.73,1.13,2.99,2.12,3.8.99.81,2.38,1.21,4.19,1.21Z"/>
          <path class="cls-4" d="M180.21,269.46c-.39-.82-.79-2.2-1.18-4.14-2.5,3.42-5.88,5.13-10.16,5.13s-8.18-1.48-11.12-4.44c-2.94-2.96-4.41-6.79-4.41-11.49,0-5.59,1.78-9.91,5.35-12.97s8.7-4.62,15.41-4.68h4.24v-4.29c0-2.4-.41-4.09-1.23-5.08-.82-.99-2.02-1.48-3.6-1.48-3.48,0-5.23,2.04-5.23,6.12h-13.96c0-4.93,1.85-9,5.55-12.21,3.7-3.21,8.38-4.81,14.03-4.81s10.38,1.52,13.59,4.56c3.21,3.04,4.81,7.39,4.81,13.04v25.1c.07,4.6.72,8.2,1.97,10.8v.84h-14.06ZM171.98,259.5c1.54,0,2.86-.31,3.95-.94,1.08-.62,1.89-1.36,2.42-2.22v-11.1h-3.35c-2.37,0-4.23.76-5.6,2.27-1.37,1.51-2.05,3.53-2.05,6.07,0,3.95,1.54,5.92,4.64,5.92Z"/>
          <path class="cls-4" d="M219.07,269.46h-14.01v-75.75h14.01v75.75Z"/>
        </g>
        <g>
          <path class="cls-7" d="M7.71,180.76h10.19v5.55H.97v-27.74h6.74v22.19Z"/>
          <path class="cls-7" d="M21.23,156.47c0-.96.31-1.75.92-2.37s1.43-.92,2.45-.92,1.84.31,2.45.92c.61.61.92,1.4.92,2.37s-.3,1.74-.91,2.37c-.61.63-1.43.94-2.46.94s-1.86-.31-2.46-.94c-.61-.63-.91-1.42-.91-2.37ZM27.74,186.31h-6.22v-23.71h6.22v23.71Z"/>
          <path class="cls-7" d="M43.03,179.96c0-.53-.25-1.01-.76-1.46s-1.62-1.05-3.36-1.81c-2.56-1.04-4.31-2.11-5.27-3.22-.96-1.11-1.44-2.49-1.44-4.14,0-2.07.75-3.79,2.25-5.14,1.5-1.35,3.48-2.03,5.95-2.03,2.6,0,4.68.67,6.24,2.02,1.56,1.34,2.34,3.15,2.34,5.41h-6.2c0-1.93-.8-2.89-2.41-2.89-.66,0-1.2.2-1.62.61s-.63.98-.63,1.71c0,.53.23.99.7,1.39.47.4,1.57.97,3.31,1.72,2.53.93,4.31,1.98,5.36,3.12,1.04,1.15,1.57,2.63,1.57,4.46,0,2.12-.8,3.82-2.39,5.1-1.59,1.29-3.68,1.93-6.27,1.93-1.74,0-3.27-.34-4.6-1.02-1.33-.68-2.37-1.62-3.12-2.84-.75-1.21-1.13-2.52-1.13-3.92h5.89c.03,1.08.28,1.89.76,2.43.47.54,1.25.81,2.33.81,1.67,0,2.5-.75,2.5-2.26Z"/>
          <path class="cls-7" d="M60.12,156.78v5.83h3.18v4.64h-3.18v11.78c0,.94.13,1.58.38,1.93.26.35.75.53,1.48.53.6,0,1.09-.05,1.47-.15l-.04,4.82c-1.05.39-2.19.59-3.42.59-4,0-6.02-2.3-6.07-6.89v-12.61h-2.74v-4.64h2.74v-5.83h6.2Z"/>
          <path class="cls-7" d="M76.27,186.75c-3.18,0-5.67-.95-7.45-2.85-1.78-1.9-2.67-4.62-2.67-8.15v-1.88c0-3.74.82-6.62,2.45-8.65,1.64-2.03,3.98-3.04,7.03-3.04s5.22.95,6.73,2.85c1.5,1.9,2.27,4.72,2.3,8.46v3.04h-12.33c.09,1.76.47,3.05,1.16,3.86.69.81,1.75,1.22,3.18,1.22,2.07,0,3.8-.71,5.19-2.13l2.43,3.75c-.76,1.05-1.86,1.9-3.31,2.55-1.45.65-3.02.98-4.71.98ZM72.37,172.2h6.2v-.57c-.03-1.42-.26-2.49-.7-3.22-.44-.73-1.2-1.1-2.28-1.1s-1.87.39-2.35,1.16c-.49.77-.78,2.02-.87,3.72Z"/>
          <path class="cls-7" d="M93.84,162.61l.18,2.34c1.4-1.85,3.24-2.78,5.5-2.78,4.08,0,6.17,2.86,6.29,8.57v15.58h-6.22v-15.12c0-1.34-.2-2.32-.6-2.92-.4-.61-1.11-.91-2.11-.91-1.12,0-2,.58-2.63,1.73v17.22h-6.22v-23.71h5.83Z"/>
          <path class="cls-7" d="M110.18,186.31v-27.74h9.43c3.24,0,5.71.65,7.42,1.96,1.71,1.31,2.56,3.21,2.56,5.7,0,1.41-.31,2.64-.93,3.69s-1.53,1.82-2.74,2.31c1.3.38,2.31,1.11,3.02,2.18.71,1.07,1.07,2.39,1.07,3.94,0,2.76-.8,4.78-2.41,6.05-1.6,1.27-4.02,1.91-7.24,1.91h-10.19ZM116.92,170.1h3.24c1.79-.05,2.69-1,2.69-2.86,0-1.1-.22-1.88-.67-2.35-.44-.47-1.13-.7-2.05-.7h-3.21v5.91ZM116.92,174.79v5.98h3.45c.94,0,1.65-.25,2.15-.76.5-.51.75-1.21.75-2.1,0-2.01-.81-3.04-2.43-3.11h-3.93Z"/>
          <path class="cls-7" d="M145.83,168.59l-2.06-.17c-1.69,0-2.84.75-3.44,2.23v15.67h-6.22v-23.71h5.85l.18,2.56c.98-2,2.33-3,4.05-3,.7,0,1.27.09,1.71.28l-.07,6.13Z"/>
          <path class="cls-7" d="M159.62,186.31c-.17-.37-.35-.98-.53-1.84-1.11,1.52-2.62,2.28-4.51,2.28s-3.63-.66-4.94-1.97c-1.31-1.32-1.96-3.02-1.96-5.11,0-2.48.79-4.4,2.38-5.76s3.87-2.05,6.85-2.08h1.88v-1.91c0-1.07-.18-1.82-.55-2.26s-.9-.66-1.6-.66c-1.55,0-2.32.91-2.32,2.72h-6.2c0-2.19.82-4,2.46-5.42s3.72-2.14,6.23-2.14,4.61.68,6.04,2.03c1.42,1.35,2.14,3.28,2.14,5.79v11.15c.03,2.05.32,3.64.88,4.8v.37h-6.24ZM155.96,181.89c.69,0,1.27-.14,1.75-.42.48-.28.84-.61,1.07-.99v-4.93h-1.49c-1.05,0-1.88.34-2.49,1.01-.61.67-.91,1.57-.91,2.69,0,1.75.69,2.63,2.06,2.63Z"/>
          <path class="cls-7" d="M169.47,156.47c0-.96.31-1.75.92-2.37s1.43-.92,2.45-.92,1.84.31,2.45.92c.61.61.92,1.4.92,2.37s-.3,1.74-.91,2.37c-.61.63-1.43.94-2.46.94s-1.86-.31-2.46-.94c-.61-.63-.91-1.42-.91-2.37ZM175.98,186.31h-6.22v-23.71h6.22v23.71Z"/>
          <path class="cls-7" d="M186.45,162.61l.18,2.34c1.4-1.85,3.24-2.78,5.5-2.78,4.08,0,6.17,2.86,6.29,8.57v15.58h-6.22v-15.12c0-1.34-.2-2.32-.6-2.92-.4-.61-1.11-.91-2.11-.91-1.12,0-2,.58-2.63,1.73v17.22h-6.22v-23.71h5.83Z"/>
          <path class="cls-7" d="M209.72,181.17h9.38v5.15h-16.74v-3.88l9.16-14.66h-8.94v-5.17h16.39v3.75l-9.25,14.81Z"/>
        </g>
      </g>
    </g>
  </g>
</svg>