<?xml version="1.0" encoding="UTF-8"?>
<svg id="Layer_1" data-name="Layer 1" xmlns="http://www.w3.org/2000/svg" width="145" height="182.68" viewBox="0 0 145 182.68">
  <defs>
    <style>
      .cls-1 {
        fill: #353070;
      }

      .cls-1, .cls-2, .cls-3 {
        stroke-width: 0px;
      }

      .cls-2 {
        fill: #eb743b;
      }

      .cls-3 {
        fill: #fffedb;
      }
    </style>
  </defs>
  <g>
    <g>
      <path class="cls-1" d="M14.3,168.86h17.38v9.46H2.81v-47.31h11.49v37.85Z"/>
      <path class="cls-1" d="M35.72,160.15c0-5.17,1.22-9.23,3.66-12.18,2.44-2.94,5.82-4.42,10.13-4.42s7.75,1.47,10.19,4.42c2.44,2.95,3.66,7.03,3.66,12.24v2.18c0,5.2-1.21,9.25-3.63,12.18-2.42,2.92-5.8,4.38-10.16,4.38s-7.78-1.47-10.21-4.4c-2.43-2.93-3.64-7.01-3.64-12.23v-2.18ZM44.68,162.39c0,6.1,1.63,9.15,4.89,9.15,3.01,0,4.63-2.54,4.86-7.63l.03-3.75c0-3.11-.43-5.42-1.29-6.92-.86-1.5-2.08-2.26-3.66-2.26s-2.7.75-3.55,2.26c-.85,1.5-1.28,3.81-1.28,6.92v2.24Z"/>
      <path class="cls-1" d="M82.53,171.53c2.59,0,3.9-1.68,3.94-5.05h8.39c-.04,3.72-1.19,6.73-3.44,9.02-2.25,2.29-5.15,3.44-8.71,3.44-4.4,0-7.75-1.37-10.06-4.1-2.31-2.73-3.49-6.76-3.53-12.08v-2.71c0-5.36,1.14-9.45,3.42-12.27s5.65-4.23,10.11-4.23c3.76,0,6.73,1.16,8.9,3.49,2.17,2.32,3.27,5.62,3.31,9.89h-8.39c-.02-1.91-.34-3.39-.95-4.42-.61-1.03-1.62-1.55-3.03-1.55-1.56,0-2.67.55-3.34,1.66-.67,1.1-1.03,3.25-1.07,6.42v3.47c0,2.78.14,4.72.41,5.82.27,1.1.73,1.91,1.36,2.43s1.52.77,2.68.77Z"/>
      <path class="cls-1" d="M117.42,178.32c-.25-.53-.5-1.41-.76-2.65-1.6,2.19-3.76,3.28-6.5,3.28s-5.23-.95-7.11-2.84c-1.88-1.89-2.82-4.34-2.82-7.35,0-3.58,1.14-6.34,3.42-8.3s5.57-2.95,9.86-3h2.71v-2.74c0-1.54-.26-2.62-.79-3.25s-1.29-.95-2.3-.95c-2.23,0-3.34,1.3-3.34,3.91h-8.93c0-3.16,1.18-5.76,3.55-7.81,2.37-2.05,5.36-3.08,8.98-3.08s6.64.97,8.69,2.92c2.05,1.95,3.08,4.73,3.08,8.34v16.06c.04,2.94.46,5.25,1.26,6.91v.54h-8.99ZM112.16,171.94c.99,0,1.83-.2,2.52-.6s1.21-.87,1.55-1.42v-7.1h-2.15c-1.51,0-2.71.48-3.58,1.45-.87.97-1.31,2.26-1.31,3.88,0,2.52.99,3.79,2.96,3.79Z"/>
      <path class="cls-1" d="M142.28,178.32h-8.96v-48.46h8.96v48.46Z"/>
    </g>
    <g>
      <path class="cls-2" d="M7.07,121.58h6.52v3.55H2.76v-17.75h4.31v14.2Z"/>
      <path class="cls-2" d="M15.72,106.04c0-.62.2-1.12.59-1.51s.92-.59,1.57-.59,1.18.2,1.57.59.59.9.59,1.51-.19,1.11-.58,1.51-.91.6-1.58.6-1.19-.2-1.58-.6-.58-.91-.58-1.51ZM19.89,125.13h-3.98v-15.17h3.98v15.17Z"/>
      <path class="cls-2" d="M29.67,121.07c0-.34-.16-.65-.48-.93-.32-.29-1.04-.67-2.15-1.16-1.64-.66-2.76-1.35-3.37-2.06s-.92-1.59-.92-2.65c0-1.33.48-2.42,1.44-3.29s2.23-1.3,3.81-1.3c1.66,0,2.99.43,3.99,1.29,1,.86,1.5,2.01,1.5,3.46h-3.97c0-1.23-.51-1.85-1.54-1.85-.42,0-.77.13-1.04.39-.27.26-.41.63-.41,1.09,0,.34.15.63.45.89s1,.62,2.12,1.1c1.62.6,2.76,1.26,3.43,2s1,1.68,1,2.85c0,1.36-.51,2.44-1.53,3.27s-2.35,1.23-4.01,1.23c-1.11,0-2.09-.22-2.94-.65-.85-.43-1.52-1.04-2-1.82-.48-.78-.72-1.61-.72-2.51h3.77c.02.69.18,1.21.48,1.56s.8.52,1.49.52c1.06,0,1.6-.48,1.6-1.44Z"/>
      <path class="cls-2" d="M40.6,106.24v3.73h2.03v2.97h-2.03v7.54c0,.6.08,1.01.25,1.24s.48.34.95.34c.38,0,.7-.03.94-.1l-.03,3.08c-.67.25-1.4.38-2.19.38-2.56,0-3.85-1.47-3.88-4.41v-8.07h-1.75v-2.97h1.75v-3.73h3.97Z"/>
      <path class="cls-2" d="M50.93,125.41c-2.04,0-3.62-.61-4.77-1.82-1.14-1.21-1.71-2.95-1.71-5.21v-1.21c0-2.39.52-4.24,1.57-5.54,1.05-1.3,2.55-1.95,4.5-1.95s3.34.61,4.3,1.83c.96,1.22,1.45,3.02,1.47,5.41v1.95h-7.89c.06,1.13.3,1.95.74,2.47.44.52,1.12.78,2.03.78,1.33,0,2.43-.45,3.32-1.36l1.56,2.4c-.49.67-1.19,1.22-2.12,1.63-.93.42-1.93.62-3.01.62ZM48.43,116.1h3.97v-.36c-.02-.91-.17-1.59-.45-2.06-.28-.47-.77-.7-1.46-.7s-1.19.25-1.51.74c-.31.5-.5,1.29-.55,2.38Z"/>
      <path class="cls-2" d="M62.17,109.97l.11,1.5c.9-1.19,2.07-1.78,3.52-1.78,2.61,0,3.95,1.83,4.02,5.48v9.96h-3.98v-9.67c0-.86-.13-1.48-.38-1.87s-.71-.58-1.35-.58c-.72,0-1.28.37-1.68,1.11v11.02h-3.98v-15.17h3.73Z"/>
      <path class="cls-2" d="M72.63,125.13v-17.75h6.03c2.07,0,3.65.42,4.75,1.26s1.64,2.05,1.64,3.65c0,.9-.2,1.69-.59,2.36-.4.67-.98,1.16-1.75,1.48.83.24,1.48.71,1.93,1.39s.69,1.53.69,2.52c0,1.77-.51,3.06-1.54,3.87s-2.57,1.22-4.63,1.22h-6.52ZM76.94,114.76h2.07c1.15-.03,1.72-.64,1.72-1.83,0-.7-.14-1.2-.43-1.5s-.72-.45-1.31-.45h-2.06v3.78ZM76.94,117.76v3.82h2.21c.6,0,1.06-.16,1.38-.49.32-.33.48-.77.48-1.35,0-1.29-.52-1.95-1.55-1.99h-2.51Z"/>
      <path class="cls-2" d="M95.43,113.79l-1.32-.11c-1.08,0-1.82.48-2.2,1.43v10.02h-3.98v-15.17h3.74l.11,1.64c.63-1.28,1.49-1.92,2.59-1.92.45,0,.81.06,1.09.18l-.04,3.92Z"/>
      <path class="cls-2" d="M104.25,125.13c-.11-.23-.22-.63-.34-1.18-.71.97-1.67,1.46-2.89,1.46s-2.32-.42-3.16-1.26c-.84-.84-1.25-1.93-1.25-3.27,0-1.59.51-2.82,1.52-3.69,1.01-.87,2.47-1.31,4.38-1.33h1.21v-1.22c0-.68-.12-1.16-.35-1.44s-.58-.42-1.02-.42c-.99,0-1.49.58-1.49,1.74h-3.97c0-1.4.53-2.56,1.58-3.47s2.38-1.37,3.99-1.37,2.95.43,3.86,1.3,1.37,2.1,1.37,3.71v7.13c.02,1.31.21,2.33.56,3.07v.24h-3.99ZM101.91,122.3c.44,0,.81-.09,1.12-.27.31-.18.54-.39.69-.63v-3.15h-.95c-.67,0-1.2.22-1.59.64-.39.43-.58,1-.58,1.72,0,1.12.44,1.68,1.32,1.68Z"/>
      <path class="cls-2" d="M110.55,106.04c0-.62.2-1.12.59-1.51s.92-.59,1.57-.59,1.18.2,1.57.59.59.9.59,1.51-.19,1.11-.58,1.51-.91.6-1.58.6-1.19-.2-1.58-.6-.58-.91-.58-1.51ZM114.72,125.13h-3.98v-15.17h3.98v15.17Z"/>
      <path class="cls-2" d="M121.42,109.97l.11,1.5c.9-1.19,2.07-1.78,3.52-1.78,2.61,0,3.95,1.83,4.02,5.48v9.96h-3.98v-9.67c0-.86-.13-1.48-.38-1.87s-.71-.58-1.35-.58c-.72,0-1.28.37-1.68,1.11v11.02h-3.98v-15.17h3.73Z"/>
      <path class="cls-2" d="M136.3,121.84h6v3.29h-10.71v-2.48l5.86-9.38h-5.72v-3.31h10.48v2.4l-5.92,9.47Z"/>
    </g>
  </g>
  <g>
    <polygon class="cls-1" points="70.43 2.71 29.43 26.71 29.43 74.71 70.43 98.71 70.43 2.71"/>
    <g>
      <polygon class="cls-2" points="74 2.71 74 98.71 115 74.71 115 26.71 74 2.71"/>
      <path class="cls-3" d="M106.28,58.8c-1.24-1.97-3.38-3.15-5.72-3.15-.67,0-1.32.1-1.96.29-2.63-3.12-5.82-4.78-8.6-5.64,2.24-1.71,4.21-3.77,5.91-6.15,1.74.39,3.63.13,5.16-.83,3.16-2.01,4.1-6.2,2.1-9.35-1.25-1.97-3.39-3.15-5.72-3.15-1.28,0-2.53.36-3.62,1.05-3.15,1.99-4.09,6.18-2.11,9.34.13.21.27.4.42.6-2.51,3.44-5.71,6.06-9.52,7.79h-.01c-3.53,1.61-5.62,2.12-8.62,2.12v5c4,0,5.93-1.12,10.02-2.9,1.37-.02,6.96.18,10.99,4.75-1.51,2.16-1.66,5.11-.16,7.47,1.24,1.97,3.38,3.15,5.72,3.15,1.28,0,2.52-.36,3.61-1.04,1.54-.97,2.6-2.48,3-4.25.4-1.76.08-3.57-.89-5.09ZM96.06,35.38c.42-.27.9-.41,1.4-.41.9,0,1.73.46,2.22,1.22.77,1.21.4,2.84-.82,3.61-.41.26-.9.4-1.39.4s-.97-.13-1.39-.39c-.34-.21-.62-.49-.83-.82-.77-1.22-.41-2.85.81-3.62ZM103.12,62.98c-.15.69-.56,1.27-1.16,1.64-.41.26-.9.41-1.39.41-.91,0-1.73-.46-2.21-1.22-.75-1.18-.44-2.73.69-3.53l.12-.08c1.21-.77,2.87-.37,3.61.81.38.59.5,1.29.34,1.97Z"/>
    </g>
    <path class="cls-3" d="M70.43,67.34c-7.51,0-13.63-6.11-13.63-13.63s6.11-13.63,13.63-13.63v5c-4.76,0-8.63,3.87-8.63,8.63s3.87,8.63,8.63,8.63v5Z"/>
    <g>
      <path class="cls-2" d="M44.38,60.99c.24,0,.49-.07.71-.22.56-.39.69-1.17.3-1.72-.28-.4-.53-.82-.75-1.25-1.46-2.96-1.27-6.38.51-9.16.37-.58.2-1.34-.37-1.71-.57-.37-1.34-.2-1.71.37-2.23,3.47-2.47,7.91-.65,11.6.27.55.59,1.08.94,1.58.24.34.63.52,1.02.52"/>
      <path class="cls-2" d="M38.7,63.93c.25,0,.5-.08.72-.24.55-.4.67-1.17.27-1.73-.46-.63-.87-1.31-1.22-2.02-2.28-4.61-1.79-10.03,1.28-14.16.41-.55.29-1.32-.25-1.73-.55-.41-1.32-.29-1.73.25-3.63,4.88-4.21,11.28-1.51,16.73.41.84.9,1.64,1.45,2.38.24.33.62.51,1,.51"/>
      <path class="cls-2" d="M49.94,57.87c.2,0,.41-.05.6-.16.59-.34.8-1.09.47-1.68-.78-1.37-.84-3.04-.18-4.47.29-.62.02-1.35-.6-1.64-.62-.29-1.35-.01-1.64.61-.99,2.15-.89,4.66.28,6.72.23.4.65.63,1.08.63"/>
    </g>
  </g>
</svg>