<?xml version="1.0" encoding="UTF-8"?>
<svg xmlns="http://www.w3.org/2000/svg" width="145" height="160" xmlns:xlink="http://www.w3.org/1999/xlink" viewBox="0 0 145 160">
  <defs>
    <style>
      .cls-1 {
        fill: #d3562c;
      }

      .cls-1, .cls-2, .cls-3, .cls-4, .cls-5, .cls-6, .cls-7, .cls-8 {
        stroke-width: 0px;
      }

      .cls-9 {
        isolation: isolate;
      }

      .cls-2, .cls-10 {
        opacity: .25;
      }

      .cls-4 {
        fill: #353070;
      }

      .cls-5 {
        fill: none;
      }

      .cls-6 {
        fill: #6969af;
      }

      .cls-11 {
        opacity: .07;
      }

      .cls-11, .cls-10 {
        mix-blend-mode: multiply;
      }

      .cls-7 {
        fill: #eb743b;
      }

      .cls-12 {
        clip-path: url(#clippath);
      }

      .cls-8 {
        fill: #fffedb;
      }
    </style>
    <clipPath id="clippath">
      <rect class="cls-5" x="75" y="33.46" width="51.43" height="90.79"/>
    </clipPath>
  </defs>
  <g class="cls-9">
    <g id="Layer_1" data-name="Layer 1">
      <g>
        <polygon class="cls-7" points="75 8.04 75 152.04 136 117.04 136 43.04 75 8.04"/>
        <polygon class="cls-4" points="70 7.96 9 42.96 9 116.96 70 151.96 70 7.96"/>
        <g class="cls-11">
          <g class="cls-12">
            <path class="cls-3" d="M92.3,99.77c.39-.65,1.07-1.03,1.82-1.03.38,0,.75.1,1.08.3,1,.6,1.33,1.9.74,2.9-.39.65-1.06,1.03-1.82,1.03-.38,0-.75-.11-1.08-.3-.48-.29-.83-.75-.96-1.29-.14-.55-.06-1.12.23-1.6M104.9,122.14c-.49.42-1.02.51-1.37.51-.62,0-1.21-.27-1.61-.74-.76-.88-.66-2.22.23-2.98.49-.42,1.02-.51,1.37-.51.62,0,1.2.27,1.61.74.37.43.55.98.5,1.54-.04.56-.3,1.07-.73,1.44"/>
            <path class="cls-3" d="M84,53.65c.07.02.14.03.21.05-.07-.01-.14-.03-.21-.05"/>
            <path class="cls-3" d="M95.38,63.3c.17-.27.39-.49.67-.66.33-.21.72-.32,1.12-.32s.79.11,1.12.32c.99.63,1.28,1.94.66,2.92-.39.62-1.06.99-1.8.99-.4,0-.78-.11-1.12-.33-.98-.63-1.28-1.94-.66-2.92M101.76,43.11c-.6.95-1.94,1.27-2.91.65l-.1-.06c-.91-.65-1.16-1.9-.56-2.85.38-.61,1.05-.98,1.78-.98.4,0,.79.11,1.12.33.48.3.81.77.94,1.33.12.55.03,1.1-.28,1.58"/>
            <path class="cls-3" d="M118.53,54.71c.39-.62,1.05-.98,1.78-.98.4,0,.79.11,1.12.33.48.3.81.77.94,1.33.12.55.02,1.11-.28,1.58-.6.95-1.94,1.27-2.91.65l-.09-.06c-.92-.65-1.16-1.9-.56-2.85M118.53,78.17c.39-.61,1.05-.98,1.78-.98.4,0,.79.11,1.12.33.48.3.81.77.94,1.33.12.55.02,1.11-.28,1.58-.6.95-1.94,1.27-2.91.65l-.09-.06c-.92-.65-1.16-1.9-.56-2.85M118.53,104.47c.39-.61,1.05-.98,1.78-.98.4,0,.79.11,1.12.33.48.3.81.77.94,1.33.12.55.02,1.11-.28,1.58-.6.95-1.94,1.27-2.91.65l-.09-.06c-.92-.65-1.16-1.9-.56-2.85"/>
            <path class="cls-3" d="M108.18,114.14c-1.16-1.36-2.86-2.14-4.65-2.14-1.46,0-2.88.53-3.98,1.48-1.61,1.38-2.33,3.43-2.09,5.4-1.95.7-4.26,1.37-5.33,1.33-.82-.04-1.3-.34-2.22-.97-1.17-.79-2.42-1.51-4.15-1.85,2.94-2.76,6.01-6.83,8.58-12.83,2.06-.08,3.98-1.19,5.04-2.97,1.72-2.9.77-6.66-2.12-8.39-.95-.57-2.03-.86-3.13-.86-2.15,0-4.16,1.14-5.26,2.99-.84,1.41-1.08,3.05-.68,4.64.35,1.39,1.16,2.59,2.3,3.43-4.05,9.22-9.22,13.08-12.56,14.68-.13.04-.25.1-.36.17-1.19.53-2.05.71-2.56.81v4c.27-.03,1.88-.12,4.25-1.19,5.35-1.36,6.84-.35,8.41.71,1.02.69,2.29,1.55,4.26,1.66.1,0,.2,0,.31,0,2.11,0,5.17-1.02,7.02-1.72,1.14,1.12,2.68,1.75,4.29,1.75,1.46,0,2.88-.53,3.98-1.48,1.24-1.06,1.99-2.55,2.12-4.18.12-1.63-.39-3.21-1.46-4.45M92.3,97.37c.39-.65,1.07-1.03,1.82-1.03.38,0,.75.11,1.08.3,1,.6,1.33,1.9.74,2.9-.39.65-1.06,1.03-1.82,1.03-.38,0-.75-.11-1.08-.3-.48-.29-.83-.75-.96-1.29-.14-.55-.06-1.12.23-1.6M104.9,119.73c-.49.42-1.02.51-1.37.51-.62,0-1.21-.27-1.61-.73-.76-.88-.66-2.22.23-2.98.49-.42,1.02-.51,1.37-.51.62,0,1.2.27,1.61.74.37.43.55.98.5,1.54s-.3,1.07-.73,1.44"/>
            <path class="cls-3" d="M84,51.25c.07.02.14.03.21.05-.07-.01-.14-.03-.21-.05"/>
            <path class="cls-3" d="M105.95,38.25c-.36-1.6-1.32-2.96-2.71-3.84-.98-.62-2.11-.94-3.26-.94-2.12,0-4.05,1.07-5.17,2.85-1.35,2.14-1.22,4.8.14,6.76-3.65,4.12-8.71,4.31-9.94,4.29-3.69-1.6-7.23-2.16-10-2.32v4c2.44.14,5.55.69,8.75,2.14,0,0,0,0,.01,0,3.45,1.56,6.33,3.93,8.61,7.04-.13.17-.26.35-.38.54-1.8,2.85-.94,6.65,1.9,8.44.98.62,2.11.95,3.27.95,2.11,0,4.05-1.06,5.18-2.85,1.81-2.85.95-6.64-1.91-8.45-1.38-.87-3.09-1.11-4.67-.75-1.54-2.16-3.32-4.02-5.34-5.57,2.52-.78,5.4-2.27,7.78-5.09.57.17,1.17.27,1.77.27,2.12,0,4.05-1.07,5.17-2.85.87-1.38,1.16-3.01.8-4.6M95.38,60.89c.17-.27.39-.49.67-.66.33-.21.72-.32,1.12-.32s.79.11,1.12.32c.99.63,1.28,1.94.66,2.92-.39.62-1.06.99-1.8.99-.4,0-.78-.11-1.12-.33-.98-.62-1.28-1.94-.66-2.92M101.76,40.7c-.6.95-1.94,1.27-2.91.65l-.1-.06c-.91-.65-1.16-1.9-.56-2.85.38-.61,1.05-.98,1.78-.98.4,0,.79.11,1.12.33.48.31.81.77.94,1.33.12.55.03,1.11-.28,1.58"/>
            <path class="cls-3" d="M114.65,79.23c.42,1.03,1.14,1.96,2.11,2.65.07.05.15.1.28.19.98.62,2.11.95,3.27.95,2.12,0,4.05-1.07,5.17-2.85.88-1.38,1.16-3.01.8-4.61-.36-1.6-1.32-2.96-2.71-3.84-.98-.62-2.11-.94-3.27-.94-.12,0-.25,0-.37.02-.71-3.16-.92-7.77.03-11.26.11.01.23.02.34.02,2.12,0,4.05-1.07,5.17-2.85.88-1.38,1.16-3.01.8-4.6-.36-1.6-1.32-2.96-2.71-3.84-.98-.62-2.11-.94-3.27-.94-2.11,0-4.05,1.07-5.17,2.85-1.6,2.53-1.12,5.8,1.02,7.77.02.02.05.04.07.06-1.35,4.52-1.14,10.32-.04,14.42-.14.13-.29.26-.43.4-.23.26-.45.53-.63.82-.32.5-.55,1.03-.71,1.58-3.37.49-5.2,1.67-6.82,2.73-2.04,1.33-3.96,2.57-9.64,2.67-1.96-.23-3.55-.18-5.29-.12-1.43.05-2.91.11-4.85,0-1.34-.07-2.1-.88-3.46-2.42-1.8-2.06-4.22-4.65-9.37-5.02v4c3.29.3,4.8,1.89,6.36,3.67,1.49,1.69,3.17,3.62,6.26,3.78,2.12.11,3.76.05,5.21,0,2.49-.09,4.45-.16,7.85.68,2.61.64,12.1,9.67,14.77,14.32-.11.14-.22.28-.31.43-1.74,2.76-1.03,6.39,1.62,8.25.07.05.15.11.28.19.98.62,2.11.95,3.27.95,2.12,0,4.05-1.07,5.17-2.85.88-1.37,1.16-3.01.8-4.6-.36-1.6-1.32-2.96-2.71-3.84-.98-.62-2.11-.94-3.27-.94-.53,0-1.05.07-1.54.19-2.56-4.19-8.65-10.45-13.19-13.79,1.81-.63,3.05-1.44,4.21-2.19,1.43-.93,2.61-1.69,4.86-2.07M118.53,52.3c.39-.61,1.05-.98,1.78-.98.4,0,.79.11,1.12.32.48.3.81.77.94,1.33.12.55.02,1.11-.28,1.58-.6.95-1.94,1.27-2.91.65l-.09-.06c-.92-.65-1.16-1.9-.56-2.85M118.53,75.77c.39-.62,1.05-.98,1.78-.98.4,0,.79.11,1.12.33.48.31.81.77.94,1.33.12.55.02,1.11-.28,1.58-.6.95-1.94,1.27-2.91.65l-.09-.06c-.92-.65-1.16-1.9-.56-2.85M118.53,102.07c.39-.61,1.05-.98,1.78-.98.4,0,.79.11,1.12.33.48.31.81.78.94,1.33.12.55.02,1.11-.28,1.58-.6.95-1.94,1.27-2.91.66l-.09-.06c-.92-.65-1.16-1.9-.56-2.85"/>
          </g>
        </g>
        <path class="cls-1" d="M108.18,117.14c-1.16-1.36-2.86-2.14-4.65-2.14-1.46,0-2.88.53-3.98,1.48-1.61,1.38-2.33,3.43-2.09,5.4-1.95.7-4.26,1.37-5.33,1.33-.82-.04-1.3-.34-2.22-.97-1.17-.79-2.42-1.51-4.15-1.85,2.94-2.76,6.01-6.83,8.58-12.83,2.06-.08,3.98-1.19,5.04-2.97,1.72-2.9.77-6.66-2.12-8.39-.95-.57-2.03-.86-3.13-.86-2.15,0-4.16,1.14-5.26,2.99-.84,1.41-1.08,3.05-.68,4.64.35,1.39,1.16,2.59,2.3,3.43-4.05,9.22-9.22,13.08-12.56,14.68-.13.04-.25.1-.36.17-1.19.53-2.05.71-2.56.81v4c.27-.03,1.88-.12,4.25-1.19,5.35-1.36,6.84-.35,8.41.71,1.02.69,2.29,1.55,4.26,1.66.1,0,.2,0,.31,0,2.11,0,5.17-1.02,7.02-1.72,1.14,1.12,2.68,1.75,4.29,1.75,1.46,0,2.88-.53,3.98-1.48,1.24-1.06,1.99-2.54,2.12-4.18.12-1.63-.39-3.21-1.46-4.45M92.3,100.37c.39-.65,1.07-1.03,1.82-1.03.38,0,.75.11,1.08.3,1,.6,1.33,1.9.74,2.9-.39.65-1.06,1.03-1.82,1.03-.38,0-.75-.11-1.08-.3-.48-.29-.83-.75-.96-1.29-.14-.55-.06-1.12.23-1.6M104.9,122.73c-.49.42-1.02.51-1.37.51-.62,0-1.21-.27-1.61-.73-.76-.88-.66-2.22.23-2.98.49-.42,1.02-.51,1.37-.51.62,0,1.2.27,1.61.74.37.43.55.98.5,1.54s-.3,1.07-.73,1.44"/>
        <path class="cls-3" d="M84,53.65c.07.02.14.03.21.05-.07-.01-.14-.03-.21-.05"/>
        <path class="cls-1" d="M105.95,40.25c-.36-1.6-1.32-2.96-2.71-3.84-.98-.62-2.11-.94-3.26-.94-2.12,0-4.05,1.06-5.17,2.85-1.35,2.14-1.22,4.8.14,6.76-3.65,4.12-8.71,4.31-9.94,4.29-3.69-1.61-7.23-2.17-10-2.32v3.99c2.44.14,5.55.69,8.75,2.14,0,0,0,0,.01,0,3.45,1.56,6.33,3.93,8.61,7.04-.13.17-.26.35-.38.54-1.8,2.85-.94,6.64,1.9,8.44.98.62,2.11.95,3.27.95,2.11,0,4.05-1.07,5.18-2.85,1.81-2.85.95-6.64-1.91-8.45-1.38-.87-3.09-1.11-4.67-.75-1.54-2.16-3.32-4.02-5.34-5.57,2.52-.78,5.4-2.27,7.78-5.1.57.17,1.17.27,1.77.27,2.12,0,4.05-1.07,5.17-2.85.87-1.38,1.16-3.01.8-4.6M95.38,62.9c.17-.27.39-.49.67-.66.33-.21.72-.32,1.12-.32s.79.11,1.12.32c.99.63,1.28,1.94.66,2.92-.39.62-1.06.99-1.8.99-.4,0-.78-.11-1.12-.33-.98-.63-1.28-1.94-.66-2.92M101.76,42.71c-.6.95-1.94,1.27-2.91.65l-.1-.06c-.91-.65-1.16-1.9-.56-2.85.38-.61,1.05-.98,1.78-.98.4,0,.79.11,1.12.33.48.3.81.77.94,1.33.12.55.03,1.1-.28,1.58"/>
        <path class="cls-1" d="M114.65,82.23c.42,1.03,1.14,1.96,2.11,2.65.07.05.15.1.28.19.98.62,2.11.95,3.27.95,2.12,0,4.05-1.07,5.17-2.85.88-1.37,1.16-3.01.8-4.6-.36-1.6-1.32-2.96-2.71-3.84-.98-.62-2.11-.94-3.27-.94-.12,0-.25,0-.37.02-.71-3.16-.92-7.77.03-11.26.11.01.23.02.34.02,2.12,0,4.05-1.07,5.17-2.85.88-1.38,1.16-3.01.8-4.6-.36-1.6-1.32-2.96-2.71-3.84-.98-.62-2.11-.94-3.27-.94-2.11,0-4.05,1.06-5.17,2.85-1.6,2.53-1.12,5.8,1.02,7.77.02.02.05.04.07.06-1.35,4.52-1.14,10.32-.04,14.42-.14.13-.29.25-.43.4-.23.26-.45.53-.63.82-.32.5-.55,1.03-.71,1.58-3.37.49-5.2,1.67-6.82,2.73-2.04,1.32-3.96,2.57-9.64,2.66-1.96-.23-3.55-.18-5.29-.12-1.43.05-2.91.11-4.85,0-1.34-.07-2.1-.88-3.46-2.42-1.8-2.06-4.22-4.65-9.37-5.02v4c3.29.3,4.8,1.89,6.36,3.67,1.49,1.69,3.17,3.62,6.26,3.78,2.12.11,3.76.05,5.21,0,2.49-.09,4.45-.16,7.85.68,2.61.64,12.1,9.67,14.77,14.32-.11.14-.22.28-.31.43-1.74,2.76-1.03,6.39,1.62,8.25.07.05.15.11.28.19.98.62,2.11.95,3.27.95,2.12,0,4.05-1.07,5.17-2.85.88-1.37,1.16-3.01.8-4.6-.36-1.6-1.32-2.96-2.71-3.84-.98-.62-2.11-.94-3.27-.94-.53,0-1.05.07-1.54.19-2.56-4.19-8.65-10.45-13.19-13.79,1.81-.63,3.05-1.44,4.21-2.19,1.43-.93,2.61-1.69,4.86-2.07M118.53,55.3c.39-.61,1.05-.98,1.78-.98.4,0,.79.11,1.12.32.48.31.81.77.94,1.33.12.55.02,1.11-.28,1.58-.6.95-1.94,1.27-2.91.65l-.09-.06c-.92-.65-1.16-1.9-.56-2.85M118.53,78.77c.39-.62,1.05-.98,1.78-.98.4,0,.79.11,1.12.33.48.31.81.77.94,1.33.12.55.02,1.11-.28,1.58-.6.95-1.94,1.27-2.91.65l-.09-.06c-.92-.65-1.16-1.9-.56-2.85M118.53,105.07c.39-.61,1.05-.98,1.78-.98.4,0,.79.11,1.12.33.48.31.81.78.94,1.33.12.55.02,1.11-.28,1.58-.6.95-1.94,1.27-2.91.66l-.09-.06c-.92-.65-1.16-1.9-.56-2.85"/>
        <path class="cls-8" d="M108.18,114.14c-1.16-1.36-2.86-2.14-4.65-2.14-1.46,0-2.88.53-3.98,1.48-1.61,1.38-2.33,3.43-2.09,5.4-1.95.7-4.26,1.37-5.33,1.33-.82-.04-1.3-.34-2.22-.97-1.17-.79-2.42-1.51-4.15-1.85,2.94-2.76,6.01-6.83,8.58-12.83,2.06-.08,3.98-1.19,5.04-2.97,1.72-2.9.77-6.66-2.12-8.39-.95-.57-2.03-.86-3.13-.86-2.15,0-4.16,1.14-5.26,2.99-.84,1.41-1.08,3.05-.68,4.64.35,1.39,1.16,2.59,2.3,3.43-4.05,9.22-9.22,13.08-12.56,14.68-.13.04-.25.1-.36.17-1.19.53-2.05.71-2.56.81v4c.27-.03,1.88-.12,4.25-1.19,5.35-1.36,6.84-.35,8.41.71,1.02.69,2.29,1.55,4.26,1.66.1,0,.2,0,.31,0,2.11,0,5.17-1.02,7.02-1.72,1.14,1.12,2.68,1.75,4.29,1.75,1.46,0,2.88-.53,3.98-1.48,1.24-1.06,1.99-2.55,2.12-4.18.12-1.63-.39-3.21-1.46-4.45M92.3,97.37c.39-.65,1.07-1.03,1.82-1.03.38,0,.75.11,1.08.3,1,.6,1.33,1.9.74,2.9-.39.65-1.06,1.03-1.82,1.03-.38,0-.75-.11-1.08-.3-.48-.29-.83-.75-.96-1.29-.14-.55-.06-1.12.23-1.6M104.9,119.73c-.49.42-1.02.51-1.37.51-.62,0-1.21-.27-1.61-.73-.76-.88-.66-2.22.23-2.98.49-.42,1.02-.51,1.37-.51.62,0,1.2.27,1.61.74.37.43.55.98.5,1.54s-.3,1.07-.73,1.44"/>
        <path class="cls-8" d="M84,51.25c.07.02.14.03.21.05-.07-.01-.14-.03-.21-.05"/>
        <path class="cls-8" d="M105.95,38.25c-.36-1.6-1.32-2.96-2.71-3.84-.98-.62-2.11-.94-3.26-.94-2.12,0-4.05,1.07-5.17,2.85-1.35,2.14-1.22,4.8.14,6.76-3.65,4.12-8.71,4.31-9.94,4.29-3.69-1.6-7.23-2.16-10-2.32v4c2.44.14,5.55.69,8.75,2.14,0,0,0,0,.01,0,3.45,1.56,6.33,3.93,8.61,7.04-.13.17-.26.35-.38.54-1.8,2.85-.94,6.65,1.9,8.44.98.62,2.11.95,3.27.95,2.11,0,4.05-1.06,5.18-2.85,1.81-2.85.95-6.64-1.91-8.45-1.38-.87-3.09-1.11-4.67-.75-1.54-2.16-3.32-4.02-5.34-5.57,2.52-.78,5.4-2.27,7.78-5.09.57.17,1.17.27,1.77.27,2.12,0,4.05-1.07,5.17-2.85.87-1.38,1.16-3.01.8-4.6M95.38,60.89c.17-.27.39-.49.67-.66.33-.21.72-.32,1.12-.32s.79.11,1.12.32c.99.63,1.28,1.94.66,2.92-.39.62-1.06.99-1.8.99-.4,0-.78-.11-1.12-.33-.98-.62-1.28-1.94-.66-2.92M101.76,40.7c-.6.95-1.94,1.27-2.91.65l-.1-.06c-.91-.65-1.16-1.9-.56-2.85.38-.61,1.05-.98,1.78-.98.4,0,.79.11,1.12.33.48.31.81.77.94,1.33.12.55.03,1.11-.28,1.58"/>
        <path class="cls-8" d="M114.65,79.23c.42,1.03,1.14,1.96,2.11,2.65.07.05.15.1.28.19.98.62,2.11.95,3.27.95,2.12,0,4.05-1.07,5.17-2.85.88-1.38,1.16-3.01.8-4.61-.36-1.6-1.32-2.96-2.71-3.84-.98-.62-2.11-.94-3.27-.94-.12,0-.25,0-.37.02-.71-3.16-.92-7.77.03-11.26.11.01.23.02.34.02,2.12,0,4.05-1.07,5.17-2.85.88-1.38,1.16-3.01.8-4.6-.36-1.6-1.32-2.96-2.71-3.84-.98-.62-2.11-.94-3.27-.94-2.11,0-4.05,1.07-5.17,2.85-1.6,2.53-1.12,5.8,1.02,7.77.02.02.05.04.07.06-1.35,4.52-1.14,10.32-.04,14.42-.14.13-.29.26-.43.4-.23.26-.45.53-.63.82-.32.5-.55,1.03-.71,1.58-3.37.49-5.2,1.67-6.82,2.73-2.04,1.33-3.96,2.57-9.64,2.67-1.96-.23-3.55-.18-5.29-.12-1.43.05-2.91.11-4.85,0-1.34-.07-2.1-.88-3.46-2.42-1.8-2.06-4.22-4.65-9.37-5.02v4c3.29.3,4.8,1.89,6.36,3.67,1.49,1.69,3.17,3.62,6.26,3.78,2.12.11,3.76.05,5.21,0,2.49-.09,4.45-.16,7.85.68,2.61.64,12.1,9.67,14.77,14.32-.11.14-.22.28-.31.43-1.74,2.76-1.03,6.39,1.62,8.25.07.05.15.11.28.19.98.62,2.11.95,3.27.95,2.12,0,4.05-1.07,5.17-2.85.88-1.37,1.16-3.01.8-4.6-.36-1.6-1.32-2.96-2.71-3.84-.98-.62-2.11-.94-3.27-.94-.53,0-1.05.07-1.54.19-2.56-4.19-8.65-10.45-13.19-13.79,1.81-.63,3.05-1.44,4.21-2.19,1.43-.93,2.61-1.69,4.86-2.07M118.53,52.3c.39-.61,1.05-.98,1.78-.98.4,0,.79.11,1.12.32.48.3.81.77.94,1.33.12.55.02,1.11-.28,1.58-.6.95-1.94,1.27-2.91.65l-.09-.06c-.92-.65-1.16-1.9-.56-2.85M118.53,75.77c.39-.62,1.05-.98,1.78-.98.4,0,.79.11,1.12.33.48.31.81.77.94,1.33.12.55.02,1.11-.28,1.58-.6.95-1.94,1.27-2.91.65l-.09-.06c-.92-.65-1.16-1.9-.56-2.85M118.53,102.07c.39-.61,1.05-.98,1.78-.98.4,0,.79.11,1.12.33.48.31.81.78.94,1.33.12.55.02,1.11-.28,1.58-.6.95-1.94,1.27-2.91.66l-.09-.06c-.92-.65-1.16-1.9-.56-2.85"/>
        <path class="cls-6" d="M70,74.51v-29.66H31.08c-2.56,0-3.25,3.25-3.25,3.25v79.67l42.17,24.2v-29.06c-5.01-.2-22.38-2.44-22.38-23.71,0-19.99,16.08-23.91,22.38-24.68Z"/>
        <path class="cls-2" d="M70,80.08v-4.01c-13.97.11-25.3,11.5-25.3,25.49s11.33,25.39,25.3,25.49v-4.01c-11.76-.11-21.3-9.7-21.3-21.49s9.54-21.38,21.3-21.49Z"/>
        <path class="cls-8" d="M70,77.25v-4.01c-13.97.11-25.3,11.5-25.3,25.49s11.33,25.39,25.3,25.49v-4.01c-11.76-.11-21.3-9.7-21.3-21.49s9.54-21.38,21.3-21.49Z"/>
        <g>
          <g class="cls-10">
            <path class="cls-3" d="M30.08,105.73c.24,0,.49-.07.71-.22.56-.39.69-1.17.3-1.72-.28-.4-.53-.82-.75-1.25-1.46-2.96-1.27-6.38.51-9.16.37-.58.2-1.34-.37-1.71-.57-.37-1.34-.2-1.71.37-2.23,3.47-2.47,7.91-.65,11.6.27.55.59,1.08.94,1.58.24.34.63.52,1.02.52"/>
            <path class="cls-3" d="M24.4,108.67c.25,0,.5-.08.72-.24.55-.4.67-1.17.27-1.73-.46-.63-.87-1.31-1.22-2.02-2.28-4.61-1.79-10.03,1.28-14.16.41-.55.29-1.32-.25-1.73-.55-.41-1.32-.29-1.73.25-3.63,4.88-4.21,11.28-1.51,16.73.41.84.9,1.64,1.45,2.38.24.33.62.51,1,.51"/>
            <path class="cls-3" d="M35.64,102.61c.2,0,.41-.05.6-.16.59-.34.8-1.09.47-1.68-.78-1.37-.84-3.04-.18-4.47.29-.62.02-1.35-.6-1.64-.62-.29-1.35-.01-1.64.61-.99,2.15-.89,4.66.28,6.72.23.4.65.63,1.08.63"/>
          </g>
          <g>
            <path class="cls-7" d="M30.08,103.68c.24,0,.49-.07.71-.22.56-.39.69-1.17.3-1.72-.28-.4-.53-.82-.75-1.25-1.46-2.96-1.27-6.38.51-9.16.37-.58.2-1.34-.37-1.71-.57-.37-1.34-.2-1.71.37-2.23,3.47-2.47,7.91-.65,11.6.27.55.59,1.08.94,1.58.24.34.63.52,1.02.52"/>
            <path class="cls-7" d="M24.4,106.63c.25,0,.5-.08.72-.24.55-.4.67-1.17.27-1.73-.46-.63-.87-1.31-1.22-2.02-2.28-4.61-1.79-10.03,1.28-14.16.41-.55.29-1.32-.25-1.73-.55-.41-1.32-.29-1.73.25-3.63,4.88-4.21,11.28-1.51,16.73.41.84.9,1.64,1.45,2.38.24.33.62.51,1,.51"/>
            <path class="cls-7" d="M35.64,100.56c.2,0,.41-.05.6-.16.59-.34.8-1.09.47-1.68-.78-1.37-.84-3.04-.18-4.47.29-.62.02-1.35-.6-1.64-.62-.29-1.35-.01-1.64.61-.99,2.15-.89,4.66.28,6.72.23.4.65.63,1.08.63"/>
          </g>
        </g>
      </g>
    </g>
  </g>
</svg>