<?xml version="1.0" encoding="UTF-8"?>
<svg xmlns="http://www.w3.org/2000/svg" width="380.45" height="150" xmlns:xlink="http://www.w3.org/1999/xlink" viewBox="0 0 380.45 150">
  <defs>
    <style>
      .cls-1 {
        fill: #d3562c;
      }

      .cls-1, .cls-2, .cls-3, .cls-4, .cls-5, .cls-6, .cls-7, .cls-8 {
        stroke-width: 0px;
      }

      .cls-9 {
        isolation: isolate;
      }

      .cls-2, .cls-10 {
        opacity: .25;
      }

      .cls-4 {
        fill: #353070;
      }

      .cls-5 {
        fill: none;
      }

      .cls-6 {
        fill: #6969af;
      }

      .cls-11 {
        opacity: .07;
      }

      .cls-11, .cls-10 {
        mix-blend-mode: multiply;
      }

      .cls-7 {
        fill: #eb743b;
      }

      .cls-12 {
        clip-path: url(#clippath);
      }

      .cls-8 {
        fill: #fffedb;
      }
    </style>
    <clipPath id="clippath">
      <rect class="cls-5" x="70.32" y="28.37" width="51.43" height="90.79"/>
    </clipPath>
  </defs>
  <g class="cls-9">
    <g id="Layer_1" data-name="Layer 1">
      <g>
        <polygon class="cls-7" points="70.32 2.96 70.32 146.96 131.32 111.95 131.32 37.96 70.32 2.96"/>
        <polygon class="cls-4" points="65.32 2.87 4.32 37.87 4.32 111.87 65.32 146.87 65.32 2.87"/>
        <g class="cls-11">
          <g class="cls-12">
            <path class="cls-3" d="M87.63,94.69c.39-.65,1.07-1.03,1.82-1.03.38,0,.75.1,1.08.3,1,.6,1.33,1.9.74,2.9-.39.65-1.06,1.03-1.82,1.03-.38,0-.75-.11-1.08-.3-.48-.29-.83-.75-.96-1.29-.14-.55-.06-1.12.23-1.6M100.23,117.05c-.49.42-1.02.51-1.37.51-.62,0-1.21-.27-1.61-.74-.76-.88-.66-2.22.23-2.98.49-.42,1.02-.51,1.37-.51.62,0,1.2.27,1.61.74.37.43.55.98.5,1.54-.04.56-.3,1.07-.73,1.44"/>
            <path class="cls-3" d="M79.32,48.57c.07.02.14.03.21.05-.07-.01-.14-.03-.21-.05"/>
            <path class="cls-3" d="M90.7,58.21c.17-.27.39-.49.67-.66.33-.21.72-.32,1.12-.32s.79.11,1.12.32c.99.63,1.28,1.94.66,2.92-.39.62-1.06.99-1.8.99-.4,0-.78-.11-1.12-.33-.98-.63-1.28-1.94-.66-2.92M97.08,38.03c-.6.95-1.94,1.27-2.91.65l-.1-.06c-.91-.65-1.16-1.9-.56-2.85.38-.61,1.05-.98,1.78-.98.4,0,.79.11,1.12.33.48.3.81.77.94,1.33.12.55.03,1.1-.28,1.58"/>
            <path class="cls-3" d="M113.85,49.62c.39-.62,1.05-.98,1.78-.98.4,0,.79.11,1.12.33.48.3.81.77.94,1.33.12.55.02,1.11-.28,1.58-.6.95-1.94,1.27-2.91.65l-.09-.06c-.92-.65-1.16-1.9-.56-2.85M113.85,73.09c.39-.61,1.05-.98,1.78-.98.4,0,.79.11,1.12.33.48.3.81.77.94,1.33.12.55.02,1.11-.28,1.58-.6.95-1.94,1.27-2.91.65l-.09-.06c-.92-.65-1.16-1.9-.56-2.85M113.85,99.39c.39-.61,1.05-.98,1.78-.98.4,0,.79.11,1.12.33.48.3.81.77.94,1.33.12.55.02,1.11-.28,1.58-.6.95-1.94,1.27-2.91.65l-.09-.06c-.92-.65-1.16-1.9-.56-2.85"/>
            <path class="cls-3" d="M103.5,109.06c-1.16-1.36-2.86-2.14-4.65-2.14-1.46,0-2.88.53-3.98,1.48-1.61,1.38-2.33,3.43-2.09,5.4-1.95.7-4.26,1.37-5.33,1.33-.82-.04-1.3-.34-2.22-.97-1.17-.79-2.42-1.51-4.15-1.85,2.94-2.76,6.01-6.83,8.58-12.83,2.06-.08,3.98-1.19,5.04-2.97,1.72-2.9.77-6.66-2.12-8.39-.95-.57-2.03-.86-3.13-.86-2.15,0-4.16,1.14-5.26,2.99-.84,1.41-1.08,3.05-.68,4.64.35,1.39,1.16,2.59,2.3,3.43-4.05,9.22-9.22,13.08-12.56,14.68-.13.04-.25.1-.36.17-1.19.53-2.05.71-2.56.81v4c.27-.03,1.88-.12,4.25-1.19,5.35-1.36,6.84-.35,8.41.71,1.02.69,2.29,1.55,4.26,1.66.1,0,.2,0,.31,0,2.11,0,5.17-1.02,7.02-1.72,1.14,1.12,2.68,1.75,4.29,1.75,1.46,0,2.88-.53,3.98-1.48,1.24-1.06,1.99-2.55,2.12-4.18.12-1.63-.39-3.21-1.46-4.45M87.63,92.28c.39-.65,1.07-1.03,1.82-1.03.38,0,.75.11,1.08.3,1,.6,1.33,1.9.74,2.9-.39.65-1.06,1.03-1.82,1.03-.38,0-.75-.11-1.08-.3-.48-.29-.83-.75-.96-1.29-.14-.55-.06-1.12.23-1.6M100.23,114.65c-.49.42-1.02.51-1.37.51-.62,0-1.21-.27-1.61-.73-.76-.88-.66-2.22.23-2.98.49-.42,1.02-.51,1.37-.51.62,0,1.2.27,1.61.74.37.43.55.98.5,1.54s-.3,1.07-.73,1.44"/>
            <path class="cls-3" d="M79.32,46.16c.07.02.14.03.21.05-.07-.01-.14-.03-.21-.05"/>
            <path class="cls-3" d="M101.27,33.16c-.36-1.6-1.32-2.96-2.71-3.84-.98-.62-2.11-.94-3.26-.94-2.12,0-4.05,1.07-5.17,2.85-1.35,2.14-1.22,4.8.14,6.76-3.65,4.12-8.71,4.31-9.94,4.29-3.69-1.6-7.23-2.16-10-2.32v4c2.44.14,5.55.69,8.75,2.14,0,0,0,0,.01,0,3.45,1.56,6.33,3.93,8.61,7.04-.13.17-.26.35-.38.54-1.8,2.85-.94,6.65,1.9,8.44.98.62,2.11.95,3.27.95,2.11,0,4.05-1.06,5.18-2.85,1.81-2.85.95-6.64-1.91-8.45-1.38-.87-3.09-1.11-4.67-.75-1.54-2.16-3.32-4.02-5.34-5.57,2.52-.78,5.4-2.27,7.78-5.09.57.17,1.17.27,1.77.27,2.12,0,4.05-1.07,5.17-2.85.87-1.38,1.16-3.01.8-4.6M90.7,55.81c.17-.27.39-.49.67-.66.33-.21.72-.32,1.12-.32s.79.11,1.12.32c.99.63,1.28,1.94.66,2.92-.39.62-1.06.99-1.8.99-.4,0-.78-.11-1.12-.33-.98-.62-1.28-1.94-.66-2.92M97.08,35.62c-.6.95-1.94,1.27-2.91.65l-.1-.06c-.91-.65-1.16-1.9-.56-2.85.38-.61,1.05-.98,1.78-.98.4,0,.79.11,1.12.33.48.31.81.77.94,1.33.12.55.03,1.11-.28,1.58"/>
            <path class="cls-3" d="M109.97,74.14c.42,1.03,1.14,1.96,2.11,2.65.07.05.15.1.28.19.98.62,2.11.95,3.27.95,2.12,0,4.05-1.07,5.17-2.85.88-1.38,1.16-3.01.8-4.61-.36-1.6-1.32-2.96-2.71-3.84-.98-.62-2.11-.94-3.27-.94-.12,0-.25,0-.37.02-.71-3.16-.92-7.77.03-11.26.11.01.23.02.34.02,2.12,0,4.05-1.07,5.17-2.85.88-1.38,1.16-3.01.8-4.6-.36-1.6-1.32-2.96-2.71-3.84-.98-.62-2.11-.94-3.27-.94-2.11,0-4.05,1.07-5.17,2.85-1.6,2.53-1.12,5.8,1.02,7.77.02.02.05.04.07.06-1.35,4.52-1.14,10.32-.04,14.42-.14.13-.29.26-.43.4-.23.26-.45.53-.63.82-.32.5-.55,1.03-.71,1.58-3.37.49-5.2,1.67-6.82,2.73-2.04,1.33-3.96,2.57-9.64,2.67-1.96-.23-3.55-.18-5.29-.12-1.43.05-2.91.11-4.85,0-1.34-.07-2.1-.88-3.46-2.42-1.8-2.06-4.22-4.65-9.37-5.02v4c3.29.3,4.8,1.89,6.36,3.67,1.49,1.69,3.17,3.62,6.26,3.78,2.12.11,3.76.05,5.21,0,2.49-.09,4.45-.16,7.85.68,2.61.64,12.1,9.67,14.77,14.32-.11.14-.22.28-.31.43-1.74,2.76-1.03,6.39,1.62,8.25.07.05.15.11.28.19.98.62,2.11.95,3.27.95,2.12,0,4.05-1.07,5.17-2.85.88-1.37,1.16-3.01.8-4.6-.36-1.6-1.32-2.96-2.71-3.84-.98-.62-2.11-.94-3.27-.94-.53,0-1.05.07-1.54.19-2.56-4.19-8.65-10.45-13.19-13.79,1.81-.63,3.05-1.44,4.21-2.19,1.43-.93,2.61-1.69,4.86-2.07M113.85,47.22c.39-.61,1.05-.98,1.78-.98.4,0,.79.11,1.12.32.48.3.81.77.94,1.33.12.55.02,1.11-.28,1.58-.6.95-1.94,1.27-2.91.65l-.09-.06c-.92-.65-1.16-1.9-.56-2.85M113.85,70.68c.39-.62,1.05-.98,1.78-.98.4,0,.79.11,1.12.33.48.31.81.77.94,1.33.12.55.02,1.11-.28,1.58-.6.95-1.94,1.27-2.91.65l-.09-.06c-.92-.65-1.16-1.9-.56-2.85M113.85,96.98c.39-.61,1.05-.98,1.78-.98.4,0,.79.11,1.12.33.48.31.81.78.94,1.33.12.55.02,1.11-.28,1.58-.6.95-1.94,1.27-2.91.66l-.09-.06c-.92-.65-1.16-1.9-.56-2.85"/>
          </g>
        </g>
        <path class="cls-1" d="M103.5,112.06c-1.16-1.36-2.86-2.14-4.65-2.14-1.46,0-2.88.53-3.98,1.48-1.61,1.38-2.33,3.43-2.09,5.4-1.95.7-4.26,1.37-5.33,1.33-.82-.04-1.3-.34-2.22-.97-1.17-.79-2.42-1.51-4.15-1.85,2.94-2.76,6.01-6.83,8.58-12.83,2.06-.08,3.98-1.19,5.04-2.97,1.72-2.9.77-6.66-2.12-8.39-.95-.57-2.03-.86-3.13-.86-2.15,0-4.16,1.14-5.26,2.99-.84,1.41-1.08,3.05-.68,4.64.35,1.39,1.16,2.59,2.3,3.43-4.05,9.22-9.22,13.08-12.56,14.68-.13.04-.25.1-.36.17-1.19.53-2.05.71-2.56.81v4c.27-.03,1.88-.12,4.25-1.19,5.35-1.36,6.84-.35,8.41.71,1.02.69,2.29,1.55,4.26,1.66.1,0,.2,0,.31,0,2.11,0,5.17-1.02,7.02-1.72,1.14,1.12,2.68,1.75,4.29,1.75,1.46,0,2.88-.53,3.98-1.48,1.24-1.06,1.99-2.54,2.12-4.18.12-1.63-.39-3.21-1.46-4.45M87.63,95.28c.39-.65,1.07-1.03,1.82-1.03.38,0,.75.11,1.08.3,1,.6,1.33,1.9.74,2.9-.39.65-1.06,1.03-1.82,1.03-.38,0-.75-.11-1.08-.3-.48-.29-.83-.75-.96-1.29-.14-.55-.06-1.12.23-1.6M100.23,117.64c-.49.42-1.02.51-1.37.51-.62,0-1.21-.27-1.61-.73-.76-.88-.66-2.22.23-2.98.49-.42,1.02-.51,1.37-.51.62,0,1.2.27,1.61.74.37.43.55.98.5,1.54s-.3,1.07-.73,1.44"/>
        <path class="cls-3" d="M79.32,48.57c.07.02.14.03.21.05-.07-.01-.14-.03-.21-.05"/>
        <path class="cls-1" d="M101.27,35.16c-.36-1.6-1.32-2.96-2.71-3.84-.98-.62-2.11-.94-3.26-.94-2.12,0-4.05,1.06-5.17,2.85-1.35,2.14-1.22,4.8.14,6.76-3.65,4.12-8.71,4.31-9.94,4.29-3.69-1.61-7.23-2.17-10-2.32v3.99c2.44.14,5.55.69,8.75,2.14,0,0,0,0,.01,0,3.45,1.56,6.33,3.93,8.61,7.04-.13.17-.26.35-.38.54-1.8,2.85-.94,6.64,1.9,8.44.98.62,2.11.95,3.27.95,2.11,0,4.05-1.07,5.18-2.85,1.81-2.85.95-6.64-1.91-8.45-1.38-.87-3.09-1.11-4.67-.75-1.54-2.16-3.32-4.02-5.34-5.57,2.52-.78,5.4-2.27,7.78-5.1.57.17,1.17.27,1.77.27,2.12,0,4.05-1.07,5.17-2.85.87-1.38,1.16-3.01.8-4.6M90.7,57.81c.17-.27.39-.49.67-.66.33-.21.72-.32,1.12-.32s.79.11,1.12.32c.99.63,1.28,1.94.66,2.92-.39.62-1.06.99-1.8.99-.4,0-.78-.11-1.12-.33-.98-.63-1.28-1.94-.66-2.92M97.08,37.62c-.6.95-1.94,1.27-2.91.65l-.1-.06c-.91-.65-1.16-1.9-.56-2.85.38-.61,1.05-.98,1.78-.98.4,0,.79.11,1.12.33.48.3.81.77.94,1.33.12.55.03,1.1-.28,1.58"/>
        <path class="cls-1" d="M109.97,77.14c.42,1.03,1.14,1.96,2.11,2.65.07.05.15.1.28.19.98.62,2.11.95,3.27.95,2.12,0,4.05-1.07,5.17-2.85.88-1.37,1.16-3.01.8-4.6-.36-1.6-1.32-2.96-2.71-3.84-.98-.62-2.11-.94-3.27-.94-.12,0-.25,0-.37.02-.71-3.16-.92-7.77.03-11.26.11.01.23.02.34.02,2.12,0,4.05-1.07,5.17-2.85.88-1.38,1.16-3.01.8-4.6-.36-1.6-1.32-2.96-2.71-3.84-.98-.62-2.11-.94-3.27-.94-2.11,0-4.05,1.06-5.17,2.85-1.6,2.53-1.12,5.8,1.02,7.77.02.02.05.04.07.06-1.35,4.52-1.14,10.32-.04,14.42-.14.13-.29.25-.43.4-.23.26-.45.53-.63.82-.32.5-.55,1.03-.71,1.58-3.37.49-5.2,1.67-6.82,2.73-2.04,1.32-3.96,2.57-9.64,2.66-1.96-.23-3.55-.18-5.29-.12-1.43.05-2.91.11-4.85,0-1.34-.07-2.1-.88-3.46-2.42-1.8-2.06-4.22-4.65-9.37-5.02v4c3.29.3,4.8,1.89,6.36,3.67,1.49,1.69,3.17,3.62,6.26,3.78,2.12.11,3.76.05,5.21,0,2.49-.09,4.45-.16,7.85.68,2.61.64,12.1,9.67,14.77,14.32-.11.14-.22.28-.31.43-1.74,2.76-1.03,6.39,1.62,8.25.07.05.15.11.28.19.98.62,2.11.95,3.27.95,2.12,0,4.05-1.07,5.17-2.85.88-1.37,1.16-3.01.8-4.6-.36-1.6-1.32-2.96-2.71-3.84-.98-.62-2.11-.94-3.27-.94-.53,0-1.05.07-1.54.19-2.56-4.19-8.65-10.45-13.19-13.79,1.81-.63,3.05-1.44,4.21-2.19,1.43-.93,2.61-1.69,4.86-2.07M113.85,50.22c.39-.61,1.05-.98,1.78-.98.4,0,.79.11,1.12.32.48.31.81.77.94,1.33.12.55.02,1.11-.28,1.58-.6.95-1.94,1.27-2.91.65l-.09-.06c-.92-.65-1.16-1.9-.56-2.85M113.85,73.68c.39-.62,1.05-.98,1.78-.98.4,0,.79.11,1.12.33.48.31.81.77.94,1.33.12.55.02,1.11-.28,1.58-.6.95-1.94,1.27-2.91.65l-.09-.06c-.92-.65-1.16-1.9-.56-2.85M113.85,99.98c.39-.61,1.05-.98,1.78-.98.4,0,.79.11,1.12.33.48.31.81.78.94,1.33.12.55.02,1.11-.28,1.58-.6.95-1.94,1.27-2.91.66l-.09-.06c-.92-.65-1.16-1.9-.56-2.85"/>
        <path class="cls-8" d="M103.5,109.06c-1.16-1.36-2.86-2.14-4.65-2.14-1.46,0-2.88.53-3.98,1.48-1.61,1.38-2.33,3.43-2.09,5.4-1.95.7-4.26,1.37-5.33,1.33-.82-.04-1.3-.34-2.22-.97-1.17-.79-2.42-1.51-4.15-1.85,2.94-2.76,6.01-6.83,8.58-12.83,2.06-.08,3.98-1.19,5.04-2.97,1.72-2.9.77-6.66-2.12-8.39-.95-.57-2.03-.86-3.13-.86-2.15,0-4.16,1.14-5.26,2.99-.84,1.41-1.08,3.05-.68,4.64.35,1.39,1.16,2.59,2.3,3.43-4.05,9.22-9.22,13.08-12.56,14.68-.13.04-.25.1-.36.17-1.19.53-2.05.71-2.56.81v4c.27-.03,1.88-.12,4.25-1.19,5.35-1.36,6.84-.35,8.41.71,1.02.69,2.29,1.55,4.26,1.66.1,0,.2,0,.31,0,2.11,0,5.17-1.02,7.02-1.72,1.14,1.12,2.68,1.75,4.29,1.75,1.46,0,2.88-.53,3.98-1.48,1.24-1.06,1.99-2.55,2.12-4.18.12-1.63-.39-3.21-1.46-4.45M87.63,92.28c.39-.65,1.07-1.03,1.82-1.03.38,0,.75.11,1.08.3,1,.6,1.33,1.9.74,2.9-.39.65-1.06,1.03-1.82,1.03-.38,0-.75-.11-1.08-.3-.48-.29-.83-.75-.96-1.29-.14-.55-.06-1.12.23-1.6M100.23,114.65c-.49.42-1.02.51-1.37.51-.62,0-1.21-.27-1.61-.73-.76-.88-.66-2.22.23-2.98.49-.42,1.02-.51,1.37-.51.62,0,1.2.27,1.61.74.37.43.55.98.5,1.54s-.3,1.07-.73,1.44"/>
        <path class="cls-8" d="M79.32,46.16c.07.02.14.03.21.05-.07-.01-.14-.03-.21-.05"/>
        <path class="cls-8" d="M101.27,33.16c-.36-1.6-1.32-2.96-2.71-3.84-.98-.62-2.11-.94-3.26-.94-2.12,0-4.05,1.07-5.17,2.85-1.35,2.14-1.22,4.8.14,6.76-3.65,4.12-8.71,4.31-9.94,4.29-3.69-1.6-7.23-2.16-10-2.32v4c2.44.14,5.55.69,8.75,2.14,0,0,0,0,.01,0,3.45,1.56,6.33,3.93,8.61,7.04-.13.17-.26.35-.38.54-1.8,2.85-.94,6.65,1.9,8.44.98.62,2.11.95,3.27.95,2.11,0,4.05-1.06,5.18-2.85,1.81-2.85.95-6.64-1.91-8.45-1.38-.87-3.09-1.11-4.67-.75-1.54-2.16-3.32-4.02-5.34-5.57,2.52-.78,5.4-2.27,7.78-5.09.57.17,1.17.27,1.77.27,2.12,0,4.05-1.07,5.17-2.85.87-1.38,1.16-3.01.8-4.6M90.7,55.81c.17-.27.39-.49.67-.66.33-.21.72-.32,1.12-.32s.79.11,1.12.32c.99.63,1.28,1.94.66,2.92-.39.62-1.06.99-1.8.99-.4,0-.78-.11-1.12-.33-.98-.62-1.28-1.94-.66-2.92M97.08,35.62c-.6.95-1.94,1.27-2.91.65l-.1-.06c-.91-.65-1.16-1.9-.56-2.85.38-.61,1.05-.98,1.78-.98.4,0,.79.11,1.12.33.48.31.81.77.94,1.33.12.55.03,1.11-.28,1.58"/>
        <path class="cls-8" d="M109.97,74.14c.42,1.03,1.14,1.96,2.11,2.65.07.05.15.1.28.19.98.62,2.11.95,3.27.95,2.12,0,4.05-1.07,5.17-2.85.88-1.38,1.16-3.01.8-4.61-.36-1.6-1.32-2.96-2.71-3.84-.98-.62-2.11-.94-3.27-.94-.12,0-.25,0-.37.02-.71-3.16-.92-7.77.03-11.26.11.01.23.02.34.02,2.12,0,4.05-1.07,5.17-2.85.88-1.38,1.16-3.01.8-4.6-.36-1.6-1.32-2.96-2.71-3.84-.98-.62-2.11-.94-3.27-.94-2.11,0-4.05,1.07-5.17,2.85-1.6,2.53-1.12,5.8,1.02,7.77.02.02.05.04.07.06-1.35,4.52-1.14,10.32-.04,14.42-.14.13-.29.26-.43.4-.23.26-.45.53-.63.82-.32.5-.55,1.03-.71,1.58-3.37.49-5.2,1.67-6.82,2.73-2.04,1.33-3.96,2.57-9.64,2.67-1.96-.23-3.55-.18-5.29-.12-1.43.05-2.91.11-4.85,0-1.34-.07-2.1-.88-3.46-2.42-1.8-2.06-4.22-4.65-9.37-5.02v4c3.29.3,4.8,1.89,6.36,3.67,1.49,1.69,3.17,3.62,6.26,3.78,2.12.11,3.76.05,5.21,0,2.49-.09,4.45-.16,7.85.68,2.61.64,12.1,9.67,14.77,14.32-.11.14-.22.28-.31.43-1.74,2.76-1.03,6.39,1.62,8.25.07.05.15.11.28.19.98.62,2.11.95,3.27.95,2.12,0,4.05-1.07,5.17-2.85.88-1.37,1.16-3.01.8-4.6-.36-1.6-1.32-2.96-2.71-3.84-.98-.62-2.11-.94-3.27-.94-.53,0-1.05.07-1.54.19-2.56-4.19-8.65-10.45-13.19-13.79,1.81-.63,3.05-1.44,4.21-2.19,1.43-.93,2.61-1.69,4.86-2.07M113.85,47.22c.39-.61,1.05-.98,1.78-.98.4,0,.79.11,1.12.32.48.3.81.77.94,1.33.12.55.02,1.11-.28,1.58-.6.95-1.94,1.27-2.91.65l-.09-.06c-.92-.65-1.16-1.9-.56-2.85M113.85,70.68c.39-.62,1.05-.98,1.78-.98.4,0,.79.11,1.12.33.48.31.81.77.94,1.33.12.55.02,1.11-.28,1.58-.6.95-1.94,1.27-2.91.65l-.09-.06c-.92-.65-1.16-1.9-.56-2.85M113.85,96.98c.39-.61,1.05-.98,1.78-.98.4,0,.79.11,1.12.33.48.31.81.78.94,1.33.12.55.02,1.11-.28,1.58-.6.95-1.94,1.27-2.91.66l-.09-.06c-.92-.65-1.16-1.9-.56-2.85"/>
        <path class="cls-6" d="M65.32,69.42v-29.66H26.4c-2.56,0-3.25,3.25-3.25,3.25v79.67l42.17,24.2v-29.06c-5.01-.2-22.38-2.44-22.38-23.71,0-19.99,16.08-23.91,22.38-24.68Z"/>
        <path class="cls-2" d="M65.32,74.99v-4.01c-13.97.11-25.3,11.5-25.3,25.49s11.33,25.39,25.3,25.49v-4.01c-11.76-.11-21.3-9.7-21.3-21.49s9.54-21.38,21.3-21.49Z"/>
        <path class="cls-8" d="M65.32,72.16v-4.01c-13.97.11-25.3,11.5-25.3,25.49s11.33,25.39,25.3,25.49v-4.01c-11.76-.11-21.3-9.7-21.3-21.49s9.54-21.38,21.3-21.49Z"/>
        <g>
          <g class="cls-10">
            <path class="cls-3" d="M25.41,100.64c.24,0,.49-.07.71-.22.56-.39.69-1.17.3-1.72-.28-.4-.53-.82-.75-1.25-1.46-2.96-1.27-6.38.51-9.16.37-.58.2-1.34-.37-1.71-.57-.37-1.34-.2-1.71.37-2.23,3.47-2.47,7.91-.65,11.6.27.55.59,1.08.94,1.58.24.34.63.52,1.02.52"/>
            <path class="cls-3" d="M19.73,103.58c.25,0,.5-.08.72-.24.55-.4.67-1.17.27-1.73-.46-.63-.87-1.31-1.22-2.02-2.28-4.61-1.79-10.03,1.28-14.16.41-.55.29-1.32-.25-1.73-.55-.41-1.32-.29-1.73.25-3.63,4.88-4.21,11.28-1.51,16.73.41.84.9,1.64,1.45,2.38.24.33.62.51,1,.51"/>
            <path class="cls-3" d="M30.97,97.52c.2,0,.41-.05.6-.16.59-.34.8-1.09.47-1.68-.78-1.37-.84-3.04-.18-4.47.29-.62.02-1.35-.6-1.64-.62-.29-1.35-.01-1.64.61-.99,2.15-.89,4.66.28,6.72.23.4.65.63,1.08.63"/>
          </g>
          <g>
            <path class="cls-7" d="M25.41,98.6c.24,0,.49-.07.71-.22.56-.39.69-1.17.3-1.72-.28-.4-.53-.82-.75-1.25-1.46-2.96-1.27-6.38.51-9.16.37-.58.2-1.34-.37-1.71-.57-.37-1.34-.2-1.71.37-2.23,3.47-2.47,7.91-.65,11.6.27.55.59,1.08.94,1.58.24.34.63.52,1.02.52"/>
            <path class="cls-7" d="M19.73,101.54c.25,0,.5-.08.72-.24.55-.4.67-1.17.27-1.73-.46-.63-.87-1.31-1.22-2.02-2.28-4.61-1.79-10.03,1.28-14.16.41-.55.29-1.32-.25-1.73-.55-.41-1.32-.29-1.73.25-3.63,4.88-4.21,11.28-1.51,16.73.41.84.9,1.64,1.45,2.38.24.33.62.51,1,.51"/>
            <path class="cls-7" d="M30.97,95.48c.2,0,.41-.05.6-.16.59-.34.8-1.09.47-1.68-.78-1.37-.84-3.04-.18-4.47.29-.62.02-1.35-.6-1.64-.62-.29-1.35-.01-1.64.61-.99,2.15-.89,4.66.28,6.72.23.4.65.63,1.08.63"/>
          </g>
        </g>
      </g>
      <g>
        <g>
          <path class="cls-4" d="M171.52,112.83h26.85v11.87h-42.28v-63.98h15.42v52.12Z"/>
          <path class="cls-4" d="M204.13,100.48c0-4.75.92-8.97,2.77-12.68,1.85-3.71,4.5-6.55,7.95-8.55s7.51-2.99,12.17-2.99c7.12,0,12.73,2.21,16.83,6.61,4.1,4.41,6.15,10.41,6.15,18v.53c0,7.41-2.06,13.29-6.17,17.64-4.12,4.35-9.69,6.53-16.72,6.53s-12.2-2.03-16.3-6.09-6.31-9.56-6.64-16.5l-.04-2.5ZM218.93,101.4c0,4.39.69,7.62,2.07,9.67s3.41,3.08,6.11,3.08c5.27,0,7.97-4.06,8.09-12.17v-1.49c0-8.53-2.72-12.79-8.17-12.79-4.95,0-7.63,3.68-8.04,11.03l-.04,2.68Z"/>
          <path class="cls-4" d="M278.43,114.14c2.08,0,3.69-.56,4.83-1.69s1.7-2.7,1.67-4.72h13.89c0,5.21-1.87,9.49-5.6,12.83-3.73,3.34-8.55,5.01-14.44,5.01-6.91,0-12.36-2.17-16.35-6.5s-5.98-10.34-5.98-18.02v-.62c0-4.8.89-9.04,2.66-12.72,1.77-3.68,4.33-6.5,7.67-8.48,3.34-1.98,7.29-2.97,11.87-2.97,6.18,0,11.09,1.71,14.72,5.14s5.45,8.07,5.45,13.93h-13.89c0-2.46-.6-4.35-1.8-5.67s-2.81-1.98-4.83-1.98c-3.84,0-6.08,2.45-6.72,7.34-.21,1.55-.31,3.69-.31,6.42,0,4.78.57,8.09,1.71,9.93s2.96,2.77,5.45,2.77Z"/>
          <path class="cls-4" d="M333.67,124.69c-.53-.97-1-2.39-1.41-4.26-2.72,3.43-6.53,5.14-11.43,5.14-4.48,0-8.29-1.35-11.43-4.06s-4.7-6.12-4.7-10.22c0-5.16,1.9-9.05,5.71-11.69s9.35-3.96,16.61-3.96h4.57v-2.52c0-4.39-1.89-6.58-5.67-6.58-3.52,0-5.27,1.74-5.27,5.21h-14.81c0-4.59,1.96-8.33,5.87-11.19,3.91-2.87,8.9-4.3,14.96-4.3s10.85,1.48,14.37,4.44,5.32,7.02,5.41,12.17v21.05c.06,4.37.73,7.71,2.02,10.02v.75h-14.81ZM324.4,115.02c1.85,0,3.38-.4,4.59-1.19,1.21-.79,2.09-1.68,2.61-2.68v-7.6h-4.31c-5.16,0-7.73,2.31-7.73,6.94,0,1.35.45,2.44,1.36,3.27.91.83,2.07,1.25,3.47,1.25Z"/>
          <path class="cls-4" d="M372.08,124.69h-14.85V57.19h14.85v67.5Z"/>
        </g>
        <g>
          <path class="cls-7" d="M162.04,44.83h11.63v5.14h-18.32v-27.73h6.69v22.58Z"/>
          <path class="cls-7" d="M176.15,24.03c0-.92.33-1.67.99-2.26.66-.59,1.52-.88,2.57-.88s1.91.29,2.57.88c.66.59.99,1.34.99,2.26s-.33,1.67-.99,2.26c-.66.59-1.52.88-2.57.88s-1.91-.29-2.57-.88c-.66-.59-.99-1.34-.99-2.26ZM182.97,49.97h-6.44v-20.6h6.44v20.6Z"/>
          <path class="cls-7" d="M197.71,44.18c0-.55-.29-.98-.86-1.31-.57-.33-1.66-.67-3.26-1.03s-2.92-.82-3.96-1.4c-1.04-.58-1.84-1.28-2.38-2.1-.55-.83-.82-1.77-.82-2.84,0-1.89.78-3.45,2.34-4.67,1.56-1.23,3.61-1.84,6.13-1.84,2.72,0,4.9.62,6.55,1.85,1.65,1.23,2.48,2.85,2.48,4.86h-6.44c0-1.65-.87-2.48-2.61-2.48-.67,0-1.24.19-1.7.56-.46.38-.69.84-.69,1.4s.28,1.04.84,1.39,1.45.65,2.68.88c1.22.23,2.3.5,3.23.82,3.1,1.07,4.65,2.98,4.65,5.73,0,1.88-.83,3.41-2.5,4.59-1.67,1.18-3.83,1.77-6.48,1.77-1.76,0-3.34-.32-4.72-.95-1.38-.63-2.46-1.5-3.24-2.59-.78-1.09-1.16-2.24-1.16-3.45h6c.03.95.34,1.65.95,2.08.61.44,1.39.66,2.34.66.88,0,1.53-.18,1.97-.53s.66-.82.66-1.39Z"/>
          <path class="cls-7" d="M214.37,24.24v5.12h3.39v4.46h-3.39v9.43c0,.78.14,1.31.42,1.62s.83.46,1.66.46c.63,0,1.17-.04,1.6-.11v4.59c-1.15.37-2.36.55-3.62.55-2.21,0-3.84-.52-4.89-1.56-1.05-1.04-1.58-2.62-1.58-4.74v-10.23h-2.63v-4.46h2.63v-5.12h6.42Z"/>
          <path class="cls-7" d="M230.25,50.35c-3.16,0-5.72-.94-7.67-2.83-1.96-1.88-2.93-4.34-2.93-7.36v-.53c0-2.11.39-3.97,1.17-5.58s1.92-2.86,3.42-3.74c1.5-.88,3.28-1.32,5.33-1.32,2.89,0,5.18.9,6.86,2.69,1.68,1.8,2.51,4.3,2.51,7.51v2.5h-12.76c.23,1.16.73,2.06,1.5,2.72.77.66,1.78.99,3.01.99,2.03,0,3.62-.71,4.76-2.13l2.93,3.47c-.8,1.1-1.93,1.98-3.4,2.64-1.47.65-3.04.98-4.73.98ZM229.53,33.94c-1.88,0-3,1.24-3.35,3.73h6.47v-.5c.03-1.03-.24-1.83-.78-2.39-.55-.57-1.33-.85-2.34-.85Z"/>
          <path class="cls-7" d="M247.41,29.37l.21,2.42c1.42-1.87,3.38-2.8,5.88-2.8,2.14,0,3.75.64,4.81,1.92,1.06,1.28,1.61,3.21,1.65,5.79v13.27h-6.44v-13.01c0-1.04-.21-1.81-.63-2.29-.42-.49-1.18-.73-2.29-.73-1.26,0-2.19.5-2.8,1.49v14.55h-6.42v-20.6h6.02Z"/>
          <path class="cls-7" d="M263.81,49.97v-27.73h9.96c3.57,0,6.28.65,8.14,1.96,1.86,1.31,2.79,3.21,2.79,5.69,0,1.43-.33,2.66-.99,3.67-.66,1.02-1.63,1.77-2.91,2.25,1.45.38,2.56,1.09,3.33,2.13.77,1.04,1.16,2.31,1.16,3.81,0,2.72-.86,4.76-2.58,6.12-1.72,1.36-4.27,2.06-7.64,2.08h-11.26ZM270.49,33.8h3.48c1.46-.01,2.5-.28,3.12-.8.62-.52.93-1.29.93-2.31,0-1.17-.34-2.02-1.01-2.53-.67-.52-1.76-.77-3.26-.77h-3.28v6.42ZM270.49,38.18v6.65h4.38c1.21,0,2.13-.28,2.78-.83.65-.55.97-1.33.97-2.33,0-2.31-1.15-3.47-3.45-3.48h-4.68Z"/>
          <path class="cls-7" d="M301.13,35.17l-2.12-.15c-2.02,0-3.31.64-3.88,1.9v13.04h-6.42v-20.6h6.02l.21,2.65c1.08-2.02,2.58-3.03,4.51-3.03.69,0,1.28.08,1.79.23l-.11,5.96Z"/>
          <path class="cls-7" d="M314.48,49.97c-.23-.42-.43-1.03-.61-1.85-1.18,1.49-2.83,2.23-4.95,2.23-1.94,0-3.59-.59-4.95-1.76-1.36-1.17-2.04-2.65-2.04-4.43,0-2.23.82-3.92,2.47-5.06s4.05-1.71,7.2-1.71h1.98v-1.09c0-1.9-.82-2.85-2.46-2.85-1.52,0-2.29.75-2.29,2.26h-6.42c0-1.99.85-3.61,2.54-4.85,1.7-1.24,3.86-1.86,6.48-1.86s4.7.64,6.23,1.92c1.52,1.28,2.3,3.04,2.34,5.28v9.12c.03,1.89.32,3.34.88,4.34v.32h-6.42ZM310.46,45.78c.8,0,1.46-.17,1.99-.51.53-.34.9-.73,1.13-1.16v-3.29h-1.87c-2.23,0-3.35,1-3.35,3.01,0,.58.2,1.06.59,1.42.39.36.89.54,1.5.54Z"/>
          <path class="cls-7" d="M323.53,24.03c0-.92.33-1.67.99-2.26.66-.59,1.52-.88,2.57-.88s1.91.29,2.57.88c.66.59.99,1.34.99,2.26s-.33,1.67-.99,2.26c-.66.59-1.52.88-2.57.88s-1.91-.29-2.57-.88c-.66-.59-.99-1.34-.99-2.26ZM330.34,49.97h-6.44v-20.6h6.44v20.6Z"/>
          <path class="cls-7" d="M340.19,29.37l.21,2.42c1.42-1.87,3.38-2.8,5.88-2.8,2.14,0,3.75.64,4.81,1.92,1.06,1.28,1.61,3.21,1.65,5.79v13.27h-6.44v-13.01c0-1.04-.21-1.81-.63-2.29-.42-.49-1.18-.73-2.29-.73-1.26,0-2.19.5-2.8,1.49v14.55h-6.42v-20.6h6.02Z"/>
          <path class="cls-7" d="M363.86,45.02h9.39v4.95h-17.5v-3.58l9.14-12.07h-8.74v-4.95h16.89v3.47l-9.18,12.19Z"/>
        </g>
      </g>
    </g>
  </g>
</svg>