<?xml version="1.0" encoding="UTF-8"?>
<svg id="Layer_1" data-name="Layer 1" xmlns="http://www.w3.org/2000/svg" width="265.53" height="100" viewBox="0 0 265.53 100">
  <defs>
    <style>
      .cls-1 {
        fill: #353070;
      }

      .cls-1, .cls-2, .cls-3 {
        stroke-width: 0px;
      }

      .cls-2 {
        fill: #eb743b;
      }

      .cls-3 {
        fill: #fffedb;
      }
    </style>
  </defs>
  <g>
    <polygon class="cls-1" points="43.87 1.8 2.87 25.8 2.87 73.8 43.87 97.8 43.87 1.8"/>
    <g>
      <polygon class="cls-2" points="47.45 1.8 47.45 97.8 88.45 73.8 88.45 25.8 47.45 1.8"/>
      <path class="cls-3" d="M79.73,57.88c-1.24-1.97-3.38-3.15-5.72-3.15-.67,0-1.32.1-1.96.29-2.63-3.12-5.82-4.78-8.6-5.64,2.24-1.71,4.21-3.77,5.91-6.15,1.74.39,3.63.13,5.16-.83,3.16-2.01,4.1-6.2,2.1-9.35-1.25-1.97-3.39-3.15-5.72-3.15-1.28,0-2.53.36-3.62,1.05-3.15,1.99-4.09,6.18-2.11,9.34.13.21.27.4.42.6-2.51,3.44-5.71,6.06-9.52,7.79h-.01c-3.53,1.61-5.62,2.12-8.62,2.12v5c4,0,5.93-1.12,10.02-2.9,1.37-.02,6.96.18,10.99,4.75-1.51,2.16-1.66,5.11-.16,7.47,1.24,1.97,3.38,3.15,5.72,3.15,1.28,0,2.52-.36,3.61-1.04,1.54-.97,2.6-2.48,3-4.25.4-1.76.08-3.57-.89-5.09ZM69.51,34.47c.42-.27.9-.41,1.4-.41.9,0,1.73.46,2.22,1.22.77,1.21.4,2.84-.82,3.61-.41.26-.9.4-1.39.4s-.97-.13-1.39-.39c-.34-.21-.62-.49-.83-.82-.77-1.22-.41-2.85.81-3.62ZM76.57,62.07c-.15.69-.56,1.27-1.16,1.64-.41.26-.9.41-1.39.41-.91,0-1.73-.46-2.21-1.22-.75-1.18-.44-2.73.69-3.53l.12-.08c1.21-.77,2.87-.37,3.61.81.38.59.5,1.29.34,1.97Z"/>
    </g>
    <path class="cls-3" d="M43.87,66.42c-7.51,0-13.63-6.11-13.63-13.63s6.11-13.63,13.63-13.63v5c-4.76,0-8.63,3.87-8.63,8.63s3.87,8.63,8.63,8.63v5Z"/>
    <g>
      <path class="cls-2" d="M17.83,60.08c.24,0,.49-.07.71-.22.56-.39.69-1.17.3-1.72-.28-.4-.53-.82-.75-1.25-1.46-2.96-1.27-6.38.51-9.16.37-.58.2-1.34-.37-1.71-.57-.37-1.34-.2-1.71.37-2.23,3.47-2.47,7.91-.65,11.6.27.55.59,1.08.94,1.58.24.34.63.52,1.02.52"/>
      <path class="cls-2" d="M12.15,63.02c.25,0,.5-.08.72-.24.55-.4.67-1.17.27-1.73-.46-.63-.87-1.31-1.22-2.02-2.28-4.61-1.79-10.03,1.28-14.16.41-.55.29-1.32-.25-1.73-.55-.41-1.32-.29-1.73.25-3.63,4.88-4.21,11.28-1.51,16.73.41.84.9,1.64,1.45,2.38.24.33.62.51,1,.51"/>
      <path class="cls-2" d="M23.39,56.96c.2,0,.41-.05.6-.16.59-.34.8-1.09.47-1.68-.78-1.37-.84-3.04-.18-4.47.29-.62.02-1.35-.6-1.64-.62-.29-1.35-.01-1.64.61-.99,2.15-.89,4.66.28,6.72.23.4.65.63,1.08.63"/>
    </g>
  </g>
  <g>
    <g>
      <path class="cls-1" d="M115.27,77.77h20.88v9.23h-32.88v-49.77h12v40.54Z"/>
      <path class="cls-1" d="M140.54,69.11c0-3.51.68-6.63,2.05-9.37,1.36-2.74,3.32-4.84,5.88-6.32,2.55-1.47,5.55-2.21,8.99-2.21,5.26,0,9.41,1.63,12.44,4.89,3.03,3.26,4.55,7.69,4.55,13.3v.39c0,5.48-1.52,9.82-4.56,13.04-3.04,3.21-7.16,4.82-12.35,4.82s-9.02-1.5-12.05-4.5c-3.03-3-4.67-7.06-4.9-12.19l-.03-1.85ZM151.49,69.79c0,3.25.51,5.63,1.53,7.14,1.02,1.52,2.52,2.27,4.51,2.27,3.9,0,5.89-3,5.97-8.99v-1.1c0-6.3-2.01-9.45-6.04-9.45-3.66,0-5.64,2.72-5.94,8.15l-.03,1.98Z"/>
      <path class="cls-1" d="M195.45,79.21c1.54,0,2.73-.42,3.57-1.25.84-.83,1.25-2,1.23-3.49h10.26c0,3.85-1.38,7.01-4.14,9.48-2.76,2.47-6.32,3.7-10.67,3.7-5.11,0-9.14-1.6-12.08-4.81-2.94-3.2-4.42-7.64-4.42-13.31v-.46c0-3.55.65-6.68,1.96-9.4,1.31-2.72,3.2-4.81,5.67-6.27s5.39-2.19,8.77-2.19c4.57,0,8.19,1.27,10.88,3.8,2.68,2.53,4.03,5.96,4.03,10.29h-10.26c0-1.82-.44-3.21-1.33-4.19-.89-.97-2.08-1.46-3.57-1.46-2.84,0-4.49,1.81-4.97,5.42-.15,1.15-.23,2.73-.23,4.74,0,3.53.42,5.97,1.27,7.34.84,1.36,2.19,2.05,4.03,2.05Z"/>
      <path class="cls-1" d="M236.26,87c-.39-.71-.74-1.76-1.04-3.15-2.01,2.53-4.83,3.8-8.44,3.8-3.31,0-6.13-1-8.44-3-2.32-2-3.47-4.52-3.47-7.55,0-3.81,1.41-6.69,4.22-8.64,2.81-1.95,6.91-2.92,12.27-2.92h3.38v-1.86c0-3.24-1.4-4.86-4.19-4.86-2.6,0-3.9,1.28-3.9,3.85h-10.94c0-3.39,1.44-6.15,4.33-8.27,2.89-2.12,6.58-3.18,11.06-3.18s8.02,1.09,10.62,3.28,3.93,5.18,3.99,8.99v15.55c.04,3.23.54,5.69,1.49,7.4v.55h-10.94ZM229.41,79.86c1.36,0,2.5-.29,3.39-.88.9-.58,1.54-1.24,1.93-1.98v-5.62h-3.18c-3.81,0-5.71,1.71-5.71,5.13,0,1,.33,1.8,1.01,2.42.67.62,1.53.93,2.56.93Z"/>
      <path class="cls-1" d="M264.64,87h-10.97v-49.88h10.97v49.88Z"/>
    </g>
    <g>
      <path class="cls-2" d="M108.22,29.6h8.67v3.83h-13.65V12.78h4.98v16.83Z"/>
      <path class="cls-2" d="M118.73,14.11c0-.68.25-1.25.74-1.68.49-.44,1.13-.66,1.92-.66s1.42.22,1.92.66c.49.44.74,1,.74,1.68s-.25,1.25-.74,1.68c-.49.44-1.13.66-1.92.66s-1.42-.22-1.92-.66-.74-1-.74-1.68ZM123.81,33.43h-4.8v-15.35h4.8v15.35Z"/>
      <path class="cls-2" d="M134.79,29.12c0-.41-.21-.73-.64-.98-.42-.25-1.23-.5-2.43-.77-1.19-.26-2.18-.61-2.95-1.04-.78-.43-1.37-.95-1.77-1.57-.41-.61-.61-1.32-.61-2.11,0-1.41.58-2.57,1.75-3.48,1.16-.91,2.69-1.37,4.57-1.37,2.02,0,3.65.46,4.88,1.38,1.23.92,1.84,2.12,1.84,3.62h-4.8c0-1.23-.65-1.84-1.94-1.84-.5,0-.92.14-1.26.42-.34.28-.51.63-.51,1.04s.21.77.62,1.04,1.08.48,1.99.65c.91.17,1.71.37,2.41.61,2.31.79,3.46,2.22,3.46,4.27,0,1.4-.62,2.54-1.87,3.42-1.24.88-2.85,1.32-4.83,1.32-1.32,0-2.49-.24-3.52-.71-1.03-.47-1.84-1.12-2.41-1.93-.58-.81-.87-1.67-.87-2.57h4.47c.02.71.25,1.23.71,1.55.45.33,1.04.49,1.75.49.65,0,1.14-.13,1.47-.4s.49-.61.49-1.04Z"/>
      <path class="cls-2" d="M147.21,14.27v3.82h2.53v3.32h-2.53v7.02c0,.58.1.98.31,1.21.21.23.62.34,1.23.34.47,0,.87-.03,1.19-.08v3.42c-.86.27-1.76.41-2.7.41-1.65,0-2.86-.39-3.65-1.16-.79-.78-1.18-1.95-1.18-3.53v-7.62h-1.96v-3.32h1.96v-3.82h4.78Z"/>
      <path class="cls-2" d="M159.04,33.72c-2.36,0-4.26-.7-5.72-2.11-1.46-1.4-2.19-3.23-2.19-5.48v-.4c0-1.57.29-2.96.87-4.16.58-1.2,1.43-2.13,2.55-2.79,1.12-.66,2.44-.99,3.97-.99,2.16,0,3.86.67,5.11,2.01,1.25,1.34,1.87,3.2,1.87,5.6v1.86h-9.51c.17.86.54,1.54,1.12,2.03.58.49,1.32.74,2.24.74,1.51,0,2.7-.53,3.55-1.59l2.18,2.58c-.6.82-1.44,1.48-2.53,1.96-1.09.49-2.27.73-3.53.73ZM158.5,21.49c-1.4,0-2.23.93-2.5,2.78h4.82v-.37c.02-.77-.17-1.36-.58-1.78-.41-.42-.99-.63-1.75-.63Z"/>
      <path class="cls-2" d="M171.82,18.08l.16,1.8c1.06-1.39,2.52-2.08,4.38-2.08,1.6,0,2.79.48,3.58,1.43s1.2,2.39,1.23,4.31v9.89h-4.8v-9.69c0-.78-.16-1.35-.47-1.71-.31-.36-.88-.55-1.7-.55-.94,0-1.63.37-2.08,1.11v10.84h-4.78v-15.35h4.48Z"/>
      <path class="cls-2" d="M184.04,33.43V12.78h7.42c2.66,0,4.68.49,6.07,1.46,1.39.97,2.08,2.39,2.08,4.24,0,1.07-.25,1.98-.74,2.74-.49.76-1.21,1.31-2.17,1.67,1.08.28,1.91.81,2.48,1.59s.87,1.72.87,2.84c0,2.02-.64,3.54-1.92,4.56-1.28,1.02-3.18,1.54-5.7,1.55h-8.38ZM189.02,21.39h2.6c1.09,0,1.86-.21,2.33-.6.46-.39.7-.96.7-1.72,0-.87-.25-1.5-.75-1.88-.5-.38-1.31-.58-2.43-.58h-2.44v4.78ZM189.02,24.65v4.95h3.26c.9,0,1.59-.21,2.07-.62.48-.41.72-.99.72-1.74,0-1.72-.86-2.59-2.57-2.6h-3.49Z"/>
      <path class="cls-2" d="M211.85,22.41l-1.58-.11c-1.5,0-2.47.47-2.89,1.42v9.72h-4.78v-15.35h4.48l.16,1.97c.8-1.5,1.92-2.26,3.36-2.26.51,0,.96.06,1.33.17l-.08,4.44Z"/>
      <path class="cls-2" d="M221.79,33.43c-.17-.31-.32-.77-.45-1.38-.88,1.11-2.11,1.66-3.69,1.66-1.45,0-2.68-.44-3.69-1.31-1.01-.88-1.52-1.97-1.52-3.3,0-1.67.61-2.92,1.84-3.77,1.23-.85,3.02-1.28,5.36-1.28h1.48v-.81c0-1.42-.61-2.12-1.83-2.12-1.13,0-1.7.56-1.7,1.68h-4.78c0-1.48.63-2.69,1.89-3.61s2.87-1.39,4.83-1.39,3.5.48,4.64,1.43c1.13.96,1.72,2.27,1.75,3.93v6.8c.02,1.41.24,2.49.65,3.23v.24h-4.78ZM218.8,30.31c.6,0,1.09-.13,1.48-.38.39-.25.67-.54.84-.87v-2.45h-1.39c-1.66,0-2.5.75-2.5,2.24,0,.44.15.79.44,1.06.29.27.67.4,1.12.4Z"/>
      <path class="cls-2" d="M228.53,14.11c0-.68.25-1.25.74-1.68.49-.44,1.13-.66,1.92-.66s1.42.22,1.92.66c.49.44.74,1,.74,1.68s-.25,1.25-.74,1.68c-.49.44-1.13.66-1.92.66s-1.42-.22-1.92-.66-.74-1-.74-1.68ZM233.61,33.43h-4.8v-15.35h4.8v15.35Z"/>
      <path class="cls-2" d="M240.95,18.08l.16,1.8c1.06-1.39,2.52-2.08,4.38-2.08,1.6,0,2.79.48,3.58,1.43s1.2,2.39,1.23,4.31v9.89h-4.8v-9.69c0-.78-.16-1.35-.47-1.71-.31-.36-.88-.55-1.7-.55-.94,0-1.63.37-2.08,1.11v10.84h-4.78v-15.35h4.48Z"/>
      <path class="cls-2" d="M258.58,29.75h6.99v3.69h-13.04v-2.67l6.81-9h-6.51v-3.69h12.58v2.58l-6.84,9.08Z"/>
    </g>
  </g>
</svg>