<?xml version="1.0" encoding="UTF-8"?>
<svg id="Layer_1" data-name="Layer 1" xmlns="http://www.w3.org/2000/svg" width="100" height="100" viewBox="0 0 100 100">
  <defs>
    <style>
      .cls-1 {
        fill: #282422;
        stroke-width: 0px;
      }
    </style>
  </defs>
  <g>
    <path class="cls-1" d="m51.7,2.17v49c3,0,5.09-.51,8.62-2.12h.01c3.81-1.73,7-4.35,9.52-7.79-.15-.19-.29-.39-.42-.6-1.99-3.16-1.04-7.34,2.11-9.34,1.08-.69,2.33-1.05,3.62-1.05,2.33,0,4.47,1.18,5.72,3.15,2,3.15,1.05,7.34-2.1,9.35-1.53.96-3.42,1.23-5.16.83-1.7,2.38-3.67,4.44-5.91,6.15,2.78.86,5.97,2.51,8.6,5.64.63-.19,1.29-.29,1.96-.29,2.34,0,4.48,1.18,5.72,3.15.97,1.52,1.29,3.33.89,5.09-.4,1.77-1.46,3.28-3,4.25-1.08.68-2.33,1.04-3.61,1.04-2.34,0-4.48-1.18-5.72-3.15-1.5-2.36-1.35-5.31.16-7.47-4.03-4.56-9.62-4.77-10.99-4.75-4.08,1.77-6.02,2.9-10.02,2.9v42l41-24V26.17L51.7,2.17Z"/>
    <path class="cls-1" d="m73.78,39.27c.42.26.9.39,1.39.39s.98-.14,1.39-.4c1.22-.77,1.59-2.4.82-3.61-.49-.77-1.32-1.22-2.22-1.22-.5,0-.97.14-1.4.41-1.22.77-1.58,2.39-.81,3.62.21.33.49.6.83.82Z"/>
    <path class="cls-1" d="m78.27,64.49c.49,0,.98-.14,1.39-.41.6-.38,1.01-.96,1.16-1.64.15-.68.03-1.37-.34-1.97-.74-1.17-2.4-1.57-3.61-.81l-.12.08c-1.13.8-1.44,2.35-.69,3.53.48.76,1.3,1.22,2.21,1.22Z"/>
  </g>
  <g>
    <path class="cls-1" d="m38.44,32.99l3.38,3.6-6.57,35.29-9.73-6.89-11.56,2.93,6.56-35.29,12.1-5.83,2.7,2.88c1.84-1.35,3.76-2.21,5.52-2.76,2.78-.86,5.19-1.34,7.65-1.19V2.33L7.5,26.33v48l41,24V30.17c-1.11-.02-6.07.28-10.06,2.82Z"/>
    <path class="cls-1" d="m31.81,36.89l-.12-.08c-1.21-.77-2.87-.37-3.61.81-.38.59-.5,1.29-.34,1.97.15.69.56,1.27,1.16,1.64.41.26.9.41,1.39.41.91,0,1.73-.46,2.21-1.22.75-1.18.44-2.73-.69-3.53Z"/>
  </g>
</svg>