<?xml version="1.0" encoding="UTF-8"?>
<svg id="Layer_1" data-name="Layer 1" xmlns="http://www.w3.org/2000/svg" width="374.94" height="150" viewBox="0 0 374.94 150">
  <defs>
    <style>
      .cls-1 {
        fill: #282422;
        stroke-width: 0px;
      }
    </style>
  </defs>
  <g>
    <g>
      <path class="cls-1" d="m168.07,102.03v18.57h-13.2v-54.74h21.84c4.19,0,7.89.77,11.11,2.31,3.22,1.54,5.71,3.73,7.48,6.58,1.77,2.85,2.65,6.07,2.65,9.68,0,5.34-1.91,9.61-5.73,12.8-3.82,3.2-9.07,4.79-15.74,4.79h-8.42Zm0-10.19h8.65c2.56,0,4.5-.64,5.85-1.92s2.01-3.08,2.01-5.41c0-2.56-.69-4.6-2.07-6.13-1.38-1.53-3.26-2.31-5.64-2.33h-8.8v15.79Z"/>
      <path class="cls-1" d="m204.32,69.4c0-1.82.65-3.3,1.96-4.46,1.3-1.16,3-1.74,5.08-1.74s3.77.58,5.08,1.74c1.3,1.16,1.96,2.65,1.96,4.46s-.65,3.3-1.96,4.46c-1.3,1.16-3,1.74-5.08,1.74s-3.77-.58-5.08-1.74c-1.3-1.16-1.96-2.65-1.96-4.46Zm13.46,51.21h-12.71v-40.68h12.71v40.68Z"/>
      <path class="cls-1" d="m242.78,111.58c1.78,0,3.16-.48,4.14-1.45s1.45-2.31,1.43-4.04h11.88c0,4.46-1.6,8.12-4.79,10.98-3.2,2.86-7.31,4.29-12.35,4.29-5.92,0-10.58-1.85-13.99-5.56-3.41-3.71-5.11-8.85-5.11-15.42v-.53c0-4.11.76-7.74,2.27-10.88,1.52-3.15,3.7-5.56,6.56-7.26,2.86-1.69,6.24-2.54,10.15-2.54,5.29,0,9.49,1.47,12.6,4.4,3.11,2.93,4.66,6.91,4.66,11.92h-11.88c0-2.11-.51-3.72-1.54-4.85-1.03-1.13-2.41-1.69-4.14-1.69-3.28,0-5.2,2.09-5.75,6.28-.18,1.33-.26,3.16-.26,5.49,0,4.08.49,6.92,1.47,8.5.98,1.58,2.53,2.37,4.66,2.37Z"/>
      <path class="cls-1" d="m288.5,120.61c-.45-.83-.85-2.04-1.2-3.65-2.33,2.93-5.59,4.4-9.78,4.4-3.83,0-7.09-1.16-9.78-3.48-2.68-2.32-4.02-5.23-4.02-8.74,0-4.41,1.63-7.75,4.89-10,3.26-2.26,8-3.38,14.21-3.38h3.91v-2.15c0-3.75-1.62-5.63-4.85-5.63-3.01,0-4.51,1.49-4.51,4.46h-12.67c0-3.93,1.67-7.12,5.02-9.58,3.35-2.45,7.61-3.68,12.8-3.68s9.29,1.27,12.29,3.8c3.01,2.53,4.55,6,4.62,10.41v18.01c.05,3.73.63,6.59,1.73,8.57v.64h-12.67Zm-7.93-8.27c1.58,0,2.89-.34,3.93-1.02,1.04-.68,1.79-1.44,2.24-2.29v-6.5h-3.68c-4.41,0-6.62,1.98-6.62,5.94,0,1.15.39,2.09,1.17,2.8.78.71,1.77,1.07,2.97,1.07Z"/>
      <path class="cls-1" d="m331.06,91.39l-4.17-.3c-3.99,0-6.54,1.25-7.67,3.76v25.75h-12.67v-40.68h11.88l.41,5.23c2.13-3.98,5.1-5.98,8.91-5.98,1.35,0,2.53.15,3.54.45l-.23,11.77Z"/>
      <path class="cls-1" d="m333.31,99.96c0-6.44,1.39-11.52,4.17-15.23,2.78-3.71,6.67-5.56,11.65-5.56,3.63,0,6.69,1.43,9.17,4.29v-20.6h12.71v57.75h-11.39l-.64-4.36c-2.61,3.41-5.92,5.11-9.93,5.11-4.84,0-8.67-1.85-11.51-5.56-2.83-3.71-4.25-8.99-4.25-15.83Zm12.67.79c0,7.22,2.11,10.83,6.32,10.83,2.81,0,4.81-1.18,6.02-3.53v-15.49c-1.15-2.41-3.13-3.61-5.94-3.61-3.91,0-6.03,3.16-6.35,9.47l-.04,2.33Z"/>
    </g>
    <g>
      <path class="cls-1" d="m163.61,24.16l6.19,19.29,6.17-19.29h8.8v27.73h-6.7v-6.47l.65-13.25-6.7,19.73h-4.42l-6.72-19.75.65,13.27v6.47h-6.68v-27.73h8.78Z"/>
      <path class="cls-1" d="m200.99,49.66c-1.36,1.74-3.19,2.61-5.5,2.61s-3.97-.66-5.13-1.97c-1.16-1.31-1.74-3.2-1.74-5.67v-13.35h6.42v13.39c0,1.76.86,2.65,2.57,2.65,1.47,0,2.52-.53,3.14-1.58v-14.45h6.46v20.6h-6.02l-.19-2.23Z"/>
      <path class="cls-1" d="m221.51,46.1c0-.55-.29-.98-.86-1.31-.57-.33-1.66-.67-3.26-1.03s-2.92-.82-3.96-1.4c-1.04-.58-1.83-1.28-2.38-2.1s-.82-1.77-.82-2.84c0-1.89.78-3.45,2.34-4.67,1.56-1.23,3.61-1.84,6.13-1.84,2.72,0,4.9.62,6.55,1.85,1.65,1.23,2.48,2.85,2.48,4.86h-6.44c0-1.65-.87-2.48-2.61-2.48-.67,0-1.24.19-1.7.56-.46.38-.69.84-.69,1.4s.28,1.04.84,1.39,1.45.65,2.68.88c1.22.23,2.3.5,3.23.82,3.1,1.07,4.65,2.98,4.65,5.73,0,1.88-.83,3.41-2.5,4.59-1.67,1.18-3.83,1.77-6.48,1.77-1.76,0-3.34-.32-4.72-.95s-2.46-1.5-3.24-2.59-1.16-2.24-1.16-3.45h6c.03.95.34,1.65.95,2.08.61.44,1.39.66,2.34.66.88,0,1.53-.18,1.97-.53.44-.36.66-.82.66-1.39Z"/>
      <path class="cls-1" d="m230.65,25.95c0-.92.33-1.67.99-2.26.66-.59,1.52-.88,2.57-.88s1.91.29,2.57.88c.66.59.99,1.34.99,2.26s-.33,1.67-.99,2.26c-.66.59-1.52.88-2.57.88s-1.91-.29-2.57-.88c-.66-.59-.99-1.34-.99-2.26Zm6.82,25.94h-6.44v-20.6h6.44v20.6Z"/>
      <path class="cls-1" d="m250.13,47.31c.9,0,1.6-.24,2.09-.73.5-.49.74-1.17.72-2.05h6.02c0,2.26-.81,4.11-2.43,5.56-1.62,1.45-3.7,2.17-6.26,2.17-3,0-5.36-.94-7.08-2.82s-2.59-4.48-2.59-7.81v-.27c0-2.08.38-3.92,1.15-5.51.77-1.59,1.88-2.82,3.32-3.68,1.45-.86,3.16-1.29,5.14-1.29,2.68,0,4.8.74,6.38,2.23,1.57,1.49,2.36,3.5,2.36,6.04h-6.02c0-1.07-.26-1.88-.78-2.46-.52-.57-1.22-.86-2.09-.86-1.66,0-2.63,1.06-2.91,3.18-.09.67-.13,1.6-.13,2.78,0,2.07.25,3.5.74,4.3.5.8,1.28,1.2,2.36,1.2Z"/>
      <path class="cls-1" d="m261.97,51.88v-27.73h9.96c3.57,0,6.28.65,8.14,1.96,1.86,1.31,2.79,3.21,2.79,5.69,0,1.43-.33,2.66-.99,3.67-.66,1.02-1.63,1.77-2.91,2.25,1.45.38,2.56,1.09,3.33,2.13.77,1.04,1.16,2.31,1.16,3.81,0,2.72-.86,4.76-2.58,6.12-1.72,1.36-4.27,2.06-7.65,2.08h-11.25Zm6.68-16.17h3.48c1.46-.01,2.5-.28,3.12-.8.62-.52.93-1.29.93-2.31,0-1.17-.34-2.02-1.01-2.53s-1.76-.77-3.26-.77h-3.28v6.42Zm0,4.38v6.65h4.38c1.21,0,2.13-.28,2.78-.83.65-.55.97-1.33.97-2.33,0-2.31-1.15-3.47-3.45-3.48h-4.68Z"/>
      <path class="cls-1" d="m299.3,37.09l-2.11-.15c-2.02,0-3.31.64-3.88,1.9v13.04h-6.42v-20.6h6.02l.21,2.65c1.08-2.02,2.58-3.03,4.51-3.03.69,0,1.28.08,1.79.23l-.11,5.96Z"/>
      <path class="cls-1" d="m312.65,51.88c-.23-.42-.43-1.03-.61-1.85-1.18,1.49-2.83,2.23-4.95,2.23-1.94,0-3.59-.59-4.95-1.76-1.36-1.17-2.04-2.65-2.04-4.43,0-2.23.82-3.92,2.47-5.06s4.05-1.71,7.2-1.71h1.98v-1.09c0-1.9-.82-2.85-2.46-2.85-1.52,0-2.29.75-2.29,2.26h-6.42c0-1.99.85-3.61,2.54-4.85,1.69-1.24,3.86-1.86,6.48-1.86s4.7.64,6.23,1.92c1.52,1.28,2.3,3.04,2.34,5.28v9.12c.03,1.89.32,3.34.88,4.34v.32h-6.42Zm-4.02-4.19c.8,0,1.46-.17,1.99-.51.53-.34.91-.73,1.13-1.16v-3.29h-1.87c-2.23,0-3.35,1-3.35,3.01,0,.58.2,1.06.59,1.42.39.36.9.54,1.5.54Z"/>
      <path class="cls-1" d="m321.69,25.95c0-.92.33-1.67.99-2.26.66-.59,1.52-.88,2.57-.88s1.91.29,2.57.88c.66.59.99,1.34.99,2.26s-.33,1.67-.99,2.26c-.66.59-1.52.88-2.57.88s-1.91-.29-2.57-.88c-.66-.59-.99-1.34-.99-2.26Zm6.82,25.94h-6.44v-20.6h6.44v20.6Z"/>
      <path class="cls-1" d="m338.35,31.28l.21,2.42c1.42-1.87,3.38-2.8,5.88-2.8,2.15,0,3.75.64,4.81,1.92,1.06,1.28,1.61,3.21,1.65,5.79v13.27h-6.44v-13.01c0-1.04-.21-1.81-.63-2.29-.42-.49-1.18-.73-2.29-.73-1.26,0-2.19.5-2.8,1.49v14.55h-6.42v-20.6h6.02Z"/>
      <path class="cls-1" d="m362.02,46.93h9.39v4.95h-17.5v-3.58l9.14-12.07h-8.74v-4.95h16.89v3.47l-9.18,12.19Z"/>
    </g>
  </g>
  <g>
    <path class="cls-1" d="m63.11,43.75c-4.83-1.13-11.81-2.74-17.67,3.99l9.27,9.88-9.75,52.41-14.45-10.24-17.17,4.35,9.75-52.41,17.97-8.66,1.63,1.73c7.34-8.2,16.23-6.14,21.34-4.95.2.05.39.09.58.13V3L3.6,38v74l61,35V44.09c-.46-.1-.95-.21-1.49-.34Z"/>
    <path class="cls-1" d="m39.17,52.6c-.22-.04-.44-.06-.66-.06-1.71,0-3.19,1.23-3.5,2.92-.36,1.93.92,3.8,2.86,4.16,1.92.35,3.81-.95,4.16-2.86.36-1.93-.92-3.8-2.86-4.16Z"/>
  </g>
  <g>
    <path class="cls-1" d="m88.24,95.36c.33.2.71.3,1.08.3.75,0,1.43-.39,1.82-1.03.6-1,.26-2.3-.74-2.9-.33-.19-.7-.3-1.08-.3-.75,0-1.43.39-1.82,1.03-.29.49-.37,1.05-.23,1.6.14.55.48,1.01.96,1.29Z"/>
    <path class="cls-1" d="m114.38,100.07c.97.62,2.31.3,2.91-.65.3-.48.4-1.04.28-1.58-.12-.55-.46-1.03-.94-1.33-.34-.21-.73-.33-1.12-.33-.73,0-1.4.37-1.78.98-.6.95-.36,2.2.56,2.85l.09.06Z"/>
    <path class="cls-1" d="m100.11,114.82c.43-.37.69-.88.73-1.44s-.14-1.11-.5-1.54c-.4-.47-.99-.74-1.61-.74-.36,0-.88.09-1.37.51-.89.76-.99,2.1-.23,2.98.4.47.99.73,1.61.73.36,0,.88-.09,1.37-.51Z"/>
    <path class="cls-1" d="m70.2,3.13v37c2.77.15,6.31.71,10,2.32,1.24.02,6.3-.17,9.94-4.29-1.36-1.96-1.5-4.62-.14-6.76,1.12-1.78,3.06-2.85,5.17-2.85,1.16,0,2.28.33,3.26.94,1.39.88,2.35,2.25,2.71,3.84.36,1.59.07,3.23-.8,4.6-1.12,1.78-3.06,2.85-5.17,2.85-.6,0-1.2-.09-1.77-.27-2.38,2.83-5.26,4.32-7.78,5.1,2.02,1.55,3.81,3.41,5.34,5.57,1.58-.36,3.28-.12,4.67.75,2.86,1.81,3.71,5.6,1.91,8.45-1.13,1.79-3.07,2.85-5.18,2.85-1.16,0-2.29-.33-3.27-.95-2.85-1.8-3.7-5.59-1.9-8.44.12-.19.25-.37.38-.54-2.27-3.11-5.16-5.48-8.61-7.04,0,0-.01,0-.01,0-3.2-1.45-6.31-1.99-8.75-2.14v24c5.15.37,7.57,2.97,9.37,5.02,1.35,1.54,2.12,2.35,3.46,2.42,1.94.1,3.42.05,4.85,0,1.74-.06,3.33-.11,5.29.12,5.67-.09,7.6-1.34,9.64-2.67,1.63-1.06,3.45-2.24,6.82-2.73.16-.54.39-1.08.71-1.58.19-.3.41-.57.63-.82.13-.15.28-.27.43-.4-1.11-4.09-1.31-9.9.04-14.42-.02-.02-.05-.04-.07-.06-2.14-1.96-2.63-5.23-1.02-7.76,1.12-1.78,3.06-2.85,5.17-2.85,1.16,0,2.29.33,3.27.94,1.39.88,2.35,2.25,2.71,3.84.36,1.59.07,3.23-.8,4.6-1.12,1.78-3.06,2.85-5.17,2.85-.11,0-.22-.01-.34-.02-.95,3.5-.75,8.11-.04,11.26.12,0,.25-.02.38-.02,1.16,0,2.29.33,3.27.94,1.39.88,2.35,2.25,2.71,3.84.36,1.59.07,3.23-.8,4.6-1.12,1.78-3.06,2.85-5.17,2.85-1.16,0-2.29-.33-3.27-.95-.13-.09-.21-.14-.28-.19-.97-.69-1.68-1.61-2.11-2.65-2.24.38-3.43,1.14-4.86,2.07-1.16.75-2.4,1.56-4.21,2.19,4.54,3.34,10.63,9.61,13.19,13.79.5-.13,1.01-.2,1.54-.2,1.16,0,2.29.33,3.27.94,1.39.88,2.35,2.25,2.71,3.84.36,1.59.07,3.23-.8,4.6-1.12,1.78-3.06,2.85-5.17,2.85-1.16,0-2.29-.33-3.27-.95-.13-.09-.21-.14-.28-.19-2.65-1.87-3.36-5.5-1.62-8.25.09-.15.21-.29.31-.43-2.67-4.65-12.17-13.68-14.77-14.32-3.4-.84-5.36-.78-7.86-.68-1.45.05-3.09.11-5.21,0-3.08-.17-4.77-2.09-6.26-3.78-1.56-1.78-3.06-3.37-6.36-3.67v42c.51-.1,1.37-.28,2.56-.81.11-.07.23-.12.36-.17,3.35-1.6,8.51-5.47,12.57-14.68-1.14-.84-1.95-2.04-2.3-3.43-.4-1.59-.16-3.23.68-4.64,1.1-1.84,3.11-2.99,5.26-2.99,1.1,0,2.18.3,3.13.86,2.9,1.73,3.85,5.5,2.12,8.39-1.06,1.78-2.98,2.9-5.04,2.97-2.58,6-5.65,10.07-8.58,12.83,1.73.33,2.98,1.05,4.15,1.85.92.63,1.4.93,2.22.97,1.07.03,3.38-.63,5.33-1.33-.24-1.97.47-4.01,2.09-5.4,1.11-.95,2.52-1.48,3.98-1.48,1.79,0,3.48.78,4.65,2.14,1.06,1.24,1.58,2.82,1.46,4.45-.12,1.63-.88,3.11-2.12,4.18-1.11.95-2.52,1.48-3.98,1.48-1.61,0-3.14-.63-4.29-1.75-1.85.7-4.91,1.72-7.02,1.72-.1,0-.21,0-.31,0-1.97-.1-3.24-.96-4.26-1.66-1.57-1.06-3.06-2.07-8.41-.71-2.36,1.07-3.97,1.16-4.25,1.19v29l61-35V38.13L70.2,3.13Z"/>
    <path class="cls-1" d="m114.29,73.71l.09.06c.97.62,2.31.3,2.91-.65.3-.48.4-1.04.28-1.58-.12-.55-.46-1.03-.94-1.33-.34-.21-.73-.33-1.12-.33-.73,0-1.4.37-1.78.98-.6.95-.36,2.2.56,2.85Z"/>
    <path class="cls-1" d="m114.29,50.24l.09.06c.97.62,2.31.3,2.91-.65.3-.48.4-1.04.28-1.58-.12-.55-.46-1.03-.94-1.33-.34-.21-.73-.33-1.12-.33-.73,0-1.4.37-1.78.98-.6.95-.36,2.2.56,2.85Z"/>
    <path class="cls-1" d="m93.95,36.39l.1.06c.97.62,2.31.3,2.91-.65.3-.48.4-1.04.28-1.58-.12-.55-.46-1.03-.94-1.33-.34-.21-.73-.33-1.12-.33-.73,0-1.4.37-1.78.98-.6.95-.36,2.2.56,2.85Z"/>
    <path class="cls-1" d="m92.36,59.23c.73,0,1.4-.37,1.8-.99.62-.98.33-2.29-.66-2.92-.33-.21-.72-.32-1.12-.32s-.79.11-1.12.32c-.28.17-.5.39-.67.66-.62.99-.33,2.3.66,2.92.34.21.73.33,1.12.33Z"/>
  </g>
</svg>