<?xml version="1.0" encoding="UTF-8"?>
<svg id="Layer_1" data-name="Layer 1" xmlns="http://www.w3.org/2000/svg" width="501.06" height="100" viewBox="0 0 501.06 100">
  <defs>
    <style>
      .cls-1 {
        fill: #282422;
        stroke-width: 0px;
      }
    </style>
  </defs>
  <g>
    <path class="cls-1" d="m146.89,50.86c0,4.91-.91,9.26-2.73,13.04-1.82,3.78-4.41,6.69-7.76,8.73-3.36,2.04-7.18,3.06-11.47,3.06s-8.09-.99-11.41-2.96c-3.32-1.97-5.91-4.79-7.77-8.46-1.86-3.67-2.83-7.88-2.92-12.62v-2.84c0-4.93.9-9.29,2.71-13.06,1.81-3.77,4.4-6.68,7.78-8.73,3.38-2.05,7.22-3.08,11.54-3.08s8.07,1.01,11.42,3.04c3.34,2.03,5.94,4.92,7.8,8.66,1.86,3.75,2.8,8.04,2.82,12.88v2.32Zm-12.35-2.11c0-5-.84-8.8-2.51-11.4-1.67-2.59-4.06-3.89-7.18-3.89-6.09,0-9.3,4.57-9.65,13.7l-.03,3.7c0,4.94.82,8.73,2.46,11.38,1.64,2.65,4.07,3.98,7.3,3.98s5.43-1.3,7.09-3.91c1.66-2.61,2.5-6.35,2.53-11.24v-2.32Z"/>
    <path class="cls-1" d="m155.19,75v-29.33h-5.43v-8.09h5.43v-2.97c0-4.27,1.26-7.58,3.77-9.93,2.51-2.35,6.04-3.53,10.58-3.53,1.66,0,3.48.24,5.46.73l.04,8.58c-.71-.21-1.67-.31-2.87-.31-3.53,0-5.29,1.52-5.29,4.57v2.87h7.3v8.09h-7.3v29.33h-11.69Z"/>
    <path class="cls-1" d="m180.86,75v-29.33h-5.43v-8.09h5.43v-2.97c0-4.27,1.26-7.58,3.77-9.93,2.51-2.35,6.04-3.53,10.58-3.53,1.66,0,3.48.24,5.46.73l.04,8.58c-.71-.21-1.67-.31-2.87-.31-3.53,0-5.29,1.52-5.29,4.57v2.87h7.3v8.09h-7.3v29.33h-11.69Z"/>
    <path class="cls-1" d="m203.86,27.89c0-1.67.6-3.04,1.8-4.11s2.76-1.6,4.67-1.6,3.47.53,4.67,1.6c1.2,1.07,1.8,2.44,1.8,4.11s-.6,3.04-1.8,4.11c-1.2,1.07-2.76,1.6-4.67,1.6s-3.47-.53-4.67-1.6c-1.2-1.07-1.8-2.44-1.8-4.11Zm12.38,47.11h-11.69v-37.43h11.69v37.43Z"/>
    <path class="cls-1" d="m239.24,66.7c1.64,0,2.91-.44,3.8-1.33s1.34-2.13,1.31-3.72h10.93c0,4.1-1.47,7.47-4.41,10.1-2.94,2.63-6.73,3.94-11.36,3.94-5.44,0-9.73-1.71-12.87-5.12-3.14-3.41-4.7-8.14-4.7-14.18v-.48c0-3.78.7-7.12,2.09-10.01,1.39-2.89,3.41-5.12,6.04-6.68,2.63-1.56,5.74-2.33,9.34-2.33,4.87,0,8.73,1.35,11.59,4.05,2.86,2.7,4.29,6.35,4.29,10.96h-10.93c0-1.94-.47-3.42-1.42-4.46-.95-1.04-2.21-1.56-3.81-1.56-3.02,0-4.79,1.93-5.29,5.78-.16,1.22-.24,2.91-.24,5.05,0,3.76.45,6.36,1.35,7.82.9,1.45,2.33,2.18,4.29,2.18Z"/>
    <path class="cls-1" d="m278.33,75.69c-5.74,0-10.39-1.71-13.94-5.14-3.55-3.42-5.33-7.88-5.33-13.37v-.97c0-3.83.71-7.21,2.13-10.13,1.42-2.93,3.49-5.19,6.21-6.8,2.72-1.6,5.95-2.4,9.68-2.4,5.26,0,9.41,1.63,12.45,4.89,3.04,3.26,4.57,7.81,4.57,13.65v4.53h-23.17c.42,2.1,1.33,3.75,2.73,4.95,1.41,1.2,3.23,1.8,5.46,1.8,3.69,0,6.57-1.29,8.65-3.87l5.33,6.3c-1.45,2.01-3.51,3.6-6.17,4.79s-5.53,1.78-8.6,1.78Zm-1.31-29.82c-3.41,0-5.44,2.26-6.09,6.78h11.76v-.9c.05-1.87-.43-3.31-1.42-4.34-.99-1.03-2.41-1.54-4.25-1.54Z"/>
    <path class="cls-1" d="m299.33,75V24.64h18.09c6.48,0,11.41,1.19,14.79,3.56,3.38,2.38,5.07,5.82,5.07,10.34,0,2.61-.6,4.83-1.8,6.68-1.2,1.84-2.96,3.21-5.29,4.08,2.63.69,4.65,1.98,6.05,3.87,1.41,1.89,2.11,4.2,2.11,6.92,0,4.94-1.56,8.64-4.69,11.12-3.12,2.48-7.75,3.74-13.89,3.79h-20.44Zm12.14-29.37h6.33c2.65-.02,4.54-.51,5.67-1.46s1.7-2.35,1.7-4.2c0-2.13-.61-3.66-1.83-4.6s-3.19-1.41-5.91-1.41h-5.95v11.66Zm0,7.96v12.07h7.96c2.19,0,3.87-.5,5.05-1.5s1.76-2.42,1.76-4.24c0-4.2-2.09-6.31-6.26-6.33h-8.51Z"/>
    <path class="cls-1" d="m367.12,48.12l-3.84-.28c-3.67,0-6.02,1.15-7.06,3.46v23.69h-11.66v-37.43h10.93l.38,4.81c1.96-3.67,4.69-5.5,8.2-5.5,1.25,0,2.33.14,3.25.42l-.21,10.83Z"/>
    <path class="cls-1" d="m391.37,75c-.42-.76-.78-1.88-1.11-3.36-2.14,2.7-5.14,4.05-8.99,4.05-3.53,0-6.53-1.07-8.99-3.2-2.47-2.13-3.7-4.81-3.7-8.04,0-4.06,1.5-7.12,4.5-9.2,3-2.08,7.36-3.11,13.08-3.11h3.6v-1.98c0-3.45-1.49-5.18-4.46-5.18-2.77,0-4.15,1.37-4.15,4.1h-11.66c0-3.62,1.54-6.55,4.62-8.81,3.08-2.26,7-3.39,11.78-3.39s8.54,1.16,11.31,3.49c2.77,2.33,4.19,5.52,4.25,9.58v16.57c.05,3.44.58,6.07,1.59,7.89v.59h-11.66Zm-7.3-7.61c1.45,0,2.66-.31,3.61-.93.96-.62,1.64-1.33,2.06-2.11v-5.98h-3.39c-4.06,0-6.09,1.82-6.09,5.46,0,1.06.36,1.92,1.07,2.58.71.66,1.62.99,2.73.99Z"/>
    <path class="cls-1" d="m407.8,27.89c0-1.67.6-3.04,1.8-4.11s2.76-1.6,4.67-1.6,3.47.53,4.67,1.6c1.2,1.07,1.8,2.44,1.8,4.11s-.6,3.04-1.8,4.11c-1.2,1.07-2.76,1.6-4.67,1.6s-3.47-.53-4.67-1.6c-1.2-1.07-1.8-2.44-1.8-4.11Zm12.38,47.11h-11.69v-37.43h11.69v37.43Z"/>
    <path class="cls-1" d="m438.07,37.57l.38,4.39c2.58-3.39,6.15-5.08,10.69-5.08,3.9,0,6.81,1.16,8.73,3.49s2.92,5.83,2.99,10.52v24.11h-11.69v-23.62c0-1.89-.38-3.28-1.14-4.17-.76-.89-2.14-1.33-4.15-1.33-2.28,0-3.98.9-5.08,2.7v26.43h-11.66v-37.43h10.93Z"/>
    <path class="cls-1" d="m481.06,66.01h17.05v8.99h-31.79v-6.5l16.6-21.93h-15.88v-8.99h30.68v6.29l-16.67,22.14Z"/>
  </g>
  <g>
    <path class="cls-1" d="m47.6,2.33v49c3,0,5.09-.51,8.62-2.12h.01c3.81-1.73,7-4.35,9.52-7.79-.15-.19-.29-.39-.42-.6-1.99-3.16-1.04-7.34,2.11-9.34,1.08-.69,2.33-1.05,3.62-1.05,2.33,0,4.47,1.18,5.72,3.15,2,3.15,1.05,7.34-2.1,9.35-1.53.96-3.42,1.23-5.16.83-1.7,2.38-3.67,4.44-5.91,6.15,2.78.86,5.97,2.51,8.6,5.64.63-.19,1.29-.29,1.96-.29,2.34,0,4.48,1.18,5.72,3.15.97,1.52,1.29,3.33.89,5.09-.4,1.77-1.46,3.28-3,4.25-1.08.68-2.33,1.04-3.61,1.04-2.34,0-4.48-1.18-5.72-3.15-1.5-2.36-1.35-5.31.16-7.47-4.03-4.56-9.62-4.77-10.99-4.75-4.08,1.77-6.02,2.9-10.02,2.9v42l41-24V26.33L47.6,2.33Z"/>
    <path class="cls-1" d="m69.68,39.44c.42.26.9.39,1.39.39s.98-.14,1.39-.4c1.22-.77,1.59-2.4.82-3.61-.49-.77-1.32-1.22-2.22-1.22-.5,0-.97.14-1.4.41-1.22.77-1.58,2.39-.81,3.62.21.33.49.6.83.82Z"/>
    <path class="cls-1" d="m74.17,64.65c.49,0,.98-.14,1.39-.41.6-.38,1.01-.96,1.16-1.64.15-.68.03-1.37-.34-1.97-.74-1.17-2.4-1.57-3.61-.81l-.12.08c-1.13.8-1.44,2.35-.69,3.53.48.76,1.3,1.22,2.21,1.22Z"/>
  </g>
  <g>
    <path class="cls-1" d="m37.6,24.07h-19.59v14.25h19.59v-14.25Zm-5.58,3.29h-8.53v-1.02h8.53v1.02Z"/>
    <path class="cls-1" d="m37.64,60.96h-19.59v14.25h19.59v-14.25Zm-5.58,3.29h-8.53v-1.02h8.53v1.02Z"/>
    <path class="cls-1" d="m37.55,42.39h-19.59v14.25h19.59v-14.25Zm-5.58,3.29h-8.53v-1.02h8.53v1.02Z"/>
    <path class="cls-1" d="m3.2,25.66v49.33l41,23.33V2.33L3.2,25.66Zm37.44,53.12h-20.95v-.42h-3.88V22.73h24.1v55.63h.73v.43Z"/>
  </g>
</svg>