<?xml version="1.0" encoding="UTF-8"?>
<svg id="Layer_1" data-name="Layer 1" xmlns="http://www.w3.org/2000/svg" width="652.47" height="150" viewBox="0 0 652.47 150">
  <defs>
    <style>
      .cls-1 {
        fill: #282422;
        stroke-width: 0px;
      }
    </style>
  </defs>
  <g>
    <polygon class="cls-1" points="30.58 37.77 65.2 39.19 65.2 3 4.2 38 4.2 112 65.2 147 65.2 98.97 51.73 98.42 27.16 110.18 28.07 97.45 27.8 97.44 18.79 87.06 20.19 46.79 30.58 37.77"/>
    <g>
      <path class="cls-1" d="m38.58,55.92c-.84,0-1.54.66-1.57,1.51-.03.87.64,1.6,1.51,1.63l26.68,1.02v-3.14l-26.56-1.01s-.04,0-.06,0Z"/>
      <path class="cls-1" d="m37.01,68.46c-.03.87.64,1.6,1.51,1.63l26.68,1.02v-3.14l-26.56-1.01c-.9-.05-1.59.64-1.63,1.51Z"/>
      <path class="cls-1" d="m37.01,79.49c-.03.87.64,1.6,1.51,1.63l26.68,1.02v-3.14l-26.56-1.01c-.9-.05-1.59.64-1.63,1.51Z"/>
    </g>
  </g>
  <g>
    <path class="cls-1" d="m199.74,84.6c-.18,3.81-1.2,7.17-3.08,10.09s-4.52,5.18-7.91,6.79c-3.4,1.6-7.28,2.41-11.64,2.41-7.19,0-12.86-2.34-16.99-7.03-4.14-4.69-6.2-11.3-6.2-19.85v-2.71c0-5.36.93-10.06,2.8-14.08,1.87-4.02,4.55-7.13,8.06-9.32,3.51-2.19,7.57-3.29,12.18-3.29,6.64,0,11.98,1.75,16.02,5.24,4.04,3.5,6.33,8.32,6.88,14.46h-13.16c-.1-3.33-.94-5.73-2.52-7.18-1.58-1.45-3.99-2.18-7.22-2.18s-5.69,1.23-7.22,3.68c-1.53,2.46-2.33,6.38-2.41,11.77v3.87c0,5.84.73,10.01,2.2,12.52,1.47,2.51,3.99,3.76,7.58,3.76,3.03,0,5.35-.71,6.96-2.14,1.6-1.43,2.46-3.7,2.56-6.8h13.12Z"/>
    <path class="cls-1" d="m230,73.92l-4.17-.3c-3.99,0-6.54,1.25-7.67,3.76v25.75h-12.67v-40.68h11.88l.41,5.23c2.13-3.98,5.1-5.98,8.91-5.98,1.35,0,2.53.15,3.54.45l-.23,11.77Z"/>
    <path class="cls-1" d="m234.48,51.92c0-1.82.65-3.3,1.96-4.46,1.3-1.16,3-1.74,5.08-1.74s3.77.58,5.08,1.74c1.3,1.16,1.96,2.65,1.96,4.46s-.65,3.3-1.96,4.46c-1.3,1.16-3,1.74-5.08,1.74s-3.77-.58-5.08-1.74c-1.3-1.16-1.96-2.65-1.96-4.46Zm13.46,51.21h-12.71v-40.68h12.71v40.68Z"/>
    <path class="cls-1" d="m270.5,52.34v10.11h6.69v8.8h-6.69v18.61c0,1.53.28,2.59.83,3.2.55.6,1.64.9,3.27.9,1.25,0,2.31-.08,3.16-.23v9.06c-2.28.73-4.66,1.09-7.14,1.09-4.36,0-7.58-1.03-9.66-3.08-2.08-2.05-3.12-5.18-3.12-9.36v-20.19h-5.19v-8.8h5.19v-10.11h12.67Z"/>
    <path class="cls-1" d="m282.08,51.92c0-1.82.65-3.3,1.96-4.46,1.3-1.16,3-1.74,5.08-1.74s3.77.58,5.08,1.74c1.3,1.16,1.96,2.65,1.96,4.46s-.65,3.3-1.96,4.46c-1.3,1.16-3,1.74-5.08,1.74s-3.77-.58-5.08-1.74c-1.3-1.16-1.96-2.65-1.96-4.46Zm13.46,51.21h-12.71v-40.68h12.71v40.68Z"/>
    <path class="cls-1" d="m301.74,82.38c0-6.47,1.4-11.53,4.21-15.19,2.81-3.66,6.68-5.49,11.62-5.49,4.16,0,7.5,1.71,10,5.11l.9-4.36h10.98v56.32h-12.71v-19.02c-2.43,2.76-5.51,4.14-9.25,4.14-4.81,0-8.64-1.86-11.49-5.58-2.85-3.72-4.27-9.03-4.27-15.92Zm12.67.79c0,7.29,2.11,10.94,6.32,10.94,2.91,0,4.91-1.1,6.02-3.31v-16.09c-1.05-2.16-3.03-3.23-5.94-3.23-3.94,0-6.05,3.15-6.35,9.44l-.04,2.26Z"/>
    <path class="cls-1" d="m370.84,98.73c-2.68,3.43-6.3,5.15-10.87,5.15s-7.84-1.3-10.13-3.89c-2.29-2.59-3.44-6.32-3.44-11.18v-26.36h12.67v26.43c0,3.48,1.69,5.23,5.08,5.23,2.91,0,4.98-1.04,6.2-3.12v-28.54h12.75v40.68h-11.88l-.38-4.4Z"/>
    <path class="cls-1" d="m409.72,103.88c-6.24,0-11.29-1.86-15.15-5.58-3.86-3.72-5.79-8.57-5.79-14.53v-1.05c0-4.16.77-7.83,2.31-11.02,1.54-3.18,3.79-5.65,6.75-7.39,2.96-1.74,6.47-2.61,10.53-2.61,5.71,0,10.23,1.77,13.54,5.32s4.96,8.49,4.96,14.83v4.92h-25.19c.45,2.28,1.44,4.07,2.97,5.38,1.53,1.3,3.51,1.96,5.94,1.96,4.01,0,7.14-1.4,9.4-4.21l5.79,6.84c-1.58,2.18-3.82,3.92-6.71,5.21-2.89,1.29-6.01,1.94-9.34,1.94Zm-1.43-32.41c-3.71,0-5.92,2.46-6.62,7.37h12.78v-.98c.05-2.03-.46-3.6-1.54-4.72-1.08-1.12-2.62-1.67-4.62-1.67Z"/>
    <path class="cls-1" d="m432.54,103.13v-54.74h19.66c7.04,0,12.4,1.29,16.07,3.87,3.67,2.58,5.51,6.33,5.51,11.24,0,2.83-.65,5.25-1.96,7.26-1.3,2-3.22,3.48-5.75,4.44,2.86.75,5.05,2.16,6.58,4.21,1.53,2.06,2.29,4.56,2.29,7.52,0,5.36-1.7,9.39-5.09,12.09-3.4,2.7-8.43,4.07-15.1,4.12h-22.22Zm13.2-31.92h6.88c2.88-.03,4.94-.55,6.17-1.58,1.23-1.03,1.84-2.55,1.84-4.56,0-2.31-.66-3.98-1.99-5-1.33-1.02-3.47-1.53-6.43-1.53h-6.47v12.67Zm0,8.65v13.12h8.65c2.38,0,4.21-.54,5.49-1.64,1.28-1.09,1.92-2.62,1.92-4.61,0-4.56-2.27-6.86-6.8-6.88h-9.25Z"/>
    <path class="cls-1" d="m506.23,73.92l-4.17-.3c-3.99,0-6.54,1.25-7.67,3.76v25.75h-12.67v-40.68h11.88l.41,5.23c2.13-3.98,5.1-5.98,8.91-5.98,1.35,0,2.53.15,3.54.45l-.23,11.77Z"/>
    <path class="cls-1" d="m532.59,103.13c-.45-.83-.85-2.04-1.2-3.65-2.33,2.93-5.59,4.4-9.78,4.4-3.83,0-7.09-1.16-9.78-3.48-2.68-2.32-4.02-5.23-4.02-8.74,0-4.41,1.63-7.75,4.89-10,3.26-2.26,8-3.38,14.21-3.38h3.91v-2.15c0-3.75-1.62-5.63-4.85-5.63-3.01,0-4.51,1.49-4.51,4.46h-12.67c0-3.93,1.67-7.12,5.02-9.58,3.35-2.45,7.61-3.68,12.8-3.68s9.29,1.27,12.29,3.8c3.01,2.53,4.55,6,4.62,10.41v18.01c.05,3.73.63,6.59,1.73,8.57v.64h-12.67Zm-7.93-8.27c1.58,0,2.89-.34,3.93-1.02,1.04-.68,1.79-1.44,2.24-2.29v-6.5h-3.68c-4.41,0-6.62,1.98-6.62,5.94,0,1.15.39,2.09,1.17,2.8.78.71,1.77,1.07,2.97,1.07Z"/>
    <path class="cls-1" d="m550.45,51.92c0-1.82.65-3.3,1.96-4.46,1.3-1.16,3-1.74,5.08-1.74s3.77.58,5.08,1.74c1.3,1.16,1.96,2.65,1.96,4.46s-.65,3.3-1.96,4.46c-1.3,1.16-3,1.74-5.08,1.74s-3.77-.58-5.08-1.74c-1.3-1.16-1.96-2.65-1.96-4.46Zm13.46,51.21h-12.71v-40.68h12.71v40.68Z"/>
    <path class="cls-1" d="m583.35,62.45l.41,4.77c2.81-3.68,6.68-5.53,11.62-5.53,4.24,0,7.4,1.27,9.49,3.8,2.09,2.53,3.18,6.34,3.25,11.43v26.21h-12.71v-25.68c0-2.05-.41-3.56-1.24-4.53-.83-.96-2.33-1.45-4.51-1.45-2.48,0-4.32.98-5.53,2.93v28.72h-12.67v-40.68h11.88Z"/>
    <path class="cls-1" d="m630.08,93.36h18.54v9.78h-34.55v-7.07l18.05-23.84h-17.26v-9.78h33.35v6.84l-18.12,24.06Z"/>
  </g>
  <g>
    <path class="cls-1" d="m88.24,95.36c.33.2.71.3,1.08.3.75,0,1.43-.39,1.82-1.03.6-1,.26-2.3-.74-2.9-.33-.19-.7-.3-1.08-.3-.75,0-1.43.39-1.82,1.03-.29.49-.37,1.05-.23,1.6.14.55.48,1.01.96,1.29Z"/>
    <path class="cls-1" d="m114.38,100.07c.97.62,2.31.3,2.91-.65.3-.48.4-1.04.28-1.58-.12-.55-.46-1.03-.94-1.33-.34-.21-.73-.33-1.12-.33-.73,0-1.4.37-1.78.98-.6.95-.36,2.2.56,2.85l.09.06Z"/>
    <path class="cls-1" d="m100.11,114.82c.43-.37.69-.88.73-1.44s-.14-1.11-.5-1.54c-.4-.47-.99-.74-1.61-.74-.36,0-.88.09-1.37.51-.89.76-.99,2.1-.23,2.98.4.47.99.73,1.61.73.36,0,.88-.09,1.37-.51Z"/>
    <path class="cls-1" d="m70.2,3.13v37c2.77.15,6.31.71,10,2.32,1.24.02,6.3-.17,9.94-4.29-1.36-1.96-1.5-4.62-.14-6.76,1.12-1.78,3.06-2.85,5.17-2.85,1.16,0,2.28.33,3.26.94,1.39.88,2.35,2.25,2.71,3.84.36,1.59.07,3.23-.8,4.6-1.12,1.78-3.06,2.85-5.17,2.85-.6,0-1.2-.09-1.77-.27-2.38,2.83-5.26,4.32-7.78,5.1,2.02,1.55,3.81,3.41,5.34,5.57,1.58-.36,3.28-.12,4.67.75,2.86,1.81,3.71,5.6,1.91,8.45-1.13,1.79-3.07,2.85-5.18,2.85-1.16,0-2.29-.33-3.27-.95-2.85-1.8-3.7-5.59-1.9-8.44.12-.19.25-.37.38-.54-2.27-3.11-5.16-5.48-8.61-7.04,0,0-.01,0-.01,0-3.2-1.45-6.31-1.99-8.75-2.14v24c5.15.37,7.57,2.97,9.37,5.02,1.35,1.54,2.12,2.35,3.46,2.42,1.94.1,3.42.05,4.85,0,1.74-.06,3.33-.11,5.29.12,5.67-.09,7.6-1.34,9.64-2.67,1.63-1.06,3.45-2.24,6.82-2.73.16-.54.39-1.08.71-1.58.19-.3.41-.57.63-.82.13-.15.28-.27.43-.4-1.11-4.09-1.31-9.9.04-14.42-.02-.02-.05-.04-.07-.06-2.14-1.96-2.63-5.23-1.02-7.76,1.12-1.78,3.06-2.85,5.17-2.85,1.16,0,2.29.33,3.27.94,1.39.88,2.35,2.25,2.71,3.84.36,1.59.07,3.23-.8,4.6-1.12,1.78-3.06,2.85-5.17,2.85-.11,0-.22-.01-.34-.02-.95,3.5-.75,8.11-.04,11.26.12,0,.25-.02.38-.02,1.16,0,2.29.33,3.27.94,1.39.88,2.35,2.25,2.71,3.84.36,1.59.07,3.23-.8,4.6-1.12,1.78-3.06,2.85-5.17,2.85-1.16,0-2.29-.33-3.27-.95-.13-.09-.21-.14-.28-.19-.97-.69-1.68-1.61-2.11-2.65-2.24.38-3.43,1.14-4.86,2.07-1.16.75-2.4,1.56-4.21,2.19,4.54,3.34,10.63,9.61,13.19,13.79.5-.13,1.01-.2,1.54-.2,1.16,0,2.29.33,3.27.94,1.39.88,2.35,2.25,2.71,3.84.36,1.59.07,3.23-.8,4.6-1.12,1.78-3.06,2.85-5.17,2.85-1.16,0-2.29-.33-3.27-.95-.13-.09-.21-.14-.28-.19-2.65-1.87-3.36-5.5-1.62-8.25.09-.15.21-.29.31-.43-2.67-4.65-12.17-13.68-14.77-14.32-3.4-.84-5.36-.78-7.86-.68-1.45.05-3.09.11-5.21,0-3.08-.17-4.77-2.09-6.26-3.78-1.56-1.78-3.06-3.37-6.36-3.67v42c.51-.1,1.37-.28,2.56-.81.11-.07.23-.12.36-.17,3.35-1.6,8.51-5.47,12.57-14.68-1.14-.84-1.95-2.04-2.3-3.43-.4-1.59-.16-3.23.68-4.64,1.1-1.84,3.11-2.99,5.26-2.99,1.1,0,2.18.3,3.13.86,2.9,1.73,3.85,5.5,2.12,8.39-1.06,1.78-2.98,2.9-5.04,2.97-2.58,6-5.65,10.07-8.58,12.83,1.73.33,2.98,1.05,4.15,1.85.92.63,1.4.93,2.22.97,1.07.03,3.38-.63,5.33-1.33-.24-1.97.47-4.01,2.09-5.4,1.11-.95,2.52-1.48,3.98-1.48,1.79,0,3.48.78,4.65,2.14,1.06,1.24,1.58,2.82,1.46,4.45-.12,1.63-.88,3.11-2.12,4.18-1.11.95-2.52,1.48-3.98,1.48-1.61,0-3.14-.63-4.29-1.75-1.85.7-4.91,1.72-7.02,1.72-.1,0-.21,0-.31,0-1.97-.1-3.24-.96-4.26-1.66-1.57-1.06-3.06-2.07-8.41-.71-2.36,1.07-3.97,1.16-4.25,1.19v29l61-35V38.13L70.2,3.13Z"/>
    <path class="cls-1" d="m114.29,73.71l.09.06c.97.62,2.31.3,2.91-.65.3-.48.4-1.04.28-1.58-.12-.55-.46-1.03-.94-1.33-.34-.21-.73-.33-1.12-.33-.73,0-1.4.37-1.78.98-.6.95-.36,2.2.56,2.85Z"/>
    <path class="cls-1" d="m114.29,50.24l.09.06c.97.62,2.31.3,2.91-.65.3-.48.4-1.04.28-1.58-.12-.55-.46-1.03-.94-1.33-.34-.21-.73-.33-1.12-.33-.73,0-1.4.37-1.78.98-.6.95-.36,2.2.56,2.85Z"/>
    <path class="cls-1" d="m93.95,36.39l.1.06c.97.62,2.31.3,2.91-.65.3-.48.4-1.04.28-1.58-.12-.55-.46-1.03-.94-1.33-.34-.21-.73-.33-1.12-.33-.73,0-1.4.37-1.78.98-.6.95-.36,2.2.56,2.85Z"/>
    <path class="cls-1" d="m92.36,59.23c.73,0,1.4-.37,1.8-.99.62-.98.33-2.29-.66-2.92-.33-.21-.72-.32-1.12-.32s-.79.11-1.12.32c-.28.17-.5.39-.67.66-.62.99-.33,2.3.66,2.92.34.21.73.33,1.12.33Z"/>
  </g>
</svg>