<?xml version="1.0" encoding="UTF-8"?><svg id="a" xmlns="http://www.w3.org/2000/svg" viewBox="0 0 340.88 100"><defs><style>.b{fill:#20656c;}.c{fill:#fffedb;}.d{fill:#579ca0;}.e{fill:#eb743b;}</style></defs><g><polygon class="e" points="46 2 46 98 87 74 87 26 46 2"/><polygon class="b" points="43 2 2 26 2 74 43 98 43 2"/><path class="c" d="M78.28,58.09c-1.24-1.97-3.38-3.15-5.72-3.15-.67,0-1.32,.1-1.96,.29-2.63-3.12-5.82-4.78-8.6-5.64,2.24-1.71,4.21-3.77,5.91-6.15,1.74,.39,3.63,.13,5.16-.83,3.16-2.01,4.1-6.2,2.1-9.35-1.25-1.97-3.39-3.15-5.72-3.15-1.28,0-2.53,.36-3.62,1.05-3.15,1.99-4.09,6.18-2.11,9.34,.13,.21,.27,.4,.42,.6-2.51,3.44-5.71,6.06-9.52,7.79h-.01c-3.53,1.61-5.62,2.12-8.62,2.12v5c4,0,5.93-1.12,10.02-2.9,1.37-.02,6.96,.18,10.99,4.75-1.51,2.16-1.66,5.11-.16,7.47,1.24,1.97,3.38,3.15,5.72,3.15,1.28,0,2.52-.36,3.61-1.04,1.54-.97,2.6-2.48,3-4.25,.4-1.76,.08-3.57-.89-5.09Zm-10.22-23.42c.42-.27,.9-.41,1.4-.41,.9,0,1.73,.46,2.22,1.22,.77,1.21,.4,2.84-.82,3.61-.41,.26-.9,.4-1.39,.4s-.97-.13-1.39-.39c-.34-.21-.62-.49-.83-.82-.77-1.22-.41-2.85,.81-3.62Zm7.06,27.6c-.15,.69-.56,1.27-1.16,1.64-.41,.26-.9,.41-1.39,.41-.91,0-1.73-.46-2.21-1.22-.75-1.18-.44-2.73,.69-3.53l.12-.08c1.21-.77,2.87-.37,3.61,.81,.38,.59,.5,1.29,.34,1.97Z"/><g><path class="c" d="M11.06,68.73V36.15l4.96,.99v-1.75l-5.57-1.23s-.08-.01-.12,0c-.04,0-.08,.01-.12,.03-.04,.02-.07,.04-.11,.07-.03,.03-.07,.06-.09,.1-.03,.04-.05,.08-.08,.12-.02,.05-.04,.1-.06,.15s-.03,.11-.04,.17-.01,.12-.01,.18v34.95c0,.06,0,.12,.01,.18,0,.06,.02,.12,.04,.17,.02,.05,.04,.1,.06,.15,.02,.05,.05,.09,.08,.13,.03,.04,.06,.07,.09,.09,.03,.03,.07,.05,.11,.06,.04,.02,.08,.03,.12,.03,.04,0,.08,0,.12,0l5.57-1.23v-1.75l-4.96,.99Z"/><path class="c" d="M17.88,72.37V32.52l6.45,1.09v-2.15l-4.84-.91-2.53-.48c-.06-.01-.12-.02-.18-.01-.06,0-.12,.01-.17,.03-.06,.02-.11,.04-.16,.08-.05,.03-.1,.07-.14,.12-.04,.05-.08,.1-.12,.15-.03,.06-.06,.12-.09,.18-.02,.07-.04,.13-.05,.21-.01,.07-.02,.15-.02,.22v42.79c0,.08,0,.15,.02,.22,.01,.07,.03,.14,.05,.21,.02,.06,.05,.13,.09,.18,.03,.06,.07,.11,.12,.15,.04,.05,.09,.08,.14,.12,.05,.03,.1,.06,.16,.08,.06,.02,.12,.03,.17,.03,.06,0,.12,0,.18-.01l2.53-.48,4.84-.91v-2.15l-6.45,1.09Z"/><rect class="d" x="27.03" y="29.1" width="15.97" height="46.68"/><path class="c" d="M24.33,27.75v49.38c0,.74,.6,1.35,1.35,1.35h17.32v-2.7h-15.97V29.1h15.97v-2.7H25.68c-.74,0-1.35,.6-1.35,1.35Z"/></g></g><g><path class="b" d="M135.1,33.76c-.12,2.72-.86,5.13-2.2,7.21-1.34,2.09-3.23,3.7-5.65,4.85s-5.2,1.72-8.31,1.72c-5.14,0-9.18-1.67-12.14-5.02-2.95-3.35-4.43-8.08-4.43-14.18v-1.93c0-3.83,.67-7.18,2-10.06,1.33-2.87,3.25-5.09,5.76-6.66s5.41-2.35,8.7-2.35c4.74,0,8.56,1.25,11.44,3.75,2.88,2.5,4.52,5.94,4.91,10.33h-9.4c-.07-2.38-.67-4.09-1.8-5.13s-2.85-1.56-5.16-1.56-4.06,.88-5.16,2.63-1.67,4.56-1.72,8.41v2.77c0,4.17,.52,7.15,1.57,8.94,1.05,1.79,2.85,2.69,5.41,2.69,2.17,0,3.82-.51,4.97-1.53,1.15-1.02,1.75-2.64,1.83-4.86h9.37Z"/><path class="b" d="M138,32.2c0-2.9,.56-5.48,1.69-7.75,1.13-2.26,2.75-4.01,4.86-5.22s4.59-1.83,7.44-1.83c4.35,0,7.78,1.35,10.29,4.04s3.76,6.36,3.76,11v.32c0,4.53-1.26,8.12-3.77,10.78-2.52,2.66-5.92,3.99-10.22,3.99s-7.46-1.24-9.96-3.72c-2.51-2.48-3.86-5.84-4.05-10.08l-.03-1.53Zm9.05,.56c0,2.69,.42,4.66,1.26,5.91s2.09,1.88,3.73,1.88c3.22,0,4.87-2.48,4.94-7.44v-.91c0-5.21-1.66-7.82-4.99-7.82-3.03,0-4.66,2.25-4.92,6.74l-.03,1.64Z"/><path class="b" d="M181.21,36.23l4.59-18.29h9.53l-9.48,29.06h-9.24l-9.48-29.06h9.56l4.51,18.29Z"/><path class="b" d="M211.75,47.54c-4.46,0-8.07-1.33-10.82-3.99-2.76-2.66-4.13-6.12-4.13-10.38v-.75c0-2.97,.55-5.6,1.65-7.87,1.1-2.27,2.71-4.03,4.82-5.28,2.11-1.24,4.62-1.87,7.52-1.87,4.08,0,7.3,1.27,9.67,3.8,2.36,2.53,3.54,6.07,3.54,10.59v3.52h-17.99c.32,1.63,1.03,2.91,2.12,3.84,1.09,.93,2.51,1.4,4.24,1.4,2.86,0,5.1-1,6.71-3.01l4.14,4.89c-1.13,1.56-2.73,2.8-4.79,3.72-2.07,.92-4.29,1.38-6.67,1.38Zm-1.02-23.15c-2.65,0-4.23,1.75-4.73,5.26h9.13v-.7c.04-1.45-.33-2.57-1.1-3.37-.77-.8-1.87-1.2-3.3-1.2Z"/><path class="b" d="M245.21,26.13l-2.98-.21c-2.85,0-4.67,.9-5.48,2.69v18.4h-9.05V17.94h8.49l.29,3.73c1.52-2.85,3.64-4.27,6.37-4.27,.97,0,1.81,.11,2.52,.32l-.16,8.41Z"/><path class="b" d="M284.8,39.7h-12.92l-2.26,7.3h-10.07l14.34-39.1h8.86l14.45,39.1h-10.12l-2.28-7.3Zm-10.66-7.28h8.41l-4.22-13.56-4.19,13.56Z"/><path class="b" d="M317.21,26.13l-2.98-.21c-2.85,0-4.67,.9-5.48,2.69v18.4h-9.05V17.94h8.49l.29,3.73c1.52-2.85,3.64-4.27,6.37-4.27,.97,0,1.81,.11,2.52,.32l-.16,8.41Z"/><path class="b" d="M332.36,10.72v7.22h4.78v6.28h-4.78v13.29c0,1.09,.2,1.85,.59,2.28,.39,.43,1.17,.64,2.34,.64,.9,0,1.65-.05,2.26-.16v6.47c-1.63,.52-3.33,.78-5.1,.78-3.12,0-5.42-.73-6.9-2.2-1.49-1.47-2.23-3.7-2.23-6.69v-14.42h-3.71v-6.28h3.71v-7.22h9.05Z"/><path class="e" d="M125.68,85.7h-12.92l-2.26,7.3h-10.07l14.34-39.1h8.86l14.45,39.1h-10.12l-2.28-7.3Zm-10.66-7.28h8.41l-4.22-13.56-4.19,13.56Z"/><path class="e" d="M158.09,72.13l-2.98-.21c-2.85,0-4.67,.9-5.48,2.69v18.4h-9.05v-29.06h8.49l.29,3.73c1.52-2.85,3.64-4.27,6.37-4.27,.97,0,1.81,.11,2.52,.32l-.16,8.41Z"/><path class="e" d="M173.13,86.55c1.27,0,2.26-.34,2.95-1.03,.7-.69,1.04-1.65,1.02-2.89h8.49c0,3.19-1.14,5.8-3.42,7.84-2.28,2.04-5.22,3.06-8.82,3.06-4.23,0-7.56-1.33-9.99-3.97s-3.65-6.32-3.65-11.01v-.38c0-2.94,.54-5.53,1.62-7.77,1.08-2.25,2.64-3.97,4.69-5.18,2.04-1.21,4.46-1.81,7.25-1.81,3.78,0,6.78,1.05,9,3.14,2.22,2.1,3.33,4.93,3.33,8.51h-8.49c0-1.5-.37-2.66-1.1-3.46-.73-.8-1.72-1.21-2.95-1.21-2.35,0-3.72,1.5-4.11,4.49-.12,.95-.19,2.26-.19,3.92,0,2.92,.35,4.94,1.05,6.07,.7,1.13,1.81,1.69,3.33,1.69Z"/><path class="e" d="M198.27,67.06c1.93-2.43,4.4-3.65,7.41-3.65,3.21,0,5.62,.95,7.25,2.85s2.46,4.7,2.5,8.41v18.34h-9.08v-18.13c0-1.54-.31-2.67-.94-3.4-.63-.73-1.69-1.09-3.2-1.09-1.86,0-3.18,.59-3.95,1.77v20.84h-9.05V51.75h9.05v15.31Z"/><path class="e" d="M220.4,56.42c0-1.3,.47-2.36,1.4-3.19,.93-.83,2.14-1.24,3.62-1.24s2.7,.41,3.63,1.24c.93,.83,1.4,1.89,1.4,3.19s-.47,2.36-1.4,3.19-2.14,1.24-3.63,1.24-2.69-.41-3.62-1.24-1.4-1.89-1.4-3.19Zm9.61,36.58h-9.08v-29.06h9.08v29.06Z"/><path class="e" d="M247.17,82.23l4.59-18.29h9.53l-9.48,29.06h-9.24l-9.48-29.06h9.56l4.51,18.29Z"/><path class="e" d="M277.71,93.54c-4.46,0-8.07-1.33-10.82-3.99-2.76-2.66-4.13-6.12-4.13-10.38v-.75c0-2.97,.55-5.6,1.65-7.87,1.1-2.27,2.71-4.03,4.82-5.28,2.11-1.24,4.62-1.87,7.52-1.87,4.08,0,7.3,1.27,9.67,3.8,2.36,2.53,3.54,6.07,3.54,10.59v3.52h-17.99c.32,1.63,1.03,2.91,2.12,3.84,1.09,.93,2.51,1.4,4.24,1.4,2.86,0,5.1-1,6.71-3.01l4.14,4.89c-1.13,1.56-2.73,2.8-4.79,3.72-2.07,.92-4.29,1.38-6.67,1.38Zm-1.02-23.15c-2.65,0-4.23,1.75-4.73,5.26h9.13v-.7c.04-1.45-.33-2.57-1.1-3.37-.77-.8-1.87-1.2-3.3-1.2Z"/></g></svg>