<?xml version="1.0" encoding="UTF-8"?><svg id="a" xmlns="http://www.w3.org/2000/svg" viewBox="0 0 215 195"><defs><style>.b{fill:#20656c;}.c{fill:#fffedb;}.d{fill:#579ca0;}.e{fill:#eb743b;}</style></defs><g><polygon class="e" points="109.5 3 109.5 99 150.5 75 150.5 27 109.5 3"/><polygon class="b" points="106.5 3 65.5 27 65.5 75 106.5 99 106.5 3"/><path class="c" d="M141.78,59.09c-1.24-1.97-3.38-3.15-5.72-3.15-.67,0-1.32,.1-1.96,.29-2.63-3.12-5.82-4.78-8.6-5.64,2.24-1.71,4.21-3.77,5.91-6.15,1.74,.39,3.63,.13,5.16-.83,3.16-2.01,4.1-6.2,2.1-9.35-1.25-1.97-3.39-3.15-5.72-3.15-1.28,0-2.53,.36-3.62,1.05-3.15,1.99-4.09,6.18-2.11,9.34,.13,.21,.27,.4,.42,.6-2.51,3.44-5.71,6.06-9.52,7.79h-.01c-3.53,1.61-5.62,2.12-8.62,2.12v5c4,0,5.93-1.12,10.02-2.9,1.37-.02,6.96,.18,10.99,4.75-1.51,2.16-1.66,5.11-.16,7.47,1.24,1.97,3.38,3.15,5.72,3.15,1.28,0,2.52-.36,3.61-1.04,1.54-.97,2.6-2.48,3-4.25,.4-1.76,.08-3.57-.89-5.09Zm-10.22-23.42c.42-.27,.9-.41,1.4-.41,.9,0,1.73,.46,2.22,1.22,.77,1.21,.4,2.84-.82,3.61-.41,.26-.9,.4-1.39,.4s-.97-.13-1.39-.39c-.34-.21-.62-.49-.83-.82-.77-1.22-.41-2.85,.81-3.62Zm7.06,27.6c-.15,.69-.56,1.27-1.16,1.64-.41,.26-.9,.41-1.39,.41-.91,0-1.73-.46-2.21-1.22-.75-1.18-.44-2.73,.69-3.53l.12-.08c1.21-.77,2.87-.37,3.61,.81,.38,.59,.5,1.29,.34,1.97Z"/><g><path class="c" d="M74.56,69.73V37.15l4.96,.99v-1.75l-5.57-1.23s-.08-.01-.12,0c-.04,0-.08,.01-.12,.03-.04,.02-.07,.04-.11,.07-.03,.03-.07,.06-.09,.1-.03,.04-.05,.08-.08,.12-.02,.05-.04,.1-.06,.15s-.03,.11-.04,.17-.01,.12-.01,.18v34.95c0,.06,0,.12,.01,.18,0,.06,.02,.12,.04,.17,.02,.05,.04,.1,.06,.15,.02,.05,.05,.09,.08,.13,.03,.04,.06,.07,.09,.09,.03,.03,.07,.05,.11,.06,.04,.02,.08,.03,.12,.03,.04,0,.08,0,.12,0l5.57-1.23v-1.75l-4.96,.99Z"/><path class="c" d="M81.38,73.37V33.52l6.45,1.09v-2.15l-4.84-.91-2.53-.48c-.06-.01-.12-.02-.18-.01-.06,0-.12,.01-.17,.03-.06,.02-.11,.04-.16,.08-.05,.03-.1,.07-.14,.12-.04,.05-.08,.1-.12,.15-.03,.06-.06,.12-.09,.18-.02,.07-.04,.13-.05,.21-.01,.07-.02,.15-.02,.22v42.79c0,.08,0,.15,.02,.22,.01,.07,.03,.14,.05,.21,.02,.06,.05,.13,.09,.18,.03,.06,.07,.11,.12,.15,.04,.05,.09,.08,.14,.12,.05,.03,.1,.06,.16,.08,.06,.02,.12,.03,.17,.03,.06,0,.12,0,.18-.01l2.53-.48,4.84-.91v-2.15l-6.45,1.09Z"/><rect class="d" x="90.53" y="30.1" width="15.97" height="46.68"/><path class="c" d="M87.83,28.75v49.38c0,.74,.6,1.35,1.35,1.35h17.32v-2.7h-15.97V30.1h15.97v-2.7h-17.32c-.74,0-1.35,.6-1.35,1.35Z"/></g></g><g><path class="b" d="M29.85,129.91c-.16,3.9-1.45,6.97-3.86,9.21s-5.6,3.36-9.56,3.36c-4.28,0-7.65-1.52-10.1-4.56s-3.68-7.33-3.68-12.86v-1.48c0-5.33,1.24-9.56,3.73-12.68s5.81-4.68,9.97-4.68,7.12,1.13,9.48,3.39c2.36,2.26,3.73,5.42,4.09,9.48h-8.6c0-3.84-1.66-5.76-4.97-5.76-1.74,0-3.01,.81-3.83,2.43s-1.24,4.13-1.26,7.52v1.91c0,3.74,.4,6.38,1.2,7.92s2.13,2.31,3.98,2.31c1.64,0,2.85-.44,3.64-1.32s1.19-2.28,1.21-4.2h8.57Z"/><path class="b" d="M33.34,125.94c0-4.57,1.08-8.16,3.23-10.76,2.16-2.6,5.14-3.9,8.95-3.9s6.85,1.3,9,3.9c2.16,2.6,3.23,6.21,3.23,10.81v1.92c0,4.59-1.07,8.18-3.21,10.76-2.14,2.58-5.13,3.88-8.98,3.88s-6.87-1.3-9.02-3.89c-2.15-2.59-3.22-6.19-3.22-10.8v-1.92Zm7.92,1.98c0,5.39,1.44,8.08,4.32,8.08,2.66,0,4.09-2.25,4.29-6.75l.03-3.32c0-2.75-.38-4.79-1.14-6.12-.76-1.33-1.84-1.99-3.23-1.99s-2.38,.67-3.14,1.99c-.75,1.33-1.13,3.37-1.13,6.12v1.98Z"/><path class="b" d="M72.14,130.85l3.82-19.01h8.22l-8.28,30.16h-7.53l-8.31-30.16h8.25l3.82,19.01Z"/><path class="b" d="M99.71,142.56c-4.05,0-7.21-1.21-9.48-3.62-2.27-2.42-3.4-5.87-3.4-10.37v-2.4c0-4.76,1.04-8.43,3.12-11.01,2.08-2.58,5.06-3.87,8.95-3.87s6.64,1.21,8.56,3.63c1.91,2.42,2.89,6.01,2.93,10.76v3.87h-15.69c.11,2.24,.6,3.88,1.48,4.91,.87,1.04,2.22,1.55,4.04,1.55,2.64,0,4.84-.9,6.61-2.7l3.09,4.77c-.97,1.34-2.37,2.42-4.21,3.25-1.84,.83-3.84,1.24-5.99,1.24Zm-4.96-18.51h7.89v-.72c-.04-1.8-.33-3.17-.89-4.1-.56-.93-1.52-1.39-2.9-1.39s-2.37,.49-3,1.48c-.62,.99-.99,2.56-1.1,4.74Z"/><path class="b" d="M129.73,119.45l-2.62-.22c-2.16,0-3.61,.95-4.38,2.84v19.93h-7.92v-30.16h7.44l.22,3.26c1.24-2.55,2.96-3.82,5.16-3.82,.89,0,1.62,.12,2.17,.36l-.08,7.8Z"/><path class="b" d="M165.39,135.3h-10.42l-1.91,6.7h-8.57l11.67-35.3h8.03l11.79,35.3h-8.6l-1.97-6.7Zm-8.54-6.45h6.64l-3.36-11.39-3.27,11.39Z"/><path class="b" d="M194.17,119.45l-2.62-.22c-2.16,0-3.61,.95-4.38,2.84v19.93h-7.92v-30.16h7.44l.22,3.26c1.24-2.55,2.96-3.82,5.16-3.82,.89,0,1.62,.12,2.17,.36l-.08,7.8Z"/><path class="b" d="M208.78,104.43v7.42h4.04v5.91h-4.04v14.99c0,1.19,.16,2.01,.49,2.46,.33,.45,.95,.67,1.88,.67,.76,0,1.38-.07,1.87-.2l-.06,6.13c-1.34,.5-2.79,.75-4.35,.75-5.09,0-7.67-2.92-7.72-8.76v-16.04h-3.48v-5.91h3.48v-7.42h7.89Z"/><path class="e" d="M42.79,184.3h-10.42l-1.91,6.7h-8.57l11.67-35.3h8.03l11.79,35.3h-8.6l-1.97-6.7Zm-8.54-6.45h6.64l-3.36-11.39-3.27,11.39Z"/><path class="e" d="M71.57,168.45l-2.62-.22c-2.16,0-3.61,.95-4.38,2.84v19.93h-7.92v-30.16h7.44l.22,3.26c1.24-2.55,2.96-3.82,5.16-3.82,.89,0,1.62,.12,2.17,.36l-.08,7.8Z"/><path class="e" d="M85.98,185.01c2.29,0,3.45-1.49,3.48-4.46h7.41c-.04,3.29-1.05,5.95-3.04,7.97s-4.55,3.04-7.69,3.04c-3.88,0-6.85-1.21-8.89-3.62-2.04-2.42-3.08-5.97-3.12-10.68v-2.4c0-4.74,1.01-8.35,3.02-10.84,2.02-2.49,4.99-3.73,8.93-3.73,3.33,0,5.95,1.03,7.86,3.08s2.89,4.97,2.93,8.74h-7.41c-.02-1.69-.3-2.99-.84-3.9-.54-.91-1.43-1.37-2.68-1.37-1.38,0-2.36,.49-2.96,1.46s-.91,2.87-.95,5.67v3.07c0,2.45,.12,4.17,.36,5.14,.24,.98,.64,1.69,1.2,2.15s1.35,.68,2.37,.68Z"/><path class="e" d="M109.03,163.49c1.71-2.14,3.81-3.21,6.3-3.21,2.75,0,4.84,.97,6.27,2.9,1.43,1.93,2.16,4.81,2.17,8.64v19.18h-7.92v-19.09c0-1.76-.27-3.04-.82-3.83-.55-.79-1.44-1.18-2.66-1.18-1.43,0-2.55,.66-3.34,1.98v22.13h-7.89v-42.81h7.89v15.3Z"/><path class="e" d="M129.44,153.04c0-1.23,.39-2.23,1.17-3.01s1.82-1.17,3.12-1.17,2.34,.39,3.12,1.17c.78,.78,1.17,1.78,1.17,3.01s-.39,2.21-1.16,3.01c-.77,.8-1.82,1.2-3.14,1.2s-2.37-.4-3.14-1.2c-.77-.8-1.16-1.8-1.16-3.01Zm8.28,37.96h-7.92v-30.16h7.92v30.16Z"/><path class="e" d="M153.71,179.85l3.82-19.01h8.22l-8.28,30.16h-7.53l-8.31-30.16h8.25l3.82,19.01Z"/><path class="e" d="M181.28,191.56c-4.05,0-7.21-1.21-9.48-3.62-2.27-2.42-3.4-5.87-3.4-10.37v-2.4c0-4.76,1.04-8.43,3.12-11.01,2.08-2.58,5.06-3.87,8.95-3.87s6.64,1.21,8.56,3.63c1.91,2.42,2.89,6.01,2.93,10.76v3.87h-15.69c.11,2.24,.6,3.88,1.48,4.91,.87,1.04,2.22,1.55,4.04,1.55,2.64,0,4.84-.9,6.61-2.7l3.09,4.77c-.97,1.34-2.37,2.42-4.21,3.25-1.84,.83-3.84,1.24-5.99,1.24Zm-4.96-18.51h7.89v-.72c-.04-1.8-.33-3.17-.89-4.1-.56-.93-1.52-1.39-2.9-1.39s-2.37,.49-3,1.48c-.62,.99-.99,2.56-1.1,4.74Z"/></g></svg>