<?xml version="1.0" encoding="UTF-8"?><svg xmlns="http://www.w3.org/2000/svg" viewBox="0 0 772.33 150"><defs><style>.b{fill:#20656c;}.c{mix-blend-mode:multiply;opacity:.07;}.d{isolation:isolate;}.e{fill:#fffedb;}.f{fill:#264346;}.g{fill:#d3562c;}.h{fill:#579ca0;}.i{fill:#eb743b;}</style></defs><g class="d"><g id="a"><g><g><polygon class="i" points="70.35 2.82 70.35 146.82 131.35 111.82 131.35 37.82 70.35 2.82"/><polygon class="b" points="65.35 2.82 4.35 37.82 4.35 111.82 65.35 146.82 65.35 2.82"/><g><g class="c"><path d="M87.66,94.56c.39-.64,1.07-1.03,1.82-1.03,.38,0,.75,.1,1.08,.3,1,.6,1.33,1.9,.74,2.9-.38,.65-1.06,1.03-1.82,1.03-.38,0-.75-.1-1.08-.3-.48-.29-.83-.75-.96-1.29-.14-.55-.06-1.12,.23-1.6Zm12.6,22.36c-.49,.42-1.02,.51-1.37,.51-.62,0-1.21-.27-1.61-.73-.76-.88-.65-2.22,.23-2.98,.49-.42,1.02-.51,1.37-.51,.62,0,1.2,.27,1.61,.74,.37,.43,.55,.98,.5,1.54-.04,.56-.3,1.07-.73,1.44Z"/><path d="M79.36,48.43c.07,.02,.14,.03,.21,.05-.07-.01-.14-.03-.21-.05Z"/><path d="M90.73,58.08c.17-.27,.39-.49,.67-.66,.33-.21,.72-.32,1.12-.32s.79,.11,1.12,.32c.99,.63,1.28,1.94,.66,2.92-.39,.62-1.06,.99-1.79,.99-.4,0-.79-.11-1.12-.33-.98-.62-1.28-1.94-.66-2.92Zm6.38-20.19c-.6,.95-1.94,1.27-2.91,.65l-.1-.06c-.91-.65-1.16-1.9-.56-2.85,.39-.61,1.05-.98,1.78-.98,.4,0,.79,.11,1.12,.33,.48,.3,.81,.78,.94,1.33,.12,.55,.03,1.11-.28,1.58Z"/><path d="M113.88,49.49c.39-.61,1.05-.98,1.78-.98,.4,0,.79,.11,1.12,.33,.48,.3,.81,.78,.94,1.33,.12,.55,.02,1.11-.28,1.58-.6,.95-1.94,1.27-2.91,.65l-.09-.06c-.92-.65-1.16-1.9-.56-2.85Zm0,23.46c.39-.61,1.05-.98,1.78-.98,.4,0,.79,.11,1.12,.33,.48,.3,.81,.77,.94,1.33,.12,.55,.02,1.11-.28,1.58-.6,.95-1.94,1.27-2.91,.65l-.09-.06c-.92-.65-1.16-1.9-.56-2.85Zm0,26.3c.39-.61,1.05-.98,1.78-.98,.4,0,.79,.11,1.12,.33,.48,.3,.81,.78,.94,1.33,.12,.55,.02,1.11-.28,1.58-.6,.95-1.94,1.27-2.91,.65l-.09-.06c-.92-.65-1.16-1.9-.56-2.85Z"/><path d="M103.53,108.93c-1.17-1.36-2.86-2.14-4.65-2.14-1.46,0-2.88,.53-3.98,1.48-1.61,1.38-2.33,3.43-2.09,5.4-1.95,.7-4.26,1.37-5.33,1.33-.82-.04-1.3-.35-2.22-.97-1.17-.79-2.42-1.51-4.15-1.85,2.94-2.76,6.01-6.83,8.58-12.83,2.06-.08,3.98-1.19,5.04-2.97,1.72-2.9,.77-6.66-2.12-8.39-.95-.57-2.03-.86-3.13-.86-2.15,0-4.16,1.14-5.26,2.99-.84,1.41-1.08,3.05-.68,4.64,.35,1.39,1.16,2.59,2.3,3.43-4.05,9.22-9.22,13.08-12.57,14.68-.13,.04-.25,.1-.36,.17-1.19,.53-2.05,.7-2.56,.81v4c.28-.03,1.88-.12,4.25-1.19,5.35-1.36,6.84-.35,8.41,.71,1.02,.69,2.29,1.55,4.26,1.66,.1,0,.2,0,.31,0,2.11,0,5.17-1.02,7.02-1.72,1.14,1.12,2.68,1.75,4.29,1.75h0c1.46,0,2.88-.52,3.98-1.48,1.24-1.06,1.99-2.55,2.12-4.18,.12-1.63-.39-3.21-1.46-4.45Zm-15.87-16.78c.39-.64,1.07-1.03,1.82-1.03,.38,0,.75,.1,1.08,.3,1,.6,1.33,1.9,.74,2.9-.38,.65-1.06,1.03-1.82,1.03-.38,0-.75-.1-1.08-.3-.48-.29-.83-.75-.96-1.29-.14-.55-.06-1.12,.23-1.6Zm12.6,22.36c-.49,.42-1.02,.51-1.37,.51-.62,0-1.21-.27-1.61-.73-.76-.88-.65-2.22,.23-2.98,.49-.42,1.02-.51,1.37-.51,.62,0,1.2,.27,1.61,.74,.37,.43,.55,.98,.5,1.54-.04,.56-.3,1.07-.73,1.44Z"/><path d="M79.36,46.03c.07,.02,.14,.03,.21,.05-.07-.01-.14-.03-.21-.05Z"/><path d="M101.3,33.03c-.36-1.6-1.32-2.96-2.71-3.84-.98-.62-2.11-.94-3.26-.94-2.12,0-4.05,1.07-5.17,2.85-1.35,2.14-1.22,4.8,.14,6.76-3.65,4.12-8.71,4.31-9.94,4.29-3.69-1.6-7.23-2.16-10-2.32v4c2.44,.14,5.55,.69,8.75,2.14h.01c3.45,1.57,6.33,3.93,8.61,7.05-.14,.17-.26,.35-.38,.54-1.8,2.85-.94,6.64,1.9,8.44,.98,.62,2.11,.95,3.27,.95,2.11,0,4.05-1.07,5.18-2.85,1.81-2.85,.95-6.64-1.91-8.45-1.38-.87-3.09-1.11-4.67-.75-1.54-2.15-3.32-4.02-5.34-5.57,2.52-.78,5.4-2.27,7.78-5.1,.57,.17,1.17,.27,1.77,.27,2.12,0,4.05-1.07,5.17-2.85,.88-1.38,1.16-3.01,.8-4.6Zm-10.57,22.65c.17-.27,.39-.49,.67-.66,.33-.21,.72-.32,1.12-.32s.79,.11,1.12,.32c.99,.63,1.28,1.94,.66,2.92-.39,.62-1.06,.99-1.79,.99-.4,0-.79-.11-1.12-.33-.98-.62-1.28-1.94-.66-2.92Zm6.38-20.19c-.6,.95-1.94,1.27-2.91,.65l-.1-.06c-.91-.65-1.16-1.9-.56-2.85,.39-.61,1.05-.98,1.78-.98,.4,0,.79,.11,1.12,.33,.48,.3,.81,.78,.94,1.33,.12,.55,.03,1.11-.28,1.58Z"/><path d="M110,74.01c.42,1.04,1.14,1.96,2.11,2.65,.07,.05,.15,.11,.28,.19,.98,.62,2.11,.95,3.27,.95,2.12,0,4.05-1.07,5.17-2.85,.88-1.38,1.16-3.01,.8-4.6-.36-1.6-1.32-2.96-2.71-3.84-.98-.62-2.11-.94-3.27-.94-.12,0-.25,0-.38,.02-.71-3.16-.92-7.77,.04-11.26,.11,.01,.22,.02,.34,.02,2.12,0,4.05-1.07,5.17-2.85,.88-1.38,1.16-3.01,.8-4.6-.36-1.6-1.32-2.96-2.71-3.84-.98-.62-2.11-.94-3.27-.94-2.11,0-4.05,1.07-5.17,2.85-1.6,2.53-1.12,5.8,1.02,7.76,.02,.02,.05,.04,.07,.06-1.35,4.52-1.15,10.32-.04,14.42-.14,.13-.29,.25-.43,.4-.23,.25-.45,.53-.63,.82-.32,.5-.55,1.03-.71,1.58-3.37,.49-5.2,1.67-6.82,2.73-2.04,1.32-3.96,2.57-9.64,2.67-1.96-.23-3.55-.18-5.29-.12-1.43,.05-2.91,.11-4.85,0-1.33-.07-2.1-.88-3.46-2.42-1.8-2.05-4.22-4.65-9.37-5.02v4c3.29,.3,4.8,1.89,6.36,3.67,1.49,1.69,3.17,3.62,6.26,3.78,2.12,.11,3.76,.05,5.21,0,2.49-.09,4.45-.16,7.86,.68,2.61,.64,12.1,9.67,14.77,14.32-.11,.14-.22,.28-.31,.43-1.74,2.75-1.03,6.38,1.62,8.25,.07,.05,.15,.1,.28,.19,.98,.62,2.11,.95,3.27,.95,2.12,0,4.05-1.07,5.17-2.85,.88-1.37,1.16-3.01,.8-4.6-.36-1.6-1.32-2.96-2.71-3.84-.98-.62-2.11-.94-3.27-.94-.53,0-1.05,.07-1.54,.2-2.56-4.19-8.65-10.46-13.19-13.79,1.81-.63,3.05-1.43,4.21-2.19,1.43-.93,2.61-1.69,4.86-2.07Zm3.88-26.92c.39-.61,1.05-.98,1.78-.98,.4,0,.79,.11,1.12,.33,.48,.3,.81,.78,.94,1.33,.12,.55,.02,1.11-.28,1.58-.6,.95-1.94,1.27-2.91,.65l-.09-.06c-.92-.65-1.16-1.9-.56-2.85Zm0,23.46c.39-.61,1.05-.98,1.78-.98,.4,0,.79,.11,1.12,.33,.48,.3,.81,.77,.94,1.33,.12,.55,.02,1.11-.28,1.58-.6,.95-1.94,1.27-2.91,.65l-.09-.06c-.92-.65-1.16-1.9-.56-2.85Zm0,26.3c.39-.61,1.05-.98,1.78-.98,.4,0,.79,.11,1.12,.33,.48,.3,.81,.78,.94,1.33,.12,.55,.02,1.11-.28,1.58-.6,.95-1.94,1.27-2.91,.65l-.09-.06c-.92-.65-1.16-1.9-.56-2.85Z"/></g><g><g><path class="g" d="M103.53,111.93c-1.17-1.36-2.86-2.14-4.65-2.14-1.46,0-2.88,.53-3.98,1.48-1.61,1.38-2.33,3.43-2.09,5.4-1.95,.7-4.26,1.37-5.33,1.33-.82-.04-1.3-.35-2.22-.97-1.17-.79-2.42-1.51-4.15-1.85,2.94-2.76,6.01-6.83,8.58-12.83,2.06-.08,3.98-1.19,5.04-2.97,1.72-2.9,.77-6.66-2.12-8.39-.95-.57-2.03-.86-3.13-.86-2.15,0-4.16,1.14-5.26,2.99-.84,1.41-1.08,3.05-.68,4.64,.35,1.39,1.16,2.59,2.3,3.43-4.05,9.22-9.22,13.08-12.57,14.68-.13,.04-.25,.1-.36,.17-1.19,.53-2.05,.7-2.56,.81v4c.28-.03,1.88-.12,4.25-1.19,5.35-1.36,6.84-.35,8.41,.71,1.02,.69,2.29,1.55,4.26,1.66,.1,0,.2,0,.31,0,2.11,0,5.17-1.02,7.02-1.72,1.14,1.12,2.68,1.75,4.29,1.75h0c1.46,0,2.88-.52,3.98-1.48,1.24-1.06,1.99-2.55,2.12-4.18,.12-1.63-.39-3.21-1.46-4.45Zm-15.87-16.78c.39-.64,1.07-1.03,1.82-1.03,.38,0,.75,.1,1.08,.3,1,.6,1.33,1.9,.74,2.9-.38,.65-1.06,1.03-1.82,1.03-.38,0-.75-.1-1.08-.3-.48-.29-.83-.75-.96-1.29-.14-.55-.06-1.12,.23-1.6Zm12.6,22.36c-.49,.42-1.02,.51-1.37,.51-.62,0-1.21-.27-1.61-.73-.76-.88-.65-2.22,.23-2.98,.49-.42,1.02-.51,1.37-.51,.62,0,1.2,.27,1.61,.74,.37,.43,.55,.98,.5,1.54-.04,.56-.3,1.07-.73,1.44Z"/><path d="M79.36,48.43c.07,.02,.14,.03,.21,.05-.07-.01-.14-.03-.21-.05Z"/><path class="g" d="M101.3,36.03c-.36-1.6-1.32-2.96-2.71-3.84-.98-.62-2.11-.94-3.26-.94-2.12,0-4.05,1.07-5.17,2.85-1.35,2.14-1.22,4.8,.14,6.76-3.65,4.12-8.71,4.31-9.94,4.29-3.69-1.6-7.23-2.16-10-2.32v4c2.44,.14,5.55,.69,8.75,2.14h.01c3.45,1.57,6.33,3.93,8.61,7.05-.14,.17-.26,.35-.38,.54-1.8,2.85-.94,6.64,1.9,8.44,.98,.62,2.11,.95,3.27,.95,2.11,0,4.05-1.07,5.18-2.85,1.81-2.85,.95-6.64-1.91-8.45-1.38-.87-3.09-1.11-4.67-.75-1.54-2.15-3.32-4.02-5.34-5.57,2.52-.78,5.4-2.27,7.78-5.1,.57,.17,1.17,.27,1.77,.27,2.12,0,4.05-1.07,5.17-2.85,.88-1.38,1.16-3.01,.8-4.6Zm-10.57,22.65c.17-.27,.39-.49,.67-.66,.33-.21,.72-.32,1.12-.32s.79,.11,1.12,.32c.99,.63,1.28,1.94,.66,2.92-.39,.62-1.06,.99-1.79,.99-.4,0-.79-.11-1.12-.33-.98-.62-1.28-1.94-.66-2.92Zm6.38-20.19c-.6,.95-1.94,1.27-2.91,.65l-.1-.06c-.91-.65-1.16-1.9-.56-2.85,.39-.61,1.05-.98,1.78-.98,.4,0,.79,.11,1.12,.33,.48,.3,.81,.78,.94,1.33,.12,.55,.03,1.11-.28,1.58Z"/><path class="g" d="M110,77.01c.42,1.04,1.14,1.96,2.11,2.65,.07,.05,.15,.11,.28,.19,.98,.62,2.11,.95,3.27,.95,2.12,0,4.05-1.07,5.17-2.85,.88-1.38,1.16-3.01,.8-4.6-.36-1.6-1.32-2.96-2.71-3.84-.98-.62-2.11-.94-3.27-.94-.12,0-.25,0-.38,.02-.71-3.16-.92-7.77,.04-11.26,.11,.01,.22,.02,.34,.02,2.12,0,4.05-1.07,5.17-2.85,.88-1.38,1.16-3.01,.8-4.6-.36-1.6-1.32-2.96-2.71-3.84-.98-.62-2.11-.94-3.27-.94-2.11,0-4.05,1.07-5.17,2.85-1.6,2.53-1.12,5.8,1.02,7.76,.02,.02,.05,.04,.07,.06-1.35,4.52-1.15,10.32-.04,14.42-.14,.13-.29,.25-.43,.4-.23,.25-.45,.53-.63,.82-.32,.5-.55,1.03-.71,1.58-3.37,.49-5.2,1.67-6.82,2.73-2.04,1.32-3.96,2.57-9.64,2.67-1.96-.23-3.55-.18-5.29-.12-1.43,.05-2.91,.11-4.85,0-1.33-.07-2.1-.88-3.46-2.42-1.8-2.05-4.22-4.65-9.37-5.02v4c3.29,.3,4.8,1.89,6.36,3.67,1.49,1.69,3.17,3.62,6.26,3.78,2.12,.11,3.76,.05,5.21,0,2.49-.09,4.45-.16,7.86,.68,2.61,.64,12.1,9.67,14.77,14.32-.11,.14-.22,.28-.31,.43-1.74,2.75-1.03,6.38,1.62,8.25,.07,.05,.15,.1,.28,.19,.98,.62,2.11,.95,3.27,.95,2.12,0,4.05-1.07,5.17-2.85,.88-1.37,1.16-3.01,.8-4.6-.36-1.6-1.32-2.96-2.71-3.84-.98-.62-2.11-.94-3.27-.94-.53,0-1.05,.07-1.54,.2-2.56-4.19-8.65-10.46-13.19-13.79,1.81-.63,3.05-1.43,4.21-2.19,1.43-.93,2.61-1.69,4.86-2.07Zm3.88-26.92c.39-.61,1.05-.98,1.78-.98,.4,0,.79,.11,1.12,.33,.48,.3,.81,.78,.94,1.33,.12,.55,.02,1.11-.28,1.58-.6,.95-1.94,1.27-2.91,.65l-.09-.06c-.92-.65-1.16-1.9-.56-2.85Zm0,23.46c.39-.61,1.05-.98,1.78-.98,.4,0,.79,.11,1.12,.33,.48,.3,.81,.77,.94,1.33,.12,.55,.02,1.11-.28,1.58-.6,.95-1.94,1.27-2.91,.65l-.09-.06c-.92-.65-1.16-1.9-.56-2.85Zm0,26.3c.39-.61,1.05-.98,1.78-.98,.4,0,.79,.11,1.12,.33,.48,.3,.81,.78,.94,1.33,.12,.55,.02,1.11-.28,1.58-.6,.95-1.94,1.27-2.91,.65l-.09-.06c-.92-.65-1.16-1.9-.56-2.85Z"/></g><g><path class="e" d="M103.53,108.93c-1.17-1.36-2.86-2.14-4.65-2.14-1.46,0-2.88,.53-3.98,1.48-1.61,1.38-2.33,3.43-2.09,5.4-1.95,.7-4.26,1.37-5.33,1.33-.82-.04-1.3-.35-2.22-.97-1.17-.79-2.42-1.51-4.15-1.85,2.94-2.76,6.01-6.83,8.58-12.83,2.06-.08,3.98-1.19,5.04-2.97,1.72-2.9,.77-6.66-2.12-8.39-.95-.57-2.03-.86-3.13-.86-2.15,0-4.16,1.14-5.26,2.99-.84,1.41-1.08,3.05-.68,4.64,.35,1.39,1.16,2.59,2.3,3.43-4.05,9.22-9.22,13.08-12.57,14.68-.13,.04-.25,.1-.36,.17-1.19,.53-2.05,.7-2.56,.81v4c.28-.03,1.88-.12,4.25-1.19,5.35-1.36,6.84-.35,8.41,.71,1.02,.69,2.29,1.55,4.26,1.66,.1,0,.2,0,.31,0,2.11,0,5.17-1.02,7.02-1.72,1.14,1.12,2.68,1.75,4.29,1.75h0c1.46,0,2.88-.52,3.98-1.48,1.24-1.06,1.99-2.55,2.12-4.18,.12-1.63-.39-3.21-1.46-4.45Zm-15.87-16.78c.39-.64,1.07-1.03,1.82-1.03,.38,0,.75,.1,1.08,.3,1,.6,1.33,1.9,.74,2.9-.38,.65-1.06,1.03-1.82,1.03-.38,0-.75-.1-1.08-.3-.48-.29-.83-.75-.96-1.29-.14-.55-.06-1.12,.23-1.6Zm12.6,22.36c-.49,.42-1.02,.51-1.37,.51-.62,0-1.21-.27-1.61-.73-.76-.88-.65-2.22,.23-2.98,.49-.42,1.02-.51,1.37-.51,.62,0,1.2,.27,1.61,.74,.37,.43,.55,.98,.5,1.54-.04,.56-.3,1.07-.73,1.44Z"/><path class="e" d="M79.36,46.03c.07,.02,.14,.03,.21,.05-.07-.01-.14-.03-.21-.05Z"/><path class="e" d="M101.3,33.03c-.36-1.6-1.32-2.96-2.71-3.84-.98-.62-2.11-.94-3.26-.94-2.12,0-4.05,1.07-5.17,2.85-1.35,2.14-1.22,4.8,.14,6.76-3.65,4.12-8.71,4.31-9.94,4.29-3.69-1.6-7.23-2.16-10-2.32v4c2.44,.14,5.55,.69,8.75,2.14h.01c3.45,1.57,6.33,3.93,8.61,7.05-.14,.17-.26,.35-.38,.54-1.8,2.85-.94,6.64,1.9,8.44,.98,.62,2.11,.95,3.27,.95,2.11,0,4.05-1.07,5.18-2.85,1.81-2.85,.95-6.64-1.91-8.45-1.38-.87-3.09-1.11-4.67-.75-1.54-2.15-3.32-4.02-5.34-5.57,2.52-.78,5.4-2.27,7.78-5.1,.57,.17,1.17,.27,1.77,.27,2.12,0,4.05-1.07,5.17-2.85,.88-1.38,1.16-3.01,.8-4.6Zm-10.57,22.65c.17-.27,.39-.49,.67-.66,.33-.21,.72-.32,1.12-.32s.79,.11,1.12,.32c.99,.63,1.28,1.94,.66,2.92-.39,.62-1.06,.99-1.79,.99-.4,0-.79-.11-1.12-.33-.98-.62-1.28-1.94-.66-2.92Zm6.38-20.19c-.6,.95-1.94,1.27-2.91,.65l-.1-.06c-.91-.65-1.16-1.9-.56-2.85,.39-.61,1.05-.98,1.78-.98,.4,0,.79,.11,1.12,.33,.48,.3,.81,.78,.94,1.33,.12,.55,.03,1.11-.28,1.58Z"/><path class="e" d="M110,74.01c.42,1.04,1.14,1.96,2.11,2.65,.07,.05,.15,.11,.28,.19,.98,.62,2.11,.95,3.27,.95,2.12,0,4.05-1.07,5.17-2.85,.88-1.38,1.16-3.01,.8-4.6-.36-1.6-1.32-2.96-2.71-3.84-.98-.62-2.11-.94-3.27-.94-.12,0-.25,0-.38,.02-.71-3.16-.92-7.77,.04-11.26,.11,.01,.22,.02,.34,.02,2.12,0,4.05-1.07,5.17-2.85,.88-1.38,1.16-3.01,.8-4.6-.36-1.6-1.32-2.96-2.71-3.84-.98-.62-2.11-.94-3.27-.94-2.11,0-4.05,1.07-5.17,2.85-1.6,2.53-1.12,5.8,1.02,7.76,.02,.02,.05,.04,.07,.06-1.35,4.52-1.15,10.32-.04,14.42-.14,.13-.29,.25-.43,.4-.23,.25-.45,.53-.63,.82-.32,.5-.55,1.03-.71,1.58-3.37,.49-5.2,1.67-6.82,2.73-2.04,1.32-3.96,2.57-9.64,2.67-1.96-.23-3.55-.18-5.29-.12-1.43,.05-2.91,.11-4.85,0-1.33-.07-2.1-.88-3.46-2.42-1.8-2.05-4.22-4.65-9.37-5.02v4c3.29,.3,4.8,1.89,6.36,3.67,1.49,1.69,3.17,3.62,6.26,3.78,2.12,.11,3.76,.05,5.21,0,2.49-.09,4.45-.16,7.86,.68,2.61,.64,12.1,9.67,14.77,14.32-.11,.14-.22,.28-.31,.43-1.74,2.75-1.03,6.38,1.62,8.25,.07,.05,.15,.1,.28,.19,.98,.62,2.11,.95,3.27,.95,2.12,0,4.05-1.07,5.17-2.85,.88-1.37,1.16-3.01,.8-4.6-.36-1.6-1.32-2.96-2.71-3.84-.98-.62-2.11-.94-3.27-.94-.53,0-1.05,.07-1.54,.2-2.56-4.19-8.65-10.46-13.19-13.79,1.81-.63,3.05-1.43,4.21-2.19,1.43-.93,2.61-1.69,4.86-2.07Zm3.88-26.92c.39-.61,1.05-.98,1.78-.98,.4,0,.79,.11,1.12,.33,.48,.3,.81,.78,.94,1.33,.12,.55,.02,1.11-.28,1.58-.6,.95-1.94,1.27-2.91,.65l-.09-.06c-.92-.65-1.16-1.9-.56-2.85Zm0,23.46c.39-.61,1.05-.98,1.78-.98,.4,0,.79,.11,1.12,.33,.48,.3,.81,.77,.94,1.33,.12,.55,.02,1.11-.28,1.58-.6,.95-1.94,1.27-2.91,.65l-.09-.06c-.92-.65-1.16-1.9-.56-2.85Zm0,26.3c.39-.61,1.05-.98,1.78-.98,.4,0,.79,.11,1.12,.33,.48,.3,.81,.78,.94,1.33,.12,.55,.02,1.11-.28,1.58-.6,.95-1.94,1.27-2.91,.65l-.09-.06c-.92-.65-1.16-1.9-.56-2.85Z"/></g></g></g><g><g><polygon class="f" points="17.45 105.91 24.89 104.43 24.89 58.53 17.45 57.05 17.45 105.91"/><path class="f" d="M17.45,105.91V57.05l7.44,1.48v-2.62l-8.35-1.85c-.06-.01-.12-.02-.18-.01-.06,0-.12,.02-.17,.04-.05,.02-.11,.06-.16,.1-.05,.04-.1,.09-.14,.15-.04,.05-.08,.12-.12,.19-.03,.07-.06,.14-.09,.23-.02,.08-.04,.17-.05,.25-.01,.09-.02,.18-.02,.27v52.42c0,.09,0,.18,.02,.27,.01,.09,.03,.17,.05,.25,.02,.08,.05,.16,.09,.23,.03,.07,.07,.13,.12,.19,.04,.05,.09,.1,.14,.14,.05,.04,.1,.07,.16,.09,.06,.02,.11,.04,.17,.04,.06,0,.12,0,.18-.01l8.35-1.85v-2.62l-7.44,1.48Z"/><polygon class="f" points="27.68 111.37 37.35 109.74 37.35 53.24 27.68 51.6 27.68 111.37"/><path class="f" d="M27.68,111.37V51.6l9.67,1.64v-3.23l-7.26-1.37-3.8-.71c-.09-.02-.18-.02-.27-.02-.09,0-.18,.02-.26,.05-.08,.03-.17,.07-.24,.11-.08,.05-.15,.11-.21,.18-.07,.07-.12,.15-.17,.23-.05,.08-.09,.18-.13,.27-.04,.1-.06,.2-.08,.31-.02,.11-.03,.22-.03,.33V113.58c0,.11,0,.23,.03,.33,.02,.11,.05,.21,.08,.31,.04,.1,.08,.19,.13,.28,.05,.08,.11,.16,.17,.23s.14,.13,.21,.18c.08,.05,.16,.09,.24,.11,.08,.03,.17,.04,.26,.05,.09,0,.18,0,.27-.02l3.8-.71,7.26-1.37v-3.23l-9.67,1.64Z"/><rect class="f" x="41.4" y="46.47" width="23.96" height="70.03"/><path class="f" d="M37.35,44.45V118.52c0,1.12,.91,2.02,2.02,2.02h25.98v-4.05h-23.96V46.47h23.96v-4.05h-25.98c-1.12,0-2.02,.91-2.02,2.02Z"/></g><g><polygon class="b" points="17.45 102.91 24.89 101.43 24.89 55.53 17.45 54.05 17.45 102.91"/><path class="e" d="M17.45,102.91V54.05l7.44,1.48v-2.62l-8.35-1.85c-.06-.01-.12-.02-.18-.01-.06,0-.12,.02-.17,.04-.05,.02-.11,.06-.16,.1-.05,.04-.1,.09-.14,.15-.04,.05-.08,.12-.12,.19-.03,.07-.06,.14-.09,.23-.02,.08-.04,.17-.05,.25-.01,.09-.02,.18-.02,.27v52.42c0,.09,0,.18,.02,.27,.01,.09,.03,.17,.05,.25,.02,.08,.05,.16,.09,.23,.03,.07,.07,.13,.12,.19,.04,.05,.09,.1,.14,.14,.05,.04,.1,.07,.16,.09,.06,.02,.11,.04,.17,.04,.06,0,.12,0,.18-.01l8.35-1.85v-2.62l-7.44,1.48Z"/><polygon class="b" points="27.68 108.37 37.35 106.74 37.35 50.24 27.68 48.6 27.68 108.37"/><path class="e" d="M27.68,108.37V48.6l9.67,1.64v-3.23l-7.26-1.37-3.8-.71c-.09-.02-.18-.02-.27-.02-.09,0-.18,.02-.26,.05-.08,.03-.17,.07-.24,.11-.08,.05-.15,.11-.21,.18-.07,.07-.12,.15-.17,.23-.05,.08-.09,.18-.13,.27-.04,.1-.06,.2-.08,.31-.02,.11-.03,.22-.03,.33V110.58c0,.11,0,.23,.03,.33,.02,.11,.05,.21,.08,.31,.04,.1,.08,.19,.13,.28,.05,.08,.11,.16,.17,.23s.14,.13,.21,.18c.08,.05,.16,.09,.24,.11,.08,.03,.17,.04,.26,.05,.09,0,.18,0,.27-.02l3.8-.71,7.26-1.37v-3.23l-9.67,1.64Z"/><rect class="h" x="41.4" y="43.47" width="23.96" height="70.03"/><path class="e" d="M37.35,41.45V115.52c0,1.12,.91,2.02,2.02,2.02h25.98v-4.05h-23.96V43.47h23.96v-4.05h-25.98c-1.12,0-2.02,.91-2.02,2.02Z"/></g></g></g><g><path class="b" d="M199.76,84.29c-.18,3.81-1.2,7.17-3.08,10.09s-4.52,5.18-7.91,6.79c-3.4,1.6-7.28,2.41-11.64,2.41-7.19,0-12.86-2.34-16.99-7.03-4.14-4.69-6.2-11.3-6.2-19.85v-2.71c0-5.36,.93-10.06,2.8-14.08,1.87-4.02,4.55-7.13,8.06-9.32,3.51-2.19,7.57-3.29,12.18-3.29,6.64,0,11.98,1.75,16.02,5.24,4.04,3.5,6.33,8.32,6.88,14.46h-13.16c-.1-3.33-.94-5.73-2.52-7.18-1.58-1.45-3.99-2.18-7.22-2.18s-5.69,1.23-7.22,3.68c-1.53,2.46-2.33,6.38-2.41,11.77v3.87c0,5.84,.73,10.01,2.2,12.52,1.47,2.51,3.99,3.76,7.58,3.76,3.03,0,5.35-.71,6.96-2.14,1.6-1.43,2.46-3.7,2.56-6.8h13.12Z"/><path class="b" d="M203.82,82.11c0-4.06,.79-7.68,2.37-10.85,1.58-3.17,3.85-5.61,6.8-7.31,2.96-1.7,6.43-2.56,10.41-2.56,6.09,0,10.89,1.89,14.4,5.66,3.51,3.77,5.26,8.91,5.26,15.4v.45c0,6.34-1.76,11.37-5.28,15.1-3.52,3.72-8.29,5.58-14.31,5.58s-10.44-1.74-13.95-5.21c-3.51-3.47-5.4-8.18-5.68-14.12l-.04-2.14Zm12.67,.79c0,3.76,.59,6.52,1.77,8.27,1.18,1.75,2.92,2.63,5.23,2.63,4.51,0,6.82-3.47,6.92-10.41v-1.28c0-7.29-2.33-10.94-6.99-10.94-4.24,0-6.53,3.15-6.88,9.44l-.04,2.29Z"/><path class="b" d="M264.31,87.75l6.43-25.6h13.35l-13.27,40.68h-12.93l-13.27-40.68h13.38l6.32,25.6Z"/><path class="b" d="M307.06,103.58c-6.24,0-11.29-1.86-15.15-5.58-3.86-3.72-5.79-8.57-5.79-14.53v-1.05c0-4.16,.77-7.83,2.31-11.02,1.54-3.18,3.79-5.65,6.75-7.39,2.96-1.74,6.47-2.61,10.53-2.61,5.71,0,10.23,1.77,13.54,5.32s4.96,8.49,4.96,14.83v4.92h-25.19c.45,2.28,1.44,4.07,2.97,5.38,1.53,1.3,3.51,1.96,5.94,1.96,4.01,0,7.14-1.4,9.4-4.21l5.79,6.84c-1.58,2.18-3.82,3.92-6.71,5.21-2.89,1.29-6.01,1.94-9.34,1.94Zm-1.43-32.41c-3.71,0-5.92,2.46-6.62,7.37h12.78v-.98c.05-2.03-.46-3.6-1.54-4.72-1.08-1.12-2.62-1.67-4.62-1.67Z"/><path class="b" d="M353.91,73.61l-4.17-.3c-3.99,0-6.54,1.25-7.67,3.76v25.75h-12.67V62.14h11.88l.41,5.23c2.13-3.98,5.1-5.98,8.91-5.98,1.35,0,2.53,.15,3.54,.45l-.23,11.77Z"/><path class="b" d="M409.33,92.6h-18.08l-3.16,10.23h-14.1l20.08-54.74h12.41l20.23,54.74h-14.17l-3.2-10.23Zm-14.93-10.19h11.77l-5.9-18.99-5.87,18.99Z"/><path class="b" d="M454.71,73.61l-4.17-.3c-3.99,0-6.54,1.25-7.67,3.76v25.75h-12.67V62.14h11.88l.41,5.23c2.13-3.98,5.1-5.98,8.91-5.98,1.35,0,2.53,.15,3.54,.45l-.23,11.77Z"/><path class="b" d="M475.91,52.03v10.11h6.69v8.8h-6.69v18.61c0,1.53,.28,2.59,.83,3.2,.55,.6,1.64,.9,3.27,.9,1.25,0,2.31-.08,3.16-.23v9.06c-2.28,.73-4.66,1.09-7.14,1.09-4.36,0-7.58-1.03-9.66-3.08-2.08-2.05-3.12-5.18-3.12-9.36v-20.19h-5.19v-8.8h5.19v-10.11h12.67Z"/><path class="i" d="M538.44,92.6h-18.08l-3.16,10.23h-14.1l20.08-54.74h12.41l20.23,54.74h-14.17l-3.2-10.23Zm-14.93-10.19h11.77l-5.9-18.99-5.87,18.99Z"/><path class="i" d="M583.82,73.61l-4.17-.3c-3.99,0-6.54,1.25-7.67,3.76v25.75h-12.67V62.14h11.88l.41,5.23c2.13-3.98,5.1-5.98,8.91-5.98,1.35,0,2.53,.15,3.54,.45l-.23,11.77Z"/><path class="i" d="M604.87,93.8c1.78,0,3.16-.48,4.14-1.45s1.45-2.31,1.43-4.04h11.88c0,4.46-1.6,8.12-4.79,10.98-3.2,2.86-7.31,4.29-12.35,4.29-5.92,0-10.58-1.85-13.99-5.56-3.41-3.71-5.11-8.85-5.11-15.42v-.53c0-4.11,.76-7.74,2.27-10.88,1.52-3.15,3.7-5.56,6.56-7.26,2.86-1.69,6.24-2.54,10.15-2.54,5.29,0,9.49,1.47,12.6,4.4,3.11,2.93,4.66,6.91,4.66,11.92h-11.88c0-2.11-.51-3.72-1.54-4.85-1.03-1.13-2.41-1.69-4.14-1.69-3.28,0-5.2,2.09-5.75,6.28-.18,1.33-.26,3.16-.26,5.49,0,4.08,.49,6.92,1.47,8.5,.98,1.58,2.53,2.37,4.66,2.37Z"/><path class="i" d="M640.07,66.5c2.71-3.41,6.17-5.11,10.38-5.11,4.49,0,7.87,1.33,10.15,3.99,2.28,2.66,3.45,6.58,3.5,11.77v25.68h-12.71v-25.38c0-2.16-.44-3.74-1.32-4.76-.88-1.01-2.37-1.52-4.47-1.52-2.61,0-4.45,.83-5.53,2.48v29.18h-12.67V45.07h12.67v21.43Z"/><path class="i" d="M671.05,51.62c0-1.82,.65-3.3,1.96-4.46,1.3-1.16,3-1.74,5.08-1.74s3.77,.58,5.08,1.74c1.3,1.16,1.96,2.65,1.96,4.46s-.65,3.3-1.96,4.46c-1.3,1.16-3,1.74-5.08,1.74s-3.77-.58-5.08-1.74c-1.3-1.16-1.96-2.65-1.96-4.46Zm13.46,51.21h-12.71V62.14h12.71v40.68Z"/><path class="i" d="M708.53,87.75l6.43-25.6h13.35l-13.27,40.68h-12.93l-13.27-40.68h13.38l6.32,25.6Z"/><path class="i" d="M751.28,103.58c-6.24,0-11.29-1.86-15.15-5.58-3.86-3.72-5.79-8.57-5.79-14.53v-1.05c0-4.16,.77-7.83,2.31-11.02,1.54-3.18,3.79-5.65,6.75-7.39,2.96-1.74,6.47-2.61,10.53-2.61,5.71,0,10.23,1.77,13.54,5.32s4.96,8.49,4.96,14.83v4.92h-25.19c.45,2.28,1.44,4.07,2.97,5.38,1.53,1.3,3.51,1.96,5.94,1.96,4.01,0,7.14-1.4,9.4-4.21l5.79,6.84c-1.58,2.18-3.82,3.92-6.71,5.21-2.89,1.29-6.01,1.94-9.34,1.94Zm-1.43-32.41c-3.71,0-5.92,2.46-6.62,7.37h12.78v-.98c.05-2.03-.46-3.6-1.54-4.72-1.08-1.12-2.62-1.67-4.62-1.67Z"/></g></g></g></g></svg>