<?xml version="1.0" encoding="UTF-8"?><svg id="a" xmlns="http://www.w3.org/2000/svg" viewBox="0 0 291.83 30"><defs><style>.b{fill:#20656c;}.c{fill:#eb743b;}</style></defs><g><polygon class="b" points="14 1 2 8 2 22 14 29 14 1"/><polygon class="c" points="15 1 27 8 27 22 15 29 15 1"/></g><g><path class="b" d="M54.1,19.31c-.07,1.58-.5,2.98-1.28,4.19s-1.88,2.15-3.29,2.82c-1.41,.67-3.02,1-4.83,1-2.99,0-5.34-.97-7.05-2.92-1.72-1.95-2.58-4.69-2.58-8.24v-1.12c0-2.23,.39-4.17,1.16-5.84,.78-1.67,1.89-2.96,3.35-3.87,1.46-.91,3.14-1.37,5.06-1.37,2.76,0,4.97,.73,6.65,2.18,1.67,1.45,2.63,3.45,2.86,6h-5.46c-.04-1.38-.39-2.38-1.05-2.98s-1.65-.91-3-.91-2.36,.51-3,1.53-.97,2.65-1,4.88v1.61c0,2.42,.3,4.16,.91,5.2,.61,1.04,1.66,1.56,3.14,1.56,1.26,0,2.22-.3,2.89-.89,.67-.59,1.02-1.54,1.06-2.83h5.45Z"/><path class="b" d="M55.79,18.4c0-1.69,.33-3.19,.98-4.5,.66-1.32,1.6-2.33,2.83-3.04,1.23-.71,2.67-1.06,4.32-1.06,2.53,0,4.52,.78,5.98,2.35,1.46,1.57,2.18,3.7,2.18,6.39v.19c0,2.63-.73,4.72-2.19,6.27-1.46,1.55-3.44,2.32-5.94,2.32s-4.33-.72-5.79-2.16c-1.46-1.44-2.24-3.39-2.36-5.86l-.02-.89Zm5.26,.33c0,1.56,.24,2.71,.73,3.43s1.21,1.09,2.17,1.09c1.87,0,2.83-1.44,2.87-4.32v-.53c0-3.03-.97-4.54-2.9-4.54-1.76,0-2.71,1.31-2.86,3.92l-.02,.95Z"/><path class="b" d="M80.9,20.74l2.67-10.63h5.54l-5.51,16.89h-5.37l-5.51-16.89h5.56l2.62,10.63Z"/><path class="b" d="M98.65,27.31c-2.59,0-4.69-.77-6.29-2.32-1.6-1.54-2.4-3.56-2.4-6.03v-.44c0-1.73,.32-3.25,.96-4.57s1.57-2.34,2.8-3.07c1.23-.72,2.68-1.08,4.37-1.08,2.37,0,4.25,.74,5.62,2.21,1.37,1.47,2.06,3.52,2.06,6.16v2.04h-10.46c.19,.95,.6,1.69,1.23,2.23s1.46,.81,2.47,.81c1.67,0,2.97-.58,3.9-1.75l2.4,2.84c-.66,.91-1.58,1.63-2.79,2.16-1.2,.54-2.49,.8-3.88,.8Zm-.59-13.45c-1.54,0-2.46,1.02-2.75,3.06h5.31v-.41c.02-.84-.19-1.5-.64-1.96s-1.09-.7-1.92-.7Z"/><path class="b" d="M118.09,14.87l-1.73-.12c-1.65,0-2.71,.52-3.18,1.56v10.69h-5.26V10.11h4.93l.17,2.17c.88-1.65,2.12-2.48,3.7-2.48,.56,0,1.05,.06,1.47,.19l-.09,4.88Z"/><path class="b" d="M141.1,22.75h-7.51l-1.31,4.25h-5.85l8.33-22.72h5.15l8.4,22.72h-5.88l-1.33-4.25Zm-6.2-4.23h4.88l-2.45-7.88-2.43,7.88Z"/><path class="b" d="M159.93,14.87l-1.73-.12c-1.65,0-2.71,.52-3.18,1.56v10.69h-5.26V10.11h4.93l.17,2.17c.88-1.65,2.12-2.48,3.7-2.48,.56,0,1.05,.06,1.47,.19l-.09,4.88Z"/><path class="b" d="M168.74,5.92v4.2h2.78v3.65h-2.78v7.73c0,.63,.11,1.08,.34,1.33,.23,.25,.68,.37,1.36,.37,.52,0,.96-.03,1.31-.09v3.76c-.95,.3-1.94,.45-2.97,.45-1.81,0-3.15-.43-4.01-1.28-.86-.85-1.3-2.15-1.3-3.89V13.76h-2.15v-3.65h2.15V5.92h5.26Z"/><path class="c" d="M194.69,22.75h-7.51l-1.31,4.25h-5.85l8.33-22.72h5.15l8.4,22.72h-5.88l-1.33-4.25Zm-6.2-4.23h4.88l-2.45-7.88-2.43,7.88Z"/><path class="c" d="M213.53,14.87l-1.73-.12c-1.65,0-2.71,.52-3.18,1.56v10.69h-5.26V10.11h4.93l.17,2.17c.88-1.65,2.12-2.48,3.7-2.48,.56,0,1.05,.06,1.47,.19l-.09,4.88Z"/><path class="c" d="M222.27,23.25c.74,0,1.31-.2,1.72-.6,.41-.4,.6-.96,.59-1.68h4.93c0,1.85-.66,3.37-1.99,4.56-1.33,1.19-3.04,1.78-5.13,1.78-2.46,0-4.39-.77-5.81-2.31-1.42-1.54-2.12-3.67-2.12-6.4v-.22c0-1.71,.31-3.21,.94-4.52,.63-1.31,1.54-2.31,2.72-3.01,1.19-.7,2.59-1.05,4.21-1.05,2.2,0,3.94,.61,5.23,1.83,1.29,1.22,1.93,2.87,1.93,4.95h-4.93c0-.87-.21-1.54-.64-2.01-.43-.47-1-.7-1.72-.7-1.36,0-2.16,.87-2.39,2.61-.07,.55-.11,1.31-.11,2.28,0,1.7,.2,2.87,.61,3.53,.41,.66,1.05,.98,1.94,.98Z"/><path class="c" d="M236.88,11.92c1.12-1.42,2.56-2.12,4.31-2.12,1.86,0,3.27,.55,4.21,1.65,.95,1.1,1.43,2.73,1.45,4.88v10.66h-5.28v-10.54c0-.89-.18-1.55-.55-1.97-.36-.42-.98-.63-1.86-.63-1.08,0-1.85,.34-2.29,1.03v12.11h-5.26V3.03h5.26V11.92Z"/><path class="c" d="M249.74,5.74c0-.75,.27-1.37,.81-1.85,.54-.48,1.24-.72,2.11-.72s1.57,.24,2.11,.72c.54,.48,.81,1.1,.81,1.85s-.27,1.37-.81,1.85-1.24,.72-2.11,.72-1.57-.24-2.11-.72-.81-1.1-.81-1.85Zm5.59,21.26h-5.28V10.11h5.28V27Z"/><path class="c" d="M265.3,20.74l2.67-10.63h5.54l-5.51,16.89h-5.37l-5.51-16.89h5.56l2.62,10.63Z"/><path class="c" d="M283.04,27.31c-2.59,0-4.69-.77-6.29-2.32-1.6-1.54-2.4-3.56-2.4-6.03v-.44c0-1.73,.32-3.25,.96-4.57s1.57-2.34,2.8-3.07c1.23-.72,2.68-1.08,4.37-1.08,2.37,0,4.25,.74,5.62,2.21,1.37,1.47,2.06,3.52,2.06,6.16v2.04h-10.46c.19,.95,.6,1.69,1.23,2.23s1.46,.81,2.47,.81c1.67,0,2.97-.58,3.9-1.75l2.4,2.84c-.66,.91-1.58,1.63-2.79,2.16-1.2,.54-2.49,.8-3.88,.8Zm-.59-13.45c-1.54,0-2.46,1.02-2.75,3.06h5.31v-.41c.02-.84-.19-1.5-.64-1.96s-1.09-.7-1.92-.7Z"/></g></svg>