<?xml version="1.0" encoding="UTF-8"?><svg id="a" xmlns="http://www.w3.org/2000/svg" viewBox="0 0 670.47 100"><defs><style>.b{fill:#20656c;}.c{fill:#fffedb;}.d{fill:#579ca0;}.e{fill:#eb743b;}</style></defs><g><path class="b" d="M144.55,56.77c-.16,3.51-1.11,6.6-2.84,9.29-1.73,2.69-4.16,4.77-7.28,6.24s-6.69,2.21-10.71,2.21c-6.62,0-11.83-2.16-15.63-6.47-3.8-4.31-5.71-10.4-5.71-18.26v-2.49c0-4.93,.86-9.25,2.58-12.95,1.72-3.7,4.19-6.56,7.42-8.58,3.23-2.02,6.96-3.03,11.21-3.03,6.11,0,11.02,1.61,14.74,4.83,3.71,3.22,5.82,7.65,6.33,13.3h-12.11c-.09-3.07-.87-5.27-2.32-6.61-1.45-1.34-3.67-2.01-6.64-2.01s-5.23,1.13-6.64,3.39c-1.41,2.26-2.14,5.87-2.21,10.83v3.56c0,5.37,.67,9.21,2.02,11.52,1.35,2.31,3.67,3.46,6.97,3.46,2.79,0,4.92-.66,6.4-1.97s2.26-3.4,2.35-6.26h12.07Z"/><path class="b" d="M148.29,54.76c0-3.74,.73-7.06,2.18-9.98,1.45-2.92,3.54-5.16,6.26-6.73,2.72-1.57,5.92-2.35,9.58-2.35,5.6,0,10.02,1.74,13.25,5.21,3.23,3.47,4.84,8.19,4.84,14.17v.42c0,5.83-1.62,10.46-4.86,13.89-3.24,3.42-7.63,5.14-13.16,5.14s-9.6-1.6-12.83-4.79c-3.23-3.19-4.97-7.52-5.22-12.99l-.03-1.97Zm11.66,.73c0,3.46,.54,6,1.63,7.61s2.69,2.42,4.81,2.42c4.15,0,6.27-3.19,6.36-9.58v-1.18c0-6.71-2.14-10.07-6.43-10.07-3.9,0-6.01,2.89-6.33,8.68l-.04,2.11Z"/><path class="b" d="M203.94,59.95l5.91-23.56h12.28l-12.21,37.43h-11.9l-12.21-37.43h12.31l5.81,23.56Z"/><path class="b" d="M243.27,74.51c-5.74,0-10.39-1.71-13.94-5.14-3.55-3.42-5.33-7.88-5.33-13.37v-.97c0-3.83,.71-7.21,2.13-10.13,1.42-2.93,3.49-5.19,6.21-6.8,2.72-1.6,5.95-2.4,9.68-2.4,5.26,0,9.41,1.63,12.45,4.89,3.04,3.26,4.57,7.81,4.57,13.65v4.53h-23.17c.42,2.1,1.33,3.75,2.73,4.95,1.41,1.2,3.23,1.8,5.46,1.8,3.69,0,6.57-1.29,8.65-3.87l5.33,6.3c-1.45,2.01-3.51,3.6-6.17,4.79s-5.53,1.78-8.6,1.78Zm-1.31-29.82c-3.41,0-5.44,2.26-6.09,6.78h11.76v-.9c.05-1.87-.43-3.31-1.42-4.34-.99-1.03-2.41-1.54-4.25-1.54Z"/><path class="b" d="M286.37,46.95l-3.84-.28c-3.67,0-6.02,1.15-7.06,3.46v23.69h-11.66V36.4h10.93l.38,4.81c1.96-3.67,4.69-5.5,8.2-5.5,1.25,0,2.33,.14,3.25,.42l-.21,10.83Z"/><path class="b" d="M337.35,64.42h-16.64l-2.91,9.41h-12.97l18.47-50.36h11.41l18.61,50.36h-13.04l-2.94-9.41Zm-13.73-9.37h10.83l-5.43-17.47-5.4,17.47Z"/><path class="b" d="M379.1,46.95l-3.84-.28c-3.67,0-6.02,1.15-7.06,3.46v23.69h-11.66V36.4h10.93l.38,4.81c1.96-3.67,4.69-5.5,8.2-5.5,1.25,0,2.33,.14,3.25,.42l-.21,10.83Z"/><path class="b" d="M398.61,27.09v9.3h6.16v8.09h-6.16v17.12c0,1.41,.25,2.39,.76,2.94,.51,.55,1.51,.83,3.01,.83,1.15,0,2.12-.07,2.91-.21v8.34c-2.1,.67-4.29,1-6.57,1-4.01,0-6.98-.95-8.89-2.84-1.91-1.89-2.87-4.76-2.87-8.61v-18.58h-4.77v-8.09h4.77v-9.3h11.66Z"/><path class="e" d="M456.13,64.42h-16.64l-2.91,9.41h-12.97l18.47-50.36h11.41l18.61,50.36h-13.04l-2.94-9.41Zm-13.73-9.37h10.83l-5.43-17.47-5.4,17.47Z"/><path class="e" d="M497.88,46.95l-3.84-.28c-3.67,0-6.02,1.15-7.06,3.46v23.69h-11.66V36.4h10.93l.38,4.81c1.96-3.67,4.69-5.5,8.2-5.5,1.25,0,2.33,.14,3.25,.42l-.21,10.83Z"/><path class="e" d="M517.25,65.52c1.64,0,2.91-.44,3.8-1.33s1.34-2.13,1.31-3.72h10.93c0,4.1-1.47,7.47-4.41,10.1-2.94,2.63-6.73,3.94-11.36,3.94-5.44,0-9.73-1.71-12.87-5.12-3.14-3.41-4.7-8.14-4.7-14.18v-.48c0-3.78,.7-7.12,2.09-10.01,1.39-2.89,3.41-5.12,6.04-6.68,2.63-1.56,5.74-2.33,9.34-2.33,4.87,0,8.73,1.35,11.59,4.05,2.86,2.7,4.29,6.35,4.29,10.96h-10.93c0-1.94-.47-3.42-1.42-4.46-.95-1.04-2.21-1.56-3.81-1.56-3.02,0-4.79,1.93-5.29,5.78-.16,1.22-.24,2.91-.24,5.05,0,3.76,.45,6.36,1.35,7.82,.9,1.45,2.33,2.18,4.29,2.18Z"/><path class="e" d="M549.63,40.41c2.49-3.14,5.67-4.7,9.55-4.7,4.13,0,7.24,1.22,9.34,3.67,2.1,2.44,3.17,6.05,3.22,10.83v23.62h-11.69v-23.35c0-1.98-.4-3.44-1.21-4.38-.81-.93-2.18-1.4-4.12-1.4-2.4,0-4.09,.76-5.08,2.28v26.84h-11.66V20.69h11.66v19.72Z"/><path class="e" d="M578.13,26.71c0-1.67,.6-3.04,1.8-4.11s2.76-1.6,4.67-1.6,3.47,.53,4.67,1.6c1.2,1.07,1.8,2.44,1.8,4.11s-.6,3.04-1.8,4.11c-1.2,1.07-2.76,1.6-4.67,1.6s-3.47-.53-4.67-1.6c-1.2-1.07-1.8-2.44-1.8-4.11Zm12.38,47.11h-11.69V36.4h11.69v37.43Z"/><path class="e" d="M612.62,59.95l5.91-23.56h12.28l-12.21,37.43h-11.9l-12.21-37.43h12.31l5.81,23.56Z"/><path class="e" d="M651.94,74.51c-5.74,0-10.39-1.71-13.94-5.14-3.55-3.42-5.33-7.88-5.33-13.37v-.97c0-3.83,.71-7.21,2.13-10.13,1.42-2.93,3.49-5.19,6.21-6.8,2.72-1.6,5.95-2.4,9.68-2.4,5.26,0,9.41,1.63,12.45,4.89,3.04,3.26,4.57,7.81,4.57,13.65v4.53h-23.17c.42,2.1,1.33,3.75,2.73,4.95,1.41,1.2,3.23,1.8,5.46,1.8,3.69,0,6.57-1.29,8.65-3.87l5.33,6.3c-1.45,2.01-3.51,3.6-6.17,4.79s-5.53,1.78-8.6,1.78Zm-1.31-29.82c-3.41,0-5.44,2.26-6.09,6.78h11.76v-.9c.05-1.87-.43-3.31-1.42-4.34-.99-1.03-2.41-1.54-4.25-1.54Z"/></g><g><polygon class="e" points="47 2 47 98 88 74 88 26 47 2"/><polygon class="b" points="44 2 3 26 3 74 44 98 44 2"/><path class="c" d="M79.28,58.09c-1.24-1.97-3.38-3.15-5.72-3.15-.67,0-1.32,.1-1.96,.29-2.63-3.12-5.82-4.78-8.6-5.64,2.24-1.71,4.21-3.77,5.91-6.15,1.74,.39,3.63,.13,5.16-.83,3.16-2.01,4.1-6.2,2.1-9.35-1.25-1.97-3.39-3.15-5.72-3.15-1.28,0-2.53,.36-3.62,1.05-3.15,1.99-4.09,6.18-2.11,9.34,.13,.21,.27,.4,.42,.6-2.51,3.44-5.71,6.06-9.52,7.79h-.01c-3.53,1.61-5.62,2.12-8.62,2.12v5c4,0,5.93-1.12,10.02-2.9,1.37-.02,6.96,.18,10.99,4.75-1.51,2.16-1.66,5.11-.16,7.47,1.24,1.97,3.38,3.15,5.72,3.15,1.28,0,2.52-.36,3.61-1.04,1.54-.97,2.6-2.48,3-4.25,.4-1.76,.08-3.57-.89-5.09Zm-10.22-23.42c.42-.27,.9-.41,1.4-.41,.9,0,1.73,.46,2.22,1.22,.77,1.21,.4,2.84-.82,3.61-.41,.26-.9,.4-1.39,.4s-.97-.13-1.39-.39c-.34-.21-.62-.49-.83-.82-.77-1.22-.41-2.85,.81-3.62Zm7.06,27.6c-.15,.69-.56,1.27-1.16,1.64-.41,.26-.9,.41-1.39,.41-.91,0-1.73-.46-2.21-1.22-.75-1.18-.44-2.73,.69-3.53l.12-.08c1.21-.77,2.87-.37,3.61,.81,.38,.59,.5,1.29,.34,1.97Z"/><g><path class="c" d="M12.06,68.73V36.15l4.96,.99v-1.75l-5.57-1.23s-.08-.01-.12,0c-.04,0-.08,.01-.12,.03-.04,.02-.07,.04-.11,.07-.03,.03-.07,.06-.09,.1-.03,.04-.05,.08-.08,.12-.02,.05-.04,.1-.06,.15s-.03,.11-.04,.17-.01,.12-.01,.18v34.95c0,.06,0,.12,.01,.18,0,.06,.02,.12,.04,.17,.02,.05,.04,.1,.06,.15,.02,.05,.05,.09,.08,.13,.03,.04,.06,.07,.09,.09,.03,.03,.07,.05,.11,.06,.04,.02,.08,.03,.12,.03,.04,0,.08,0,.12,0l5.57-1.23v-1.75l-4.96,.99Z"/><path class="c" d="M18.88,72.37V32.52l6.45,1.09v-2.15l-4.84-.91-2.53-.48c-.06-.01-.12-.02-.18-.01-.06,0-.12,.01-.17,.03-.06,.02-.11,.04-.16,.08-.05,.03-.1,.07-.14,.12-.04,.05-.08,.1-.12,.15-.03,.06-.06,.12-.09,.18-.02,.07-.04,.13-.05,.21-.01,.07-.02,.15-.02,.22v42.79c0,.08,0,.15,.02,.22,.01,.07,.03,.14,.05,.21,.02,.06,.05,.13,.09,.18,.03,.06,.07,.11,.12,.15,.04,.05,.09,.08,.14,.12,.05,.03,.1,.06,.16,.08,.06,.02,.12,.03,.17,.03,.06,0,.12,0,.18-.01l2.53-.48,4.84-.91v-2.15l-6.45,1.09Z"/><rect class="d" x="28.03" y="29.1" width="15.97" height="46.68"/><path class="c" d="M25.33,27.75v49.38c0,.74,.6,1.35,1.35,1.35h17.32v-2.7h-15.97V29.1h15.97v-2.7H26.68c-.74,0-1.35,.6-1.35,1.35Z"/></g></g></svg>