<?xml version="1.0" encoding="UTF-8"?><svg xmlns="http://www.w3.org/2000/svg" xmlns:xlink="http://www.w3.org/1999/xlink" viewBox="0 0 588.3 150"><defs><style>.c{isolation:isolate;}.d{fill:#fffedb;}.e{fill:#353070;}.f{opacity:.07;}.f,.g{mix-blend-mode:multiply;}.g{opacity:.25;}.h{clip-path:url(#b);}.i{fill:none;}.j{fill:#d3562c;}.k{fill:#eb743b;}</style><clipPath id="b"><rect class="i" x="70.35" y="28.32" width="51.43" height="90.79"/></clipPath></defs><g class="c"><g id="a"><g><polygon class="k" points="70.35 2.91 70.35 146.9 131.35 111.9 131.35 37.91 70.35 2.91"/><polygon class="e" points="65.35 2.82 4.35 37.82 4.35 111.82 65.35 146.82 65.35 2.82"/><g class="f"><g class="h"><path d="M87.66,94.64c.39-.65,1.07-1.03,1.82-1.03,.38,0,.75,.1,1.08,.3,1,.6,1.33,1.9,.74,2.9-.39,.65-1.06,1.03-1.82,1.03-.38,0-.75-.11-1.08-.3-.48-.29-.83-.75-.96-1.29-.14-.55-.06-1.12,.23-1.6m12.6,22.36c-.49,.42-1.02,.51-1.37,.51-.62,0-1.21-.27-1.61-.74-.76-.88-.66-2.22,.23-2.98,.49-.42,1.02-.51,1.37-.51,.62,0,1.2,.27,1.61,.74,.37,.43,.55,.98,.5,1.54-.04,.56-.3,1.07-.73,1.44"/><path d="M79.36,48.51c.07,.02,.14,.03,.21,.05-.07-.01-.14-.03-.21-.05"/><path d="M90.73,58.16c.17-.27,.39-.49,.67-.66,.33-.21,.72-.32,1.12-.32s.79,.11,1.12,.32c.99,.63,1.28,1.94,.66,2.92-.39,.62-1.06,.99-1.8,.99-.4,0-.78-.11-1.12-.33-.98-.63-1.28-1.94-.66-2.92m6.38-20.19c-.6,.95-1.94,1.27-2.91,.65l-.1-.06c-.91-.65-1.16-1.9-.56-2.85,.38-.61,1.05-.98,1.78-.98,.4,0,.79,.11,1.12,.33,.48,.3,.81,.77,.94,1.33,.12,.55,.03,1.1-.28,1.58"/><path d="M113.88,49.57c.39-.62,1.05-.98,1.78-.98,.4,0,.79,.11,1.12,.33,.48,.3,.81,.77,.94,1.33,.12,.55,.02,1.11-.28,1.58-.6,.95-1.94,1.27-2.91,.65l-.09-.06c-.92-.65-1.16-1.9-.56-2.85m0,23.46c.39-.61,1.05-.98,1.78-.98,.4,0,.79,.11,1.12,.33,.48,.3,.81,.77,.94,1.33,.12,.55,.02,1.11-.28,1.58-.6,.95-1.94,1.27-2.91,.65l-.09-.06c-.92-.65-1.16-1.9-.56-2.85m0,26.3c.39-.61,1.05-.98,1.78-.98,.4,0,.79,.11,1.12,.33,.48,.3,.81,.77,.94,1.33,.12,.55,.02,1.11-.28,1.58-.6,.95-1.94,1.27-2.91,.65l-.09-.06c-.92-.65-1.16-1.9-.56-2.85"/><path d="M103.53,109.01c-1.16-1.36-2.86-2.14-4.65-2.14-1.46,0-2.88,.53-3.98,1.48-1.61,1.38-2.33,3.43-2.09,5.4-1.95,.7-4.26,1.37-5.33,1.33-.82-.04-1.3-.34-2.22-.97-1.17-.79-2.42-1.51-4.15-1.85,2.94-2.76,6.01-6.83,8.58-12.83,2.06-.08,3.98-1.19,5.04-2.97,1.72-2.9,.77-6.66-2.12-8.39-.95-.57-2.03-.86-3.13-.86-2.15,0-4.16,1.14-5.26,2.99-.84,1.41-1.08,3.05-.68,4.64,.35,1.39,1.16,2.59,2.3,3.43-4.05,9.22-9.22,13.08-12.56,14.68-.13,.04-.25,.1-.36,.17-1.19,.53-2.05,.71-2.56,.81v4c.27-.03,1.88-.12,4.25-1.19,5.35-1.36,6.84-.35,8.41,.71,1.02,.69,2.29,1.55,4.26,1.66,.1,0,.2,0,.31,0,2.11,0,5.17-1.02,7.02-1.72,1.14,1.12,2.68,1.75,4.29,1.75,1.46,0,2.88-.53,3.98-1.48,1.24-1.06,1.99-2.55,2.12-4.18,.12-1.63-.39-3.21-1.46-4.45m-15.87-16.78c.39-.65,1.07-1.03,1.82-1.03,.38,0,.75,.11,1.08,.3,1,.6,1.33,1.9,.74,2.9-.39,.65-1.06,1.03-1.82,1.03-.38,0-.75-.11-1.08-.3-.48-.29-.83-.75-.96-1.29-.14-.55-.06-1.12,.23-1.6m12.6,22.36c-.49,.42-1.02,.51-1.37,.51-.62,0-1.21-.27-1.61-.73-.76-.88-.66-2.22,.23-2.98,.49-.42,1.02-.51,1.37-.51,.62,0,1.2,.27,1.61,.74,.37,.43,.55,.98,.5,1.54s-.3,1.07-.73,1.44"/><path d="M79.36,46.11c.07,.02,.14,.03,.21,.05-.07-.01-.14-.03-.21-.05"/><path d="M101.3,33.11c-.36-1.6-1.32-2.96-2.71-3.84-.98-.62-2.11-.94-3.26-.94-2.12,0-4.05,1.07-5.17,2.85-1.35,2.14-1.22,4.8,.14,6.76-3.65,4.12-8.71,4.31-9.94,4.29-3.69-1.6-7.23-2.16-10-2.32v4c2.44,.14,5.55,.69,8.75,2.14,0,0,0,0,.01,0,3.45,1.56,6.33,3.93,8.61,7.04-.13,.17-.26,.35-.38,.54-1.8,2.85-.94,6.65,1.9,8.44,.98,.62,2.11,.95,3.27,.95,2.11,0,4.05-1.06,5.18-2.85,1.81-2.85,.95-6.64-1.91-8.45-1.38-.87-3.09-1.11-4.67-.75-1.54-2.16-3.32-4.02-5.34-5.57,2.52-.78,5.4-2.27,7.78-5.09,.57,.17,1.17,.27,1.77,.27,2.12,0,4.05-1.07,5.17-2.85,.87-1.38,1.16-3.01,.8-4.6m-10.57,22.65c.17-.27,.39-.49,.67-.66,.33-.21,.72-.32,1.12-.32s.79,.11,1.12,.32c.99,.63,1.28,1.94,.66,2.92-.39,.62-1.06,.99-1.8,.99-.4,0-.78-.11-1.12-.33-.98-.62-1.28-1.94-.66-2.92m6.38-20.19c-.6,.95-1.94,1.27-2.91,.65l-.1-.06c-.91-.65-1.16-1.9-.56-2.85,.38-.61,1.05-.98,1.78-.98,.4,0,.79,.11,1.12,.33,.48,.31,.81,.77,.94,1.33,.12,.55,.03,1.11-.28,1.58"/><path d="M110,74.09c.42,1.03,1.14,1.96,2.11,2.65,.07,.05,.15,.1,.28,.19,.98,.62,2.11,.95,3.27,.95,2.12,0,4.05-1.07,5.17-2.85,.88-1.38,1.16-3.01,.8-4.61-.36-1.6-1.32-2.96-2.71-3.84-.98-.62-2.11-.94-3.27-.94-.12,0-.25,0-.37,.02-.71-3.16-.92-7.77,.03-11.26,.11,.01,.23,.02,.34,.02,2.12,0,4.05-1.07,5.17-2.85,.88-1.38,1.16-3.01,.8-4.6-.36-1.6-1.32-2.96-2.71-3.84-.98-.62-2.11-.94-3.27-.94-2.11,0-4.05,1.07-5.17,2.85-1.6,2.53-1.12,5.8,1.02,7.77,.02,.02,.05,.04,.07,.06-1.35,4.52-1.14,10.32-.04,14.42-.14,.13-.29,.26-.43,.4-.23,.26-.45,.53-.63,.82-.32,.5-.55,1.03-.71,1.58-3.37,.49-5.2,1.67-6.82,2.73-2.04,1.33-3.96,2.57-9.64,2.67-1.96-.23-3.55-.18-5.29-.12-1.43,.05-2.91,.11-4.85,0-1.34-.07-2.1-.88-3.46-2.42-1.8-2.06-4.22-4.65-9.37-5.02v4c3.29,.3,4.8,1.89,6.36,3.67,1.49,1.69,3.17,3.62,6.26,3.78,2.12,.11,3.76,.05,5.21,0,2.49-.09,4.45-.16,7.85,.68,2.61,.64,12.1,9.67,14.77,14.32-.11,.14-.22,.28-.31,.43-1.74,2.76-1.03,6.39,1.62,8.25,.07,.05,.15,.11,.28,.19,.98,.62,2.11,.95,3.27,.95,2.12,0,4.05-1.07,5.17-2.85,.88-1.37,1.16-3.01,.8-4.6-.36-1.6-1.32-2.96-2.71-3.84-.98-.62-2.11-.94-3.27-.94-.53,0-1.05,.07-1.54,.19-2.56-4.19-8.65-10.45-13.19-13.79,1.81-.63,3.05-1.44,4.21-2.19,1.43-.93,2.61-1.69,4.86-2.07m3.88-26.93c.39-.61,1.05-.98,1.78-.98,.4,0,.79,.11,1.12,.32,.48,.3,.81,.77,.94,1.33,.12,.55,.02,1.11-.28,1.58-.6,.95-1.94,1.27-2.91,.65l-.09-.06c-.92-.65-1.16-1.9-.56-2.85m0,23.46c.39-.62,1.05-.98,1.78-.98,.4,0,.79,.11,1.12,.33,.48,.31,.81,.77,.94,1.33,.12,.55,.02,1.11-.28,1.58-.6,.95-1.94,1.27-2.91,.65l-.09-.06c-.92-.65-1.16-1.9-.56-2.85m0,26.3c.39-.61,1.05-.98,1.78-.98,.4,0,.79,.11,1.12,.33,.48,.31,.81,.78,.94,1.33,.12,.55,.02,1.11-.28,1.58-.6,.95-1.94,1.27-2.91,.66l-.09-.06c-.92-.65-1.16-1.9-.56-2.85"/></g></g><path class="j" d="M103.53,112.01c-1.16-1.36-2.86-2.14-4.65-2.14-1.46,0-2.88,.53-3.98,1.48-1.61,1.38-2.33,3.43-2.09,5.4-1.95,.7-4.26,1.37-5.33,1.33-.82-.04-1.3-.34-2.22-.97-1.17-.79-2.42-1.51-4.15-1.85,2.94-2.76,6.01-6.83,8.58-12.83,2.06-.08,3.98-1.19,5.04-2.97,1.72-2.9,.77-6.66-2.12-8.39-.95-.57-2.03-.86-3.13-.86-2.15,0-4.16,1.14-5.26,2.99-.84,1.41-1.08,3.05-.68,4.64,.35,1.39,1.16,2.59,2.3,3.43-4.05,9.22-9.22,13.08-12.56,14.68-.13,.04-.25,.1-.36,.17-1.19,.53-2.05,.71-2.56,.81v4c.27-.03,1.88-.12,4.25-1.19,5.35-1.36,6.84-.35,8.41,.71,1.02,.69,2.29,1.55,4.26,1.66,.1,0,.2,0,.31,0,2.11,0,5.17-1.02,7.02-1.72,1.14,1.12,2.68,1.75,4.29,1.75,1.46,0,2.88-.53,3.98-1.48,1.24-1.06,1.99-2.54,2.12-4.18,.12-1.63-.39-3.21-1.46-4.45m-15.87-16.78c.39-.65,1.07-1.03,1.82-1.03,.38,0,.75,.11,1.08,.3,1,.6,1.33,1.9,.74,2.9-.39,.65-1.06,1.03-1.82,1.03-.38,0-.75-.11-1.08-.3-.48-.29-.83-.75-.96-1.29-.14-.55-.06-1.12,.23-1.6m12.6,22.36c-.49,.42-1.02,.51-1.37,.51-.62,0-1.21-.27-1.61-.73-.76-.88-.66-2.22,.23-2.98,.49-.42,1.02-.51,1.37-.51,.62,0,1.2,.27,1.61,.74,.37,.43,.55,.98,.5,1.54s-.3,1.07-.73,1.44"/><path d="M79.36,48.51c.07,.02,.14,.03,.21,.05-.07-.01-.14-.03-.21-.05"/><path class="j" d="M101.3,35.11c-.36-1.6-1.32-2.96-2.71-3.84-.98-.62-2.11-.94-3.26-.94-2.12,0-4.05,1.06-5.17,2.85-1.35,2.14-1.22,4.8,.14,6.76-3.65,4.12-8.71,4.31-9.94,4.29-3.69-1.61-7.23-2.17-10-2.32v3.99c2.44,.14,5.55,.69,8.75,2.14h.01c3.45,1.57,6.33,3.93,8.61,7.05-.13,.17-.26,.35-.38,.54-1.8,2.85-.94,6.64,1.9,8.44,.98,.62,2.11,.95,3.27,.95,2.11,0,4.05-1.07,5.18-2.85,1.81-2.85,.95-6.64-1.91-8.45-1.38-.87-3.09-1.11-4.67-.75-1.54-2.16-3.32-4.02-5.34-5.57,2.52-.78,5.4-2.27,7.78-5.1,.57,.17,1.17,.27,1.77,.27,2.12,0,4.05-1.07,5.17-2.85,.87-1.38,1.16-3.01,.8-4.6m-10.57,22.65c.17-.27,.39-.49,.67-.66,.33-.21,.72-.32,1.12-.32s.79,.11,1.12,.32c.99,.63,1.28,1.94,.66,2.92-.39,.62-1.06,.99-1.8,.99-.4,0-.78-.11-1.12-.33-.98-.63-1.28-1.94-.66-2.92m6.38-20.19c-.6,.95-1.94,1.27-2.91,.65l-.1-.06c-.91-.65-1.16-1.9-.56-2.85,.38-.61,1.05-.98,1.78-.98,.4,0,.79,.11,1.12,.33,.48,.3,.81,.77,.94,1.33,.12,.55,.03,1.1-.28,1.58"/><path class="j" d="M110,77.09c.42,1.03,1.14,1.96,2.11,2.65,.07,.05,.15,.1,.28,.19,.98,.62,2.11,.95,3.27,.95,2.12,0,4.05-1.07,5.17-2.85,.88-1.37,1.16-3.01,.8-4.6-.36-1.6-1.32-2.96-2.71-3.84-.98-.62-2.11-.94-3.27-.94-.12,0-.25,0-.37,.02-.71-3.16-.92-7.77,.03-11.26,.11,.01,.23,.02,.34,.02,2.12,0,4.05-1.07,5.17-2.85,.88-1.38,1.16-3.01,.8-4.6-.36-1.6-1.32-2.96-2.71-3.84-.98-.62-2.11-.94-3.27-.94-2.11,0-4.05,1.06-5.17,2.85-1.6,2.53-1.12,5.8,1.02,7.77,.02,.02,.05,.04,.07,.06-1.35,4.52-1.14,10.32-.04,14.42-.14,.13-.29,.25-.43,.4-.23,.26-.45,.53-.63,.82-.32,.5-.55,1.03-.71,1.58-3.37,.49-5.2,1.67-6.82,2.73-2.04,1.32-3.96,2.57-9.64,2.66-1.96-.23-3.55-.18-5.29-.12-1.43,.05-2.91,.11-4.85,0-1.34-.07-2.1-.88-3.46-2.42-1.8-2.06-4.22-4.65-9.37-5.02v4c3.29,.3,4.8,1.89,6.36,3.67,1.49,1.69,3.17,3.62,6.26,3.78,2.12,.11,3.76,.05,5.21,0,2.49-.09,4.45-.16,7.85,.68,2.61,.64,12.1,9.67,14.77,14.32-.11,.14-.22,.28-.31,.43-1.74,2.76-1.03,6.39,1.62,8.25,.07,.05,.15,.11,.28,.19,.98,.62,2.11,.95,3.27,.95,2.12,0,4.05-1.07,5.17-2.85,.88-1.37,1.16-3.01,.8-4.6-.36-1.6-1.32-2.96-2.71-3.84-.98-.62-2.11-.94-3.27-.94-.53,0-1.05,.07-1.54,.19-2.56-4.19-8.65-10.45-13.19-13.79,1.81-.63,3.05-1.44,4.21-2.19,1.43-.93,2.61-1.69,4.86-2.07m3.88-26.93c.39-.61,1.05-.98,1.78-.98,.4,0,.79,.11,1.12,.32,.48,.31,.81,.77,.94,1.33,.12,.55,.02,1.11-.28,1.58-.6,.95-1.94,1.27-2.91,.65l-.09-.06c-.92-.65-1.16-1.9-.56-2.85m0,23.46c.39-.62,1.05-.98,1.78-.98,.4,0,.79,.11,1.12,.33,.48,.31,.81,.77,.94,1.33,.12,.55,.02,1.11-.28,1.58-.6,.95-1.94,1.27-2.91,.65l-.09-.06c-.92-.65-1.16-1.9-.56-2.85m0,26.3c.39-.61,1.05-.98,1.78-.98,.4,0,.79,.11,1.12,.33,.48,.31,.81,.78,.94,1.33,.12,.55,.02,1.11-.28,1.58-.6,.95-1.94,1.27-2.91,.66l-.09-.06c-.92-.65-1.16-1.9-.56-2.85"/><path class="d" d="M103.53,109.01c-1.16-1.36-2.86-2.14-4.65-2.14-1.46,0-2.88,.53-3.98,1.48-1.61,1.38-2.33,3.43-2.09,5.4-1.95,.7-4.26,1.37-5.33,1.33-.82-.04-1.3-.34-2.22-.97-1.17-.79-2.42-1.51-4.15-1.85,2.94-2.76,6.01-6.83,8.58-12.83,2.06-.08,3.98-1.19,5.04-2.97,1.72-2.9,.77-6.66-2.12-8.39-.95-.57-2.03-.86-3.13-.86-2.15,0-4.16,1.14-5.26,2.99-.84,1.41-1.08,3.05-.68,4.64,.35,1.39,1.16,2.59,2.3,3.43-4.05,9.22-9.22,13.08-12.56,14.68-.13,.04-.25,.1-.36,.17-1.19,.53-2.05,.71-2.56,.81v4c.27-.03,1.88-.12,4.25-1.19,5.35-1.36,6.84-.35,8.41,.71,1.02,.69,2.29,1.55,4.26,1.66,.1,0,.2,0,.31,0,2.11,0,5.17-1.02,7.02-1.72,1.14,1.12,2.68,1.75,4.29,1.75,1.46,0,2.88-.53,3.98-1.48,1.24-1.06,1.99-2.55,2.12-4.18,.12-1.63-.39-3.21-1.46-4.45m-15.87-16.78c.39-.65,1.07-1.03,1.82-1.03,.38,0,.75,.11,1.08,.3,1,.6,1.33,1.9,.74,2.9-.39,.65-1.06,1.03-1.82,1.03-.38,0-.75-.11-1.08-.3-.48-.29-.83-.75-.96-1.29-.14-.55-.06-1.12,.23-1.6m12.6,22.36c-.49,.42-1.02,.51-1.37,.51-.62,0-1.21-.27-1.61-.73-.76-.88-.66-2.22,.23-2.98,.49-.42,1.02-.51,1.37-.51,.62,0,1.2,.27,1.61,.74,.37,.43,.55,.98,.5,1.54s-.3,1.07-.73,1.44"/><path class="d" d="M79.36,46.11c.07,.02,.14,.03,.21,.05-.07-.01-.14-.03-.21-.05"/><path class="d" d="M101.3,33.11c-.36-1.6-1.32-2.96-2.71-3.84-.98-.62-2.11-.94-3.26-.94-2.12,0-4.05,1.07-5.17,2.85-1.35,2.14-1.22,4.8,.14,6.76-3.65,4.12-8.71,4.31-9.94,4.29-3.69-1.6-7.23-2.16-10-2.32v4c2.44,.14,5.55,.69,8.75,2.14,0,0,0,0,.01,0,3.45,1.56,6.33,3.93,8.61,7.04-.13,.17-.26,.35-.38,.54-1.8,2.85-.94,6.65,1.9,8.44,.98,.62,2.11,.95,3.27,.95,2.11,0,4.05-1.06,5.18-2.85,1.81-2.85,.95-6.64-1.91-8.45-1.38-.87-3.09-1.11-4.67-.75-1.54-2.16-3.32-4.02-5.34-5.57,2.52-.78,5.4-2.27,7.78-5.09,.57,.17,1.17,.27,1.77,.27,2.12,0,4.05-1.07,5.17-2.85,.87-1.38,1.16-3.01,.8-4.6m-10.57,22.65c.17-.27,.39-.49,.67-.66,.33-.21,.72-.32,1.12-.32s.79,.11,1.12,.32c.99,.63,1.28,1.94,.66,2.92-.39,.62-1.06,.99-1.8,.99-.4,0-.78-.11-1.12-.33-.98-.62-1.28-1.94-.66-2.92m6.38-20.19c-.6,.95-1.94,1.27-2.91,.65l-.1-.06c-.91-.65-1.16-1.9-.56-2.85,.38-.61,1.05-.98,1.78-.98,.4,0,.79,.11,1.12,.33,.48,.31,.81,.77,.94,1.33,.12,.55,.03,1.11-.28,1.58"/><path class="d" d="M110,74.09c.42,1.03,1.14,1.96,2.11,2.65,.07,.05,.15,.1,.28,.19,.98,.62,2.11,.95,3.27,.95,2.12,0,4.05-1.07,5.17-2.85,.88-1.38,1.16-3.01,.8-4.61-.36-1.6-1.32-2.96-2.71-3.84-.98-.62-2.11-.94-3.27-.94-.12,0-.25,0-.37,.02-.71-3.16-.92-7.77,.03-11.26,.11,.01,.23,.02,.34,.02,2.12,0,4.05-1.07,5.17-2.85,.88-1.38,1.16-3.01,.8-4.6-.36-1.6-1.32-2.96-2.71-3.84-.98-.62-2.11-.94-3.27-.94-2.11,0-4.05,1.07-5.17,2.85-1.6,2.53-1.12,5.8,1.02,7.77,.02,.02,.05,.04,.07,.06-1.35,4.52-1.14,10.32-.04,14.42-.14,.13-.29,.26-.43,.4-.23,.26-.45,.53-.63,.82-.32,.5-.55,1.03-.71,1.58-3.37,.49-5.2,1.67-6.82,2.73-2.04,1.33-3.96,2.57-9.64,2.67-1.96-.23-3.55-.18-5.29-.12-1.43,.05-2.91,.11-4.85,0-1.34-.07-2.1-.88-3.46-2.42-1.8-2.06-4.22-4.65-9.37-5.02v4c3.29,.3,4.8,1.89,6.36,3.67,1.49,1.69,3.17,3.62,6.26,3.78,2.12,.11,3.76,.05,5.21,0,2.49-.09,4.45-.16,7.85,.68,2.61,.64,12.1,9.67,14.77,14.32-.11,.14-.22,.28-.31,.43-1.74,2.76-1.03,6.39,1.62,8.25,.07,.05,.15,.11,.28,.19,.98,.62,2.11,.95,3.27,.95,2.12,0,4.05-1.07,5.17-2.85,.88-1.37,1.16-3.01,.8-4.6-.36-1.6-1.32-2.96-2.71-3.84-.98-.62-2.11-.94-3.27-.94-.53,0-1.05,.07-1.54,.19-2.56-4.19-8.65-10.45-13.19-13.79,1.81-.63,3.05-1.44,4.21-2.19,1.43-.93,2.61-1.69,4.86-2.07m3.88-26.93c.39-.61,1.05-.98,1.78-.98,.4,0,.79,.11,1.12,.32,.48,.3,.81,.77,.94,1.33,.12,.55,.02,1.11-.28,1.58-.6,.95-1.94,1.27-2.91,.65l-.09-.06c-.92-.65-1.16-1.9-.56-2.85m0,23.46c.39-.62,1.05-.98,1.78-.98,.4,0,.79,.11,1.12,.33,.48,.31,.81,.77,.94,1.33,.12,.55,.02,1.11-.28,1.58-.6,.95-1.94,1.27-2.91,.65l-.09-.06c-.92-.65-1.16-1.9-.56-2.85m0,26.3c.39-.61,1.05-.98,1.78-.98,.4,0,.79,.11,1.12,.33,.48,.31,.81,.78,.94,1.33,.12,.55,.02,1.11-.28,1.58-.6,.95-1.94,1.27-2.91,.66l-.09-.06c-.92-.65-1.16-1.9-.56-2.85"/><g><g class="g"><path d="M48.4,99.72c-.24,0-.49-.07-.71-.22-.56-.39-.69-1.17-.3-1.72,.28-.4,.53-.82,.75-1.25,1.46-2.96,1.27-6.38-.51-9.16-.37-.58-.2-1.34,.37-1.71,.57-.37,1.34-.2,1.71,.37,2.23,3.47,2.47,7.91,.65,11.6-.27,.55-.59,1.08-.94,1.58-.24,.34-.63,.52-1.02,.52"/><path d="M54.08,102.66c-.25,0-.5-.08-.72-.24-.55-.4-.67-1.17-.27-1.73,.46-.63,.87-1.31,1.22-2.02,2.28-4.61,1.79-10.03-1.28-14.16-.41-.55-.29-1.32,.25-1.73,.55-.41,1.32-.29,1.73,.25,3.63,4.88,4.21,11.28,1.51,16.73-.41,.84-.9,1.64-1.45,2.38-.24,.33-.62,.51-1,.51"/><path d="M42.84,96.6c-.2,0-.41-.05-.6-.16-.59-.34-.8-1.09-.47-1.68,.78-1.37,.84-3.04,.18-4.47-.29-.62-.02-1.35,.6-1.64,.62-.29,1.35-.01,1.64,.61,.99,2.15,.89,4.66-.28,6.72-.23,.4-.65,.63-1.08,.63"/></g><g><path class="k" d="M48.4,97.67c-.24,0-.49-.07-.71-.22-.56-.39-.69-1.17-.3-1.72,.28-.4,.53-.82,.75-1.25,1.46-2.96,1.27-6.38-.51-9.16-.37-.58-.2-1.34,.37-1.71,.57-.37,1.34-.2,1.71,.37,2.23,3.47,2.47,7.91,.65,11.6-.27,.55-.59,1.08-.94,1.58-.24,.34-.63,.52-1.02,.52"/><path class="k" d="M54.08,100.61c-.25,0-.5-.08-.72-.24-.55-.4-.67-1.17-.27-1.73,.46-.63,.87-1.31,1.22-2.02,2.28-4.61,1.79-10.03-1.28-14.16-.41-.55-.29-1.32,.25-1.73,.55-.41,1.32-.29,1.73,.25,3.63,4.88,4.21,11.28,1.51,16.73-.41,.84-.9,1.64-1.45,2.38-.24,.33-.62,.51-1,.51"/><path class="k" d="M42.84,94.55c-.2,0-.41-.05-.6-.16-.59-.34-.8-1.09-.47-1.68,.78-1.37,.84-3.04,.18-4.47-.29-.62-.02-1.35,.6-1.64,.62-.29,1.35-.01,1.64,.61,.99,2.15,.89,4.66-.28,6.72-.23,.4-.65,.63-1.08,.63"/></g></g><g><g class="g"><path d="M60.98,41.13c-10.35,0-20.83,3.74-27.34,9.76-7.04,6.51-10.76,16.61-10.58,28.62-1.97,.29-3.49,1.98-3.49,4.03v18.53c0,2.26,1.83,4.09,4.09,4.09h2.08c.32,0,.63-.05,.93-.12v1.64c0,2.26,1.6,4.09,3.57,4.09h1.94c1.97,0,3.57-1.83,3.57-4.09v-30.34c0-2.26-1.6-4.09-3.57-4.09h-1.94c-1.76,0-3.21,1.45-3.51,3.36,.07-1.9,.21-3.73,.44-5.21,1.18-7.4,4.21-13.57,8.88-17.88,5.79-5.35,15.57-8.81,24.91-8.81,1.07,0,3.31,.04,4.37,.15v-3.57c-1.23-.12-3.24-.16-4.37-.16ZM25.74,101.65c-1.5,0-2.71-1.21-2.71-2.71v-12.28c0-1.5,1.21-2.71,2.71-2.71h.93v17.7h-.93Z"/></g><path class="d" d="M60.98,39.08c-10.35,0-20.83,3.74-27.34,9.76-7.04,6.51-10.76,16.61-10.58,28.62-1.97,.29-3.49,1.98-3.49,4.03v18.53c0,2.26,1.83,4.09,4.09,4.09h2.08c.32,0,.63-.05,.93-.12v1.64c0,2.26,1.6,4.09,3.57,4.09h1.94c1.97,0,3.57-1.83,3.57-4.09v-30.34c0-2.26-1.6-4.09-3.57-4.09h-1.94c-1.76,0-3.21,1.45-3.51,3.36,.07-1.9,.21-3.73,.44-5.21,1.18-7.4,4.21-13.57,8.88-17.88,5.79-5.35,15.57-8.81,24.91-8.81,1.07,0,3.31,.04,4.37,.15v-3.57c-1.23-.12-3.24-.16-4.37-.16ZM25.74,99.61c-1.5,0-2.71-1.21-2.71-2.71v-12.28c0-1.5,1.21-2.71,2.71-2.71h.93v17.7h-.93Z"/></g></g><g><path class="e" d="M168.67,95.67h22.97v10.15h-36.17V51.08h13.2v44.59Z"/><path class="e" d="M196.53,54.62c0-1.82,.65-3.3,1.96-4.46,1.3-1.16,3-1.74,5.08-1.74s3.77,.58,5.08,1.74c1.3,1.16,1.96,2.65,1.96,4.46s-.65,3.3-1.96,4.46c-1.3,1.16-3,1.74-5.08,1.74s-3.77-.58-5.08-1.74c-1.3-1.16-1.96-2.65-1.96-4.46Zm13.46,51.21h-12.71v-40.68h12.71v40.68Z"/><path class="e" d="M239.08,94.39c0-1.08-.56-1.94-1.69-2.59-1.13-.65-3.27-1.33-6.43-2.03-3.16-.7-5.76-1.62-7.82-2.76-2.05-1.14-3.62-2.53-4.7-4.16-1.08-1.63-1.62-3.5-1.62-5.6,0-3.73,1.54-6.81,4.62-9.23,3.08-2.42,7.12-3.63,12.11-3.63,5.36,0,9.67,1.22,12.93,3.65,3.26,2.43,4.89,5.63,4.89,9.59h-12.71c0-3.26-1.72-4.89-5.15-4.89-1.33,0-2.44,.37-3.35,1.11s-1.35,1.66-1.35,2.76,.55,2.04,1.65,2.74c1.1,.7,2.86,1.28,5.28,1.73s4.54,.99,6.37,1.62c6.12,2.11,9.17,5.88,9.17,11.32,0,3.71-1.65,6.73-4.94,9.06-3.3,2.33-7.56,3.5-12.8,3.5-3.48,0-6.59-.63-9.32-1.88-2.73-1.25-4.86-2.96-6.39-5.11-1.53-2.16-2.29-4.42-2.29-6.81h11.84c.05,1.88,.68,3.25,1.88,4.12,1.2,.87,2.74,1.3,4.62,1.3,1.73,0,3.03-.35,3.89-1.05,.87-.7,1.3-1.62,1.3-2.74Z"/><path class="e" d="M271.98,55.03v10.11h6.69v8.8h-6.69v18.61c0,1.53,.28,2.59,.83,3.2,.55,.6,1.64,.9,3.27,.9,1.25,0,2.31-.08,3.16-.23v9.06c-2.28,.73-4.66,1.09-7.14,1.09-4.36,0-7.58-1.03-9.66-3.08-2.08-2.05-3.12-5.18-3.12-9.36v-20.19h-5.19v-8.8h5.19v-10.11h12.67Z"/><path class="e" d="M303.34,106.58c-6.24,0-11.29-1.86-15.15-5.58-3.86-3.72-5.79-8.57-5.79-14.53v-1.05c0-4.16,.77-7.83,2.31-11.02,1.54-3.18,3.79-5.65,6.75-7.39,2.96-1.74,6.47-2.61,10.53-2.61,5.71,0,10.23,1.77,13.54,5.32s4.96,8.49,4.96,14.83v4.92h-25.19c.45,2.28,1.44,4.07,2.97,5.38,1.53,1.3,3.51,1.96,5.94,1.96,4.01,0,7.14-1.4,9.4-4.21l5.79,6.84c-1.58,2.18-3.82,3.92-6.71,5.21-2.89,1.29-6.01,1.94-9.34,1.94Zm-1.43-32.41c-3.71,0-5.92,2.46-6.62,7.37h12.78v-.98c.05-2.03-.46-3.6-1.54-4.72-1.08-1.12-2.62-1.67-4.62-1.67Z"/><path class="e" d="M337.22,65.14l.41,4.77c2.81-3.68,6.68-5.53,11.62-5.53,4.24,0,7.4,1.27,9.49,3.8,2.09,2.53,3.18,6.34,3.25,11.43v26.21h-12.71v-25.68c0-2.05-.41-3.56-1.24-4.53-.83-.96-2.33-1.45-4.51-1.45-2.48,0-4.32,.98-5.53,2.93v28.72h-12.67v-40.68h11.88Z"/><path class="k" d="M369.59,105.82V51.08h19.66c7.04,0,12.4,1.29,16.07,3.87,3.67,2.58,5.51,6.33,5.51,11.24,0,2.83-.65,5.25-1.96,7.26-1.3,2-3.22,3.48-5.75,4.44,2.86,.75,5.05,2.16,6.58,4.21,1.53,2.06,2.29,4.56,2.29,7.52,0,5.36-1.7,9.39-5.09,12.09-3.4,2.7-8.43,4.07-15.1,4.12h-22.22Zm13.2-31.92h6.88c2.88-.03,4.94-.55,6.17-1.58,1.23-1.03,1.84-2.55,1.84-4.56,0-2.31-.66-3.98-1.99-5-1.33-1.02-3.47-1.53-6.43-1.53h-6.47v12.67Zm0,8.65v13.12h8.65c2.38,0,4.21-.54,5.49-1.64,1.28-1.09,1.92-2.62,1.92-4.61,0-4.56-2.27-6.86-6.8-6.88h-9.25Z"/><path class="k" d="M443.28,76.61l-4.17-.3c-3.99,0-6.54,1.25-7.67,3.76v25.75h-12.67v-40.68h11.88l.41,5.23c2.13-3.98,5.1-5.98,8.91-5.98,1.35,0,2.53,.15,3.54,.45l-.23,11.77Z"/><path class="k" d="M469.63,105.82c-.45-.83-.85-2.04-1.2-3.65-2.33,2.93-5.59,4.4-9.78,4.4-3.83,0-7.09-1.16-9.78-3.48-2.68-2.32-4.02-5.23-4.02-8.74,0-4.41,1.63-7.75,4.89-10,3.26-2.26,8-3.38,14.21-3.38h3.91v-2.15c0-3.75-1.62-5.63-4.85-5.63-3.01,0-4.51,1.49-4.51,4.46h-12.67c0-3.93,1.67-7.12,5.02-9.58,3.35-2.45,7.61-3.68,12.8-3.68s9.29,1.27,12.29,3.8c3.01,2.53,4.55,6,4.62,10.41v18.01c.05,3.73,.63,6.59,1.73,8.57v.64h-12.67Zm-7.93-8.27c1.58,0,2.89-.34,3.93-1.02,1.04-.68,1.79-1.44,2.24-2.29v-6.5h-3.68c-4.41,0-6.62,1.98-6.62,5.94,0,1.15,.39,2.09,1.17,2.8,.78,.71,1.77,1.07,2.97,1.07Z"/><path class="k" d="M487.49,54.62c0-1.82,.65-3.3,1.96-4.46,1.3-1.16,3-1.74,5.08-1.74s3.77,.58,5.08,1.74c1.3,1.16,1.96,2.65,1.96,4.46s-.65,3.3-1.96,4.46c-1.3,1.16-3,1.74-5.08,1.74s-3.77-.58-5.08-1.74c-1.3-1.16-1.96-2.65-1.96-4.46Zm13.46,51.21h-12.71v-40.68h12.71v40.68Z"/><path class="k" d="M520.39,65.14l.41,4.77c2.81-3.68,6.68-5.53,11.62-5.53,4.24,0,7.4,1.27,9.49,3.8,2.09,2.53,3.18,6.34,3.25,11.43v26.21h-12.71v-25.68c0-2.05-.41-3.56-1.24-4.53-.83-.96-2.33-1.45-4.51-1.45-2.48,0-4.32,.98-5.53,2.93v28.72h-12.67v-40.68h11.88Z"/><path class="k" d="M567.13,96.05h18.54v9.78h-34.55v-7.07l18.05-23.84h-17.26v-9.78h33.35v6.84l-18.12,24.06Z"/></g></g></g></svg>