<?xml version="1.0" encoding="UTF-8"?><svg xmlns="http://www.w3.org/2000/svg" xmlns:xlink="http://www.w3.org/1999/xlink" viewBox="0 0 220 290"><defs><style>.c{isolation:isolate;}.d{fill:#fffedb;}.e{fill:#353070;}.f{opacity:.07;}.f,.g{mix-blend-mode:multiply;}.g{opacity:.25;}.h{clip-path:url(#b);}.i{fill:none;}.j{fill:#d3562c;}.k{fill:#eb743b;}</style><clipPath id="b"><rect class="i" x="111.97" y="27.95" width="51.43" height="90.79"/></clipPath></defs><g class="c"><g id="a"><g><polygon class="k" points="111.97 2.54 111.97 146.54 172.97 111.54 172.97 37.54 111.97 2.54"/><polygon class="e" points="106.97 2.46 45.97 37.46 45.97 111.46 106.97 146.46 106.97 2.46"/><g class="f"><g class="h"><path d="M129.27,94.27c.39-.65,1.07-1.03,1.82-1.03,.38,0,.75,.1,1.08,.3,1,.6,1.33,1.9,.74,2.9-.39,.65-1.06,1.03-1.82,1.03-.38,0-.75-.11-1.08-.3-.48-.29-.83-.75-.96-1.29-.14-.55-.06-1.12,.23-1.6m12.6,22.36c-.49,.42-1.02,.51-1.37,.51-.62,0-1.21-.27-1.61-.74-.76-.88-.66-2.22,.23-2.98,.49-.42,1.02-.51,1.37-.51,.62,0,1.2,.27,1.61,.74,.37,.43,.55,.98,.5,1.54-.04,.56-.3,1.07-.73,1.44"/><path d="M120.97,48.15c.07,.02,.14,.03,.21,.05-.07-.01-.14-.03-.21-.05"/><path d="M132.35,57.8c.17-.27,.39-.49,.67-.66,.33-.21,.72-.32,1.12-.32s.79,.11,1.12,.32c.99,.63,1.28,1.94,.66,2.92-.39,.62-1.06,.99-1.8,.99-.4,0-.78-.11-1.12-.33-.98-.63-1.28-1.94-.66-2.92m6.38-20.19c-.6,.95-1.94,1.27-2.91,.65l-.1-.06c-.91-.65-1.16-1.9-.56-2.85,.38-.61,1.05-.98,1.78-.98,.4,0,.79,.11,1.12,.33,.48,.3,.81,.77,.94,1.33,.12,.55,.03,1.1-.28,1.58"/><path d="M155.49,49.21c.39-.62,1.05-.98,1.78-.98,.4,0,.79,.11,1.12,.33,.48,.3,.81,.77,.94,1.33,.12,.55,.02,1.11-.28,1.58-.6,.95-1.94,1.27-2.91,.65l-.09-.06c-.92-.65-1.16-1.9-.56-2.85m0,23.46c.39-.61,1.05-.98,1.78-.98,.4,0,.79,.11,1.12,.33,.48,.3,.81,.77,.94,1.33,.12,.55,.02,1.11-.28,1.58-.6,.95-1.94,1.27-2.91,.65l-.09-.06c-.92-.65-1.16-1.9-.56-2.85m0,26.3c.39-.61,1.05-.98,1.78-.98,.4,0,.79,.11,1.12,.33,.48,.3,.81,.77,.94,1.33,.12,.55,.02,1.11-.28,1.58-.6,.95-1.94,1.27-2.91,.65l-.09-.06c-.92-.65-1.16-1.9-.56-2.85"/><path d="M145.14,108.64c-1.16-1.36-2.86-2.14-4.65-2.14-1.46,0-2.88,.53-3.98,1.48-1.61,1.38-2.33,3.43-2.09,5.4-1.95,.7-4.26,1.37-5.33,1.33-.82-.04-1.3-.34-2.22-.97-1.17-.79-2.42-1.51-4.15-1.85,2.94-2.76,6.01-6.83,8.58-12.83,2.06-.08,3.98-1.19,5.04-2.97,1.72-2.9,.77-6.66-2.12-8.39-.95-.57-2.03-.86-3.13-.86-2.15,0-4.16,1.14-5.26,2.99-.84,1.41-1.08,3.05-.68,4.64,.35,1.39,1.16,2.59,2.3,3.43-4.05,9.22-9.22,13.08-12.56,14.68-.13,.04-.25,.1-.36,.17-1.19,.53-2.05,.71-2.56,.81v4c.27-.03,1.88-.12,4.25-1.19,5.35-1.36,6.84-.35,8.41,.71,1.02,.69,2.29,1.55,4.26,1.66,.1,0,.2,0,.31,0,2.11,0,5.17-1.02,7.02-1.72,1.14,1.12,2.68,1.75,4.29,1.75,1.46,0,2.88-.53,3.98-1.48,1.24-1.06,1.99-2.55,2.12-4.18,.12-1.63-.39-3.21-1.46-4.45m-15.87-16.78c.39-.65,1.07-1.03,1.82-1.03,.38,0,.75,.11,1.08,.3,1,.6,1.33,1.9,.74,2.9-.39,.65-1.06,1.03-1.82,1.03-.38,0-.75-.11-1.08-.3-.48-.29-.83-.75-.96-1.29-.14-.55-.06-1.12,.23-1.6m12.6,22.36c-.49,.42-1.02,.51-1.37,.51-.62,0-1.21-.27-1.61-.73-.76-.88-.66-2.22,.23-2.98,.49-.42,1.02-.51,1.37-.51,.62,0,1.2,.27,1.61,.74,.37,.43,.55,.98,.5,1.54s-.3,1.07-.73,1.44"/><path d="M120.97,45.74c.07,.02,.14,.03,.21,.05-.07-.01-.14-.03-.21-.05"/><path d="M142.92,32.74c-.36-1.6-1.32-2.96-2.71-3.84-.98-.62-2.11-.94-3.26-.94-2.12,0-4.05,1.07-5.17,2.85-1.35,2.14-1.22,4.8,.14,6.76-3.65,4.12-8.71,4.31-9.94,4.29-3.69-1.6-7.23-2.16-10-2.32v4c2.44,.14,5.55,.69,8.75,2.14,0,0,0,0,.01,0,3.45,1.56,6.33,3.93,8.61,7.04-.13,.17-.26,.35-.38,.54-1.8,2.85-.94,6.65,1.9,8.44,.98,.62,2.11,.95,3.27,.95,2.11,0,4.05-1.06,5.18-2.85,1.81-2.85,.95-6.64-1.91-8.45-1.38-.87-3.09-1.11-4.67-.75-1.54-2.16-3.32-4.02-5.34-5.57,2.52-.78,5.4-2.27,7.78-5.09,.57,.17,1.17,.27,1.77,.27,2.12,0,4.05-1.07,5.17-2.85,.87-1.38,1.16-3.01,.8-4.6m-10.57,22.65c.17-.27,.39-.49,.67-.66,.33-.21,.72-.32,1.12-.32s.79,.11,1.12,.32c.99,.63,1.28,1.94,.66,2.92-.39,.62-1.06,.99-1.8,.99-.4,0-.78-.11-1.12-.33-.98-.62-1.28-1.94-.66-2.92m6.38-20.19c-.6,.95-1.94,1.27-2.91,.65l-.1-.06c-.91-.65-1.16-1.9-.56-2.85,.38-.61,1.05-.98,1.78-.98,.4,0,.79,.11,1.12,.33,.48,.31,.81,.77,.94,1.33,.12,.55,.03,1.11-.28,1.58"/><path d="M151.61,73.73c.42,1.03,1.14,1.96,2.11,2.65,.07,.05,.15,.1,.28,.19,.98,.62,2.11,.95,3.27,.95,2.12,0,4.05-1.07,5.17-2.85,.88-1.38,1.16-3.01,.8-4.61-.36-1.6-1.32-2.96-2.71-3.84-.98-.62-2.11-.94-3.27-.94-.12,0-.25,0-.37,.02-.71-3.16-.92-7.77,.03-11.26,.11,.01,.23,.02,.34,.02,2.12,0,4.05-1.07,5.17-2.85,.88-1.38,1.16-3.01,.8-4.6-.36-1.6-1.32-2.96-2.71-3.84-.98-.62-2.11-.94-3.27-.94-2.11,0-4.05,1.07-5.17,2.85-1.6,2.53-1.12,5.8,1.02,7.77,.02,.02,.05,.04,.07,.06-1.35,4.52-1.14,10.32-.04,14.42-.14,.13-.29,.26-.43,.4-.23,.26-.45,.53-.63,.82-.32,.5-.55,1.03-.71,1.58-3.37,.49-5.2,1.67-6.82,2.73-2.04,1.33-3.96,2.57-9.64,2.67-1.96-.23-3.55-.18-5.29-.12-1.43,.05-2.91,.11-4.85,0-1.34-.07-2.1-.88-3.46-2.42-1.8-2.06-4.22-4.65-9.37-5.02v4c3.29,.3,4.8,1.89,6.36,3.67,1.49,1.69,3.17,3.62,6.26,3.78,2.12,.11,3.76,.05,5.21,0,2.49-.09,4.45-.16,7.85,.68,2.61,.64,12.1,9.67,14.77,14.32-.11,.14-.22,.28-.31,.43-1.74,2.76-1.03,6.39,1.62,8.25,.07,.05,.15,.11,.28,.19,.98,.62,2.11,.95,3.27,.95,2.12,0,4.05-1.07,5.17-2.85,.88-1.37,1.16-3.01,.8-4.6-.36-1.6-1.32-2.96-2.71-3.84-.98-.62-2.11-.94-3.27-.94-.53,0-1.05,.07-1.54,.19-2.56-4.19-8.65-10.45-13.19-13.79,1.81-.63,3.05-1.44,4.21-2.19,1.43-.93,2.61-1.69,4.86-2.07m3.88-26.93c.39-.61,1.05-.98,1.78-.98,.4,0,.79,.11,1.12,.32,.48,.3,.81,.77,.94,1.33,.12,.55,.02,1.11-.28,1.58-.6,.95-1.94,1.27-2.91,.65l-.09-.06c-.92-.65-1.16-1.9-.56-2.85m0,23.46c.39-.62,1.05-.98,1.78-.98,.4,0,.79,.11,1.12,.33,.48,.31,.81,.77,.94,1.33,.12,.55,.02,1.11-.28,1.58-.6,.95-1.94,1.27-2.91,.65l-.09-.06c-.92-.65-1.16-1.9-.56-2.85m0,26.3c.39-.61,1.05-.98,1.78-.98,.4,0,.79,.11,1.12,.33,.48,.31,.81,.78,.94,1.33,.12,.55,.02,1.11-.28,1.58-.6,.95-1.94,1.27-2.91,.66l-.09-.06c-.92-.65-1.16-1.9-.56-2.85"/></g></g><path class="j" d="M145.14,111.64c-1.16-1.36-2.86-2.14-4.65-2.14-1.46,0-2.88,.53-3.98,1.48-1.61,1.38-2.33,3.43-2.09,5.4-1.95,.7-4.26,1.37-5.33,1.33-.82-.04-1.3-.34-2.22-.97-1.17-.79-2.42-1.51-4.15-1.85,2.94-2.76,6.01-6.83,8.58-12.83,2.06-.08,3.98-1.19,5.04-2.97,1.72-2.9,.77-6.66-2.12-8.39-.95-.57-2.03-.86-3.13-.86-2.15,0-4.16,1.14-5.26,2.99-.84,1.41-1.08,3.05-.68,4.64,.35,1.39,1.16,2.59,2.3,3.43-4.05,9.22-9.22,13.08-12.56,14.68-.13,.04-.25,.1-.36,.17-1.19,.53-2.05,.71-2.56,.81v4c.27-.03,1.88-.12,4.25-1.19,5.35-1.36,6.84-.35,8.41,.71,1.02,.69,2.29,1.55,4.26,1.66,.1,0,.2,0,.31,0,2.11,0,5.17-1.02,7.02-1.72,1.14,1.12,2.68,1.75,4.29,1.75,1.46,0,2.88-.53,3.98-1.48,1.24-1.06,1.99-2.54,2.12-4.18,.12-1.63-.39-3.21-1.46-4.45m-15.87-16.78c.39-.65,1.07-1.03,1.82-1.03,.38,0,.75,.11,1.08,.3,1,.6,1.33,1.9,.74,2.9-.39,.65-1.06,1.03-1.82,1.03-.38,0-.75-.11-1.08-.3-.48-.29-.83-.75-.96-1.29-.14-.55-.06-1.12,.23-1.6m12.6,22.36c-.49,.42-1.02,.51-1.37,.51-.62,0-1.21-.27-1.61-.73-.76-.88-.66-2.22,.23-2.98,.49-.42,1.02-.51,1.37-.51,.62,0,1.2,.27,1.61,.74,.37,.43,.55,.98,.5,1.54s-.3,1.07-.73,1.44"/><path d="M120.97,48.15c.07,.02,.14,.03,.21,.05-.07-.01-.14-.03-.21-.05"/><path class="j" d="M142.92,34.75c-.36-1.6-1.32-2.96-2.71-3.84-.98-.62-2.11-.94-3.26-.94-2.12,0-4.05,1.06-5.17,2.85-1.35,2.14-1.22,4.8,.14,6.76-3.65,4.12-8.71,4.31-9.94,4.29-3.69-1.61-7.23-2.17-10-2.32v3.99c2.44,.14,5.55,.69,8.75,2.14h.01c3.45,1.57,6.33,3.93,8.61,7.05-.13,.17-.26,.35-.38,.54-1.8,2.85-.94,6.64,1.9,8.44,.98,.62,2.11,.95,3.27,.95,2.11,0,4.05-1.07,5.18-2.85,1.81-2.85,.95-6.64-1.91-8.45-1.38-.87-3.09-1.11-4.67-.75-1.54-2.16-3.32-4.02-5.34-5.57,2.52-.78,5.4-2.27,7.78-5.1,.57,.17,1.17,.27,1.77,.27,2.12,0,4.05-1.07,5.17-2.85,.87-1.38,1.16-3.01,.8-4.6m-10.57,22.65c.17-.27,.39-.49,.67-.66,.33-.21,.72-.32,1.12-.32s.79,.11,1.12,.32c.99,.63,1.28,1.94,.66,2.92-.39,.62-1.06,.99-1.8,.99-.4,0-.78-.11-1.12-.33-.98-.63-1.28-1.94-.66-2.92m6.38-20.19c-.6,.95-1.94,1.27-2.91,.65l-.1-.06c-.91-.65-1.16-1.9-.56-2.85,.38-.61,1.05-.98,1.78-.98,.4,0,.79,.11,1.12,.33,.48,.3,.81,.77,.94,1.33,.12,.55,.03,1.1-.28,1.58"/><path class="j" d="M151.61,76.73c.42,1.03,1.14,1.96,2.11,2.65,.07,.05,.15,.1,.28,.19,.98,.62,2.11,.95,3.27,.95,2.12,0,4.05-1.07,5.17-2.85,.88-1.37,1.16-3.01,.8-4.6-.36-1.6-1.32-2.96-2.71-3.84-.98-.62-2.11-.94-3.27-.94-.12,0-.25,0-.37,.02-.71-3.16-.92-7.77,.03-11.26,.11,.01,.23,.02,.34,.02,2.12,0,4.05-1.07,5.17-2.85,.88-1.38,1.16-3.01,.8-4.6-.36-1.6-1.32-2.96-2.71-3.84-.98-.62-2.11-.94-3.27-.94-2.11,0-4.05,1.06-5.17,2.85-1.6,2.53-1.12,5.8,1.02,7.77,.02,.02,.05,.04,.07,.06-1.35,4.52-1.14,10.32-.04,14.42-.14,.13-.29,.25-.43,.4-.23,.26-.45,.53-.63,.82-.32,.5-.55,1.03-.71,1.58-3.37,.49-5.2,1.67-6.82,2.73-2.04,1.32-3.96,2.57-9.64,2.66-1.96-.23-3.55-.18-5.29-.12-1.43,.05-2.91,.11-4.85,0-1.34-.07-2.1-.88-3.46-2.42-1.8-2.06-4.22-4.65-9.37-5.02v4c3.29,.3,4.8,1.89,6.36,3.67,1.49,1.69,3.17,3.62,6.26,3.78,2.12,.11,3.76,.05,5.21,0,2.49-.09,4.45-.16,7.85,.68,2.61,.64,12.1,9.67,14.77,14.32-.11,.14-.22,.28-.31,.43-1.74,2.76-1.03,6.39,1.62,8.25,.07,.05,.15,.11,.28,.19,.98,.62,2.11,.95,3.27,.95,2.12,0,4.05-1.07,5.17-2.85,.88-1.37,1.16-3.01,.8-4.6-.36-1.6-1.32-2.96-2.71-3.84-.98-.62-2.11-.94-3.27-.94-.53,0-1.05,.07-1.54,.19-2.56-4.19-8.65-10.45-13.19-13.79,1.81-.63,3.05-1.44,4.21-2.19,1.43-.93,2.61-1.69,4.86-2.07m3.88-26.93c.39-.61,1.05-.98,1.78-.98,.4,0,.79,.11,1.12,.32,.48,.31,.81,.77,.94,1.33,.12,.55,.02,1.11-.28,1.58-.6,.95-1.94,1.27-2.91,.65l-.09-.06c-.92-.65-1.16-1.9-.56-2.85m0,23.46c.39-.62,1.05-.98,1.78-.98,.4,0,.79,.11,1.12,.33,.48,.31,.81,.77,.94,1.33,.12,.55,.02,1.11-.28,1.58-.6,.95-1.94,1.27-2.91,.65l-.09-.06c-.92-.65-1.16-1.9-.56-2.85m0,26.3c.39-.61,1.05-.98,1.78-.98,.4,0,.79,.11,1.12,.33,.48,.31,.81,.78,.94,1.33,.12,.55,.02,1.11-.28,1.58-.6,.95-1.94,1.27-2.91,.66l-.09-.06c-.92-.65-1.16-1.9-.56-2.85"/><path class="d" d="M145.14,108.64c-1.16-1.36-2.86-2.14-4.65-2.14-1.46,0-2.88,.53-3.98,1.48-1.61,1.38-2.33,3.43-2.09,5.4-1.95,.7-4.26,1.37-5.33,1.33-.82-.04-1.3-.34-2.22-.97-1.17-.79-2.42-1.51-4.15-1.85,2.94-2.76,6.01-6.83,8.58-12.83,2.06-.08,3.98-1.19,5.04-2.97,1.72-2.9,.77-6.66-2.12-8.39-.95-.57-2.03-.86-3.13-.86-2.15,0-4.16,1.14-5.26,2.99-.84,1.41-1.08,3.05-.68,4.64,.35,1.39,1.16,2.59,2.3,3.43-4.05,9.22-9.22,13.08-12.56,14.68-.13,.04-.25,.1-.36,.17-1.19,.53-2.05,.71-2.56,.81v4c.27-.03,1.88-.12,4.25-1.19,5.35-1.36,6.84-.35,8.41,.71,1.02,.69,2.29,1.55,4.26,1.66,.1,0,.2,0,.31,0,2.11,0,5.17-1.02,7.02-1.72,1.14,1.12,2.68,1.75,4.29,1.75,1.46,0,2.88-.53,3.98-1.48,1.24-1.06,1.99-2.55,2.12-4.18,.12-1.63-.39-3.21-1.46-4.45m-15.87-16.78c.39-.65,1.07-1.03,1.82-1.03,.38,0,.75,.11,1.08,.3,1,.6,1.33,1.9,.74,2.9-.39,.65-1.06,1.03-1.82,1.03-.38,0-.75-.11-1.08-.3-.48-.29-.83-.75-.96-1.29-.14-.55-.06-1.12,.23-1.6m12.6,22.36c-.49,.42-1.02,.51-1.37,.51-.62,0-1.21-.27-1.61-.73-.76-.88-.66-2.22,.23-2.98,.49-.42,1.02-.51,1.37-.51,.62,0,1.2,.27,1.61,.74,.37,.43,.55,.98,.5,1.54s-.3,1.07-.73,1.44"/><path class="d" d="M120.97,45.74c.07,.02,.14,.03,.21,.05-.07-.01-.14-.03-.21-.05"/><path class="d" d="M142.92,32.74c-.36-1.6-1.32-2.96-2.71-3.84-.98-.62-2.11-.94-3.26-.94-2.12,0-4.05,1.07-5.17,2.85-1.35,2.14-1.22,4.8,.14,6.76-3.65,4.12-8.71,4.31-9.94,4.29-3.69-1.6-7.23-2.16-10-2.32v4c2.44,.14,5.55,.69,8.75,2.14,0,0,0,0,.01,0,3.45,1.56,6.33,3.93,8.61,7.04-.13,.17-.26,.35-.38,.54-1.8,2.85-.94,6.65,1.9,8.44,.98,.62,2.11,.95,3.27,.95,2.11,0,4.05-1.06,5.18-2.85,1.81-2.85,.95-6.64-1.91-8.45-1.38-.87-3.09-1.11-4.67-.75-1.54-2.16-3.32-4.02-5.34-5.57,2.52-.78,5.4-2.27,7.78-5.09,.57,.17,1.17,.27,1.77,.27,2.12,0,4.05-1.07,5.17-2.85,.87-1.38,1.16-3.01,.8-4.6m-10.57,22.65c.17-.27,.39-.49,.67-.66,.33-.21,.72-.32,1.12-.32s.79,.11,1.12,.32c.99,.63,1.28,1.94,.66,2.92-.39,.62-1.06,.99-1.8,.99-.4,0-.78-.11-1.12-.33-.98-.62-1.28-1.94-.66-2.92m6.38-20.19c-.6,.95-1.94,1.27-2.91,.65l-.1-.06c-.91-.65-1.16-1.9-.56-2.85,.38-.61,1.05-.98,1.78-.98,.4,0,.79,.11,1.12,.33,.48,.31,.81,.77,.94,1.33,.12,.55,.03,1.11-.28,1.58"/><path class="d" d="M151.61,73.73c.42,1.03,1.14,1.96,2.11,2.65,.07,.05,.15,.1,.28,.19,.98,.62,2.11,.95,3.27,.95,2.12,0,4.05-1.07,5.17-2.85,.88-1.38,1.16-3.01,.8-4.61-.36-1.6-1.32-2.96-2.71-3.84-.98-.62-2.11-.94-3.27-.94-.12,0-.25,0-.37,.02-.71-3.16-.92-7.77,.03-11.26,.11,.01,.23,.02,.34,.02,2.12,0,4.05-1.07,5.17-2.85,.88-1.38,1.16-3.01,.8-4.6-.36-1.6-1.32-2.96-2.71-3.84-.98-.62-2.11-.94-3.27-.94-2.11,0-4.05,1.07-5.17,2.85-1.6,2.53-1.12,5.8,1.02,7.77,.02,.02,.05,.04,.07,.06-1.35,4.52-1.14,10.32-.04,14.42-.14,.13-.29,.26-.43,.4-.23,.26-.45,.53-.63,.82-.32,.5-.55,1.03-.71,1.58-3.37,.49-5.2,1.67-6.82,2.73-2.04,1.33-3.96,2.57-9.64,2.67-1.96-.23-3.55-.18-5.29-.12-1.43,.05-2.91,.11-4.85,0-1.34-.07-2.1-.88-3.46-2.42-1.8-2.06-4.22-4.65-9.37-5.02v4c3.29,.3,4.8,1.89,6.36,3.67,1.49,1.69,3.17,3.62,6.26,3.78,2.12,.11,3.76,.05,5.21,0,2.49-.09,4.45-.16,7.85,.68,2.61,.64,12.1,9.67,14.77,14.32-.11,.14-.22,.28-.31,.43-1.74,2.76-1.03,6.39,1.62,8.25,.07,.05,.15,.11,.28,.19,.98,.62,2.11,.95,3.27,.95,2.12,0,4.05-1.07,5.17-2.85,.88-1.37,1.16-3.01,.8-4.6-.36-1.6-1.32-2.96-2.71-3.84-.98-.62-2.11-.94-3.27-.94-.53,0-1.05,.07-1.54,.19-2.56-4.19-8.65-10.45-13.19-13.79,1.81-.63,3.05-1.44,4.21-2.19,1.43-.93,2.61-1.69,4.86-2.07m3.88-26.93c.39-.61,1.05-.98,1.78-.98,.4,0,.79,.11,1.12,.32,.48,.3,.81,.77,.94,1.33,.12,.55,.02,1.11-.28,1.58-.6,.95-1.94,1.27-2.91,.65l-.09-.06c-.92-.65-1.16-1.9-.56-2.85m0,23.46c.39-.62,1.05-.98,1.78-.98,.4,0,.79,.11,1.12,.33,.48,.31,.81,.77,.94,1.33,.12,.55,.02,1.11-.28,1.58-.6,.95-1.94,1.27-2.91,.65l-.09-.06c-.92-.65-1.16-1.9-.56-2.85m0,26.3c.39-.61,1.05-.98,1.78-.98,.4,0,.79,.11,1.12,.33,.48,.31,.81,.78,.94,1.33,.12,.55,.02,1.11-.28,1.58-.6,.95-1.94,1.27-2.91,.66l-.09-.06c-.92-.65-1.16-1.9-.56-2.85"/><g><g class="g"><path d="M90.02,99.35c-.24,0-.49-.07-.71-.22-.56-.39-.69-1.17-.3-1.72,.28-.4,.53-.82,.75-1.25,1.46-2.96,1.27-6.38-.51-9.16-.37-.58-.2-1.34,.37-1.71,.57-.37,1.34-.2,1.71,.37,2.23,3.47,2.47,7.91,.65,11.6-.27,.55-.59,1.08-.94,1.58-.24,.34-.63,.52-1.02,.52"/><path d="M95.7,102.29c-.25,0-.5-.08-.72-.24-.55-.4-.67-1.17-.27-1.73,.46-.63,.87-1.31,1.22-2.02,2.28-4.61,1.79-10.03-1.28-14.16-.41-.55-.29-1.32,.25-1.73,.55-.41,1.32-.29,1.73,.25,3.63,4.88,4.21,11.28,1.51,16.73-.41,.84-.9,1.64-1.45,2.38-.24,.33-.62,.51-1,.51"/><path d="M84.45,96.23c-.2,0-.41-.05-.6-.16-.59-.34-.8-1.09-.47-1.68,.78-1.37,.84-3.04,.18-4.47-.29-.62-.02-1.35,.6-1.64,.62-.29,1.35-.01,1.64,.61,.99,2.15,.89,4.66-.28,6.72-.23,.4-.65,.63-1.08,.63"/></g><g><path class="k" d="M90.02,97.31c-.24,0-.49-.07-.71-.22-.56-.39-.69-1.17-.3-1.72,.28-.4,.53-.82,.75-1.25,1.46-2.96,1.27-6.38-.51-9.16-.37-.58-.2-1.34,.37-1.71,.57-.37,1.34-.2,1.71,.37,2.23,3.47,2.47,7.91,.65,11.6-.27,.55-.59,1.08-.94,1.58-.24,.34-.63,.52-1.02,.52"/><path class="k" d="M95.7,100.25c-.25,0-.5-.08-.72-.24-.55-.4-.67-1.17-.27-1.73,.46-.63,.87-1.31,1.22-2.02,2.28-4.61,1.79-10.03-1.28-14.16-.41-.55-.29-1.32,.25-1.73,.55-.41,1.32-.29,1.73,.25,3.63,4.88,4.21,11.28,1.51,16.73-.41,.84-.9,1.64-1.45,2.38-.24,.33-.62,.51-1,.51"/><path class="k" d="M84.45,94.19c-.2,0-.41-.05-.6-.16-.59-.34-.8-1.09-.47-1.68,.78-1.37,.84-3.04,.18-4.47-.29-.62-.02-1.35,.6-1.64,.62-.29,1.35-.01,1.64,.61,.99,2.15,.89,4.66-.28,6.72-.23,.4-.65,.63-1.08,.63"/></g></g><g><g class="g"><path d="M102.59,40.76c-10.35,0-20.83,3.74-27.34,9.76-7.04,6.51-10.76,16.61-10.58,28.62-1.97,.29-3.49,1.98-3.49,4.03v18.53c0,2.26,1.83,4.09,4.09,4.09h2.08c.32,0,.63-.05,.93-.12v1.64c0,2.26,1.6,4.09,3.57,4.09h1.94c1.97,0,3.57-1.83,3.57-4.09v-30.34c0-2.26-1.6-4.09-3.57-4.09h-1.94c-1.76,0-3.21,1.45-3.51,3.36,.07-1.9,.21-3.73,.44-5.21,1.18-7.4,4.21-13.57,8.88-17.88,5.79-5.35,15.57-8.81,24.91-8.81,1.07,0,3.31,.04,4.37,.15v-3.57c-1.23-.12-3.24-.16-4.37-.16Zm-35.24,60.53c-1.5,0-2.71-1.21-2.71-2.71v-12.28c0-1.5,1.21-2.71,2.71-2.71h.93v17.7h-.93Z"/></g><path class="d" d="M102.59,38.71c-10.35,0-20.83,3.74-27.34,9.76-7.04,6.51-10.76,16.61-10.58,28.62-1.97,.29-3.49,1.98-3.49,4.03v18.53c0,2.26,1.83,4.09,4.09,4.09h2.08c.32,0,.63-.05,.93-.12v1.64c0,2.26,1.6,4.09,3.57,4.09h1.94c1.97,0,3.57-1.83,3.57-4.09v-30.34c0-2.26-1.6-4.09-3.57-4.09h-1.94c-1.76,0-3.21,1.45-3.51,3.36,.07-1.9,.21-3.73,.44-5.21,1.18-7.4,4.21-13.57,8.88-17.88,5.79-5.35,15.57-8.81,24.91-8.81,1.07,0,3.31,.04,4.37,.15v-3.57c-1.23-.12-3.24-.16-4.37-.16Zm-35.24,60.53c-1.5,0-2.71-1.21-2.71-2.71v-12.28c0-1.5,1.21-2.71,2.71-2.71h.93v17.7h-.93Z"/></g></g><g><path class="e" d="M20.1,205.54h20.06v10.92H6.83v-54.61h13.26v43.69Z"/><path class="e" d="M46.71,157.72c0-1.9,.6-3.45,1.81-4.66,1.21-1.21,2.82-1.81,4.83-1.81s3.62,.6,4.83,1.81,1.81,2.76,1.81,4.66-.6,3.42-1.79,4.66c-1.19,1.24-2.81,1.85-4.85,1.85s-3.66-.62-4.85-1.85c-1.19-1.24-1.79-2.79-1.79-4.66Zm12.81,58.73h-12.25v-46.66h12.25v46.66Z"/><path class="e" d="M89.62,203.95c0-1.04-.5-1.99-1.49-2.87-.99-.88-3.2-2.06-6.62-3.56-5.03-2.04-8.49-4.15-10.37-6.34-1.88-2.18-2.82-4.9-2.82-8.15,0-4.08,1.47-7.45,4.42-10.11,2.95-2.66,6.85-3.99,11.71-3.99,5.12,0,9.21,1.32,12.29,3.97,3.08,2.65,4.61,6.2,4.61,10.65h-12.2c0-3.79-1.58-5.69-4.74-5.69-1.29,0-2.36,.4-3.19,1.21s-1.25,1.93-1.25,3.36c0,1.04,.46,1.95,1.38,2.74,.92,.79,3.09,1.92,6.51,3.38,4.97,1.84,8.49,3.89,10.54,6.15s3.08,5.18,3.08,8.78c0,4.17-1.57,7.52-4.7,10.05-3.13,2.53-7.25,3.79-12.33,3.79-3.42,0-6.44-.67-9.06-2-2.62-1.34-4.67-3.2-6.15-5.58-1.48-2.39-2.22-4.96-2.22-7.72h11.6c.06,2.13,.55,3.72,1.49,4.79s2.46,1.59,4.59,1.59c3.28,0,4.92-1.48,4.92-4.44Z"/><path class="e" d="M123.25,158.33v11.47h6.25v9.14h-6.25v23.19c0,1.84,.25,3.11,.75,3.8s1.47,1.04,2.91,1.04c1.18,0,2.14-.1,2.89-.3l-.09,9.49c-2.07,.78-4.31,1.16-6.73,1.16-7.88,0-11.86-4.52-11.94-13.56v-24.82h-5.39v-9.14h5.39v-11.47h12.2Z"/><path class="e" d="M155.04,217.32c-6.27,0-11.16-1.87-14.66-5.61-3.51-3.74-5.26-9.08-5.26-16.04v-3.71c0-7.36,1.61-13.04,4.83-17.03,3.22-4,7.83-5.99,13.84-5.99s10.28,1.87,13.24,5.62c2.96,3.75,4.47,9.29,4.53,16.64v5.98h-24.28c.17,3.46,.93,6,2.29,7.6s3.44,2.4,6.25,2.4c4.08,0,7.49-1.39,10.22-4.18l4.79,7.37c-1.5,2.07-3.67,3.75-6.51,5.02-2.85,1.28-5.94,1.92-9.27,1.92Zm-7.68-28.63h12.2v-1.12c-.06-2.79-.52-4.9-1.38-6.34s-2.36-2.16-4.48-2.16-3.67,.76-4.64,2.29c-.96,1.52-1.53,3.97-1.7,7.33Z"/><path class="e" d="M189.62,169.8l.35,4.61c2.76-3.65,6.37-5.48,10.82-5.48,8.02,0,12.15,5.62,12.38,16.86v30.66h-12.25v-29.75c0-2.64-.4-4.56-1.19-5.76-.79-1.19-2.18-1.79-4.16-1.79-2.21,0-3.94,1.14-5.17,3.41v33.9h-12.25v-46.66h11.47Z"/><path class="k" d="M3.18,285.46v-54.61H21.74c6.38,0,11.24,1.29,14.6,3.87,3.36,2.58,5.04,6.32,5.04,11.23,0,2.78-.61,5.2-1.83,7.27-1.22,2.06-3.02,3.58-5.39,4.55,2.56,.75,4.55,2.18,5.95,4.29,1.41,2.11,2.11,4.7,2.11,7.76,0,5.44-1.58,9.41-4.73,11.91-3.16,2.5-7.91,3.75-14.25,3.75H3.18Zm13.26-31.92h6.38c3.53-.09,5.3-1.97,5.3-5.62,0-2.16-.44-3.69-1.31-4.62-.88-.92-2.22-1.38-4.03-1.38h-6.33v11.62Zm0,9.23v11.76h6.8c1.84,0,3.26-.5,4.24-1.51,.98-1,1.48-2.38,1.48-4.14,0-3.95-1.59-5.99-4.78-6.12h-7.73Z"/><path class="k" d="M73.35,250.57l-4.05-.34c-3.33,0-5.59,1.47-6.77,4.4v30.83h-12.25v-46.66h11.51l.35,5.04c1.93-3.94,4.58-5.91,7.98-5.91,1.38,0,2.5,.19,3.36,.56l-.13,12.08Z"/><path class="k" d="M100.47,285.46c-.35-.72-.69-1.93-1.04-3.62-2.19,2.99-5.15,4.48-8.88,4.48s-7.15-1.29-9.72-3.88c-2.57-2.59-3.86-5.94-3.86-10.05,0-4.89,1.56-8.67,4.68-11.34,3.12-2.67,7.61-4.04,13.48-4.1h3.71v-3.75c0-2.1-.36-3.58-1.08-4.44-.72-.86-1.77-1.29-3.15-1.29-3.05,0-4.57,1.78-4.57,5.35h-12.2c0-4.31,1.62-7.87,4.85-10.67,3.23-2.8,7.32-4.21,12.27-4.21s9.08,1.33,11.88,3.99,4.21,6.46,4.21,11.41v21.95c.06,4.03,.63,7.17,1.72,9.44v.73h-12.29Zm-7.2-8.71c1.35,0,2.5-.27,3.45-.82,.95-.55,1.65-1.19,2.11-1.94v-9.7h-2.93c-2.07,0-3.7,.66-4.89,1.98-1.19,1.32-1.79,3.09-1.79,5.3,0,3.45,1.35,5.17,4.05,5.17Z"/><path class="k" d="M119.88,226.72c0-1.9,.6-3.45,1.81-4.66,1.21-1.21,2.82-1.81,4.83-1.81s3.62,.6,4.83,1.81,1.81,2.76,1.81,4.66-.6,3.42-1.79,4.66c-1.19,1.24-2.81,1.85-4.85,1.85s-3.66-.62-4.85-1.85c-1.19-1.24-1.79-2.79-1.79-4.66Zm12.81,58.73h-12.25v-46.66h12.25v46.66Z"/><path class="k" d="M153.3,238.8l.35,4.61c2.76-3.65,6.37-5.48,10.82-5.48,8.02,0,12.15,5.62,12.38,16.86v30.66h-12.25v-29.75c0-2.64-.4-4.56-1.19-5.76-.79-1.19-2.18-1.79-4.16-1.79-2.21,0-3.94,1.14-5.17,3.41v33.9h-12.25v-46.66h11.47Z"/><path class="k" d="M199.1,275.32h18.46v10.13h-32.95v-7.63l18.03-28.85h-17.59v-10.18h32.26v7.37l-18.2,29.15Z"/></g></g></g></svg>