<?xml version="1.0" encoding="UTF-8"?>
<svg id="Layer_1" data-name="Layer 1" xmlns="http://www.w3.org/2000/svg" width="468.41" height="100" viewBox="0 0 468.41 100">
  <defs>
    <style>
      .cls-1 {
        fill: #282422;
        stroke-width: 0px;
      }
    </style>
  </defs>
  <g>
    <g>
      <path class="cls-1" d="m47.6,2.33v49c3,0,5.09-.51,8.62-2.12h.01c3.81-1.73,7-4.35,9.52-7.79-.15-.19-.29-.39-.42-.6-1.99-3.16-1.04-7.34,2.11-9.34,1.08-.69,2.33-1.05,3.62-1.05,2.33,0,4.47,1.18,5.72,3.15,2,3.15,1.05,7.34-2.1,9.35-1.53.96-3.42,1.23-5.16.83-1.7,2.38-3.67,4.44-5.91,6.15,2.78.86,5.97,2.51,8.6,5.64.63-.19,1.29-.29,1.96-.29,2.34,0,4.48,1.18,5.72,3.15.97,1.52,1.29,3.33.89,5.09-.4,1.77-1.46,3.28-3,4.25-1.08.68-2.33,1.04-3.61,1.04-2.34,0-4.48-1.18-5.72-3.15-1.5-2.36-1.35-5.31.16-7.47-4.03-4.56-9.62-4.77-10.99-4.75-4.08,1.77-6.02,2.9-10.02,2.9v42l41-24V26.33L47.6,2.33Z"/>
      <path class="cls-1" d="m69.68,39.44c.42.26.9.39,1.39.39s.98-.14,1.39-.4c1.22-.77,1.59-2.4.82-3.61-.49-.77-1.32-1.22-2.22-1.22-.5,0-.97.14-1.4.41-1.22.77-1.58,2.39-.81,3.62.21.33.49.6.83.82Z"/>
      <path class="cls-1" d="m74.17,64.65c.49,0,.98-.14,1.39-.41.6-.38,1.01-.96,1.16-1.64.15-.68.03-1.37-.34-1.97-.74-1.17-2.4-1.57-3.61-.81l-.12.08c-1.13.8-1.44,2.35-.69,3.53.48.76,1.3,1.22,2.21,1.22Z"/>
    </g>
    <g>
      <path class="cls-1" d="m16.95,32.85l-3.62-.4v39.22c3.36.55,15.26,2.5,20.23,3.17,5.66.76,7.09,2.81,7.38,5.09h3.67V2.33L3.6,26.33v48l41,24v-16.27h-4.68c-.59,0-1.07-.48-1.07-1.07,0-1.54,0-3.29-5.58-4.04-5.82-.78-21.04-3.3-21.19-3.32-.52-.08-.89-.53-.89-1.05V31.25c0-.3.13-.59.36-.8.23-.2.53-.3.83-.26l4.7.52v-5.79c13.46-3.11,25.13,5.6,25.13,11.88v40.24c0-6.35-11.32-11.37-25.13-10.79v-33.41s-.08.01-.12.01Z"/>
      <path class="cls-1" d="m42.2,48.19v-2.8c0-2.69-7.34-10.12-17.46-10.12h-.04c-.56,0-1.03.44-1.05,1.01-.02.58.24,1.09,1.01,1.09,9.68,0,17.54,8.26,17.54,10.82Z"/>
      <path class="cls-1" d="m24.66,44.65c9.68,0,17.54,8.26,17.54,10.82v-2.8c0-2.69-7.34-10.12-17.46-10.12h-.04c-.56,0-1.03.44-1.05,1.01-.02.58.24,1.09,1.01,1.09Z"/>
      <path class="cls-1" d="m24.66,51.94c9.68,0,17.54,8.26,17.54,10.82v-2.8c0-2.69-7.34-10.12-17.46-10.12h-.04c-.56,0-1.03.44-1.05,1.01-.02.58.24,1.09,1.01,1.09Z"/>
    </g>
  </g>
  <g>
    <path class="cls-1" d="m103.8,74.82V24.46h18.09c6.48,0,11.41,1.19,14.79,3.56,3.38,2.38,5.07,5.82,5.07,10.34,0,2.61-.6,4.83-1.8,6.68-1.2,1.84-2.96,3.21-5.29,4.08,2.63.69,4.65,1.98,6.05,3.87,1.41,1.89,2.11,4.2,2.11,6.92,0,4.94-1.56,8.64-4.69,11.12-3.12,2.48-7.75,3.74-13.89,3.79h-20.44Zm12.14-29.37h6.33c2.65-.02,4.54-.51,5.67-1.46s1.7-2.35,1.7-4.2c0-2.13-.61-3.66-1.83-4.6s-3.19-1.41-5.91-1.41h-5.95v11.66Zm0,7.96v12.07h7.96c2.19,0,3.87-.5,5.05-1.5s1.76-2.42,1.76-4.24c0-4.2-2.09-6.31-6.26-6.33h-8.51Z"/>
    <path class="cls-1" d="m147.49,55.76c0-3.74.73-7.06,2.18-9.98,1.45-2.92,3.54-5.16,6.26-6.73,2.72-1.57,5.92-2.35,9.58-2.35,5.6,0,10.02,1.74,13.25,5.21,3.23,3.47,4.84,8.19,4.84,14.17v.42c0,5.83-1.62,10.46-4.86,13.89-3.24,3.42-7.63,5.14-13.16,5.14s-9.6-1.6-12.83-4.79c-3.23-3.19-4.97-7.52-5.22-12.99l-.03-1.97Zm11.66.73c0,3.46.54,6,1.63,7.61s2.69,2.42,4.81,2.42c4.15,0,6.27-3.19,6.36-9.58v-1.18c0-6.71-2.14-10.07-6.43-10.07-3.9,0-6.01,2.89-6.33,8.68l-.04,2.11Z"/>
    <path class="cls-1" d="m187.27,55.76c0-3.74.73-7.06,2.18-9.98,1.45-2.92,3.54-5.16,6.26-6.73,2.72-1.57,5.92-2.35,9.58-2.35,5.6,0,10.02,1.74,13.25,5.21,3.23,3.47,4.84,8.19,4.84,14.17v.42c0,5.83-1.62,10.46-4.86,13.89-3.24,3.42-7.63,5.14-13.16,5.14s-9.6-1.6-12.83-4.79c-3.23-3.19-4.97-7.52-5.22-12.99l-.03-1.97Zm11.66.73c0,3.46.54,6,1.63,7.61s2.69,2.42,4.81,2.42c4.15,0,6.27-3.19,6.36-9.58v-1.18c0-6.71-2.14-10.07-6.43-10.07-3.9,0-6.01,2.89-6.33,8.68l-.04,2.11Z"/>
    <path class="cls-1" d="m243.55,60.88l-3.29,3.29v10.65h-11.66V21.66h11.66v28.22l1.18-1.56,8.79-10.93h13.97l-13.11,15.39,13.97,22.03h-13.35l-8.16-13.94Z"/>
    <path class="cls-1" d="m267.79,74.82V24.46h18.09c6.48,0,11.41,1.19,14.79,3.56,3.38,2.38,5.07,5.82,5.07,10.34,0,2.61-.6,4.83-1.8,6.68-1.2,1.84-2.96,3.21-5.29,4.08,2.63.69,4.65,1.98,6.05,3.87,1.41,1.89,2.11,4.2,2.11,6.92,0,4.94-1.56,8.64-4.69,11.12-3.12,2.48-7.75,3.74-13.89,3.79h-20.44Zm12.14-29.37h6.33c2.65-.02,4.54-.51,5.67-1.46s1.7-2.35,1.7-4.2c0-2.13-.61-3.66-1.83-4.6s-3.19-1.41-5.91-1.41h-5.95v11.66Zm0,7.96v12.07h7.96c2.19,0,3.87-.5,5.05-1.5s1.76-2.42,1.76-4.24c0-4.2-2.09-6.31-6.26-6.33h-8.51Z"/>
    <path class="cls-1" d="m335.59,47.95l-3.84-.28c-3.67,0-6.02,1.15-7.06,3.46v23.69h-11.66v-37.43h10.93l.38,4.81c1.96-3.67,4.69-5.5,8.2-5.5,1.25,0,2.33.14,3.25.42l-.21,10.83Z"/>
    <path class="cls-1" d="m359.84,74.82c-.42-.76-.78-1.88-1.11-3.36-2.14,2.7-5.14,4.05-8.99,4.05-3.53,0-6.53-1.07-8.99-3.2-2.47-2.13-3.7-4.81-3.7-8.04,0-4.06,1.5-7.12,4.5-9.2,3-2.08,7.36-3.11,13.08-3.11h3.6v-1.98c0-3.45-1.49-5.18-4.46-5.18-2.77,0-4.15,1.37-4.15,4.1h-11.66c0-3.62,1.54-6.55,4.62-8.81,3.08-2.26,7-3.39,11.78-3.39s8.54,1.16,11.31,3.49c2.77,2.33,4.19,5.52,4.25,9.58v16.57c.05,3.44.58,6.07,1.59,7.89v.59h-11.66Zm-7.3-7.61c1.45,0,2.66-.31,3.61-.93.96-.62,1.64-1.33,2.06-2.11v-5.98h-3.39c-4.06,0-6.09,1.82-6.09,5.46,0,1.06.36,1.92,1.07,2.58.71.66,1.62.99,2.73.99Z"/>
    <path class="cls-1" d="m376.27,27.71c0-1.67.6-3.04,1.8-4.11s2.76-1.6,4.67-1.6,3.47.53,4.67,1.6c1.2,1.07,1.8,2.44,1.8,4.11s-.6,3.04-1.8,4.11c-1.2,1.07-2.76,1.6-4.67,1.6s-3.47-.53-4.67-1.6c-1.2-1.07-1.8-2.44-1.8-4.11Zm12.38,47.11h-11.69v-37.43h11.69v37.43Z"/>
    <path class="cls-1" d="m406.53,37.4l.38,4.39c2.58-3.39,6.15-5.08,10.69-5.08,3.9,0,6.81,1.16,8.73,3.49s2.92,5.83,2.99,10.52v24.11h-11.69v-23.62c0-1.89-.38-3.28-1.14-4.17-.76-.89-2.14-1.33-4.15-1.33-2.28,0-3.98.9-5.08,2.7v26.43h-11.66v-37.43h10.93Z"/>
    <path class="cls-1" d="m449.53,65.83h17.05v8.99h-31.79v-6.5l16.6-21.93h-15.88v-8.99h30.68v6.29l-16.67,22.14Z"/>
  </g>
</svg>