<?xml version="1.0" encoding="UTF-8"?>
<svg id="Layer_1" data-name="Layer 1" xmlns="http://www.w3.org/2000/svg" width="554.85" height="150" viewBox="0 0 554.85 150">
  <defs>
    <style>
      .cls-1 {
        fill: #282422;
        stroke-width: 0px;
      }
    </style>
  </defs>
  <g>
    <path class="cls-1" d="m23.83,48.79l-5.42-.6v58.68c5.03.83,22.83,3.74,30.27,4.74,8.47,1.13,10.61,4.2,11.03,7.61h5.49V3.13L4.2,38.13v74l61,35v-24.71h-7c-.88,0-1.6-.72-1.6-1.6,0-2.31,0-4.92-8.35-6.04-8.71-1.16-31.48-4.94-31.71-4.97-.77-.13-1.34-.8-1.34-1.58v-61.83c0-.46.19-.89.53-1.19.34-.3.79-.45,1.24-.4l7.02.78v-8.66c20.13-4.65,37.6,8.38,37.6,17.77v12.85c0-4.03-10.98-15.14-26.12-15.14h-.06c-.84,0-1.54.66-1.57,1.51-.03.87.36,1.63,1.51,1.63,14.48,0,26.24,12.36,26.24,16.2v6.71c0-4.03-10.98-15.14-26.12-15.14h-.06c-.84,0-1.54.66-1.57,1.51-.03.87.36,1.63,1.51,1.63,14.48,0,26.24,12.36,26.24,16.2v6.71c0-4.03-10.98-15.14-26.12-15.14h-.06c-.84,0-1.54.66-1.57,1.51-.03.87.36,1.63,1.51,1.63,14.48,0,26.24,12.36,26.24,16.2v21.37c0-9.5-16.93-17.01-37.6-16.15v-49.97c-.06,0-.12,0-.18,0Z"/>
    <g>
      <path class="cls-1" d="m88.24,95.36c.33.2.71.3,1.08.3.75,0,1.43-.39,1.82-1.03.6-1,.26-2.3-.74-2.9-.33-.19-.7-.3-1.08-.3-.75,0-1.43.39-1.82,1.03-.29.49-.37,1.05-.23,1.6.14.55.48,1.01.96,1.29Z"/>
      <path class="cls-1" d="m114.38,100.07c.97.62,2.31.3,2.91-.65.3-.48.4-1.04.28-1.58-.12-.55-.46-1.03-.94-1.33-.34-.21-.73-.33-1.12-.33-.73,0-1.4.37-1.78.98-.6.95-.36,2.2.56,2.85l.09.06Z"/>
      <path class="cls-1" d="m100.11,114.82c.43-.37.69-.88.73-1.44s-.14-1.11-.5-1.54c-.4-.47-.99-.74-1.61-.74-.36,0-.88.09-1.37.51-.89.76-.99,2.1-.23,2.98.4.47.99.73,1.61.73.36,0,.88-.09,1.37-.51Z"/>
      <path class="cls-1" d="m70.2,3.13v37c2.77.15,6.31.71,10,2.32,1.24.02,6.3-.17,9.94-4.29-1.36-1.96-1.5-4.62-.14-6.76,1.12-1.78,3.06-2.85,5.17-2.85,1.16,0,2.28.33,3.26.94,1.39.88,2.35,2.25,2.71,3.84.36,1.59.07,3.23-.8,4.6-1.12,1.78-3.06,2.85-5.17,2.85-.6,0-1.2-.09-1.77-.27-2.38,2.83-5.26,4.32-7.78,5.1,2.02,1.55,3.81,3.41,5.34,5.57,1.58-.36,3.28-.12,4.67.75,2.86,1.81,3.71,5.6,1.91,8.45-1.13,1.79-3.07,2.85-5.18,2.85-1.16,0-2.29-.33-3.27-.95-2.85-1.8-3.7-5.59-1.9-8.44.12-.19.25-.37.38-.54-2.27-3.11-5.16-5.48-8.61-7.04,0,0-.01,0-.01,0-3.2-1.45-6.31-1.99-8.75-2.14v24c5.15.37,7.57,2.97,9.37,5.02,1.35,1.54,2.12,2.35,3.46,2.42,1.94.1,3.42.05,4.85,0,1.74-.06,3.33-.11,5.29.12,5.67-.09,7.6-1.34,9.64-2.67,1.63-1.06,3.45-2.24,6.82-2.73.16-.54.39-1.08.71-1.58.19-.3.41-.57.63-.82.13-.15.28-.27.43-.4-1.11-4.09-1.31-9.9.04-14.42-.02-.02-.05-.04-.07-.06-2.14-1.96-2.63-5.23-1.02-7.76,1.12-1.78,3.06-2.85,5.17-2.85,1.16,0,2.29.33,3.27.94,1.39.88,2.35,2.25,2.71,3.84.36,1.59.07,3.23-.8,4.6-1.12,1.78-3.06,2.85-5.17,2.85-.11,0-.22-.01-.34-.02-.95,3.5-.75,8.11-.04,11.26.12,0,.25-.02.38-.02,1.16,0,2.29.33,3.27.94,1.39.88,2.35,2.25,2.71,3.84.36,1.59.07,3.23-.8,4.6-1.12,1.78-3.06,2.85-5.17,2.85-1.16,0-2.29-.33-3.27-.95-.13-.09-.21-.14-.28-.19-.97-.69-1.68-1.61-2.11-2.65-2.24.38-3.43,1.14-4.86,2.07-1.16.75-2.4,1.56-4.21,2.19,4.54,3.34,10.63,9.61,13.19,13.79.5-.13,1.01-.2,1.54-.2,1.16,0,2.29.33,3.27.94,1.39.88,2.35,2.25,2.71,3.84.36,1.59.07,3.23-.8,4.6-1.12,1.78-3.06,2.85-5.17,2.85-1.16,0-2.29-.33-3.27-.95-.13-.09-.21-.14-.28-.19-2.65-1.87-3.36-5.5-1.62-8.25.09-.15.21-.29.31-.43-2.67-4.65-12.17-13.68-14.77-14.32-3.4-.84-5.36-.78-7.86-.68-1.45.05-3.09.11-5.21,0-3.08-.17-4.77-2.09-6.26-3.78-1.56-1.78-3.06-3.37-6.36-3.67v42c.51-.1,1.37-.28,2.56-.81.11-.07.23-.12.36-.17,3.35-1.6,8.51-5.47,12.57-14.68-1.14-.84-1.95-2.04-2.3-3.43-.4-1.59-.16-3.23.68-4.64,1.1-1.84,3.11-2.99,5.26-2.99,1.1,0,2.18.3,3.13.86,2.9,1.73,3.85,5.5,2.12,8.39-1.06,1.78-2.98,2.9-5.04,2.97-2.58,6-5.65,10.07-8.58,12.83,1.73.33,2.98,1.05,4.15,1.85.92.63,1.4.93,2.22.97,1.07.03,3.38-.63,5.33-1.33-.24-1.97.47-4.01,2.09-5.4,1.11-.95,2.52-1.48,3.98-1.48,1.79,0,3.48.78,4.65,2.14,1.06,1.24,1.58,2.82,1.46,4.45-.12,1.63-.88,3.11-2.12,4.18-1.11.95-2.52,1.48-3.98,1.48-1.61,0-3.14-.63-4.29-1.75-1.85.7-4.91,1.72-7.02,1.72-.1,0-.21,0-.31,0-1.97-.1-3.24-.96-4.26-1.66-1.57-1.06-3.06-2.07-8.41-.71-2.36,1.07-3.97,1.16-4.25,1.19v29l61-35V38.13L70.2,3.13Z"/>
      <path class="cls-1" d="m114.29,73.71l.09.06c.97.62,2.31.3,2.91-.65.3-.48.4-1.04.28-1.58-.12-.55-.46-1.03-.94-1.33-.34-.21-.73-.33-1.12-.33-.73,0-1.4.37-1.78.98-.6.95-.36,2.2.56,2.85Z"/>
      <path class="cls-1" d="m114.29,50.24l.09.06c.97.62,2.31.3,2.91-.65.3-.48.4-1.04.28-1.58-.12-.55-.46-1.03-.94-1.33-.34-.21-.73-.33-1.12-.33-.73,0-1.4.37-1.78.98-.6.95-.36,2.2.56,2.85Z"/>
      <path class="cls-1" d="m93.95,36.39l.1.06c.97.62,2.31.3,2.91-.65.3-.48.4-1.04.28-1.58-.12-.55-.46-1.03-.94-1.33-.34-.21-.73-.33-1.12-.33-.73,0-1.4.37-1.78.98-.6.95-.36,2.2.56,2.85Z"/>
      <path class="cls-1" d="m92.36,59.23c.73,0,1.4-.37,1.8-.99.62-.98.33-2.29-.66-2.92-.33-.21-.72-.32-1.12-.32s-.79.11-1.12.32c-.28.17-.5.39-.67.66-.62.99-.33,2.3.66,2.92.34.21.73.33,1.12.33Z"/>
    </g>
  </g>
  <g>
    <path class="cls-1" d="m155.47,102.82v-54.74h19.66c7.04,0,12.4,1.29,16.07,3.87,3.67,2.58,5.51,6.33,5.51,11.24,0,2.83-.65,5.25-1.96,7.26-1.3,2-3.22,3.48-5.75,4.44,2.86.75,5.05,2.16,6.58,4.21,1.53,2.06,2.29,4.56,2.29,7.52,0,5.36-1.7,9.39-5.09,12.09-3.4,2.7-8.43,4.07-15.1,4.12h-22.22Zm13.2-31.92h6.88c2.88-.03,4.94-.55,6.17-1.58,1.23-1.03,1.84-2.55,1.84-4.56,0-2.31-.66-3.98-1.99-5-1.33-1.02-3.47-1.53-6.43-1.53h-6.47v12.67Zm0,8.65v13.12h8.65c2.38,0,4.21-.54,5.49-1.64,1.28-1.09,1.92-2.62,1.92-4.61,0-4.56-2.27-6.86-6.8-6.88h-9.25Z"/>
    <path class="cls-1" d="m202.95,82.11c0-4.06.79-7.68,2.37-10.85,1.58-3.17,3.85-5.61,6.8-7.31,2.96-1.7,6.43-2.56,10.41-2.56,6.09,0,10.89,1.89,14.4,5.66,3.51,3.77,5.26,8.91,5.26,15.4v.45c0,6.34-1.76,11.37-5.28,15.1-3.52,3.72-8.29,5.58-14.31,5.58s-10.44-1.74-13.95-5.21c-3.51-3.47-5.4-8.18-5.68-14.12l-.04-2.14Zm12.67.79c0,3.76.59,6.52,1.77,8.27,1.18,1.75,2.92,2.63,5.23,2.63,4.51,0,6.82-3.47,6.92-10.41v-1.28c0-7.29-2.33-10.94-6.99-10.94-4.24,0-6.53,3.15-6.88,9.44l-.04,2.29Z"/>
    <path class="cls-1" d="m246.19,82.11c0-4.06.79-7.68,2.37-10.85,1.58-3.17,3.85-5.61,6.8-7.31,2.96-1.7,6.43-2.56,10.41-2.56,6.09,0,10.89,1.89,14.4,5.66,3.51,3.77,5.26,8.91,5.26,15.4v.45c0,6.34-1.76,11.37-5.28,15.1-3.52,3.72-8.29,5.58-14.31,5.58s-10.44-1.74-13.95-5.21c-3.51-3.47-5.4-8.18-5.68-14.12l-.04-2.14Zm12.67.79c0,3.76.59,6.52,1.77,8.27,1.18,1.75,2.92,2.63,5.23,2.63,4.51,0,6.82-3.47,6.92-10.41v-1.28c0-7.29-2.33-10.94-6.99-10.94-4.24,0-6.53,3.15-6.88,9.44l-.04,2.29Z"/>
    <path class="cls-1" d="m307.36,87.67l-3.57,3.57v11.58h-12.67v-57.79h12.67v30.68l1.28-1.69,9.55-11.88h15.19l-14.25,16.73,15.19,23.95h-14.51l-8.87-15.15Z"/>
    <path class="cls-1" d="m333.72,102.82v-54.74h19.66c7.04,0,12.4,1.29,16.07,3.87,3.67,2.58,5.51,6.33,5.51,11.24,0,2.83-.65,5.25-1.96,7.26-1.3,2-3.22,3.48-5.75,4.44,2.86.75,5.05,2.16,6.58,4.21,1.53,2.06,2.29,4.56,2.29,7.52,0,5.36-1.7,9.39-5.09,12.09-3.4,2.7-8.43,4.07-15.1,4.12h-22.22Zm13.2-31.92h6.88c2.88-.03,4.94-.55,6.17-1.58,1.23-1.03,1.84-2.55,1.84-4.56,0-2.31-.66-3.98-1.99-5-1.33-1.02-3.47-1.53-6.43-1.53h-6.47v12.67Zm0,8.65v13.12h8.65c2.38,0,4.21-.54,5.49-1.64,1.28-1.09,1.92-2.62,1.92-4.61,0-4.56-2.27-6.86-6.8-6.88h-9.25Z"/>
    <path class="cls-1" d="m407.41,73.61l-4.17-.3c-3.99,0-6.54,1.25-7.67,3.76v25.75h-12.67v-40.68h11.88l.41,5.23c2.13-3.98,5.1-5.98,8.91-5.98,1.35,0,2.53.15,3.54.45l-.23,11.77Z"/>
    <path class="cls-1" d="m433.77,102.82c-.45-.83-.85-2.04-1.2-3.65-2.33,2.93-5.59,4.4-9.78,4.4-3.83,0-7.09-1.16-9.78-3.48-2.68-2.32-4.02-5.23-4.02-8.74,0-4.41,1.63-7.75,4.89-10,3.26-2.26,8-3.38,14.21-3.38h3.91v-2.15c0-3.75-1.62-5.63-4.85-5.63-3.01,0-4.51,1.49-4.51,4.46h-12.67c0-3.93,1.67-7.12,5.02-9.58,3.35-2.45,7.61-3.68,12.8-3.68s9.29,1.27,12.29,3.8c3.01,2.53,4.55,6,4.62,10.41v18.01c.05,3.73.63,6.59,1.73,8.57v.64h-12.67Zm-7.93-8.27c1.58,0,2.89-.34,3.93-1.02,1.04-.68,1.79-1.44,2.24-2.29v-6.5h-3.68c-4.41,0-6.62,1.98-6.62,5.94,0,1.15.39,2.09,1.17,2.8.78.71,1.77,1.07,2.97,1.07Z"/>
    <path class="cls-1" d="m451.63,51.62c0-1.82.65-3.3,1.96-4.46,1.3-1.16,3-1.74,5.08-1.74s3.77.58,5.08,1.74c1.3,1.16,1.96,2.65,1.96,4.46s-.65,3.3-1.96,4.46c-1.3,1.16-3,1.74-5.08,1.74s-3.77-.58-5.08-1.74c-1.3-1.16-1.96-2.65-1.96-4.46Zm13.46,51.21h-12.71v-40.68h12.71v40.68Z"/>
    <path class="cls-1" d="m484.52,62.14l.41,4.77c2.81-3.68,6.68-5.53,11.62-5.53,4.24,0,7.4,1.27,9.49,3.8,2.09,2.53,3.18,6.34,3.25,11.43v26.21h-12.71v-25.68c0-2.05-.41-3.56-1.24-4.53-.83-.96-2.33-1.45-4.51-1.45-2.48,0-4.32.98-5.53,2.93v28.72h-12.67v-40.68h11.88Z"/>
    <path class="cls-1" d="m531.26,93.05h18.54v9.78h-34.55v-7.07l18.05-23.84h-17.26v-9.78h33.35v6.84l-18.12,24.06Z"/>
  </g>
</svg>