<?xml version="1.0" encoding="UTF-8"?>
<svg id="Layer_1" data-name="Layer 1" xmlns="http://www.w3.org/2000/svg" width="100" height="100" viewBox="0 0 100 100">
  <defs>
    <style>
      .cls-1 {
        fill: #282422;
        stroke-width: 0px;
      }
    </style>
  </defs>
  <g>
    <path class="cls-1" d="m51.5,2v49c3,0,5.09-.51,8.62-2.12h.01c3.81-1.73,7-4.35,9.52-7.79-.15-.19-.29-.39-.42-.6-1.99-3.16-1.04-7.34,2.11-9.34,1.08-.69,2.33-1.05,3.62-1.05,2.33,0,4.47,1.18,5.72,3.15,2,3.15,1.05,7.34-2.1,9.35-1.53.96-3.42,1.23-5.16.83-1.7,2.38-3.67,4.44-5.91,6.15,2.78.86,5.97,2.51,8.6,5.64.63-.19,1.29-.29,1.96-.29,2.34,0,4.48,1.18,5.72,3.15.97,1.52,1.29,3.33.89,5.09-.4,1.77-1.46,3.28-3,4.25-1.08.68-2.33,1.04-3.61,1.04-2.34,0-4.48-1.18-5.72-3.15-1.5-2.36-1.35-5.31.16-7.47-4.03-4.56-9.62-4.77-10.99-4.75-4.08,1.77-6.02,2.9-10.02,2.9v42l41-24V26L51.5,2Z"/>
    <path class="cls-1" d="m73.58,39.11c.42.26.9.39,1.39.39s.98-.14,1.39-.4c1.22-.77,1.59-2.4.82-3.61-.49-.77-1.32-1.22-2.22-1.22-.5,0-.97.14-1.4.41-1.22.77-1.58,2.39-.81,3.62.21.33.49.6.83.82Z"/>
    <path class="cls-1" d="m78.07,64.32c.49,0,.98-.14,1.39-.41.6-.38,1.01-.96,1.16-1.64.15-.68.03-1.37-.34-1.97-.74-1.17-2.4-1.57-3.61-.81l-.12.08c-1.13.8-1.44,2.35-.69,3.53.48.76,1.3,1.22,2.21,1.22Z"/>
  </g>
  <g>
    <path class="cls-1" d="m20.85,32.52l-3.62-.4v39.22c3.36.55,15.26,2.5,20.23,3.17,5.66.76,7.09,2.81,7.38,5.09h3.67V2L7.5,26v48l41,24v-16.27h-4.68c-.59,0-1.07-.48-1.07-1.07,0-1.54,0-3.29-5.58-4.04-5.82-.78-21.04-3.3-21.19-3.32-.52-.08-.89-.53-.89-1.05V30.92c0-.3.13-.59.36-.8.23-.2.53-.3.83-.26l4.7.52v-5.79c13.46-3.11,25.13,5.6,25.13,11.88v40.24c0-6.35-11.32-11.37-25.13-10.79v-33.41s-.08.01-.12.01Z"/>
    <path class="cls-1" d="m46.1,47.86v-2.8c0-2.69-7.34-10.12-17.46-10.12h-.04c-.56,0-1.03.44-1.05,1.01-.02.58.24,1.09,1.01,1.09,9.68,0,17.54,8.26,17.54,10.82Z"/>
    <path class="cls-1" d="m28.56,44.32c9.68,0,17.54,8.26,17.54,10.82v-2.8c0-2.69-7.34-10.12-17.46-10.12h-.04c-.56,0-1.03.44-1.05,1.01-.02.58.24,1.09,1.01,1.09Z"/>
    <path class="cls-1" d="m28.56,51.61c9.68,0,17.54,8.26,17.54,10.82v-2.8c0-2.69-7.34-10.12-17.46-10.12h-.04c-.56,0-1.03.44-1.05,1.01-.02.58.24,1.09,1.01,1.09Z"/>
  </g>
</svg>