<?xml version="1.0" encoding="UTF-8"?>
<svg id="Layer_1" data-name="Layer 1" xmlns="http://www.w3.org/2000/svg" width="601" height="152" viewBox="0 0 601 152">
  <defs>
    <style>
      .cls-1 {
        fill: #282422;
        stroke-width: 0px;
      }
    </style>
  </defs>
  <path class="cls-1" d="m63.12,92.94c-1.5,3.55-2.99,7.1-4.5,10.64-1.53,3.56-3.08,7.11-4.62,10.67-.53,1.23-1.07,2.45-1.65,3.65-.32.67-.72,1.31-1.11,1.95-.35.56-.79,1.05-1.32,1.45-.81.62-1.73.58-2.46-.13-.32-.31-.6-.68-.85-1.05-.45-.66-.75-1.4-1.03-2.14-.91-2.39-1.78-4.8-2.71-7.18-1.48-3.8-2.99-7.59-4.5-11.38-1.6-4.02-3.23-8.03-4.85-12.04-2.18-5.4-4.37-10.79-6.52-16.21-1.73-4.36-3.4-8.74-5.08-13.12-.63-1.63-1.2-3.28-1.83-4.9-.31-.8-.7-1.57-1.08-2.34-.52-1.08-1.44-1.66-2.57-1.93-.93-.23-1.86-.39-2.82-.44-.36-.02-.72-.1-1.06-.2-.46-.14-.61-.36-.62-.85,0-.57,0-1.13,0-1.7,0-.34.08-.42.43-.51.2-.05.4-.08.6-.08,1.9-.03,3.81-.05,5.71-.06,2.77-.01,5.54-.05,8.3,0,3.11.07,6.21.02,9.32.05.31,0,.63.08.94.13.2.04.31.19.32.39,0,.61,0,1.22,0,1.84,0,.37-.25.58-.55.71-.33.15-.68.25-1.05.26-.82.02-1.63.03-2.45.08-.66.04-1.31.1-1.96.18-.41.05-.79.19-1.14.42-.69.45-1,1.08-.9,1.91.11.93.37,1.82.7,2.69.85,2.3,1.68,4.6,2.56,6.88,1.65,4.29,3.33,8.57,5.01,12.85,1.33,3.37,2.68,6.74,4.03,10.1,1.25,3.13,2.51,6.27,3.77,9.4,1.34,3.32,2.7,6.63,4.05,9.95.44,1.07.87,2.14,1.31,3.21.05.13.1.25.16.37.12.25.32.37.62.35.06-.09.13-.18.17-.28,3.44-7.94,6.88-15.88,10.32-23.82-.46-1.19-.92-2.35-1.36-3.51-1.05-2.75-2.31-5.42-3.48-8.12-1.51-3.47-3.05-6.93-4.56-10.39-1.19-2.72-2.36-5.45-3.54-8.17-.35-.81-.74-1.61-1.22-2.35-.52-.79-1.2-1.35-2.16-1.53-.36-.07-.71-.13-1.07-.2-.33-.07-.67-.13-.99-.23-.31-.1-.49-.31-.49-.66,0-.73,0-1.45.01-2.18,0-.07.03-.13.06-.23.11-.04.23-.09.36-.11.16-.02.32,0,.48,0,5.63,0,11.25,0,16.88,0,.2,0,.41,0,.61.03.15.02.24.12.26.27.01.09.02.18.02.27,0,.73,0,1.45,0,2.18,0,.4-.07.49-.43.57-.53.12-1.06.23-1.6.32-.38.06-.75.15-1.1.32-.52.26-.76.68-.78,1.26-.02.6.15,1.17.35,1.72.39,1.06.8,2.12,1.23,3.16,1.13,2.7,2.28,5.38,3.42,8.07.36.85.72,1.7,1.08,2.56V4L3.18,39v74l61,35v-57.58c-.35.84-.7,1.68-1.06,2.52Z"/>
  <g>
    <g>
      <path class="cls-1" d="m548.06,131.26l2.65-14.76h7l-5.55,25.48h-7.52l-3-13.14-2.86,13.14h-7.5l-5.62-25.48h7.06l2.6,14.74,3.08-14.74h6.5l3.17,14.76Z"/>
      <path class="cls-1" d="m560.2,116.07c0-.92.33-1.67.99-2.26s1.52-.88,2.57-.88,1.91.29,2.57.88.99,1.34.99,2.26-.33,1.67-.99,2.26c-.66.59-1.52.88-2.57.88s-1.91-.29-2.57-.88c-.66-.59-.99-1.34-.99-2.26Zm6.81,25.9h-6.43v-20.58h6.43v20.58Z"/>
      <path class="cls-1" d="m579.22,134.31l-1.81,1.81v5.86h-6.41v-29.23h6.41v15.52l.65-.86,4.83-6.01h7.68l-7.21,8.46,7.68,12.12h-7.34l-4.49-7.67Z"/>
      <path class="cls-1" d="m592.21,116.07c0-.92.33-1.67.99-2.26s1.52-.88,2.57-.88,1.91.29,2.57.88.99,1.34.99,2.26-.33,1.67-.99,2.26c-.66.59-1.52.88-2.57.88s-1.91-.29-2.57-.88c-.66-.59-.99-1.34-.99-2.26Zm6.81,25.9h-6.43v-20.58h6.43v20.58Z"/>
    </g>
    <g>
      <path class="cls-1" d="m168.27,41.97l14.02,43.68,13.97-43.68h19.92v62.79h-15.18v-14.66l1.47-30.01-15.18,44.68h-10l-15.22-44.72,1.47,30.06v14.66h-15.14v-62.79h19.88Z"/>
      <path class="cls-1" d="m247.71,105.62c-7.16,0-12.95-2.13-17.38-6.4-4.43-4.27-6.64-9.83-6.64-16.67v-1.21c0-4.77.88-8.98,2.65-12.63,1.77-3.65,4.35-6.48,7.74-8.47,3.39-2,7.42-3,12.07-3,6.55,0,11.73,2.03,15.52,6.1s5.69,9.74,5.69,17.01v5.65h-28.89c.52,2.62,1.65,4.67,3.41,6.17,1.75,1.5,4.02,2.24,6.81,2.24,4.6,0,8.19-1.61,10.78-4.83l6.64,7.85c-1.81,2.5-4.38,4.49-7.7,5.97s-6.89,2.22-10.72,2.22Zm-1.64-37.17c-4.25,0-6.79,2.82-7.59,8.45h14.66v-1.12c.06-2.33-.53-4.13-1.77-5.41s-3-1.92-5.3-1.92Z"/>
      <path class="cls-1" d="m290.14,46.5v11.6h7.68v10.09h-7.68v21.35c0,1.75.32,2.98.95,3.67.63.69,1.88,1.03,3.75,1.03,1.44,0,2.65-.09,3.62-.26v10.39c-2.62.83-5.35,1.25-8.19,1.25-5,0-8.7-1.18-11.08-3.54-2.39-2.36-3.58-5.94-3.58-10.74v-23.16h-5.95v-10.09h5.95v-11.6h14.53Z"/>
      <path class="cls-1" d="m329.81,104.76c-.52-.95-.98-2.34-1.38-4.18-2.67,3.36-6.41,5.04-11.21,5.04-4.4,0-8.14-1.33-11.21-3.99s-4.61-6-4.61-10.03c0-5.06,1.87-8.88,5.61-11.47,3.74-2.59,9.17-3.88,16.3-3.88h4.48v-2.47c0-4.3-1.85-6.46-5.56-6.46-3.45,0-5.17,1.71-5.17,5.11h-14.53c0-4.51,1.92-8.17,5.76-10.98,3.84-2.81,8.73-4.22,14.68-4.22s10.65,1.45,14.1,4.36c3.45,2.9,5.22,6.89,5.3,11.95v20.66c.06,4.28.72,7.56,1.98,9.83v.73h-14.53Zm-9.1-9.49c1.81,0,3.31-.39,4.51-1.16,1.19-.78,2.05-1.65,2.57-2.63v-7.46h-4.23c-5.06,0-7.59,2.27-7.59,6.81,0,1.32.45,2.39,1.34,3.21.89.82,2.03,1.23,3.41,1.23Z"/>
      <path class="cls-1" d="m351.07,104.76v-62.79h22.55c8.08,0,14.22,1.48,18.44,4.44,4.21,2.96,6.32,7.26,6.32,12.89,0,3.25-.75,6.02-2.24,8.32-1.5,2.3-3.69,4-6.6,5.09,3.28.86,5.79,2.47,7.55,4.83s2.63,5.23,2.63,8.62c0,6.15-1.95,10.77-5.84,13.86-3.9,3.09-9.67,4.66-17.31,4.72h-25.49Zm15.14-36.61h7.89c3.31-.03,5.66-.63,7.07-1.82,1.41-1.18,2.11-2.93,2.11-5.23,0-2.65-.76-4.56-2.29-5.73s-3.98-1.75-7.37-1.75h-7.42v14.53Zm0,9.92v15.05h9.92c2.73,0,4.83-.62,6.3-1.88,1.47-1.25,2.2-3.01,2.2-5.28,0-5.23-2.6-7.86-7.81-7.89h-10.61Z"/>
      <path class="cls-1" d="m435.6,71.26l-4.79-.34c-4.57,0-7.5,1.44-8.8,4.31v29.54h-14.53v-46.66h13.63l.47,5.99c2.44-4.57,5.85-6.86,10.22-6.86,1.55,0,2.9.17,4.05.52l-.26,13.5Z"/>
      <path class="cls-1" d="m465.83,104.76c-.52-.95-.98-2.34-1.38-4.18-2.67,3.36-6.41,5.04-11.21,5.04-4.4,0-8.14-1.33-11.21-3.99s-4.61-6-4.61-10.03c0-5.06,1.87-8.88,5.61-11.47,3.74-2.59,9.17-3.88,16.3-3.88h4.48v-2.47c0-4.3-1.85-6.46-5.56-6.46-3.45,0-5.17,1.71-5.17,5.11h-14.53c0-4.51,1.92-8.17,5.76-10.98,3.84-2.81,8.73-4.22,14.68-4.22s10.65,1.45,14.1,4.36c3.45,2.9,5.22,6.89,5.3,11.95v20.66c.06,4.28.72,7.56,1.98,9.83v.73h-14.53Zm-9.1-9.49c1.81,0,3.31-.39,4.51-1.16,1.19-.78,2.05-1.65,2.57-2.63v-7.46h-4.23c-5.06,0-7.59,2.27-7.59,6.81,0,1.32.45,2.39,1.34,3.21.89.82,2.03,1.23,3.41,1.23Z"/>
      <path class="cls-1" d="m486.31,46.03c0-2.08.75-3.79,2.24-5.12,1.49-1.33,3.43-2,5.82-2s4.33.67,5.82,2c1.49,1.33,2.24,3.04,2.24,5.12s-.75,3.79-2.24,5.12c-1.5,1.33-3.44,2-5.82,2s-4.33-.67-5.82-2c-1.5-1.33-2.24-3.04-2.24-5.12Zm15.44,58.73h-14.58v-46.66h14.58v46.66Z"/>
      <path class="cls-1" d="m524.04,58.1l.47,5.48c3.22-4.23,7.66-6.34,13.33-6.34,4.86,0,8.49,1.45,10.89,4.36,2.4,2.9,3.64,7.27,3.73,13.11v30.06h-14.58v-29.45c0-2.36-.47-4.09-1.42-5.2-.95-1.11-2.67-1.66-5.17-1.66-2.85,0-4.96,1.12-6.34,3.36v32.95h-14.53v-46.66h13.63Z"/>
      <path class="cls-1" d="m577.65,93.55h21.26v11.21h-39.63v-8.11l20.7-27.34h-19.79v-11.21h38.25v7.85l-20.79,27.6Z"/>
    </g>
  </g>
  <g>
    <path class="cls-1" d="m68.92,3.57v73.5c4.48,0,7.61-.77,12.89-3.18h.02c5.69-2.6,10.47-6.52,14.22-11.68-.23-.29-.44-.58-.63-.89-2.97-4.73-1.56-11.02,3.15-14,1.62-1.03,3.49-1.57,5.4-1.57,3.49,0,6.69,1.77,8.55,4.73,2.99,4.73,1.57,11.01-3.14,14.02-2.29,1.44-5.11,1.84-7.71,1.25-2.54,3.57-5.49,6.66-8.83,9.23,4.16,1.29,8.92,3.77,12.85,8.45.94-.29,1.93-.44,2.92-.44,3.49,0,6.69,1.77,8.54,4.72,1.44,2.28,1.92,4.99,1.33,7.63-.59,2.65-2.18,4.92-4.47,6.38-1.62,1.03-3.48,1.57-5.39,1.57-3.49,0-6.69-1.77-8.55-4.73-2.23-3.54-2.01-7.96.24-11.21-6.02-6.84-14.38-7.16-16.42-7.12-6.1,2.66-8.99,4.35-14.96,4.35v63l61.26-36V39.57L68.92,3.57Z"/>
    <path class="cls-1" d="m101.91,59.23c.62.39,1.34.59,2.08.59s1.46-.21,2.07-.6c1.83-1.16,2.38-3.59,1.22-5.42-.73-1.15-1.97-1.84-3.32-1.84-.74,0-1.45.21-2.09.61-1.82,1.16-2.37,3.59-1.21,5.43.31.49.73.91,1.24,1.23Z"/>
    <path class="cls-1" d="m108.61,97.05c.74,0,1.46-.21,2.08-.61.89-.56,1.5-1.44,1.73-2.47.23-1.02.05-2.06-.52-2.95-1.11-1.76-3.59-2.36-5.39-1.21l-.18.12c-1.69,1.2-2.15,3.52-1.03,5.29.71,1.14,1.95,1.83,3.3,1.83Z"/>
  </g>
</svg>