<?xml version="1.0" encoding="UTF-8"?>
<svg id="Layer_1" data-name="Layer 1" xmlns="http://www.w3.org/2000/svg" width="141.59" height="30.68" viewBox="0 0 141.59 30.68">
  <defs>
    <style>
      .cls-1 {
        fill: #282422;
        stroke-width: 0px;
      }
    </style>
  </defs>
  <g>
    <path class="cls-1" d="m38.62,3.21l5.07,15.81,5.06-15.81h7.21v22.72h-5.49v-5.31l.53-10.86-5.49,16.17h-3.62l-5.51-16.18.53,10.88v5.31h-5.48V3.21h7.19Z"/>
    <path class="cls-1" d="m59.44,25.93V3.21h8.16c2.92,0,5.15.54,6.67,1.61,1.52,1.07,2.29,2.63,2.29,4.67,0,1.18-.27,2.18-.81,3.01-.54.83-1.34,1.45-2.39,1.84,1.19.31,2.1.89,2.73,1.75.63.85.95,1.89.95,3.12,0,2.23-.71,3.9-2.11,5.02-1.41,1.12-3.5,1.69-6.27,1.71h-9.22Zm5.48-13.25h2.86c1.2-.01,2.05-.23,2.56-.66s.76-1.06.76-1.89c0-.96-.28-1.65-.83-2.07-.55-.42-1.44-.63-2.67-.63h-2.68v5.26Zm0,3.59v5.45h3.59c.99,0,1.75-.23,2.28-.68.53-.45.8-1.09.8-1.91,0-1.89-.94-2.85-2.82-2.86h-3.84Z"/>
    <path class="cls-1" d="m97.65,17.45l2.61-14.25h5.43l-4.82,22.72h-5.68l-3.04-12.95-2.98,12.95h-5.67l-4.84-22.72h5.45l2.61,14.25,3.12-14.25h4.65l3.17,14.25Z"/>
    <path class="cls-1" d="m107.55,4.67c0-.75.27-1.37.81-1.85s1.24-.72,2.11-.72,1.57.24,2.11.72.81,1.1.81,1.85-.27,1.37-.81,1.85-1.24.72-2.11.72-1.57-.24-2.11-.72-.81-1.1-.81-1.85Zm5.59,21.25h-5.27V9.04h5.27v16.88Z"/>
    <path class="cls-1" d="m123.15,19.64l-1.48,1.48v4.81h-5.26V1.94h5.26v12.73l.53-.7,3.96-4.93h6.3l-5.91,6.94,6.3,9.94h-6.02l-3.68-6.29Z"/>
    <path class="cls-1" d="m133.81,4.67c0-.75.27-1.37.81-1.85s1.24-.72,2.11-.72,1.57.24,2.11.72.81,1.1.81,1.85-.27,1.37-.81,1.85-1.24.72-2.11.72-1.57-.24-2.11-.72-.81-1.1-.81-1.85Zm5.59,21.25h-5.27V9.04h5.27v16.88Z"/>
  </g>
  <g>
    <path class="cls-1" d="m23.22,18.99c.18-.11.3-.28.34-.48.04-.2,0-.4-.1-.58-.22-.35-.71-.46-1.06-.24l-.03.02c-.33.24-.42.69-.2,1.04.14.22.38.36.65.36.15,0,.29-.04.41-.12Z"/>
    <path class="cls-1" d="m15,1v14.19c.88,0,1.5-.15,2.54-.62h0c1.12-.51,2.06-1.28,2.8-2.29-.04-.06-.09-.11-.12-.18-.58-.93-.31-2.16.62-2.75.32-.2.69-.31,1.06-.31.69,0,1.32.35,1.68.93.59.93.31,2.16-.62,2.75-.45.28-1.01.36-1.52.24-.5.7-1.08,1.31-1.74,1.81.82.25,1.76.74,2.53,1.66.19-.06.38-.09.58-.09.69,0,1.32.35,1.68.93.28.45.38.98.26,1.5-.12.52-.43.96-.88,1.25-.32.2-.69.31-1.06.31-.69,0-1.32-.35-1.68-.93-.44-.69-.4-1.56.05-2.2-1.19-1.34-2.83-1.4-3.23-1.4-1.2.52-1.77.85-2.95.85v12.34l12-7v-14L15,1Z"/>
    <path class="cls-1" d="m21.9,11.8c.14,0,.29-.04.41-.12.36-.23.47-.7.24-1.06-.14-.23-.39-.36-.65-.36-.15,0-.29.04-.41.12-.36.23-.47.7-.24,1.06.06.1.14.18.24.24.12.08.26.11.41.11Z"/>
  </g>
  <g>
    <circle class="cls-1" cx="10.34" cy="21.32" r=".46"/>
    <path class="cls-1" d="m12.3,21.32c0,1.08-.88,1.96-1.96,1.96s-1.96-.88-1.96-1.96c0-.36.11-.7.28-.99L4.18,6.73l.25-.15-2.43,1.42v14l12,7v-10.92l-1.85,2.5c.09.23.15.47.15.73Z"/>
    <path class="cls-1" d="m5.03,6.23l.47-.28,4.43,13.44c.13-.03.27-.04.41-.04.26,0,.52.05.75.15l2.92-3.95V1L5.03,6.23Z"/>
  </g>
</svg>