<?xml version="1.0" encoding="UTF-8"?>
<svg id="Layer_1" data-name="Layer 1" xmlns="http://www.w3.org/2000/svg" width="150" height="150" viewBox="0 0 150 150">
  <defs>
    <style>
      .cls-1 {
        fill: #282422;
        stroke-width: 0px;
      }
    </style>
  </defs>
  <path class="cls-1" d="m71.44,91.94c-1.5,3.55-2.99,7.1-4.5,10.64-1.53,3.56-3.08,7.11-4.62,10.67-.53,1.23-1.07,2.45-1.65,3.65-.32.67-.72,1.31-1.11,1.95-.35.56-.79,1.05-1.32,1.45-.81.62-1.73.58-2.46-.13-.32-.31-.6-.68-.85-1.05-.45-.66-.75-1.4-1.03-2.14-.91-2.39-1.78-4.8-2.71-7.18-1.48-3.8-2.99-7.59-4.5-11.38-1.6-4.02-3.23-8.03-4.85-12.04-2.18-5.4-4.37-10.79-6.52-16.21-1.73-4.36-3.4-8.74-5.08-13.12-.63-1.63-1.2-3.28-1.83-4.9-.31-.8-.7-1.57-1.08-2.34-.52-1.08-1.44-1.66-2.57-1.93-.93-.23-1.86-.39-2.82-.44-.36-.02-.72-.1-1.06-.2-.46-.14-.61-.36-.62-.85,0-.57,0-1.13,0-1.7,0-.34.08-.42.43-.51.2-.05.4-.08.6-.08,1.9-.03,3.81-.05,5.71-.06,2.77-.01,5.54-.05,8.3,0,3.11.07,6.21.02,9.32.05.31,0,.63.08.94.13.2.04.31.19.32.39,0,.61,0,1.22,0,1.84,0,.37-.25.58-.55.71-.33.15-.68.25-1.05.26-.82.02-1.63.03-2.45.08-.66.04-1.31.1-1.96.18-.41.05-.79.19-1.14.42-.69.45-1,1.08-.9,1.91.11.93.37,1.82.7,2.69.85,2.3,1.68,4.6,2.56,6.88,1.65,4.29,3.33,8.57,5.01,12.85,1.33,3.37,2.68,6.74,4.03,10.1,1.25,3.13,2.51,6.27,3.77,9.4,1.34,3.32,2.7,6.63,4.05,9.95.44,1.07.87,2.14,1.31,3.21.05.13.1.25.16.37.12.25.32.37.62.35.06-.09.13-.18.17-.28,3.44-7.94,6.88-15.88,10.32-23.82-.46-1.19-.92-2.35-1.36-3.51-1.05-2.75-2.31-5.42-3.48-8.12-1.51-3.47-3.05-6.93-4.56-10.39-1.19-2.72-2.36-5.45-3.54-8.17-.35-.81-.74-1.61-1.22-2.35-.52-.79-1.2-1.35-2.16-1.53-.36-.07-.71-.13-1.07-.2-.33-.07-.67-.13-.99-.23-.31-.1-.49-.31-.49-.66,0-.73,0-1.45.01-2.18,0-.07.03-.13.06-.23.11-.04.23-.09.36-.11.16-.02.32,0,.48,0,5.63,0,11.25,0,16.88,0,.2,0,.41,0,.61.03.15.02.24.12.26.27.01.09.02.18.02.27,0,.73,0,1.45,0,2.18,0,.4-.07.49-.43.57-.53.12-1.06.23-1.6.32-.38.06-.75.15-1.1.32-.52.26-.76.68-.78,1.26-.02.6.15,1.17.35,1.72.39,1.06.8,2.12,1.23,3.16,1.13,2.7,2.28,5.38,3.42,8.07.36.85.72,1.7,1.08,2.56V3L11.5,38v74l61,35v-57.58c-.35.84-.7,1.68-1.06,2.52Z"/>
  <g>
    <path class="cls-1" d="m77.24,3v73.5c4.48,0,7.61-.77,12.89-3.18h.02c5.69-2.6,10.47-6.52,14.22-11.68-.23-.29-.44-.58-.63-.89-2.97-4.73-1.56-11.02,3.15-14,1.62-1.03,3.49-1.57,5.4-1.57,3.49,0,6.69,1.77,8.55,4.73,2.99,4.73,1.57,11.01-3.14,14.02-2.29,1.44-5.11,1.84-7.71,1.25-2.54,3.57-5.49,6.66-8.83,9.23,4.16,1.29,8.92,3.77,12.85,8.45.94-.29,1.93-.44,2.92-.44,3.49,0,6.69,1.77,8.54,4.72,1.44,2.28,1.92,4.99,1.33,7.63-.59,2.65-2.18,4.92-4.48,6.38-1.62,1.03-3.48,1.57-5.39,1.57-3.49,0-6.69-1.77-8.55-4.73-2.23-3.54-2.01-7.96.24-11.21-6.02-6.84-14.38-7.16-16.42-7.12-6.1,2.66-8.99,4.35-14.96,4.35v63l61.26-36V39L77.24,3Z"/>
    <path class="cls-1" d="m116.94,96.48c.74,0,1.46-.21,2.08-.61.89-.56,1.5-1.44,1.73-2.47.23-1.02.05-2.06-.52-2.95-1.11-1.76-3.59-2.36-5.39-1.21l-.18.12c-1.69,1.2-2.15,3.52-1.03,5.29.71,1.14,1.95,1.83,3.3,1.83Z"/>
    <path class="cls-1" d="m110.23,58.66c.62.39,1.34.59,2.08.59s1.46-.21,2.07-.6c1.83-1.16,2.38-3.59,1.22-5.42-.73-1.15-1.97-1.84-3.32-1.84-.74,0-1.45.21-2.09.61-1.82,1.16-2.37,3.59-1.21,5.43.31.49.73.91,1.24,1.23Z"/>
  </g>
</svg>