<?xml version="1.0" encoding="UTF-8"?><svg id="a" xmlns="http://www.w3.org/2000/svg" viewBox="0 0 75 30"><defs><style>.b{fill:#eb743b;}.c{fill:#ba478f;}</style></defs><g><polygon class="c" points="14 1 2 8 2 22 14 29 14 1"/><polygon class="b" points="15 1 27 8 27 22 15 29 15 1"/></g><g><path class="c" d="M37.74,5.24l4.94,13.32,4.9-13.32h6.5V25h-4.94v-4l.51-10.38-5.34,14.39h-3.27l-5.33-14.33,.51,10.33v4h-4.94V5.24h6.46Z"/><path class="b" d="M57.46,25V5.24h7.63c2.63,0,4.66,.47,6.07,1.4,1.41,.93,2.12,2.29,2.12,4.07,0,1-.26,1.87-.77,2.62-.51,.75-1.25,1.31-2.21,1.66,1.11,.28,1.96,.82,2.54,1.61,.59,.79,.88,1.71,.88,2.74,0,1.95-.67,3.38-2.02,4.29s-3.3,1.36-5.87,1.36h-8.38Zm4.92-11.54h3.02c1.98,0,2.97-.69,2.97-2.08,0-.79-.24-1.36-.72-1.7s-1.21-.5-2.2-.5h-3.07v4.27Zm0,3.34v4.24h3.46c.95,0,1.69-.19,2.21-.56,.52-.38,.78-.87,.78-1.48,0-1.42-.87-2.15-2.6-2.2h-3.85Z"/></g></svg>