<?xml version="1.0" encoding="UTF-8"?><svg id="a" xmlns="http://www.w3.org/2000/svg" viewBox="0 0 262.29 100"><defs><style>.b{fill:#fffedb;}.c{fill:#eb743b;}.d{fill:#ba478f;}</style></defs><g><polygon class="c" points="46 2 46 98 87 74 87 26 46 2"/><polygon class="d" points="43 2 2 26 2 74 43 98 43 2"/><path class="b" d="M43,37l-19,11v-8l19-11V14l-22.03,13.29s-.03,.02-.04,.03c-.06,.04-.12,.08-.18,.13-.04,.04-.09,.07-.14,.11-.05,.04-.09,.09-.13,.14-.04,.05-.09,.1-.12,.15-.04,.05-.07,.11-.1,.17-.03,.06-.06,.11-.09,.17-.03,.06-.05,.12-.07,.18-.02,.06-.04,.12-.06,.18-.01,.06-.02,.12-.03,.18,0,.07-.02,.14-.02,.21,0,.02,0,.04,0,.05V63c-2,0-4,0-5.36,1.01-3.12,2.3-4.51,5.9-2.86,8.38,1.65,2.48,5.61,2.76,8.83,.61,1.84-1.22,2.99-3.26,3.38-5,.08-.22,0-15,0-15l19-11v-5Z"/><path class="b" d="M78.28,58.09c-1.24-1.97-3.38-3.15-5.72-3.15-.67,0-1.32,.1-1.96,.29-2.63-3.12-5.82-4.78-8.6-5.64,2.24-1.71,4.21-3.77,5.91-6.15,1.74,.39,3.63,.13,5.16-.83,3.16-2.01,4.1-6.2,2.1-9.35-1.25-1.97-3.39-3.15-5.72-3.15-1.28,0-2.53,.36-3.62,1.05-3.15,1.99-4.09,6.18-2.11,9.34,.13,.21,.27,.4,.42,.6-2.51,3.44-5.71,6.06-9.52,7.79h-.01c-3.53,1.61-5.62,2.12-8.62,2.12v5c4,0,5.93-1.12,10.02-2.9,1.37-.02,6.96,.18,10.99,4.75-1.51,2.16-1.66,5.11-.16,7.47,1.24,1.97,3.38,3.15,5.72,3.15,1.28,0,2.52-.36,3.61-1.04,1.54-.97,2.6-2.48,3-4.25,.4-1.76,.08-3.57-.89-5.09Zm-10.22-23.42c.42-.27,.9-.41,1.4-.41,.9,0,1.73,.46,2.22,1.22,.77,1.21,.4,2.84-.82,3.61-.41,.26-.9,.4-1.39,.4s-.97-.13-1.39-.39c-.34-.21-.62-.49-.83-.82-.77-1.22-.41-2.85,.81-3.62Zm7.06,27.6c-.15,.69-.56,1.27-1.16,1.64-.41,.26-.9,.41-1.39,.41-.91,0-1.73-.46-2.21-1.22-.75-1.18-.44-2.73,.69-3.53l.12-.08c1.21-.77,2.87-.37,3.61,.81,.38,.59,.5,1.29,.34,1.97Z"/></g><g><path class="d" d="M115.85,6.9l8.73,27.21,8.7-27.21h12.41V46h-9.45v-9.13l.91-18.69-9.45,27.82h-6.23l-9.48-27.85,.91,18.72v9.13h-9.43V6.9h12.38Z"/><path class="d" d="M168.57,42.86c-1.92,2.45-4.5,3.68-7.76,3.68s-5.6-.93-7.24-2.78c-1.64-1.85-2.46-4.52-2.46-7.99V16.94h9.05v18.88c0,2.49,1.21,3.73,3.63,3.73,2.08,0,3.55-.74,4.43-2.23V16.94h9.1v29.06h-8.49l-.27-3.14Z"/><path class="d" d="M197.49,37.84c0-.77-.4-1.39-1.21-1.85-.81-.46-2.34-.95-4.59-1.45-2.26-.5-4.12-1.16-5.59-1.97-1.47-.81-2.59-1.8-3.36-2.97-.77-1.16-1.15-2.5-1.15-4,0-2.67,1.1-4.87,3.3-6.59s5.08-2.59,8.65-2.59c3.83,0,6.91,.87,9.24,2.6,2.33,1.74,3.49,4.02,3.49,6.85h-9.08c0-2.33-1.23-3.49-3.68-3.49-.95,0-1.75,.26-2.39,.79-.64,.53-.97,1.19-.97,1.97s.39,1.46,1.18,1.96,2.04,.91,3.77,1.24c1.73,.32,3.25,.71,4.55,1.16,4.37,1.5,6.55,4.2,6.55,8.08,0,2.65-1.18,4.81-3.53,6.47-2.35,1.67-5.4,2.5-9.14,2.5-2.49,0-4.71-.45-6.66-1.34s-3.47-2.11-4.57-3.65-1.64-3.16-1.64-4.86h8.46c.04,1.34,.48,2.32,1.34,2.94,.86,.62,1.96,.93,3.3,.93,1.24,0,2.16-.25,2.78-.75,.62-.5,.93-1.16,.93-1.96Z"/><path class="d" d="M210.38,9.42c0-1.3,.47-2.36,1.4-3.19,.93-.83,2.14-1.24,3.62-1.24s2.7,.41,3.63,1.24c.93,.83,1.4,1.89,1.4,3.19s-.47,2.36-1.4,3.19-2.14,1.24-3.63,1.24-2.69-.41-3.62-1.24-1.4-1.89-1.4-3.19Zm9.61,36.58h-9.08V16.94h9.08v29.06Z"/><path class="d" d="M237.85,39.55c1.27,0,2.26-.34,2.95-1.03,.7-.69,1.04-1.65,1.02-2.89h8.49c0,3.19-1.14,5.8-3.42,7.84-2.28,2.04-5.22,3.06-8.82,3.06-4.23,0-7.56-1.33-9.99-3.97s-3.65-6.32-3.65-11.01v-.38c0-2.94,.54-5.53,1.62-7.77,1.08-2.25,2.64-3.97,4.69-5.18,2.04-1.21,4.46-1.81,7.25-1.81,3.78,0,6.78,1.05,9,3.14,2.22,2.1,3.33,4.93,3.33,8.51h-8.49c0-1.5-.37-2.66-1.1-3.46-.73-.8-1.72-1.21-2.95-1.21-2.35,0-3.72,1.5-4.11,4.49-.12,.95-.19,2.26-.19,3.92,0,2.92,.35,4.94,1.05,6.07,.7,1.13,1.81,1.69,3.33,1.69Z"/><path class="c" d="M103.47,92V52.9h14.05c5.03,0,8.86,.92,11.48,2.77,2.62,1.84,3.93,4.52,3.93,8.03,0,2.02-.46,3.75-1.4,5.18-.93,1.43-2.3,2.49-4.11,3.17,2.04,.54,3.61,1.54,4.7,3.01,1.09,1.47,1.64,3.26,1.64,5.37,0,3.83-1.21,6.71-3.64,8.63-2.43,1.92-6.02,2.9-10.78,2.94h-15.87Zm9.43-22.8h4.91c2.06-.02,3.53-.39,4.4-1.13s1.32-1.82,1.32-3.26c0-1.65-.47-2.84-1.42-3.57-.95-.73-2.48-1.09-4.59-1.09h-4.62v9.05Zm0,6.18v9.37h6.18c1.7,0,3.01-.39,3.92-1.17,.91-.78,1.37-1.88,1.37-3.29,0-3.26-1.62-4.9-4.86-4.91h-6.61Z"/><path class="c" d="M156.11,71.13l-2.98-.21c-2.85,0-4.67,.9-5.48,2.69v18.4h-9.05v-29.06h8.49l.29,3.73c1.52-2.85,3.64-4.27,6.37-4.27,.97,0,1.81,.11,2.52,.32l-.16,8.41Z"/><path class="c" d="M174.93,92c-.32-.59-.61-1.46-.86-2.61-1.67,2.1-3.99,3.14-6.98,3.14-2.74,0-5.07-.83-6.98-2.48-1.92-1.66-2.87-3.74-2.87-6.24,0-3.15,1.16-5.53,3.49-7.14,2.33-1.61,5.71-2.42,10.15-2.42h2.79v-1.54c0-2.68-1.16-4.02-3.46-4.02-2.15,0-3.22,1.06-3.22,3.18h-9.05c0-2.81,1.2-5.09,3.59-6.84,2.39-1.75,5.44-2.63,9.14-2.63s6.63,.9,8.78,2.71c2.15,1.81,3.25,4.29,3.3,7.44v12.86c.04,2.67,.45,4.71,1.24,6.12v.46h-9.05Zm-5.67-5.91c1.13,0,2.06-.24,2.81-.72,.74-.48,1.28-1.03,1.6-1.64v-4.65h-2.63c-3.15,0-4.73,1.42-4.73,4.24,0,.82,.28,1.49,.83,2,.55,.51,1.26,.77,2.12,.77Z"/><path class="c" d="M187.69,55.42c0-1.3,.47-2.36,1.4-3.19,.93-.83,2.14-1.24,3.62-1.24s2.7,.41,3.63,1.24c.93,.83,1.4,1.89,1.4,3.19s-.47,2.36-1.4,3.19-2.14,1.24-3.63,1.24-2.69-.41-3.62-1.24-1.4-1.89-1.4-3.19Zm9.61,36.58h-9.08v-29.06h9.08v29.06Z"/><path class="c" d="M211.19,62.94l.29,3.41c2.01-2.63,4.77-3.95,8.3-3.95,3.03,0,5.29,.9,6.78,2.71,1.49,1.81,2.27,4.53,2.32,8.16v18.72h-9.08v-18.34c0-1.47-.3-2.55-.89-3.24s-1.67-1.03-3.22-1.03c-1.77,0-3.09,.7-3.95,2.09v20.52h-9.05v-29.06h8.49Z"/><path class="c" d="M244.57,85.02h13.24v6.98h-24.68v-5.05l12.89-17.03h-12.33v-6.98h23.82v4.89l-12.94,17.19Z"/></g></svg>