<?xml version="1.0" encoding="utf-8"?>
<!-- Generator: Adobe Illustrator 26.0.3, SVG Export Plug-In . SVG Version: 6.00 Build 0)  -->
<svg version="1.1" id="Layer_1" xmlns="http://www.w3.org/2000/svg" xmlns:xlink="http://www.w3.org/1999/xlink" x="0px" y="0px"
	 viewBox="0 0 433.3 62.6" style="enable-background:new 0 0 433.3 62.6;" xml:space="preserve">
<style type="text/css">
	.st0{display:none;}
	.st1{fill:#BA478F;}
	.st2{fill:#EB743B;}
</style>
<g>
	<path class="st1" d="M20.5,4.7l12.2,38.1L44.9,4.7h17.4v54.7H49V46.7l1.3-26.2L37,59.5h-8.7L15,20.5l1.3,26.2v12.8H3.1V4.7H20.5z"
		/>
	<path class="st1" d="M94.3,55.1c-2.7,3.4-6.3,5.2-10.9,5.2c-4.5,0-7.8-1.3-10.1-3.9c-2.3-2.6-3.4-6.3-3.4-11.2V18.8h12.7v26.4
		c0,3.5,1.7,5.2,5.1,5.2c2.9,0,5-1,6.2-3.1V18.8h12.7v40.7H94.6L94.3,55.1z"/>
	<path class="st1" d="M134.8,48c0-1.1-0.6-1.9-1.7-2.6c-1.1-0.7-3.3-1.3-6.4-2c-3.2-0.7-5.8-1.6-7.8-2.8c-2.1-1.1-3.6-2.5-4.7-4.2
		c-1.1-1.6-1.6-3.5-1.6-5.6c0-3.7,1.5-6.8,4.6-9.2c3.1-2.4,7.1-3.6,12.1-3.6c5.4,0,9.7,1.2,12.9,3.6c3.3,2.4,4.9,5.6,4.9,9.6h-12.7
		c0-3.3-1.7-4.9-5.2-4.9c-1.3,0-2.4,0.4-3.3,1.1s-1.4,1.7-1.4,2.8c0,1.1,0.6,2,1.7,2.7c1.1,0.7,2.9,1.3,5.3,1.7s4.5,1,6.4,1.6
		c6.1,2.1,9.2,5.9,9.2,11.3c0,3.7-1.6,6.7-4.9,9.1c-3.3,2.3-7.6,3.5-12.8,3.5c-3.5,0-6.6-0.6-9.3-1.9c-2.7-1.3-4.9-3-6.4-5.1
		c-1.5-2.2-2.3-4.4-2.3-6.8h11.8c0,1.9,0.7,3.3,1.9,4.1c1.2,0.9,2.7,1.3,4.6,1.3c1.7,0,3-0.4,3.9-1.1
		C134.3,50.1,134.8,49.2,134.8,48z"/>
	<path class="st1" d="M152.8,8.3c0-1.8,0.7-3.3,2-4.5c1.3-1.2,3-1.7,5.1-1.7c2.1,0,3.8,0.6,5.1,1.7c1.3,1.2,2,2.6,2,4.5
		s-0.7,3.3-2,4.5c-1.3,1.2-3,1.7-5.1,1.7c-2.1,0-3.8-0.6-5.1-1.7C153.5,11.6,152.8,10.1,152.8,8.3z M166.3,59.5h-12.7V18.8h12.7
		V59.5z"/>
	<path class="st1" d="M191.3,50.5c1.8,0,3.2-0.5,4.1-1.4s1.5-2.3,1.4-4h11.9c0,4.5-1.6,8.1-4.8,11c-3.2,2.9-7.3,4.3-12.4,4.3
		c-5.9,0-10.6-1.9-14-5.6c-3.4-3.7-5.1-8.8-5.1-15.4v-0.5c0-4.1,0.8-7.7,2.3-10.9c1.5-3.1,3.7-5.6,6.6-7.3c2.9-1.7,6.2-2.5,10.2-2.5
		c5.3,0,9.5,1.5,12.6,4.4c3.1,2.9,4.7,6.9,4.7,11.9h-11.9c0-2.1-0.5-3.7-1.5-4.8c-1-1.1-2.4-1.7-4.1-1.7c-3.3,0-5.2,2.1-5.8,6.3
		c-0.2,1.3-0.3,3.2-0.3,5.5c0,4.1,0.5,6.9,1.5,8.5C187.6,49.7,189.1,50.5,191.3,50.5z"/>
	<path class="st2" d="M214.6,59.5V4.7h19.7c7,0,12.4,1.3,16.1,3.9c3.7,2.6,5.5,6.3,5.5,11.2c0,2.8-0.7,5.3-2,7.3
		c-1.3,2-3.2,3.5-5.8,4.4c2.9,0.8,5.1,2.2,6.6,4.2c1.5,2.1,2.3,4.6,2.3,7.5c0,5.4-1.7,9.4-5.1,12.1c-3.4,2.7-8.4,4.1-15.1,4.1H214.6
		z M227.8,27.6h6.9c2.9,0,4.9-0.6,6.2-1.6c1.2-1,1.8-2.6,1.8-4.6c0-2.3-0.7-4-2-5c-1.3-1-3.5-1.5-6.4-1.5h-6.5V27.6z M227.8,36.2
		v13.1h8.6c2.4,0,4.2-0.5,5.5-1.6c1.3-1.1,1.9-2.6,1.9-4.6c0-4.6-2.3-6.9-6.8-6.9H227.8z"/>
	<path class="st2" d="M288.3,30.3l-4.2-0.3c-4,0-6.5,1.3-7.7,3.8v25.8h-12.7V18.8h11.9l0.4,5.2c2.1-4,5.1-6,8.9-6
		c1.4,0,2.5,0.2,3.5,0.5L288.3,30.3z"/>
	<path class="st2" d="M314.7,59.5c-0.5-0.8-0.9-2-1.2-3.6c-2.3,2.9-5.6,4.4-9.8,4.4c-3.8,0-7.1-1.2-9.8-3.5c-2.7-2.3-4-5.2-4-8.7
		c0-4.4,1.6-7.7,4.9-10c3.3-2.3,8-3.4,14.2-3.4h3.9v-2.2c0-3.8-1.6-5.6-4.8-5.6c-3,0-4.5,1.5-4.5,4.5h-12.7c0-3.9,1.7-7.1,5-9.6
		c3.3-2.5,7.6-3.7,12.8-3.7c5.2,0,9.3,1.3,12.3,3.8c3,2.5,4.5,6,4.6,10.4v18c0,3.7,0.6,6.6,1.7,8.6v0.6H314.7z M306.8,51.2
		c1.6,0,2.9-0.3,3.9-1c1-0.7,1.8-1.4,2.2-2.3v-6.5h-3.7c-4.4,0-6.6,2-6.6,5.9c0,1.2,0.4,2.1,1.2,2.8
		C304.6,50.8,305.6,51.2,306.8,51.2z"/>
	<path class="st2" d="M332.6,8.3c0-1.8,0.7-3.3,2-4.5c1.3-1.2,3-1.7,5.1-1.7c2.1,0,3.8,0.6,5.1,1.7c1.3,1.2,2,2.6,2,4.5
		s-0.7,3.3-2,4.5c-1.3,1.2-3,1.7-5.1,1.7c-2.1,0-3.8-0.6-5.1-1.7C333.2,11.6,332.6,10.1,332.6,8.3z M346,59.5h-12.7V18.8H346V59.5z"
		/>
	<path class="st2" d="M365.5,18.8l0.4,4.8c2.8-3.7,6.7-5.5,11.6-5.5c4.2,0,7.4,1.3,9.5,3.8c2.1,2.5,3.2,6.3,3.3,11.4v26.2h-12.7
		V33.8c0-2.1-0.4-3.6-1.2-4.5c-0.8-1-2.3-1.4-4.5-1.4c-2.5,0-4.3,1-5.5,2.9v28.7h-12.7V18.8H365.5z"/>
	<path class="st2" d="M412.2,49.7h18.5v9.8h-34.6v-7.1l18-23.8H397v-9.8h33.3v6.8L412.2,49.7z"/>
</g>
</svg>
