<svg id="Layer_1" data-name="Layer 1" xmlns="http://www.w3.org/2000/svg" viewBox="0 0 27 30"><defs><style>.cls-1{fill:#eb743b;}.cls-2{fill:#754e37;}.cls-3{fill:#fffedb;}.cls-4{fill:#cfa691;}</style></defs><polygon class="cls-1" points="13.99 1 13.99 29 25.94 22 25.94 8 13.99 1"/><polygon class="cls-2" points="13.11 1 1.15 8 1.15 22 13.11 29 13.11 1"/><path class="cls-3" d="M23.4,17.36a1.94,1.94,0,0,0-1.67-.92,1.88,1.88,0,0,0-.57.09,5.15,5.15,0,0,0-2.51-1.65,8.41,8.41,0,0,0,1.73-1.79,2.06,2.06,0,0,0,1.5-.24,2,2,0,0,0,.62-2.73,2,2,0,0,0-1.67-.92,2,2,0,0,0-1.67,3l.12.17a6.85,6.85,0,0,1-2.77,2.27h0a5.38,5.38,0,0,1-2.51.62v1.46a6.36,6.36,0,0,0,2.92-.85,4.33,4.33,0,0,1,3.2,1.39,2,2,0,0,0,1.62,3.1,2,2,0,0,0,1.06-.31,2,2,0,0,0,.61-2.72Zm-3-6.83a.73.73,0,0,1,.41-.12.74.74,0,0,1,.64.36.76.76,0,0,1-.23,1.05.75.75,0,0,1-.41.12.81.81,0,0,1-.65-.36A.76.76,0,0,1,20.42,10.53Zm2.06,8a.8.8,0,0,1-.34.48.73.73,0,0,1-.41.12.77.77,0,0,1-.44-1.39l0,0a.77.77,0,0,1,1.05.24A.76.76,0,0,1,22.48,18.58Z"/><path class="cls-3" d="M13.11,24.26H11.75a.32.32,0,0,1-.32-.32c0-.45,0-1-1.62-1.17s-6.14-1-6.18-1a.32.32,0,0,1-.27-.31v-12a.32.32,0,0,1,.11-.24.26.26,0,0,1,.24-.07l1.4.15a.31.31,0,0,1,.28.35.3.3,0,0,1-.34.27L4,9.78V21.22c1,.17,4.45.73,5.9.93,1.65.22,2.07.82,2.15,1.48h1.07Z"/><path class="cls-4" d="M12.41,11.06c0-1.84-3.4-4.38-7.33-3.47V19.64c4-.16,7.33,1.3,7.33,3.15Z"/><path class="cls-3" d="M7.31,10.61A.31.31,0,0,0,7,10.9a.27.27,0,0,0,.29.32c2.83,0,5.12,2.41,5.12,3.16v-.82c0-.78-2.14-3-5.09-3Z"/><path class="cls-3" d="M7.31,12.73A.31.31,0,0,0,7,13a.26.26,0,0,0,.29.31c2.83,0,5.12,2.41,5.12,3.16v-.82c0-.78-2.14-2.95-5.09-2.95Z"/><path class="cls-3" d="M7.31,14.86a.31.31,0,0,0-.31.29.27.27,0,0,0,.29.32c2.83,0,5.12,2.41,5.12,3.16v-.82c0-.79-2.14-2.95-5.09-2.95Z"/></svg>