<?xml version="1.0" encoding="utf-8"?>
<!-- Generator: Adobe Illustrator 27.5.0, SVG Export Plug-In . SVG Version: 6.00 Build 0)  -->
<svg version="1.1" id="Layer_1" xmlns="http://www.w3.org/2000/svg" xmlns:xlink="http://www.w3.org/1999/xlink" x="0px" y="0px"
	 viewBox="0 0 150 150" style="enable-background:new 0 0 150 150;" xml:space="preserve">
<style type="text/css">
	.st0{fill:url(#path21_00000092417467400523798150000003135118117911002298_);}
	
		.st1{opacity:0.3;fill-rule:evenodd;clip-rule:evenodd;fill:url(#path23_00000069394692990851351750000000304140722138679940_);enable-background:new    ;}
	.st2{fill:url(#path25_00000060029101601786603660000016007999560148183987_);}
</style>
<g id="g27" transform="translate(50,76)">
	
		<linearGradient id="path21_00000005966180788027303610000007169472975111987621_" gradientUnits="userSpaceOnUse" x1="382.8395" y1="-3073.9033" x2="456.8772" y2="-3073.9033" gradientTransform="matrix(-0.9831 0 0 -1.0172 473.3927 -3126.9189)">
		<stop  offset="0.2609" style="stop-color:#EB743B"/>
		<stop  offset="1" style="stop-color:#C28144"/>
	</linearGradient>
	<path id="path21" style="fill:url(#path21_00000005966180788027303610000007169472975111987621_);" d="M5.2,27.3
		C-2,15-5.5,0.5-5.5-13.9h0.1c0-0.2,0-0.3,0-0.5C-5.3-28,0.2-41.9,11.4-49c4.1-2.6,8.9-4.1,13.8-4.2c0.1,0,0.1,0,0.2,0
		c4.1,6.8,4,13.9,0,21.4c-0.6,0-1.2,0.1-1.8,0.3c-3.2,1.3-5.2,4.8-6.4,8.2c-1.1,3-1.6,6.2-1.6,9.3l0,0.4c0,0.2,0,0.3,0,0.5
		c0.1,8.1,1.6,16.2,4.8,23.6c0.7,1.7,1.5,3.4,2.4,5c-3.2,4.9-7.1,8.6-11.5,10.5C9.4,26.9,7.3,27.3,5.2,27.3L5.2,27.3z M48,31.5
		C48,31.5,48,31.5,48,31.5c2.8-0.4,5.4-1.3,7.9-2.6c6.8-3.9,11.7-10.7,14.9-18c6.7-15.2,6.8-33.7,0.2-49.3
		c6.5-3.4,6.5-10.1,6.5-10.1s6.1,4.4,12.9,1.6c9.1,21.3,8.9,46.4-0.7,67.4C84,32.8,74.9,43.6,63,49.1c-10.4,4.8-22.5,5-33,0.7
		C37.1,45.4,43.2,39.1,48,31.5z"/>
	
		<linearGradient id="path23_00000053531909641618194710000013962427497692989619_" gradientUnits="userSpaceOnUse" x1="-190.9732" y1="-3460.478" x2="-154.2355" y2="-3443.1677" gradientTransform="matrix(-1.1631 0 0 -0.8598 -168.735 -2938.7893)">
		<stop  offset="0" style="stop-color:#000000;stop-opacity:0"/>
		<stop  offset="0.5141" style="stop-color:#000000"/>
		<stop  offset="1" style="stop-color:#000000;stop-opacity:0"/>
	</linearGradient>
	
		<path id="path23" style="opacity:0.3;fill-rule:evenodd;clip-rule:evenodd;fill:url(#path23_00000053531909641618194710000013962427497692989619_);enable-background:new    ;" d="
		M5.2,27.3c-2.5-4.2-4.5-8.6-6.1-13.2C-4,5.1,16.4-1.7,18,3.7c0.7,2.3,1.5,4.6,2.4,6.9c0.7,1.7,1.5,3.4,2.4,5
		c-3.2,4.9-7.1,8.6-11.5,10.5C9.4,26.9,7.3,27.3,5.2,27.3L5.2,27.3z M30.1,49.9c7-4.5,13.1-10.8,18-18.3c0,0,0,0,0-0.1
		c2.7-0.3,5.4-1.2,7.8-2.6c6.8-3.9,19,14.7,7.1,20.2C52.7,53.9,40.5,54.2,30.1,49.9L30.1,49.9z"/>
	
		<linearGradient id="path25_00000072274882059583733310000000301365765354113455_" gradientUnits="userSpaceOnUse" x1="528.5772" y1="-3073.9033" x2="457.4936" y2="-3073.9033" gradientTransform="matrix(-0.9831 0 0 -1.0172 473.3927 -3126.9189)">
		<stop  offset="0" style="stop-color:#45A041"/>
		<stop  offset="0.9679" style="stop-color:#C7824A"/>
	</linearGradient>
	<path id="path25" style="fill:url(#path25_00000072274882059583733310000000301365765354113455_);" d="M56.3-13.9
		c0,15.1-3.8,30.5-11.9,43.1C38.8,37.9,31,45.4,21.5,49.6c-10.6,4.6-23.1,4.5-33.7-0.4c-11.9-5.5-21-16.3-26.6-28.6
		c-9.6-21-9.8-46.1-0.7-67.4c6.8,2.7,12.9-1.6,12.9-1.6s0,6.7,6.5,10.1c-6.7,15.6-6.5,34.1,0.2,49.3c3.2,7.3,8.1,14.1,14.9,18
		C0.4,32,7.1,32.6,13.1,30c8-3.5,13.7-11.1,17.3-19.4C33.6,3.1,35.1-5,35.2-13c0-0.2,0-0.3,0-0.5l0-0.4c0-3.2-0.5-6.4-1.6-9.3
		c-1.3-3.4-3.2-6.9-6.4-8.2c-0.6-0.2-1.2-0.3-1.8-0.3v-21.4c0.1,0,0.1,0,0.2,0c4.8,0.1,9.7,1.5,13.8,4.2c11.2,7.1,16.8,21,16.9,34.6
		C56.2-14.3,56.2-14.1,56.3-13.9L56.3-13.9z"/>
</g>
</svg>
