<?xml version="1.0" encoding="UTF-8"?>
<svg id="Layer_1" data-name="Layer 1" xmlns="http://www.w3.org/2000/svg" width="100" height="100" viewBox="0 0 100 100">
  <defs>
    <style>
      .cls-1 {
        fill: #282422;
        stroke-width: 0px;
      }
    </style>
  </defs>
  <g>
    <path class="cls-1" d="m51.7,2.17v49c3,0,5.09-.51,8.62-2.12h.01c3.81-1.73,7-4.35,9.52-7.79-.15-.19-.29-.39-.42-.6-1.99-3.16-1.04-7.34,2.11-9.34,1.08-.69,2.33-1.05,3.62-1.05,2.33,0,4.47,1.18,5.72,3.15,2,3.15,1.05,7.34-2.1,9.35-1.53.96-3.42,1.23-5.16.83-1.7,2.38-3.67,4.44-5.91,6.15,2.78.86,5.97,2.51,8.6,5.64.63-.19,1.29-.29,1.96-.29,2.34,0,4.48,1.18,5.72,3.15.97,1.52,1.29,3.33.89,5.09-.4,1.77-1.46,3.28-3,4.25-1.08.68-2.33,1.04-3.61,1.04-2.34,0-4.48-1.18-5.72-3.15-1.5-2.36-1.35-5.31.16-7.47-4.03-4.56-9.62-4.77-10.99-4.75-4.08,1.77-6.02,2.9-10.02,2.9v42l41-24V26.17L51.7,2.17Z"/>
    <path class="cls-1" d="m73.78,39.27c.42.26.9.39,1.39.39s.98-.14,1.39-.4c1.22-.77,1.59-2.4.82-3.61-.49-.77-1.32-1.22-2.22-1.22-.5,0-.97.14-1.4.41-1.22.77-1.58,2.39-.81,3.62.21.33.49.6.83.82Z"/>
    <path class="cls-1" d="m78.27,64.49c.49,0,.98-.14,1.39-.41.6-.38,1.01-.96,1.16-1.64.15-.68.03-1.37-.34-1.97-.74-1.17-2.4-1.57-3.61-.81l-.12.08c-1.13.8-1.44,2.35-.69,3.53.48.76,1.3,1.22,2.21,1.22Z"/>
  </g>
  <g>
    <polygon class="cls-1" points="29.5 48.14 48.5 37.14 48.5 29.14 29.5 40.14 29.5 48.14"/>
    <path class="cls-1" d="m7.5,26.14v48l41,24v-56l-19,11s.08,14.78,0,15c-.39,1.74-1.54,3.78-3.38,5-3.23,2.15-7.18,1.87-8.83-.61-1.65-2.48-.26-6.08,2.86-8.38,1.36-1.01,3.36-1.01,5.36-1.01V29.14s0-.03,0-.05c0-.07.01-.14.02-.21,0-.06.01-.12.03-.18.01-.06.04-.12.06-.18.02-.06.04-.12.07-.18.03-.06.06-.11.09-.17.03-.06.06-.11.1-.17.04-.05.08-.1.12-.15.04-.05.08-.1.13-.14.04-.04.09-.08.14-.11.06-.05.11-.09.18-.13.01,0,.03-.02.04-.03l22.03-13.29V2.14L7.5,26.14Z"/>
  </g>
</svg>