<?xml version="1.0" encoding="UTF-8"?>
<svg id="Layer_1" data-name="Layer 1" xmlns="http://www.w3.org/2000/svg" width="502.33" height="100" viewBox="0 0 502.33 100">
  <defs>
    <style>
      .cls-1 {
        fill: #282422;
        stroke-width: 0px;
      }
    </style>
  </defs>
  <g>
    <path class="cls-1" d="m119.95,25.6l11.24,35.04,11.21-35.04h15.98v50.36h-12.18v-11.76l1.18-24.07-12.17,35.83h-8.03l-12.21-35.87,1.18,24.11v11.76h-12.14V25.6h15.95Z"/>
    <path class="cls-1" d="m187.85,71.92c-2.47,3.16-5.8,4.74-10,4.74s-7.21-1.19-9.32-3.58c-2.11-2.39-3.17-5.82-3.17-10.29v-24.25h11.66v24.32c0,3.21,1.56,4.81,4.67,4.81,2.67,0,4.58-.96,5.71-2.87v-26.25h11.73v37.43h-10.93l-.35-4.05Z"/>
    <path class="cls-1" d="m225.1,65.45c0-.99-.52-1.79-1.56-2.39-1.04-.6-3.01-1.22-5.91-1.87-2.91-.65-5.3-1.49-7.2-2.54-1.89-1.05-3.33-2.32-4.32-3.82-.99-1.5-1.49-3.22-1.49-5.15,0-3.44,1.42-6.27,4.25-8.49,2.84-2.23,6.55-3.34,11.14-3.34,4.93,0,8.9,1.12,11.9,3.35,3,2.24,4.5,5.18,4.5,8.82h-11.69c0-3-1.58-4.5-4.74-4.5-1.22,0-2.25.34-3.08,1.02-.83.68-1.25,1.53-1.25,2.54s.51,1.88,1.52,2.53,2.63,1.18,4.86,1.59c2.22.42,4.18.91,5.86,1.49,5.63,1.94,8.44,5.41,8.44,10.41,0,3.41-1.52,6.19-4.55,8.34s-6.96,3.22-11.78,3.22c-3.21,0-6.07-.58-8.58-1.73-2.51-1.15-4.47-2.72-5.88-4.7-1.41-1.98-2.11-4.07-2.11-6.26h10.9c.05,1.73.62,2.99,1.73,3.79,1.11.79,2.52,1.19,4.25,1.19,1.59,0,2.79-.32,3.58-.97.8-.65,1.19-1.49,1.19-2.53Z"/>
    <path class="cls-1" d="m241.71,28.85c0-1.67.6-3.04,1.8-4.11s2.76-1.6,4.67-1.6,3.47.53,4.67,1.6c1.2,1.07,1.8,2.44,1.8,4.11s-.6,3.04-1.8,4.11c-1.2,1.07-2.76,1.6-4.67,1.6s-3.47-.53-4.67-1.6c-1.2-1.07-1.8-2.44-1.8-4.11Zm12.38,47.11h-11.69v-37.43h11.69v37.43Z"/>
    <path class="cls-1" d="m277.09,67.66c1.64,0,2.91-.44,3.8-1.33s1.34-2.13,1.31-3.72h10.93c0,4.1-1.47,7.47-4.41,10.1-2.94,2.63-6.73,3.94-11.36,3.94-5.44,0-9.73-1.71-12.87-5.12-3.14-3.41-4.7-8.14-4.7-14.18v-.48c0-3.78.7-7.12,2.09-10.01,1.39-2.89,3.41-5.12,6.04-6.68,2.63-1.56,5.74-2.33,9.34-2.33,4.87,0,8.73,1.35,11.59,4.05,2.86,2.7,4.29,6.35,4.29,10.96h-10.93c0-1.94-.47-3.42-1.42-4.46-.95-1.04-2.21-1.56-3.81-1.56-3.02,0-4.79,1.93-5.29,5.78-.16,1.22-.24,2.91-.24,5.05,0,3.76.45,6.36,1.35,7.82.9,1.45,2.33,2.18,4.29,2.18Z"/>
    <path class="cls-1" d="m298.61,75.96V25.6h18.09c6.48,0,11.41,1.19,14.79,3.56,3.38,2.38,5.07,5.82,5.07,10.34,0,2.61-.6,4.83-1.8,6.68-1.2,1.84-2.96,3.21-5.29,4.08,2.63.69,4.65,1.98,6.05,3.87,1.41,1.89,2.11,4.2,2.11,6.92,0,4.94-1.56,8.64-4.69,11.12-3.12,2.48-7.75,3.74-13.89,3.79h-20.44Zm12.14-29.37h6.33c2.65-.02,4.54-.51,5.67-1.46s1.7-2.35,1.7-4.2c0-2.13-.61-3.66-1.83-4.6s-3.19-1.41-5.91-1.41h-5.95v11.66Zm0,7.96v12.07h7.96c2.19,0,3.87-.5,5.05-1.5s1.76-2.42,1.76-4.24c0-4.2-2.09-6.31-6.26-6.33h-8.51Z"/>
    <path class="cls-1" d="m366.4,49.09l-3.84-.28c-3.67,0-6.02,1.15-7.06,3.46v23.69h-11.66v-37.43h10.93l.38,4.81c1.96-3.67,4.69-5.5,8.2-5.5,1.25,0,2.33.14,3.25.42l-.21,10.83Z"/>
    <path class="cls-1" d="m390.65,75.96c-.42-.76-.78-1.88-1.11-3.36-2.14,2.7-5.14,4.05-8.99,4.05-3.53,0-6.53-1.07-8.99-3.2-2.47-2.13-3.7-4.81-3.7-8.04,0-4.06,1.5-7.12,4.5-9.2,3-2.08,7.36-3.11,13.08-3.11h3.6v-1.98c0-3.45-1.49-5.18-4.46-5.18-2.77,0-4.15,1.37-4.15,4.1h-11.66c0-3.62,1.54-6.55,4.62-8.81,3.08-2.26,7-3.39,11.78-3.39s8.54,1.16,11.31,3.49c2.77,2.33,4.19,5.52,4.25,9.58v16.57c.05,3.44.58,6.07,1.59,7.89v.59h-11.66Zm-7.3-7.61c1.45,0,2.66-.31,3.61-.93.96-.62,1.64-1.33,2.06-2.11v-5.98h-3.39c-4.06,0-6.09,1.82-6.09,5.46,0,1.06.36,1.92,1.07,2.58.71.66,1.62.99,2.73.99Z"/>
    <path class="cls-1" d="m407.08,28.85c0-1.67.6-3.04,1.8-4.11s2.76-1.6,4.67-1.6,3.47.53,4.67,1.6c1.2,1.07,1.8,2.44,1.8,4.11s-.6,3.04-1.8,4.11c-1.2,1.07-2.76,1.6-4.67,1.6s-3.47-.53-4.67-1.6c-1.2-1.07-1.8-2.44-1.8-4.11Zm12.38,47.11h-11.69v-37.43h11.69v37.43Z"/>
    <path class="cls-1" d="m437.35,38.54l.38,4.39c2.58-3.39,6.15-5.08,10.69-5.08,3.9,0,6.81,1.16,8.73,3.49s2.92,5.83,2.99,10.52v24.11h-11.69v-23.62c0-1.89-.38-3.28-1.14-4.17-.76-.89-2.14-1.33-4.15-1.33-2.28,0-3.98.9-5.08,2.7v26.43h-11.66v-37.43h10.93Z"/>
    <path class="cls-1" d="m480.34,66.97h17.05v8.99h-31.79v-6.5l16.6-21.93h-15.88v-8.99h30.68v6.29l-16.67,22.14Z"/>
  </g>
  <g>
    <path class="cls-1" d="m47.6,2.33v49c3,0,5.09-.51,8.62-2.12h.01c3.81-1.73,7-4.35,9.52-7.79-.15-.19-.29-.39-.42-.6-1.99-3.16-1.04-7.34,2.11-9.34,1.08-.69,2.33-1.05,3.62-1.05,2.33,0,4.47,1.18,5.72,3.15,2,3.15,1.05,7.34-2.1,9.35-1.53.96-3.42,1.23-5.16.83-1.7,2.38-3.67,4.44-5.91,6.15,2.78.86,5.97,2.51,8.6,5.64.63-.19,1.29-.29,1.96-.29,2.34,0,4.48,1.18,5.72,3.15.97,1.52,1.29,3.33.89,5.09-.4,1.77-1.46,3.28-3,4.25-1.08.68-2.33,1.04-3.61,1.04-2.34,0-4.48-1.18-5.72-3.15-1.5-2.36-1.35-5.31.16-7.47-4.03-4.56-9.62-4.77-10.99-4.75-4.08,1.77-6.02,2.9-10.02,2.9v42l41-24V26.33L47.6,2.33Z"/>
    <path class="cls-1" d="m69.68,39.44c.42.26.9.39,1.39.39s.98-.14,1.39-.4c1.22-.77,1.59-2.4.82-3.61-.49-.77-1.32-1.22-2.22-1.22-.5,0-.97.14-1.4.41-1.22.77-1.58,2.39-.81,3.62.21.33.49.6.83.82Z"/>
    <path class="cls-1" d="m74.17,64.65c.49,0,.98-.14,1.39-.41.6-.38,1.01-.96,1.16-1.64.15-.68.03-1.37-.34-1.97-.74-1.17-2.4-1.57-3.61-.81l-.12.08c-1.13.8-1.44,2.35-.69,3.53.48.76,1.3,1.22,2.21,1.22Z"/>
  </g>
  <g>
    <polygon class="cls-1" points="25.2 48.14 44.2 37.14 44.2 29.14 25.2 40.14 25.2 48.14"/>
    <path class="cls-1" d="m3.2,26.14v48l41,24v-56l-19,11s.08,14.78,0,15c-.39,1.74-1.54,3.78-3.38,5-3.23,2.15-7.18,1.87-8.83-.61-1.65-2.48-.26-6.08,2.86-8.38,1.36-1.01,3.36-1.01,5.36-1.01V29.14s0-.03,0-.05c0-.07.01-.14.02-.21,0-.06.01-.12.03-.18.01-.06.04-.12.06-.18.02-.06.04-.12.07-.18.03-.06.06-.11.09-.17.03-.06.06-.11.1-.17.04-.05.08-.1.12-.15.04-.05.08-.1.13-.14.04-.04.09-.08.14-.11.06-.05.11-.09.18-.13.01,0,.03-.02.04-.03l22.03-13.29V2.14L3.2,26.14Z"/>
  </g>
</svg>