<?xml version="1.0" encoding="UTF-8"?><svg xmlns="http://www.w3.org/2000/svg" width="333.52" height="305" viewBox="0 0 333.52 305"><defs><style>.cls-1{fill:#000;}.cls-1,.cls-2,.cls-3,.cls-4,.cls-5,.cls-6,.cls-7{stroke-width:0px;}.cls-8{mix-blend-mode:multiply;opacity:.07;}.cls-9{isolation:isolate;}.cls-2{fill:#d3562c;}.cls-3{fill:#20656c;}.cls-4{fill:#fffedb;}.cls-5{fill:#579ca0;}.cls-6{fill:#eb743b;}.cls-7{fill:#264346;}</style></defs><g class="cls-9"><g id="Layer_1"><path class="cls-3" d="M40.11,198.39h-17.81v11.76h21.19v10.92H9.03v-54.61h34.5v11.06h-21.23v9.84h17.81v11.02Z"/><path class="cls-3" d="M65.06,203.83l5.91-29.41h12.72l-12.81,46.66h-11.64l-12.85-46.66h12.76l5.91,29.41Z"/><path class="cls-3" d="M107.71,221.94c-6.27,0-11.15-1.87-14.66-5.61s-5.26-9.08-5.26-16.04v-3.71c0-7.36,1.61-13.04,4.83-17.03,3.22-4,7.83-5.99,13.84-5.99s10.28,1.87,13.24,5.62,4.47,9.29,4.53,16.64v5.98h-24.28c.17,3.46.93,6,2.29,7.6s3.44,2.4,6.25,2.4c4.08,0,7.49-1.39,10.22-4.18l4.79,7.37c-1.5,2.07-3.67,3.75-6.51,5.02-2.85,1.28-5.94,1.92-9.27,1.92ZM100.03,193.31h12.2v-1.12c-.06-2.79-.52-4.9-1.38-6.34-.86-1.44-2.36-2.16-4.48-2.16s-3.67.76-4.64,2.29c-.96,1.52-1.53,3.97-1.7,7.33Z"/><path class="cls-3" d="M142.29,174.42l.35,4.61c2.76-3.65,6.37-5.48,10.82-5.48,8.02,0,12.15,5.62,12.38,16.86v30.66h-12.25v-29.75c0-2.64-.4-4.56-1.19-5.76-.79-1.19-2.18-1.79-4.16-1.79-2.21,0-3.94,1.14-5.18,3.41v33.9h-12.25v-46.66h11.47Z"/><path class="cls-3" d="M188.78,162.95v11.47h6.25v9.14h-6.25v23.19c0,1.84.25,3.11.75,3.8.5.69,1.47,1.04,2.91,1.04,1.18,0,2.14-.1,2.89-.3l-.09,9.49c-2.07.78-4.31,1.16-6.73,1.16-7.88,0-11.86-4.52-11.94-13.56v-24.82h-5.39v-9.14h5.39v-11.47h12.2Z"/><path class="cls-3" d="M250.63,210.72h-16.12l-2.95,10.36h-13.27l18.05-54.61h12.42l18.23,54.61h-13.31l-3.05-10.36ZM237.41,200.74h10.27l-5.2-17.62-5.06,17.62Z"/><path class="cls-3" d="M295.16,186.19l-4.05-.34c-3.33,0-5.59,1.47-6.77,4.4v30.83h-12.25v-46.66h11.51l.35,5.04c1.93-3.94,4.59-5.91,7.98-5.91,1.38,0,2.5.19,3.36.56l-.13,12.08Z"/><path class="cls-3" d="M317.76,162.95v11.47h6.25v9.14h-6.25v23.19c0,1.84.25,3.11.75,3.8.5.69,1.47,1.04,2.91,1.04,1.18,0,2.14-.1,2.89-.3l-.09,9.49c-2.07.78-4.31,1.16-6.73,1.16-7.88,0-11.86-4.52-11.94-13.56v-24.82h-5.39v-9.14h5.39v-11.47h12.2Z"/><path class="cls-6" d="M65.36,289.72h-16.12l-2.95,10.36h-13.27l18.05-54.61h12.42l18.23,54.61h-13.31l-3.05-10.36ZM52.14,279.74h10.27l-5.2-17.62-5.06,17.62Z"/><path class="cls-6" d="M109.89,265.19l-4.05-.34c-3.33,0-5.59,1.47-6.77,4.4v30.83h-12.25v-46.66h11.51l.35,5.04c1.93-3.94,4.59-5.91,7.98-5.91,1.38,0,2.5.19,3.36.56l-.13,12.08Z"/><path class="cls-6" d="M132.19,290.81c3.54,0,5.33-2.3,5.39-6.9h11.47c-.06,5.09-1.62,9.2-4.7,12.33-3.08,3.13-7.04,4.7-11.9,4.7-6.01,0-10.59-1.87-13.76-5.61s-4.77-9.24-4.83-16.52v-3.71c0-7.33,1.56-12.92,4.68-16.77s7.72-5.78,13.82-5.78c5.15,0,9.2,1.59,12.16,4.77,2.96,3.18,4.47,7.68,4.53,13.52h-11.47c-.03-2.62-.46-4.63-1.29-6.04-.83-1.41-2.21-2.11-4.14-2.11-2.13,0-3.65.75-4.57,2.26-.92,1.51-1.41,4.43-1.46,8.78v4.74c0,3.79.19,6.45.56,7.96.37,1.51.99,2.62,1.85,3.32.86.71,2.08,1.06,3.67,1.06Z"/><path class="cls-6" d="M167.85,257.52c2.64-3.31,5.89-4.96,9.75-4.96,4.25,0,7.49,1.5,9.7,4.49,2.21,2.99,3.33,7.45,3.36,13.37v29.67h-12.25v-29.54c0-2.73-.43-4.71-1.27-5.93s-2.22-1.83-4.12-1.83c-2.21,0-3.94,1.02-5.18,3.06v34.24h-12.2v-66.24h12.2v23.67Z"/><path class="cls-6" d="M199.42,241.35c0-1.9.61-3.45,1.81-4.66,1.21-1.21,2.82-1.81,4.83-1.81s3.62.6,4.83,1.81c1.21,1.21,1.81,2.76,1.81,4.66s-.6,3.42-1.79,4.66c-1.19,1.24-2.81,1.85-4.85,1.85s-3.66-.62-4.85-1.85c-1.19-1.24-1.79-2.79-1.79-4.66ZM212.23,300.08h-12.25v-46.66h12.25v46.66Z"/><path class="cls-6" d="M236.98,282.83l5.91-29.41h12.72l-12.81,46.66h-11.64l-12.85-46.66h12.76l5.91,29.41Z"/><path class="cls-6" d="M279.63,300.94c-6.27,0-11.16-1.87-14.66-5.61-3.51-3.74-5.26-9.08-5.26-16.04v-3.71c0-7.36,1.61-13.04,4.83-17.03,3.22-4,7.83-5.99,13.84-5.99s10.28,1.87,13.24,5.62c2.96,3.75,4.47,9.29,4.53,16.64v5.98h-24.28c.17,3.46.93,6,2.29,7.6s3.44,2.4,6.25,2.4c4.08,0,7.49-1.39,10.22-4.18l4.79,7.37c-1.5,2.07-3.67,3.75-6.51,5.02-2.85,1.28-5.94,1.92-9.27,1.92ZM271.95,272.31h12.21v-1.12c-.06-2.79-.52-4.9-1.38-6.34-.86-1.44-2.36-2.16-4.48-2.16s-3.67.76-4.63,2.29c-.96,1.52-1.53,3.97-1.71,7.33Z"/><polygon class="cls-6" points="167.45 7.08 167.45 151.08 228.45 116.08 228.45 42.08 167.45 7.08"/><polygon class="cls-3" points="162.45 7.08 101.45 42.08 101.45 116.08 162.45 151.08 162.45 7.08"/><g class="cls-8"><path class="cls-1" d="M184.75,98.81c.39-.64,1.07-1.03,1.82-1.03.38,0,.75.1,1.08.3,1,.6,1.33,1.9.74,2.9-.38.65-1.06,1.03-1.82,1.03-.38,0-.75-.1-1.08-.3-.48-.29-.83-.75-.96-1.29-.14-.55-.06-1.12.23-1.6ZM197.35,121.18c-.49.42-1.02.51-1.37.51-.62,0-1.21-.27-1.61-.73-.76-.88-.65-2.22.23-2.98.49-.42,1.02-.51,1.37-.51.62,0,1.2.27,1.61.74.37.43.55.98.5,1.54s-.3,1.07-.73,1.44Z"/><path class="cls-1" d="M176.45,52.69c.07.02.14.03.21.05-.07-.01-.14-.03-.21-.05Z"/><path class="cls-1" d="M187.83,62.34c.17-.27.39-.49.67-.66.34-.21.72-.32,1.12-.32s.79.11,1.12.32c.99.63,1.28,1.94.66,2.92-.39.62-1.06.99-1.79.99-.4,0-.79-.11-1.12-.33-.98-.62-1.28-1.94-.66-2.92ZM194.21,42.15c-.6.95-1.94,1.27-2.91.65l-.1-.06c-.91-.65-1.16-1.9-.56-2.85.39-.61,1.05-.98,1.78-.98.4,0,.79.11,1.12.33.48.3.81.78.94,1.33.12.55.03,1.11-.28,1.58Z"/><path class="cls-1" d="M210.98,53.75c.39-.61,1.05-.98,1.78-.98.4,0,.79.11,1.12.33.48.3.81.78.94,1.33.12.55.02,1.11-.28,1.58-.6.95-1.94,1.27-2.91.65l-.09-.06c-.92-.65-1.16-1.9-.56-2.85ZM210.98,77.21c.39-.61,1.05-.98,1.78-.98.4,0,.79.11,1.12.33.48.3.81.77.94,1.33.12.55.02,1.11-.28,1.58-.6.95-1.94,1.27-2.91.65l-.09-.06c-.92-.65-1.16-1.9-.56-2.85ZM210.98,103.51c.39-.61,1.05-.98,1.78-.98.4,0,.79.11,1.12.33.48.3.81.78.94,1.33.12.55.02,1.11-.28,1.58-.6.95-1.94,1.27-2.91.65l-.09-.06c-.92-.65-1.16-1.9-.56-2.85Z"/><path class="cls-1" d="M200.63,113.18c-1.17-1.36-2.86-2.14-4.65-2.14-1.46,0-2.88.53-3.98,1.48-1.61,1.38-2.33,3.43-2.09,5.4-1.95.7-4.26,1.37-5.33,1.33-.82-.04-1.3-.35-2.22-.97-1.17-.8-2.42-1.51-4.15-1.85,2.94-2.76,6.01-6.83,8.58-12.83,2.06-.08,3.98-1.19,5.04-2.97,1.72-2.9.77-6.66-2.12-8.39-.95-.57-2.03-.86-3.13-.86-2.15,0-4.16,1.14-5.26,2.99-.84,1.41-1.08,3.05-.68,4.64.35,1.39,1.16,2.59,2.3,3.43-4.05,9.22-9.22,13.08-12.57,14.68-.13.04-.25.1-.36.17-1.19.53-2.05.7-2.56.81v4c.28-.03,1.88-.12,4.25-1.19,5.35-1.36,6.84-.35,8.41.71,1.02.69,2.29,1.55,4.26,1.66.1,0,.2,0,.31,0,2.11,0,5.17-1.02,7.02-1.72,1.14,1.12,2.68,1.75,4.29,1.75h0c1.46,0,2.88-.52,3.98-1.48,1.24-1.06,1.99-2.55,2.12-4.18.12-1.63-.39-3.21-1.46-4.45ZM184.75,96.41c.39-.64,1.07-1.03,1.82-1.03.38,0,.75.1,1.08.3,1,.6,1.33,1.9.74,2.9-.38.65-1.06,1.03-1.82,1.03-.38,0-.75-.1-1.08-.3-.48-.29-.83-.75-.96-1.29-.14-.55-.06-1.12.23-1.6ZM197.35,118.77c-.49.42-1.02.51-1.37.51-.62,0-1.21-.27-1.61-.73-.76-.88-.65-2.22.23-2.98.49-.42,1.02-.51,1.37-.51.62,0,1.2.27,1.61.74.37.43.55.98.5,1.54s-.3,1.07-.73,1.44Z"/><path class="cls-1" d="M176.45,50.29c.07.02.14.03.21.05-.07-.01-.14-.03-.21-.05Z"/><path class="cls-1" d="M198.4,37.28c-.36-1.6-1.32-2.96-2.71-3.84-.98-.62-2.11-.94-3.26-.94-2.12,0-4.05,1.07-5.17,2.85-1.35,2.14-1.22,4.8.14,6.76-3.65,4.12-8.71,4.31-9.94,4.29-3.69-1.6-7.23-2.16-10-2.32v4c2.44.14,5.55.69,8.75,2.14,0,0,0,0,.01,0,3.45,1.56,6.33,3.93,8.61,7.04-.14.17-.26.35-.38.54-1.8,2.85-.94,6.64,1.9,8.44.98.62,2.11.95,3.27.95,2.11,0,4.05-1.07,5.18-2.85,1.81-2.85.95-6.64-1.91-8.45-1.38-.87-3.09-1.11-4.67-.75-1.54-2.15-3.32-4.02-5.34-5.57,2.52-.78,5.4-2.27,7.78-5.1.57.17,1.17.27,1.77.27,2.12,0,4.05-1.07,5.17-2.85.88-1.38,1.16-3.01.8-4.6ZM187.83,59.93c.17-.27.39-.49.67-.66.34-.21.72-.32,1.12-.32s.79.11,1.12.32c.99.63,1.28,1.94.66,2.92-.39.62-1.06.99-1.79.99-.4,0-.79-.11-1.12-.33-.98-.62-1.28-1.94-.66-2.92ZM194.21,39.74c-.6.95-1.94,1.27-2.91.65l-.1-.06c-.91-.65-1.16-1.9-.56-2.85.39-.61,1.05-.98,1.78-.98.4,0,.79.11,1.12.33.48.3.81.78.94,1.33.12.55.03,1.11-.28,1.58Z"/><path class="cls-1" d="M207.1,78.27c.42,1.04,1.14,1.96,2.11,2.65.07.05.15.11.28.19.98.62,2.11.95,3.27.95,2.12,0,4.05-1.07,5.17-2.85.88-1.38,1.16-3.01.8-4.6-.36-1.6-1.32-2.96-2.71-3.84-.98-.62-2.11-.94-3.27-.94-.12,0-.25,0-.38.02-.71-3.16-.92-7.77.04-11.26.11.01.22.02.34.02,2.12,0,4.05-1.07,5.17-2.85.88-1.38,1.16-3.01.8-4.6-.36-1.6-1.32-2.96-2.71-3.84-.98-.62-2.11-.94-3.27-.94-2.11,0-4.05,1.07-5.17,2.85-1.6,2.53-1.12,5.8,1.02,7.76.02.02.05.04.07.06-1.35,4.52-1.15,10.32-.04,14.42-.14.13-.29.25-.43.4-.23.25-.45.53-.63.82-.32.5-.55,1.03-.71,1.58-3.37.49-5.2,1.67-6.82,2.73-2.04,1.32-3.96,2.57-9.64,2.67-1.96-.23-3.55-.18-5.29-.12-1.43.05-2.91.11-4.85,0-1.33-.07-2.1-.88-3.46-2.42-1.8-2.05-4.22-4.65-9.37-5.02v4c3.29.3,4.8,1.89,6.36,3.67,1.49,1.69,3.17,3.62,6.26,3.78,2.12.11,3.76.05,5.21,0,2.49-.09,4.45-.16,7.86.68,2.61.64,12.1,9.67,14.77,14.32-.11.14-.22.28-.31.43-1.74,2.75-1.03,6.38,1.62,8.25.07.05.15.1.28.19.98.62,2.11.95,3.27.95,2.12,0,4.05-1.07,5.17-2.85.88-1.37,1.16-3.01.8-4.6-.36-1.6-1.32-2.96-2.71-3.84-.98-.62-2.11-.94-3.27-.94-.53,0-1.05.07-1.54.2-2.56-4.19-8.65-10.46-13.19-13.79,1.81-.63,3.05-1.43,4.21-2.19,1.43-.93,2.61-1.69,4.86-2.07ZM210.98,51.34c.39-.61,1.05-.98,1.78-.98.4,0,.79.11,1.12.33.48.3.81.78.94,1.33.12.55.02,1.11-.28,1.58-.6.95-1.94,1.27-2.91.65l-.09-.06c-.92-.65-1.16-1.9-.56-2.85ZM210.98,74.81c.39-.61,1.05-.98,1.78-.98.4,0,.79.11,1.12.33.48.3.81.77.94,1.33.12.55.02,1.11-.28,1.59-.6.95-1.94,1.27-2.91.65l-.09-.06c-.92-.65-1.16-1.9-.56-2.85ZM210.98,101.11c.39-.61,1.05-.98,1.78-.98.4,0,.79.11,1.12.33.48.3.81.78.94,1.33.12.55.02,1.11-.28,1.58-.6.95-1.94,1.27-2.91.65l-.09-.06c-.92-.65-1.16-1.9-.56-2.85Z"/></g><path class="cls-2" d="M200.63,116.18c-1.17-1.36-2.86-2.14-4.65-2.14-1.46,0-2.88.53-3.98,1.48-1.61,1.38-2.33,3.43-2.09,5.4-1.95.7-4.26,1.37-5.33,1.33-.82-.04-1.3-.35-2.22-.97-1.17-.8-2.42-1.51-4.15-1.85,2.94-2.76,6.01-6.83,8.58-12.83,2.06-.08,3.98-1.19,5.04-2.97,1.72-2.9.77-6.66-2.12-8.39-.95-.57-2.03-.86-3.13-.86-2.15,0-4.16,1.14-5.26,2.99-.84,1.41-1.08,3.05-.68,4.64.35,1.39,1.16,2.59,2.3,3.43-4.05,9.22-9.22,13.08-12.57,14.68-.13.04-.25.1-.36.17-1.19.53-2.05.7-2.56.81v4c.28-.03,1.88-.12,4.25-1.19,5.35-1.36,6.84-.35,8.41.71,1.02.69,2.29,1.55,4.26,1.66.1,0,.2,0,.31,0,2.11,0,5.17-1.02,7.02-1.72,1.14,1.12,2.68,1.75,4.29,1.75h0c1.46,0,2.88-.52,3.98-1.48,1.24-1.06,1.99-2.55,2.12-4.18.12-1.63-.39-3.21-1.46-4.45ZM184.75,99.41c.39-.64,1.07-1.03,1.82-1.03.38,0,.75.1,1.08.3,1,.6,1.33,1.9.74,2.9-.38.65-1.06,1.03-1.82,1.03-.38,0-.75-.1-1.08-.3-.48-.29-.83-.75-.96-1.29-.14-.55-.06-1.12.23-1.6ZM197.35,121.77c-.49.42-1.02.51-1.37.51-.62,0-1.21-.27-1.61-.73-.76-.88-.65-2.22.23-2.98.49-.42,1.02-.51,1.37-.51.62,0,1.2.27,1.61.74.37.43.55.98.5,1.54s-.3,1.07-.73,1.44Z"/><path class="cls-1" d="M176.45,52.69c.07.02.14.03.21.05-.07-.01-.14-.03-.21-.05Z"/><path class="cls-2" d="M198.4,40.29c-.36-1.6-1.32-2.96-2.71-3.84-.98-.62-2.11-.94-3.26-.94-2.12,0-4.05,1.07-5.17,2.85-1.35,2.14-1.22,4.8.14,6.76-3.65,4.12-8.71,4.31-9.94,4.29-3.69-1.6-7.23-2.16-10-2.32v4c2.44.14,5.55.69,8.75,2.14,0,0,0,0,.01,0,3.45,1.56,6.33,3.93,8.61,7.04-.14.17-.26.35-.38.54-1.8,2.85-.94,6.64,1.9,8.44.98.62,2.11.95,3.27.95,2.11,0,4.05-1.07,5.18-2.85,1.81-2.85.95-6.64-1.91-8.45-1.38-.87-3.09-1.11-4.67-.75-1.54-2.15-3.32-4.02-5.34-5.57,2.52-.78,5.4-2.27,7.78-5.1.57.17,1.17.27,1.77.27,2.12,0,4.05-1.07,5.17-2.85.88-1.38,1.16-3.01.8-4.6ZM187.83,62.94c.17-.27.39-.49.67-.66.34-.21.72-.32,1.12-.32s.79.11,1.12.32c.99.63,1.28,1.94.66,2.92-.39.62-1.06.99-1.79.99-.4,0-.79-.11-1.12-.33-.98-.62-1.28-1.94-.66-2.92ZM194.21,42.75c-.6.95-1.94,1.27-2.91.65l-.1-.06c-.91-.65-1.16-1.9-.56-2.85.39-.61,1.05-.98,1.78-.98.4,0,.79.11,1.12.33.48.3.81.78.94,1.33.12.55.03,1.11-.28,1.58Z"/><path class="cls-2" d="M207.1,81.27c.42,1.04,1.14,1.96,2.11,2.65.07.05.15.11.28.19.98.62,2.11.95,3.27.95,2.12,0,4.05-1.07,5.17-2.85.88-1.38,1.16-3.01.8-4.6-.36-1.6-1.32-2.96-2.71-3.84-.98-.62-2.11-.94-3.27-.94-.12,0-.25,0-.38.02-.71-3.16-.92-7.77.04-11.26.11.01.22.02.34.02,2.12,0,4.05-1.07,5.17-2.85.88-1.38,1.16-3.01.8-4.6-.36-1.6-1.32-2.96-2.71-3.84-.98-.62-2.11-.94-3.27-.94-2.11,0-4.05,1.07-5.17,2.85-1.6,2.53-1.12,5.8,1.02,7.76.02.02.05.04.07.06-1.35,4.52-1.15,10.32-.04,14.42-.14.13-.29.25-.43.4-.23.25-.45.53-.63.82-.32.5-.55,1.03-.71,1.58-3.37.49-5.2,1.67-6.82,2.73-2.04,1.32-3.96,2.57-9.64,2.67-1.96-.23-3.55-.18-5.29-.12-1.43.05-2.91.11-4.85,0-1.33-.07-2.1-.88-3.46-2.42-1.8-2.05-4.22-4.65-9.37-5.02v4c3.29.3,4.8,1.89,6.36,3.67,1.49,1.69,3.17,3.62,6.26,3.78,2.12.11,3.76.05,5.21,0,2.49-.09,4.45-.16,7.86.68,2.61.64,12.1,9.67,14.77,14.32-.11.14-.22.28-.31.43-1.74,2.75-1.03,6.38,1.62,8.25.07.05.15.1.28.19.98.62,2.11.95,3.27.95,2.12,0,4.05-1.07,5.17-2.85.88-1.37,1.16-3.01.8-4.6-.36-1.6-1.32-2.96-2.71-3.84-.98-.62-2.11-.94-3.27-.94-.53,0-1.05.07-1.54.2-2.56-4.19-8.65-10.46-13.19-13.79,1.81-.63,3.05-1.43,4.21-2.19,1.43-.93,2.61-1.69,4.86-2.07ZM210.98,54.34c.39-.61,1.05-.98,1.78-.98.4,0,.79.11,1.12.33.48.3.81.78.94,1.33.12.55.02,1.11-.28,1.58-.6.95-1.94,1.27-2.91.65l-.09-.06c-.92-.65-1.16-1.9-.56-2.85ZM210.98,77.81c.39-.61,1.05-.98,1.78-.98.4,0,.79.11,1.12.33.48.3.81.77.94,1.33.12.55.02,1.11-.28,1.59-.6.95-1.94,1.27-2.91.65l-.09-.06c-.92-.65-1.16-1.9-.56-2.85ZM210.98,104.11c.39-.61,1.05-.98,1.78-.98.4,0,.79.11,1.12.33.48.3.81.78.94,1.33.12.55.02,1.11-.28,1.58-.6.95-1.94,1.27-2.91.65l-.09-.06c-.92-.65-1.16-1.9-.56-2.85Z"/><path class="cls-4" d="M200.63,113.18c-1.17-1.36-2.86-2.14-4.65-2.14-1.46,0-2.88.53-3.98,1.48-1.61,1.38-2.33,3.43-2.09,5.4-1.95.7-4.26,1.37-5.33,1.33-.82-.04-1.3-.35-2.22-.97-1.17-.8-2.42-1.51-4.15-1.85,2.94-2.76,6.01-6.83,8.58-12.83,2.06-.08,3.98-1.19,5.04-2.97,1.72-2.9.77-6.66-2.12-8.39-.95-.57-2.03-.86-3.13-.86-2.15,0-4.16,1.14-5.26,2.99-.84,1.41-1.08,3.05-.68,4.64.35,1.39,1.16,2.59,2.3,3.43-4.05,9.22-9.22,13.08-12.57,14.68-.13.04-.25.1-.36.17-1.19.53-2.05.7-2.56.81v4c.28-.03,1.88-.12,4.25-1.19,5.35-1.36,6.84-.35,8.41.71,1.02.69,2.29,1.55,4.26,1.66.1,0,.2,0,.31,0,2.11,0,5.17-1.02,7.02-1.72,1.14,1.12,2.68,1.75,4.29,1.75h0c1.46,0,2.88-.52,3.98-1.48,1.24-1.06,1.99-2.55,2.12-4.18.12-1.63-.39-3.21-1.46-4.45ZM184.75,96.41c.39-.64,1.07-1.03,1.82-1.03.38,0,.75.1,1.08.3,1,.6,1.33,1.9.74,2.9-.38.65-1.06,1.03-1.82,1.03-.38,0-.75-.1-1.08-.3-.48-.29-.83-.75-.96-1.29-.14-.55-.06-1.12.23-1.6ZM197.35,118.77c-.49.42-1.02.51-1.37.51-.62,0-1.21-.27-1.61-.73-.76-.88-.65-2.22.23-2.98.49-.42,1.02-.51,1.37-.51.62,0,1.2.27,1.61.74.37.43.55.98.5,1.54s-.3,1.07-.73,1.44Z"/><path class="cls-4" d="M176.45,50.29c.07.02.14.03.21.05-.07-.01-.14-.03-.21-.05Z"/><path class="cls-4" d="M198.4,37.28c-.36-1.6-1.32-2.96-2.71-3.84-.98-.62-2.11-.94-3.26-.94-2.12,0-4.05,1.07-5.17,2.85-1.35,2.14-1.22,4.8.14,6.76-3.65,4.12-8.71,4.31-9.94,4.29-3.69-1.6-7.23-2.16-10-2.32v4c2.44.14,5.55.69,8.75,2.14,0,0,0,0,.01,0,3.45,1.56,6.33,3.93,8.61,7.04-.14.17-.26.35-.38.54-1.8,2.85-.94,6.64,1.9,8.44.98.62,2.11.95,3.27.95,2.11,0,4.05-1.07,5.18-2.85,1.81-2.85.95-6.64-1.91-8.45-1.38-.87-3.09-1.11-4.67-.75-1.54-2.15-3.32-4.02-5.34-5.57,2.52-.78,5.4-2.27,7.78-5.1.57.17,1.17.27,1.77.27,2.12,0,4.05-1.07,5.17-2.85.88-1.38,1.16-3.01.8-4.6ZM187.83,59.93c.17-.27.39-.49.67-.66.34-.21.72-.32,1.12-.32s.79.11,1.12.32c.99.63,1.28,1.94.66,2.92-.39.62-1.06.99-1.79.99-.4,0-.79-.11-1.12-.33-.98-.62-1.28-1.94-.66-2.92ZM194.21,39.74c-.6.95-1.94,1.27-2.91.65l-.1-.06c-.91-.65-1.16-1.9-.56-2.85.39-.61,1.05-.98,1.78-.98.4,0,.79.11,1.12.33.48.3.81.78.94,1.33.12.55.03,1.11-.28,1.58Z"/><path class="cls-4" d="M207.1,78.27c.42,1.04,1.14,1.96,2.11,2.65.07.05.15.11.28.19.98.62,2.11.95,3.27.95,2.12,0,4.05-1.07,5.17-2.85.88-1.38,1.16-3.01.8-4.6-.36-1.6-1.32-2.96-2.71-3.84-.98-.62-2.11-.94-3.27-.94-.12,0-.25,0-.38.02-.71-3.16-.92-7.77.04-11.26.11.01.22.02.34.02,2.12,0,4.05-1.07,5.17-2.85.88-1.38,1.16-3.01.8-4.6-.36-1.6-1.32-2.96-2.71-3.84-.98-.62-2.11-.94-3.27-.94-2.11,0-4.05,1.07-5.17,2.85-1.6,2.53-1.12,5.8,1.02,7.76.02.02.05.04.07.06-1.35,4.52-1.15,10.32-.04,14.42-.14.13-.29.25-.43.4-.23.25-.45.53-.63.82-.32.5-.55,1.03-.71,1.58-3.37.49-5.2,1.67-6.82,2.73-2.04,1.32-3.96,2.57-9.64,2.67-1.96-.23-3.55-.18-5.29-.12-1.43.05-2.91.11-4.85,0-1.33-.07-2.1-.88-3.46-2.42-1.8-2.05-4.22-4.65-9.37-5.02v4c3.29.3,4.8,1.89,6.36,3.67,1.49,1.69,3.17,3.62,6.26,3.78,2.12.11,3.76.05,5.21,0,2.49-.09,4.45-.16,7.86.68,2.61.64,12.1,9.67,14.77,14.32-.11.14-.22.28-.31.43-1.74,2.75-1.03,6.38,1.62,8.25.07.05.15.1.28.19.98.62,2.11.95,3.27.95,2.12,0,4.05-1.07,5.17-2.85.88-1.37,1.16-3.01.8-4.6-.36-1.6-1.32-2.96-2.71-3.84-.98-.62-2.11-.94-3.27-.94-.53,0-1.05.07-1.54.2-2.56-4.19-8.65-10.46-13.19-13.79,1.81-.63,3.05-1.43,4.21-2.19,1.43-.93,2.61-1.69,4.86-2.07ZM210.98,51.34c.39-.61,1.05-.98,1.78-.98.4,0,.79.11,1.12.33.48.3.81.78.94,1.33.12.55.02,1.11-.28,1.58-.6.95-1.94,1.27-2.91.65l-.09-.06c-.92-.65-1.16-1.9-.56-2.85ZM210.98,74.81c.39-.61,1.05-.98,1.78-.98.4,0,.79.11,1.12.33.48.3.81.77.94,1.33.12.55.02,1.11-.28,1.59-.6.95-1.94,1.27-2.91.65l-.09-.06c-.92-.65-1.16-1.9-.56-2.85ZM210.98,101.11c.39-.61,1.05-.98,1.78-.98.4,0,.79.11,1.12.33.48.3.81.78.94,1.33.12.55.02,1.11-.28,1.58-.6.95-1.94,1.27-2.91.65l-.09-.06c-.92-.65-1.16-1.9-.56-2.85Z"/><polygon class="cls-7" points="114.54 110.17 121.99 108.69 121.99 62.79 114.54 61.31 114.54 110.17"/><path class="cls-7" d="M114.54,110.17v-48.86l7.44,1.48v-2.62l-8.35-1.85c-.06-.01-.12-.02-.18-.01-.06,0-.12.02-.17.04-.05.02-.11.06-.16.1-.05.04-.1.09-.14.15-.04.05-.08.12-.12.19-.03.07-.06.14-.09.23-.02.08-.04.17-.05.25-.01.09-.02.18-.02.27v52.42c0,.09,0,.18.02.27.01.09.03.17.05.25.02.08.05.16.09.23.03.07.07.13.12.19.04.05.09.1.14.14.05.04.1.07.16.09.06.02.11.04.17.04.06,0,.12,0,.18-.01l8.35-1.85v-2.62l-7.44,1.48Z"/><polygon class="cls-7" points="124.77 115.63 134.45 113.99 134.45 57.5 124.77 55.86 124.77 115.63"/><path class="cls-7" d="M124.77,115.63v-59.77l9.67,1.64v-3.23l-7.26-1.37-3.8-.71c-.09-.02-.18-.02-.27-.02-.09,0-.18.02-.26.05-.08.03-.17.07-.24.11-.08.05-.15.11-.21.18s-.12.15-.17.23c-.05.08-.09.18-.13.27-.04.1-.06.2-.08.31-.02.11-.03.22-.03.33v64.18c0,.11,0,.23.03.33.02.11.05.21.08.31.04.1.08.19.13.28.05.08.11.16.17.23.07.07.14.13.21.18.08.05.16.09.24.11.08.03.17.04.26.05.09,0,.18,0,.27-.02l3.8-.71,7.26-1.37v-3.23l-9.67,1.64Z"/><rect class="cls-7" x="138.49" y="50.73" width="23.96" height="70.03"/><path class="cls-7" d="M134.45,48.71v74.07c0,1.12.91,2.02,2.02,2.02h25.98v-4.05h-23.96V50.73h23.96v-4.05h-25.98c-1.12,0-2.02.91-2.02,2.02Z"/><polygon class="cls-3" points="114.54 107.17 121.99 105.69 121.99 59.79 114.54 58.31 114.54 107.17"/><path class="cls-4" d="M114.54,107.17v-48.86l7.44,1.48v-2.62l-8.35-1.85c-.06-.01-.12-.02-.18-.01-.06,0-.12.02-.17.04-.05.02-.11.06-.16.1-.05.04-.1.09-.14.15-.04.05-.08.12-.12.19-.03.07-.06.14-.09.23-.02.08-.04.17-.05.25-.01.09-.02.18-.02.27v52.42c0,.09,0,.18.02.27.01.09.03.17.05.25.02.08.05.16.09.23.03.07.07.13.12.19.04.05.09.1.14.14.05.04.1.07.16.09.06.02.11.04.17.04.06,0,.12,0,.18-.01l8.35-1.85v-2.62l-7.44,1.48Z"/><polygon class="cls-3" points="124.77 112.63 134.45 110.99 134.45 54.5 124.77 52.86 124.77 112.63"/><path class="cls-4" d="M124.77,112.63v-59.77l9.67,1.64v-3.23l-7.26-1.37-3.8-.71c-.09-.02-.18-.02-.27-.02-.09,0-.18.02-.26.05-.08.03-.17.07-.24.11-.08.05-.15.11-.21.18s-.12.15-.17.23c-.05.08-.09.18-.13.27-.04.1-.06.2-.08.31-.02.11-.03.22-.03.33v64.18c0,.11,0,.23.03.33.02.11.05.21.08.31.04.1.08.19.13.28.05.08.11.16.17.23.07.07.14.13.21.18.08.05.16.09.24.11.08.03.17.04.26.05.09,0,.18,0,.27-.02l3.8-.71,7.26-1.37v-3.23l-9.67,1.64Z"/><rect class="cls-5" x="138.49" y="47.73" width="23.96" height="70.03"/><path class="cls-4" d="M134.45,45.71v74.07c0,1.12.91,2.02,2.02,2.02h25.98v-4.05h-23.96V47.73h23.96v-4.05h-25.98c-1.12,0-2.02.91-2.02,2.02Z"/></g></g></svg>