<?xml version="1.0" encoding="UTF-8"?><svg id="Layer_1" xmlns="http://www.w3.org/2000/svg" width="90.68" height="30" viewBox="0 0 90.68 30"><defs><style>.cls-1{fill:#20656c;}.cls-1,.cls-2{stroke-width:0px;}.cls-2{fill:#eb743b;}</style></defs><polygon class="cls-1" points="14 1 2 8 2 22 14 29 14 1"/><polygon class="cls-2" points="15 1 27 8 27 22 15 29 15 1"/><path class="cls-1" d="M44.48,16.99h-7.77v3.6h9.21v4.41h-14.95V5.24h15.03v4.41h-9.3v2.93h7.77v4.41Z"/><path class="cls-1" d="M60.02,21.54h-7.07l-1.17,3.46h-5.73l7.65-19.76h5.5l7.8,19.76h-5.75l-1.22-3.46ZM54.25,17.64h4.39l-2.16-6.11-.08-.37-.07.34-2.09,6.14Z"/><path class="cls-2" d="M80.56,21.54h-7.07l-1.17,3.46h-5.73l7.65-19.76h5.5l7.8,19.76h-5.75l-1.22-3.46ZM74.79,17.64h4.39l-2.16-6.11-.08-.37-.07.34-2.09,6.14Z"/></svg>