<?xml version="1.0" encoding="UTF-8"?><svg id="Layer_1" xmlns="http://www.w3.org/2000/svg" width="333.61" height="100" viewBox="0 0 333.61 100"><defs><style>.cls-1{fill:#20656c;}.cls-1,.cls-2,.cls-3,.cls-4{stroke-width:0px;}.cls-2{fill:#fffedb;}.cls-3{fill:#579ca0;}.cls-4{fill:#eb743b;}</style></defs><polygon class="cls-4" points="46 2 46 98 87 74 87 26 46 2"/><polygon class="cls-1" points="43 2 2 26 2 74 43 98 43 2"/><path class="cls-2" d="M78.28,58.09c-1.24-1.97-3.38-3.15-5.72-3.15-.67,0-1.32.1-1.96.29-2.63-3.12-5.82-4.78-8.6-5.64,2.24-1.71,4.21-3.77,5.91-6.15,1.74.39,3.63.13,5.16-.83,3.16-2.01,4.1-6.2,2.1-9.35-1.25-1.97-3.39-3.15-5.72-3.15-1.28,0-2.53.36-3.62,1.05-3.15,1.99-4.09,6.18-2.11,9.34.13.21.27.4.42.6-2.51,3.44-5.71,6.06-9.52,7.79h-.01c-3.53,1.61-5.62,2.12-8.62,2.12v5c4,0,5.93-1.12,10.02-2.9,1.37-.02,6.96.18,10.99,4.75-1.51,2.16-1.66,5.11-.16,7.47,1.24,1.97,3.38,3.15,5.72,3.15,1.28,0,2.52-.36,3.61-1.04,1.54-.97,2.6-2.48,3-4.25.4-1.76.08-3.57-.89-5.09ZM68.06,34.67c.42-.27.9-.41,1.4-.41.9,0,1.73.46,2.22,1.22.77,1.21.4,2.84-.82,3.61-.41.26-.9.4-1.39.4s-.97-.13-1.39-.39c-.34-.21-.62-.49-.83-.82-.77-1.22-.41-2.85.81-3.62ZM75.12,62.27c-.15.69-.56,1.27-1.16,1.64-.41.26-.9.41-1.39.41-.91,0-1.73-.46-2.21-1.22-.75-1.18-.44-2.73.69-3.53l.12-.08c1.21-.77,2.87-.37,3.61.81.38.59.5,1.29.34,1.97Z"/><path class="cls-2" d="M11.06,68.73v-32.57l4.96.99v-1.75l-5.57-1.23s-.08-.01-.12,0c-.04,0-.08.01-.12.03-.04.02-.07.04-.11.07-.03.03-.07.06-.09.1-.03.04-.05.08-.08.12-.02.05-.04.1-.06.15s-.03.11-.04.17-.01.12-.01.18v34.95c0,.06,0,.12.01.18,0,.06.02.12.04.17.02.05.04.1.06.15.02.05.05.09.08.13.03.04.06.07.09.09.03.03.07.05.11.06.04.02.08.03.12.03.04,0,.08,0,.12,0l5.57-1.23v-1.75l-4.96.99Z"/><path class="cls-2" d="M17.88,72.37v-39.85l6.45,1.09v-2.15l-4.84-.91-2.53-.48c-.06-.01-.12-.02-.18-.01-.06,0-.12.01-.17.03-.06.02-.11.04-.16.08-.05.03-.1.07-.14.12-.04.05-.08.1-.12.15-.03.06-.06.12-.09.18-.02.07-.04.13-.05.21-.01.07-.02.15-.02.22v42.79c0,.08,0,.15.02.22.01.07.03.14.05.21.02.06.05.13.09.18.03.06.07.11.12.15.04.05.09.08.14.12.05.03.1.06.16.08.06.02.12.03.17.03.06,0,.12,0,.18-.01l2.53-.48,4.84-.91v-2.15l-6.45,1.09Z"/><rect class="cls-3" x="27.03" y="29.1" width="15.97" height="46.68"/><path class="cls-2" d="M24.33,27.75v49.38c0,.74.6,1.35,1.35,1.35h17.32v-2.7h-15.97V29.1h15.97v-2.7h-17.32c-.74,0-1.35.6-1.35,1.35Z"/><path class="cls-1" d="M127.72,30.4h-14.82v9.35h17.51v7.25h-26.94V7.9h26.99v7.28h-17.56v8.25h14.82v6.98Z"/><path class="cls-1" d="M144.72,36.23l4.59-18.29h9.53l-9.48,29.06h-9.24l-9.48-29.06h9.56l4.51,18.29Z"/><path class="cls-1" d="M175.25,47.54c-4.46,0-8.07-1.33-10.82-3.99-2.76-2.66-4.13-6.12-4.13-10.38v-.75c0-2.97.55-5.6,1.65-7.87,1.1-2.27,2.71-4.03,4.82-5.28,2.11-1.24,4.62-1.87,7.52-1.87,4.08,0,7.3,1.27,9.67,3.8,2.36,2.53,3.54,6.07,3.54,10.59v3.52h-17.99c.32,1.63,1.03,2.91,2.12,3.84,1.09.93,2.51,1.4,4.24,1.4,2.86,0,5.1-1,6.71-3.01l4.14,4.89c-1.13,1.56-2.73,2.8-4.79,3.72-2.07.92-4.29,1.38-6.67,1.38ZM174.23,24.39c-2.65,0-4.23,1.75-4.73,5.26h9.13v-.7c.04-1.45-.33-2.57-1.1-3.37-.77-.8-1.87-1.2-3.3-1.2Z"/><path class="cls-1" d="M199.45,17.94l.29,3.41c2.01-2.63,4.77-3.95,8.3-3.95,3.03,0,5.29.9,6.78,2.71,1.49,1.81,2.27,4.53,2.32,8.16v18.72h-9.08v-18.34c0-1.47-.3-2.55-.89-3.24s-1.67-1.03-3.22-1.03c-1.77,0-3.09.7-3.95,2.09v20.52h-9.05v-29.06h8.49Z"/><path class="cls-1" d="M232.7,10.72v7.22h4.78v6.28h-4.78v13.29c0,1.09.2,1.85.59,2.28.39.43,1.17.64,2.34.64.9,0,1.65-.05,2.26-.16v6.47c-1.63.52-3.33.78-5.1.78-3.12,0-5.42-.73-6.9-2.2-1.49-1.47-2.23-3.7-2.23-6.69v-14.42h-3.71v-6.28h3.71v-7.22h9.05Z"/><path class="cls-1" d="M277.36,39.7h-12.92l-2.26,7.3h-10.07l14.34-39.1h8.86l14.45,39.1h-10.12l-2.28-7.3ZM266.7,32.42h8.41l-4.22-13.56-4.19,13.56Z"/><path class="cls-1" d="M309.77,26.13l-2.98-.21c-2.85,0-4.67.9-5.48,2.69v18.4h-9.05v-29.06h8.49l.29,3.73c1.52-2.85,3.64-4.27,6.37-4.27.97,0,1.81.11,2.52.32l-.16,8.41Z"/><path class="cls-1" d="M324.92,10.72v7.22h4.78v6.28h-4.78v13.29c0,1.09.2,1.85.59,2.28.39.43,1.17.64,2.34.64.9,0,1.65-.05,2.26-.16v6.47c-1.63.52-3.33.78-5.1.78-3.12,0-5.42-.73-6.9-2.2-1.49-1.47-2.23-3.7-2.23-6.69v-14.42h-3.71v-6.28h3.71v-7.22h9.05Z"/><path class="cls-4" d="M125.68,85.7h-12.92l-2.26,7.3h-10.07l14.34-39.1h8.86l14.45,39.1h-10.12l-2.28-7.3ZM115.02,78.42h8.41l-4.22-13.56-4.19,13.56Z"/><path class="cls-4" d="M158.09,72.13l-2.98-.21c-2.85,0-4.67.9-5.48,2.69v18.4h-9.05v-29.06h8.49l.29,3.73c1.52-2.85,3.64-4.27,6.37-4.27.97,0,1.81.11,2.52.32l-.16,8.41Z"/><path class="cls-4" d="M173.13,86.55c1.27,0,2.26-.34,2.95-1.03.7-.69,1.04-1.65,1.02-2.89h8.49c0,3.19-1.14,5.8-3.42,7.84-2.28,2.04-5.22,3.06-8.82,3.06-4.23,0-7.56-1.33-9.99-3.97s-3.65-6.32-3.65-11.01v-.38c0-2.94.54-5.53,1.62-7.77,1.08-2.25,2.64-3.97,4.69-5.18,2.04-1.21,4.46-1.81,7.25-1.81,3.78,0,6.78,1.05,9,3.14,2.22,2.1,3.33,4.93,3.33,8.51h-8.49c0-1.5-.37-2.66-1.1-3.46-.73-.8-1.72-1.21-2.95-1.21-2.35,0-3.72,1.5-4.11,4.49-.12.95-.19,2.26-.19,3.92,0,2.92.35,4.94,1.05,6.07.7,1.13,1.81,1.69,3.33,1.69Z"/><path class="cls-4" d="M198.27,67.06c1.93-2.43,4.4-3.65,7.41-3.65,3.21,0,5.62.95,7.25,2.85s2.46,4.7,2.5,8.41v18.34h-9.08v-18.13c0-1.54-.31-2.67-.94-3.4-.63-.73-1.69-1.09-3.2-1.09-1.86,0-3.18.59-3.95,1.77v20.84h-9.05v-41.25h9.05v15.31Z"/><path class="cls-4" d="M220.4,56.45c0-1.29.47-2.34,1.4-3.17.93-.82,2.14-1.24,3.62-1.24s2.7.41,3.63,1.24c.93.82,1.4,1.88,1.4,3.17s-.47,2.35-1.4,3.17c-.93.82-2.14,1.23-3.63,1.23s-2.69-.41-3.62-1.23c-.93-.82-1.4-1.88-1.4-3.17ZM230.01,93h-9.08v-29.06h9.08v29.06Z"/><path class="cls-4" d="M247.17,82.23l4.59-18.29h9.53l-9.48,29.06h-9.24l-9.48-29.06h9.56l4.51,18.29Z"/><path class="cls-4" d="M277.71,93.54c-4.46,0-8.07-1.33-10.82-3.99-2.76-2.66-4.13-6.12-4.13-10.38v-.75c0-2.97.55-5.6,1.65-7.87,1.1-2.27,2.71-4.03,4.82-5.28,2.11-1.24,4.62-1.87,7.52-1.87,4.08,0,7.3,1.27,9.67,3.8,2.36,2.53,3.54,6.07,3.54,10.59v3.52h-17.99c.32,1.63,1.03,2.91,2.12,3.84,1.09.93,2.51,1.4,4.24,1.4,2.86,0,5.1-1,6.71-3.01l4.14,4.89c-1.13,1.56-2.73,2.8-4.79,3.72-2.07.92-4.29,1.38-6.67,1.38ZM276.69,70.39c-2.65,0-4.23,1.75-4.73,5.26h9.13v-.7c.04-1.45-.33-2.57-1.1-3.37-.77-.8-1.87-1.2-3.3-1.2Z"/></svg>