<?xml version="1.0" encoding="UTF-8"?><svg id="a" xmlns="http://www.w3.org/2000/svg" viewBox="0 0 500 100"><defs><style>.p{fill:#fffedb;}.q{fill:#fffdbe;}.r{fill:#e3c604;}.s{fill:rgba(255,253,191,.94);}.t{fill:#ffde00;}.u{fill:#eb743b;}</style></defs><g><g id="b" transform="translate(9.2888575,2.3198575)"><g id="c"><polygon id="d" class="t" points="44 2 3 25.33 3 74.67 44 98 44 2"/><g id="e" transform="matrix(0.25352692,0,0,0.25352692,-10.381221,-27.687735)"><rect id="f" class="p" x="15.61" y="22.4" width="24.1" height="55.64"/><rect id="g" class="t" x="17.81" y="23.74" width="19.59" height="14.25"/><rect id="h" class="q" x="23.28" y="26.01" width="8.53" height="1.02"/><rect id="i" class="t" x="17.76" y="42.05" width="19.59" height="14.25"/><rect id="j" class="s" x="23.24" y="44.32" width="8.53" height="1.02"/><rect id="k" class="t" x="17.85" y="60.63" width="19.59" height="14.25"/><rect id="l" class="s" x="23.33" y="62.9" width="8.53" height="1.02"/><rect id="m" class="r" x="17.65" y="22.04" width="22.79" height=".43"/><rect id="n" class="r" x="39.62" y="22.37" width=".83" height="55.69"/><rect id="o" class="r" x="19.49" y="78.02" width="20.95" height=".43"/></g></g></g><polygon class="u" points="47 2 47 98 88 74 88 26 47 2"/><path class="p" d="M79.28,58.09c-1.24-1.97-3.38-3.15-5.72-3.15-.67,0-1.32,.1-1.96,.29-2.63-3.12-5.82-4.78-8.6-5.64,2.24-1.71,4.21-3.77,5.91-6.15,1.74,.39,3.63,.13,5.16-.83,3.16-2.01,4.1-6.2,2.1-9.35-1.25-1.97-3.39-3.15-5.72-3.15-1.28,0-2.53,.36-3.62,1.05-3.15,1.99-4.09,6.18-2.11,9.34,.13,.21,.27,.4,.42,.6-2.51,3.44-5.71,6.06-9.52,7.79h-.01c-3.53,1.61-5.62,2.12-8.62,2.12v5c4,0,5.93-1.12,10.02-2.9,1.37-.02,6.96,.18,10.99,4.75-1.51,2.16-1.66,5.11-.16,7.47,1.24,1.97,3.38,3.15,5.72,3.15,1.28,0,2.52-.36,3.61-1.04,1.54-.97,2.6-2.48,3-4.25,.4-1.76,.08-3.57-.89-5.09Zm-10.22-23.42c.42-.27,.9-.41,1.4-.41,.9,0,1.73,.46,2.22,1.22,.77,1.21,.4,2.84-.82,3.61-.41,.26-.9,.4-1.39,.4s-.97-.13-1.39-.39c-.34-.21-.62-.49-.83-.82-.77-1.22-.41-2.85,.81-3.62Zm7.06,27.6c-.15,.69-.56,1.27-1.16,1.64-.41,.26-.9,.41-1.39,.41-.91,0-1.73-.46-2.21-1.22-.75-1.18-.44-2.73,.69-3.53l.12-.08c1.21-.77,2.87-.37,3.61,.81,.38,.59,.5,1.29,.34,1.97Z"/></g><g><path class="t" d="M146.45,50.68c0,4.91-.91,9.26-2.73,13.04-1.82,3.78-4.41,6.69-7.76,8.73-3.36,2.04-7.18,3.06-11.47,3.06s-8.09-.99-11.41-2.96c-3.32-1.97-5.91-4.79-7.77-8.46-1.86-3.67-2.83-7.88-2.92-12.62v-2.84c0-4.93,.9-9.29,2.71-13.06,1.81-3.77,4.4-6.68,7.78-8.73,3.38-2.05,7.22-3.08,11.54-3.08s8.07,1.01,11.42,3.04c3.34,2.03,5.94,4.92,7.8,8.66,1.86,3.75,2.8,8.04,2.82,12.88v2.32Zm-12.35-2.11c0-5-.84-8.8-2.51-11.4-1.67-2.59-4.06-3.89-7.18-3.89-6.09,0-9.3,4.57-9.65,13.7l-.03,3.7c0,4.94,.82,8.73,2.46,11.38,1.64,2.65,4.07,3.98,7.3,3.98s5.43-1.3,7.09-3.91c1.66-2.61,2.5-6.35,2.53-11.24v-2.32Z"/><path class="t" d="M154.75,74.82v-29.33h-5.43v-8.09h5.43v-2.97c0-4.27,1.26-7.58,3.77-9.93,2.51-2.35,6.04-3.53,10.58-3.53,1.66,0,3.48,.24,5.46,.73l.04,8.58c-.71-.21-1.67-.31-2.87-.31-3.53,0-5.29,1.52-5.29,4.57v2.87h7.3v8.09h-7.3v29.33h-11.69Z"/><path class="t" d="M180.42,74.82v-29.33h-5.43v-8.09h5.43v-2.97c0-4.27,1.26-7.58,3.77-9.93,2.51-2.35,6.04-3.53,10.58-3.53,1.66,0,3.48,.24,5.46,.73l.04,8.58c-.71-.21-1.67-.31-2.87-.31-3.53,0-5.29,1.52-5.29,4.57v2.87h7.3v8.09h-7.3v29.33h-11.69Z"/><path class="t" d="M203.42,27.71c0-1.67,.6-3.04,1.8-4.11s2.76-1.6,4.67-1.6,3.47,.53,4.67,1.6c1.2,1.07,1.8,2.44,1.8,4.11s-.6,3.04-1.8,4.11c-1.2,1.07-2.76,1.6-4.67,1.6s-3.47-.53-4.67-1.6c-1.2-1.07-1.8-2.44-1.8-4.11Zm12.38,47.11h-11.69V37.4h11.69v37.43Z"/><path class="t" d="M238.81,66.52c1.64,0,2.91-.44,3.8-1.33s1.34-2.13,1.31-3.72h10.93c0,4.1-1.47,7.47-4.41,10.1-2.94,2.63-6.73,3.94-11.36,3.94-5.44,0-9.73-1.71-12.87-5.12-3.14-3.41-4.7-8.14-4.7-14.18v-.48c0-3.78,.7-7.12,2.09-10.01,1.39-2.89,3.41-5.12,6.04-6.68,2.63-1.56,5.74-2.33,9.34-2.33,4.87,0,8.73,1.35,11.59,4.05,2.86,2.7,4.29,6.35,4.29,10.96h-10.93c0-1.94-.47-3.42-1.42-4.46-.95-1.04-2.21-1.56-3.81-1.56-3.02,0-4.79,1.93-5.29,5.78-.16,1.22-.24,2.91-.24,5.05,0,3.76,.45,6.36,1.35,7.82,.9,1.45,2.33,2.18,4.29,2.18Z"/><path class="t" d="M277.89,75.51c-5.74,0-10.39-1.71-13.94-5.14-3.55-3.42-5.33-7.88-5.33-13.37v-.97c0-3.83,.71-7.21,2.13-10.13,1.42-2.93,3.49-5.19,6.21-6.8,2.72-1.6,5.95-2.4,9.68-2.4,5.26,0,9.41,1.63,12.45,4.89,3.04,3.26,4.57,7.81,4.57,13.65v4.53h-23.17c.42,2.1,1.33,3.75,2.73,4.95,1.41,1.2,3.23,1.8,5.46,1.8,3.69,0,6.57-1.29,8.65-3.87l5.33,6.3c-1.45,2.01-3.51,3.6-6.17,4.79s-5.53,1.78-8.6,1.78Zm-1.31-29.82c-3.41,0-5.44,2.26-6.09,6.78h11.76v-.9c.05-1.87-.43-3.31-1.42-4.34-.99-1.03-2.41-1.54-4.25-1.54Z"/><path class="u" d="M298.89,74.82V24.46h18.09c6.48,0,11.41,1.19,14.79,3.56,3.38,2.38,5.07,5.82,5.07,10.34,0,2.61-.6,4.83-1.8,6.68-1.2,1.84-2.96,3.21-5.29,4.08,2.63,.69,4.65,1.98,6.05,3.87,1.41,1.89,2.11,4.2,2.11,6.92,0,4.94-1.56,8.64-4.69,11.12-3.12,2.48-7.75,3.74-13.89,3.79h-20.44Zm12.14-29.37h6.33c2.65-.02,4.54-.51,5.67-1.46s1.7-2.35,1.7-4.2c0-2.13-.61-3.66-1.83-4.6s-3.19-1.41-5.91-1.41h-5.95v11.66Zm0,7.96v12.07h7.96c2.19,0,3.87-.5,5.05-1.5s1.76-2.42,1.76-4.24c0-4.2-2.09-6.31-6.26-6.33h-8.51Z"/><path class="u" d="M366.68,47.95l-3.84-.28c-3.67,0-6.02,1.15-7.06,3.46v23.69h-11.66V37.4h10.93l.38,4.81c1.96-3.67,4.69-5.5,8.2-5.5,1.25,0,2.33,.14,3.25,.42l-.21,10.83Z"/><path class="u" d="M390.93,74.82c-.42-.76-.78-1.88-1.11-3.36-2.14,2.7-5.14,4.05-8.99,4.05-3.53,0-6.53-1.07-8.99-3.2-2.47-2.13-3.7-4.81-3.7-8.04,0-4.06,1.5-7.12,4.5-9.2,3-2.08,7.36-3.11,13.08-3.11h3.6v-1.98c0-3.45-1.49-5.18-4.46-5.18-2.77,0-4.15,1.37-4.15,4.1h-11.66c0-3.62,1.54-6.55,4.62-8.81,3.08-2.26,7-3.39,11.78-3.39s8.54,1.16,11.31,3.49c2.77,2.33,4.19,5.52,4.25,9.58v16.57c.05,3.44,.58,6.07,1.59,7.89v.59h-11.66Zm-7.3-7.61c1.45,0,2.66-.31,3.61-.93,.96-.62,1.64-1.33,2.06-2.11v-5.98h-3.39c-4.06,0-6.09,1.82-6.09,5.46,0,1.06,.36,1.92,1.07,2.58,.71,.66,1.62,.99,2.73,.99Z"/><path class="u" d="M407.36,27.71c0-1.67,.6-3.04,1.8-4.11s2.76-1.6,4.67-1.6,3.47,.53,4.67,1.6c1.2,1.07,1.8,2.44,1.8,4.11s-.6,3.04-1.8,4.11c-1.2,1.07-2.76,1.6-4.67,1.6s-3.47-.53-4.67-1.6c-1.2-1.07-1.8-2.44-1.8-4.11Zm12.38,47.11h-11.69V37.4h11.69v37.43Z"/><path class="u" d="M437.63,37.4l.38,4.39c2.58-3.39,6.15-5.08,10.69-5.08,3.9,0,6.81,1.16,8.73,3.49s2.92,5.83,2.99,10.52v24.11h-11.69v-23.62c0-1.89-.38-3.28-1.14-4.17-.76-.89-2.14-1.33-4.15-1.33-2.28,0-3.98,.9-5.08,2.7v26.43h-11.66V37.4h10.93Z"/><path class="u" d="M480.62,65.83h17.05v8.99h-31.79v-6.5l16.6-21.93h-15.88v-8.99h30.68v6.29l-16.67,22.14Z"/></g></svg>