<?xml version="1.0" encoding="UTF-8"?><svg id="a" xmlns="http://www.w3.org/2000/svg" viewBox="0 0 215 30"><defs><style>.b{fill:#ffde00;}.c{fill:#eb743b;}</style></defs><g><polygon class="b" points="14 1 2 8 2 22 14 29 14 1"/><polygon class="c" points="15 1 27 8 27 22 15 29 15 1"/></g><g><path class="b" d="M54.96,15.11c0,2.22-.41,4.18-1.23,5.88s-1.99,3.02-3.5,3.94-3.24,1.38-5.17,1.38-3.65-.45-5.15-1.33-2.67-2.16-3.5-3.82-1.28-3.55-1.32-5.7v-1.28c0-2.23,.41-4.19,1.22-5.89,.82-1.7,1.99-3.01,3.51-3.94,1.52-.93,3.26-1.39,5.21-1.39s3.64,.46,5.15,1.37c1.51,.92,2.68,2.22,3.52,3.91,.84,1.69,1.26,3.63,1.27,5.81v1.05Zm-5.57-.95c0-2.26-.38-3.97-1.13-5.14-.75-1.17-1.83-1.76-3.24-1.76-2.75,0-4.2,2.06-4.35,6.18l-.02,1.67c0,2.23,.37,3.94,1.11,5.13,.74,1.2,1.84,1.79,3.29,1.79s2.45-.59,3.2-1.76,1.13-2.87,1.14-5.07v-1.05Z"/><path class="b" d="M58.71,26V12.76h-2.45v-3.65h2.45v-1.34c0-1.92,.57-3.42,1.7-4.48,1.13-1.06,2.73-1.59,4.78-1.59,.75,0,1.57,.11,2.47,.33l.02,3.87c-.32-.09-.75-.14-1.29-.14-1.59,0-2.39,.69-2.39,2.06v1.3h3.29v3.65h-3.29v13.24h-5.28Z"/><path class="b" d="M70.29,26V12.76h-2.45v-3.65h2.45v-1.34c0-1.92,.57-3.42,1.7-4.48,1.13-1.06,2.73-1.59,4.78-1.59,.75,0,1.57,.11,2.47,.33l.02,3.87c-.32-.09-.75-.14-1.29-.14-1.59,0-2.39,.69-2.39,2.06v1.3h3.29v3.65h-3.29v13.24h-5.28Z"/><path class="b" d="M80.67,4.74c0-.75,.27-1.37,.81-1.85,.54-.48,1.24-.72,2.11-.72s1.57,.24,2.11,.72c.54,.48,.81,1.1,.81,1.85s-.27,1.37-.81,1.85-1.24,.72-2.11,.72-1.57-.24-2.11-.72-.81-1.1-.81-1.85Zm5.59,21.26h-5.28V9.11h5.28V26Z"/><path class="b" d="M96.63,22.25c.74,0,1.31-.2,1.72-.6,.41-.4,.6-.96,.59-1.68h4.93c0,1.85-.66,3.37-1.99,4.56-1.33,1.19-3.04,1.78-5.13,1.78-2.46,0-4.39-.77-5.81-2.31-1.42-1.54-2.12-3.67-2.12-6.4v-.22c0-1.71,.31-3.21,.94-4.52,.63-1.31,1.54-2.31,2.72-3.01,1.19-.7,2.59-1.05,4.21-1.05,2.2,0,3.94,.61,5.23,1.83,1.29,1.22,1.93,2.87,1.93,4.95h-4.93c0-.87-.21-1.54-.64-2.01-.43-.47-1-.7-1.72-.7-1.36,0-2.16,.87-2.39,2.61-.07,.55-.11,1.31-.11,2.28,0,1.7,.2,2.87,.61,3.53,.41,.66,1.05,.98,1.94,.98Z"/><path class="b" d="M114.27,26.31c-2.59,0-4.69-.77-6.29-2.32-1.6-1.54-2.4-3.56-2.4-6.03v-.44c0-1.73,.32-3.25,.96-4.57s1.57-2.34,2.8-3.07c1.23-.72,2.68-1.08,4.37-1.08,2.37,0,4.25,.74,5.62,2.21,1.37,1.47,2.06,3.52,2.06,6.16v2.04h-10.46c.19,.95,.6,1.69,1.23,2.23s1.46,.81,2.47,.81c1.67,0,2.97-.58,3.9-1.75l2.4,2.84c-.66,.91-1.58,1.63-2.79,2.16-1.2,.54-2.49,.8-3.88,.8Zm-.59-13.45c-1.54,0-2.46,1.02-2.75,3.06h5.31v-.41c.02-.84-.19-1.5-.64-1.96s-1.09-.7-1.92-.7Z"/><path class="c" d="M123.74,26V3.28h8.16c2.92,0,5.15,.54,6.67,1.61,1.52,1.07,2.29,2.63,2.29,4.67,0,1.18-.27,2.18-.81,3.01-.54,.83-1.34,1.45-2.39,1.84,1.19,.31,2.1,.89,2.73,1.75,.63,.85,.95,1.89,.95,3.12,0,2.23-.7,3.9-2.11,5.02s-3.5,1.69-6.27,1.71h-9.22Zm5.48-13.25h2.86c1.2,0,2.05-.23,2.56-.66s.76-1.06,.76-1.89c0-.96-.28-1.65-.83-2.07s-1.44-.63-2.67-.63h-2.68v5.26Zm0,3.59v5.45h3.59c.99,0,1.75-.23,2.28-.68,.53-.45,.8-1.09,.8-1.91,0-1.89-.94-2.85-2.83-2.86h-3.84Z"/><path class="c" d="M154.33,13.87l-1.73-.12c-1.65,0-2.71,.52-3.18,1.56v10.69h-5.26V9.11h4.93l.17,2.17c.88-1.65,2.12-2.48,3.7-2.48,.56,0,1.05,.06,1.47,.19l-.09,4.88Z"/><path class="c" d="M165.27,26c-.19-.34-.35-.85-.5-1.51-.97,1.22-2.32,1.83-4.06,1.83-1.59,0-2.94-.48-4.06-1.44-1.11-.96-1.67-2.17-1.67-3.63,0-1.83,.68-3.22,2.03-4.15,1.35-.94,3.32-1.4,5.9-1.4h1.62v-.89c0-1.56-.67-2.34-2.01-2.34-1.25,0-1.87,.62-1.87,1.85h-5.26c0-1.63,.69-2.96,2.08-3.97,1.39-1.02,3.16-1.53,5.31-1.53s3.86,.53,5.1,1.58c1.25,1.05,1.89,2.49,1.92,4.32v7.48c.02,1.55,.26,2.74,.72,3.56v.27h-5.26Zm-3.29-3.43c.66,0,1.2-.14,1.63-.42,.43-.28,.74-.6,.93-.95v-2.7h-1.53c-1.83,0-2.75,.82-2.75,2.47,0,.48,.16,.87,.48,1.16,.32,.3,.73,.44,1.23,.44Z"/><path class="c" d="M172.69,4.74c0-.75,.27-1.37,.81-1.85,.54-.48,1.24-.72,2.11-.72s1.57,.24,2.11,.72c.54,.48,.81,1.1,.81,1.85s-.27,1.37-.81,1.85-1.24,.72-2.11,.72-1.57-.24-2.11-.72-.81-1.1-.81-1.85Zm5.59,21.26h-5.28V9.11h5.28V26Z"/><path class="c" d="M186.34,9.11l.17,1.98c1.17-1.53,2.77-2.29,4.82-2.29,1.76,0,3.07,.53,3.94,1.58,.87,1.05,1.32,2.63,1.35,4.75v10.88h-5.28V15.34c0-.85-.17-1.48-.52-1.88-.34-.4-.97-.6-1.87-.6-1.03,0-1.79,.41-2.29,1.22v11.92h-5.26V9.11h4.93Z"/><path class="c" d="M205.74,21.94h7.69v4.06h-14.34v-2.93l7.49-9.89h-7.16v-4.06h13.84v2.84l-7.52,9.99Z"/></g></svg>