<?xml version="1.0" encoding="UTF-8"?><svg id="a" xmlns="http://www.w3.org/2000/svg" viewBox="0 0 144 199"><defs><style>.p{fill:#fffedb;}.q{fill:#fffdbe;}.r{fill:#e3c604;}.s{fill:rgba(255,253,191,.94);}.t{fill:#ffde00;}.u{fill:#eb743b;}</style></defs><g><g id="b" transform="translate(9.2888575,2.3198575)"><g id="c"><polygon id="d" class="t" points="70 3 29 26.33 29 75.67 70 99 70 3"/><g id="e" transform="matrix(0.25352692,0,0,0.25352692,-10.381221,-27.687735)"><rect id="f" class="p" x="41.61" y="23.4" width="24.1" height="55.64"/><rect id="g" class="t" x="43.81" y="24.74" width="19.59" height="14.25"/><rect id="h" class="q" x="49.28" y="27.01" width="8.53" height="1.02"/><rect id="i" class="t" x="43.76" y="43.05" width="19.59" height="14.25"/><rect id="j" class="s" x="49.24" y="45.32" width="8.53" height="1.02"/><rect id="k" class="t" x="43.85" y="61.63" width="19.59" height="14.25"/><rect id="l" class="s" x="49.33" y="63.9" width="8.53" height="1.02"/><rect id="m" class="r" x="43.65" y="23.04" width="22.79" height=".43"/><rect id="n" class="r" x="65.62" y="23.37" width=".83" height="55.69"/><rect id="o" class="r" x="45.49" y="79.02" width="20.95" height=".43"/></g></g></g><polygon class="u" points="73 3 73 99 114 75 114 27 73 3"/><path class="p" d="M105.28,59.09c-1.24-1.97-3.38-3.15-5.72-3.15-.67,0-1.32,.1-1.96,.29-2.63-3.12-5.82-4.78-8.6-5.64,2.24-1.71,4.21-3.77,5.91-6.15,1.74,.39,3.63,.13,5.16-.83,3.16-2.01,4.1-6.2,2.1-9.35-1.25-1.97-3.39-3.15-5.72-3.15-1.28,0-2.53,.36-3.62,1.05-3.15,1.99-4.09,6.18-2.11,9.34,.13,.21,.27,.4,.42,.6-2.51,3.44-5.71,6.06-9.52,7.79h-.01c-3.53,1.61-5.62,2.12-8.62,2.12v5c4,0,5.93-1.12,10.02-2.9,1.37-.02,6.96,.18,10.99,4.75-1.51,2.16-1.66,5.11-.16,7.47,1.24,1.97,3.38,3.15,5.72,3.15,1.28,0,2.52-.36,3.61-1.04,1.54-.97,2.6-2.48,3-4.25,.4-1.76,.08-3.57-.89-5.09Zm-10.22-23.42c.42-.27,.9-.41,1.4-.41,.9,0,1.73,.46,2.22,1.22,.77,1.21,.4,2.84-.82,3.61-.41,.26-.9,.4-1.39,.4s-.97-.13-1.39-.39c-.34-.21-.62-.49-.83-.82-.77-1.22-.41-2.85,.81-3.62Zm7.06,27.6c-.15,.69-.56,1.27-1.16,1.64-.41,.26-.9,.41-1.39,.41-.91,0-1.73-.46-2.21-1.22-.75-1.18-.44-2.73,.69-3.53l.12-.08c1.21-.77,2.87-.37,3.61,.81,.38,.59,.5,1.29,.34,1.97Z"/></g><g><path class="t" d="M33.47,132.06c0,3.45-.59,6.5-1.76,9.13-1.17,2.64-2.84,4.68-5,6.12-2.16,1.44-4.62,2.17-7.36,2.17s-5.21-.71-7.38-2.12c-2.17-1.41-3.86-3.45-5.06-6.12-1.2-2.67-1.8-5.73-1.8-9.18v-1.36c0-3.47,.59-6.54,1.77-9.2s2.85-4.7,5.01-6.14c2.16-1.43,4.62-2.15,7.39-2.15,4.04,0,7.35,1.47,9.94,4.41,2.59,2.94,3.99,6.86,4.21,11.77l.03,2.67Zm-8.57-1.42c0-3.33-.49-5.89-1.47-7.68-.98-1.79-2.36-2.68-4.14-2.68s-3.23,.89-4.18,2.68c-.95,1.79-1.42,4.35-1.42,7.68v1.39c0,3.35,.5,5.92,1.5,7.71,1,1.79,2.39,2.68,4.17,2.68s3.07-.9,4.04-2.71,1.48-4.32,1.5-7.53v-1.54Z"/><path class="t" d="M40.18,149v-24.25h-3.65v-5.91h3.65v-2.7c.02-3.33,.9-5.91,2.63-7.76,1.74-1.85,4.14-2.77,7.21-2.77,.93,0,2.12,.19,3.57,.56l-.06,6.3c-.54-.17-1.18-.25-1.92-.25-2.34,0-3.51,1.39-3.51,4.18v2.45h4.71v5.91h-4.71v24.25h-7.92Z"/><path class="t" d="M58.88,149v-24.25h-3.65v-5.91h3.65v-2.7c.02-3.33,.9-5.91,2.63-7.76,1.74-1.85,4.14-2.77,7.21-2.77,.93,0,2.12,.19,3.57,.56l-.06,6.3c-.54-.17-1.18-.25-1.92-.25-2.34,0-3.51,1.39-3.51,4.18v2.45h4.71v5.91h-4.71v24.25h-7.92Z"/><path class="t" d="M75.77,111.04c0-1.23,.39-2.23,1.17-3.01s1.82-1.17,3.12-1.17,2.34,.39,3.12,1.17c.78,.78,1.17,1.78,1.17,3.01s-.39,2.21-1.16,3.01c-.77,.8-1.82,1.2-3.14,1.2s-2.37-.4-3.14-1.2c-.77-.8-1.16-1.8-1.16-3.01Zm8.28,37.96h-7.92v-30.16h7.92v30.16Z"/><path class="t" d="M101.06,143.01c2.29,0,3.45-1.49,3.48-4.46h7.41c-.04,3.29-1.05,5.95-3.04,7.97s-4.55,3.04-7.69,3.04c-3.88,0-6.85-1.21-8.89-3.62-2.04-2.42-3.08-5.97-3.12-10.68v-2.4c0-4.74,1.01-8.35,3.02-10.84,2.02-2.49,4.99-3.73,8.93-3.73,3.33,0,5.95,1.03,7.86,3.08s2.89,4.97,2.93,8.74h-7.41c-.02-1.69-.3-2.99-.84-3.9-.54-.91-1.43-1.37-2.68-1.37-1.38,0-2.36,.49-2.96,1.46s-.91,2.87-.95,5.67v3.07c0,2.45,.12,4.17,.36,5.14,.24,.98,.64,1.69,1.2,2.15s1.35,.68,2.37,.68Z"/><path class="t" d="M128.59,149.56c-4.05,0-7.21-1.21-9.48-3.62-2.27-2.42-3.4-5.87-3.4-10.37v-2.4c0-4.76,1.04-8.43,3.12-11.01,2.08-2.58,5.06-3.87,8.95-3.87s6.64,1.21,8.56,3.63c1.91,2.42,2.89,6.01,2.93,10.76v3.87h-15.69c.11,2.24,.6,3.88,1.48,4.91,.87,1.04,2.22,1.55,4.04,1.55,2.64,0,4.84-.9,6.61-2.7l3.09,4.77c-.97,1.34-2.37,2.42-4.21,3.25-1.84,.83-3.84,1.24-5.99,1.24Zm-4.96-18.51h7.89v-.72c-.04-1.8-.33-3.17-.89-4.1-.56-.93-1.52-1.39-2.9-1.39s-2.37,.49-3,1.48c-.62,.99-.99,2.56-1.1,4.74Z"/><path class="u" d="M2.95,195v-35.3H14.95c4.12,0,7.27,.83,9.44,2.5,2.17,1.67,3.26,4.08,3.26,7.26,0,1.8-.39,3.36-1.18,4.7-.79,1.33-1.95,2.31-3.48,2.94,1.66,.49,2.94,1.41,3.85,2.77s1.36,3.04,1.36,5.01c0,3.51-1.02,6.08-3.06,7.7-2.04,1.62-5.11,2.42-9.21,2.42H2.95Zm8.57-20.63h4.12c2.28-.06,3.42-1.27,3.42-3.64,0-1.39-.28-2.39-.85-2.98s-1.43-.89-2.61-.89h-4.09v7.51Zm0,5.97v7.6h4.39c1.19,0,2.11-.32,2.74-.97,.64-.65,.95-1.54,.95-2.68,0-2.55-1.03-3.87-3.09-3.95h-5Z"/><path class="u" d="M48.31,172.45l-2.62-.22c-2.16,0-3.61,.95-4.38,2.84v19.93h-7.92v-30.16h7.44l.22,3.26c1.24-2.55,2.96-3.82,5.16-3.82,.89,0,1.62,.12,2.17,.36l-.08,7.8Z"/><path class="u" d="M65.84,195c-.22-.46-.45-1.25-.67-2.34-1.41,1.93-3.33,2.9-5.74,2.9s-4.62-.84-6.29-2.51c-1.66-1.67-2.5-3.84-2.5-6.49,0-3.16,1.01-5.6,3.02-7.33,2.02-1.73,4.92-2.61,8.71-2.65h2.4v-2.42c0-1.36-.23-2.31-.7-2.87-.46-.56-1.14-.84-2.04-.84-1.97,0-2.95,1.15-2.95,3.46h-7.89c0-2.79,1.04-5.09,3.14-6.9,2.09-1.81,4.73-2.72,7.93-2.72s5.87,.86,7.68,2.58,2.72,4.18,2.72,7.37v14.19c.04,2.6,.41,4.64,1.12,6.1v.47h-7.94Zm-4.66-5.63c.87,0,1.62-.18,2.23-.53,.61-.35,1.07-.77,1.37-1.25v-6.27h-1.9c-1.34,0-2.39,.43-3.16,1.28-.77,.86-1.16,2-1.16,3.43,0,2.23,.87,3.34,2.62,3.34Z"/><path class="u" d="M78.39,157.04c0-1.23,.39-2.23,1.17-3.01s1.82-1.17,3.12-1.17,2.34,.39,3.12,1.17c.78,.78,1.17,1.78,1.17,3.01s-.39,2.21-1.16,3.01c-.77,.8-1.82,1.2-3.14,1.2s-2.37-.4-3.14-1.2c-.77-.8-1.16-1.8-1.16-3.01Zm8.28,37.96h-7.92v-30.16h7.92v30.16Z"/><path class="u" d="M99.99,164.84l.22,2.98c1.78-2.36,4.12-3.54,7-3.54,5.18,0,7.85,3.63,8,10.9v19.82h-7.92v-19.23c0-1.71-.26-2.95-.77-3.72-.51-.77-1.41-1.16-2.69-1.16-1.43,0-2.55,.73-3.34,2.2v21.91h-7.92v-30.16h7.42Z"/><path class="u" d="M129.59,188.45h11.93v6.55h-21.3v-4.93l11.65-18.65h-11.37v-6.58h20.85v4.77l-11.76,18.84Z"/></g></svg>