<?xml version="1.0" encoding="UTF-8"?><svg id="a" xmlns="http://www.w3.org/2000/svg" viewBox="0 0 266 100"><defs><style>.p{fill:#fffedb;}.q{fill:#fffdbe;}.r{fill:#e3c604;}.s{fill:rgba(255,253,191,.94);}.t{fill:#ffde00;}.u{fill:#eb743b;}</style></defs><g><g id="b" transform="translate(9.2888575,2.3198575)"><g id="c"><polygon id="d" class="t" points="43 2 2 25.33 2 74.67 43 98 43 2"/><g id="e" transform="matrix(0.25352692,0,0,0.25352692,-10.381221,-27.687735)"><rect id="f" class="p" x="14.61" y="22.4" width="24.1" height="55.64"/><rect id="g" class="t" x="16.81" y="23.74" width="19.59" height="14.25"/><rect id="h" class="q" x="22.28" y="26.01" width="8.53" height="1.02"/><rect id="i" class="t" x="16.76" y="42.05" width="19.59" height="14.25"/><rect id="j" class="s" x="22.24" y="44.32" width="8.53" height="1.02"/><rect id="k" class="t" x="16.85" y="60.63" width="19.59" height="14.25"/><rect id="l" class="s" x="22.33" y="62.9" width="8.53" height="1.02"/><rect id="m" class="r" x="16.65" y="22.04" width="22.79" height=".43"/><rect id="n" class="r" x="38.62" y="22.37" width=".83" height="55.69"/><rect id="o" class="r" x="18.49" y="78.02" width="20.95" height=".43"/></g></g></g><polygon class="u" points="46 2 46 98 87 74 87 26 46 2"/><path class="p" d="M78.28,58.09c-1.24-1.97-3.38-3.15-5.72-3.15-.67,0-1.32,.1-1.96,.29-2.63-3.12-5.82-4.78-8.6-5.64,2.24-1.71,4.21-3.77,5.91-6.15,1.74,.39,3.63,.13,5.16-.83,3.16-2.01,4.1-6.2,2.1-9.35-1.25-1.97-3.39-3.15-5.72-3.15-1.28,0-2.53,.36-3.62,1.05-3.15,1.99-4.09,6.18-2.11,9.34,.13,.21,.27,.4,.42,.6-2.51,3.44-5.71,6.06-9.52,7.79h-.01c-3.53,1.61-5.62,2.12-8.62,2.12v5c4,0,5.93-1.12,10.02-2.9,1.37-.02,6.96,.18,10.99,4.75-1.51,2.16-1.66,5.11-.16,7.47,1.24,1.97,3.38,3.15,5.72,3.15,1.28,0,2.52-.36,3.61-1.04,1.54-.97,2.6-2.48,3-4.25,.4-1.76,.08-3.57-.89-5.09Zm-10.22-23.42c.42-.27,.9-.41,1.4-.41,.9,0,1.73,.46,2.22,1.22,.77,1.21,.4,2.84-.82,3.61-.41,.26-.9,.4-1.39,.4s-.97-.13-1.39-.39c-.34-.21-.62-.49-.83-.82-.77-1.22-.41-2.85,.81-3.62Zm7.06,27.6c-.15,.69-.56,1.27-1.16,1.64-.41,.26-.9,.41-1.39,.41-.91,0-1.73-.46-2.21-1.22-.75-1.18-.44-2.73,.69-3.53l.12-.08c1.21-.77,2.87-.37,3.61,.81,.38,.59,.5,1.29,.34,1.97Z"/></g><g><path class="t" d="M137.95,28.54c0,3.96-.73,7.46-2.2,10.51s-3.55,5.39-6.26,7.04c-2.7,1.64-5.78,2.47-9.24,2.47s-6.52-.79-9.2-2.38-4.76-3.86-6.26-6.81c-1.5-2.96-2.28-6.35-2.36-10.17v-2.29c0-3.98,.73-7.48,2.19-10.52s3.55-5.38,6.27-7.04c2.72-1.65,5.82-2.48,9.3-2.48s6.5,.82,9.2,2.45c2.69,1.64,4.79,3.96,6.29,6.98,1.5,3.02,2.25,6.48,2.27,10.38v1.87Zm-9.95-1.7c0-4.03-.67-7.09-2.02-9.18-1.35-2.09-3.28-3.14-5.78-3.14-4.91,0-7.5,3.68-7.78,11.04l-.03,2.98c0,3.98,.66,7.03,1.98,9.17,1.32,2.14,3.28,3.21,5.88,3.21s4.38-1.05,5.71-3.15,2.02-5.12,2.03-9.06v-1.87Z"/><path class="t" d="M144.64,48V24.36h-4.38v-6.52h4.38v-2.4c0-3.44,1.01-6.1,3.04-8s4.87-2.84,8.53-2.84c1.34,0,2.81,.2,4.4,.58l.03,6.91c-.58-.17-1.35-.25-2.31-.25-2.84,0-4.26,1.23-4.26,3.68v2.31h5.88v6.52h-5.88v23.64h-9.42Z"/><path class="t" d="M165.32,48V24.36h-4.38v-6.52h4.38v-2.4c0-3.44,1.01-6.1,3.04-8s4.87-2.84,8.53-2.84c1.34,0,2.81,.2,4.4,.58l.03,6.91c-.58-.17-1.35-.25-2.31-.25-2.84,0-4.26,1.23-4.26,3.68v2.31h5.88v6.52h-5.88v23.64h-9.42Z"/><path class="t" d="M183.86,10.04c0-1.35,.48-2.45,1.45-3.31,.97-.86,2.22-1.29,3.76-1.29s2.8,.43,3.76,1.29c.97,.86,1.45,1.96,1.45,3.31s-.48,2.45-1.45,3.31c-.97,.86-2.22,1.29-3.76,1.29s-2.8-.43-3.76-1.29c-.97-.86-1.45-1.96-1.45-3.31Zm9.98,37.96h-9.42V17.84h9.42v30.16Z"/><path class="t" d="M212.37,41.31c1.32,0,2.34-.36,3.07-1.07,.73-.71,1.08-1.71,1.06-3h8.81c0,3.31-1.19,6.02-3.55,8.14s-5.42,3.18-9.16,3.18c-4.39,0-7.84-1.38-10.37-4.12s-3.79-6.56-3.79-11.43v-.39c0-3.05,.56-5.74,1.69-8.07s2.75-4.12,4.86-5.38c2.12-1.25,4.63-1.88,7.53-1.88,3.92,0,7.03,1.09,9.34,3.26,2.3,2.17,3.46,5.12,3.46,8.84h-8.81c0-1.56-.38-2.76-1.14-3.6-.76-.84-1.78-1.25-3.07-1.25-2.43,0-3.86,1.55-4.26,4.66-.13,.98-.2,2.34-.2,4.07,0,3.03,.36,5.13,1.09,6.3,.72,1.17,1.88,1.76,3.46,1.76Z"/><path class="t" d="M243.87,48.56c-4.63,0-8.37-1.38-11.23-4.14-2.86-2.76-4.29-6.35-4.29-10.77v-.78c0-3.08,.57-5.81,1.71-8.17,1.14-2.36,2.81-4.19,5-5.48,2.19-1.29,4.79-1.94,7.8-1.94,4.24,0,7.58,1.31,10.03,3.94,2.45,2.63,3.68,6.29,3.68,11v3.65h-18.68c.33,1.69,1.07,3.02,2.2,3.99,1.13,.97,2.6,1.45,4.4,1.45,2.97,0,5.3-1.04,6.97-3.12l4.29,5.07c-1.17,1.62-2.83,2.9-4.98,3.86-2.15,.96-4.46,1.44-6.93,1.44Zm-1.06-24.03c-2.75,0-4.39,1.82-4.91,5.46h9.48v-.72c.04-1.5-.34-2.67-1.14-3.5-.8-.83-1.94-1.24-3.43-1.24Z"/><path class="u" d="M103.58,94V53.42h14.58c5.22,0,9.19,.96,11.92,2.87,2.72,1.92,4.08,4.69,4.08,8.33,0,2.1-.48,3.89-1.45,5.38-.97,1.49-2.39,2.58-4.26,3.29,2.12,.56,3.74,1.6,4.88,3.12,1.13,1.52,1.7,3.38,1.7,5.58,0,3.98-1.26,6.96-3.78,8.96-2.52,2-6.25,3.01-11.19,3.05h-16.47Zm9.78-23.67h5.1c2.14-.02,3.66-.41,4.57-1.17,.91-.76,1.37-1.89,1.37-3.38,0-1.71-.49-2.95-1.48-3.7-.98-.75-2.57-1.13-4.77-1.13h-4.79v9.39Zm0,6.41v9.73h6.41c1.77,0,3.12-.4,4.07-1.21,.95-.81,1.42-1.95,1.42-3.42,0-3.38-1.68-5.08-5.04-5.1h-6.86Z"/><path class="u" d="M158.21,72.34l-3.09-.22c-2.95,0-4.85,.93-5.69,2.79v19.09h-9.39v-30.16h8.81l.31,3.87c1.58-2.95,3.78-4.43,6.61-4.43,1,0,1.88,.11,2.62,.33l-.17,8.72Z"/><path class="u" d="M177.75,94c-.33-.61-.63-1.51-.89-2.7-1.73,2.17-4.14,3.26-7.25,3.26-2.84,0-5.26-.86-7.25-2.58-1.99-1.72-2.98-3.88-2.98-6.48,0-3.27,1.21-5.74,3.62-7.41,2.42-1.67,5.93-2.51,10.54-2.51h2.9v-1.6c0-2.78-1.2-4.17-3.6-4.17-2.23,0-3.35,1.1-3.35,3.3h-9.39c0-2.91,1.24-5.28,3.72-7.1,2.48-1.82,5.64-2.73,9.49-2.73s6.88,.94,9.11,2.82c2.23,1.88,3.37,4.45,3.43,7.72v13.35c.04,2.77,.46,4.89,1.28,6.36v.47h-9.39Zm-5.88-6.13c1.17,0,2.14-.25,2.91-.75,.77-.5,1.32-1.07,1.66-1.7v-4.82h-2.73c-3.27,0-4.91,1.47-4.91,4.4,0,.85,.29,1.55,.86,2.08,.58,.53,1.31,.79,2.2,.79Z"/><path class="u" d="M190.99,56.04c0-1.35,.48-2.45,1.45-3.31,.97-.86,2.22-1.29,3.76-1.29s2.8,.43,3.76,1.29c.97,.86,1.45,1.96,1.45,3.31s-.48,2.45-1.45,3.31c-.97,.86-2.22,1.29-3.76,1.29s-2.8-.43-3.76-1.29c-.97-.86-1.45-1.96-1.45-3.31Zm9.98,37.96h-9.42v-30.16h9.42v30.16Z"/><path class="u" d="M215.38,63.84l.31,3.54c2.08-2.73,4.95-4.1,8.61-4.1,3.14,0,5.49,.94,7.04,2.82s2.36,4.7,2.41,8.47v19.43h-9.42v-19.04c0-1.52-.31-2.64-.92-3.36s-1.73-1.07-3.34-1.07c-1.84,0-3.21,.72-4.1,2.17v21.3h-9.39v-30.16h8.81Z"/><path class="u" d="M250.03,86.75h13.74v7.25h-25.62v-5.24l13.38-17.67h-12.79v-7.25h24.72v5.07l-13.44,17.84Z"/></g></svg>