<?xml version="1.0" encoding="utf-8"?>
<!-- Generator: Adobe Illustrator 27.4.1, SVG Export Plug-In . SVG Version: 6.00 Build 0)  -->
<svg version="1.1" id="Layer_1" xmlns="http://www.w3.org/2000/svg" xmlns:xlink="http://www.w3.org/1999/xlink" x="0px" y="0px"
	 viewBox="0 0 32 32" style="enable-background:new 0 0 32 32;" xml:space="preserve">
<style type="text/css">
	.st0{fill:#EB743B;}
	.st1{fill:#5AA854;}
	.st2{fill:#FFFEDB;}
</style>
<g>
	<polygon class="st0" points="16.5,0 16.5,32 30.2,24 30.2,8 	"/>
	<polygon class="st1" points="15.5,0 1.8,8 1.8,24 15.5,32 	"/>
	<path class="st2" d="M27.3,18.8c-0.5-0.7-1.1-1-1.9-1c-0.2,0-0.5,0-0.7,0.1c-0.8-0.9-1.7-1.6-2.9-1.8c0.8-0.6,1.4-1.3,1.9-2.1
		c0.6,0.1,1.1,0,1.7-0.2c1-0.7,1.4-2.1,0.8-3.1c-0.7-1-2.1-1.4-3.1-0.8c-1,0.6-1.4,2.1-0.8,3.1l0,0l0.1,0.2
		c-0.8,1.1-1.9,2.1-3.2,2.6l0,0c-0.9,0.5-1.8,0.7-2.9,0.7v1.7c1.1,0,2.3-0.3,3.3-1c1.4,0,2.7,0.6,3.7,1.6c-0.7,1-0.3,2.5,0.8,3.1
		c0.7,0.5,1.6,0.5,2.3,0C27.7,21.2,27.9,19.8,27.3,18.8L27.3,18.8z M23.9,10.9c0.1-0.1,0.3-0.1,0.5-0.1c0.5,0,0.9,0.3,0.9,0.8
		c0,0.3-0.1,0.6-0.5,0.8c-0.1,0.1-0.3,0.1-0.5,0.1c-0.1,0-0.3,0-0.5-0.1s-0.2-0.1-0.2-0.2C23.3,11.7,23.4,11.2,23.9,10.9L23.9,10.9
		L23.9,10.9z M26.2,20c-0.1,0.3-0.5,0.7-0.8,0.7c-0.5,0-0.9-0.5-0.9-0.9c0-0.2,0.1-0.6,0.3-0.7l0,0c0.3-0.2,0.9-0.1,1.1,0.2
		C26.2,19.6,26.3,19.9,26.2,20L26.2,20z"/>
	<g>
		<g>
			<g>
				<path class="st2" d="M4.3,20.4c0.1,0.6,0.5,1.1,1,1.5c0.3,0.2,0.8,0.3,1.3,0.3c0.8,0,1.5-0.5,1.9-1c0.5-0.8,0.5-1.8,0-2.5
					c1.4-1.5,3.2-1.6,3.7-1.6c1.4,0.6,2.1,1,3.3,1v-1.7c-1,0-1.7-0.2-2.9-0.7l0,0c-1.3-0.6-2.4-1.5-3.2-2.6c0-0.1,0.1-0.1,0.1-0.2
					c0.7-1,0.3-2.5-0.7-3.1C8.5,9.4,8.1,9.3,7.7,9.3c-0.8,0-1.5,0.3-1.9,1c-0.7,1-0.3,2.5,0.7,3.1c0.6,0.3,1.1,0.5,1.7,0.2
					c0.6,0.8,1.3,1.5,1.9,2.1C9.1,16,8,16.5,7.2,17.6c-0.2-0.1-0.5-0.1-0.7-0.1c-0.8,0-1.5,0.3-1.9,1C4.3,19.2,4.2,19.8,4.3,20.4z
					 M8.3,12c-0.1,0.1-0.1,0.2-0.2,0.2c-0.1,0.1-0.3,0.1-0.5,0.1s-0.3,0-0.5-0.1C6.7,12,6.6,11.4,7,11c0.1-0.2,0.5-0.5,0.8-0.5
					c0.1,0,0.3,0,0.5,0.1C8.6,11.1,8.7,11.6,8.3,12z M5.8,19.4c0.2-0.3,0.8-0.6,1.3-0.2l0,0c0.3,0.2,0.5,0.8,0.2,1.1
					c-0.1,0.2-0.5,0.5-0.8,0.5c-0.1,0-0.3,0-0.5-0.1c-0.2-0.1-0.3-0.3-0.3-0.6C5.7,19.9,5.7,19.7,5.8,19.4z"/>
			</g>
		</g>
	</g>
</g>
</svg>
