<?xml version="1.0" encoding="utf-8"?>
<!-- Generator: Adobe Illustrator 27.4.1, SVG Export Plug-In . SVG Version: 6.00 Build 0)  -->
<svg version="1.1" id="Layer_1" xmlns="http://www.w3.org/2000/svg" xmlns:xlink="http://www.w3.org/1999/xlink" x="0px" y="0px"
	 viewBox="0 0 27 30" style="enable-background:new 0 0 27 30;" xml:space="preserve">
<style type="text/css">
	.st0{fill:#EB743B;}
	.st1{fill:#5AA854;}
	.st2{fill:#FFFEDB;}
</style>
<polygon class="st0" points="13.9,1 13.9,29 25.9,22 25.9,8 "/>
<polygon class="st1" points="13.1,1 1.1,8 1.1,22 13.1,29 "/>
<path class="st2" d="M23.4,17.4c-0.4-0.6-1-0.9-1.7-0.9c-0.2,0-0.4,0-0.6,0.1c-0.7-0.8-1.5-1.4-2.5-1.6c0.7-0.5,1.2-1.1,1.7-1.8
	c0.5,0.1,1,0,1.5-0.2c0.9-0.6,1.2-1.8,0.7-2.7c-0.6-0.9-1.8-1.2-2.7-0.7s-1.2,1.8-0.7,2.7c0,0,0,0,0,0l0.1,0.2
	c-0.7,1-1.7,1.8-2.8,2.3l0,0c-0.8,0.4-1.6,0.6-2.5,0.6v1.5c1,0,2-0.3,2.9-0.9c1.2,0,2.4,0.5,3.2,1.4c-0.6,0.9-0.3,2.2,0.7,2.7
	c0.6,0.4,1.4,0.4,2,0C23.7,19.5,23.9,18.3,23.4,17.4L23.4,17.4z M20.4,10.5c0.1-0.1,0.3-0.1,0.4-0.1c0.4,0,0.8,0.3,0.8,0.7
	c0,0.3-0.1,0.5-0.4,0.7c-0.1,0.1-0.3,0.1-0.4,0.1c-0.1,0-0.3,0-0.4-0.1c-0.1-0.1-0.2-0.1-0.2-0.2C19.9,11.2,20,10.8,20.4,10.5
	C20.4,10.5,20.4,10.5,20.4,10.5L20.4,10.5z M22.4,18.5c-0.1,0.3-0.4,0.6-0.7,0.6c-0.4,0-0.8-0.4-0.8-0.8c0-0.2,0.1-0.5,0.3-0.6l0,0
	c0.3-0.2,0.8-0.1,1,0.2C22.4,18.1,22.5,18.4,22.4,18.5L22.4,18.5z"/>
<g>
	<g>
		<g>
			<path class="st2" d="M3.3,18.8c0.1,0.5,0.4,1,0.9,1.3c0.3,0.2,0.7,0.3,1.1,0.3C6,20.4,6.6,20,7,19.5c0.4-0.7,0.4-1.6,0-2.2
				c1.2-1.3,2.8-1.4,3.2-1.4c1.2,0.5,1.8,0.9,2.9,0.9v-1.5c-0.9,0-1.5-0.2-2.5-0.6l0,0c-1.1-0.5-2.1-1.3-2.8-2.3
				c0-0.1,0.1-0.1,0.1-0.2c0.6-0.9,0.3-2.2-0.6-2.7C6.9,9.2,6.6,9.1,6.2,9.1c-0.7,0-1.3,0.3-1.7,0.9c-0.6,0.9-0.3,2.2,0.6,2.7
				c0.5,0.3,1,0.4,1.5,0.2c0.5,0.7,1.1,1.3,1.7,1.8c-0.8,0.3-1.8,0.7-2.5,1.7c-0.2-0.1-0.4-0.1-0.6-0.1c-0.7,0-1.3,0.3-1.7,0.9
				C3.3,17.8,3.2,18.3,3.3,18.8z M6.8,11.5c-0.1,0.1-0.1,0.2-0.2,0.2c-0.1,0.1-0.3,0.1-0.4,0.1c-0.1,0-0.3,0-0.4-0.1
				c-0.4-0.2-0.5-0.7-0.2-1.1c0.1-0.2,0.4-0.4,0.7-0.4c0.1,0,0.3,0,0.4,0.1C7,10.7,7.1,11.1,6.8,11.5z M4.6,18
				c0.2-0.3,0.7-0.5,1.1-0.2l0,0c0.3,0.2,0.4,0.7,0.2,1c-0.1,0.2-0.4,0.4-0.7,0.4c-0.1,0-0.3,0-0.4-0.1c-0.2-0.1-0.3-0.3-0.3-0.5
				C4.5,18.4,4.5,18.2,4.6,18z"/>
		</g>
	</g>
</g>
</svg>
