<?xml version="1.0" encoding="UTF-8"?>
<svg id="Layer_1" data-name="Layer 1" xmlns="http://www.w3.org/2000/svg" width="150" height="150" viewBox="0 0 150 150">
  <defs>
    <style>
      .cls-1 {
        fill: #282422;
      }

      .cls-1, .cls-2, .cls-3 {
        stroke-width: 0px;
      }

      .cls-3 {
        fill: #fffedb;
      }
    </style>
  </defs>
  <g>
    <path class="cls-2" d="m86.5,48.65c.07.02.14.03.21.05-.07-.01-.14-.03-.21-.05"/>
    <path class="cls-3" d="m86.5,46.25c.07.02.14.03.21.05-.07-.01-.14-.03-.21-.05"/>
    <g>
      <path class="cls-1" d="m40.79,48.97c6.52-6.02,16.99-9.76,27.34-9.76,1.14,0,3.15.04,4.37.16V2.96L11.5,37.96v74l61,35V42.94c-1.06-.1-3.31-.15-4.37-.15-9.34,0-19.12,3.46-24.91,8.81-4.67,4.32-7.7,10.49-8.88,17.88-.24,1.48-.38,3.31-.44,5.21.3-1.91,1.75-3.36,3.51-3.36h1.94c1.97,0,3.57,1.83,3.57,4.09v30.34c0,2.26-1.6,4.09-3.57,4.09h-1.94c-1.97,0-3.57-1.83-3.57-4.09v-1.64c-.3.07-.61.12-.93.12h-2.08c-2.26,0-4.09-1.83-4.09-4.09v-18.53c0-2.05,1.52-3.74,3.49-4.03-.18-12.01,3.54-22.12,10.58-28.62Zm19.65,31.91c.55-.41,1.32-.29,1.73.25,3.63,4.88,4.21,11.28,1.51,16.73-.41.84-.9,1.64-1.45,2.38-.24.33-.62.51-1,.51-.25,0-.5-.08-.72-.24-.55-.4-.67-1.17-.27-1.73.46-.63.87-1.31,1.22-2.02,2.28-4.61,1.79-10.03-1.28-14.16-.41-.55-.29-1.32.25-1.73Zm-5.89,14.98c.28-.4.53-.82.75-1.25,1.46-2.96,1.27-6.38-.51-9.16-.37-.58-.2-1.34.37-1.71.57-.37,1.34-.2,1.71.37,2.23,3.47,2.47,7.91.65,11.6-.27.55-.59,1.08-.94,1.58-.24.34-.63.52-1.02.52-.24,0-.49-.07-.71-.22-.56-.39-.69-1.17-.3-1.72Zm-5.63-3.02c.78-1.37.84-3.04.18-4.47-.29-.62-.02-1.35.6-1.64.62-.29,1.35-.01,1.64.61.99,2.15.89,4.66-.28,6.72-.23.4-.65.63-1.08.63-.2,0-.41-.05-.6-.16-.59-.34-.8-1.09-.47-1.68Z"/>
      <path class="cls-1" d="m30.18,84.75v12.28c0,1.5,1.21,2.71,2.71,2.71h.93v-17.7h-.93c-1.5,0-2.71,1.21-2.71,2.71Z"/>
    </g>
  </g>
  <g>
    <path class="cls-1" d="m95.53,95.22c.33.2.71.3,1.08.3.75,0,1.43-.39,1.82-1.03.6-1,.26-2.3-.74-2.9-.33-.19-.7-.3-1.08-.3-.75,0-1.43.39-1.82,1.03-.29.49-.37,1.05-.23,1.6.14.55.48,1.01.96,1.29Z"/>
    <path class="cls-1" d="m121.68,99.94c.97.62,2.31.3,2.91-.65.3-.48.4-1.04.28-1.58-.12-.55-.46-1.03-.94-1.33-.34-.21-.73-.33-1.12-.33-.73,0-1.4.37-1.78.98-.6.95-.36,2.2.56,2.85l.09.06Z"/>
    <path class="cls-1" d="m107.4,114.69c.43-.37.69-.88.73-1.44s-.14-1.11-.5-1.54c-.4-.47-.99-.74-1.61-.74-.36,0-.88.09-1.37.51-.89.76-.99,2.1-.23,2.98.4.47.99.73,1.61.73.36,0,.88-.09,1.37-.51Z"/>
    <path class="cls-1" d="m77.5,3v37c2.77.15,6.31.71,10,2.32,1.24.02,6.3-.17,9.94-4.29-1.36-1.96-1.5-4.62-.14-6.76,1.12-1.78,3.06-2.85,5.17-2.85,1.16,0,2.28.33,3.26.94,1.39.88,2.35,2.25,2.71,3.84.36,1.59.07,3.23-.8,4.6-1.12,1.78-3.06,2.85-5.17,2.85-.6,0-1.2-.09-1.77-.27-2.38,2.83-5.26,4.32-7.78,5.1,2.02,1.55,3.81,3.41,5.34,5.57,1.58-.36,3.28-.12,4.67.75,2.86,1.81,3.71,5.6,1.91,8.45-1.13,1.79-3.07,2.85-5.18,2.85-1.16,0-2.29-.33-3.27-.95-2.85-1.8-3.7-5.59-1.9-8.44.12-.19.25-.37.38-.54-2.27-3.11-5.16-5.48-8.61-7.04,0,0-.01,0-.01,0-3.2-1.45-6.31-1.99-8.75-2.14v24c5.15.37,7.57,2.97,9.37,5.02,1.35,1.54,2.12,2.35,3.46,2.42,1.94.1,3.42.05,4.85,0,1.74-.06,3.33-.11,5.29.12,5.67-.09,7.6-1.34,9.64-2.67,1.63-1.06,3.45-2.24,6.82-2.73.16-.54.39-1.08.71-1.58.19-.3.41-.57.63-.82.13-.15.28-.27.43-.4-1.11-4.09-1.31-9.9.04-14.42-.02-.02-.05-.04-.07-.06-2.14-1.96-2.63-5.23-1.02-7.76,1.12-1.78,3.06-2.85,5.17-2.85,1.16,0,2.29.33,3.27.94,1.39.88,2.35,2.25,2.71,3.84.36,1.59.07,3.23-.8,4.6-1.12,1.78-3.06,2.85-5.17,2.85-.11,0-.22-.01-.34-.02-.95,3.5-.75,8.11-.04,11.26.12,0,.25-.02.38-.02,1.16,0,2.29.33,3.27.94,1.39.88,2.35,2.25,2.71,3.84.36,1.59.07,3.23-.8,4.6-1.12,1.78-3.06,2.85-5.17,2.85-1.16,0-2.29-.33-3.27-.95-.13-.09-.21-.14-.28-.19-.97-.69-1.68-1.61-2.11-2.65-2.24.38-3.43,1.14-4.86,2.07-1.16.75-2.4,1.56-4.21,2.19,4.54,3.34,10.63,9.61,13.19,13.79.5-.13,1.01-.2,1.54-.2,1.16,0,2.29.33,3.27.94,1.39.88,2.35,2.25,2.71,3.84.36,1.59.07,3.23-.8,4.6-1.12,1.78-3.06,2.85-5.17,2.85-1.16,0-2.29-.33-3.27-.95-.13-.09-.21-.14-.28-.19-2.65-1.87-3.36-5.5-1.62-8.25.09-.15.21-.29.31-.43-2.67-4.65-12.17-13.68-14.77-14.32-3.4-.84-5.36-.78-7.86-.68-1.45.05-3.09.11-5.21,0-3.08-.17-4.77-2.09-6.26-3.78-1.56-1.78-3.06-3.37-6.36-3.67v42c.51-.1,1.37-.28,2.56-.81.11-.07.23-.12.36-.17,3.35-1.6,8.51-5.47,12.57-14.68-1.14-.84-1.95-2.04-2.3-3.43-.4-1.59-.16-3.23.68-4.64,1.1-1.84,3.11-2.99,5.26-2.99,1.1,0,2.18.3,3.13.86,2.9,1.73,3.85,5.5,2.12,8.39-1.06,1.78-2.98,2.9-5.04,2.97-2.58,6-5.65,10.07-8.58,12.83,1.73.33,2.98,1.05,4.15,1.85.92.63,1.4.93,2.22.97,1.07.03,3.38-.63,5.33-1.33-.24-1.97.47-4.01,2.09-5.4,1.11-.95,2.52-1.48,3.98-1.48,1.79,0,3.48.78,4.65,2.14,1.06,1.24,1.58,2.82,1.46,4.45-.12,1.63-.88,3.11-2.12,4.18-1.11.95-2.52,1.48-3.98,1.48-1.61,0-3.14-.63-4.29-1.75-1.85.7-4.91,1.72-7.02,1.72-.1,0-.21,0-.31,0-1.97-.1-3.24-.96-4.26-1.66-1.57-1.06-3.06-2.07-8.41-.71-2.36,1.07-3.97,1.16-4.25,1.19v29l61-35V38L77.5,3Z"/>
    <path class="cls-1" d="m121.59,73.58l.09.06c.97.62,2.31.3,2.91-.65.3-.48.4-1.04.28-1.58-.12-.55-.46-1.03-.94-1.33-.34-.21-.73-.33-1.12-.33-.73,0-1.4.37-1.78.98-.6.95-.36,2.2.56,2.85Z"/>
    <path class="cls-1" d="m121.59,50.11l.09.06c.97.62,2.31.3,2.91-.65.3-.48.4-1.04.28-1.58-.12-.55-.46-1.03-.94-1.33-.34-.21-.73-.33-1.12-.33-.73,0-1.4.37-1.78.98-.6.95-.36,2.2.56,2.85Z"/>
    <path class="cls-1" d="m101.25,36.25l.1.06c.97.62,2.31.3,2.91-.65.3-.48.4-1.04.28-1.58-.12-.55-.46-1.03-.94-1.33-.34-.21-.73-.33-1.12-.33-.73,0-1.4.37-1.78.98-.6.95-.36,2.2.56,2.85Z"/>
    <path class="cls-1" d="m99.66,59.1c.73,0,1.4-.37,1.8-.99.62-.98.33-2.29-.66-2.92-.33-.21-.72-.32-1.12-.32s-.79.11-1.12.32c-.28.17-.5.39-.67.66-.62.99-.33,2.3.66,2.92.34.21.73.33,1.12.33Z"/>
  </g>
</svg>