<?xml version="1.0" encoding="UTF-8"?>
<svg id="Layer_1" data-name="Layer 1" xmlns="http://www.w3.org/2000/svg" width="100" height="100" viewBox="0 0 100 100">
  <defs>
    <style>
      .cls-1 {
        fill: #282422;
        stroke-width: 0px;
      }
    </style>
  </defs>
  <g>
    <path class="cls-1" d="m27.1,32.94c4.36-4.03,11.37-6.53,18.3-6.53.76,0,2.11.03,2.93.1V2.14L7.5,25.57v49.53l40.83,23.43V28.9c-.71-.07-2.21-.1-2.93-.1-6.25,0-12.8,2.31-16.67,5.9-3.13,2.89-5.16,7.02-5.95,11.97-.16.99-.25,2.22-.3,3.49.2-1.28,1.17-2.25,2.35-2.25h1.3c1.32,0,2.39,1.23,2.39,2.74v20.31c0,1.51-1.07,2.74-2.39,2.74h-1.3c-1.32,0-2.39-1.23-2.39-2.74v-1.1c-.2.05-.41.08-.63.08h-1.39c-1.51,0-2.74-1.23-2.74-2.74v-12.4c0-1.37,1.01-2.5,2.33-2.7-.12-8.04,2.37-14.8,7.08-19.16Zm13.15,21.35c.37-.27.88-.2,1.16.17,2.43,3.26,2.82,7.55,1.01,11.2-.28.56-.6,1.1-.97,1.59-.16.22-.41.34-.67.34-.17,0-.34-.05-.48-.16-.37-.27-.45-.79-.18-1.15.31-.42.58-.88.82-1.35,1.53-3.08,1.2-6.71-.86-9.48-.27-.37-.2-.88.17-1.16Zm-3.94,10.03c.19-.26.35-.55.5-.84.98-1.98.85-4.27-.34-6.13-.25-.38-.14-.9.25-1.14.38-.25.9-.14,1.14.25,1.49,2.32,1.66,5.29.43,7.76-.18.37-.39.72-.63,1.06-.16.23-.42.35-.68.35-.16,0-.33-.05-.47-.15-.37-.26-.46-.78-.2-1.15Zm-3.77-2.02c.52-.91.56-2.03.12-2.99-.19-.41-.01-.9.4-1.1.41-.19.91,0,1.1.41.66,1.44.59,3.12-.19,4.5-.15.27-.43.42-.72.42-.14,0-.28-.03-.4-.11-.4-.22-.54-.73-.31-1.13Z"/>
    <path class="cls-1" d="m20,56.88v8.22c0,1,.81,1.81,1.81,1.81h.62v-11.85h-.62c-1,0-1.81.81-1.81,1.82Z"/>
  </g>
  <g>
    <path class="cls-1" d="m51.7,2.17v49c3,0,5.09-.51,8.62-2.12h.01c3.81-1.73,7-4.35,9.52-7.79-.15-.19-.29-.39-.42-.6-1.99-3.16-1.04-7.34,2.11-9.34,1.08-.69,2.33-1.05,3.62-1.05,2.33,0,4.47,1.18,5.72,3.15,2,3.15,1.05,7.34-2.1,9.35-1.53.96-3.42,1.23-5.16.83-1.7,2.38-3.67,4.44-5.91,6.15,2.78.86,5.97,2.51,8.6,5.64.63-.19,1.29-.29,1.96-.29,2.34,0,4.48,1.18,5.72,3.15.97,1.52,1.29,3.33.89,5.09-.4,1.77-1.46,3.28-3,4.25-1.08.68-2.33,1.04-3.61,1.04-2.34,0-4.48-1.18-5.72-3.15-1.5-2.36-1.35-5.31.16-7.47-4.03-4.56-9.62-4.77-10.99-4.75-4.08,1.77-6.02,2.9-10.02,2.9v42l41-24V26.17L51.7,2.17Z"/>
    <path class="cls-1" d="m73.78,39.27c.42.26.9.39,1.39.39s.98-.14,1.39-.4c1.22-.77,1.59-2.4.82-3.61-.49-.77-1.32-1.22-2.22-1.22-.5,0-.97.14-1.4.41-1.22.77-1.58,2.39-.81,3.62.21.33.49.6.83.82Z"/>
    <path class="cls-1" d="m78.27,64.49c.49,0,.98-.14,1.39-.41.6-.38,1.01-.96,1.16-1.64.15-.68.03-1.37-.34-1.97-.74-1.17-2.4-1.57-3.61-.81l-.12.08c-1.13.8-1.44,2.35-.69,3.53.48.76,1.3,1.22,2.21,1.22Z"/>
  </g>
</svg>