<?xml version="1.0" encoding="UTF-8"?><svg id="Layer_1" xmlns="http://www.w3.org/2000/svg" width="763.71" height="150" viewBox="0 0 763.71 150"><defs><style>.cls-1{fill:#282422;stroke-width:0px;}</style></defs><path class="cls-1" d="M3.89,38v74l61,35v-29.28h-25.98c-1.12,0-2.02-.91-2.02-2.02v-5.56l-7.26,1.37-3.8.71c-.09.02-.18.02-.27.02-.09,0-.18-.02-.26-.05-.08-.03-.16-.07-.24-.11-.08-.05-.15-.11-.21-.18-.07-.07-.12-.15-.17-.23-.05-.08-.09-.18-.13-.28-.04-.1-.06-.2-.08-.31-.02-.11-.03-.22-.03-.33v-6.52l-8.35,1.85c-.06.01-.12.02-.18.01-.06,0-.12-.02-.17-.04-.05-.02-.11-.05-.16-.09-.05-.04-.1-.09-.14-.14-.04-.06-.08-.12-.12-.19-.03-.07-.06-.15-.09-.23-.02-.08-.04-.16-.05-.25-.01-.09-.02-.18-.02-.27v-52.42c0-.09,0-.18.02-.27.01-.09.03-.17.05-.25.02-.08.05-.16.09-.23.03-.07.07-.13.12-.19.04-.06.09-.11.14-.15.05-.04.1-.07.16-.1.06-.02.11-.04.17-.04.06,0,.12,0,.18.01l8.35,1.85v-6.51c0-.11,0-.23.03-.33.02-.11.05-.21.08-.31.04-.1.08-.19.13-.27.05-.08.11-.16.17-.23.07-.07.14-.13.21-.18.08-.05.16-.09.24-.11.09-.03.17-.04.26-.05.09,0,.18,0,.27.02l3.8.71,7.26,1.37v-5.56c0-1.12.91-2.02,2.02-2.02h25.98V3L3.89,38Z"/><rect class="cls-1" x="40.93" y="43.65" width="23.96" height="70.03"/><polygon class="cls-1" points="24.43 101.61 24.43 55.71 16.98 54.23 16.98 103.09 24.43 101.61"/><polygon class="cls-1" points="27.21 108.55 36.88 106.91 36.88 50.42 27.21 48.78 27.21 108.55"/><path class="cls-1" d="M88.24,95.36c.33.2.71.3,1.08.3.75,0,1.43-.39,1.82-1.03.6-1,.26-2.3-.74-2.9-.33-.19-.7-.3-1.08-.3-.75,0-1.43.39-1.82,1.03-.29.49-.37,1.05-.23,1.6.14.55.48,1.01.96,1.29Z"/><path class="cls-1" d="M114.38,100.07c.97.62,2.31.3,2.91-.65.3-.48.4-1.04.28-1.58-.12-.55-.46-1.03-.94-1.33-.34-.21-.73-.33-1.12-.33-.73,0-1.4.37-1.78.98-.6.95-.36,2.2.56,2.85l.09.06Z"/><path class="cls-1" d="M100.11,114.82c.43-.37.69-.88.73-1.44.04-.56-.14-1.11-.5-1.54-.4-.47-.99-.74-1.61-.74-.36,0-.88.09-1.37.51-.89.76-.99,2.1-.23,2.98.4.47.99.73,1.61.73.36,0,.88-.09,1.37-.51Z"/><path class="cls-1" d="M70.2,3.13v37c2.77.15,6.31.71,10,2.32,1.24.02,6.3-.17,9.94-4.29-1.36-1.96-1.5-4.62-.14-6.76,1.12-1.78,3.06-2.85,5.17-2.85,1.16,0,2.28.33,3.26.94,1.39.88,2.35,2.25,2.71,3.84.36,1.59.07,3.23-.8,4.6-1.12,1.78-3.06,2.85-5.17,2.85-.6,0-1.2-.09-1.77-.27-2.38,2.83-5.26,4.32-7.78,5.1,2.02,1.55,3.81,3.41,5.34,5.57,1.58-.36,3.28-.12,4.67.75,2.86,1.81,3.71,5.6,1.91,8.45-1.13,1.79-3.07,2.85-5.18,2.85-1.16,0-2.29-.33-3.27-.95-2.85-1.8-3.7-5.59-1.9-8.44.12-.19.25-.37.38-.54-2.27-3.11-5.16-5.48-8.61-7.04,0,0,0,0-.01,0-3.2-1.45-6.31-1.99-8.75-2.14v24c5.15.37,7.57,2.97,9.37,5.02,1.35,1.54,2.12,2.35,3.46,2.42,1.94.1,3.42.05,4.85,0,1.74-.06,3.33-.11,5.29.12,5.67-.09,7.6-1.34,9.64-2.67,1.63-1.06,3.45-2.24,6.82-2.73.16-.54.39-1.08.71-1.58.19-.3.41-.57.63-.82.13-.15.28-.27.43-.4-1.11-4.09-1.31-9.9.04-14.42-.02-.02-.05-.04-.07-.06-2.14-1.96-2.63-5.23-1.02-7.76,1.12-1.78,3.06-2.85,5.17-2.85,1.16,0,2.29.33,3.27.94,1.39.88,2.35,2.25,2.71,3.84.36,1.59.07,3.23-.8,4.6-1.12,1.78-3.06,2.85-5.17,2.85-.11,0-.22-.01-.34-.02-.95,3.5-.75,8.11-.04,11.26.12,0,.25-.02.38-.02,1.16,0,2.29.33,3.27.94,1.39.88,2.35,2.25,2.71,3.84.36,1.59.07,3.23-.8,4.6-1.12,1.78-3.06,2.85-5.17,2.85-1.16,0-2.29-.33-3.27-.95-.13-.09-.21-.14-.28-.19-.97-.69-1.68-1.61-2.11-2.65-2.24.38-3.43,1.14-4.86,2.07-1.16.75-2.4,1.56-4.21,2.19,4.54,3.34,10.63,9.61,13.19,13.79.5-.13,1.01-.2,1.54-.2,1.16,0,2.29.33,3.27.94,1.39.88,2.35,2.25,2.71,3.84.36,1.59.07,3.23-.8,4.6-1.12,1.78-3.06,2.85-5.17,2.85-1.16,0-2.29-.33-3.27-.95-.13-.09-.21-.14-.28-.19-2.65-1.87-3.36-5.5-1.62-8.25.09-.15.21-.29.31-.43-2.67-4.65-12.17-13.68-14.77-14.32-3.4-.84-5.36-.78-7.86-.68-1.45.05-3.09.11-5.21,0-3.08-.17-4.77-2.09-6.26-3.78-1.56-1.78-3.06-3.37-6.36-3.67v42c.51-.1,1.37-.28,2.56-.81.11-.07.23-.12.36-.17,3.35-1.6,8.51-5.47,12.57-14.68-1.14-.84-1.95-2.04-2.3-3.43-.4-1.59-.16-3.23.68-4.64,1.1-1.84,3.11-2.99,5.26-2.99,1.1,0,2.18.3,3.13.86,2.9,1.73,3.85,5.5,2.12,8.39-1.06,1.78-2.98,2.9-5.04,2.97-2.58,6-5.65,10.07-8.58,12.83,1.73.33,2.98,1.05,4.15,1.85.92.63,1.4.93,2.22.97,1.07.03,3.38-.63,5.33-1.33-.24-1.97.47-4.01,2.09-5.4,1.11-.95,2.52-1.48,3.98-1.48,1.79,0,3.48.78,4.65,2.14,1.06,1.24,1.58,2.82,1.46,4.45-.12,1.63-.88,3.11-2.12,4.18-1.11.95-2.52,1.48-3.98,1.48-1.61,0-3.14-.63-4.29-1.75-1.85.7-4.91,1.72-7.02,1.72-.1,0-.21,0-.31,0-1.97-.1-3.24-.96-4.26-1.66-1.57-1.06-3.06-2.07-8.41-.71-2.36,1.07-3.97,1.16-4.25,1.19v29l61-35V38.13L70.2,3.13Z"/><path class="cls-1" d="M114.29,73.71l.09.06c.97.62,2.31.3,2.91-.65.3-.48.4-1.04.28-1.58-.12-.55-.46-1.03-.94-1.33-.34-.21-.73-.33-1.12-.33-.73,0-1.4.37-1.78.98-.6.95-.36,2.2.56,2.85Z"/><path class="cls-1" d="M114.29,50.24l.09.06c.97.62,2.31.3,2.91-.65.3-.48.4-1.04.28-1.58-.12-.55-.46-1.03-.94-1.33-.34-.21-.73-.33-1.12-.33-.73,0-1.4.37-1.78.98-.6.95-.36,2.2.56,2.85Z"/><path class="cls-1" d="M93.95,36.39l.1.06c.97.62,2.31.3,2.91-.65.3-.48.4-1.04.28-1.58-.12-.55-.46-1.03-.94-1.33-.34-.21-.73-.33-1.12-.33-.73,0-1.4.37-1.78.98-.6.95-.36,2.2.56,2.85Z"/><path class="cls-1" d="M92.36,59.23c.73,0,1.4-.37,1.8-.99.62-.98.33-2.29-.66-2.92-.33-.21-.72-.32-1.12-.32s-.79.11-1.12.32c-.28.17-.5.39-.67.66-.62.99-.33,2.3.66,2.92.34.21.73.33,1.12.33Z"/><path class="cls-1" d="M189.36,79.95h-20.75v13.08h24.51v10.15h-37.71v-54.74h37.79v10.19h-24.59v11.54h20.75v9.78Z"/><path class="cls-1" d="M213.16,88.11l6.43-25.6h13.35l-13.27,40.68h-12.93l-13.27-40.68h13.38l6.32,25.6Z"/><path class="cls-1" d="M255.9,103.94c-6.24,0-11.29-1.86-15.15-5.58-3.86-3.72-5.79-8.57-5.79-14.53v-1.05c0-4.16.77-7.83,2.31-11.02,1.54-3.18,3.79-5.65,6.75-7.39,2.96-1.74,6.47-2.61,10.53-2.61,5.71,0,10.23,1.77,13.54,5.32s4.96,8.49,4.96,14.83v4.92h-25.19c.45,2.28,1.44,4.07,2.97,5.38,1.53,1.3,3.51,1.96,5.94,1.96,4.01,0,7.14-1.4,9.4-4.21l5.79,6.84c-1.58,2.18-3.82,3.92-6.71,5.21-2.89,1.29-6.01,1.94-9.34,1.94ZM254.48,71.53c-3.71,0-5.92,2.46-6.62,7.37h12.78v-.98c.05-2.03-.46-3.6-1.54-4.72-1.08-1.12-2.62-1.67-4.62-1.67Z"/><path class="cls-1" d="M289.78,62.51l.41,4.77c2.81-3.68,6.68-5.53,11.62-5.53,4.24,0,7.4,1.27,9.49,3.8,2.09,2.53,3.18,6.34,3.25,11.43v26.21h-12.71v-25.68c0-2.05-.41-3.56-1.24-4.53-.83-.96-2.33-1.45-4.51-1.45-2.48,0-4.32.98-5.53,2.93v28.72h-12.67v-40.68h11.88Z"/><path class="cls-1" d="M336.33,52.39v10.11h6.69v8.8h-6.69v18.61c0,1.53.28,2.59.83,3.2.55.6,1.64.9,3.27.9,1.25,0,2.31-.08,3.16-.23v9.06c-2.28.73-4.66,1.09-7.14,1.09-4.36,0-7.58-1.03-9.66-3.08-2.08-2.05-3.12-5.18-3.12-9.36v-20.19h-5.19v-8.8h5.19v-10.11h12.67Z"/><path class="cls-1" d="M398.85,92.96h-18.08l-3.16,10.23h-14.1l20.08-54.74h12.41l20.23,54.74h-14.17l-3.2-10.23ZM383.93,82.77h11.77l-5.9-18.99-5.87,18.99Z"/><path class="cls-1" d="M444.23,73.98l-4.17-.3c-3.99,0-6.54,1.25-7.67,3.76v25.75h-12.67v-40.68h11.88l.41,5.23c2.13-3.98,5.1-5.98,8.91-5.98,1.35,0,2.53.15,3.54.45l-.23,11.77Z"/><path class="cls-1" d="M465.44,52.39v10.11h6.69v8.8h-6.69v18.61c0,1.53.28,2.59.83,3.2.55.6,1.64.9,3.27.9,1.25,0,2.31-.08,3.16-.23v9.06c-2.28.73-4.66,1.09-7.14,1.09-4.36,0-7.58-1.03-9.66-3.08-2.08-2.05-3.12-5.18-3.12-9.36v-20.19h-5.19v-8.8h5.19v-10.11h12.67Z"/><path class="cls-1" d="M527.96,92.96h-18.08l-3.16,10.23h-14.1l20.08-54.74h12.41l20.23,54.74h-14.17l-3.2-10.23ZM513.04,82.77h11.77l-5.9-18.99-5.87,18.99Z"/><path class="cls-1" d="M573.34,73.98l-4.17-.3c-3.99,0-6.54,1.25-7.67,3.76v25.75h-12.67v-40.68h11.88l.41,5.23c2.13-3.98,5.1-5.98,8.91-5.98,1.35,0,2.53.15,3.54.45l-.23,11.77Z"/><path class="cls-1" d="M594.4,94.17c1.78,0,3.16-.48,4.14-1.45s1.45-2.31,1.43-4.04h11.88c0,4.46-1.6,8.12-4.79,10.98-3.2,2.86-7.31,4.29-12.35,4.29-5.92,0-10.58-1.85-13.99-5.56-3.41-3.71-5.11-8.85-5.11-15.42v-.53c0-4.11.76-7.74,2.27-10.88,1.52-3.15,3.7-5.56,6.56-7.26,2.86-1.69,6.24-2.54,10.15-2.54,5.29,0,9.49,1.47,12.6,4.4,3.11,2.93,4.66,6.91,4.66,11.92h-11.88c0-2.11-.51-3.72-1.54-4.85-1.03-1.13-2.41-1.69-4.14-1.69-3.28,0-5.2,2.09-5.75,6.28-.18,1.33-.26,3.16-.26,5.49,0,4.08.49,6.92,1.47,8.5.98,1.58,2.53,2.37,4.66,2.37Z"/><path class="cls-1" d="M629.59,66.87c2.71-3.41,6.17-5.11,10.38-5.11,4.49,0,7.87,1.33,10.15,3.99,2.28,2.66,3.45,6.58,3.5,11.77v25.68h-12.71v-25.38c0-2.16-.44-3.74-1.32-4.76-.88-1.01-2.37-1.52-4.47-1.52-2.61,0-4.45.83-5.53,2.48v29.18h-12.67v-57.75h12.67v21.43Z"/><path class="cls-1" d="M660.57,52.02c0-1.8.65-3.28,1.96-4.44,1.3-1.15,3-1.73,5.08-1.73s3.77.58,5.08,1.73c1.3,1.15,1.96,2.63,1.96,4.44s-.65,3.28-1.96,4.44c-1.3,1.15-3,1.73-5.08,1.73s-3.77-.58-5.08-1.73c-1.3-1.15-1.96-2.63-1.96-4.44ZM674.03,103.19h-12.71v-40.68h12.71v40.68Z"/><path class="cls-1" d="M698.05,88.11l6.43-25.6h13.35l-13.27,40.68h-12.93l-13.27-40.68h13.38l6.32,25.6Z"/><path class="cls-1" d="M740.8,103.94c-6.24,0-11.29-1.86-15.15-5.58-3.86-3.72-5.79-8.57-5.79-14.53v-1.05c0-4.16.77-7.83,2.31-11.02,1.54-3.18,3.79-5.65,6.75-7.39,2.96-1.74,6.47-2.61,10.53-2.61,5.71,0,10.23,1.77,13.54,5.32s4.96,8.49,4.96,14.83v4.92h-25.19c.45,2.28,1.44,4.07,2.97,5.38,1.53,1.3,3.51,1.96,5.94,1.96,4.01,0,7.14-1.4,9.4-4.21l5.79,6.84c-1.58,2.18-3.82,3.92-6.71,5.21-2.89,1.29-6.01,1.94-9.34,1.94ZM739.37,71.53c-3.71,0-5.92,2.46-6.62,7.37h12.78v-.98c.05-2.03-.46-3.6-1.54-4.72-1.08-1.12-2.62-1.67-4.62-1.67Z"/></svg>