<?xml version="1.0" encoding="UTF-8"?><svg id="Layer_1" xmlns="http://www.w3.org/2000/svg" width="288.05" height="30" viewBox="0 0 288.05 30"><defs><style>.cls-1{fill:#282422;stroke-width:0px;}</style></defs><path class="cls-1" d="M50.04,17.35h-8.62v5.43h10.18v4.21h-15.65V4.28h15.69v4.23h-10.21v4.79h8.62v4.06Z"/><path class="cls-1" d="M59.92,20.74l2.67-10.63h5.54l-5.51,16.89h-5.37l-5.51-16.89h5.56l2.62,10.63Z"/><path class="cls-1" d="M77.66,27.31c-2.59,0-4.69-.77-6.29-2.32-1.6-1.54-2.4-3.56-2.4-6.03v-.44c0-1.73.32-3.25.96-4.57s1.57-2.34,2.8-3.07c1.23-.72,2.68-1.08,4.37-1.08,2.37,0,4.25.74,5.62,2.21,1.37,1.47,2.06,3.52,2.06,6.16v2.04h-10.46c.19.95.6,1.69,1.23,2.23s1.46.81,2.47.81c1.67,0,2.97-.58,3.9-1.75l2.4,2.84c-.66.91-1.58,1.63-2.79,2.16-1.2.54-2.49.8-3.88.8ZM77.07,13.86c-1.54,0-2.46,1.02-2.75,3.06h5.31v-.41c.02-.84-.19-1.5-.64-1.96s-1.09-.7-1.92-.7Z"/><path class="cls-1" d="M91.72,10.11l.17,1.98c1.17-1.53,2.77-2.29,4.82-2.29,1.76,0,3.07.53,3.94,1.58.87,1.05,1.32,2.63,1.35,4.75v10.88h-5.28v-10.66c0-.85-.17-1.48-.52-1.88-.34-.4-.97-.6-1.87-.6-1.03,0-1.79.41-2.29,1.22v11.92h-5.26V10.11h4.93Z"/><path class="cls-1" d="M111.04,5.91v4.2h2.78v3.65h-2.78v7.73c0,.63.11,1.08.34,1.33.23.25.68.37,1.36.37.52,0,.96-.03,1.31-.09v3.76c-.95.3-1.94.45-2.97.45-1.81,0-3.15-.43-4.01-1.28-.86-.85-1.3-2.15-1.3-3.89v-8.38h-2.15v-3.65h2.15v-4.2h5.26Z"/><path class="cls-1" d="M137,22.75h-7.51l-1.31,4.25h-5.85l8.33-22.72h5.15l8.4,22.72h-5.88l-1.33-4.25ZM130.8,18.53h4.88l-2.45-7.88-2.43,7.88Z"/><path class="cls-1" d="M155.84,14.87l-1.73-.12c-1.65,0-2.71.52-3.18,1.56v10.69h-5.26V10.11h4.93l.17,2.17c.88-1.65,2.12-2.48,3.7-2.48.56,0,1.05.06,1.47.19l-.09,4.88Z"/><path class="cls-1" d="M164.64,5.91v4.2h2.78v3.65h-2.78v7.73c0,.63.11,1.08.34,1.33.23.25.68.37,1.36.37.52,0,.96-.03,1.31-.09v3.76c-.95.3-1.94.45-2.97.45-1.81,0-3.15-.43-4.01-1.28-.86-.85-1.3-2.15-1.3-3.89v-8.38h-2.15v-3.65h2.15v-4.2h5.26Z"/><path class="cls-1" d="M190.59,22.75h-7.51l-1.31,4.25h-5.85l8.33-22.72h5.15l8.4,22.72h-5.88l-1.33-4.25ZM184.4,18.53h4.88l-2.45-7.88-2.43,7.88Z"/><path class="cls-1" d="M209.43,14.87l-1.73-.12c-1.65,0-2.71.52-3.18,1.56v10.69h-5.26V10.11h4.93l.17,2.17c.88-1.65,2.12-2.48,3.7-2.48.56,0,1.05.06,1.47.19l-.09,4.88Z"/><path class="cls-1" d="M218.17,23.25c.74,0,1.31-.2,1.72-.6.41-.4.6-.96.59-1.68h4.93c0,1.85-.66,3.37-1.99,4.56-1.33,1.19-3.04,1.78-5.13,1.78-2.46,0-4.39-.77-5.81-2.31-1.42-1.54-2.12-3.67-2.12-6.4v-.22c0-1.71.31-3.21.94-4.52.63-1.31,1.54-2.31,2.72-3.01,1.19-.7,2.59-1.05,4.21-1.05,2.2,0,3.94.61,5.23,1.83,1.29,1.22,1.93,2.87,1.93,4.95h-4.93c0-.87-.21-1.54-.64-2.01-.43-.47-1-.7-1.72-.7-1.36,0-2.16.87-2.39,2.61-.07.55-.11,1.31-.11,2.28,0,1.7.2,2.87.61,3.53.41.66,1.05.98,1.94.98Z"/><path class="cls-1" d="M232.78,11.92c1.12-1.42,2.56-2.12,4.31-2.12,1.86,0,3.27.55,4.21,1.65.95,1.1,1.43,2.73,1.45,4.88v10.66h-5.28v-10.54c0-.89-.18-1.55-.55-1.97-.36-.42-.98-.63-1.86-.63-1.08,0-1.85.34-2.29,1.03v12.11h-5.26V3.03h5.26v8.9Z"/><path class="cls-1" d="M245.64,5.76c0-.75.27-1.36.81-1.84s1.24-.72,2.11-.72,1.57.24,2.11.72.81,1.09.81,1.84-.27,1.36-.81,1.84-1.24.72-2.11.72-1.57-.24-2.11-.72-.81-1.09-.81-1.84ZM251.23,27h-5.28V10.11h5.28v16.89Z"/><path class="cls-1" d="M261.2,20.74l2.67-10.63h5.54l-5.51,16.89h-5.37l-5.51-16.89h5.56l2.62,10.63Z"/><path class="cls-1" d="M278.95,27.31c-2.59,0-4.69-.77-6.29-2.32-1.6-1.54-2.4-3.56-2.4-6.03v-.44c0-1.73.32-3.25.96-4.57s1.57-2.34,2.8-3.07c1.23-.72,2.68-1.08,4.37-1.08,2.37,0,4.25.74,5.62,2.21,1.37,1.47,2.06,3.52,2.06,6.16v2.04h-10.46c.19.95.6,1.69,1.23,2.23s1.46.81,2.47.81c1.67,0,2.97-.58,3.9-1.75l2.4,2.84c-.66.91-1.58,1.63-2.79,2.16-1.2.54-2.49.8-3.88.8ZM278.35,13.86c-1.54,0-2.46,1.02-2.75,3.06h5.31v-.41c.02-.84-.19-1.5-.64-1.96s-1.09-.7-1.92-.7Z"/><polygon class="cls-1" points="13.92 1 1.92 8 1.92 22 13.92 29 13.92 1"/><polygon class="cls-1" points="14.92 1 26.92 8 26.92 22 14.92 29 14.92 1"/></svg>