<?xml version="1.0" encoding="UTF-8"?><svg id="Layer_1" xmlns="http://www.w3.org/2000/svg" width="663.56" height="100" viewBox="0 0 663.56 100"><defs><style>.cls-1{fill:#282422;stroke-width:0px;}</style></defs><path class="cls-1" d="M3.2,26.33v48l41,24v-19.52h-17.32c-.74,0-1.35-.6-1.35-1.35v-3.71l-4.84.91-2.53.48c-.06.01-.12.02-.18.01-.06,0-.12-.01-.17-.03-.06-.02-.11-.04-.16-.08-.05-.03-.1-.07-.14-.12-.04-.04-.08-.1-.12-.15-.03-.06-.06-.12-.09-.18-.02-.07-.04-.13-.05-.21-.01-.07-.02-.15-.02-.22v-4.35l-5.57,1.23s-.08.01-.12,0c-.04,0-.08-.01-.12-.03-.04-.02-.07-.04-.11-.06-.03-.03-.07-.06-.09-.09-.03-.04-.05-.08-.08-.13-.02-.05-.04-.1-.06-.15-.02-.05-.03-.11-.04-.17,0-.06-.01-.12-.01-.18v-34.95c0-.06,0-.12.01-.18s.02-.12.04-.17c.02-.05.04-.1.06-.15.02-.05.05-.09.08-.12.03-.04.06-.07.09-.1.03-.03.07-.05.11-.07s.08-.03.12-.03c.04,0,.08,0,.12,0l5.57,1.23v-4.34c0-.08,0-.15.02-.22.01-.07.03-.14.05-.21.02-.07.05-.13.09-.18.03-.06.07-.11.12-.15.04-.04.09-.08.14-.12.05-.03.1-.06.16-.08.06-.02.12-.03.17-.03.06,0,.12,0,.18.01l2.53.48,4.84.91v-3.71c0-.75.6-1.35,1.35-1.35h17.32V2.33L3.2,26.33Z"/><rect class="cls-1" x="28.23" y="29.43" width="15.97" height="46.68"/><polygon class="cls-1" points="19.08 72.7 25.53 71.61 25.53 33.94 19.08 32.85 19.08 72.7"/><polygon class="cls-1" points="17.23 68.07 17.23 37.47 12.26 36.48 12.26 69.06 17.23 68.07"/><path class="cls-1" d="M135.45,52.78h-19.09v12.04h22.55v9.34h-34.69V23.79h34.76v9.37h-22.62v10.62h19.09v8.99Z"/><path class="cls-1" d="M157.35,60.28l5.91-23.56h12.28l-12.21,37.43h-11.9l-12.21-37.43h12.31l5.81,23.56Z"/><path class="cls-1" d="M196.67,74.85c-5.74,0-10.39-1.71-13.94-5.14-3.55-3.42-5.33-7.88-5.33-13.37v-.97c0-3.83.71-7.21,2.13-10.13,1.42-2.93,3.49-5.19,6.21-6.8,2.72-1.6,5.95-2.4,9.68-2.4,5.26,0,9.41,1.63,12.45,4.89,3.04,3.26,4.57,7.81,4.57,13.65v4.53h-23.17c.42,2.1,1.33,3.75,2.73,4.95,1.41,1.2,3.23,1.8,5.46,1.8,3.69,0,6.57-1.29,8.65-3.87l5.33,6.3c-1.45,2.01-3.51,3.6-6.17,4.79s-5.53,1.78-8.6,1.78ZM195.36,45.03c-3.41,0-5.44,2.26-6.09,6.78h11.76v-.9c.05-1.87-.43-3.31-1.42-4.34-.99-1.03-2.41-1.54-4.25-1.54Z"/><path class="cls-1" d="M227.84,36.73l.38,4.39c2.58-3.39,6.15-5.08,10.69-5.08,3.9,0,6.81,1.16,8.73,3.49s2.92,5.83,2.99,10.52v24.11h-11.69v-23.62c0-1.89-.38-3.28-1.14-4.17-.76-.89-2.14-1.33-4.15-1.33-2.28,0-3.98.9-5.08,2.7v26.43h-11.66v-37.43h10.93Z"/><path class="cls-1" d="M270.66,27.42v9.3h6.16v8.09h-6.16v17.12c0,1.41.25,2.39.76,2.94.51.55,1.51.83,3.01.83,1.15,0,2.12-.07,2.91-.21v8.34c-2.1.67-4.29,1-6.57,1-4.01,0-6.98-.95-8.89-2.84-1.91-1.89-2.87-4.76-2.87-8.61v-18.58h-4.77v-8.09h4.77v-9.3h11.66Z"/><path class="cls-1" d="M328.18,64.75h-16.64l-2.91,9.41h-12.97l18.47-50.36h11.41l18.61,50.36h-13.04l-2.94-9.41ZM314.45,55.37h10.83l-5.43-17.47-5.4,17.47Z"/><path class="cls-1" d="M369.93,47.28l-3.84-.28c-3.67,0-6.02,1.15-7.06,3.46v23.69h-11.66v-37.43h10.93l.38,4.81c1.96-3.67,4.69-5.5,8.2-5.5,1.25,0,2.33.14,3.25.42l-.21,10.83Z"/><path class="cls-1" d="M389.44,27.42v9.3h6.16v8.09h-6.16v17.12c0,1.41.25,2.39.76,2.94.51.55,1.51.83,3.01.83,1.15,0,2.12-.07,2.91-.21v8.34c-2.1.67-4.29,1-6.57,1-4.01,0-6.98-.95-8.89-2.84-1.91-1.89-2.87-4.76-2.87-8.61v-18.58h-4.77v-8.09h4.77v-9.3h11.66Z"/><path class="cls-1" d="M446.96,64.75h-16.64l-2.91,9.41h-12.97l18.47-50.36h11.41l18.61,50.36h-13.04l-2.94-9.41ZM433.23,55.37h10.83l-5.43-17.47-5.4,17.47Z"/><path class="cls-1" d="M488.71,47.28l-3.84-.28c-3.67,0-6.02,1.15-7.06,3.46v23.69h-11.66v-37.43h10.93l.38,4.81c1.96-3.67,4.69-5.5,8.2-5.5,1.25,0,2.33.14,3.25.42l-.21,10.83Z"/><path class="cls-1" d="M508.08,65.85c1.64,0,2.91-.44,3.8-1.33s1.34-2.13,1.31-3.72h10.93c0,4.1-1.47,7.47-4.41,10.1-2.94,2.63-6.73,3.94-11.36,3.94-5.44,0-9.73-1.71-12.87-5.12-3.14-3.41-4.7-8.14-4.7-14.18v-.48c0-3.78.7-7.12,2.09-10.01,1.39-2.89,3.41-5.12,6.04-6.68,2.63-1.56,5.74-2.33,9.34-2.33,4.87,0,8.73,1.35,11.59,4.05,2.86,2.7,4.29,6.35,4.29,10.96h-10.93c0-1.94-.47-3.42-1.42-4.46-.95-1.04-2.21-1.56-3.81-1.56-3.02,0-4.79,1.93-5.29,5.78-.16,1.22-.24,2.91-.24,5.05,0,3.76.45,6.36,1.35,7.82.9,1.45,2.33,2.18,4.29,2.18Z"/><path class="cls-1" d="M540.46,40.74c2.49-3.14,5.67-4.7,9.55-4.7,4.13,0,7.24,1.22,9.34,3.67,2.1,2.44,3.17,6.05,3.22,10.83v23.62h-11.69v-23.35c0-1.98-.4-3.44-1.21-4.38-.81-.93-2.18-1.4-4.12-1.4-2.4,0-4.09.76-5.08,2.28v26.84h-11.66V21.03h11.66v19.72Z"/><path class="cls-1" d="M568.96,27.08c0-1.66.6-3.02,1.8-4.08,1.2-1.06,2.76-1.59,4.67-1.59s3.47.53,4.67,1.59c1.2,1.06,1.8,2.42,1.8,4.08s-.6,3.02-1.8,4.08c-1.2,1.06-2.76,1.59-4.67,1.59s-3.47-.53-4.67-1.59c-1.2-1.06-1.8-2.42-1.8-4.08ZM581.34,74.15h-11.69v-37.43h11.69v37.43Z"/><path class="cls-1" d="M603.44,60.28l5.91-23.56h12.28l-12.21,37.43h-11.9l-12.21-37.43h12.31l5.81,23.56Z"/><path class="cls-1" d="M642.77,74.85c-5.74,0-10.39-1.71-13.94-5.14-3.55-3.42-5.33-7.88-5.33-13.37v-.97c0-3.83.71-7.21,2.13-10.13,1.42-2.93,3.49-5.19,6.21-6.8,2.72-1.6,5.95-2.4,9.68-2.4,5.26,0,9.41,1.63,12.45,4.89,3.04,3.26,4.57,7.81,4.57,13.65v4.53h-23.17c.42,2.1,1.33,3.75,2.73,4.95,1.41,1.2,3.23,1.8,5.46,1.8,3.69,0,6.57-1.29,8.65-3.87l5.33,6.3c-1.45,2.01-3.51,3.6-6.17,4.79s-5.53,1.78-8.6,1.78ZM641.46,45.03c-3.41,0-5.44,2.26-6.09,6.78h11.76v-.9c.05-1.87-.43-3.31-1.42-4.34-.99-1.03-2.41-1.54-4.25-1.54Z"/><path class="cls-1" d="M47.6,2.33v49c3,0,5.09-.51,8.62-2.12h.01c3.81-1.73,7-4.35,9.52-7.79-.15-.19-.29-.39-.42-.6-1.99-3.16-1.04-7.34,2.11-9.34,1.08-.69,2.33-1.05,3.62-1.05,2.33,0,4.47,1.18,5.72,3.15,2,3.15,1.05,7.34-2.1,9.35-1.53.96-3.42,1.23-5.16.83-1.7,2.38-3.67,4.44-5.91,6.15,2.78.86,5.97,2.51,8.6,5.64.63-.19,1.29-.29,1.96-.29,2.34,0,4.48,1.18,5.72,3.15.97,1.52,1.29,3.33.89,5.09-.4,1.77-1.46,3.28-3,4.25-1.08.68-2.33,1.04-3.61,1.04-2.34,0-4.48-1.18-5.72-3.15-1.5-2.36-1.35-5.31.16-7.47-4.03-4.56-9.62-4.77-10.99-4.75-4.09,1.77-6.02,2.9-10.02,2.9v42l41-24V26.33L47.6,2.33Z"/><path class="cls-1" d="M69.68,39.44c.42.26.9.39,1.39.39s.98-.14,1.39-.4c1.22-.77,1.59-2.4.82-3.61-.49-.77-1.32-1.22-2.22-1.22-.5,0-.97.14-1.4.41-1.22.77-1.58,2.39-.81,3.62.21.33.49.6.83.82Z"/><path class="cls-1" d="M74.17,64.65c.49,0,.98-.14,1.39-.41.6-.38,1.01-.96,1.16-1.64.15-.68.03-1.37-.34-1.97-.74-1.17-2.4-1.57-3.61-.81l-.12.08c-1.13.8-1.44,2.35-.69,3.53.48.76,1.3,1.22,2.21,1.22Z"/></svg>