<?xml version="1.0" encoding="utf-8"?>
<!-- Generator: Adobe Illustrator 27.5.0, SVG Export Plug-In . SVG Version: 6.00 Build 0)  -->
<svg version="1.1" id="Layer_1" xmlns="http://www.w3.org/2000/svg" xmlns:xlink="http://www.w3.org/1999/xlink" x="0px" y="0px"
	 viewBox="0 0 150 150" style="enable-background:new 0 0 150 150;" xml:space="preserve">
<style type="text/css">
	.st0{fill:#EB743B;}
	.st1{fill:#5AA854;}
	.st2{fill:#FFFEDB;}
</style>
<g>
	<polygon class="st0" points="77.2,3.5 77.2,147.5 138.5,111.5 138.5,39.5 	"/>
	<polygon class="st1" points="72.8,3.5 11.5,39.5 11.5,111.5 72.8,147.5 	"/>
	<path class="st2" d="M125.5,87.6c-1.9-3-5-4.7-8.5-4.7c-1,0-2,0.2-2.9,0.4c-3.9-4.7-8.7-7.2-12.9-8.5c3.3-2.6,6.3-5.7,8.8-9.2
		c2.6,0.6,5.4,0.2,7.7-1.2c4.7-3,6.1-9.3,3.1-14c-1.9-3-5.1-4.7-8.6-4.7c-1.9,0-3.8,0.5-5.4,1.6c-4.7,3-6.1,9.3-3.1,14
		c0.2,0.3,0.4,0.6,0.6,0.9c-3.8,5.2-8.5,9.1-14.2,11.7l0,0c-5.3,2.4-8.4,3.2-12.9,3.2v7.5c6,0,8.9-1.7,15-4.3c2,0,10.4,0.3,16.4,7.1
		c-2.3,3.2-2.5,7.7-0.2,11.2c1.9,3,5.1,4.7,8.5,4.7c1.9,0,3.8-0.5,5.4-1.6c2.3-1.5,3.9-3.7,4.5-6.4
		C127.4,92.6,126.9,89.9,125.5,87.6z M110.2,52.5c0.6-0.4,1.3-0.6,2.1-0.6c1.3,0,2.6,0.7,3.3,1.8c1.2,1.8,0.6,4.3-1.2,5.4
		c-0.6,0.4-1.3,0.6-2.1,0.6c-0.7,0-1.5-0.2-2.1-0.6c-0.5-0.3-0.9-0.7-1.2-1.2C107.8,56.1,108.4,53.7,110.2,52.5z M120.7,93.9
		c-0.2,1-0.8,1.9-1.7,2.5c-0.6,0.4-1.3,0.6-2.1,0.6c-1.4,0-2.6-0.7-3.3-1.8c-1.1-1.8-0.7-4.1,1-5.3l0.2-0.1c1.8-1.1,4.3-0.6,5.4,1.2
		C120.8,91.8,121,92.9,120.7,93.9z"/>
	<path class="st2" d="M72.8,77c-4.1,0-7.1-0.7-11.7-2.7c0.5-9.7,0.4-15.8,0.4-16.9c-0.1-2.3-0.7-17.2-1-18c-0.3-0.8-1.6-3.6-2.1-4.1
		c-0.5-0.6-2,1.9-4.4,4.5c-2.4,2.7-6,9.4-7.9,11.1c-1.9,1.7-7.4,8.2-10.3,11.4c-2.9,3.2-8.5,9-10.8,11.3c-2.4,2.3-4.7,3.7-6,5.1
		c0,0,1.4,2.1,2.2,2.5c0.8,0.4,3.1,1.2,5.1,0.7c2-0.5,4.7-2.3,5.8-3.3c1.1-1,2.7-3.4,2.8-4c0-0.7-1.3-1.9-1-2.6
		c0.3-0.7,6.2-6.1,8.3-8.3c2.1-2.2,10-11.1,11.5-11.7c0.4,1.6,1.2,21.7,1.3,27.7c0.1,6.1-3.2,34.8-4.4,40.2
		c-0.6,2.8-1.7,8.7-2.6,12.9l2.7,1.6c0.3-0.2,0.5-0.5,0.6-0.6c2.7-4.8,4.7-17,5.5-20.8c2.2-11.2,3.5-20.4,4.1-29.8l0,0l0.1-2
		c4.3,1.9,7.1,3.2,12,3.2V77z"/>
</g>
</svg>
