<?xml version="1.0" encoding="UTF-8"?>
<svg id="Layer_1" data-name="Layer 1" xmlns="http://www.w3.org/2000/svg" width="150" height="150" viewBox="0 0 150 150">
  <defs>
    <style>
      .cls-1 {
        fill: #fffedb;
      }

      .cls-2 {
        fill: #5aa854;
      }

      .cls-3 {
        fill: #eb743b;
      }
    </style>
  </defs>
  <polygon class="cls-3" points="77.29 0 77.29 150 141.15 112.5 141.15 37.5 77.29 0"/>
  <polygon class="cls-2" points="72.71 0 8.85 37.5 8.85 112.5 72.71 150 72.71 0"/>
  <path class="cls-1" d="m127.6,87.6c-1.98-3.12-5.21-4.9-8.85-4.9-1.04,0-2.08.21-3.02.42-4.06-4.9-9.06-7.5-13.44-8.85,3.44-2.71,6.56-5.94,9.17-9.58,2.71.62,5.63.21,8.02-1.25,4.9-3.12,6.35-9.69,3.23-14.58-1.98-3.12-5.31-4.9-8.96-4.9-1.98,0-3.96.52-5.63,1.67-4.9,3.12-6.35,9.69-3.23,14.58.21.31.42.62.62.94-3.96,5.42-8.85,9.48-14.79,12.19h0c-5.52,2.5-8.75,3.33-13.44,3.33v7.81c6.25,0,9.27-1.77,15.62-4.48,2.08,0,10.83.31,17.08,7.4-2.4,3.33-2.6,8.02-.21,11.67,1.98,3.12,5.31,4.9,8.85,4.9,1.98,0,3.96-.52,5.63-1.67,2.4-1.56,4.06-3.85,4.69-6.67.62-2.81.1-5.62-1.35-8.02Zm-15.94-36.56c.62-.42,1.35-.62,2.19-.62,1.35,0,2.71.73,3.44,1.87,1.25,1.87.62,4.48-1.25,5.63-.62.42-1.35.62-2.19.62-.73,0-1.56-.21-2.19-.62-.52-.31-.94-.73-1.25-1.25-1.25-1.88-.63-4.38,1.25-5.63Zm10.94,43.13c-.21,1.04-.83,1.98-1.77,2.6-.62.42-1.35.62-2.19.62-1.46,0-2.71-.73-3.44-1.88-1.15-1.88-.73-4.27,1.04-5.52l.21-.1c1.88-1.15,4.48-.62,5.63,1.25.63.83.83,1.98.52,3.02Z"/>
  <path class="cls-1" d="m72.71,76.56c-4.27,0-7.4-.73-12.19-2.81.52-10.1.42-16.46.42-17.6-.1-2.4-.73-17.92-1.04-18.75s-1.67-3.75-2.19-4.27c-.52-.62-2.08,1.98-4.58,4.69-2.5,2.81-6.25,9.79-8.23,11.56-1.98,1.77-7.71,8.54-10.73,11.88-3.02,3.33-8.85,9.38-11.25,11.77-2.5,2.4-4.9,3.85-6.25,5.31,0,0,1.46,2.19,2.29,2.6.83.42,3.23,1.25,5.31.73s4.9-2.4,6.04-3.44c1.15-1.04,2.81-3.54,2.92-4.17,0-.73-1.35-1.98-1.04-2.71s6.46-6.35,8.65-8.65,10.42-11.56,11.98-12.19c.42,1.67,1.25,22.6,1.35,28.85.1,6.35-3.33,36.25-4.58,41.87-.62,2.92-1.77,9.06-2.71,13.44l2.81,1.67c.31-.21.52-.52.62-.63,2.81-5,4.9-17.71,5.73-21.67,2.29-11.67,3.65-21.25,4.27-31.04h0l.1-2.08c4.48,1.98,7.4,3.33,12.5,3.33v-7.71h-.21Z"/>
</svg>