<?xml version="1.0" encoding="UTF-8"?><svg id="a" xmlns="http://www.w3.org/2000/svg" viewBox="0 0 265.53 100"><defs><style>.b{fill:#b66bc2;}.c{fill:#fffedb;}.d{fill:#771b85;}.e{fill:#eb743b;}</style></defs><g><polygon class="e" points="46 2 46 98 87 74 87 26 46 2"/><polygon class="d" points="43 2 2 26 2 74 43 98 43 2"/><path class="c" d="M78.28,58.09c-1.24-1.97-3.38-3.15-5.72-3.15-.67,0-1.32,.1-1.96,.29-2.63-3.12-5.82-4.78-8.6-5.64,2.24-1.71,4.21-3.77,5.91-6.15,1.74,.39,3.63,.13,5.16-.83,3.16-2.01,4.1-6.2,2.1-9.35-1.25-1.97-3.39-3.15-5.72-3.15-1.28,0-2.53,.36-3.62,1.05-3.15,1.99-4.09,6.18-2.11,9.34,.13,.21,.27,.4,.42,.6-2.51,3.44-5.71,6.06-9.52,7.79h-.01c-3.53,1.61-5.62,2.12-8.62,2.12v5c4,0,5.93-1.12,10.02-2.9,1.37-.02,6.96,.18,10.99,4.75-1.51,2.16-1.66,5.11-.16,7.47,1.24,1.97,3.38,3.15,5.72,3.15,1.28,0,2.52-.36,3.61-1.04,1.54-.97,2.6-2.48,3-4.25,.4-1.76,.08-3.57-.89-5.09Zm-10.22-23.42c.42-.27,.9-.41,1.4-.41,.9,0,1.73,.46,2.22,1.22,.77,1.21,.4,2.84-.82,3.61-.41,.26-.9,.4-1.39,.4s-.97-.13-1.39-.39c-.34-.21-.62-.49-.83-.82-.77-1.22-.41-2.85,.81-3.62Zm7.06,27.6c-.15,.69-.56,1.27-1.16,1.64-.41,.26-.9,.41-1.39,.41-.91,0-1.73-.46-2.21-1.22-.75-1.18-.44-2.73,.69-3.53l.12-.08c1.21-.77,2.87-.37,3.61,.81,.38,.59,.5,1.29,.34,1.97Z"/><g><path class="b" d="M27.12,26.47l-12.1,5.83-6.56,35.29,11.56-2.93,9.73,6.89,6.57-35.29-9.19-9.79Zm-3.04,16.07c-2.03-.38-3.38-2.34-3-4.37,.38-2.04,2.34-3.38,4.37-3,2.04,.38,3.38,2.34,3,4.37-.38,2.03-2.34,3.38-4.37,3Z"/><path class="c" d="M35.35,26.59c-2.78,.86-5.97,2.51-8.6,5.64-.63-.19-1.29-.3-1.96-.3-2.34,0-4.48,1.18-5.72,3.15-.97,1.52-1.29,3.33-.89,5.09,.4,1.77,1.46,3.28,3,4.25,1.08,.68,2.33,1.04,3.61,1.04,2.34,0,4.48-1.18,5.72-3.15,1.5-2.36,1.35-5.31-.16-7.47,4.03-4.56,11.28-5.02,12.65-5v-4.44c-2.46-.15-4.87,.33-7.65,1.19Zm-12.77,10.71c.74-1.17,2.4-1.57,3.61-.81l.12,.08c1.13,.8,1.44,2.35,.69,3.53-.48,.76-1.3,1.22-2.21,1.22-.49,0-.98-.14-1.39-.41-.6-.38-1.01-.96-1.16-1.64-.15-.68-.03-1.37,.34-1.97Z"/></g></g><g><path class="d" d="M113.36,70.23v13.77h-9.78V43.42h16.19c3.1,0,5.85,.57,8.24,1.71,2.39,1.14,4.24,2.77,5.55,4.88,1.31,2.11,1.96,4.5,1.96,7.18,0,3.96-1.42,7.12-4.25,9.49-2.83,2.37-6.72,3.55-11.67,3.55h-6.24Zm0-7.55h6.41c1.9,0,3.34-.47,4.33-1.42,.99-.95,1.49-2.29,1.49-4.01,0-1.9-.51-3.41-1.53-4.54-1.02-1.13-2.42-1.71-4.18-1.73h-6.52v11.71Z"/><path class="d" d="M140.24,46.04c0-1.35,.48-2.45,1.45-3.31,.97-.86,2.22-1.29,3.76-1.29s2.8,.43,3.76,1.29c.97,.86,1.45,1.96,1.45,3.31s-.48,2.45-1.45,3.31c-.97,.86-2.22,1.29-3.76,1.29s-2.8-.43-3.76-1.29c-.97-.86-1.45-1.96-1.45-3.31Zm9.98,37.96h-9.42v-30.16h9.42v30.16Z"/><path class="d" d="M168.75,77.31c1.32,0,2.34-.36,3.07-1.07,.73-.71,1.08-1.71,1.06-3h8.81c0,3.31-1.19,6.02-3.55,8.14s-5.42,3.18-9.16,3.18c-4.39,0-7.84-1.38-10.37-4.12s-3.79-6.56-3.79-11.43v-.39c0-3.05,.56-5.74,1.69-8.07s2.75-4.12,4.86-5.38c2.12-1.25,4.63-1.88,7.53-1.88,3.92,0,7.03,1.09,9.34,3.26,2.3,2.17,3.46,5.12,3.46,8.84h-8.81c0-1.56-.38-2.76-1.14-3.6-.76-.84-1.78-1.25-3.07-1.25-2.43,0-3.86,1.55-4.26,4.66-.13,.98-.2,2.34-.2,4.07,0,3.03,.36,5.13,1.09,6.3,.72,1.17,1.88,1.76,3.46,1.76Z"/><path class="d" d="M202.64,84c-.33-.61-.63-1.51-.89-2.7-1.73,2.17-4.14,3.26-7.25,3.26-2.84,0-5.26-.86-7.25-2.58-1.99-1.72-2.98-3.88-2.98-6.48,0-3.27,1.21-5.74,3.62-7.41,2.42-1.67,5.93-2.51,10.54-2.51h2.9v-1.6c0-2.78-1.2-4.17-3.6-4.17-2.23,0-3.35,1.1-3.35,3.3h-9.39c0-2.91,1.24-5.28,3.72-7.1,2.48-1.82,5.64-2.73,9.49-2.73s6.88,.94,9.11,2.82c2.23,1.88,3.37,4.45,3.43,7.72v13.35c.04,2.77,.46,4.89,1.28,6.36v.47h-9.39Zm-5.88-6.13c1.17,0,2.14-.25,2.91-.75,.77-.5,1.32-1.07,1.66-1.7v-4.82h-2.73c-3.27,0-4.91,1.47-4.91,4.4,0,.85,.29,1.55,.86,2.08,.58,.53,1.31,.79,2.2,.79Z"/><path class="d" d="M234.2,62.34l-3.09-.22c-2.95,0-4.85,.93-5.69,2.79v19.09h-9.39v-30.16h8.81l.31,3.87c1.58-2.95,3.78-4.43,6.61-4.43,1,0,1.88,.11,2.62,.33l-.17,8.72Z"/><path class="d" d="M235.87,68.7c0-4.78,1.03-8.54,3.09-11.29,2.06-2.75,4.94-4.12,8.64-4.12,2.69,0,4.96,1.06,6.8,3.18v-15.28h9.42v42.81h-8.45l-.47-3.23c-1.93,2.53-4.39,3.79-7.36,3.79-3.59,0-6.43-1.38-8.53-4.12-2.1-2.75-3.15-6.66-3.15-11.74Zm9.39,.58c0,5.35,1.56,8.03,4.68,8.03,2.08,0,3.57-.87,4.46-2.62v-11.48c-.85-1.78-2.32-2.68-4.4-2.68-2.9,0-4.47,2.34-4.71,7.02l-.03,1.73Z"/></g><g><path class="e" d="M109.78,12.78l4.61,14.37,4.6-14.37h6.55v20.66h-4.99v-4.82l.48-9.87-4.99,14.7h-3.29l-5.01-14.71,.48,9.89v4.82h-4.98V12.78h6.54Z"/><path class="e" d="M137.63,31.77c-1.01,1.3-2.38,1.94-4.1,1.94s-2.96-.49-3.82-1.47c-.87-.98-1.3-2.39-1.3-4.22v-9.95h4.78v9.97c0,1.31,.64,1.97,1.92,1.97,1.1,0,1.88-.39,2.34-1.18v-10.77h4.81v15.35h-4.48l-.14-1.66Z"/><path class="e" d="M152.91,29.12c0-.41-.21-.73-.64-.98-.42-.25-1.23-.5-2.43-.77-1.19-.26-2.18-.61-2.95-1.04-.78-.43-1.37-.95-1.77-1.57-.41-.61-.61-1.32-.61-2.11,0-1.41,.58-2.57,1.75-3.48,1.16-.91,2.69-1.37,4.57-1.37,2.02,0,3.65,.46,4.88,1.38,1.23,.92,1.84,2.12,1.84,3.62h-4.8c0-1.23-.65-1.84-1.94-1.84-.5,0-.92,.14-1.26,.42-.34,.28-.51,.63-.51,1.04s.21,.77,.62,1.04,1.08,.48,1.99,.65c.91,.17,1.71,.37,2.41,.61,2.31,.79,3.46,2.22,3.46,4.27,0,1.4-.62,2.54-1.87,3.42-1.24,.88-2.85,1.32-4.83,1.32-1.32,0-2.49-.24-3.52-.71-1.03-.47-1.84-1.12-2.41-1.93-.58-.81-.87-1.67-.87-2.57h4.47c.02,.71,.25,1.23,.71,1.55,.45,.33,1.04,.49,1.75,.49,.65,0,1.14-.13,1.47-.4s.49-.61,.49-1.04Z"/><path class="e" d="M159.72,14.11c0-.68,.25-1.25,.74-1.68,.49-.44,1.13-.66,1.92-.66s1.42,.22,1.92,.66c.49,.44,.74,1,.74,1.68s-.25,1.25-.74,1.68c-.49,.44-1.13,.66-1.92,.66s-1.42-.22-1.92-.66-.74-1-.74-1.68Zm5.08,19.32h-4.8v-15.35h4.8v15.35Z"/><path class="e" d="M174.24,30.03c.67,0,1.19-.18,1.56-.55s.55-.87,.54-1.53h4.48c0,1.68-.6,3.06-1.81,4.14-1.21,1.08-2.76,1.62-4.66,1.62-2.23,0-3.99-.7-5.28-2.1-1.29-1.4-1.93-3.34-1.93-5.82v-.2c0-1.55,.29-2.92,.86-4.11,.57-1.19,1.4-2.1,2.48-2.74,1.08-.64,2.35-.96,3.83-.96,2,0,3.58,.55,4.75,1.66,1.17,1.11,1.76,2.61,1.76,4.5h-4.48c0-.79-.19-1.4-.58-1.83s-.91-.64-1.56-.64c-1.24,0-1.96,.79-2.17,2.37-.07,.5-.1,1.19-.1,2.07,0,1.54,.18,2.61,.55,3.21s.96,.89,1.76,.89Z"/><path class="e" d="M183.06,33.43V12.78h7.42c2.66,0,4.68,.49,6.07,1.46,1.39,.97,2.08,2.39,2.08,4.24,0,1.07-.25,1.98-.74,2.74-.49,.76-1.21,1.31-2.17,1.67,1.08,.28,1.91,.81,2.48,1.59s.87,1.72,.87,2.84c0,2.02-.64,3.54-1.92,4.56-1.28,1.02-3.18,1.54-5.7,1.55h-8.38Zm4.98-12.05h2.6c1.09,0,1.86-.21,2.33-.6,.46-.39,.7-.96,.7-1.72,0-.87-.25-1.5-.75-1.88-.5-.38-1.31-.58-2.43-.58h-2.44v4.78Zm0,3.26v4.95h3.26c.9,0,1.59-.21,2.07-.62,.48-.41,.72-.99,.72-1.74,0-1.72-.86-2.59-2.57-2.6h-3.49Z"/><path class="e" d="M210.87,22.41l-1.58-.11c-1.5,0-2.47,.47-2.89,1.42v9.72h-4.78v-15.35h4.48l.16,1.97c.8-1.5,1.92-2.26,3.36-2.26,.51,0,.96,.06,1.33,.17l-.08,4.44Z"/><path class="e" d="M220.82,33.43c-.17-.31-.32-.77-.45-1.38-.88,1.11-2.11,1.66-3.69,1.66-1.45,0-2.68-.44-3.69-1.31-1.01-.88-1.52-1.97-1.52-3.3,0-1.67,.61-2.92,1.84-3.77,1.23-.85,3.02-1.28,5.36-1.28h1.48v-.81c0-1.42-.61-2.12-1.83-2.12-1.13,0-1.7,.56-1.7,1.68h-4.78c0-1.48,.63-2.69,1.89-3.61s2.87-1.39,4.83-1.39,3.5,.48,4.64,1.43c1.13,.96,1.72,2.27,1.75,3.93v6.8c.02,1.41,.24,2.49,.65,3.23v.24h-4.78Zm-2.99-3.12c.6,0,1.09-.13,1.48-.38,.39-.25,.67-.54,.84-.87v-2.45h-1.39c-1.66,0-2.5,.75-2.5,2.24,0,.44,.15,.79,.44,1.06,.29,.27,.67,.4,1.12,.4Z"/><path class="e" d="M227.55,14.11c0-.68,.25-1.25,.74-1.68,.49-.44,1.13-.66,1.92-.66s1.42,.22,1.92,.66c.49,.44,.74,1,.74,1.68s-.25,1.25-.74,1.68c-.49,.44-1.13,.66-1.92,.66s-1.42-.22-1.92-.66-.74-1-.74-1.68Zm5.08,19.32h-4.8v-15.35h4.8v15.35Z"/><path class="e" d="M239.97,18.08l.16,1.8c1.06-1.39,2.52-2.08,4.38-2.08,1.6,0,2.79,.48,3.58,1.43s1.2,2.39,1.23,4.31v9.89h-4.8v-9.69c0-.78-.16-1.35-.47-1.71-.31-.36-.88-.55-1.7-.55-.94,0-1.63,.37-2.08,1.11v10.84h-4.78v-15.35h4.48Z"/><path class="e" d="M257.6,29.75h6.99v3.69h-13.04v-2.67l6.81-9h-6.51v-3.69h12.58v2.58l-6.84,9.08Z"/></g></svg>