<?xml version="1.0" encoding="UTF-8"?><svg xmlns="http://www.w3.org/2000/svg" viewBox="0 0 220 265"><defs><style>.b{fill:#b66bc2;}.c{mix-blend-mode:multiply;opacity:.07;}.d{isolation:isolate;}.e{fill:#fffedb;}.f{fill:#591463;}.g{fill:#771b85;}.h{fill:#d3562c;}.i{fill:#eb743b;}</style></defs><g class="d"><g id="a"><g><g><polygon class="i" points="111.97 2.46 111.97 146.46 172.97 111.46 172.97 37.46 111.97 2.46"/><polygon class="g" points="106.97 2.46 45.97 37.46 45.97 111.46 106.97 146.46 106.97 2.46"/><g><g><path class="f" d="M83.43,44.93l-17.97,8.66-9.75,52.41,17.17-4.35,14.45,10.24,9.75-52.41-13.65-14.55Zm-3.56,18.51c-3.02-.56-5.02-3.47-4.46-6.49,.56-3.02,3.47-5.02,6.49-4.46,3.03,.56,5.02,3.47,4.46,6.49-.56,3.02-3.47,5.02-6.49,4.46Z"/><path class="f" d="M107,41.86c-.2-.05-.41-.09-.62-.14-5.79-1.35-16.45-3.83-24.18,8.8-.44-.08-.89-.12-1.33-.12-3.64,0-6.77,2.6-7.43,6.18-.37,1.99,.05,4,1.2,5.67,1.14,1.67,2.87,2.79,4.86,3.16,.46,.09,.93,.13,1.39,.13,3.64,0,6.77-2.6,7.44-6.18,.51-2.73-.53-5.39-2.49-7.1,6.21-9.77,14.26-7.9,19.65-6.64,.55,.13,1.05,.25,1.52,.34v-4.1Zm-22.61,16.76c-.36,1.9-2.24,3.21-4.16,2.86-1.94-.36-3.21-2.23-2.86-4.16,.31-1.69,1.79-2.92,3.5-2.92,.22,0,.44,.02,.66,.06,1.93,.36,3.21,2.23,2.86,4.16Z"/></g><g><path class="b" d="M83.43,42.53l-17.97,8.66-9.75,52.41,17.17-4.35,14.45,10.24,9.75-52.41-13.65-14.55Zm-3.56,18.51c-3.02-.56-5.02-3.47-4.46-6.49,.56-3.02,3.47-5.02,6.49-4.46,3.03,.56,5.02,3.47,4.46,6.49-.56,3.02-3.47,5.02-6.49,4.46Z"/><path class="e" d="M107,39.46c-.2-.05-.41-.09-.62-.14-5.79-1.35-16.45-3.83-24.18,8.8-.44-.08-.89-.12-1.33-.12-3.64,0-6.77,2.6-7.43,6.18-.37,1.99,.05,4,1.2,5.67,1.14,1.67,2.87,2.79,4.86,3.16,.46,.09,.93,.13,1.39,.13,3.64,0,6.77-2.6,7.44-6.18,.51-2.73-.53-5.39-2.49-7.1,6.21-9.77,14.26-7.9,19.65-6.64,.55,.13,1.05,.25,1.52,.34v-4.1Zm-22.61,16.76c-.36,1.9-2.24,3.21-4.16,2.86-1.94-.36-3.21-2.23-2.86-4.16,.31-1.69,1.79-2.92,3.5-2.92,.22,0,.44,.02,.66,.06,1.93,.36,3.21,2.23,2.86,4.16Z"/></g></g><g><g class="c"><path d="M129.27,94.19c.39-.64,1.07-1.03,1.82-1.03,.38,0,.75,.1,1.08,.3,1,.6,1.33,1.9,.74,2.9-.38,.65-1.06,1.03-1.82,1.03-.38,0-.75-.1-1.08-.3-.48-.29-.83-.75-.96-1.29-.14-.55-.06-1.12,.23-1.6Zm12.6,22.36c-.49,.42-1.02,.51-1.37,.51-.62,0-1.21-.27-1.61-.73-.76-.88-.65-2.22,.23-2.98,.49-.42,1.02-.51,1.37-.51,.62,0,1.2,.27,1.61,.74,.37,.43,.55,.98,.5,1.54-.04,.56-.3,1.07-.73,1.44Z"/><path d="M120.97,48.07c.07,.02,.14,.03,.21,.05-.07-.01-.14-.03-.21-.05Z"/><path d="M132.35,57.71c.17-.27,.39-.49,.67-.66,.33-.21,.72-.32,1.12-.32s.79,.11,1.12,.32c.99,.63,1.28,1.94,.66,2.92-.39,.62-1.06,.99-1.79,.99-.4,0-.79-.11-1.12-.33-.98-.62-1.28-1.94-.66-2.92Zm6.38-20.19c-.6,.95-1.94,1.27-2.91,.65l-.1-.06c-.91-.65-1.16-1.9-.56-2.85,.39-.61,1.05-.98,1.78-.98,.4,0,.79,.11,1.12,.33,.48,.3,.81,.78,.94,1.33,.12,.55,.03,1.11-.28,1.58Z"/><path d="M155.49,49.12c.39-.61,1.05-.98,1.78-.98,.4,0,.79,.11,1.12,.33,.48,.3,.81,.78,.94,1.33,.12,.55,.02,1.11-.28,1.58-.6,.95-1.94,1.27-2.91,.65l-.09-.06c-.92-.65-1.16-1.9-.56-2.85Zm0,23.46c.39-.61,1.05-.98,1.78-.98,.4,0,.79,.11,1.12,.33,.48,.3,.81,.77,.94,1.33,.12,.55,.02,1.11-.28,1.58-.6,.95-1.94,1.27-2.91,.65l-.09-.06c-.92-.65-1.16-1.9-.56-2.85Zm0,26.3c.39-.61,1.05-.98,1.78-.98,.4,0,.79,.11,1.12,.33,.48,.3,.81,.78,.94,1.33,.12,.55,.02,1.11-.28,1.58-.6,.95-1.94,1.27-2.91,.65l-.09-.06c-.92-.65-1.16-1.9-.56-2.85Z"/><path d="M145.14,108.56c-1.17-1.36-2.86-2.14-4.65-2.14-1.46,0-2.88,.53-3.98,1.48-1.61,1.38-2.33,3.43-2.09,5.4-1.95,.7-4.26,1.37-5.33,1.33-.82-.04-1.3-.35-2.22-.97-1.17-.79-2.42-1.51-4.15-1.85,2.94-2.76,6.01-6.83,8.58-12.83,2.06-.08,3.98-1.19,5.04-2.97,1.72-2.9,.77-6.66-2.12-8.39-.95-.57-2.03-.86-3.13-.86-2.15,0-4.16,1.14-5.26,2.99-.84,1.41-1.08,3.05-.68,4.64,.35,1.39,1.16,2.59,2.3,3.43-4.05,9.22-9.22,13.08-12.57,14.68-.13,.04-.25,.1-.36,.17-1.19,.53-2.05,.7-2.56,.81v4c.28-.03,1.88-.12,4.25-1.19,5.35-1.36,6.84-.35,8.41,.71,1.02,.69,2.29,1.55,4.26,1.66,.1,0,.2,0,.31,0,2.11,0,5.17-1.02,7.02-1.72,1.14,1.12,2.68,1.75,4.29,1.75h0c1.46,0,2.88-.52,3.98-1.48,1.24-1.06,1.99-2.55,2.12-4.18,.12-1.63-.39-3.21-1.46-4.45Zm-15.87-16.78c.39-.64,1.07-1.03,1.82-1.03,.38,0,.75,.1,1.08,.3,1,.6,1.33,1.9,.74,2.9-.38,.65-1.06,1.03-1.82,1.03-.38,0-.75-.1-1.08-.3-.48-.29-.83-.75-.96-1.29-.14-.55-.06-1.12,.23-1.6Zm12.6,22.36c-.49,.42-1.02,.51-1.37,.51-.62,0-1.21-.27-1.61-.73-.76-.88-.65-2.22,.23-2.98,.49-.42,1.02-.51,1.37-.51,.62,0,1.2,.27,1.61,.74,.37,.43,.55,.98,.5,1.54-.04,.56-.3,1.07-.73,1.44Z"/><path d="M120.97,45.66c.07,.02,.14,.03,.21,.05-.07-.01-.14-.03-.21-.05Z"/><path d="M142.92,32.66c-.36-1.6-1.32-2.96-2.71-3.84-.98-.62-2.11-.94-3.26-.94-2.12,0-4.05,1.07-5.17,2.85-1.35,2.14-1.22,4.8,.14,6.76-3.65,4.12-8.71,4.31-9.94,4.29-3.69-1.6-7.23-2.16-10-2.32v4c2.44,.14,5.55,.69,8.75,2.14h.01c3.45,1.57,6.33,3.93,8.61,7.05-.14,.17-.26,.35-.38,.54-1.8,2.85-.94,6.64,1.9,8.44,.98,.62,2.11,.95,3.27,.95,2.11,0,4.05-1.07,5.18-2.85,1.81-2.85,.95-6.64-1.91-8.45-1.38-.87-3.09-1.11-4.67-.75-1.54-2.15-3.32-4.02-5.34-5.57,2.52-.78,5.4-2.27,7.78-5.1,.57,.17,1.17,.27,1.77,.27,2.12,0,4.05-1.07,5.17-2.85,.88-1.38,1.16-3.01,.8-4.6Zm-10.57,22.65c.17-.27,.39-.49,.67-.66,.33-.21,.72-.32,1.12-.32s.79,.11,1.12,.32c.99,.63,1.28,1.94,.66,2.92-.39,.62-1.06,.99-1.79,.99-.4,0-.79-.11-1.12-.33-.98-.62-1.28-1.94-.66-2.92Zm6.38-20.19c-.6,.95-1.94,1.27-2.91,.65l-.1-.06c-.91-.65-1.16-1.9-.56-2.85,.39-.61,1.05-.98,1.78-.98,.4,0,.79,.11,1.12,.33,.48,.3,.81,.78,.94,1.33,.12,.55,.03,1.11-.28,1.58Z"/><path d="M151.61,73.64c.42,1.04,1.14,1.96,2.11,2.65,.07,.05,.15,.11,.28,.19,.98,.62,2.11,.95,3.27,.95,2.12,0,4.05-1.07,5.17-2.85,.88-1.38,1.16-3.01,.8-4.6-.36-1.6-1.32-2.96-2.71-3.84-.98-.62-2.11-.94-3.27-.94-.12,0-.25,0-.38,.02-.71-3.16-.92-7.77,.04-11.26,.11,.01,.22,.02,.34,.02,2.12,0,4.05-1.07,5.17-2.85,.88-1.38,1.16-3.01,.8-4.6-.36-1.6-1.32-2.96-2.71-3.84-.98-.62-2.11-.94-3.27-.94-2.11,0-4.05,1.07-5.17,2.85-1.6,2.53-1.12,5.8,1.02,7.76,.02,.02,.05,.04,.07,.06-1.35,4.52-1.15,10.32-.04,14.42-.14,.13-.29,.25-.43,.4-.23,.25-.45,.53-.63,.82-.32,.5-.55,1.03-.71,1.58-3.37,.49-5.2,1.67-6.82,2.73-2.04,1.32-3.96,2.57-9.64,2.67-1.96-.23-3.55-.18-5.29-.12-1.43,.05-2.91,.11-4.85,0-1.33-.07-2.1-.88-3.46-2.42-1.8-2.05-4.22-4.65-9.37-5.02v4c3.29,.3,4.8,1.89,6.36,3.67,1.49,1.69,3.17,3.62,6.26,3.78,2.12,.11,3.76,.05,5.21,0,2.49-.09,4.45-.16,7.86,.68,2.61,.64,12.1,9.67,14.77,14.32-.11,.14-.22,.28-.31,.43-1.74,2.75-1.03,6.38,1.62,8.25,.07,.05,.15,.1,.28,.19,.98,.62,2.11,.95,3.27,.95,2.12,0,4.05-1.07,5.17-2.85,.88-1.37,1.16-3.01,.8-4.6-.36-1.6-1.32-2.96-2.71-3.84-.98-.62-2.11-.94-3.27-.94-.53,0-1.05,.07-1.54,.2-2.56-4.19-8.65-10.46-13.19-13.79,1.81-.63,3.05-1.43,4.21-2.19,1.43-.93,2.61-1.69,4.86-2.07Zm3.88-26.92c.39-.61,1.05-.98,1.78-.98,.4,0,.79,.11,1.12,.33,.48,.3,.81,.78,.94,1.33,.12,.55,.02,1.11-.28,1.58-.6,.95-1.94,1.27-2.91,.65l-.09-.06c-.92-.65-1.16-1.9-.56-2.85Zm0,23.46c.39-.61,1.05-.98,1.78-.98,.4,0,.79,.11,1.12,.33,.48,.3,.81,.77,.94,1.33,.12,.55,.02,1.11-.28,1.58-.6,.95-1.94,1.27-2.91,.65l-.09-.06c-.92-.65-1.16-1.9-.56-2.85Zm0,26.3c.39-.61,1.05-.98,1.78-.98,.4,0,.79,.11,1.12,.33,.48,.3,.81,.78,.94,1.33,.12,.55,.02,1.11-.28,1.58-.6,.95-1.94,1.27-2.91,.65l-.09-.06c-.92-.65-1.16-1.9-.56-2.85Z"/></g><g><g><path class="h" d="M145.14,111.56c-1.17-1.36-2.86-2.14-4.65-2.14-1.46,0-2.88,.53-3.98,1.48-1.61,1.38-2.33,3.43-2.09,5.4-1.95,.7-4.26,1.37-5.33,1.33-.82-.04-1.3-.35-2.22-.97-1.17-.79-2.42-1.51-4.15-1.85,2.94-2.76,6.01-6.83,8.58-12.83,2.06-.08,3.98-1.19,5.04-2.97,1.72-2.9,.77-6.66-2.12-8.39-.95-.57-2.03-.86-3.13-.86-2.15,0-4.16,1.14-5.26,2.99-.84,1.41-1.08,3.05-.68,4.64,.35,1.39,1.16,2.59,2.3,3.43-4.05,9.22-9.22,13.08-12.57,14.68-.13,.04-.25,.1-.36,.17-1.19,.53-2.05,.7-2.56,.81v4c.28-.03,1.88-.12,4.25-1.19,5.35-1.36,6.84-.35,8.41,.71,1.02,.69,2.29,1.55,4.26,1.66,.1,0,.2,0,.31,0,2.11,0,5.17-1.02,7.02-1.72,1.14,1.12,2.68,1.75,4.29,1.75h0c1.46,0,2.88-.52,3.98-1.48,1.24-1.06,1.99-2.55,2.12-4.18,.12-1.63-.39-3.21-1.46-4.45Zm-15.87-16.78c.39-.64,1.07-1.03,1.82-1.03,.38,0,.75,.1,1.08,.3,1,.6,1.33,1.9,.74,2.9-.38,.65-1.06,1.03-1.82,1.03-.38,0-.75-.1-1.08-.3-.48-.29-.83-.75-.96-1.29-.14-.55-.06-1.12,.23-1.6Zm12.6,22.36c-.49,.42-1.02,.51-1.37,.51-.62,0-1.21-.27-1.61-.73-.76-.88-.65-2.22,.23-2.98,.49-.42,1.02-.51,1.37-.51,.62,0,1.2,.27,1.61,.74,.37,.43,.55,.98,.5,1.54-.04,.56-.3,1.07-.73,1.44Z"/><path d="M120.97,48.07c.07,.02,.14,.03,.21,.05-.07-.01-.14-.03-.21-.05Z"/><path class="h" d="M142.92,35.67c-.36-1.6-1.32-2.96-2.71-3.84-.98-.62-2.11-.94-3.26-.94-2.12,0-4.05,1.07-5.17,2.85-1.35,2.14-1.22,4.8,.14,6.76-3.65,4.12-8.71,4.31-9.94,4.29-3.69-1.6-7.23-2.16-10-2.32v4c2.44,.14,5.55,.69,8.75,2.14h.01c3.45,1.57,6.33,3.93,8.61,7.05-.14,.17-.26,.35-.38,.54-1.8,2.85-.94,6.64,1.9,8.44,.98,.62,2.11,.95,3.27,.95,2.11,0,4.05-1.07,5.18-2.85,1.81-2.85,.95-6.64-1.91-8.45-1.38-.87-3.09-1.11-4.67-.75-1.54-2.15-3.32-4.02-5.34-5.57,2.52-.78,5.4-2.27,7.78-5.1,.57,.17,1.17,.27,1.77,.27,2.12,0,4.05-1.07,5.17-2.85,.88-1.38,1.16-3.01,.8-4.6Zm-10.57,22.65c.17-.27,.39-.49,.67-.66,.33-.21,.72-.32,1.12-.32s.79,.11,1.12,.32c.99,.63,1.28,1.94,.66,2.92-.39,.62-1.06,.99-1.79,.99-.4,0-.79-.11-1.12-.33-.98-.62-1.28-1.94-.66-2.92Zm6.38-20.19c-.6,.95-1.94,1.27-2.91,.65l-.1-.06c-.91-.65-1.16-1.9-.56-2.85,.39-.61,1.05-.98,1.78-.98,.4,0,.79,.11,1.12,.33,.48,.3,.81,.78,.94,1.33,.12,.55,.03,1.11-.28,1.58Z"/><path class="h" d="M151.61,76.64c.42,1.04,1.14,1.96,2.11,2.65,.07,.05,.15,.11,.28,.19,.98,.62,2.11,.95,3.27,.95,2.12,0,4.05-1.07,5.17-2.85,.88-1.38,1.16-3.01,.8-4.6-.36-1.6-1.32-2.96-2.71-3.84-.98-.62-2.11-.94-3.27-.94-.12,0-.25,0-.38,.02-.71-3.16-.92-7.77,.04-11.26,.11,.01,.22,.02,.34,.02,2.12,0,4.05-1.07,5.17-2.85,.88-1.38,1.16-3.01,.8-4.6-.36-1.6-1.32-2.96-2.71-3.84-.98-.62-2.11-.94-3.27-.94-2.11,0-4.05,1.07-5.17,2.85-1.6,2.53-1.12,5.8,1.02,7.76,.02,.02,.05,.04,.07,.06-1.35,4.52-1.15,10.32-.04,14.42-.14,.13-.29,.25-.43,.4-.23,.25-.45,.53-.63,.82-.32,.5-.55,1.03-.71,1.58-3.37,.49-5.2,1.67-6.82,2.73-2.04,1.32-3.96,2.57-9.64,2.67-1.96-.23-3.55-.18-5.29-.12-1.43,.05-2.91,.11-4.85,0-1.33-.07-2.1-.88-3.46-2.42-1.8-2.05-4.22-4.65-9.37-5.02v4c3.29,.3,4.8,1.89,6.36,3.67,1.49,1.69,3.17,3.62,6.26,3.78,2.12,.11,3.76,.05,5.21,0,2.49-.09,4.45-.16,7.86,.68,2.61,.64,12.1,9.67,14.77,14.32-.11,.14-.22,.28-.31,.43-1.74,2.75-1.03,6.38,1.62,8.25,.07,.05,.15,.1,.28,.19,.98,.62,2.11,.95,3.27,.95,2.12,0,4.05-1.07,5.17-2.85,.88-1.37,1.16-3.01,.8-4.6-.36-1.6-1.32-2.96-2.71-3.84-.98-.62-2.11-.94-3.27-.94-.53,0-1.05,.07-1.54,.2-2.56-4.19-8.65-10.46-13.19-13.79,1.81-.63,3.05-1.43,4.21-2.19,1.43-.93,2.61-1.69,4.86-2.07Zm3.88-26.92c.39-.61,1.05-.98,1.78-.98,.4,0,.79,.11,1.12,.33,.48,.3,.81,.78,.94,1.33,.12,.55,.02,1.11-.28,1.58-.6,.95-1.94,1.27-2.91,.65l-.09-.06c-.92-.65-1.16-1.9-.56-2.85Zm0,23.46c.39-.61,1.05-.98,1.78-.98,.4,0,.79,.11,1.12,.33,.48,.3,.81,.77,.94,1.33,.12,.55,.02,1.11-.28,1.58-.6,.95-1.94,1.27-2.91,.65l-.09-.06c-.92-.65-1.16-1.9-.56-2.85Zm0,26.3c.39-.61,1.05-.98,1.78-.98,.4,0,.79,.11,1.12,.33,.48,.3,.81,.78,.94,1.33,.12,.55,.02,1.11-.28,1.58-.6,.95-1.94,1.27-2.91,.65l-.09-.06c-.92-.65-1.16-1.9-.56-2.85Z"/></g><g><path class="e" d="M145.14,108.56c-1.17-1.36-2.86-2.14-4.65-2.14-1.46,0-2.88,.53-3.98,1.48-1.61,1.38-2.33,3.43-2.09,5.4-1.95,.7-4.26,1.37-5.33,1.33-.82-.04-1.3-.35-2.22-.97-1.17-.79-2.42-1.51-4.15-1.85,2.94-2.76,6.01-6.83,8.58-12.83,2.06-.08,3.98-1.19,5.04-2.97,1.72-2.9,.77-6.66-2.12-8.39-.95-.57-2.03-.86-3.13-.86-2.15,0-4.16,1.14-5.26,2.99-.84,1.41-1.08,3.05-.68,4.64,.35,1.39,1.16,2.59,2.3,3.43-4.05,9.22-9.22,13.08-12.57,14.68-.13,.04-.25,.1-.36,.17-1.19,.53-2.05,.7-2.56,.81v4c.28-.03,1.88-.12,4.25-1.19,5.35-1.36,6.84-.35,8.41,.71,1.02,.69,2.29,1.55,4.26,1.66,.1,0,.2,0,.31,0,2.11,0,5.17-1.02,7.02-1.72,1.14,1.12,2.68,1.75,4.29,1.75h0c1.46,0,2.88-.52,3.98-1.48,1.24-1.06,1.99-2.55,2.12-4.18,.12-1.63-.39-3.21-1.46-4.45Zm-15.87-16.78c.39-.64,1.07-1.03,1.82-1.03,.38,0,.75,.1,1.08,.3,1,.6,1.33,1.9,.74,2.9-.38,.65-1.06,1.03-1.82,1.03-.38,0-.75-.1-1.08-.3-.48-.29-.83-.75-.96-1.29-.14-.55-.06-1.12,.23-1.6Zm12.6,22.36c-.49,.42-1.02,.51-1.37,.51-.62,0-1.21-.27-1.61-.73-.76-.88-.65-2.22,.23-2.98,.49-.42,1.02-.51,1.37-.51,.62,0,1.2,.27,1.61,.74,.37,.43,.55,.98,.5,1.54-.04,.56-.3,1.07-.73,1.44Z"/><path class="e" d="M120.97,45.66c.07,.02,.14,.03,.21,.05-.07-.01-.14-.03-.21-.05Z"/><path class="e" d="M142.92,32.66c-.36-1.6-1.32-2.96-2.71-3.84-.98-.62-2.11-.94-3.26-.94-2.12,0-4.05,1.07-5.17,2.85-1.35,2.14-1.22,4.8,.14,6.76-3.65,4.12-8.71,4.31-9.94,4.29-3.69-1.6-7.23-2.16-10-2.32v4c2.44,.14,5.55,.69,8.75,2.14h.01c3.45,1.57,6.33,3.93,8.61,7.05-.14,.17-.26,.35-.38,.54-1.8,2.85-.94,6.64,1.9,8.44,.98,.62,2.11,.95,3.27,.95,2.11,0,4.05-1.07,5.18-2.85,1.81-2.85,.95-6.64-1.91-8.45-1.38-.87-3.09-1.11-4.67-.75-1.54-2.15-3.32-4.02-5.34-5.57,2.52-.78,5.4-2.27,7.78-5.1,.57,.17,1.17,.27,1.77,.27,2.12,0,4.05-1.07,5.17-2.85,.88-1.38,1.16-3.01,.8-4.6Zm-10.57,22.65c.17-.27,.39-.49,.67-.66,.33-.21,.72-.32,1.12-.32s.79,.11,1.12,.32c.99,.63,1.28,1.94,.66,2.92-.39,.62-1.06,.99-1.79,.99-.4,0-.79-.11-1.12-.33-.98-.62-1.28-1.94-.66-2.92Zm6.38-20.19c-.6,.95-1.94,1.27-2.91,.65l-.1-.06c-.91-.65-1.16-1.9-.56-2.85,.39-.61,1.05-.98,1.78-.98,.4,0,.79,.11,1.12,.33,.48,.3,.81,.78,.94,1.33,.12,.55,.03,1.11-.28,1.58Z"/><path class="e" d="M151.61,73.64c.42,1.04,1.14,1.96,2.11,2.65,.07,.05,.15,.11,.28,.19,.98,.62,2.11,.95,3.27,.95,2.12,0,4.05-1.07,5.17-2.85,.88-1.38,1.16-3.01,.8-4.6-.36-1.6-1.32-2.96-2.71-3.84-.98-.62-2.11-.94-3.27-.94-.12,0-.25,0-.38,.02-.71-3.16-.92-7.77,.04-11.26,.11,.01,.22,.02,.34,.02,2.12,0,4.05-1.07,5.17-2.85,.88-1.38,1.16-3.01,.8-4.6-.36-1.6-1.32-2.96-2.71-3.84-.98-.62-2.11-.94-3.27-.94-2.11,0-4.05,1.07-5.17,2.85-1.6,2.53-1.12,5.8,1.02,7.76,.02,.02,.05,.04,.07,.06-1.35,4.52-1.15,10.32-.04,14.42-.14,.13-.29,.25-.43,.4-.23,.25-.45,.53-.63,.82-.32,.5-.55,1.03-.71,1.58-3.37,.49-5.2,1.67-6.82,2.73-2.04,1.32-3.96,2.57-9.64,2.67-1.96-.23-3.55-.18-5.29-.12-1.43,.05-2.91,.11-4.85,0-1.33-.07-2.1-.88-3.46-2.42-1.8-2.05-4.22-4.65-9.37-5.02v4c3.29,.3,4.8,1.89,6.36,3.67,1.49,1.69,3.17,3.62,6.26,3.78,2.12,.11,3.76,.05,5.21,0,2.49-.09,4.45-.16,7.86,.68,2.61,.64,12.1,9.67,14.77,14.32-.11,.14-.22,.28-.31,.43-1.74,2.75-1.03,6.38,1.62,8.25,.07,.05,.15,.1,.28,.19,.98,.62,2.11,.95,3.27,.95,2.12,0,4.05-1.07,5.17-2.85,.88-1.37,1.16-3.01,.8-4.6-.36-1.6-1.32-2.96-2.71-3.84-.98-.62-2.11-.94-3.27-.94-.53,0-1.05,.07-1.54,.2-2.56-4.19-8.65-10.46-13.19-13.79,1.81-.63,3.05-1.43,4.21-2.19,1.43-.93,2.61-1.69,4.86-2.07Zm3.88-26.92c.39-.61,1.05-.98,1.78-.98,.4,0,.79,.11,1.12,.33,.48,.3,.81,.78,.94,1.33,.12,.55,.02,1.11-.28,1.58-.6,.95-1.94,1.27-2.91,.65l-.09-.06c-.92-.65-1.16-1.9-.56-2.85Zm0,23.46c.39-.61,1.05-.98,1.78-.98,.4,0,.79,.11,1.12,.33,.48,.3,.81,.77,.94,1.33,.12,.55,.02,1.11-.28,1.58-.6,.95-1.94,1.27-2.91,.65l-.09-.06c-.92-.65-1.16-1.9-.56-2.85Zm0,26.3c.39-.61,1.05-.98,1.78-.98,.4,0,.79,.11,1.12,.33,.48,.3,.81,.78,.94,1.33,.12,.55,.02,1.11-.28,1.58-.6,.95-1.94,1.27-2.91,.65l-.09-.06c-.92-.65-1.16-1.9-.56-2.85Z"/></g></g></g></g><g><g><path class="g" d="M15.47,242.15v17.91H2.21v-54.61H22.5c5.84,0,10.56,1.76,14.16,5.27,3.59,3.52,5.39,8.08,5.39,13.71s-1.77,9.62-5.3,12.84c-3.53,3.22-8.23,4.84-14.11,4.88h-7.17Zm0-11.02h7.03c2.16,0,3.75-.62,4.78-1.88,1.03-1.25,1.55-2.83,1.55-4.73,0-2.44-.58-4.38-1.73-5.84-1.16-1.45-2.69-2.18-4.59-2.18h-7.03v14.62Z"/><path class="g" d="M49.87,201.32c0-1.9,.6-3.45,1.81-4.66,1.21-1.21,2.82-1.81,4.83-1.81s3.62,.6,4.83,1.81,1.81,2.76,1.81,4.66-.6,3.42-1.79,4.66c-1.19,1.24-2.81,1.85-4.85,1.85s-3.66-.62-4.85-1.85c-1.19-1.24-1.79-2.79-1.79-4.66Zm12.81,58.73h-12.25v-46.66h12.25v46.66Z"/><path class="g" d="M88.98,250.78c3.54,0,5.33-2.3,5.39-6.9h11.47c-.06,5.09-1.62,9.2-4.7,12.33-3.08,3.13-7.04,4.7-11.9,4.7-6.01,0-10.59-1.87-13.76-5.61-3.16-3.74-4.77-9.24-4.83-16.52v-3.71c0-7.33,1.56-12.92,4.68-16.77s7.73-5.78,13.82-5.78c5.15,0,9.2,1.59,12.16,4.77,2.96,3.18,4.47,7.68,4.53,13.52h-11.47c-.03-2.62-.46-4.63-1.29-6.04-.83-1.41-2.21-2.11-4.14-2.11-2.13,0-3.65,.75-4.57,2.26-.92,1.51-1.41,4.43-1.47,8.78v4.74c0,3.79,.19,6.45,.56,7.96,.37,1.51,.99,2.62,1.85,3.32,.86,.71,2.08,1.06,3.67,1.06Z"/><path class="g" d="M134.91,260.05c-.35-.72-.69-1.93-1.04-3.62-2.19,2.99-5.15,4.48-8.88,4.48s-7.15-1.29-9.72-3.88c-2.57-2.59-3.86-5.94-3.86-10.05,0-4.89,1.56-8.67,4.68-11.34,3.12-2.67,7.61-4.04,13.48-4.1h3.71v-3.75c0-2.1-.36-3.58-1.08-4.44-.72-.86-1.77-1.29-3.15-1.29-3.05,0-4.57,1.78-4.57,5.35h-12.2c0-4.31,1.62-7.87,4.85-10.67,3.23-2.8,7.32-4.21,12.27-4.21s9.08,1.33,11.88,3.99,4.21,6.46,4.21,11.41v21.95c.06,4.03,.63,7.17,1.72,9.44v.73h-12.29Zm-7.2-8.71c1.35,0,2.5-.27,3.45-.82,.95-.55,1.65-1.19,2.11-1.94v-9.7h-2.93c-2.07,0-3.7,.66-4.89,1.98-1.19,1.32-1.79,3.09-1.79,5.3,0,3.45,1.35,5.17,4.05,5.17Z"/><path class="g" d="M177.34,225.17l-4.05-.34c-3.33,0-5.59,1.47-6.77,4.4v30.83h-12.25v-46.66h11.51l.35,5.04c1.93-3.94,4.58-5.91,7.98-5.91,1.38,0,2.5,.19,3.36,.56l-.13,12.08Z"/><path class="g" d="M181.14,235.3c0-7.65,1.29-13.35,3.88-17.12,2.59-3.77,6.35-5.65,11.3-5.65,3.59,0,6.58,1.55,8.97,4.66v-23.37h12.29v66.24h-11.08l-.56-4.74c-2.5,3.74-5.72,5.61-9.66,5.61-4.89,0-8.62-1.87-11.19-5.61-2.57-3.74-3.89-9.23-3.95-16.47v-3.54Zm12.25,3.06c0,4.6,.49,7.81,1.47,9.64,.98,1.83,2.63,2.74,4.96,2.74s4.24-1.08,5.48-3.23v-21.3c-1.21-2.3-3.02-3.45-5.43-3.45-2.24,0-3.88,.91-4.92,2.72s-1.55,5.03-1.55,9.66v3.23Z"/></g><g><path class="i" d="M11.26,158.57l4.91,18.62,4.91-18.62h8.88v27.74h-6.76v-5.52l.64-12.91-5.45,18.43h-4.45l-5.43-18.34,.64,12.81v5.52H2.4v-27.74H11.26Z"/><path class="i" d="M46.08,184.14c-1.29,1.74-3.01,2.61-5.17,2.61s-3.83-.75-4.95-2.25-1.69-3.68-1.69-6.54v-15.36h6.2v15.51c.03,2.31,.8,3.46,2.3,3.46,1.42,0,2.44-.61,3.07-1.84v-17.13h6.24v23.71h-5.83l-.18-2.17Z"/><path class="i" d="M67,179.96c0-.53-.25-1.01-.76-1.46s-1.62-1.05-3.36-1.81c-2.56-1.04-4.31-2.11-5.27-3.22-.96-1.11-1.44-2.49-1.44-4.14,0-2.07,.75-3.79,2.25-5.14,1.5-1.35,3.48-2.03,5.95-2.03,2.6,0,4.68,.67,6.24,2.02,1.56,1.34,2.34,3.15,2.34,5.41h-6.2c0-1.93-.8-2.89-2.41-2.89-.66,0-1.2,.2-1.62,.61s-.63,.98-.63,1.71c0,.53,.23,.99,.7,1.39,.47,.4,1.57,.97,3.31,1.72,2.53,.93,4.31,1.98,5.36,3.12,1.04,1.15,1.57,2.63,1.57,4.46,0,2.12-.8,3.82-2.39,5.1-1.59,1.29-3.68,1.93-6.27,1.93-1.74,0-3.27-.34-4.6-1.02-1.33-.68-2.37-1.62-3.12-2.84-.75-1.21-1.13-2.52-1.13-3.92h5.89c.03,1.08,.28,1.89,.76,2.43,.47,.54,1.25,.81,2.33,.81,1.67,0,2.5-.75,2.5-2.26Z"/><path class="i" d="M76.88,156.47c0-.96,.31-1.75,.92-2.37s1.43-.92,2.45-.92,1.84,.31,2.45,.92c.61,.61,.92,1.4,.92,2.37s-.3,1.74-.91,2.37c-.61,.63-1.43,.94-2.46,.94s-1.86-.31-2.46-.94c-.61-.63-.91-1.42-.91-2.37Zm6.51,29.84h-6.22v-23.71h6.22v23.71Z"/><path class="i" d="M96.75,181.6c1.8,0,2.71-1.17,2.74-3.51h5.83c-.03,2.58-.83,4.67-2.39,6.27-1.56,1.59-3.58,2.39-6.05,2.39-3.05,0-5.38-.95-6.99-2.85-1.61-1.9-2.42-4.7-2.45-8.39v-1.88c0-3.72,.79-6.57,2.38-8.52s3.93-2.94,7.02-2.94c2.61,0,4.67,.81,6.18,2.42s2.27,3.9,2.3,6.87h-5.83c-.01-1.33-.23-2.35-.66-3.07-.42-.71-1.12-1.07-2.1-1.07-1.08,0-1.85,.38-2.32,1.15s-.72,2.25-.75,4.46v2.41c0,1.93,.1,3.28,.29,4.04,.19,.77,.5,1.33,.94,1.69,.44,.36,1.06,.54,1.86,.54Z"/><path class="i" d="M108.76,186.31v-27.74h9.43c3.24,0,5.71,.65,7.42,1.96,1.71,1.31,2.56,3.21,2.56,5.7,0,1.41-.31,2.64-.93,3.69s-1.53,1.82-2.74,2.31c1.3,.38,2.31,1.11,3.02,2.18,.71,1.07,1.07,2.39,1.07,3.94,0,2.76-.8,4.78-2.41,6.05-1.6,1.27-4.02,1.91-7.24,1.91h-10.19Zm6.74-16.22h3.24c1.79-.05,2.69-1,2.69-2.86,0-1.1-.22-1.88-.67-2.35-.44-.47-1.13-.7-2.05-.7h-3.21v5.91Zm0,4.69v5.98h3.45c.94,0,1.65-.25,2.15-.76,.5-.51,.75-1.21,.75-2.1,0-2.01-.81-3.04-2.43-3.11h-3.93Z"/><path class="i" d="M144.41,168.59l-2.06-.17c-1.69,0-2.84,.75-3.44,2.23v15.67h-6.22v-23.71h5.85l.18,2.56c.98-2,2.33-3,4.05-3,.7,0,1.27,.09,1.71,.28l-.07,6.13Z"/><path class="i" d="M158.19,186.31c-.17-.37-.35-.98-.53-1.84-1.11,1.52-2.62,2.28-4.51,2.28s-3.63-.66-4.94-1.97c-1.31-1.32-1.96-3.02-1.96-5.11,0-2.48,.79-4.4,2.38-5.76s3.87-2.05,6.85-2.08h1.88v-1.91c0-1.07-.18-1.82-.55-2.26s-.9-.66-1.6-.66c-1.55,0-2.32,.91-2.32,2.72h-6.2c0-2.19,.82-4,2.46-5.42s3.72-2.14,6.23-2.14,4.61,.68,6.04,2.03c1.42,1.35,2.14,3.28,2.14,5.79v11.15c.03,2.05,.32,3.64,.88,4.8v.37h-6.24Zm-3.66-4.43c.69,0,1.27-.14,1.75-.42,.48-.28,.84-.61,1.07-.99v-4.93h-1.49c-1.05,0-1.88,.34-2.49,1.01-.61,.67-.91,1.57-.91,2.69,0,1.75,.69,2.63,2.06,2.63Z"/><path class="i" d="M168.05,156.47c0-.96,.31-1.75,.92-2.37s1.43-.92,2.45-.92,1.84,.31,2.45,.92c.61,.61,.92,1.4,.92,2.37s-.3,1.74-.91,2.37c-.61,.63-1.43,.94-2.46,.94s-1.86-.31-2.46-.94c-.61-.63-.91-1.42-.91-2.37Zm6.51,29.84h-6.22v-23.71h6.22v23.71Z"/><path class="i" d="M185.03,162.61l.18,2.34c1.4-1.85,3.24-2.78,5.5-2.78,4.08,0,6.17,2.86,6.29,8.57v15.58h-6.22v-15.12c0-1.34-.2-2.32-.6-2.92-.4-.61-1.11-.91-2.11-.91-1.12,0-2,.58-2.63,1.73v17.22h-6.22v-23.71h5.83Z"/><path class="i" d="M208.3,181.17h9.38v5.15h-16.74v-3.88l9.16-14.66h-8.94v-5.17h16.39v3.75l-9.25,14.81Z"/></g></g></g></g></g></svg>