<?xml version="1.0" encoding="UTF-8"?><svg id="a" xmlns="http://www.w3.org/2000/svg" viewBox="0 0 145 175"><defs><style>.b{fill:#b66bc2;}.c{fill:#fffedb;}.d{fill:#771b85;}.e{fill:#eb743b;}</style></defs><g><polygon class="e" points="74.5 3 74.5 99 115.5 75 115.5 27 74.5 3"/><polygon class="d" points="71.5 3 30.5 27 30.5 75 71.5 99 71.5 3"/><path class="c" d="M106.78,59.09c-1.24-1.97-3.38-3.15-5.72-3.15-.67,0-1.32,.1-1.96,.29-2.63-3.12-5.82-4.78-8.6-5.64,2.24-1.71,4.21-3.77,5.91-6.15,1.74,.39,3.63,.13,5.16-.83,3.16-2.01,4.1-6.2,2.1-9.35-1.25-1.97-3.39-3.15-5.72-3.15-1.28,0-2.53,.36-3.62,1.05-3.15,1.99-4.09,6.18-2.11,9.34,.13,.21,.27,.4,.42,.6-2.51,3.44-5.71,6.06-9.52,7.79h-.01c-3.53,1.61-5.62,2.12-8.62,2.12v5c4,0,5.93-1.12,10.02-2.9,1.37-.02,6.96,.18,10.99,4.75-1.51,2.16-1.66,5.11-.16,7.47,1.24,1.97,3.38,3.15,5.72,3.15,1.28,0,2.52-.36,3.61-1.04,1.54-.97,2.6-2.48,3-4.25,.4-1.76,.08-3.57-.89-5.09Zm-10.22-23.42c.42-.27,.9-.41,1.4-.41,.9,0,1.73,.46,2.22,1.22,.77,1.21,.4,2.84-.82,3.61-.41,.26-.9,.4-1.39,.4s-.97-.13-1.39-.39c-.34-.21-.62-.49-.83-.82-.77-1.22-.41-2.85,.81-3.62Zm7.06,27.6c-.15,.69-.56,1.27-1.16,1.64-.41,.26-.9,.41-1.39,.41-.91,0-1.73-.46-2.21-1.22-.75-1.18-.44-2.73,.69-3.53l.12-.08c1.21-.77,2.87-.37,3.61,.81,.38,.59,.5,1.29,.34,1.97Z"/><g><path class="b" d="M55.62,27.47l-12.1,5.83-6.56,35.29,11.56-2.93,9.73,6.89,6.57-35.29-9.19-9.79Zm-3.04,16.07c-2.03-.38-3.38-2.34-3-4.37,.38-2.04,2.34-3.38,4.37-3,2.04,.38,3.38,2.34,3,4.37-.38,2.03-2.34,3.38-4.37,3Z"/><path class="c" d="M63.85,27.59c-2.78,.86-5.97,2.51-8.6,5.64-.63-.19-1.29-.3-1.96-.3-2.34,0-4.48,1.18-5.72,3.15-.97,1.52-1.29,3.33-.89,5.09,.4,1.77,1.46,3.28,3,4.25,1.08,.68,2.33,1.04,3.61,1.04,2.34,0,4.48-1.18,5.72-3.15,1.5-2.36,1.35-5.31-.16-7.47,4.03-4.56,11.28-5.02,12.65-5v-4.44c-2.46-.15-4.87,.33-7.65,1.19Zm-12.77,10.71c.74-1.17,2.4-1.57,3.61-.81l.12,.08c1.13,.8,1.44,2.35,.69,3.53-.48,.76-1.3,1.22-2.21,1.22-.49,0-.98-.14-1.39-.41-.6-.38-1.01-.96-1.16-1.64-.15-.68-.03-1.37,.34-1.97Z"/></g></g><g><path class="d" d="M11.4,161.18v11.57H2.83v-35.3H15.95c3.78,0,6.83,1.14,9.15,3.41s3.48,5.23,3.48,8.86-1.14,6.22-3.42,8.3-5.32,3.13-9.12,3.15h-4.64Zm0-7.12h4.54c1.39,0,2.42-.4,3.09-1.21,.67-.81,1-1.83,1-3.06,0-1.58-.37-2.83-1.12-3.77-.75-.94-1.74-1.41-2.97-1.41h-4.54v9.45Z"/><path class="d" d="M33.63,134.79c0-1.23,.39-2.23,1.17-3.01,.78-.78,1.82-1.17,3.12-1.17s2.34,.39,3.12,1.17,1.17,1.78,1.17,3.01-.38,2.21-1.16,3.01c-.77,.8-1.82,1.2-3.13,1.2s-2.37-.4-3.14-1.2c-.77-.8-1.16-1.8-1.16-3.01Zm8.28,37.96h-7.92v-30.16h7.92v30.16Z"/><path class="d" d="M58.91,166.76c2.29,0,3.45-1.49,3.48-4.46h7.41c-.04,3.29-1.05,5.95-3.04,7.97s-4.55,3.04-7.69,3.04c-3.88,0-6.85-1.21-8.89-3.62-2.04-2.42-3.09-5.97-3.12-10.68v-2.4c0-4.74,1.01-8.35,3.03-10.84,2.02-2.49,4.99-3.73,8.93-3.73,3.33,0,5.95,1.03,7.86,3.08s2.89,4.97,2.93,8.74h-7.41c-.02-1.69-.3-2.99-.84-3.9-.54-.91-1.43-1.37-2.68-1.37-1.38,0-2.36,.49-2.96,1.46-.6,.98-.91,2.87-.95,5.67v3.07c0,2.45,.12,4.17,.36,5.14s.64,1.69,1.2,2.15c.56,.46,1.35,.68,2.37,.68Z"/><path class="d" d="M88.6,172.75c-.22-.46-.45-1.25-.67-2.34-1.41,1.93-3.33,2.9-5.74,2.9s-4.62-.84-6.29-2.51c-1.66-1.67-2.49-3.84-2.49-6.49,0-3.16,1.01-5.6,3.02-7.33,2.02-1.73,4.92-2.61,8.71-2.65h2.4v-2.42c0-1.36-.23-2.31-.7-2.87-.46-.56-1.14-.84-2.04-.84-1.97,0-2.96,1.15-2.96,3.46h-7.89c0-2.79,1.04-5.09,3.14-6.9,2.09-1.81,4.73-2.72,7.93-2.72s5.87,.86,7.68,2.58c1.81,1.72,2.72,4.18,2.72,7.37v14.19c.04,2.6,.41,4.64,1.12,6.1v.47h-7.94Zm-4.66-5.63c.87,0,1.62-.18,2.23-.53,.61-.35,1.07-.77,1.37-1.25v-6.27h-1.89c-1.34,0-2.39,.43-3.16,1.28-.77,.86-1.16,2-1.16,3.43,0,2.23,.87,3.34,2.62,3.34Z"/><path class="d" d="M116.03,150.2l-2.62-.22c-2.16,0-3.61,.95-4.38,2.84v19.93h-7.92v-30.16h7.44l.22,3.26c1.24-2.55,2.96-3.82,5.16-3.82,.89,0,1.62,.12,2.17,.36l-.08,7.8Z"/><path class="d" d="M118.48,156.75c0-4.94,.84-8.63,2.51-11.07,1.67-2.43,4.11-3.65,7.3-3.65,2.32,0,4.26,1,5.8,3.01v-15.11h7.94v42.81h-7.16l-.36-3.07c-1.62,2.42-3.7,3.62-6.24,3.62-3.16,0-5.57-1.21-7.23-3.62-1.66-2.42-2.51-5.96-2.55-10.65v-2.29Zm7.92,1.98c0,2.97,.32,5.05,.95,6.23,.63,1.18,1.7,1.77,3.21,1.77s2.74-.7,3.54-2.09v-13.77c-.78-1.49-1.95-2.23-3.51-2.23-1.45,0-2.51,.59-3.18,1.76-.67,1.17-1,3.25-1,6.24v2.09Z"/></g><g><path class="e" d="M8.61,107.22l3.18,12.06,3.18-12.06h5.75v17.97h-4.38v-3.58l.42-8.36-3.53,11.94h-2.88l-3.52-11.88,.42,8.3v3.58H2.87v-17.97h5.74Z"/><path class="e" d="M31.16,123.78c-.83,1.12-1.95,1.69-3.35,1.69s-2.48-.49-3.21-1.46c-.73-.97-1.09-2.38-1.09-4.23v-9.95h4.01v10.04c.02,1.5,.52,2.24,1.49,2.24,.92,0,1.58-.4,1.99-1.19v-11.09h4.04v15.35h-3.77l-.11-1.4Z"/><path class="e" d="M44.71,121.07c0-.34-.16-.66-.49-.94-.33-.29-1.05-.68-2.18-1.17-1.66-.67-2.79-1.37-3.41-2.09-.62-.72-.93-1.61-.93-2.68,0-1.34,.49-2.45,1.46-3.33,.97-.88,2.25-1.31,3.85-1.31,1.68,0,3.03,.43,4.04,1.3,1.01,.87,1.52,2.04,1.52,3.5h-4.01c0-1.25-.52-1.87-1.56-1.87-.43,0-.78,.13-1.05,.4s-.41,.63-.41,1.11c0,.34,.15,.64,.45,.9,.3,.26,1.02,.63,2.14,1.11,1.64,.61,2.79,1.28,3.47,2.02,.68,.74,1.01,1.71,1.01,2.89,0,1.37-.52,2.47-1.55,3.31s-2.38,1.25-4.06,1.25c-1.13,0-2.12-.22-2.98-.66s-1.53-1.05-2.02-1.84-.73-1.63-.73-2.54h3.82c.02,.7,.18,1.22,.49,1.58,.31,.35,.81,.52,1.51,.52,1.08,0,1.62-.49,1.62-1.46Z"/><path class="e" d="M51.11,105.86c0-.62,.2-1.13,.6-1.53s.93-.6,1.59-.6,1.19,.2,1.59,.6c.4,.4,.6,.91,.6,1.53s-.2,1.13-.59,1.53c-.39,.41-.92,.61-1.6,.61s-1.2-.2-1.6-.61c-.39-.41-.59-.92-.59-1.53Zm4.21,19.32h-4.03v-15.35h4.03v15.35Z"/><path class="e" d="M63.97,122.13c1.16,0,1.75-.76,1.77-2.27h3.77c-.02,1.67-.54,3.03-1.55,4.06s-2.32,1.55-3.92,1.55c-1.98,0-3.49-.62-4.53-1.84-1.04-1.23-1.57-3.04-1.59-5.43v-1.22c0-2.41,.51-4.25,1.54-5.52s2.54-1.9,4.55-1.9c1.69,0,3.03,.52,4,1.57s1.47,2.53,1.49,4.45h-3.77c0-.86-.15-1.52-.43-1.99-.27-.46-.73-.7-1.36-.7-.7,0-1.2,.25-1.5,.75-.3,.5-.46,1.46-.48,2.89v1.56c0,1.25,.06,2.12,.18,2.62,.12,.5,.33,.86,.61,1.09,.28,.23,.69,.35,1.21,.35Z"/><path class="e" d="M71.75,125.18v-17.97h6.11c2.1,0,3.7,.42,4.8,1.27,1.11,.85,1.66,2.08,1.66,3.69,0,.92-.2,1.71-.6,2.39-.4,.68-.99,1.18-1.77,1.5,.84,.25,1.5,.72,1.96,1.41,.46,.69,.69,1.54,.69,2.55,0,1.79-.52,3.09-1.56,3.92-1.04,.82-2.6,1.23-4.69,1.23h-6.6Zm4.36-10.5h2.1c1.16-.03,1.74-.65,1.74-1.85,0-.71-.14-1.22-.43-1.52-.29-.3-.73-.45-1.33-.45h-2.08v3.82Zm0,3.04v3.87h2.24c.61,0,1.07-.17,1.4-.5,.32-.33,.49-.78,.49-1.36,0-1.3-.52-1.97-1.57-2.01h-2.54Z"/><path class="e" d="M94.84,113.71l-1.33-.11c-1.1,0-1.84,.48-2.23,1.45v10.14h-4.03v-15.35h3.79l.11,1.66c.63-1.3,1.51-1.94,2.62-1.94,.45,0,.82,.06,1.11,.18l-.04,3.97Z"/><path class="e" d="M103.76,125.18c-.11-.24-.23-.63-.34-1.19-.72,.98-1.69,1.48-2.92,1.48s-2.35-.43-3.2-1.28-1.27-1.95-1.27-3.31c0-1.61,.51-2.85,1.54-3.73s2.5-1.33,4.43-1.35h1.22v-1.23c0-.69-.12-1.18-.35-1.46-.24-.28-.58-.42-1.04-.42-1,0-1.5,.59-1.5,1.76h-4.01c0-1.42,.53-2.59,1.6-3.51,1.06-.92,2.41-1.38,4.04-1.38s2.99,.44,3.91,1.31,1.38,2.13,1.38,3.75v7.22c.02,1.32,.21,2.36,.57,3.11v.24h-4.04Zm-2.37-2.87c.44,0,.82-.09,1.13-.27s.54-.39,.7-.64v-3.19h-.96c-.68,0-1.22,.22-1.61,.65-.39,.43-.59,1.02-.59,1.75,0,1.13,.44,1.7,1.33,1.7Z"/><path class="e" d="M110.14,105.86c0-.62,.2-1.13,.6-1.53s.93-.6,1.59-.6,1.19,.2,1.59,.6c.4,.4,.6,.91,.6,1.53s-.2,1.13-.59,1.53c-.39,.41-.92,.61-1.6,.61s-1.2-.2-1.6-.61c-.39-.41-.59-.92-.59-1.53Zm4.21,19.32h-4.03v-15.35h4.03v15.35Z"/><path class="e" d="M121.14,109.83l.11,1.52c.91-1.2,2.1-1.8,3.56-1.8,2.64,0,4,1.85,4.07,5.55v10.09h-4.03v-9.79c0-.87-.13-1.5-.39-1.89s-.72-.59-1.37-.59c-.73,0-1.3,.37-1.7,1.12v11.15h-4.03v-15.35h3.77Z"/><path class="e" d="M136.21,121.85h6.07v3.33h-10.84v-2.51l5.93-9.49h-5.79v-3.35h10.61v2.43l-5.99,9.59Z"/></g></svg>