<?xml version="1.0" encoding="UTF-8"?><svg id="a" xmlns="http://www.w3.org/2000/svg" viewBox="0 0 50 30"><defs><style>.b{fill:#771b85;}.c{fill:#eb743b;}</style></defs><g><polygon class="b" points="14 1 2 8 2 22 14 29 14 1"/><polygon class="c" points="15 1 27 8 27 22 15 29 15 1"/></g><path class="b" d="M36.71,18.81v6.19h-5.73V5.24h8.62c1.66,0,3.13,.3,4.41,.89,1.28,.59,2.27,1.43,2.98,2.51s1.06,2.3,1.06,3.66c0,1.9-.75,3.45-2.25,4.65-1.5,1.2-3.48,1.82-5.95,1.87h-3.14Zm0-4.41h2.88c.93,0,1.61-.2,2.06-.59,.45-.4,.67-.89,.67-1.48,0-.78-.24-1.42-.72-1.92s-1.15-.75-2.01-.75h-2.88v4.75Z"/></svg>