<?xml version="1.0" encoding="UTF-8"?><svg id="a" xmlns="http://www.w3.org/2000/svg" viewBox="0 0 140 190"><defs><style>.b{fill:#fffedb;}.c{fill:#5aa854;}.d{fill:#eb743b;}</style></defs><g><path class="c" d="M27.87,106.7l6.24,23.69,6.24-23.69h11.3v35.3h-8.6v-7.03l.82-16.42-6.94,23.45h-5.67l-6.91-23.33,.82,16.3v7.03h-8.57v-35.3h11.27Z"/><path class="c" d="M69.52,142.56c-4.05,0-7.21-1.21-9.48-3.62-2.27-2.42-3.4-5.87-3.4-10.37v-2.4c0-4.76,1.04-8.43,3.12-11.01,2.08-2.58,5.06-3.87,8.95-3.87s6.64,1.21,8.56,3.63c1.91,2.42,2.89,6.01,2.93,10.76v3.87h-15.69c.11,2.24,.6,3.88,1.48,4.91,.87,1.04,2.22,1.55,4.04,1.55,2.64,0,4.84-.9,6.61-2.7l3.09,4.77c-.97,1.34-2.37,2.42-4.21,3.25-1.84,.83-3.84,1.24-5.99,1.24Zm-4.96-18.51h7.89v-.72c-.04-1.8-.33-3.17-.89-4.1-.56-.93-1.52-1.39-2.9-1.39s-2.37,.49-3,1.48c-.62,.99-.99,2.56-1.1,4.74Z"/><path class="c" d="M93.83,104.43v7.42h4.04v5.91h-4.04v14.99c0,1.19,.16,2.01,.49,2.46,.33,.45,.95,.67,1.88,.67,.76,0,1.38-.07,1.87-.2l-.06,6.13c-1.34,.5-2.79,.75-4.35,.75-5.09,0-7.67-2.92-7.72-8.76v-16.04h-3.48v-5.91h3.48v-7.42h7.89Z"/><path class="c" d="M116.52,142c-.22-.46-.45-1.25-.67-2.34-1.41,1.93-3.33,2.9-5.74,2.9s-4.62-.84-6.29-2.51c-1.66-1.67-2.5-3.84-2.5-6.49,0-3.16,1.01-5.6,3.02-7.33,2.02-1.73,4.92-2.61,8.71-2.65h2.4v-2.42c0-1.36-.23-2.31-.7-2.87-.46-.56-1.14-.84-2.04-.84-1.97,0-2.95,1.15-2.95,3.46h-7.89c0-2.79,1.04-5.09,3.14-6.9,2.09-1.81,4.73-2.72,7.93-2.72s5.87,.86,7.68,2.58,2.72,4.18,2.72,7.37v14.19c.04,2.6,.41,4.64,1.12,6.1v.47h-7.94Zm-4.66-5.63c.87,0,1.62-.18,2.23-.53,.61-.35,1.07-.77,1.37-1.25v-6.27h-1.9c-1.34,0-2.39,.43-3.16,1.28-.77,.86-1.16,2-1.16,3.43,0,2.23,.87,3.34,2.62,3.34Z"/><path class="d" d="M.95,188v-35.3H12.95c4.12,0,7.27,.83,9.44,2.5,2.17,1.67,3.26,4.08,3.26,7.26,0,1.8-.39,3.36-1.18,4.7-.79,1.33-1.95,2.31-3.48,2.94,1.66,.49,2.94,1.41,3.85,2.77s1.36,3.04,1.36,5.01c0,3.51-1.02,6.08-3.06,7.7-2.04,1.62-5.11,2.42-9.21,2.42H.95Zm8.57-20.63h4.12c2.28-.06,3.42-1.27,3.42-3.64,0-1.39-.28-2.39-.85-2.98s-1.43-.89-2.61-.89h-4.09v7.51Zm0,5.97v7.6h4.39c1.19,0,2.11-.32,2.74-.97,.64-.65,.95-1.54,.95-2.68,0-2.55-1.03-3.87-3.09-3.95h-5Z"/><path class="d" d="M46.31,165.45l-2.62-.22c-2.16,0-3.61,.95-4.38,2.84v19.93h-7.92v-30.16h7.44l.22,3.26c1.24-2.55,2.96-3.82,5.16-3.82,.89,0,1.62,.12,2.17,.36l-.08,7.8Z"/><path class="d" d="M63.84,188c-.22-.46-.45-1.25-.67-2.34-1.41,1.93-3.33,2.9-5.74,2.9s-4.62-.84-6.29-2.51c-1.66-1.67-2.5-3.84-2.5-6.49,0-3.16,1.01-5.6,3.02-7.33,2.02-1.73,4.92-2.61,8.71-2.65h2.4v-2.42c0-1.36-.23-2.31-.7-2.87-.46-.56-1.14-.84-2.04-.84-1.97,0-2.95,1.15-2.95,3.46h-7.89c0-2.79,1.04-5.09,3.14-6.9,2.09-1.81,4.73-2.72,7.93-2.72s5.87,.86,7.68,2.58,2.72,4.18,2.72,7.37v14.19c.04,2.6,.41,4.64,1.12,6.1v.47h-7.94Zm-4.66-5.63c.87,0,1.62-.18,2.23-.53,.61-.35,1.07-.77,1.37-1.25v-6.27h-1.9c-1.34,0-2.39,.43-3.16,1.28-.77,.86-1.16,2-1.16,3.43,0,2.23,.87,3.34,2.62,3.34Z"/><path class="d" d="M76.39,150.04c0-1.23,.39-2.23,1.17-3.01s1.82-1.17,3.12-1.17,2.34,.39,3.12,1.17c.78,.78,1.17,1.78,1.17,3.01s-.39,2.21-1.16,3.01c-.77,.8-1.82,1.2-3.14,1.2s-2.37-.4-3.14-1.2c-.77-.8-1.16-1.8-1.16-3.01Zm8.28,37.96h-7.92v-30.16h7.92v30.16Z"/><path class="d" d="M97.99,157.84l.22,2.98c1.78-2.36,4.12-3.54,7-3.54,5.18,0,7.85,3.63,8,10.9v19.82h-7.92v-19.23c0-1.71-.26-2.95-.77-3.72-.51-.77-1.41-1.16-2.69-1.16-1.43,0-2.55,.73-3.34,2.2v21.91h-7.92v-30.16h7.42Z"/><path class="d" d="M127.59,181.45h11.93v6.55h-21.3v-4.93l11.65-18.65h-11.37v-6.58h20.85v4.77l-11.76,18.84Z"/></g><g><polygon class="d" points="72 3 72 99 113 75 113 27 72 3"/><polygon class="c" points="69 3 28 27 28 75 69 99 69 3"/><path class="b" d="M104.28,59.09c-1.24-1.97-3.38-3.15-5.72-3.15-.67,0-1.32,.1-1.96,.29-2.63-3.12-5.82-4.78-8.6-5.64,2.24-1.71,4.21-3.77,5.91-6.15,1.74,.39,3.63,.13,5.16-.83,3.16-2.01,4.1-6.2,2.1-9.35-1.25-1.97-3.39-3.15-5.72-3.15-1.28,0-2.53,.36-3.62,1.05-3.15,1.99-4.09,6.18-2.11,9.34,.13,.21,.27,.4,.42,.6-2.51,3.44-5.71,6.06-9.52,7.79h-.01c-3.53,1.61-5.62,2.12-8.62,2.12v5c4,0,5.93-1.12,10.02-2.9,1.37-.02,6.96,.18,10.99,4.75-1.51,2.16-1.66,5.11-.16,7.47,1.24,1.97,3.38,3.15,5.72,3.15,1.28,0,2.52-.36,3.61-1.04,1.54-.97,2.6-2.48,3-4.25,.4-1.76,.08-3.57-.89-5.09Zm-10.22-23.42c.42-.27,.9-.41,1.4-.41,.9,0,1.73,.46,2.22,1.22,.77,1.21,.4,2.84-.82,3.61-.41,.26-.9,.4-1.39,.4s-.97-.13-1.39-.39c-.34-.21-.62-.49-.83-.82-.77-1.22-.41-2.85,.81-3.62Zm7.06,27.6c-.15,.69-.56,1.27-1.16,1.64-.41,.26-.9,.41-1.39,.41-.91,0-1.73-.46-2.21-1.22-.75-1.18-.44-2.73,.69-3.53l.12-.08c1.21-.77,2.87-.37,3.61,.81,.38,.59,.5,1.29,.34,1.97Z"/><path class="b" d="M36.72,42.91c1.24,1.97,3.38,3.15,5.72,3.15,.67,0,1.32-.1,1.96-.29,2.63,3.12,5.82,4.78,8.6,5.64-2.24,1.71-4.21,3.77-5.91,6.15-1.74-.39-3.63-.13-5.16,.83-3.16,2.01-4.1,6.2-2.1,9.35,1.25,1.97,3.39,3.15,5.72,3.15,1.28,0,2.53-.36,3.62-1.05,3.15-1.99,4.09-6.18,2.11-9.34-.13-.21-.27-.4-.42-.6,2.51-3.44,5.71-6.06,9.52-7.79h.01c3.53-1.61,5.62-2.12,8.62-2.12v-5c-4,0-5.93,1.12-10.02,2.9-1.37,.02-6.96-.18-10.99-4.75,1.51-2.16,1.66-5.11,.16-7.47-1.24-1.97-3.38-3.15-5.72-3.15-1.28,0-2.52,.36-3.61,1.04-1.54,.97-2.6,2.48-3,4.25-.4,1.76-.08,3.57,.89,5.09Zm10.22,23.42c-.42,.27-.9,.41-1.4,.41-.9,0-1.73-.46-2.22-1.22-.77-1.21-.4-2.84,.82-3.61,.41-.26,.9-.4,1.39-.4s.97,.13,1.39,.39c.34,.21,.62,.49,.83,.82,.77,1.22,.41,2.85-.81,3.62Zm-7.06-27.6c.15-.69,.56-1.27,1.16-1.64,.41-.26,.9-.41,1.39-.41,.91,0,1.73,.46,2.21,1.22,.75,1.18,.44,2.73-.69,3.53l-.12,.08c-1.21,.77-2.87,.37-3.61-.81-.38-.59-.5-1.29-.34-1.97Z"/></g></svg>