<?xml version="1.0" encoding="UTF-8"?><svg xmlns="http://www.w3.org/2000/svg" viewBox="0 0 551.3 150"><defs><style>.b{mix-blend-mode:multiply;opacity:.07;}.c{fill:#43883e;}.d{isolation:isolate;}.e{fill:#fffedb;}.f{fill:#5aa854;}.g{fill:#d3562c;}.h{fill:#eb743b;}</style></defs><g class="d"><g id="a"><g><g><path class="f" d="M172.8,48.08l12.22,38.09,12.18-38.09h17.37v54.74h-13.23v-12.78l1.28-26.17-13.23,38.95h-8.72l-13.27-38.99,1.28,26.21v12.78h-13.2V48.08h17.33Z"/><path class="f" d="M242.06,103.58c-6.24,0-11.29-1.86-15.15-5.58-3.86-3.72-5.79-8.57-5.79-14.53v-1.05c0-4.16,.77-7.83,2.31-11.02,1.54-3.18,3.79-5.65,6.75-7.39,2.96-1.74,6.47-2.61,10.53-2.61,5.71,0,10.23,1.77,13.54,5.32s4.96,8.49,4.96,14.83v4.92h-25.19c.45,2.28,1.44,4.07,2.97,5.38,1.53,1.3,3.51,1.96,5.94,1.96,4.01,0,7.14-1.4,9.4-4.21l5.79,6.84c-1.58,2.18-3.82,3.92-6.71,5.21-2.89,1.29-6.01,1.94-9.34,1.94Zm-1.43-32.41c-3.71,0-5.92,2.46-6.62,7.37h12.78v-.98c.05-2.03-.46-3.6-1.54-4.72-1.08-1.12-2.62-1.67-4.62-1.67Z"/><path class="f" d="M279.05,52.03v10.11h6.69v8.8h-6.69v18.61c0,1.53,.28,2.59,.83,3.2,.55,.6,1.64,.9,3.27,.9,1.25,0,2.31-.08,3.16-.23v9.06c-2.28,.73-4.66,1.09-7.14,1.09-4.36,0-7.58-1.03-9.66-3.08-2.08-2.05-3.12-5.18-3.12-9.36v-20.19h-5.19v-8.8h5.19v-10.11h12.67Z"/><path class="f" d="M313.64,102.82c-.45-.83-.85-2.04-1.2-3.65-2.33,2.93-5.59,4.4-9.78,4.4-3.83,0-7.09-1.16-9.78-3.48-2.68-2.32-4.02-5.23-4.02-8.74,0-4.41,1.63-7.75,4.89-10,3.26-2.26,8-3.38,14.21-3.38h3.91v-2.15c0-3.75-1.62-5.63-4.85-5.63-3.01,0-4.51,1.49-4.51,4.46h-12.67c0-3.93,1.67-7.12,5.02-9.58,3.35-2.45,7.61-3.68,12.8-3.68s9.29,1.27,12.29,3.8c3.01,2.53,4.55,6,4.62,10.41v18.01c.05,3.73,.63,6.59,1.73,8.57v.64h-12.67Zm-7.93-8.27c1.58,0,2.89-.34,3.93-1.02,1.04-.68,1.79-1.44,2.24-2.29v-6.5h-3.68c-4.41,0-6.62,1.98-6.62,5.94,0,1.15,.39,2.09,1.17,2.8,.78,.71,1.77,1.07,2.97,1.07Z"/><path class="h" d="M332.18,102.82V48.08h19.66c7.04,0,12.4,1.29,16.07,3.87,3.67,2.58,5.51,6.33,5.51,11.24,0,2.83-.65,5.25-1.96,7.26-1.3,2-3.22,3.48-5.75,4.44,2.86,.75,5.05,2.16,6.58,4.21,1.53,2.06,2.29,4.56,2.29,7.52,0,5.36-1.7,9.39-5.09,12.09-3.4,2.7-8.43,4.07-15.1,4.12h-22.22Zm13.2-31.92h6.88c2.88-.03,4.94-.55,6.17-1.58,1.23-1.03,1.84-2.55,1.84-4.56,0-2.31-.66-3.98-1.99-5-1.33-1.02-3.47-1.53-6.43-1.53h-6.47v12.67Zm0,8.65v13.12h8.65c2.38,0,4.21-.54,5.49-1.64,1.28-1.09,1.92-2.62,1.92-4.61,0-4.56-2.27-6.86-6.8-6.88h-9.25Z"/><path class="h" d="M405.87,73.61l-4.17-.3c-3.99,0-6.54,1.25-7.67,3.76v25.75h-12.67V62.14h11.88l.41,5.23c2.13-3.98,5.1-5.98,8.91-5.98,1.35,0,2.53,.15,3.54,.45l-.23,11.77Z"/><path class="h" d="M432.23,102.82c-.45-.83-.85-2.04-1.2-3.65-2.33,2.93-5.59,4.4-9.78,4.4-3.83,0-7.09-1.16-9.78-3.48-2.68-2.32-4.02-5.23-4.02-8.74,0-4.41,1.63-7.75,4.89-10,3.26-2.26,8-3.38,14.21-3.38h3.91v-2.15c0-3.75-1.62-5.63-4.85-5.63-3.01,0-4.51,1.49-4.51,4.46h-12.67c0-3.93,1.67-7.12,5.02-9.58,3.35-2.45,7.61-3.68,12.8-3.68s9.29,1.27,12.29,3.8c3.01,2.53,4.55,6,4.62,10.41v18.01c.05,3.73,.63,6.59,1.73,8.57v.64h-12.67Zm-7.93-8.27c1.58,0,2.89-.34,3.93-1.02,1.04-.68,1.79-1.44,2.24-2.29v-6.5h-3.68c-4.41,0-6.62,1.98-6.62,5.94,0,1.15,.39,2.09,1.17,2.8,.78,.71,1.77,1.07,2.97,1.07Z"/><path class="h" d="M450.08,51.62c0-1.82,.65-3.3,1.96-4.46,1.3-1.16,3-1.74,5.08-1.74s3.77,.58,5.08,1.74c1.3,1.16,1.96,2.65,1.96,4.46s-.65,3.3-1.96,4.46c-1.3,1.16-3,1.74-5.08,1.74s-3.77-.58-5.08-1.74c-1.3-1.16-1.96-2.65-1.96-4.46Zm13.46,51.21h-12.71V62.14h12.71v40.68Z"/><path class="h" d="M482.98,62.14l.41,4.77c2.81-3.68,6.68-5.53,11.62-5.53,4.24,0,7.4,1.27,9.49,3.8,2.09,2.53,3.18,6.34,3.25,11.43v26.21h-12.71v-25.68c0-2.05-.41-3.56-1.24-4.53-.83-.96-2.33-1.45-4.51-1.45-2.48,0-4.32,.98-5.53,2.93v28.72h-12.67V62.14h11.88Z"/><path class="h" d="M529.72,93.05h18.54v9.78h-34.55v-7.07l18.05-23.84h-17.26v-9.78h33.35v6.84l-18.12,24.06Z"/></g><g><polygon class="h" points="70.35 2.82 70.35 146.82 131.35 111.82 131.35 37.82 70.35 2.82"/><polygon class="f" points="65.35 2.82 4.35 37.82 4.35 111.82 65.35 146.82 65.35 2.82"/><g><g class="b"><path d="M87.66,94.56c.39-.64,1.07-1.03,1.82-1.03,.38,0,.75,.1,1.08,.3,1,.6,1.33,1.9,.74,2.9-.38,.65-1.06,1.03-1.82,1.03-.38,0-.75-.1-1.08-.3-.48-.29-.83-.75-.96-1.29-.14-.55-.06-1.12,.23-1.6Zm12.6,22.36c-.49,.42-1.02,.51-1.37,.51-.62,0-1.21-.27-1.61-.73-.76-.88-.65-2.22,.23-2.98,.49-.42,1.02-.51,1.37-.51,.62,0,1.2,.27,1.61,.74,.37,.43,.55,.98,.5,1.54-.04,.56-.3,1.07-.73,1.44Z"/><path d="M79.36,48.43c.07,.02,.14,.03,.21,.05-.07-.01-.14-.03-.21-.05Z"/><path d="M90.73,58.08c.17-.27,.39-.49,.67-.66,.33-.21,.72-.32,1.12-.32s.79,.11,1.12,.32c.99,.63,1.28,1.94,.66,2.92-.39,.62-1.06,.99-1.79,.99-.4,0-.79-.11-1.12-.33-.98-.62-1.28-1.94-.66-2.92Zm6.38-20.19c-.6,.95-1.94,1.27-2.91,.65l-.1-.06c-.91-.65-1.16-1.9-.56-2.85,.39-.61,1.05-.98,1.78-.98,.4,0,.79,.11,1.12,.33,.48,.3,.81,.78,.94,1.33,.12,.55,.03,1.11-.28,1.58Z"/><path d="M113.88,49.49c.39-.61,1.05-.98,1.78-.98,.4,0,.79,.11,1.12,.33,.48,.3,.81,.78,.94,1.33,.12,.55,.02,1.11-.28,1.58-.6,.95-1.94,1.27-2.91,.65l-.09-.06c-.92-.65-1.16-1.9-.56-2.85Zm0,23.46c.39-.61,1.05-.98,1.78-.98,.4,0,.79,.11,1.12,.33,.48,.3,.81,.77,.94,1.33,.12,.55,.02,1.11-.28,1.58-.6,.95-1.94,1.27-2.91,.65l-.09-.06c-.92-.65-1.16-1.9-.56-2.85Zm0,26.3c.39-.61,1.05-.98,1.78-.98,.4,0,.79,.11,1.12,.33,.48,.3,.81,.78,.94,1.33,.12,.55,.02,1.11-.28,1.58-.6,.95-1.94,1.27-2.91,.65l-.09-.06c-.92-.65-1.16-1.9-.56-2.85Z"/><path d="M103.53,108.93c-1.17-1.36-2.86-2.14-4.65-2.14-1.46,0-2.88,.53-3.98,1.48-1.61,1.38-2.33,3.43-2.09,5.4-1.95,.7-4.26,1.37-5.33,1.33-.82-.04-1.3-.35-2.22-.97-1.17-.79-2.42-1.51-4.15-1.85,2.94-2.76,6.01-6.83,8.58-12.83,2.06-.08,3.98-1.19,5.04-2.97,1.72-2.9,.77-6.66-2.12-8.39-.95-.57-2.03-.86-3.13-.86-2.15,0-4.16,1.14-5.26,2.99-.84,1.41-1.08,3.05-.68,4.64,.35,1.39,1.16,2.59,2.3,3.43-4.05,9.22-9.22,13.08-12.57,14.68-.13,.04-.25,.1-.36,.17-1.19,.53-2.05,.7-2.56,.81v4c.28-.03,1.88-.12,4.25-1.19,5.35-1.36,6.84-.35,8.41,.71,1.02,.69,2.29,1.55,4.26,1.66,.1,0,.2,0,.31,0,2.11,0,5.17-1.02,7.02-1.72,1.14,1.12,2.68,1.75,4.29,1.75h0c1.46,0,2.88-.52,3.98-1.48,1.24-1.06,1.99-2.55,2.12-4.18,.12-1.63-.39-3.21-1.46-4.45Zm-15.87-16.78c.39-.64,1.07-1.03,1.82-1.03,.38,0,.75,.1,1.08,.3,1,.6,1.33,1.9,.74,2.9-.38,.65-1.06,1.03-1.82,1.03-.38,0-.75-.1-1.08-.3-.48-.29-.83-.75-.96-1.29-.14-.55-.06-1.12,.23-1.6Zm12.6,22.36c-.49,.42-1.02,.51-1.37,.51-.62,0-1.21-.27-1.61-.73-.76-.88-.65-2.22,.23-2.98,.49-.42,1.02-.51,1.37-.51,.62,0,1.2,.27,1.61,.74,.37,.43,.55,.98,.5,1.54-.04,.56-.3,1.07-.73,1.44Z"/><path d="M79.36,46.03c.07,.02,.14,.03,.21,.05-.07-.01-.14-.03-.21-.05Z"/><path d="M101.3,33.03c-.36-1.6-1.32-2.96-2.71-3.84-.98-.62-2.11-.94-3.26-.94-2.12,0-4.05,1.07-5.17,2.85-1.35,2.14-1.22,4.8,.14,6.76-3.65,4.12-8.71,4.31-9.94,4.29-3.69-1.6-7.23-2.16-10-2.32v4c2.44,.14,5.55,.69,8.75,2.14h.01c3.45,1.57,6.33,3.93,8.61,7.05-.14,.17-.26,.35-.38,.54-1.8,2.85-.94,6.64,1.9,8.44,.98,.62,2.11,.95,3.27,.95,2.11,0,4.05-1.07,5.18-2.85,1.81-2.85,.95-6.64-1.91-8.45-1.38-.87-3.09-1.11-4.67-.75-1.54-2.15-3.32-4.02-5.34-5.57,2.52-.78,5.4-2.27,7.78-5.1,.57,.17,1.17,.27,1.77,.27,2.12,0,4.05-1.07,5.17-2.85,.88-1.38,1.16-3.01,.8-4.6Zm-10.57,22.65c.17-.27,.39-.49,.67-.66,.33-.21,.72-.32,1.12-.32s.79,.11,1.12,.32c.99,.63,1.28,1.94,.66,2.92-.39,.62-1.06,.99-1.79,.99-.4,0-.79-.11-1.12-.33-.98-.62-1.28-1.94-.66-2.92Zm6.38-20.19c-.6,.95-1.94,1.27-2.91,.65l-.1-.06c-.91-.65-1.16-1.9-.56-2.85,.39-.61,1.05-.98,1.78-.98,.4,0,.79,.11,1.12,.33,.48,.3,.81,.78,.94,1.33,.12,.55,.03,1.11-.28,1.58Z"/><path d="M110,74.01c.42,1.04,1.14,1.96,2.11,2.65,.07,.05,.15,.11,.28,.19,.98,.62,2.11,.95,3.27,.95,2.12,0,4.05-1.07,5.17-2.85,.88-1.38,1.16-3.01,.8-4.6-.36-1.6-1.32-2.96-2.71-3.84-.98-.62-2.11-.94-3.27-.94-.12,0-.25,0-.38,.02-.71-3.16-.92-7.77,.04-11.26,.11,.01,.22,.02,.34,.02,2.12,0,4.05-1.07,5.17-2.85,.88-1.38,1.16-3.01,.8-4.6-.36-1.6-1.32-2.96-2.71-3.84-.98-.62-2.11-.94-3.27-.94-2.11,0-4.05,1.07-5.17,2.85-1.6,2.53-1.12,5.8,1.02,7.76,.02,.02,.05,.04,.07,.06-1.35,4.52-1.15,10.32-.04,14.42-.14,.13-.29,.25-.43,.4-.23,.25-.45,.53-.63,.82-.32,.5-.55,1.03-.71,1.58-3.37,.49-5.2,1.67-6.82,2.73-2.04,1.32-3.96,2.57-9.64,2.67-1.96-.23-3.55-.18-5.29-.12-1.43,.05-2.91,.11-4.85,0-1.33-.07-2.1-.88-3.46-2.42-1.8-2.05-4.22-4.65-9.37-5.02v4c3.29,.3,4.8,1.89,6.36,3.67,1.49,1.69,3.17,3.62,6.26,3.78,2.12,.11,3.76,.05,5.21,0,2.49-.09,4.45-.16,7.86,.68,2.61,.64,12.1,9.67,14.77,14.32-.11,.14-.22,.28-.31,.43-1.74,2.75-1.03,6.38,1.62,8.25,.07,.05,.15,.1,.28,.19,.98,.62,2.11,.95,3.27,.95,2.12,0,4.05-1.07,5.17-2.85,.88-1.37,1.16-3.01,.8-4.6-.36-1.6-1.32-2.96-2.71-3.84-.98-.62-2.11-.94-3.27-.94-.53,0-1.05,.07-1.54,.2-2.56-4.19-8.65-10.46-13.19-13.79,1.81-.63,3.05-1.43,4.21-2.19,1.43-.93,2.61-1.69,4.86-2.07Zm3.88-26.92c.39-.61,1.05-.98,1.78-.98,.4,0,.79,.11,1.12,.33,.48,.3,.81,.78,.94,1.33,.12,.55,.02,1.11-.28,1.58-.6,.95-1.94,1.27-2.91,.65l-.09-.06c-.92-.65-1.16-1.9-.56-2.85Zm0,23.46c.39-.61,1.05-.98,1.78-.98,.4,0,.79,.11,1.12,.33,.48,.3,.81,.77,.94,1.33,.12,.55,.02,1.11-.28,1.58-.6,.95-1.94,1.27-2.91,.65l-.09-.06c-.92-.65-1.16-1.9-.56-2.85Zm0,26.3c.39-.61,1.05-.98,1.78-.98,.4,0,.79,.11,1.12,.33,.48,.3,.81,.78,.94,1.33,.12,.55,.02,1.11-.28,1.58-.6,.95-1.94,1.27-2.91,.65l-.09-.06c-.92-.65-1.16-1.9-.56-2.85Z"/></g><g><g><path class="g" d="M103.53,111.93c-1.17-1.36-2.86-2.14-4.65-2.14-1.46,0-2.88,.53-3.98,1.48-1.61,1.38-2.33,3.43-2.09,5.4-1.95,.7-4.26,1.37-5.33,1.33-.82-.04-1.3-.35-2.22-.97-1.17-.79-2.42-1.51-4.15-1.85,2.94-2.76,6.01-6.83,8.58-12.83,2.06-.08,3.98-1.19,5.04-2.97,1.72-2.9,.77-6.66-2.12-8.39-.95-.57-2.03-.86-3.13-.86-2.15,0-4.16,1.14-5.26,2.99-.84,1.41-1.08,3.05-.68,4.64,.35,1.39,1.16,2.59,2.3,3.43-4.05,9.22-9.22,13.08-12.57,14.68-.13,.04-.25,.1-.36,.17-1.19,.53-2.05,.7-2.56,.81v4c.28-.03,1.88-.12,4.25-1.19,5.35-1.36,6.84-.35,8.41,.71,1.02,.69,2.29,1.55,4.26,1.66,.1,0,.2,0,.31,0,2.11,0,5.17-1.02,7.02-1.72,1.14,1.12,2.68,1.75,4.29,1.75h0c1.46,0,2.88-.52,3.98-1.48,1.24-1.06,1.99-2.55,2.12-4.18,.12-1.63-.39-3.21-1.46-4.45Zm-15.87-16.78c.39-.64,1.07-1.03,1.82-1.03,.38,0,.75,.1,1.08,.3,1,.6,1.33,1.9,.74,2.9-.38,.65-1.06,1.03-1.82,1.03-.38,0-.75-.1-1.08-.3-.48-.29-.83-.75-.96-1.29-.14-.55-.06-1.12,.23-1.6Zm12.6,22.36c-.49,.42-1.02,.51-1.37,.51-.62,0-1.21-.27-1.61-.73-.76-.88-.65-2.22,.23-2.98,.49-.42,1.02-.51,1.37-.51,.62,0,1.2,.27,1.61,.74,.37,.43,.55,.98,.5,1.54-.04,.56-.3,1.07-.73,1.44Z"/><path d="M79.36,48.43c.07,.02,.14,.03,.21,.05-.07-.01-.14-.03-.21-.05Z"/><path class="g" d="M101.3,36.03c-.36-1.6-1.32-2.96-2.71-3.84-.98-.62-2.11-.94-3.26-.94-2.12,0-4.05,1.07-5.17,2.85-1.35,2.14-1.22,4.8,.14,6.76-3.65,4.12-8.71,4.31-9.94,4.29-3.69-1.6-7.23-2.16-10-2.32v4c2.44,.14,5.55,.69,8.75,2.14h.01c3.45,1.57,6.33,3.93,8.61,7.05-.14,.17-.26,.35-.38,.54-1.8,2.85-.94,6.64,1.9,8.44,.98,.62,2.11,.95,3.27,.95,2.11,0,4.05-1.07,5.18-2.85,1.81-2.85,.95-6.64-1.91-8.45-1.38-.87-3.09-1.11-4.67-.75-1.54-2.15-3.32-4.02-5.34-5.57,2.52-.78,5.4-2.27,7.78-5.1,.57,.17,1.17,.27,1.77,.27,2.12,0,4.05-1.07,5.17-2.85,.88-1.38,1.16-3.01,.8-4.6Zm-10.57,22.65c.17-.27,.39-.49,.67-.66,.33-.21,.72-.32,1.12-.32s.79,.11,1.12,.32c.99,.63,1.28,1.94,.66,2.92-.39,.62-1.06,.99-1.79,.99-.4,0-.79-.11-1.12-.33-.98-.62-1.28-1.94-.66-2.92Zm6.38-20.19c-.6,.95-1.94,1.27-2.91,.65l-.1-.06c-.91-.65-1.16-1.9-.56-2.85,.39-.61,1.05-.98,1.78-.98,.4,0,.79,.11,1.12,.33,.48,.3,.81,.78,.94,1.33,.12,.55,.03,1.11-.28,1.58Z"/><path class="g" d="M110,77.01c.42,1.04,1.14,1.96,2.11,2.65,.07,.05,.15,.11,.28,.19,.98,.62,2.11,.95,3.27,.95,2.12,0,4.05-1.07,5.17-2.85,.88-1.38,1.16-3.01,.8-4.6-.36-1.6-1.32-2.96-2.71-3.84-.98-.62-2.11-.94-3.27-.94-.12,0-.25,0-.38,.02-.71-3.16-.92-7.77,.04-11.26,.11,.01,.22,.02,.34,.02,2.12,0,4.05-1.07,5.17-2.85,.88-1.38,1.16-3.01,.8-4.6-.36-1.6-1.32-2.96-2.71-3.84-.98-.62-2.11-.94-3.27-.94-2.11,0-4.05,1.07-5.17,2.85-1.6,2.53-1.12,5.8,1.02,7.76,.02,.02,.05,.04,.07,.06-1.35,4.52-1.15,10.32-.04,14.42-.14,.13-.29,.25-.43,.4-.23,.25-.45,.53-.63,.82-.32,.5-.55,1.03-.71,1.58-3.37,.49-5.2,1.67-6.82,2.73-2.04,1.32-3.96,2.57-9.64,2.67-1.96-.23-3.55-.18-5.29-.12-1.43,.05-2.91,.11-4.85,0-1.33-.07-2.1-.88-3.46-2.42-1.8-2.05-4.22-4.65-9.37-5.02v4c3.29,.3,4.8,1.89,6.36,3.67,1.49,1.69,3.17,3.62,6.26,3.78,2.12,.11,3.76,.05,5.21,0,2.49-.09,4.45-.16,7.86,.68,2.61,.64,12.1,9.67,14.77,14.32-.11,.14-.22,.28-.31,.43-1.74,2.75-1.03,6.38,1.62,8.25,.07,.05,.15,.1,.28,.19,.98,.62,2.11,.95,3.27,.95,2.12,0,4.05-1.07,5.17-2.85,.88-1.37,1.16-3.01,.8-4.6-.36-1.6-1.32-2.96-2.71-3.84-.98-.62-2.11-.94-3.27-.94-.53,0-1.05,.07-1.54,.2-2.56-4.19-8.65-10.46-13.19-13.79,1.81-.63,3.05-1.43,4.21-2.19,1.43-.93,2.61-1.69,4.86-2.07Zm3.88-26.92c.39-.61,1.05-.98,1.78-.98,.4,0,.79,.11,1.12,.33,.48,.3,.81,.78,.94,1.33,.12,.55,.02,1.11-.28,1.58-.6,.95-1.94,1.27-2.91,.65l-.09-.06c-.92-.65-1.16-1.9-.56-2.85Zm0,23.46c.39-.61,1.05-.98,1.78-.98,.4,0,.79,.11,1.12,.33,.48,.3,.81,.77,.94,1.33,.12,.55,.02,1.11-.28,1.58-.6,.95-1.94,1.27-2.91,.65l-.09-.06c-.92-.65-1.16-1.9-.56-2.85Zm0,26.3c.39-.61,1.05-.98,1.78-.98,.4,0,.79,.11,1.12,.33,.48,.3,.81,.78,.94,1.33,.12,.55,.02,1.11-.28,1.58-.6,.95-1.94,1.27-2.91,.65l-.09-.06c-.92-.65-1.16-1.9-.56-2.85Z"/></g><g><path class="e" d="M103.53,108.93c-1.17-1.36-2.86-2.14-4.65-2.14-1.46,0-2.88,.53-3.98,1.48-1.61,1.38-2.33,3.43-2.09,5.4-1.95,.7-4.26,1.37-5.33,1.33-.82-.04-1.3-.35-2.22-.97-1.17-.79-2.42-1.51-4.15-1.85,2.94-2.76,6.01-6.83,8.58-12.83,2.06-.08,3.98-1.19,5.04-2.97,1.72-2.9,.77-6.66-2.12-8.39-.95-.57-2.03-.86-3.13-.86-2.15,0-4.16,1.14-5.26,2.99-.84,1.41-1.08,3.05-.68,4.64,.35,1.39,1.16,2.59,2.3,3.43-4.05,9.22-9.22,13.08-12.57,14.68-.13,.04-.25,.1-.36,.17-1.19,.53-2.05,.7-2.56,.81v4c.28-.03,1.88-.12,4.25-1.19,5.35-1.36,6.84-.35,8.41,.71,1.02,.69,2.29,1.55,4.26,1.66,.1,0,.2,0,.31,0,2.11,0,5.17-1.02,7.02-1.72,1.14,1.12,2.68,1.75,4.29,1.75h0c1.46,0,2.88-.52,3.98-1.48,1.24-1.06,1.99-2.55,2.12-4.18,.12-1.63-.39-3.21-1.46-4.45Zm-15.87-16.78c.39-.64,1.07-1.03,1.82-1.03,.38,0,.75,.1,1.08,.3,1,.6,1.33,1.9,.74,2.9-.38,.65-1.06,1.03-1.82,1.03-.38,0-.75-.1-1.08-.3-.48-.29-.83-.75-.96-1.29-.14-.55-.06-1.12,.23-1.6Zm12.6,22.36c-.49,.42-1.02,.51-1.37,.51-.62,0-1.21-.27-1.61-.73-.76-.88-.65-2.22,.23-2.98,.49-.42,1.02-.51,1.37-.51,.62,0,1.2,.27,1.61,.74,.37,.43,.55,.98,.5,1.54-.04,.56-.3,1.07-.73,1.44Z"/><path class="e" d="M79.36,46.03c.07,.02,.14,.03,.21,.05-.07-.01-.14-.03-.21-.05Z"/><path class="e" d="M101.3,33.03c-.36-1.6-1.32-2.96-2.71-3.84-.98-.62-2.11-.94-3.26-.94-2.12,0-4.05,1.07-5.17,2.85-1.35,2.14-1.22,4.8,.14,6.76-3.65,4.12-8.71,4.31-9.94,4.29-3.69-1.6-7.23-2.16-10-2.32v4c2.44,.14,5.55,.69,8.75,2.14h.01c3.45,1.57,6.33,3.93,8.61,7.05-.14,.17-.26,.35-.38,.54-1.8,2.85-.94,6.64,1.9,8.44,.98,.62,2.11,.95,3.27,.95,2.11,0,4.05-1.07,5.18-2.85,1.81-2.85,.95-6.64-1.91-8.45-1.38-.87-3.09-1.11-4.67-.75-1.54-2.15-3.32-4.02-5.34-5.57,2.52-.78,5.4-2.27,7.78-5.1,.57,.17,1.17,.27,1.77,.27,2.12,0,4.05-1.07,5.17-2.85,.88-1.38,1.16-3.01,.8-4.6Zm-10.57,22.65c.17-.27,.39-.49,.67-.66,.33-.21,.72-.32,1.12-.32s.79,.11,1.12,.32c.99,.63,1.28,1.94,.66,2.92-.39,.62-1.06,.99-1.79,.99-.4,0-.79-.11-1.12-.33-.98-.62-1.28-1.94-.66-2.92Zm6.38-20.19c-.6,.95-1.94,1.27-2.91,.65l-.1-.06c-.91-.65-1.16-1.9-.56-2.85,.39-.61,1.05-.98,1.78-.98,.4,0,.79,.11,1.12,.33,.48,.3,.81,.78,.94,1.33,.12,.55,.03,1.11-.28,1.58Z"/><path class="e" d="M110,74.01c.42,1.04,1.14,1.96,2.11,2.65,.07,.05,.15,.11,.28,.19,.98,.62,2.11,.95,3.27,.95,2.12,0,4.05-1.07,5.17-2.85,.88-1.38,1.16-3.01,.8-4.6-.36-1.6-1.32-2.96-2.71-3.84-.98-.62-2.11-.94-3.27-.94-.12,0-.25,0-.38,.02-.71-3.16-.92-7.77,.04-11.26,.11,.01,.22,.02,.34,.02,2.12,0,4.05-1.07,5.17-2.85,.88-1.38,1.16-3.01,.8-4.6-.36-1.6-1.32-2.96-2.71-3.84-.98-.62-2.11-.94-3.27-.94-2.11,0-4.05,1.07-5.17,2.85-1.6,2.53-1.12,5.8,1.02,7.76,.02,.02,.05,.04,.07,.06-1.35,4.52-1.15,10.32-.04,14.42-.14,.13-.29,.25-.43,.4-.23,.25-.45,.53-.63,.82-.32,.5-.55,1.03-.71,1.58-3.37,.49-5.2,1.67-6.82,2.73-2.04,1.32-3.96,2.57-9.64,2.67-1.96-.23-3.55-.18-5.29-.12-1.43,.05-2.91,.11-4.85,0-1.33-.07-2.1-.88-3.46-2.42-1.8-2.05-4.22-4.65-9.37-5.02v4c3.29,.3,4.8,1.89,6.36,3.67,1.49,1.69,3.17,3.62,6.26,3.78,2.12,.11,3.76,.05,5.21,0,2.49-.09,4.45-.16,7.86,.68,2.61,.64,12.1,9.67,14.77,14.32-.11,.14-.22,.28-.31,.43-1.74,2.75-1.03,6.38,1.62,8.25,.07,.05,.15,.1,.28,.19,.98,.62,2.11,.95,3.27,.95,2.12,0,4.05-1.07,5.17-2.85,.88-1.37,1.16-3.01,.8-4.6-.36-1.6-1.32-2.96-2.71-3.84-.98-.62-2.11-.94-3.27-.94-.53,0-1.05,.07-1.54,.2-2.56-4.19-8.65-10.46-13.19-13.79,1.81-.63,3.05-1.43,4.21-2.19,1.43-.93,2.61-1.69,4.86-2.07Zm3.88-26.92c.39-.61,1.05-.98,1.78-.98,.4,0,.79,.11,1.12,.33,.48,.3,.81,.78,.94,1.33,.12,.55,.02,1.11-.28,1.58-.6,.95-1.94,1.27-2.91,.65l-.09-.06c-.92-.65-1.16-1.9-.56-2.85Zm0,23.46c.39-.61,1.05-.98,1.78-.98,.4,0,.79,.11,1.12,.33,.48,.3,.81,.77,.94,1.33,.12,.55,.02,1.11-.28,1.58-.6,.95-1.94,1.27-2.91,.65l-.09-.06c-.92-.65-1.16-1.9-.56-2.85Zm0,26.3c.39-.61,1.05-.98,1.78-.98,.4,0,.79,.11,1.12,.33,.48,.3,.81,.78,.94,1.33,.12,.55,.02,1.11-.28,1.58-.6,.95-1.94,1.27-2.91,.65l-.09-.06c-.92-.65-1.16-1.9-.56-2.85Z"/></g></g></g><g><path class="c" d="M64.08,43.3c-.47,.22-1.36,.56-2.62,.83-.13,.01-.26,.04-.39,.08-3.64,.68-10.08,.62-18.77-4.42,.43-1.35,.37-2.79-.17-4.12-.61-1.51-1.78-2.69-3.28-3.33-1.97-.84-4.27-.57-6,.7-.89,.65-1.58,1.53-2.01,2.54-1.31,3.1,.14,6.7,3.23,8.01,1.9,.8,4.11,.58,5.81-.58,5.61,3.32,10.48,4.79,14.48,5.28-1.2,1.29-1.78,2.6-2.25,3.93-.38,1.05-.58,1.57-1.22,2.09-.84,.66-3.1,1.48-5.08,2.07-.97-1.72-2.75-2.95-4.86-3.11-1.45-.12-2.9,.3-4.08,1.16-1.44,1.05-2.34,2.68-2.48,4.46-.13,1.63,.39,3.21,1.45,4.45,1.06,1.24,2.54,1.99,4.17,2.11,1.45,.11,2.9-.3,4.08-1.16h0c1.3-.95,2.16-2.36,2.42-3.93,1.9-.53,4.97-1.51,6.67-2.75,.08-.06,.17-.13,.24-.19,1.53-1.25,2.04-2.69,2.45-3.85,.64-1.78,1.25-3.47,6.35-5.52,1.27-.26,2.41-.93,3.12-1.21v-4l-1.27,.47Zm-25.67-4.52c-.15,.35-.39,.66-.7,.88-.61,.44-1.38,.53-2.07,.24-1.07-.45-1.57-1.7-1.11-2.77,.15-.35,.39-.65,.69-.88,.6-.44,1.38-.54,2.07-.24,.52,.22,.92,.63,1.13,1.15,.21,.52,.21,1.1-.01,1.61Zm3.32,22.27c-.29,.21-.76,.45-1.41,.4-.56-.04-1.07-.3-1.44-.73-.37-.43-.54-.97-.5-1.54,.05-.62,.36-1.18,.86-1.54,.29-.21,.76-.45,1.41-.4,1.16,.09,2.03,1.1,1.94,2.26-.05,.61-.36,1.17-.86,1.54Z"/><path d="M58.89,111.65c-.06-.04-.12-.08-.18-.12,.06,.04,.12,.08,.18,.12Z"/><path class="c" d="M59.31,112.44h-.01c-2.68-2.67-4.55-5.89-5.59-9.59,.19-.11,.37-.23,.54-.37,2.67-2.04,3.2-5.88,1.16-8.56-.7-.92-1.64-1.62-2.72-2.03-1.98-.74-4.16-.42-5.84,.86-2.68,2.04-3.21,5.88-1.16,8.57,.99,1.3,2.5,2.12,4.1,2.33,.69,2.55,1.71,4.91,3.06,7.07-2.63-.15-5.84,.24-9.05,2.05-.47-.36-1-.66-1.56-.87-1.98-.74-4.16-.41-5.83,.86-1.3,.98-2.13,2.41-2.36,4.02-.22,1.62,.2,3.23,1.19,4.54,.7,.92,1.64,1.62,2.72,2.02,1.98,.74,4.16,.41,5.83-.86,2.01-1.53,2.81-4.06,2.22-6.37,4.85-2.59,9.64-1,10.79-.55,2.89,2.79,6.01,4.14,8.55,5.25v-4c-1.92-.99-4.06-2.4-6.04-4.38Zm-17.94,6.86c-.58,.44-1.33,.55-2.01,.29-.37-.14-.7-.38-.94-.7-.34-.45-.49-1.01-.41-1.57,.08-.55,.36-1.04,.81-1.38,.89-.68,2.25-.51,2.95,.41l.07,.09c.63,.92,.43,2.18-.47,2.86Zm7.5-20.41c-.7-.93-.52-2.26,.4-2.96,.58-.44,1.34-.55,2.02-.3,.37,.14,.69,.38,.94,.7,.7,.93,.52,2.26-.4,2.96-.25,.19-.54,.32-.86,.38-.38,.08-.79,.04-1.16-.1-.37-.14-.7-.38-.94-.69Z"/><path d="M58.89,109.25c-.06-.04-.12-.08-.18-.12,.06,.04,.12,.08,.18,.12Z"/><g><path d="M58.89,111.65c-.06-.04-.12-.08-.18-.12,.06,.04,.12,.08,.18,.12Z"/><path class="c" d="M55.95,76.09c-1.35,1.54-2.12,2.35-3.45,2.42-1.93,.1-3.41,.05-4.84,0-1.43-.05-3.98-.82-7.98-2.6-4-1.78-12.07-9.65-14.74-14.29,.11-.14,.22-.28,.31-.43,1.74-2.75,1.02-6.37-1.61-8.23-.07-.05-.15-.11-.28-.19-.98-.62-2.11-.95-3.26-.95-2.11,0-4.04,1.07-5.16,2.84-.87,1.37-1.16,3-.8,4.59,.36,1.6,1.31,2.96,2.7,3.84,.98,.62,2.1,.94,3.26,.94,.53,0,1.04-.07,1.54-.19,2.55,4.18,10.25,12.06,13.16,13.76-1.81,.63-3.04,1.43-4.2,2.18-1.42,.93-2.61,1.69-4.85,2.06-.42-1.03-1.13-1.96-2.1-2.64-.07-.05-.15-.11-.28-.19-.98-.62-2.11-.95-3.26-.95-2.11,0-4.04,1.07-5.16,2.84-.87,1.37-1.16,3-.8,4.59,.36,1.6,1.31,2.96,2.7,3.84,.98,.62,2.1,.94,3.26,.94,.13,0,.25-.02,.37-.03,.71,3.15,.92,7.76-.03,11.25-.11,0-.22-.02-.34-.02-2.11,0-4.04,1.07-5.16,2.84-.87,1.37-1.16,3-.8,4.59,.36,1.6,1.31,2.96,2.7,3.84,.98,.62,2.1,.94,3.26,.94,2.11,0,4.04-1.06,5.16-2.84,1.6-2.53,1.12-5.79-1.02-7.75-.03-.02-.06-.04-.08-.07,1.35-4.51,1.14-10.28,.03-14.37,.15-.13,.3-.26,.44-.41,.23-.26,.45-.53,.63-.82,.32-.5,.55-1.03,.71-1.58,3.37-.49,5.19-1.67,6.81-2.72,1.8-1.17,3.52-2.28,7.84-2.58,2.4,1.04,4.93,1.88,6.91,1.96,1.71,.15,3.08,.11,5.2,0,3.08-.17,4.76-2.08,6.24-3.77,1.56-1.78,3.05-3.48,6.4-3.91v-4c-5.2,.5-7.61,3.22-9.4,5.27ZM20.09,60.02c-.4,0-.79-.11-1.12-.32-.48-.3-.81-.77-.93-1.33-.12-.55-.02-1.1,.28-1.58,.6-.95,1.93-1.27,2.91-.65l.09,.06c.91,.65,1.16,1.89,.56,2.84-.38,.61-1.05,.98-1.78,.98Zm-1.12,25.92c-.48-.3-.81-.77-.93-1.33-.12-.55-.02-1.1,.28-1.58,.6-.95,1.93-1.27,2.91-.65l.09,.06c.91,.65,1.16,1.89,.56,2.84-.38,.61-1.05,.98-1.78,.98-.4,0-.79-.11-1.12-.32Zm2.9,22.76c-.38,.61-1.05,.98-1.78,.98-.4,0-.79-.11-1.12-.32-.48-.3-.81-.77-.93-1.33-.12-.55-.02-1.11,.28-1.58,.6-.95,1.93-1.27,2.91-.65l.09,.06c.91,.65,1.16,1.89,.56,2.84Z"/></g><g><path class="e" d="M64.08,40.3c-.47,.22-1.36,.56-2.62,.83-.13,.01-.26,.04-.39,.08-3.64,.68-10.08,.62-18.77-4.42,.43-1.35,.37-2.79-.17-4.12-.61-1.51-1.78-2.69-3.28-3.33-1.97-.84-4.27-.57-6,.7-.89,.65-1.58,1.53-2.01,2.54-1.31,3.1,.14,6.7,3.23,8.01,1.9,.8,4.11,.58,5.81-.58,5.61,3.32,10.48,4.79,14.48,5.28-1.2,1.29-1.78,2.6-2.25,3.93-.38,1.05-.58,1.57-1.22,2.09-.84,.66-3.1,1.48-5.08,2.07-.97-1.72-2.75-2.95-4.86-3.11-1.45-.12-2.9,.3-4.08,1.16-1.44,1.05-2.34,2.68-2.48,4.46-.13,1.63,.39,3.21,1.45,4.45,1.06,1.24,2.54,1.99,4.17,2.11,1.45,.11,2.9-.3,4.08-1.16h0c1.3-.95,2.16-2.36,2.42-3.93,1.9-.53,4.97-1.51,6.67-2.75,.08-.06,.17-.13,.24-.19,1.53-1.25,2.04-2.69,2.45-3.85,.64-1.78,1.25-3.47,6.35-5.52,1.27-.26,2.41-.93,3.12-1.21v-4l-1.27,.47Zm-25.67-4.52c-.15,.35-.39,.66-.7,.88-.61,.44-1.38,.53-2.07,.24-1.07-.45-1.57-1.7-1.11-2.77,.15-.35,.39-.65,.69-.88,.6-.44,1.38-.54,2.07-.24,.52,.22,.92,.63,1.13,1.15,.21,.52,.21,1.1-.01,1.61Zm3.32,22.27c-.29,.21-.76,.45-1.41,.4-.56-.04-1.07-.3-1.44-.73-.37-.43-.54-.97-.5-1.54,.05-.62,.36-1.18,.86-1.54,.29-.21,.76-.45,1.41-.4,1.16,.09,2.03,1.1,1.94,2.26-.05,.61-.36,1.17-.86,1.54Z"/><path class="e" d="M58.89,109.25c-.06-.04-.12-.08-.18-.12,.06,.04,.12,.08,.18,.12Z"/><path class="e" d="M59.31,109.44h-.01c-2.68-2.67-4.55-5.89-5.59-9.59,.19-.11,.37-.23,.54-.37,2.67-2.04,3.2-5.88,1.16-8.56-.7-.92-1.64-1.62-2.72-2.03-1.98-.74-4.16-.42-5.84,.86-2.68,2.04-3.21,5.88-1.16,8.57,.99,1.3,2.5,2.12,4.1,2.33,.69,2.55,1.71,4.91,3.06,7.07-2.63-.15-5.84,.24-9.05,2.05-.47-.36-1-.66-1.56-.87-1.98-.74-4.16-.41-5.83,.86-1.3,.98-2.13,2.41-2.36,4.02-.22,1.62,.2,3.23,1.19,4.54,.7,.92,1.64,1.62,2.72,2.02,1.98,.74,4.16,.41,5.83-.86,2.01-1.53,2.81-4.06,2.22-6.37,4.85-2.59,9.64-1,10.79-.55,2.89,2.79,6.01,4.14,8.55,5.25v-4c-1.92-.99-4.06-2.4-6.04-4.38Zm-17.94,6.86c-.58,.44-1.33,.55-2.01,.29-.37-.14-.7-.38-.94-.7-.34-.45-.49-1.01-.41-1.57,.08-.55,.36-1.04,.81-1.38,.89-.68,2.25-.51,2.95,.41l.07,.09c.63,.92,.43,2.18-.47,2.86Zm7.5-20.41c-.7-.93-.52-2.26,.4-2.96,.58-.44,1.34-.55,2.02-.3,.37,.14,.69,.38,.94,.7,.7,.93,.52,2.26-.4,2.96-.25,.19-.54,.32-.86,.38-.38,.08-.79,.04-1.16-.1-.37-.14-.7-.38-.94-.69Z"/><path class="e" d="M55.95,73.1c-1.35,1.54-2.12,2.35-3.45,2.42-1.93,.1-3.41,.05-4.84,0-1.43-.05-3.98-.82-7.98-2.6-4-1.78-12.07-9.65-14.74-14.29,.11-.14,.22-.28,.31-.43,1.74-2.75,1.02-6.37-1.61-8.23-.07-.05-.15-.11-.28-.19-.98-.62-2.11-.95-3.26-.95-2.11,0-4.04,1.07-5.16,2.84-.87,1.37-1.16,3-.8,4.59,.36,1.6,1.31,2.96,2.7,3.84,.98,.62,2.1,.94,3.26,.94,.53,0,1.04-.07,1.54-.19,2.55,4.18,10.25,12.06,13.16,13.76-1.81,.63-3.04,1.43-4.2,2.18-1.42,.93-2.61,1.69-4.85,2.06-.42-1.03-1.13-1.96-2.1-2.64-.07-.05-.15-.11-.28-.19-.98-.62-2.11-.95-3.26-.95-2.11,0-4.04,1.07-5.16,2.84-.87,1.37-1.16,3-.8,4.59,.36,1.6,1.31,2.96,2.7,3.84,.98,.62,2.1,.94,3.26,.94,.13,0,.25-.02,.37-.03,.71,3.15,.92,7.76-.03,11.25-.11,0-.22-.02-.34-.02-2.11,0-4.04,1.07-5.16,2.84-.87,1.37-1.16,3-.8,4.59,.36,1.6,1.31,2.96,2.7,3.84,.98,.62,2.1,.94,3.26,.94,2.11,0,4.04-1.06,5.16-2.84,1.6-2.53,1.12-5.79-1.02-7.75-.03-.02-.06-.04-.08-.07,1.35-4.51,1.14-10.28,.03-14.37,.15-.13,.3-.26,.44-.41,.23-.26,.45-.53,.63-.82,.32-.5,.55-1.03,.71-1.58,3.37-.49,5.19-1.67,6.81-2.72,1.8-1.17,3.52-2.28,7.84-2.58,2.4,1.04,4.93,1.88,6.91,1.96,1.71,.15,3.08,.11,5.2,0,3.08-.16,4.76-2.08,6.24-3.77,1.56-1.78,3.05-3.46,6.4-3.89v-4.02c-5.2,.5-7.61,3.22-9.4,5.27ZM20.09,57.04c-.4,0-.79-.11-1.12-.32-.48-.3-.81-.77-.93-1.33-.12-.55-.02-1.1,.28-1.58,.6-.95,1.93-1.27,2.91-.65l.09,.06c.91,.65,1.16,1.89,.56,2.84-.38,.61-1.05,.98-1.78,.98Zm-1.12,25.92c-.48-.3-.81-.77-.93-1.33-.12-.55-.02-1.1,.28-1.58,.6-.95,1.93-1.27,2.91-.65l.09,.06c.91,.65,1.16,1.89,.56,2.84-.38,.61-1.05,.98-1.78,.98-.4,0-.79-.11-1.12-.32Zm2.9,22.76c-.38,.61-1.05,.98-1.78,.98-.4,0-.79-.11-1.12-.32-.48-.3-.81-.77-.93-1.33-.12-.55-.02-1.11,.28-1.58,.6-.95,1.93-1.27,2.91-.65l.09,.06c.91,.65,1.16,1.89,.56,2.84Z"/></g></g></g></g></g></g></svg>