<?xml version="1.0" encoding="UTF-8"?><svg xmlns="http://www.w3.org/2000/svg" xmlns:xlink="http://www.w3.org/1999/xlink" viewBox="0 0 384 150"><defs><style>.bu{filter:url(#j);}.bv{filter:url(#au);}.bw{filter:url(#ab);}.bx{mix-blend-mode:multiply;opacity:.07;}.by{isolation:isolate;}.c`,.ca,.cb,.cc,.cd,.ce{fill:#fffedb;}.ca,.cb,.cc,.cf,.cd,.ce{stroke-width:1.5px;}.ca,.cb,.cc,.cd,.ce{stroke:#fffedb;}.cg{filter:url(#bc);}.ch{filter:url(#c);}.cb{stroke-linecap:square;stroke-linejoin:round;}.ci{fill:#b50437;}.cj{filter:url(#x);}.ck{filter:url(#aj);}.cl{filter:url(#aq);}.cc{filter:url(#an);}.cm{filter:url(#m);}.cn{clip-path:url(#b);}.co{filter:url(#t);}.cp{filter:url(#bj);}.cq{filter:url(#p);}.cf{fill:#8e0324;stroke:#8e0324;}.cr{filter:url(#af);}.cs{filter:url(#ay);}.ct{fill:none;}.cu{fill:#d3562c;}.cd{filter:url(#bg);}.ce{filter:url(#br);}.cv{fill:#eb743b;}.cw{filter:url(#bn);}</style><clipPath id="b"><polygon class="ct" points="9 108.94 9 40.73 65 8.52 65 141.02 9 108.94"/></clipPath><filter id="c" filterUnits="userSpaceOnUse"><feOffset dx="0" dy="3"/><feGaussianBlur result="d" stdDeviation="0"/><feFlood flood-color="#8e0324" flood-opacity="1"/><feComposite in2="d" operator="in"/><feComposite in="SourceGraphic"/></filter><filter id="j" filterUnits="userSpaceOnUse"><feOffset dx="0" dy="3"/><feGaussianBlur result="k" stdDeviation="0"/><feFlood flood-color="#8e0324" flood-opacity="1"/><feComposite in2="k" operator="in"/><feComposite in="SourceGraphic"/></filter><filter id="m" filterUnits="userSpaceOnUse"><feOffset dx="0" dy="3"/><feGaussianBlur result="n" stdDeviation="0"/><feFlood flood-color="#8e0324" flood-opacity="1"/><feComposite in2="n" operator="in"/><feComposite in="SourceGraphic"/></filter><filter id="p" filterUnits="userSpaceOnUse"><feOffset dx="0" dy="3"/><feGaussianBlur result="q" stdDeviation="0"/><feFlood flood-color="#8e0324" flood-opacity="1"/><feComposite in2="q" operator="in"/><feComposite in="SourceGraphic"/></filter><filter id="t" filterUnits="userSpaceOnUse"><feOffset dx="0" dy="3"/><feGaussianBlur result="u" stdDeviation="0"/><feFlood flood-color="#8e0324" flood-opacity="1"/><feComposite in2="u" operator="in"/><feComposite in="SourceGraphic"/></filter><filter id="x" filterUnits="userSpaceOnUse"><feOffset dx="0" dy="3"/><feGaussianBlur result="y" stdDeviation="0"/><feFlood flood-color="#8e0324" flood-opacity="1"/><feComposite in2="y" operator="in"/><feComposite in="SourceGraphic"/></filter><filter id="ab" filterUnits="userSpaceOnUse"><feOffset dx="0" dy="3"/><feGaussianBlur result="ac" stdDeviation="0"/><feFlood flood-color="#8e0324" flood-opacity="1"/><feComposite in2="ac" operator="in"/><feComposite in="SourceGraphic"/></filter><filter id="af" filterUnits="userSpaceOnUse"><feOffset dx="0" dy="3"/><feGaussianBlur result="ag" stdDeviation="0"/><feFlood flood-color="#8e0324" flood-opacity="1"/><feComposite in2="ag" operator="in"/><feComposite in="SourceGraphic"/></filter><filter id="aj" filterUnits="userSpaceOnUse"><feOffset dx="0" dy="3"/><feGaussianBlur result="ak" stdDeviation="0"/><feFlood flood-color="#8e0324" flood-opacity="1"/><feComposite in2="ak" operator="in"/><feComposite in="SourceGraphic"/></filter><filter id="an" filterUnits="userSpaceOnUse"><feOffset dx="0" dy="3"/><feGaussianBlur result="ao" stdDeviation="0"/><feFlood flood-color="#8e0324" flood-opacity="1"/><feComposite in2="ao" operator="in"/><feComposite in="SourceGraphic"/></filter><filter id="aq" filterUnits="userSpaceOnUse"><feOffset dx="0" dy="3"/><feGaussianBlur result="ar" stdDeviation="0"/><feFlood flood-color="#8e0324" flood-opacity="1"/><feComposite in2="ar" operator="in"/><feComposite in="SourceGraphic"/></filter><filter id="au" filterUnits="userSpaceOnUse"><feOffset dx="0" dy="3"/><feGaussianBlur result="av" stdDeviation="0"/><feFlood flood-color="#8e0324" flood-opacity="1"/><feComposite in2="av" operator="in"/><feComposite in="SourceGraphic"/></filter><filter id="ay" filterUnits="userSpaceOnUse"><feOffset dx="0" dy="3"/><feGaussianBlur result="b`" stdDeviation="0"/><feFlood flood-color="#8e0324" flood-opacity="1"/><feComposite in2="b`" operator="in"/><feComposite in="SourceGraphic"/></filter><filter id="bc" filterUnits="userSpaceOnUse"><feOffset dx="0" dy="3"/><feGaussianBlur result="bd" stdDeviation="0"/><feFlood flood-color="#8e0324" flood-opacity="1"/><feComposite in2="bd" operator="in"/><feComposite in="SourceGraphic"/></filter><filter id="bg" filterUnits="userSpaceOnUse"><feOffset dx="0" dy="3"/><feGaussianBlur result="bh" stdDeviation="0"/><feFlood flood-color="#8e0324" flood-opacity="1"/><feComposite in2="bh" operator="in"/><feComposite in="SourceGraphic"/></filter><filter id="bj" filterUnits="userSpaceOnUse"><feOffset dx="0" dy="3"/><feGaussianBlur result="bk" stdDeviation="0"/><feFlood flood-color="#8e0324" flood-opacity="1"/><feComposite in2="bk" operator="in"/><feComposite in="SourceGraphic"/></filter><filter id="bn" filterUnits="userSpaceOnUse"><feOffset dx="0" dy="3"/><feGaussianBlur result="bo" stdDeviation="0"/><feFlood flood-color="#8e0324" flood-opacity="1"/><feComposite in2="bo" operator="in"/><feComposite in="SourceGraphic"/></filter><filter id="br" filterUnits="userSpaceOnUse"><feOffset dx="0" dy="3"/><feGaussianBlur result="bs" stdDeviation="0"/><feFlood flood-color="#8e0324" flood-opacity="1"/><feComposite in2="bs" operator="in"/><feComposite in="SourceGraphic"/></filter></defs><g class="by"><g id="a"><g><g><polygon class="cv" points="70 2.83 70 146.83 131 111.83 131 37.83 70 2.83"/><polygon class="ci" points="65 2.83 4 37.83 4 111.83 65 146.83 65 2.83"/><g class="cn"><g><g id="e" class="ch"><polyline id="f" class="ca" points="3.09 42.37 2.17 43.07 1.35 43.89 .65 44.81 .07 45.82 -.36 46.89 -.64 48.02 -.77 49.17 -.74 50.33 -.56 51.47 -.22 52.58 .26 53.63 .88 54.61 1.63 55.5 2.49 56.28 3.44 56.93 4.48 57.45 5.58 57.83 6.71 58.05 7.87 58.12 9.02 58.04 10.16 57.8 11.25 57.41 12.28 56.87 13.22 56.2 14.07 55.41 14.81 54.52 15.41 53.53 15.88 52.47 16.19 50.81 16.55 49.52 19.13 50.23 18.77 51.52 18.46 53.18 17.87 54.58 17.1 55.89 16.16 57.09 15.07 58.14 13.85 59.04 12.51 59.77 11.09 60.31 9.61 60.65 8.1 60.79 6.58 60.73 5.08 60.46 3.64 59.99 2.27 59.34 1 58.5 -.15 57.5 -1.15 56.36 -1.99 55.09 -2.64 53.72 -3.11 52.27 -3.38 50.78 -3.44 49.26 -3.3 47.75 -2.96 46.27 -2.42 44.85 -1.7 43.51 -.8 42.28 .26 41.19 1.45 40.25"/></g><g id="g"><polyline id="h" class="cf" points="16.19 58.1 17.21 56.97 18.07 55.72 18.76 54.36 19.25 52.92 19.55 51.43 19.64 49.92 19.53 48.4 19.22 46.91 18.71 45.48 18.01 44.13 17.13 42.89 16.1 41.78 14.92 40.82 13.63 40.02 12.24 39.4 10.78 38.98 9.27 38.76 -9.47 38.4 -10.81 38.37 -10.86 41.05 -9.52 41.07 9.22 41.44 10.37 41.63 11.47 41.97 12.52 42.46 13.5 43.09 14.38 43.84 15.15 44.7 15.8 45.66 16.32 46.7 16.69 47.8 16.91 48.93 16.97 50.09 16.88 51.25 16.63 52.38 16.23 53.47 15.69 54.49 15.02 55.44 14.22 56.28"/><polyline id="i" class="ca" points="16.19 55.1 17.21 53.97 18.07 52.72 18.76 51.36 19.25 49.92 19.55 48.43 19.64 46.92 19.53 45.4 19.22 43.91 18.71 42.48 18.01 41.13 17.13 39.89 16.1 38.78 14.92 37.82 13.63 37.02 12.24 36.4 10.78 35.98 9.27 35.76 -9.47 35.4 -10.81 35.37 -10.86 38.05 -9.52 38.07 9.22 38.44 10.37 38.63 11.47 38.97 12.52 39.46 13.5 40.09 14.38 40.84 15.15 41.7 15.8 42.66 16.32 43.7 16.69 44.8 16.91 45.93 16.97 47.09 16.88 48.25 16.63 49.38 16.23 50.47 15.69 51.49 15.02 52.44 14.22 53.28"/></g><g><g class="bu"><polyline id="l" class="c`" points="45.37 74.81 45.57 74.65 45.79 74.5 46.02 74.35 46.26 74.2 47.51 73.48 47.8 73.32 48.11 73.17 48.44 73.03 48.81 72.88 49.1 72.78 49.31 72.71 49.41 72.67 49.51 72.64 49.62 72.61 49.73 72.58 49.85 72.55 49.97 72.51 50.1 72.48 52.06 72.04 52.23 72.01 52.41 71.97 52.6 71.94 52.79 71.91 53 71.89 53.21 71.86 53.44 71.85 53.67 71.83 53.91 71.83 69.38 71.82 70 71.82 70 67.83 69.38 67.83 53.91 67.84 53.56 67.85 53.23 67.87 52.91 67.89 52.6 67.92 52.31 67.96 52.03 68 51.76 68.04 51.5 68.09 51.25 68.14 49.23 68.6 49.04 68.64 48.87 68.69 48.7 68.73 48.54 68.78 48.38 68.82 48.23 68.87 48.09 68.91 47.84 69 47.47 69.13 46.99 69.32 46.52 69.52 46.07 69.74 45.65 69.96 44.28 70.74 43.93 70.96 43.6 71.17 43.28 71.39 42.99 71.61"/></g><g class="cm"><polyline id="o" class="c`" points="42.3 78.22 42.34 78.15 42.37 78.08 42.42 78 42.46 77.93 42.51 77.85 42.56 77.76 42.61 77.68 42.67 77.59 42.73 77.5 42.79 77.4 42.85 77.3 42.93 77.2 43 77.1 43.08 76.99 43.16 76.88 43.25 76.76 43.35 76.65 43.45 76.53 43.56 76.4 43.67 76.28 43.79 76.15 43.92 76.01 44.06 75.88 44.2 75.74 44.36 75.6 44.52 75.46 44.7 75.31 44.88 75.17 45.12 74.99 45.37 74.81 42.99 71.61 42.75 71.79 42.51 71.97 42.24 72.18 41.99 72.38 41.75 72.59 41.53 72.79 41.32 72.98 41.12 73.18 40.94 73.37 40.77 73.55 40.6 73.73 40.45 73.91 40.3 74.08 40.16 74.25 40.04 74.41 39.91 74.57 39.8 74.73 39.69 74.88 39.59 75.02 39.49 75.16 39.4 75.3 39.32 75.43 39.24 75.56 39.16 75.68 39.09 75.8 39.02 75.91 38.96 76.02 38.9 76.13 38.84 76.24 38.79 76.33"/></g></g><g id="r" class="cq"><polyline id="s" class="ca" points="-31.66 50.33 27.15 82.55 28.57 83.09 30.05 83.44 31.56 83.58 33.08 83.52 34.58 83.26 36.03 82.79 37.4 82.14 38.67 81.3 39.82 80.31 40.82 79.16 41.66 77.9 39.25 76.71 38.6 77.67 37.82 78.52 36.93 79.27 35.95 79.89 34.89 80.37 33.78 80.7 32.64 80.88 31.48 80.9 30.33 80.77 29.2 80.49 28.13 80.05 -30.36 47.99"/></g><g id="v" class="co"><path id="w" class="ca" d="M3.27,96.83l.94,5.46,.47,1.45,.66,1.37,.84,1.27,1,1.15,1.14,1,1.27,.84,1.37,.66,1.45,.47,1.5,.27,1.52,.07,1.51-.14,1.48-.34,1.42-.54,1.34-.73c4.4-2.17,2.53-4.48,8.74-4.45l-.16-2.9c-5.31-.76-7.11,3.68-10.15,5.18l-1.03,.53-1.09,.39-1.13,.24-1.16,.09-1.16-.07-1.14-.23-1.1-.38-1.04-.52-.96-.66-.86-.78-.75-.89-.62-.98-.48-1.05-.34-1.11-3.93-12.15"/></g><g id="a`" class="cj"><polyline id="aa" class="ca" points="29.75 101.71 31.17 102.25 32.5 102.98 33.73 103.88 34.82 104.93 35.76 106.13 36.54 107.43 37.12 108.84 37.52 110.3 37.71 111.81 37.7 113.33 37.49 114.83 37.07 116.3 36.46 117.69 35.67 118.99 34.71 120.16 33.6 121.2 32.36 122.08 31.01 122.79 29.59 123.31 28.1 123.63 26.58 123.74 8.04 122.81 6.88 122.89 5.75 123.14 4.66 123.53 3.63 124.06 2.69 124.73 -4.24 131.31 -5.48 132.19 -6.83 132.9 -8.26 133.41 -9.74 133.74 -11.26 133.85 -12.78 133.76 -14.27 133.47 -15.71 132.98 -17.07 132.31 -18.32 131.45 -19.45 130.43 -20.43 129.27 -21.25 127.99 -21.89 126.61 -22.33 125.16 -19.69 124.7 -19.33 125.81 -18.83 126.85 -18.18 127.82 -17.42 128.69 -16.54 129.45 -15.57 130.08 -14.53 130.58 -13.42 130.93 -12.28 131.13 -11.12 131.18 -9.97 131.07 -8.84 130.8 -7.76 130.39 -6.74 129.83 -5.81 129.14 .84 122.79 2.06 121.89 3.4 121.17 4.82 120.63 6.3 120.28 7.81 120.14 26.72 121.07 27.87 120.96 29 120.69 30.08 120.28 31.1 119.72 32.03 119.03 32.86 118.22 33.58 117.31 34.16 116.31 34.61 115.24 34.9 114.12 35.05 112.97 35.03 111.81 34.87 110.67 34.54 109.55 34.08 108.49 33.47 107.5 32.73 106.61 31.88 105.82 30.94 105.15 29.91 104.62 28.82 104.23"/></g><g id="ad" class="bw"><polyline id="ae" class="ca" points="-4.88 93.74 13 84.2 14.23 83.3 15.32 82.25 16.26 81.05 17.03 79.75 17.62 78.34 18.02 76.88 18.21 75.37 18.2 73.85 17.98 72.35 17.57 70.88 16.96 69.49 16.17 68.19 15.21 67.02 14.1 65.98 3.38 58.25 2.53 57.46 .44 59.13 1.53 60.19 12.53 68.15 13.36 68.96 14.07 69.87 14.66 70.87 15.1 71.94 15.4 73.06 15.54 74.21 15.53 75.37 15.36 76.51 15.04 77.63 14.57 78.69 13.97 79.68 13.23 80.57 12.38 81.36 11.43 82.03 -6.14 91.38"/></g><g id="ah" class="cr"><polyline id="ai" class="ca" points="46.86 136.62 38.81 118.02 38.01 116.72 37.05 115.55 35.94 114.51 34.7 113.63 33.35 112.93 31.92 112.42 30.43 112.1 28.92 111.99 27.4 112.08 25.91 112.38 24.47 112.87 23.11 113.55 21.86 114.41 20.73 115.43 12.16 125.48 11.3 126.26 12.8 128.48 13.94 127.48 22.77 117.17 23.64 116.41 24.61 115.78 25.66 115.27 26.76 114.92 27.9 114.71 29.06 114.66 30.21 114.77 31.34 115.03 32.42 115.45 33.44 116 34.38 116.69 35.21 117.49 35.93 118.4 36.51 119.4 44.4 137.68"/></g><g id="al" class="ck"><polyline id="am" class="ca" points="-12.17 81.39 -11.03 81.2 -9.87 81.18 -8.72 81.3 36.45 93.13 37.53 93.56 38.54 94.13 39.46 94.84 40.28 95.66 40.98 96.58 41.55 97.59 41.98 98.66 49.39 129.75 49.52 130.91 49.49 132.06 49.3 133.21 48.97 134.32 48.48 135.37 47.86 136.35 47.11 137.23 46.25 138.01 45.29 138.66 44.26 139.18 43.16 139.56 42.02 139.78 40.87 139.85 39.71 139.76 38.58 139.52 37.49 139.12 36.46 138.59 35.52 137.92 33.67 139.86 34.89 140.76 36.22 141.49 37.64 142.03 39.12 142.37 40.64 142.52 42.15 142.46 43.65 142.19 45.1 141.73 46.47 141.07 47.74 140.24 48.89 139.24 49.89 138.1 50.73 136.83 51.39 135.46 51.86 134.02 52.13 132.52 52.2 131 52.06 129.49 44.58 98.04 44.05 96.62 43.32 95.29 42.43 94.06 41.37 92.96 40.18 92.02 38.87 91.25 37.47 90.66 -8.04 78.71 -9.55 78.52 -11.07 78.53 -12.57 78.74"/></g><polygon id="ap" class="cc" points="16.77 56.91 29.65 59.82 30.74 60.21 31.77 60.75 32.71 61.42 33.56 62.21 34.29 63.11 34.9 64.1 35.36 65.16 35.68 66.28 35.84 67.42 35.85 68.58 35.7 69.73 35.4 70.85 34.95 71.92 34.37 72.92 33.65 73.83 32.81 74.63 31.88 75.32 30.86 75.87 29.78 76.28 28.65 76.54 28.87 79.21 30.35 78.9 31.78 78.39 33.13 77.69 34.38 76.81 35.49 75.77 36.45 74.6 37.25 73.3 37.86 71.91 38.28 70.45 38.5 68.95 38.52 67.43 38.33 65.92 37.94 64.45 37.36 63.05 36.59 61.74 35.66 60.54 34.57 59.48 33.34 58.58 32.01 57.85 30.59 57.31 17.36 54.3 16.24 53.98 15.18 53.51 14.19 52.9 13.3 52.17 12.51 51.32 11.84 50.38 11.3 49.35 10.91 48.26 10.66 47.13 10.57 45.97 10.64 44.82 10.87 43.68 11.24 42.58 11.76 41.55 12.41 40.59 13.19 39.73 14.08 38.98 15.06 38.36 16.11 37.88 17.22 37.54 18.36 37.35 19.52 37.32 20.67 37.45 21.8 37.73 22.87 38.16 23.88 38.73 24.8 39.43 25.62 40.25 26.33 41.17 28.67 39.88 27.77 38.65 26.72 37.56 25.52 36.61 24.22 35.84 22.81 35.25 21.35 34.86 19.84 34.66 18.32 34.67 16.82 34.89 15.35 35.31 13.96 35.91 12.66 36.71 11.49 37.66 10.45 38.77 9.57 40.01 8.86 41.36 8.34 42.79 8.02 44.27 7.9 45.79 7.99 47.3 8.28 48.8 8.77 50.23 9.45 51.59 10.3 52.85 11.32 53.98 12.48 54.96 13.76 55.78 15.14 56.42 16.59 56.86 16.77 56.91"/><g id="as" class="cl"><path id="at" class="ca" d="M54.61,38.81l-.42-1.46-.62-1.39-.8-1.29-5.65-7.14-1.11-1.03-1.24-.87-1.35-.7-1.43-.51-1.49-.31-1.52-.11-1.52,.09-1.49,.3-1.44,.5-1.36,.69-1.25,.86-1.12,1.02-.98,1.16-2.06,3.24-.74,.89-.86,.78-.95,.66-1.03,.53-1.09,.38-1.14,.23-1.16,.08-1.16-.08s-1.92-.55-3.59-2.85-4.56-2.59-2.25,1.42,5.27,4.05,5.27,4.05l1.51,.13,1.52-.07,1.49-.27,1.44-.47,1.37-.66,1.27-.84,1.14-1,1-1.15,2.28-3.53,.76-.87,.87-.76,.97-.64,1.04-.5,1.1-.36,1.14-.21,1.16-.05,1.15,.11,1.13,.26,1.08,.41,1.02,.55,.94,.68,.83,.8,5.4,6.88,.59,1,.45,1.07,.3,1.12"/></g><g><g id="aw" class="bv"><polyline id="ax" class="ca" points="28.48 55.78 37.17 34.74 48.27 5.33 45.8 4.31 34.69 33.71 26 54.76"/></g><g id="ba" class="cs"><polyline id="bb" class="ca" points="31.14 100.34 32.56 99.78 33.88 99.04 35.09 98.12 36.17 97.05 37.1 95.85 37.85 94.53 38.42 93.12 38.79 91.65 38.96 90.14 38.93 88.62 38.69 87.12 38.26 85.66 37.63 84.28 36.82 82.99 35.84 81.83 34.72 80.8 33.47 79.94 27.67 76.96 26.72 76.31 25.86 75.53 25.11 74.64 24.49 73.66 24.01 72.61 23.67 71.5 23.49 70.35 23.46 69.2 23.59 68.04 23.87 66.92 27.97 57.02 28.48 55.78 26 54.76 25.49 55.99 21.4 65.9 21 67.36 20.8 68.87 20.81 70.39 21.03 71.89 21.44 73.36 22.05 74.75 22.83 76.05 23.79 77.23 24.9 78.27 26.14 79.15 32.24 82.32 33.18 83 34.02 83.79 34.75 84.69 35.35 85.69 35.81 86.75 36.12 87.87 36.28 89.01 36.29 90.17 36.13 91.32 35.83 92.44 35.37 93.51 34.78 94.5 34.06 95.41 33.22 96.21 32.28 96.89 31.26 97.44 30.18 97.84"/></g></g><g id="be" class="cg"><path id="bf" class="cb" d="M-7.06,59.54l.93,26.95,.27,1.5,.47,1.45,.66,1.37,.84,1.27,1,1.14,1.14,1,1.27,.84,1.37,.66,1.45,.47,25.19,4.72s2.18,.18,3.63-.56l-.96-2.5c-.9,.46-2.53,.39-2.53,.39l-24.83-4.68-1.1-.38-1.04-.52-.96-.66-.86-.78-.75-.89-.62-.98-.48-1.05-.34-1.11-.18-1.14-.89-26.59"/></g><polyline id="bi" class="cd" points="16.84 92.74 18.29 92.3 19.68 91.67 20.96 90.85 22.12 89.88 23.15 88.75 24.01 87.5 24.69 86.14 25.19 84.71 27.86 71.77 28.23 70.67 28.75 69.63 29.41 68.68 41.33 55.74 42.19 54.49 42.87 53.13 43.37 51.69 43.66 50.2 43.76 48.69 43.64 47.17 43.33 45.68 42.82 44.25 42.12 42.9 41.24 41.66 40.21 40.55 39.03 39.58 37.74 38.79 36.35 38.17 34.89 37.75 33.39 37.53 31.87 37.51 30.36 37.7 28.89 38.09 29.9 40.57 31.02 40.29 32.17 40.17 33.33 40.21 34.48 40.4 35.58 40.74 36.63 41.23 37.61 41.85 38.49 42.61 39.27 43.47 39.92 44.43 40.43 45.47 40.8 46.57 41.02 47.7 41.08 48.86 40.99 50.02 40.74 51.15 40.34 52.24 39.8 53.26 39.13 54.2 27.44 66.86 26.56 68.1 25.85 69.45 25.33 70.87 22.56 84.16 22.16 85.25 21.62 86.27 20.95 87.22 20.16 88.06 19.25 88.79 18.26 89.39 17.2 89.85 16.08 90.17"/><g id="bl" class="cp"><polyline id="bm" class="ca" points="52 39.43 52.29 40.55 52.41 41.71 52.38 42.86 52.2 44.01 51.86 45.12 51.38 46.17 50.76 47.15 50.01 48.04 49.15 48.81 48.2 49.47 47.16 49.99 46.07 50.36 44.93 50.59 43.77 50.66 42.62 50.57 41.48 50.33 40.39 49.94 38.42 48.74 38.42 48.74 29.43 40.76 27.08 41.91 36.57 50.68 37.8 51.58 39.13 52.3 40.55 52.84 42.03 53.19 43.54 53.33 45.06 53.27 46.56 53 48.01 52.53 49.38 51.87 50.65 51.04 51.79 50.04 52.79 48.9 53.63 47.63 54.29 46.26 54.76 44.81 55.02 43.32 55.09 41.8 54.95 40.29 54.61 38.81"/></g><g id="bp" class="cw"><polyline id="bq" class="ca" points="2.53 102.3 8.78 96.1 9.67 95.35 10.65 94.73 11.7 94.25 15.55 93.11 16.84 92.74 16.08 90.17 14.8 90.54 10.94 91.67 9.55 92.28 8.25 93.08 7.08 94.03 .57 100.48"/></g><path id="bt" class="ce" d="M31.87,37.51l-1.51,.19-1.47,.39-12.41,5.04-1.24,.5-13.2,5.42,.66,2.59,13.54-5.54,1.24-.5,12.41-5.04,1.13-.28,1.15-.12s1.89-.02,2.73,.36"/></g></g><g><g class="bx"><path d="M87.3,94.57c.39-.64,1.07-1.03,1.82-1.03,.38,0,.75,.1,1.08,.3,1,.6,1.33,1.9,.74,2.9-.38,.65-1.06,1.03-1.82,1.03-.38,0-.75-.1-1.08-.3-.48-.29-.83-.75-.96-1.29-.14-.55-.06-1.12,.23-1.6Zm12.6,22.36c-.49,.42-1.02,.51-1.37,.51-.62,0-1.21-.27-1.61-.73-.76-.88-.65-2.22,.23-2.98,.49-.42,1.02-.51,1.37-.51,.62,0,1.2,.27,1.61,.74,.37,.43,.55,.98,.5,1.54-.04,.56-.3,1.07-.73,1.44Z"/><path d="M79,48.44c.07,.02,.14,.03,.21,.05-.07-.01-.14-.03-.21-.05Z"/><path d="M90.38,58.09c.17-.27,.39-.49,.67-.66,.33-.21,.72-.32,1.12-.32s.79,.11,1.12,.32c.99,.63,1.28,1.94,.66,2.92-.39,.62-1.06,.99-1.79,.99-.4,0-.79-.11-1.12-.33-.98-.62-1.28-1.94-.66-2.92Zm6.38-20.19c-.6,.95-1.94,1.27-2.91,.65l-.1-.06c-.91-.65-1.16-1.9-.56-2.85,.39-.61,1.05-.98,1.78-.98,.4,0,.79,.11,1.12,.33,.48,.3,.81,.78,.94,1.33,.12,.55,.03,1.11-.28,1.58Z"/><path d="M113.53,49.5c.39-.61,1.05-.98,1.78-.98,.4,0,.79,.11,1.12,.33,.48,.3,.81,.78,.94,1.33,.12,.55,.02,1.11-.28,1.58-.6,.95-1.94,1.27-2.91,.65l-.09-.06c-.92-.65-1.16-1.9-.56-2.85Zm0,23.46c.39-.61,1.05-.98,1.78-.98,.4,0,.79,.11,1.12,.33,.48,.3,.81,.77,.94,1.33,.12,.55,.02,1.11-.28,1.58-.6,.95-1.94,1.27-2.91,.65l-.09-.06c-.92-.65-1.16-1.9-.56-2.85Zm0,26.3c.39-.61,1.05-.98,1.78-.98,.4,0,.79,.11,1.12,.33,.48,.3,.81,.78,.94,1.33,.12,.55,.02,1.11-.28,1.58-.6,.95-1.94,1.27-2.91,.65l-.09-.06c-.92-.65-1.16-1.9-.56-2.85Z"/><path d="M103.18,108.94c-1.17-1.36-2.86-2.14-4.65-2.14-1.46,0-2.88,.53-3.98,1.48-1.61,1.38-2.33,3.43-2.09,5.4-1.95,.7-4.26,1.37-5.33,1.33-.82-.04-1.3-.35-2.22-.97-1.17-.79-2.42-1.51-4.15-1.85,2.94-2.76,6.01-6.83,8.58-12.83,2.06-.08,3.98-1.19,5.04-2.97,1.72-2.9,.77-6.66-2.12-8.39-.95-.57-2.03-.86-3.13-.86-2.15,0-4.16,1.14-5.26,2.99-.84,1.41-1.08,3.05-.68,4.64,.35,1.39,1.16,2.59,2.3,3.43-4.05,9.22-9.22,13.08-12.57,14.68-.13,.04-.25,.1-.36,.17-1.19,.53-2.05,.7-2.56,.81v4c.28-.03,1.88-.12,4.25-1.19,5.35-1.36,6.84-.35,8.41,.71,1.02,.69,2.29,1.55,4.26,1.66,.1,0,.2,0,.31,0,2.11,0,5.17-1.02,7.02-1.72,1.14,1.12,2.68,1.75,4.29,1.75h0c1.46,0,2.88-.52,3.98-1.48,1.24-1.06,1.99-2.55,2.12-4.18,.12-1.63-.39-3.21-1.46-4.45Zm-15.87-16.78c.39-.64,1.07-1.03,1.82-1.03,.38,0,.75,.1,1.08,.3,1,.6,1.33,1.9,.74,2.9-.38,.65-1.06,1.03-1.82,1.03-.38,0-.75-.1-1.08-.3-.48-.29-.83-.75-.96-1.29-.14-.55-.06-1.12,.23-1.6Zm12.6,22.36c-.49,.42-1.02,.51-1.37,.51-.62,0-1.21-.27-1.61-.73-.76-.88-.65-2.22,.23-2.98,.49-.42,1.02-.51,1.37-.51,.62,0,1.2,.27,1.61,.74,.37,.43,.55,.98,.5,1.54-.04,.56-.3,1.07-.73,1.44Z"/><path d="M79,46.04c.07,.02,.14,.03,.21,.05-.07-.01-.14-.03-.21-.05Z"/><path d="M100.95,33.04c-.36-1.6-1.32-2.96-2.71-3.84-.98-.62-2.11-.94-3.26-.94-2.12,0-4.05,1.07-5.17,2.85-1.35,2.14-1.22,4.8,.14,6.76-3.65,4.12-8.71,4.31-9.94,4.29-3.69-1.6-7.23-2.16-10-2.32v4c2.44,.14,5.55,.69,8.75,2.14h.01c3.45,1.57,6.33,3.93,8.61,7.05-.14,.17-.26,.35-.38,.54-1.8,2.85-.94,6.64,1.9,8.44,.98,.62,2.11,.95,3.27,.95,2.11,0,4.05-1.07,5.18-2.85,1.81-2.85,.95-6.64-1.91-8.45-1.38-.87-3.09-1.11-4.67-.75-1.54-2.15-3.32-4.02-5.34-5.57,2.52-.78,5.4-2.27,7.78-5.1,.57,.17,1.17,.27,1.77,.27,2.12,0,4.05-1.07,5.17-2.85,.88-1.38,1.16-3.01,.8-4.6Zm-10.57,22.65c.17-.27,.39-.49,.67-.66,.33-.21,.72-.32,1.12-.32s.79,.11,1.12,.32c.99,.63,1.28,1.94,.66,2.92-.39,.62-1.06,.99-1.79,.99-.4,0-.79-.11-1.12-.33-.98-.62-1.28-1.94-.66-2.92Zm6.38-20.19c-.6,.95-1.94,1.27-2.91,.65l-.1-.06c-.91-.65-1.16-1.9-.56-2.85,.39-.61,1.05-.98,1.78-.98,.4,0,.79,.11,1.12,.33,.48,.3,.81,.78,.94,1.33,.12,.55,.03,1.11-.28,1.58Z"/><path d="M109.65,74.02c.42,1.04,1.14,1.96,2.11,2.65,.07,.05,.15,.11,.28,.19,.98,.62,2.11,.95,3.27,.95,2.12,0,4.05-1.07,5.17-2.85,.88-1.38,1.16-3.01,.8-4.6-.36-1.6-1.32-2.96-2.71-3.84-.98-.62-2.11-.94-3.27-.94-.12,0-.25,0-.38,.02-.71-3.16-.92-7.77,.04-11.26,.11,.01,.22,.02,.34,.02,2.12,0,4.05-1.07,5.17-2.85,.88-1.38,1.16-3.01,.8-4.6-.36-1.6-1.32-2.96-2.71-3.84-.98-.62-2.11-.94-3.27-.94-2.11,0-4.05,1.07-5.17,2.85-1.6,2.53-1.12,5.8,1.02,7.76,.02,.02,.05,.04,.07,.06-1.35,4.52-1.15,10.32-.04,14.42-.14,.13-.29,.25-.43,.4-.23,.25-.45,.53-.63,.82-.32,.5-.55,1.03-.71,1.58-3.37,.49-5.2,1.67-6.82,2.73-2.04,1.32-3.96,2.57-9.64,2.67-1.96-.23-3.55-.18-5.29-.12-1.43,.05-2.91,.11-4.85,0-1.33-.07-2.1-.88-3.46-2.42-1.8-2.05-4.22-4.65-9.37-5.02v4c3.29,.3,4.8,1.89,6.36,3.67,1.49,1.69,3.17,3.62,6.26,3.78,2.12,.11,3.76,.05,5.21,0,2.49-.09,4.45-.16,7.86,.68,2.61,.64,12.1,9.67,14.77,14.32-.11,.14-.22,.28-.31,.43-1.74,2.75-1.03,6.38,1.62,8.25,.07,.05,.15,.1,.28,.19,.98,.62,2.11,.95,3.27,.95,2.12,0,4.05-1.07,5.17-2.85,.88-1.37,1.16-3.01,.8-4.6-.36-1.6-1.32-2.96-2.71-3.84-.98-.62-2.11-.94-3.27-.94-.53,0-1.05,.07-1.54,.2-2.56-4.19-8.65-10.46-13.19-13.79,1.81-.63,3.05-1.43,4.21-2.19,1.43-.93,2.61-1.69,4.86-2.07Zm3.88-26.92c.39-.61,1.05-.98,1.78-.98,.4,0,.79,.11,1.12,.33,.48,.3,.81,.78,.94,1.33,.12,.55,.02,1.11-.28,1.58-.6,.95-1.94,1.27-2.91,.65l-.09-.06c-.92-.65-1.16-1.9-.56-2.85Zm0,23.46c.39-.61,1.05-.98,1.78-.98,.4,0,.79,.11,1.12,.33,.48,.3,.81,.77,.94,1.33,.12,.55,.02,1.11-.28,1.58-.6,.95-1.94,1.27-2.91,.65l-.09-.06c-.92-.65-1.16-1.9-.56-2.85Zm0,26.3c.39-.61,1.05-.98,1.78-.98,.4,0,.79,.11,1.12,.33,.48,.3,.81,.78,.94,1.33,.12,.55,.02,1.11-.28,1.58-.6,.95-1.94,1.27-2.91,.65l-.09-.06c-.92-.65-1.16-1.9-.56-2.85Z"/></g><g><g><path class="cu" d="M103.18,111.94c-1.17-1.36-2.86-2.14-4.65-2.14-1.46,0-2.88,.53-3.98,1.48-1.61,1.38-2.33,3.43-2.09,5.4-1.95,.7-4.26,1.37-5.33,1.33-.82-.04-1.3-.35-2.22-.97-1.17-.79-2.42-1.51-4.15-1.85,2.94-2.76,6.01-6.83,8.58-12.83,2.06-.08,3.98-1.19,5.04-2.97,1.72-2.9,.77-6.66-2.12-8.39-.95-.57-2.03-.86-3.13-.86-2.15,0-4.16,1.14-5.26,2.99-.84,1.41-1.08,3.05-.68,4.64,.35,1.39,1.16,2.59,2.3,3.43-4.05,9.22-9.22,13.08-12.57,14.68-.13,.04-.25,.1-.36,.17-1.19,.53-2.05,.7-2.56,.81v4c.28-.03,1.88-.12,4.25-1.19,5.35-1.36,6.84-.35,8.41,.71,1.02,.69,2.29,1.55,4.26,1.66,.1,0,.2,0,.31,0,2.11,0,5.17-1.02,7.02-1.72,1.14,1.12,2.68,1.75,4.29,1.75h0c1.46,0,2.88-.52,3.98-1.48,1.24-1.06,1.99-2.55,2.12-4.18,.12-1.63-.39-3.21-1.46-4.45Zm-15.87-16.78c.39-.64,1.07-1.03,1.82-1.03,.38,0,.75,.1,1.08,.3,1,.6,1.33,1.9,.74,2.9-.38,.65-1.06,1.03-1.82,1.03-.38,0-.75-.1-1.08-.3-.48-.29-.83-.75-.96-1.29-.14-.55-.06-1.12,.23-1.6Zm12.6,22.36c-.49,.42-1.02,.51-1.37,.51-.62,0-1.21-.27-1.61-.73-.76-.88-.65-2.22,.23-2.98,.49-.42,1.02-.51,1.37-.51,.62,0,1.2,.27,1.61,.74,.37,.43,.55,.98,.5,1.54-.04,.56-.3,1.07-.73,1.44Z"/><path d="M79,48.44c.07,.02,.14,.03,.21,.05-.07-.01-.14-.03-.21-.05Z"/><path class="cu" d="M100.95,35.04c-.36-1.6-1.32-2.96-2.71-3.84-.98-.62-2.11-.94-3.26-.94-2.12,0-4.05,1.07-5.17,2.85-1.35,2.14-1.22,4.8,.14,6.76-3.65,4.12-8.71,4.31-9.94,4.29-3.69-1.6-7.23-2.16-10-2.32v4c2.44,.14,5.55,.69,8.75,2.14h.01c3.45,1.57,6.33,3.93,8.61,7.05-.14,.17-.26,.35-.38,.54-1.8,2.85-.94,6.64,1.9,8.44,.98,.62,2.11,.95,3.27,.95,2.11,0,4.05-1.07,5.18-2.85,1.81-2.85,.95-6.64-1.91-8.45-1.38-.87-3.09-1.11-4.67-.75-1.54-2.15-3.32-4.02-5.34-5.57,2.52-.78,5.4-2.27,7.78-5.1,.57,.17,1.17,.27,1.77,.27,2.12,0,4.05-1.07,5.17-2.85,.88-1.38,1.16-3.01,.8-4.6Zm-10.57,22.65c.17-.27,.39-.49,.67-.66,.33-.21,.72-.32,1.12-.32s.79,.11,1.12,.32c.99,.63,1.28,1.94,.66,2.92-.39,.62-1.06,.99-1.79,.99-.4,0-.79-.11-1.12-.33-.98-.62-1.28-1.94-.66-2.92Zm6.38-20.19c-.6,.95-1.94,1.27-2.91,.65l-.1-.06c-.91-.65-1.16-1.9-.56-2.85,.39-.61,1.05-.98,1.78-.98,.4,0,.79,.11,1.12,.33,.48,.3,.81,.78,.94,1.33,.12,.55,.03,1.11-.28,1.58Z"/><path class="cu" d="M109.65,77.02c.42,1.04,1.14,1.96,2.11,2.65,.07,.05,.15,.11,.28,.19,.98,.62,2.11,.95,3.27,.95,2.12,0,4.05-1.07,5.17-2.85,.88-1.38,1.16-3.01,.8-4.6-.36-1.6-1.32-2.96-2.71-3.84-.98-.62-2.11-.94-3.27-.94-.12,0-.25,0-.38,.02-.71-3.16-.92-7.77,.04-11.26,.11,.01,.22,.02,.34,.02,2.12,0,4.05-1.07,5.17-2.85,.88-1.38,1.16-3.01,.8-4.6-.36-1.6-1.32-2.96-2.71-3.84-.98-.62-2.11-.94-3.27-.94-2.11,0-4.05,1.07-5.17,2.85-1.6,2.53-1.12,5.8,1.02,7.76,.02,.02,.05,.04,.07,.06-1.35,4.52-1.15,10.32-.04,14.42-.14,.13-.29,.25-.43,.4-.23,.25-.45,.53-.63,.82-.32,.5-.55,1.03-.71,1.58-3.37,.49-5.2,1.67-6.82,2.73-2.04,1.32-3.96,2.57-9.64,2.67-1.96-.23-3.55-.18-5.29-.12-1.43,.05-2.91,.11-4.85,0-1.33-.07-2.1-.88-3.46-2.42-1.8-2.05-4.22-4.65-9.37-5.02v4c3.29,.3,4.8,1.89,6.36,3.67,1.49,1.69,3.17,3.62,6.26,3.78,2.12,.11,3.76,.05,5.21,0,2.49-.09,4.45-.16,7.86,.68,2.61,.64,12.1,9.67,14.77,14.32-.11,.14-.22,.28-.31,.43-1.74,2.75-1.03,6.38,1.62,8.25,.07,.05,.15,.1,.28,.19,.98,.62,2.11,.95,3.27,.95,2.12,0,4.05-1.07,5.17-2.85,.88-1.37,1.16-3.01,.8-4.6-.36-1.6-1.32-2.96-2.71-3.84-.98-.62-2.11-.94-3.27-.94-.53,0-1.05,.07-1.54,.2-2.56-4.19-8.65-10.46-13.19-13.79,1.81-.63,3.05-1.43,4.21-2.19,1.43-.93,2.61-1.69,4.86-2.07Zm3.88-26.92c.39-.61,1.05-.98,1.78-.98,.4,0,.79,.11,1.12,.33,.48,.3,.81,.78,.94,1.33,.12,.55,.02,1.11-.28,1.58-.6,.95-1.94,1.27-2.91,.65l-.09-.06c-.92-.65-1.16-1.9-.56-2.85Zm0,23.46c.39-.61,1.05-.98,1.78-.98,.4,0,.79,.11,1.12,.33,.48,.3,.81,.77,.94,1.33,.12,.55,.02,1.11-.28,1.58-.6,.95-1.94,1.27-2.91,.65l-.09-.06c-.92-.65-1.16-1.9-.56-2.85Zm0,26.3c.39-.61,1.05-.98,1.78-.98,.4,0,.79,.11,1.12,.33,.48,.3,.81,.78,.94,1.33,.12,.55,.02,1.11-.28,1.58-.6,.95-1.94,1.27-2.91,.65l-.09-.06c-.92-.65-1.16-1.9-.56-2.85Z"/></g><g><path class="c`" d="M103.18,108.94c-1.17-1.36-2.86-2.14-4.65-2.14-1.46,0-2.88,.53-3.98,1.48-1.61,1.38-2.33,3.43-2.09,5.4-1.95,.7-4.26,1.37-5.33,1.33-.82-.04-1.3-.35-2.22-.97-1.17-.79-2.42-1.51-4.15-1.85,2.94-2.76,6.01-6.83,8.58-12.83,2.06-.08,3.98-1.19,5.04-2.97,1.72-2.9,.77-6.66-2.12-8.39-.95-.57-2.03-.86-3.13-.86-2.15,0-4.16,1.14-5.26,2.99-.84,1.41-1.08,3.05-.68,4.64,.35,1.39,1.16,2.59,2.3,3.43-4.05,9.22-9.22,13.08-12.57,14.68-.13,.04-.25,.1-.36,.17-1.19,.53-2.05,.7-2.56,.81v4c.28-.03,1.88-.12,4.25-1.19,5.35-1.36,6.84-.35,8.41,.71,1.02,.69,2.29,1.55,4.26,1.66,.1,0,.2,0,.31,0,2.11,0,5.17-1.02,7.02-1.72,1.14,1.12,2.68,1.75,4.29,1.75h0c1.46,0,2.88-.52,3.98-1.48,1.24-1.06,1.99-2.55,2.12-4.18,.12-1.63-.39-3.21-1.46-4.45Zm-15.87-16.78c.39-.64,1.07-1.03,1.82-1.03,.38,0,.75,.1,1.08,.3,1,.6,1.33,1.9,.74,2.9-.38,.65-1.06,1.03-1.82,1.03-.38,0-.75-.1-1.08-.3-.48-.29-.83-.75-.96-1.29-.14-.55-.06-1.12,.23-1.6Zm12.6,22.36c-.49,.42-1.02,.51-1.37,.51-.62,0-1.21-.27-1.61-.73-.76-.88-.65-2.22,.23-2.98,.49-.42,1.02-.51,1.37-.51,.62,0,1.2,.27,1.61,.74,.37,.43,.55,.98,.5,1.54-.04,.56-.3,1.07-.73,1.44Z"/><path class="c`" d="M79,46.04c.07,.02,.14,.03,.21,.05-.07-.01-.14-.03-.21-.05Z"/><path class="c`" d="M100.95,33.04c-.36-1.6-1.32-2.96-2.71-3.84-.98-.62-2.11-.94-3.26-.94-2.12,0-4.05,1.07-5.17,2.85-1.35,2.14-1.22,4.8,.14,6.76-3.65,4.12-8.71,4.31-9.94,4.29-3.69-1.6-7.23-2.16-10-2.32v4c2.44,.14,5.55,.69,8.75,2.14h.01c3.45,1.57,6.33,3.93,8.61,7.05-.14,.17-.26,.35-.38,.54-1.8,2.85-.94,6.64,1.9,8.44,.98,.62,2.11,.95,3.27,.95,2.11,0,4.05-1.07,5.18-2.85,1.81-2.85,.95-6.64-1.91-8.45-1.38-.87-3.09-1.11-4.67-.75-1.54-2.15-3.32-4.02-5.34-5.57,2.52-.78,5.4-2.27,7.78-5.1,.57,.17,1.17,.27,1.77,.27,2.12,0,4.05-1.07,5.17-2.85,.88-1.38,1.16-3.01,.8-4.6Zm-10.57,22.65c.17-.27,.39-.49,.67-.66,.33-.21,.72-.32,1.12-.32s.79,.11,1.12,.32c.99,.63,1.28,1.94,.66,2.92-.39,.62-1.06,.99-1.79,.99-.4,0-.79-.11-1.12-.33-.98-.62-1.28-1.94-.66-2.92Zm6.38-20.19c-.6,.95-1.94,1.27-2.91,.65l-.1-.06c-.91-.65-1.16-1.9-.56-2.85,.39-.61,1.05-.98,1.78-.98,.4,0,.79,.11,1.12,.33,.48,.3,.81,.78,.94,1.33,.12,.55,.03,1.11-.28,1.58Z"/><path class="c`" d="M109.65,74.02c.42,1.04,1.14,1.96,2.11,2.65,.07,.05,.15,.11,.28,.19,.98,.62,2.11,.95,3.27,.95,2.12,0,4.05-1.07,5.17-2.85,.88-1.38,1.16-3.01,.8-4.6-.36-1.6-1.32-2.96-2.71-3.84-.98-.62-2.11-.94-3.27-.94-.12,0-.25,0-.38,.02-.71-3.16-.92-7.77,.04-11.26,.11,.01,.22,.02,.34,.02,2.12,0,4.05-1.07,5.17-2.85,.88-1.38,1.16-3.01,.8-4.6-.36-1.6-1.32-2.96-2.71-3.84-.98-.62-2.11-.94-3.27-.94-2.11,0-4.05,1.07-5.17,2.85-1.6,2.53-1.12,5.8,1.02,7.76,.02,.02,.05,.04,.07,.06-1.35,4.52-1.15,10.32-.04,14.42-.14,.13-.29,.25-.43,.4-.23,.25-.45,.53-.63,.82-.32,.5-.55,1.03-.71,1.58-3.37,.49-5.2,1.67-6.82,2.73-2.04,1.32-3.96,2.57-9.64,2.67-1.96-.23-3.55-.18-5.29-.12-1.43,.05-2.91,.11-4.85,0-1.33-.07-2.1-.88-3.46-2.42-1.8-2.05-4.22-4.65-9.37-5.02v4c3.29,.3,4.8,1.89,6.36,3.67,1.49,1.69,3.17,3.62,6.26,3.78,2.12,.11,3.76,.05,5.21,0,2.49-.09,4.45-.16,7.86,.68,2.61,.64,12.1,9.67,14.77,14.32-.11,.14-.22,.28-.31,.43-1.74,2.75-1.03,6.38,1.62,8.25,.07,.05,.15,.1,.28,.19,.98,.62,2.11,.95,3.27,.95,2.12,0,4.05-1.07,5.17-2.85,.88-1.37,1.16-3.01,.8-4.6-.36-1.6-1.32-2.96-2.71-3.84-.98-.62-2.11-.94-3.27-.94-.53,0-1.05,.07-1.54,.2-2.56-4.19-8.65-10.46-13.19-13.79,1.81-.63,3.05-1.43,4.21-2.19,1.43-.93,2.61-1.69,4.86-2.07Zm3.88-26.92c.39-.61,1.05-.98,1.78-.98,.4,0,.79,.11,1.12,.33,.48,.3,.81,.78,.94,1.33,.12,.55,.02,1.11-.28,1.58-.6,.95-1.94,1.27-2.91,.65l-.09-.06c-.92-.65-1.16-1.9-.56-2.85Zm0,23.46c.39-.61,1.05-.98,1.78-.98,.4,0,.79,.11,1.12,.33,.48,.3,.81,.77,.94,1.33,.12,.55,.02,1.11-.28,1.58-.6,.95-1.94,1.27-2.91,.65l-.09-.06c-.92-.65-1.16-1.9-.56-2.85Zm0,26.3c.39-.61,1.05-.98,1.78-.98,.4,0,.79,.11,1.12,.33,.48,.3,.81,.78,.94,1.33,.12,.55,.02,1.11-.28,1.58-.6,.95-1.94,1.27-2.91,.65l-.09-.06c-.92-.65-1.16-1.9-.56-2.85Z"/></g></g></g></g><g><path class="ci" d="M173.47,15.09l12.22,38.09,12.18-38.09h17.37v54.74h-13.23v-12.78l1.28-26.17-13.23,38.95h-8.72l-13.27-38.99,1.28,26.21v12.78h-13.2V15.09h17.33Z"/><path class="ci" d="M242.72,70.59c-6.24,0-11.29-1.86-15.15-5.58-3.86-3.72-5.79-8.57-5.79-14.53v-1.05c0-4.16,.77-7.83,2.31-11.02,1.54-3.18,3.79-5.65,6.75-7.39,2.96-1.74,6.47-2.61,10.53-2.61,5.71,0,10.23,1.77,13.54,5.32s4.96,8.49,4.96,14.83v4.92h-25.19c.45,2.28,1.44,4.07,2.97,5.38,1.53,1.3,3.51,1.96,5.94,1.96,4.01,0,7.14-1.4,9.4-4.21l5.79,6.84c-1.58,2.18-3.82,3.92-6.71,5.21-2.89,1.29-6.01,1.94-9.34,1.94Zm-1.43-32.41c-3.71,0-5.92,2.46-6.62,7.37h12.78v-.98c.05-2.03-.46-3.6-1.54-4.72-1.08-1.12-2.62-1.67-4.62-1.67Z"/><path class="ci" d="M286.26,58.4c0-1.08-.56-1.94-1.69-2.59-1.13-.65-3.27-1.33-6.43-2.03-3.16-.7-5.76-1.62-7.82-2.76-2.05-1.14-3.62-2.53-4.7-4.16-1.08-1.63-1.62-3.5-1.62-5.6,0-3.73,1.54-6.81,4.62-9.23,3.08-2.42,7.12-3.63,12.11-3.63,5.36,0,9.67,1.22,12.93,3.65,3.26,2.43,4.89,5.63,4.89,9.59h-12.71c0-3.26-1.72-4.89-5.15-4.89-1.33,0-2.44,.37-3.35,1.11s-1.35,1.66-1.35,2.76,.55,2.04,1.65,2.74c1.1,.7,2.86,1.28,5.28,1.73s4.54,.99,6.37,1.62c6.12,2.11,9.17,5.88,9.17,11.32,0,3.71-1.65,6.73-4.94,9.06-3.3,2.33-7.56,3.5-12.8,3.5-3.48,0-6.59-.63-9.32-1.88-2.73-1.25-4.86-2.96-6.39-5.11-1.53-2.16-2.29-4.42-2.29-6.81h11.84c.05,1.88,.68,3.25,1.88,4.12,1.2,.87,2.74,1.3,4.62,1.3,1.73,0,3.03-.35,3.89-1.05,.87-.7,1.3-1.62,1.3-2.74Z"/><path class="ci" d="M325.7,58.4c0-1.08-.56-1.94-1.69-2.59-1.13-.65-3.27-1.33-6.43-2.03-3.16-.7-5.76-1.62-7.82-2.76-2.05-1.14-3.62-2.53-4.7-4.16-1.08-1.63-1.62-3.5-1.62-5.6,0-3.73,1.54-6.81,4.62-9.23,3.08-2.42,7.12-3.63,12.11-3.63,5.36,0,9.67,1.22,12.93,3.65,3.26,2.43,4.89,5.63,4.89,9.59h-12.71c0-3.26-1.72-4.89-5.15-4.89-1.33,0-2.44,.37-3.35,1.11s-1.35,1.66-1.35,2.76,.55,2.04,1.65,2.74c1.1,.7,2.86,1.28,5.28,1.73s4.54,.99,6.37,1.62c6.12,2.11,9.17,5.88,9.17,11.32,0,3.71-1.65,6.73-4.94,9.06-3.3,2.33-7.56,3.5-12.8,3.5-3.48,0-6.59-.63-9.32-1.88-2.73-1.25-4.86-2.96-6.39-5.11-1.53-2.16-2.29-4.42-2.29-6.81h11.84c.05,1.88,.68,3.25,1.88,4.12,1.2,.87,2.74,1.3,4.62,1.3,1.73,0,3.03-.35,3.89-1.05,.87-.7,1.3-1.62,1.3-2.74Z"/><path class="ci" d="M360.1,52.09l6.77-22.93h13.57l-16.58,47.49-.71,1.73c-2.36,5.26-6.52,7.89-12.48,7.89-1.65,0-3.4-.25-5.23-.75v-9.03h1.65c1.78,0,3.14-.26,4.08-.77,.94-.51,1.63-1.44,2.09-2.77l1.02-2.71-14.14-41.09h13.54l6.43,22.93Z"/><path class="cv" d="M156.14,138.83v-54.74h19.66c7.04,0,12.4,1.29,16.07,3.87,3.67,2.58,5.51,6.33,5.51,11.24,0,2.83-.65,5.25-1.96,7.26-1.3,2-3.22,3.48-5.75,4.44,2.86,.75,5.05,2.16,6.58,4.21,1.53,2.06,2.29,4.56,2.29,7.52,0,5.36-1.7,9.39-5.09,12.09-3.4,2.7-8.43,4.07-15.1,4.12h-22.22Zm13.2-31.92h6.88c2.88-.03,4.94-.55,6.17-1.58,1.23-1.03,1.84-2.55,1.84-4.56,0-2.31-.66-3.98-1.99-5-1.33-1.02-3.47-1.53-6.43-1.53h-6.47v12.67Zm0,8.65v13.12h8.65c2.38,0,4.21-.54,5.49-1.64,1.28-1.09,1.92-2.62,1.92-4.61,0-4.56-2.27-6.86-6.8-6.88h-9.25Z"/><path class="cv" d="M229.83,109.62l-4.17-.3c-3.99,0-6.54,1.25-7.67,3.76v25.75h-12.67v-40.68h11.88l.41,5.23c2.13-3.98,5.1-5.98,8.91-5.98,1.35,0,2.53,.15,3.54,.45l-.23,11.77Z"/><path class="cv" d="M256.18,138.83c-.45-.83-.85-2.04-1.2-3.65-2.33,2.93-5.59,4.4-9.78,4.4-3.83,0-7.09-1.16-9.78-3.48-2.68-2.32-4.02-5.23-4.02-8.74,0-4.41,1.63-7.75,4.89-10,3.26-2.26,8-3.38,14.21-3.38h3.91v-2.15c0-3.75-1.62-5.63-4.85-5.63-3.01,0-4.51,1.49-4.51,4.46h-12.67c0-3.93,1.67-7.12,5.02-9.58,3.35-2.45,7.61-3.68,12.8-3.68s9.29,1.27,12.29,3.8c3.01,2.53,4.55,6,4.62,10.41v18.01c.05,3.73,.63,6.59,1.73,8.57v.64h-12.67Zm-7.93-8.27c1.58,0,2.89-.34,3.93-1.02,1.04-.68,1.79-1.44,2.24-2.29v-6.5h-3.68c-4.41,0-6.62,1.98-6.62,5.94,0,1.15,.39,2.09,1.17,2.8,.78,.71,1.77,1.07,2.97,1.07Z"/><path class="cv" d="M274.04,87.63c0-1.82,.65-3.3,1.96-4.46,1.3-1.16,3-1.74,5.08-1.74s3.77,.58,5.08,1.74c1.3,1.16,1.96,2.65,1.96,4.46s-.65,3.3-1.96,4.46c-1.3,1.16-3,1.74-5.08,1.74s-3.77-.58-5.08-1.74c-1.3-1.16-1.96-2.65-1.96-4.46Zm13.46,51.21h-12.71v-40.68h12.71v40.68Z"/><path class="cv" d="M306.94,98.15l.41,4.77c2.81-3.68,6.68-5.53,11.62-5.53,4.24,0,7.4,1.27,9.49,3.8,2.09,2.53,3.18,6.34,3.25,11.43v26.21h-12.71v-25.68c0-2.05-.41-3.56-1.24-4.53-.83-.96-2.33-1.45-4.51-1.45-2.48,0-4.32,.98-5.53,2.93v28.72h-12.67v-40.68h11.88Z"/><path class="cv" d="M353.67,129.06h18.54v9.78h-34.55v-7.07l18.05-23.84h-17.26v-9.78h33.35v6.84l-18.12,24.06Z"/></g></g></g></g></svg>