<?xml version="1.0" encoding="UTF-8"?><svg xmlns="http://www.w3.org/2000/svg" xmlns:xlink="http://www.w3.org/1999/xlink" viewBox="0 0 232 290"><defs><style>.bu{filter:url(#j);}.bv{filter:url(#au);}.bw{filter:url(#ab);}.bx{mix-blend-mode:multiply;opacity:.07;}.by{isolation:isolate;}.c`,.ca,.cb,.cc,.cd,.ce{fill:#fffedb;}.ca,.cb,.cc,.cf,.cd,.ce{stroke-width:1.5px;}.ca,.cb,.cc,.cd,.ce{stroke:#fffedb;}.cg{filter:url(#bc);}.ch{filter:url(#c);}.cb{stroke-linecap:square;stroke-linejoin:round;}.ci{fill:#b50437;}.cj{filter:url(#x);}.ck{filter:url(#aj);}.cl{filter:url(#aq);}.cc{filter:url(#an);}.cm{filter:url(#m);}.cn{clip-path:url(#b);}.co{filter:url(#t);}.cp{filter:url(#bj);}.cq{filter:url(#p);}.cf{fill:#8e0324;stroke:#8e0324;}.cr{filter:url(#af);}.cs{filter:url(#ay);}.ct{fill:none;}.cu{fill:#d3562c;}.cd{filter:url(#bg);}.ce{filter:url(#br);}.cv{fill:#eb743b;}.cw{filter:url(#bn);}</style><clipPath id="b"><polygon class="ct" points="57 108.56 57 40.35 113 8.14 113 140.64 57 108.56"/></clipPath><filter id="c" filterUnits="userSpaceOnUse"><feOffset dx="0" dy="3"/><feGaussianBlur result="d" stdDeviation="0"/><feFlood flood-color="#8e0324" flood-opacity="1"/><feComposite in2="d" operator="in"/><feComposite in="SourceGraphic"/></filter><filter id="j" filterUnits="userSpaceOnUse"><feOffset dx="0" dy="3"/><feGaussianBlur result="k" stdDeviation="0"/><feFlood flood-color="#8e0324" flood-opacity="1"/><feComposite in2="k" operator="in"/><feComposite in="SourceGraphic"/></filter><filter id="m" filterUnits="userSpaceOnUse"><feOffset dx="0" dy="3"/><feGaussianBlur result="n" stdDeviation="0"/><feFlood flood-color="#8e0324" flood-opacity="1"/><feComposite in2="n" operator="in"/><feComposite in="SourceGraphic"/></filter><filter id="p" filterUnits="userSpaceOnUse"><feOffset dx="0" dy="3"/><feGaussianBlur result="q" stdDeviation="0"/><feFlood flood-color="#8e0324" flood-opacity="1"/><feComposite in2="q" operator="in"/><feComposite in="SourceGraphic"/></filter><filter id="t" filterUnits="userSpaceOnUse"><feOffset dx="0" dy="3"/><feGaussianBlur result="u" stdDeviation="0"/><feFlood flood-color="#8e0324" flood-opacity="1"/><feComposite in2="u" operator="in"/><feComposite in="SourceGraphic"/></filter><filter id="x" filterUnits="userSpaceOnUse"><feOffset dx="0" dy="3"/><feGaussianBlur result="y" stdDeviation="0"/><feFlood flood-color="#8e0324" flood-opacity="1"/><feComposite in2="y" operator="in"/><feComposite in="SourceGraphic"/></filter><filter id="ab" filterUnits="userSpaceOnUse"><feOffset dx="0" dy="3"/><feGaussianBlur result="ac" stdDeviation="0"/><feFlood flood-color="#8e0324" flood-opacity="1"/><feComposite in2="ac" operator="in"/><feComposite in="SourceGraphic"/></filter><filter id="af" filterUnits="userSpaceOnUse"><feOffset dx="0" dy="3"/><feGaussianBlur result="ag" stdDeviation="0"/><feFlood flood-color="#8e0324" flood-opacity="1"/><feComposite in2="ag" operator="in"/><feComposite in="SourceGraphic"/></filter><filter id="aj" filterUnits="userSpaceOnUse"><feOffset dx="0" dy="3"/><feGaussianBlur result="ak" stdDeviation="0"/><feFlood flood-color="#8e0324" flood-opacity="1"/><feComposite in2="ak" operator="in"/><feComposite in="SourceGraphic"/></filter><filter id="an" filterUnits="userSpaceOnUse"><feOffset dx="0" dy="3"/><feGaussianBlur result="ao" stdDeviation="0"/><feFlood flood-color="#8e0324" flood-opacity="1"/><feComposite in2="ao" operator="in"/><feComposite in="SourceGraphic"/></filter><filter id="aq" filterUnits="userSpaceOnUse"><feOffset dx="0" dy="3"/><feGaussianBlur result="ar" stdDeviation="0"/><feFlood flood-color="#8e0324" flood-opacity="1"/><feComposite in2="ar" operator="in"/><feComposite in="SourceGraphic"/></filter><filter id="au" filterUnits="userSpaceOnUse"><feOffset dx="0" dy="3"/><feGaussianBlur result="av" stdDeviation="0"/><feFlood flood-color="#8e0324" flood-opacity="1"/><feComposite in2="av" operator="in"/><feComposite in="SourceGraphic"/></filter><filter id="ay" filterUnits="userSpaceOnUse"><feOffset dx="0" dy="3"/><feGaussianBlur result="b`" stdDeviation="0"/><feFlood flood-color="#8e0324" flood-opacity="1"/><feComposite in2="b`" operator="in"/><feComposite in="SourceGraphic"/></filter><filter id="bc" filterUnits="userSpaceOnUse"><feOffset dx="0" dy="3"/><feGaussianBlur result="bd" stdDeviation="0"/><feFlood flood-color="#8e0324" flood-opacity="1"/><feComposite in2="bd" operator="in"/><feComposite in="SourceGraphic"/></filter><filter id="bg" filterUnits="userSpaceOnUse"><feOffset dx="0" dy="3"/><feGaussianBlur result="bh" stdDeviation="0"/><feFlood flood-color="#8e0324" flood-opacity="1"/><feComposite in2="bh" operator="in"/><feComposite in="SourceGraphic"/></filter><filter id="bj" filterUnits="userSpaceOnUse"><feOffset dx="0" dy="3"/><feGaussianBlur result="bk" stdDeviation="0"/><feFlood flood-color="#8e0324" flood-opacity="1"/><feComposite in2="bk" operator="in"/><feComposite in="SourceGraphic"/></filter><filter id="bn" filterUnits="userSpaceOnUse"><feOffset dx="0" dy="3"/><feGaussianBlur result="bo" stdDeviation="0"/><feFlood flood-color="#8e0324" flood-opacity="1"/><feComposite in2="bo" operator="in"/><feComposite in="SourceGraphic"/></filter><filter id="br" filterUnits="userSpaceOnUse"><feOffset dx="0" dy="3"/><feGaussianBlur result="bs" stdDeviation="0"/><feFlood flood-color="#8e0324" flood-opacity="1"/><feComposite in2="bs" operator="in"/><feComposite in="SourceGraphic"/></filter></defs><g class="by"><g id="a"><g><g><polygon class="cv" points="118 2.46 118 146.46 179 111.46 179 37.46 118 2.46"/><polygon class="ci" points="113 2.46 52 37.46 52 111.46 113 146.46 113 2.46"/><g class="cn"><g><g id="e" class="ch"><polyline id="f" class="ca" points="51.09 41.99 50.17 42.69 49.35 43.51 48.65 44.43 48.07 45.44 47.64 46.51 47.36 47.64 47.23 48.79 47.26 49.95 47.44 51.09 47.78 52.2 48.26 53.26 48.88 54.23 49.63 55.12 50.49 55.9 51.44 56.55 52.48 57.08 53.58 57.45 54.71 57.68 55.87 57.75 57.02 57.66 58.16 57.42 59.25 57.03 60.28 56.49 61.22 55.83 62.07 55.04 62.81 54.14 63.41 53.15 63.88 52.09 64.19 50.43 64.55 49.14 67.13 49.86 66.77 51.15 66.46 52.81 65.87 54.21 65.1 55.52 64.16 56.71 63.07 57.77 61.85 58.67 60.51 59.39 59.09 59.93 57.61 60.28 56.1 60.42 54.58 60.35 53.08 60.08 51.64 59.62 50.27 58.96 49 58.12 47.85 57.13 46.85 55.98 46.01 54.71 45.36 53.34 44.89 51.9 44.62 50.4 44.56 48.88 44.7 47.37 45.04 45.89 45.58 44.47 46.3 43.13 47.2 41.91 48.26 40.81 49.45 39.87"/></g><g id="g"><polyline id="h" class="cf" points="64.19 57.72 65.21 56.59 66.07 55.34 66.76 53.98 67.25 52.55 67.55 51.06 67.64 49.54 67.53 48.02 67.22 46.54 66.71 45.11 66.01 43.76 65.13 42.52 64.1 41.4 62.92 40.44 61.63 39.64 60.24 39.03 58.78 38.6 57.27 38.38 38.53 38.02 37.19 37.99 37.14 40.67 38.48 40.7 57.22 41.06 58.37 41.25 59.47 41.59 60.52 42.08 61.5 42.71 62.38 43.46 63.15 44.32 63.8 45.28 64.32 46.32 64.69 47.42 64.91 48.56 64.97 49.71 64.88 50.87 64.63 52 64.23 53.09 63.69 54.12 63.02 55.06 62.22 55.9"/><polyline id="i" class="ca" points="64.19 54.72 65.21 53.59 66.07 52.34 66.76 50.98 67.25 49.55 67.55 48.06 67.64 46.54 67.53 45.02 67.22 43.54 66.71 42.11 66.01 40.76 65.13 39.52 64.1 38.4 62.92 37.44 61.63 36.64 60.24 36.03 58.78 35.6 57.27 35.38 38.53 35.02 37.19 34.99 37.14 37.67 38.48 37.7 57.22 38.06 58.37 38.25 59.47 38.59 60.52 39.08 61.5 39.71 62.38 40.46 63.15 41.32 63.8 42.28 64.32 43.32 64.69 44.42 64.91 45.56 64.97 46.71 64.88 47.87 64.63 49 64.23 50.09 63.69 51.12 63.02 52.06 62.22 52.9"/></g><g><g class="bu"><polyline id="l" class="c`" points="93.37 74.43 93.57 74.28 93.79 74.12 94.02 73.97 94.26 73.82 95.51 73.1 95.8 72.95 96.11 72.79 96.44 72.65 96.81 72.5 97.1 72.4 97.31 72.33 97.41 72.3 97.51 72.26 97.62 72.23 97.73 72.2 97.85 72.17 97.97 72.14 98.1 72.11 100.06 71.66 100.23 71.63 100.41 71.59 100.6 71.56 100.79 71.53 101 71.51 101.21 71.49 101.44 71.47 101.67 71.46 101.91 71.45 117.38 71.44 118 71.44 118 67.46 117.38 67.46 101.91 67.47 101.56 67.47 101.23 67.49 100.91 67.52 100.6 67.55 100.31 67.58 100.03 67.62 99.76 67.67 99.5 67.71 99.25 67.76 97.23 68.22 97.04 68.26 96.87 68.31 96.7 68.35 96.54 68.4 96.38 68.45 96.23 68.49 96.09 68.54 95.84 68.62 95.47 68.75 94.99 68.94 94.52 69.14 94.07 69.36 93.65 69.58 92.28 70.36 91.93 70.58 91.6 70.8 91.28 71.01 90.99 71.23"/></g><g class="cm"><polyline id="o" class="c`" points="90.3 77.84 90.34 77.77 90.37 77.7 90.42 77.63 90.46 77.55 90.51 77.47 90.56 77.39 90.61 77.3 90.67 77.21 90.73 77.12 90.79 77.02 90.85 76.93 90.93 76.82 91 76.72 91.08 76.61 91.16 76.5 91.25 76.39 91.35 76.27 91.45 76.15 91.56 76.03 91.67 75.9 91.79 75.77 91.92 75.64 92.06 75.5 92.2 75.36 92.36 75.22 92.52 75.08 92.7 74.94 92.88 74.79 93.12 74.61 93.37 74.43 90.99 71.23 90.75 71.41 90.51 71.59 90.24 71.8 89.99 72.01 89.75 72.21 89.53 72.41 89.32 72.61 89.12 72.8 88.94 72.99 88.77 73.17 88.6 73.36 88.45 73.53 88.3 73.71 88.16 73.87 88.04 74.04 87.91 74.19 87.8 74.35 87.69 74.5 87.59 74.64 87.49 74.78 87.4 74.92 87.32 75.05 87.24 75.18 87.16 75.3 87.09 75.42 87.02 75.54 86.96 75.65 86.9 75.75 86.84 75.86 86.79 75.96"/></g></g><g id="r" class="cq"><polyline id="s" class="ca" points="16.34 49.95 75.15 82.17 76.57 82.71 78.05 83.06 79.56 83.2 81.08 83.14 82.58 82.88 84.03 82.41 85.4 81.76 86.67 80.93 87.82 79.93 88.82 78.79 89.66 77.52 87.25 76.34 86.6 77.29 85.82 78.15 84.93 78.89 83.95 79.51 82.89 79.99 81.78 80.32 80.64 80.5 79.48 80.53 78.33 80.4 77.2 80.11 76.13 79.68 17.64 47.61"/></g><g id="v" class="co"><path id="w" class="ca" d="M51.27,96.45l.94,5.46,.47,1.45,.66,1.37,.84,1.27,1,1.15,1.14,1,1.27,.84,1.37,.66,1.45,.47,1.5,.27,1.52,.07,1.51-.14,1.48-.34,1.42-.54,1.34-.73c4.4-2.17,2.53-4.48,8.74-4.45l-.16-2.9c-5.31-.76-7.11,3.68-10.15,5.18l-1.03,.53-1.09,.39-1.13,.24-1.16,.09-1.16-.07-1.14-.23-1.1-.38-1.04-.52-.96-.66-.86-.78-.75-.89-.62-.98-.48-1.05-.34-1.11-3.93-12.15"/></g><g id="a`" class="cj"><polyline id="aa" class="ca" points="77.75 101.34 79.17 101.88 80.5 102.6 81.73 103.5 82.82 104.56 83.76 105.75 84.54 107.06 85.12 108.46 85.52 109.93 85.71 111.43 85.7 112.95 85.49 114.46 85.07 115.92 84.46 117.31 83.67 118.61 82.71 119.79 81.6 120.83 80.36 121.71 79.01 122.41 77.59 122.93 76.1 123.25 74.58 123.37 56.04 122.43 54.88 122.52 53.75 122.76 52.66 123.15 51.63 123.69 50.69 124.36 43.76 130.93 42.52 131.82 41.17 132.52 39.74 133.04 38.26 133.36 36.74 133.48 35.22 133.39 33.73 133.1 32.29 132.61 30.93 131.93 29.68 131.07 28.55 130.06 27.57 128.9 26.75 127.61 26.11 126.23 25.67 124.78 28.31 124.33 28.67 125.43 29.17 126.47 29.82 127.44 30.58 128.31 31.46 129.07 32.43 129.7 33.47 130.2 34.58 130.55 35.72 130.76 36.88 130.8 38.03 130.69 39.16 130.42 40.24 130.01 41.26 129.45 42.19 128.76 48.84 122.42 50.06 121.52 51.4 120.79 52.82 120.25 54.3 119.9 55.81 119.76 74.72 120.69 75.87 120.58 77 120.32 78.08 119.9 79.1 119.34 80.03 118.65 80.86 117.85 81.58 116.93 82.16 115.93 82.61 114.86 82.9 113.74 83.05 112.59 83.03 111.43 82.87 110.29 82.54 109.17 82.08 108.11 81.47 107.13 80.73 106.23 79.88 105.44 78.94 104.77 77.91 104.24 76.82 103.85"/></g><g id="ad" class="bw"><polyline id="ae" class="ca" points="43.12 93.37 61 83.82 62.23 82.93 63.32 81.87 64.26 80.68 65.03 79.37 65.62 77.97 66.02 76.5 66.21 74.99 66.2 73.47 65.98 71.97 65.57 70.51 64.96 69.11 64.17 67.82 63.21 66.64 62.1 65.6 51.38 57.87 50.53 57.08 48.44 58.76 49.53 59.81 60.53 67.77 61.36 68.58 62.07 69.49 62.66 70.49 63.1 71.56 63.4 72.68 63.54 73.83 63.53 74.99 63.36 76.14 63.04 77.25 62.57 78.31 61.97 79.3 61.23 80.19 60.38 80.98 59.43 81.65 41.86 91"/></g><g id="ah" class="cr"><polyline id="ai" class="ca" points="94.86 136.24 86.81 117.64 86.01 116.34 85.05 115.17 83.94 114.13 82.7 113.26 81.35 112.55 79.92 112.04 78.43 111.73 76.92 111.61 75.4 111.7 73.91 112 72.47 112.49 71.11 113.18 69.86 114.04 68.73 115.06 60.16 125.11 59.3 125.89 60.8 128.11 61.94 127.1 70.77 116.8 71.64 116.04 72.61 115.4 73.66 114.9 74.76 114.54 75.9 114.34 77.06 114.29 78.21 114.4 79.34 114.66 80.42 115.07 81.44 115.62 82.38 116.31 83.21 117.11 83.93 118.02 84.51 119.02 92.4 137.3"/></g><g id="al" class="ck"><polyline id="am" class="ca" points="35.83 81.01 36.97 80.83 38.13 80.8 39.28 80.93 84.45 92.75 85.53 93.18 86.54 93.76 87.46 94.46 88.28 95.28 88.98 96.2 89.55 97.21 89.98 98.29 97.39 129.38 97.52 130.53 97.49 131.69 97.3 132.83 96.97 133.94 96.48 134.99 95.86 135.97 95.11 136.86 94.25 137.63 93.29 138.29 92.26 138.81 91.16 139.18 90.02 139.4 88.87 139.47 87.71 139.38 86.58 139.14 85.49 138.75 84.46 138.21 83.52 137.54 81.67 139.48 82.89 140.38 84.22 141.11 85.64 141.65 87.12 142 88.64 142.14 90.15 142.08 91.65 141.81 93.1 141.35 94.47 140.69 95.74 139.86 96.89 138.86 97.89 137.72 98.73 136.45 99.39 135.09 99.86 133.64 100.13 132.14 100.2 130.63 100.06 129.11 92.58 97.67 92.05 96.25 91.32 94.91 90.43 93.68 89.37 92.59 88.18 91.64 86.87 90.87 85.47 90.28 39.96 78.34 38.45 78.14 36.93 78.15 35.43 78.36"/></g><polygon id="ap" class="cc" points="64.77 56.53 77.65 59.44 78.74 59.83 79.77 60.37 80.71 61.04 81.56 61.83 82.29 62.73 82.9 63.72 83.36 64.78 83.68 65.9 83.84 67.05 83.85 68.21 83.7 69.35 83.4 70.47 82.95 71.54 82.37 72.54 81.65 73.45 80.81 74.26 79.88 74.94 78.86 75.49 77.78 75.91 76.65 76.17 76.87 78.84 78.35 78.52 79.78 78.01 81.13 77.31 82.38 76.43 83.49 75.4 84.45 74.22 85.25 72.93 85.86 71.54 86.28 70.08 86.5 68.57 86.52 67.05 86.33 65.55 85.94 64.08 85.36 62.67 84.59 61.36 83.66 60.17 82.57 59.11 81.34 58.2 80.01 57.47 78.59 56.93 65.36 53.92 64.24 53.6 63.18 53.13 62.19 52.53 61.3 51.79 60.51 50.95 59.84 50 59.3 48.97 58.91 47.88 58.66 46.75 58.57 45.6 58.64 44.44 58.87 43.3 59.24 42.21 59.76 41.17 60.41 40.21 61.19 39.35 62.08 38.6 63.06 37.98 64.11 37.5 65.22 37.16 66.36 36.98 67.52 36.95 68.67 37.07 69.8 37.35 70.87 37.78 71.88 38.35 72.8 39.05 73.62 39.87 74.33 40.79 76.67 39.5 75.77 38.27 74.72 37.18 73.52 36.24 72.22 35.46 70.81 34.88 69.35 34.48 67.84 34.29 66.32 34.3 64.82 34.51 63.35 34.93 61.96 35.54 60.66 36.33 59.49 37.29 58.45 38.4 57.57 39.63 56.86 40.98 56.34 42.41 56.02 43.89 55.9 45.41 55.99 46.93 56.28 48.42 56.77 49.86 57.45 51.22 58.3 52.47 59.32 53.6 60.48 54.59 61.76 55.4 63.14 56.04 64.59 56.48 64.77 56.53"/><g id="as" class="cl"><path id="at" class="ca" d="M102.61,38.43l-.42-1.46-.62-1.39-.8-1.29-5.65-7.14-1.11-1.03-1.24-.87-1.35-.7-1.43-.51-1.49-.31-1.52-.11-1.52,.09-1.49,.3-1.44,.5-1.36,.69-1.25,.86-1.12,1.02-.98,1.16-2.06,3.24-.74,.89-.86,.78-.95,.66-1.03,.53-1.09,.38-1.14,.23-1.16,.08-1.16-.08s-1.92-.55-3.59-2.85-4.56-2.59-2.25,1.42,5.27,4.05,5.27,4.05l1.51,.13,1.52-.07,1.49-.27,1.44-.47,1.37-.66,1.27-.84,1.14-1,1-1.15,2.28-3.53,.76-.87,.87-.76,.97-.64,1.04-.5,1.1-.36,1.14-.21,1.16-.05,1.15,.11,1.13,.26,1.08,.41,1.02,.55,.94,.68,.83,.8,5.4,6.88,.59,1,.45,1.07,.3,1.12"/></g><g><g id="aw" class="bv"><polyline id="ax" class="ca" points="76.48 55.4 85.17 34.36 96.27 4.96 93.8 3.93 82.69 33.34 74 54.38"/></g><g id="ba" class="cs"><polyline id="bb" class="ca" points="79.14 99.97 80.56 99.41 81.88 98.66 83.09 97.75 84.17 96.68 85.1 95.47 85.85 94.15 86.42 92.74 86.79 91.27 86.96 89.76 86.93 88.24 86.69 86.74 86.26 85.28 85.63 83.9 84.82 82.61 83.84 81.45 82.72 80.43 81.47 79.56 75.67 76.58 74.72 75.93 73.86 75.15 73.11 74.26 72.49 73.28 72.01 72.23 71.67 71.12 71.49 69.98 71.46 68.82 71.59 67.67 71.87 66.54 75.97 56.64 76.48 55.4 74 54.38 73.49 55.62 69.4 65.52 69 66.99 68.8 68.49 68.81 70.01 69.03 71.52 69.44 72.98 70.05 74.37 70.83 75.67 71.79 76.85 72.9 77.89 74.14 78.78 80.24 81.94 81.18 82.62 82.02 83.41 82.75 84.32 83.35 85.31 83.81 86.37 84.12 87.49 84.28 88.64 84.29 89.8 84.13 90.94 83.83 92.06 83.37 93.13 82.78 94.12 82.06 95.03 81.22 95.83 80.28 96.51 79.26 97.06 78.18 97.47"/></g></g><g id="be" class="cg"><path id="bf" class="cb" d="M40.94,59.17l.93,26.95,.27,1.5,.47,1.45,.66,1.37,.84,1.27,1,1.14,1.14,1,1.27,.84,1.37,.66,1.45,.47,25.19,4.72s2.18,.18,3.63-.56l-.96-2.5c-.9,.46-2.53,.39-2.53,.39l-24.83-4.68-1.1-.38-1.04-.52-.96-.66-.86-.78-.75-.89-.62-.98-.48-1.05-.34-1.11-.18-1.14-.89-26.59"/></g><polyline id="bi" class="cd" points="64.84 92.36 66.29 91.92 67.68 91.29 68.96 90.48 70.12 89.5 71.15 88.37 72.01 87.12 72.69 85.77 73.19 84.33 75.86 71.39 76.23 70.29 76.75 69.26 77.41 68.3 89.33 55.36 90.19 54.11 90.87 52.75 91.37 51.32 91.66 49.83 91.76 48.31 91.64 46.79 91.33 45.31 90.82 43.88 90.12 42.53 89.24 41.28 88.21 40.17 87.03 39.21 85.74 38.41 84.35 37.8 82.89 37.37 81.39 37.15 79.87 37.14 78.36 37.32 76.89 37.71 77.9 40.19 79.02 39.92 80.17 39.8 81.33 39.83 82.48 40.02 83.58 40.36 84.63 40.85 85.61 41.48 86.49 42.23 87.27 43.09 87.92 44.05 88.43 45.09 88.8 46.19 89.02 47.33 89.08 48.48 88.99 49.64 88.74 50.77 88.34 51.86 87.8 52.88 87.13 53.83 75.44 66.48 74.56 67.72 73.85 69.07 73.33 70.5 70.56 83.78 70.16 84.87 69.62 85.9 68.95 86.84 68.16 87.68 67.25 88.41 66.26 89.01 65.2 89.48 64.08 89.79"/><g id="bl" class="cp"><polyline id="bm" class="ca" points="100 39.05 100.29 40.18 100.41 41.33 100.38 42.49 100.2 43.63 99.86 44.74 99.38 45.79 98.76 46.77 98.01 47.66 97.15 48.44 96.2 49.09 95.16 49.61 94.07 49.99 92.93 50.21 91.77 50.28 90.62 50.2 89.48 49.95 88.39 49.56 86.42 48.36 86.42 48.36 77.43 40.38 75.08 41.53 84.57 50.3 85.8 51.2 87.13 51.92 88.55 52.47 90.03 52.81 91.54 52.95 93.06 52.89 94.56 52.62 96.01 52.15 97.38 51.5 98.65 50.66 99.79 49.66 100.79 48.52 101.63 47.25 102.29 45.88 102.76 44.44 103.02 42.94 103.09 41.42 102.95 39.91 102.61 38.43"/></g><g id="bp" class="cw"><polyline id="bq" class="ca" points="50.53 101.92 56.78 95.72 57.67 94.97 58.65 94.35 59.7 93.87 63.55 92.74 64.84 92.36 64.08 89.79 62.8 90.17 58.94 91.3 57.55 91.91 56.25 92.7 55.08 93.66 48.57 100.1"/></g><path id="bt" class="ce" d="M79.87,37.14l-1.51,.19-1.47,.39-12.41,5.04-1.24,.5-13.2,5.42,.66,2.59,13.54-5.54,1.24-.5,12.41-5.04,1.13-.28,1.15-.12s1.89-.02,2.73,.36"/></g></g><g><g class="bx"><path d="M135.3,94.19c.39-.64,1.07-1.03,1.82-1.03,.38,0,.75,.1,1.08,.3,1,.6,1.33,1.9,.74,2.9-.38,.65-1.06,1.03-1.82,1.03-.38,0-.75-.1-1.08-.3-.48-.29-.83-.75-.96-1.29-.14-.55-.06-1.12,.23-1.6Zm12.6,22.36c-.49,.42-1.02,.51-1.37,.51-.62,0-1.21-.27-1.61-.73-.76-.88-.65-2.22,.23-2.98,.49-.42,1.02-.51,1.37-.51,.62,0,1.2,.27,1.61,.74,.37,.43,.55,.98,.5,1.54-.04,.56-.3,1.07-.73,1.44Z"/><path d="M127,48.07c.07,.02,.14,.03,.21,.05-.07-.01-.14-.03-.21-.05Z"/><path d="M138.38,57.71c.17-.27,.39-.49,.67-.66,.33-.21,.72-.32,1.12-.32s.79,.11,1.12,.32c.99,.63,1.28,1.94,.66,2.92-.39,.62-1.06,.99-1.79,.99-.4,0-.79-.11-1.12-.33-.98-.62-1.28-1.94-.66-2.92Zm6.38-20.19c-.6,.95-1.94,1.27-2.91,.65l-.1-.06c-.91-.65-1.16-1.9-.56-2.85,.39-.61,1.05-.98,1.78-.98,.4,0,.79,.11,1.12,.33,.48,.3,.81,.78,.94,1.33,.12,.55,.03,1.11-.28,1.58Z"/><path d="M161.53,49.12c.39-.61,1.05-.98,1.78-.98,.4,0,.79,.11,1.12,.33,.48,.3,.81,.78,.94,1.33,.12,.55,.02,1.11-.28,1.58-.6,.95-1.94,1.27-2.91,.65l-.09-.06c-.92-.65-1.16-1.9-.56-2.85Zm0,23.46c.39-.61,1.05-.98,1.78-.98,.4,0,.79,.11,1.12,.33,.48,.3,.81,.77,.94,1.33,.12,.55,.02,1.11-.28,1.58-.6,.95-1.94,1.27-2.91,.65l-.09-.06c-.92-.65-1.16-1.9-.56-2.85Zm0,26.3c.39-.61,1.05-.98,1.78-.98,.4,0,.79,.11,1.12,.33,.48,.3,.81,.78,.94,1.33,.12,.55,.02,1.11-.28,1.58-.6,.95-1.94,1.27-2.91,.65l-.09-.06c-.92-.65-1.16-1.9-.56-2.85Z"/><path d="M151.18,108.56c-1.17-1.36-2.86-2.14-4.65-2.14-1.46,0-2.88,.53-3.98,1.48-1.61,1.38-2.33,3.43-2.09,5.4-1.95,.7-4.26,1.37-5.33,1.33-.82-.04-1.3-.35-2.22-.97-1.17-.79-2.42-1.51-4.15-1.85,2.94-2.76,6.01-6.83,8.58-12.83,2.06-.08,3.98-1.19,5.04-2.97,1.72-2.9,.77-6.66-2.12-8.39-.95-.57-2.03-.86-3.13-.86-2.15,0-4.16,1.14-5.26,2.99-.84,1.41-1.08,3.05-.68,4.64,.35,1.39,1.16,2.59,2.3,3.43-4.05,9.22-9.22,13.08-12.57,14.68-.13,.04-.25,.1-.36,.17-1.19,.53-2.05,.7-2.56,.81v4c.28-.03,1.88-.12,4.25-1.19,5.35-1.36,6.84-.35,8.41,.71,1.02,.69,2.29,1.55,4.26,1.66,.1,0,.2,0,.31,0,2.11,0,5.17-1.02,7.02-1.72,1.14,1.12,2.68,1.75,4.29,1.75h0c1.46,0,2.88-.52,3.98-1.48,1.24-1.06,1.99-2.55,2.12-4.18,.12-1.63-.39-3.21-1.46-4.45Zm-15.87-16.78c.39-.64,1.07-1.03,1.82-1.03,.38,0,.75,.1,1.08,.3,1,.6,1.33,1.9,.74,2.9-.38,.65-1.06,1.03-1.82,1.03-.38,0-.75-.1-1.08-.3-.48-.29-.83-.75-.96-1.29-.14-.55-.06-1.12,.23-1.6Zm12.6,22.36c-.49,.42-1.02,.51-1.37,.51-.62,0-1.21-.27-1.61-.73-.76-.88-.65-2.22,.23-2.98,.49-.42,1.02-.51,1.37-.51,.62,0,1.2,.27,1.61,.74,.37,.43,.55,.98,.5,1.54-.04,.56-.3,1.07-.73,1.44Z"/><path d="M127,45.66c.07,.02,.14,.03,.21,.05-.07-.01-.14-.03-.21-.05Z"/><path d="M148.95,32.66c-.36-1.6-1.32-2.96-2.71-3.84-.98-.62-2.11-.94-3.26-.94-2.12,0-4.05,1.07-5.17,2.85-1.35,2.14-1.22,4.8,.14,6.76-3.65,4.12-8.71,4.31-9.94,4.29-3.69-1.6-7.23-2.16-10-2.32v4c2.44,.14,5.55,.69,8.75,2.14h.01c3.45,1.57,6.33,3.93,8.61,7.05-.14,.17-.26,.35-.38,.54-1.8,2.85-.94,6.64,1.9,8.44,.98,.62,2.11,.95,3.27,.95,2.11,0,4.05-1.07,5.18-2.85,1.81-2.85,.95-6.64-1.91-8.45-1.38-.87-3.09-1.11-4.67-.75-1.54-2.15-3.32-4.02-5.34-5.57,2.52-.78,5.4-2.27,7.78-5.1,.57,.17,1.17,.27,1.77,.27,2.12,0,4.05-1.07,5.17-2.85,.88-1.38,1.16-3.01,.8-4.6Zm-10.57,22.65c.17-.27,.39-.49,.67-.66,.33-.21,.72-.32,1.12-.32s.79,.11,1.12,.32c.99,.63,1.28,1.94,.66,2.92-.39,.62-1.06,.99-1.79,.99-.4,0-.79-.11-1.12-.33-.98-.62-1.28-1.94-.66-2.92Zm6.38-20.19c-.6,.95-1.94,1.27-2.91,.65l-.1-.06c-.91-.65-1.16-1.9-.56-2.85,.39-.61,1.05-.98,1.78-.98,.4,0,.79,.11,1.12,.33,.48,.3,.81,.78,.94,1.33,.12,.55,.03,1.11-.28,1.58Z"/><path d="M157.65,73.64c.42,1.04,1.14,1.96,2.11,2.65,.07,.05,.15,.11,.28,.19,.98,.62,2.11,.95,3.27,.95,2.12,0,4.05-1.07,5.17-2.85,.88-1.38,1.16-3.01,.8-4.6-.36-1.6-1.32-2.96-2.71-3.84-.98-.62-2.11-.94-3.27-.94-.12,0-.25,0-.38,.02-.71-3.16-.92-7.77,.04-11.26,.11,.01,.22,.02,.34,.02,2.12,0,4.05-1.07,5.17-2.85,.88-1.38,1.16-3.01,.8-4.6-.36-1.6-1.32-2.96-2.71-3.84-.98-.62-2.11-.94-3.27-.94-2.11,0-4.05,1.07-5.17,2.85-1.6,2.53-1.12,5.8,1.02,7.76,.02,.02,.05,.04,.07,.06-1.35,4.52-1.15,10.32-.04,14.42-.14,.13-.29,.25-.43,.4-.23,.25-.45,.53-.63,.82-.32,.5-.55,1.03-.71,1.58-3.37,.49-5.2,1.67-6.82,2.73-2.04,1.32-3.96,2.57-9.64,2.67-1.96-.23-3.55-.18-5.29-.12-1.43,.05-2.91,.11-4.85,0-1.33-.07-2.1-.88-3.46-2.42-1.8-2.05-4.22-4.65-9.37-5.02v4c3.29,.3,4.8,1.89,6.36,3.67,1.49,1.69,3.17,3.62,6.26,3.78,2.12,.11,3.76,.05,5.21,0,2.49-.09,4.45-.16,7.86,.68,2.61,.64,12.1,9.67,14.77,14.32-.11,.14-.22,.28-.31,.43-1.74,2.75-1.03,6.38,1.62,8.25,.07,.05,.15,.1,.28,.19,.98,.62,2.11,.95,3.27,.95,2.12,0,4.05-1.07,5.17-2.85,.88-1.37,1.16-3.01,.8-4.6-.36-1.6-1.32-2.96-2.71-3.84-.98-.62-2.11-.94-3.27-.94-.53,0-1.05,.07-1.54,.2-2.56-4.19-8.65-10.46-13.19-13.79,1.81-.63,3.05-1.43,4.21-2.19,1.43-.93,2.61-1.69,4.86-2.07Zm3.88-26.92c.39-.61,1.05-.98,1.78-.98,.4,0,.79,.11,1.12,.33,.48,.3,.81,.78,.94,1.33,.12,.55,.02,1.11-.28,1.58-.6,.95-1.94,1.27-2.91,.65l-.09-.06c-.92-.65-1.16-1.9-.56-2.85Zm0,23.46c.39-.61,1.05-.98,1.78-.98,.4,0,.79,.11,1.12,.33,.48,.3,.81,.77,.94,1.33,.12,.55,.02,1.11-.28,1.58-.6,.95-1.94,1.27-2.91,.65l-.09-.06c-.92-.65-1.16-1.9-.56-2.85Zm0,26.3c.39-.61,1.05-.98,1.78-.98,.4,0,.79,.11,1.12,.33,.48,.3,.81,.78,.94,1.33,.12,.55,.02,1.11-.28,1.58-.6,.95-1.94,1.27-2.91,.65l-.09-.06c-.92-.65-1.16-1.9-.56-2.85Z"/></g><g><g><path class="cu" d="M151.18,111.56c-1.17-1.36-2.86-2.14-4.65-2.14-1.46,0-2.88,.53-3.98,1.48-1.61,1.38-2.33,3.43-2.09,5.4-1.95,.7-4.26,1.37-5.33,1.33-.82-.04-1.3-.35-2.22-.97-1.17-.79-2.42-1.51-4.15-1.85,2.94-2.76,6.01-6.83,8.58-12.83,2.06-.08,3.98-1.19,5.04-2.97,1.72-2.9,.77-6.66-2.12-8.39-.95-.57-2.03-.86-3.13-.86-2.15,0-4.16,1.14-5.26,2.99-.84,1.41-1.08,3.05-.68,4.64,.35,1.39,1.16,2.59,2.3,3.43-4.05,9.22-9.22,13.08-12.57,14.68-.13,.04-.25,.1-.36,.17-1.19,.53-2.05,.7-2.56,.81v4c.28-.03,1.88-.12,4.25-1.19,5.35-1.36,6.84-.35,8.41,.71,1.02,.69,2.29,1.55,4.26,1.66,.1,0,.2,0,.31,0,2.11,0,5.17-1.02,7.02-1.72,1.14,1.12,2.68,1.75,4.29,1.75h0c1.46,0,2.88-.52,3.98-1.48,1.24-1.06,1.99-2.55,2.12-4.18,.12-1.63-.39-3.21-1.46-4.45Zm-15.87-16.78c.39-.64,1.07-1.03,1.82-1.03,.38,0,.75,.1,1.08,.3,1,.6,1.33,1.9,.74,2.9-.38,.65-1.06,1.03-1.82,1.03-.38,0-.75-.1-1.08-.3-.48-.29-.83-.75-.96-1.29-.14-.55-.06-1.12,.23-1.6Zm12.6,22.36c-.49,.42-1.02,.51-1.37,.51-.62,0-1.21-.27-1.61-.73-.76-.88-.65-2.22,.23-2.98,.49-.42,1.02-.51,1.37-.51,.62,0,1.2,.27,1.61,.74,.37,.43,.55,.98,.5,1.54-.04,.56-.3,1.07-.73,1.44Z"/><path d="M127,48.07c.07,.02,.14,.03,.21,.05-.07-.01-.14-.03-.21-.05Z"/><path class="cu" d="M148.95,34.67c-.36-1.6-1.32-2.96-2.71-3.84-.98-.62-2.11-.94-3.26-.94-2.12,0-4.05,1.07-5.17,2.85-1.35,2.14-1.22,4.8,.14,6.76-3.65,4.12-8.71,4.31-9.94,4.29-3.69-1.6-7.23-2.16-10-2.32v4c2.44,.14,5.55,.69,8.75,2.14h.01c3.45,1.57,6.33,3.93,8.61,7.05-.14,.17-.26,.35-.38,.54-1.8,2.85-.94,6.64,1.9,8.44,.98,.62,2.11,.95,3.27,.95,2.11,0,4.05-1.07,5.18-2.85,1.81-2.85,.95-6.64-1.91-8.45-1.38-.87-3.09-1.11-4.67-.75-1.54-2.15-3.32-4.02-5.34-5.57,2.52-.78,5.4-2.27,7.78-5.1,.57,.17,1.17,.27,1.77,.27,2.12,0,4.05-1.07,5.17-2.85,.88-1.38,1.16-3.01,.8-4.6Zm-10.57,22.65c.17-.27,.39-.49,.67-.66,.33-.21,.72-.32,1.12-.32s.79,.11,1.12,.32c.99,.63,1.28,1.94,.66,2.92-.39,.62-1.06,.99-1.79,.99-.4,0-.79-.11-1.12-.33-.98-.62-1.28-1.94-.66-2.92Zm6.38-20.19c-.6,.95-1.94,1.27-2.91,.65l-.1-.06c-.91-.65-1.16-1.9-.56-2.85,.39-.61,1.05-.98,1.78-.98,.4,0,.79,.11,1.12,.33,.48,.3,.81,.78,.94,1.33,.12,.55,.03,1.11-.28,1.58Z"/><path class="cu" d="M157.65,76.64c.42,1.04,1.14,1.96,2.11,2.65,.07,.05,.15,.11,.28,.19,.98,.62,2.11,.95,3.27,.95,2.12,0,4.05-1.07,5.17-2.85,.88-1.38,1.16-3.01,.8-4.6-.36-1.6-1.32-2.96-2.71-3.84-.98-.62-2.11-.94-3.27-.94-.12,0-.25,0-.38,.02-.71-3.16-.92-7.77,.04-11.26,.11,.01,.22,.02,.34,.02,2.12,0,4.05-1.07,5.17-2.85,.88-1.38,1.16-3.01,.8-4.6-.36-1.6-1.32-2.96-2.71-3.84-.98-.62-2.11-.94-3.27-.94-2.11,0-4.05,1.07-5.17,2.85-1.6,2.53-1.12,5.8,1.02,7.76,.02,.02,.05,.04,.07,.06-1.35,4.52-1.15,10.32-.04,14.42-.14,.13-.29,.25-.43,.4-.23,.25-.45,.53-.63,.82-.32,.5-.55,1.03-.71,1.58-3.37,.49-5.2,1.67-6.82,2.73-2.04,1.32-3.96,2.57-9.64,2.67-1.96-.23-3.55-.18-5.29-.12-1.43,.05-2.91,.11-4.85,0-1.33-.07-2.1-.88-3.46-2.42-1.8-2.05-4.22-4.65-9.37-5.02v4c3.29,.3,4.8,1.89,6.36,3.67,1.49,1.69,3.17,3.62,6.26,3.78,2.12,.11,3.76,.05,5.21,0,2.49-.09,4.45-.16,7.86,.68,2.61,.64,12.1,9.67,14.77,14.32-.11,.14-.22,.28-.31,.43-1.74,2.75-1.03,6.38,1.62,8.25,.07,.05,.15,.1,.28,.19,.98,.62,2.11,.95,3.27,.95,2.12,0,4.05-1.07,5.17-2.85,.88-1.37,1.16-3.01,.8-4.6-.36-1.6-1.32-2.96-2.71-3.84-.98-.62-2.11-.94-3.27-.94-.53,0-1.05,.07-1.54,.2-2.56-4.19-8.65-10.46-13.19-13.79,1.81-.63,3.05-1.43,4.21-2.19,1.43-.93,2.61-1.69,4.86-2.07Zm3.88-26.92c.39-.61,1.05-.98,1.78-.98,.4,0,.79,.11,1.12,.33,.48,.3,.81,.78,.94,1.33,.12,.55,.02,1.11-.28,1.58-.6,.95-1.94,1.27-2.91,.65l-.09-.06c-.92-.65-1.16-1.9-.56-2.85Zm0,23.46c.39-.61,1.05-.98,1.78-.98,.4,0,.79,.11,1.12,.33,.48,.3,.81,.77,.94,1.33,.12,.55,.02,1.11-.28,1.58-.6,.95-1.94,1.27-2.91,.65l-.09-.06c-.92-.65-1.16-1.9-.56-2.85Zm0,26.3c.39-.61,1.05-.98,1.78-.98,.4,0,.79,.11,1.12,.33,.48,.3,.81,.78,.94,1.33,.12,.55,.02,1.11-.28,1.58-.6,.95-1.94,1.27-2.91,.65l-.09-.06c-.92-.65-1.16-1.9-.56-2.85Z"/></g><g><path class="c`" d="M151.18,108.56c-1.17-1.36-2.86-2.14-4.65-2.14-1.46,0-2.88,.53-3.98,1.48-1.61,1.38-2.33,3.43-2.09,5.4-1.95,.7-4.26,1.37-5.33,1.33-.82-.04-1.3-.35-2.22-.97-1.17-.79-2.42-1.51-4.15-1.85,2.94-2.76,6.01-6.83,8.58-12.83,2.06-.08,3.98-1.19,5.04-2.97,1.72-2.9,.77-6.66-2.12-8.39-.95-.57-2.03-.86-3.13-.86-2.15,0-4.16,1.14-5.26,2.99-.84,1.41-1.08,3.05-.68,4.64,.35,1.39,1.16,2.59,2.3,3.43-4.05,9.22-9.22,13.08-12.57,14.68-.13,.04-.25,.1-.36,.17-1.19,.53-2.05,.7-2.56,.81v4c.28-.03,1.88-.12,4.25-1.19,5.35-1.36,6.84-.35,8.41,.71,1.02,.69,2.29,1.55,4.26,1.66,.1,0,.2,0,.31,0,2.11,0,5.17-1.02,7.02-1.72,1.14,1.12,2.68,1.75,4.29,1.75h0c1.46,0,2.88-.52,3.98-1.48,1.24-1.06,1.99-2.55,2.12-4.18,.12-1.63-.39-3.21-1.46-4.45Zm-15.87-16.78c.39-.64,1.07-1.03,1.82-1.03,.38,0,.75,.1,1.08,.3,1,.6,1.33,1.9,.74,2.9-.38,.65-1.06,1.03-1.82,1.03-.38,0-.75-.1-1.08-.3-.48-.29-.83-.75-.96-1.29-.14-.55-.06-1.12,.23-1.6Zm12.6,22.36c-.49,.42-1.02,.51-1.37,.51-.62,0-1.21-.27-1.61-.73-.76-.88-.65-2.22,.23-2.98,.49-.42,1.02-.51,1.37-.51,.62,0,1.2,.27,1.61,.74,.37,.43,.55,.98,.5,1.54-.04,.56-.3,1.07-.73,1.44Z"/><path class="c`" d="M127,45.66c.07,.02,.14,.03,.21,.05-.07-.01-.14-.03-.21-.05Z"/><path class="c`" d="M148.95,32.66c-.36-1.6-1.32-2.96-2.71-3.84-.98-.62-2.11-.94-3.26-.94-2.12,0-4.05,1.07-5.17,2.85-1.35,2.14-1.22,4.8,.14,6.76-3.65,4.12-8.71,4.31-9.94,4.29-3.69-1.6-7.23-2.16-10-2.32v4c2.44,.14,5.55,.69,8.75,2.14h.01c3.45,1.57,6.33,3.93,8.61,7.05-.14,.17-.26,.35-.38,.54-1.8,2.85-.94,6.64,1.9,8.44,.98,.62,2.11,.95,3.27,.95,2.11,0,4.05-1.07,5.18-2.85,1.81-2.85,.95-6.64-1.91-8.45-1.38-.87-3.09-1.11-4.67-.75-1.54-2.15-3.32-4.02-5.34-5.57,2.52-.78,5.4-2.27,7.78-5.1,.57,.17,1.17,.27,1.77,.27,2.12,0,4.05-1.07,5.17-2.85,.88-1.38,1.16-3.01,.8-4.6Zm-10.57,22.65c.17-.27,.39-.49,.67-.66,.33-.21,.72-.32,1.12-.32s.79,.11,1.12,.32c.99,.63,1.28,1.94,.66,2.92-.39,.62-1.06,.99-1.79,.99-.4,0-.79-.11-1.12-.33-.98-.62-1.28-1.94-.66-2.92Zm6.38-20.19c-.6,.95-1.94,1.27-2.91,.65l-.1-.06c-.91-.65-1.16-1.9-.56-2.85,.39-.61,1.05-.98,1.78-.98,.4,0,.79,.11,1.12,.33,.48,.3,.81,.78,.94,1.33,.12,.55,.03,1.11-.28,1.58Z"/><path class="c`" d="M157.65,73.64c.42,1.04,1.14,1.96,2.11,2.65,.07,.05,.15,.11,.28,.19,.98,.62,2.11,.95,3.27,.95,2.12,0,4.05-1.07,5.17-2.85,.88-1.38,1.16-3.01,.8-4.6-.36-1.6-1.32-2.96-2.71-3.84-.98-.62-2.11-.94-3.27-.94-.12,0-.25,0-.38,.02-.71-3.16-.92-7.77,.04-11.26,.11,.01,.22,.02,.34,.02,2.12,0,4.05-1.07,5.17-2.85,.88-1.38,1.16-3.01,.8-4.6-.36-1.6-1.32-2.96-2.71-3.84-.98-.62-2.11-.94-3.27-.94-2.11,0-4.05,1.07-5.17,2.85-1.6,2.53-1.12,5.8,1.02,7.76,.02,.02,.05,.04,.07,.06-1.35,4.52-1.15,10.32-.04,14.42-.14,.13-.29,.25-.43,.4-.23,.25-.45,.53-.63,.82-.32,.5-.55,1.03-.71,1.58-3.37,.49-5.2,1.67-6.82,2.73-2.04,1.32-3.96,2.57-9.64,2.67-1.96-.23-3.55-.18-5.29-.12-1.43,.05-2.91,.11-4.85,0-1.33-.07-2.1-.88-3.46-2.42-1.8-2.05-4.22-4.65-9.37-5.02v4c3.29,.3,4.8,1.89,6.36,3.67,1.49,1.69,3.17,3.62,6.26,3.78,2.12,.11,3.76,.05,5.21,0,2.49-.09,4.45-.16,7.86,.68,2.61,.64,12.1,9.67,14.77,14.32-.11,.14-.22,.28-.31,.43-1.74,2.75-1.03,6.38,1.62,8.25,.07,.05,.15,.1,.28,.19,.98,.62,2.11,.95,3.27,.95,2.12,0,4.05-1.07,5.17-2.85,.88-1.37,1.16-3.01,.8-4.6-.36-1.6-1.32-2.96-2.71-3.84-.98-.62-2.11-.94-3.27-.94-.53,0-1.05,.07-1.54,.2-2.56-4.19-8.65-10.46-13.19-13.79,1.81-.63,3.05-1.43,4.21-2.19,1.43-.93,2.61-1.69,4.86-2.07Zm3.88-26.92c.39-.61,1.05-.98,1.78-.98,.4,0,.79,.11,1.12,.33,.48,.3,.81,.78,.94,1.33,.12,.55,.02,1.11-.28,1.58-.6,.95-1.94,1.27-2.91,.65l-.09-.06c-.92-.65-1.16-1.9-.56-2.85Zm0,23.46c.39-.61,1.05-.98,1.78-.98,.4,0,.79,.11,1.12,.33,.48,.3,.81,.77,.94,1.33,.12,.55,.02,1.11-.28,1.58-.6,.95-1.94,1.27-2.91,.65l-.09-.06c-.92-.65-1.16-1.9-.56-2.85Zm0,26.3c.39-.61,1.05-.98,1.78-.98,.4,0,.79,.11,1.12,.33,.48,.3,.81,.78,.94,1.33,.12,.55,.02,1.11-.28,1.58-.6,.95-1.94,1.27-2.91,.65l-.09-.06c-.92-.65-1.16-1.9-.56-2.85Z"/></g></g></g></g><g><path class="ci" d="M25.35,161.85l9.66,36.66,9.66-36.66h17.48v54.61h-13.31v-10.88l1.27-25.41-10.73,36.28h-8.77l-10.69-36.09,1.27,25.22v10.88H7.92v-54.61H25.35Z"/><path class="ci" d="M89.8,217.32c-6.27,0-11.16-1.87-14.66-5.61-3.51-3.74-5.26-9.08-5.26-16.04v-3.71c0-7.36,1.61-13.04,4.83-17.03,3.22-4,7.83-5.99,13.84-5.99s10.28,1.87,13.24,5.62c2.96,3.75,4.47,9.29,4.53,16.64v5.98h-24.28c.17,3.46,.93,6,2.29,7.6s3.44,2.4,6.25,2.4c4.08,0,7.49-1.39,10.22-4.18l4.79,7.37c-1.5,2.07-3.67,3.75-6.51,5.02-2.85,1.28-5.94,1.92-9.27,1.92Zm-7.68-28.63h12.2v-1.12c-.06-2.79-.52-4.9-1.38-6.34s-2.36-2.16-4.48-2.16-3.67,.76-4.64,2.29c-.96,1.52-1.53,3.97-1.7,7.33Z"/><path class="ci" d="M133.87,203.95c0-1.04-.5-1.99-1.49-2.87-.99-.88-3.2-2.06-6.62-3.56-5.03-2.04-8.49-4.15-10.37-6.34-1.88-2.18-2.82-4.9-2.82-8.15,0-4.08,1.47-7.45,4.42-10.11,2.95-2.66,6.85-3.99,11.71-3.99,5.12,0,9.21,1.32,12.29,3.97,3.08,2.65,4.61,6.2,4.61,10.65h-12.2c0-3.79-1.58-5.69-4.74-5.69-1.29,0-2.36,.4-3.19,1.21s-1.25,1.93-1.25,3.36c0,1.04,.46,1.95,1.38,2.74,.92,.79,3.09,1.92,6.51,3.38,4.97,1.84,8.49,3.89,10.54,6.15s3.08,5.18,3.08,8.78c0,4.17-1.57,7.52-4.7,10.05-3.13,2.53-7.25,3.79-12.33,3.79-3.42,0-6.44-.67-9.06-2-2.62-1.34-4.67-3.2-6.15-5.58-1.48-2.39-2.22-4.96-2.22-7.72h11.6c.06,2.13,.55,3.72,1.49,4.79s2.46,1.59,4.59,1.59c3.28,0,4.92-1.48,4.92-4.44Z"/><path class="ci" d="M173.97,203.95c0-1.04-.5-1.99-1.49-2.87-.99-.88-3.2-2.06-6.62-3.56-5.03-2.04-8.49-4.15-10.37-6.34-1.88-2.18-2.82-4.9-2.82-8.15,0-4.08,1.47-7.45,4.42-10.11,2.95-2.66,6.85-3.99,11.71-3.99,5.12,0,9.21,1.32,12.29,3.97,3.08,2.65,4.61,6.2,4.61,10.65h-12.2c0-3.79-1.58-5.69-4.74-5.69-1.29,0-2.36,.4-3.19,1.21s-1.25,1.93-1.25,3.36c0,1.04,.46,1.95,1.38,2.74,.92,.79,3.09,1.92,6.51,3.38,4.97,1.84,8.49,3.89,10.54,6.15s3.08,5.18,3.08,8.78c0,4.17-1.57,7.52-4.7,10.05-3.13,2.53-7.25,3.79-12.33,3.79-3.42,0-6.44-.67-9.06-2-2.62-1.34-4.67-3.2-6.15-5.58-1.48-2.39-2.22-4.96-2.22-7.72h11.6c.06,2.13,.55,3.72,1.49,4.79s2.46,1.59,4.59,1.59c3.28,0,4.92-1.48,4.92-4.44Z"/><path class="ci" d="M208.38,196.15l6.21-26.35h13.02l-15.35,53.65c-2.3,7.91-6.63,11.86-12.98,11.86-1.47,0-3.13-.27-5-.82v-9.53l1.42,.04c1.9,0,3.33-.37,4.29-1.1,.96-.73,1.69-2,2.18-3.82l.95-3.15-13.45-47.13h13.11l5.61,26.35Z"/><path class="cv" d="M9.18,285.46v-54.61H27.74c6.38,0,11.24,1.29,14.6,3.87,3.36,2.58,5.04,6.32,5.04,11.23,0,2.78-.61,5.2-1.83,7.27-1.22,2.06-3.02,3.58-5.39,4.55,2.56,.75,4.55,2.18,5.95,4.29,1.41,2.11,2.11,4.7,2.11,7.76,0,5.44-1.58,9.41-4.73,11.91-3.16,2.5-7.91,3.75-14.25,3.75H9.18Zm13.26-31.92h6.38c3.53-.09,5.3-1.97,5.3-5.62,0-2.16-.44-3.69-1.31-4.62-.88-.92-2.22-1.38-4.03-1.38h-6.33v11.62Zm0,9.23v11.76h6.8c1.84,0,3.26-.5,4.24-1.51,.98-1,1.48-2.38,1.48-4.14,0-3.95-1.59-5.99-4.78-6.12h-7.73Z"/><path class="cv" d="M79.35,250.57l-4.05-.34c-3.33,0-5.59,1.47-6.77,4.4v30.83h-12.25v-46.66h11.51l.35,5.04c1.93-3.94,4.58-5.91,7.98-5.91,1.38,0,2.5,.19,3.36,.56l-.13,12.08Z"/><path class="cv" d="M106.47,285.46c-.35-.72-.69-1.93-1.04-3.62-2.19,2.99-5.15,4.48-8.88,4.48s-7.15-1.29-9.72-3.88c-2.57-2.59-3.86-5.94-3.86-10.05,0-4.89,1.56-8.67,4.68-11.34,3.12-2.67,7.61-4.04,13.48-4.1h3.71v-3.75c0-2.1-.36-3.58-1.08-4.44-.72-.86-1.77-1.29-3.15-1.29-3.05,0-4.57,1.78-4.57,5.35h-12.2c0-4.31,1.62-7.87,4.85-10.67,3.23-2.8,7.32-4.21,12.27-4.21s9.08,1.33,11.88,3.99,4.21,6.46,4.21,11.41v21.95c.06,4.03,.63,7.17,1.72,9.44v.73h-12.29Zm-7.2-8.71c1.35,0,2.5-.27,3.45-.82,.95-.55,1.65-1.19,2.11-1.94v-9.7h-2.93c-2.07,0-3.7,.66-4.89,1.98-1.19,1.32-1.79,3.09-1.79,5.3,0,3.45,1.35,5.17,4.05,5.17Z"/><path class="cv" d="M125.88,226.72c0-1.9,.6-3.45,1.81-4.66,1.21-1.21,2.82-1.81,4.83-1.81s3.62,.6,4.83,1.81,1.81,2.76,1.81,4.66-.6,3.42-1.79,4.66c-1.19,1.24-2.81,1.85-4.85,1.85s-3.66-.62-4.85-1.85c-1.19-1.24-1.79-2.79-1.79-4.66Zm12.81,58.73h-12.25v-46.66h12.25v46.66Z"/><path class="cv" d="M159.3,238.8l.35,4.61c2.76-3.65,6.37-5.48,10.82-5.48,8.02,0,12.15,5.62,12.38,16.86v30.66h-12.25v-29.75c0-2.64-.4-4.56-1.19-5.76-.79-1.19-2.18-1.79-4.16-1.79-2.21,0-3.94,1.14-5.17,3.41v33.9h-12.25v-46.66h11.47Z"/><path class="cv" d="M205.1,275.32h18.46v10.13h-32.95v-7.63l18.03-28.85h-17.59v-10.18h32.26v7.37l-18.2,29.15Z"/></g></g></g></g></svg>