<?xml version="1.0" encoding="UTF-8"?><svg id="a" xmlns="http://www.w3.org/2000/svg" xmlns:xlink="http://www.w3.org/1999/xlink" viewBox="0 0 272 100"><defs><style>.bu{filter:url(#j);}.bv{filter:url(#au);}.bw{filter:url(#ab);}.bx,.by,.c`,.ca,.cb,.cc{fill:#fffedb;}.by,.c`,.ca,.cd,.cb,.cc{stroke-width:1.5px;}.by,.c`,.ca,.cb,.cc{stroke:#fffedb;}.ce{filter:url(#bc);}.cf{filter:url(#c);}.c`{stroke-linecap:square;stroke-linejoin:round;}.cg{fill:#b50437;}.ch{filter:url(#x);}.ci{filter:url(#aj);}.cj{filter:url(#aq);}.ca{filter:url(#an);}.ck{filter:url(#m);}.cl{clip-path:url(#b);}.cm{filter:url(#t);}.cn{filter:url(#bj);}.co{filter:url(#p);}.cd{fill:#8e0324;stroke:#8e0324;}.cp{filter:url(#af);}.cq{filter:url(#ay);}.cr{fill:none;}.cb{filter:url(#bg);}.cc{filter:url(#br);}.cs{fill:#eb743b;}.ct{filter:url(#bn);}</style><clipPath id="b"><polygon class="cr" points="5.36 72.74 5.36 27.26 43 5.79 43 94.12 5.36 72.74"/></clipPath><filter id="c" filterUnits="userSpaceOnUse"><feOffset dx="0" dy="3"/><feGaussianBlur result="d" stdDeviation="0"/><feFlood flood-color="#8e0324" flood-opacity="1"/><feComposite in2="d" operator="in"/><feComposite in="SourceGraphic"/></filter><filter id="j" filterUnits="userSpaceOnUse"><feOffset dx="0" dy="3"/><feGaussianBlur result="k" stdDeviation="0"/><feFlood flood-color="#8e0324" flood-opacity="1"/><feComposite in2="k" operator="in"/><feComposite in="SourceGraphic"/></filter><filter id="m" filterUnits="userSpaceOnUse"><feOffset dx="0" dy="3"/><feGaussianBlur result="n" stdDeviation="0"/><feFlood flood-color="#8e0324" flood-opacity="1"/><feComposite in2="n" operator="in"/><feComposite in="SourceGraphic"/></filter><filter id="p" filterUnits="userSpaceOnUse"><feOffset dx="0" dy="3"/><feGaussianBlur result="q" stdDeviation="0"/><feFlood flood-color="#8e0324" flood-opacity="1"/><feComposite in2="q" operator="in"/><feComposite in="SourceGraphic"/></filter><filter id="t" filterUnits="userSpaceOnUse"><feOffset dx="0" dy="3"/><feGaussianBlur result="u" stdDeviation="0"/><feFlood flood-color="#8e0324" flood-opacity="1"/><feComposite in2="u" operator="in"/><feComposite in="SourceGraphic"/></filter><filter id="x" filterUnits="userSpaceOnUse"><feOffset dx="0" dy="3"/><feGaussianBlur result="y" stdDeviation="0"/><feFlood flood-color="#8e0324" flood-opacity="1"/><feComposite in2="y" operator="in"/><feComposite in="SourceGraphic"/></filter><filter id="ab" filterUnits="userSpaceOnUse"><feOffset dx="0" dy="3"/><feGaussianBlur result="ac" stdDeviation="0"/><feFlood flood-color="#8e0324" flood-opacity="1"/><feComposite in2="ac" operator="in"/><feComposite in="SourceGraphic"/></filter><filter id="af" filterUnits="userSpaceOnUse"><feOffset dx="0" dy="3"/><feGaussianBlur result="ag" stdDeviation="0"/><feFlood flood-color="#8e0324" flood-opacity="1"/><feComposite in2="ag" operator="in"/><feComposite in="SourceGraphic"/></filter><filter id="aj" filterUnits="userSpaceOnUse"><feOffset dx="0" dy="3"/><feGaussianBlur result="ak" stdDeviation="0"/><feFlood flood-color="#8e0324" flood-opacity="1"/><feComposite in2="ak" operator="in"/><feComposite in="SourceGraphic"/></filter><filter id="an" filterUnits="userSpaceOnUse"><feOffset dx="0" dy="3"/><feGaussianBlur result="ao" stdDeviation="0"/><feFlood flood-color="#8e0324" flood-opacity="1"/><feComposite in2="ao" operator="in"/><feComposite in="SourceGraphic"/></filter><filter id="aq" filterUnits="userSpaceOnUse"><feOffset dx="0" dy="3"/><feGaussianBlur result="ar" stdDeviation="0"/><feFlood flood-color="#8e0324" flood-opacity="1"/><feComposite in2="ar" operator="in"/><feComposite in="SourceGraphic"/></filter><filter id="au" filterUnits="userSpaceOnUse"><feOffset dx="0" dy="3"/><feGaussianBlur result="av" stdDeviation="0"/><feFlood flood-color="#8e0324" flood-opacity="1"/><feComposite in2="av" operator="in"/><feComposite in="SourceGraphic"/></filter><filter id="ay" filterUnits="userSpaceOnUse"><feOffset dx="0" dy="3"/><feGaussianBlur result="b`" stdDeviation="0"/><feFlood flood-color="#8e0324" flood-opacity="1"/><feComposite in2="b`" operator="in"/><feComposite in="SourceGraphic"/></filter><filter id="bc" filterUnits="userSpaceOnUse"><feOffset dx="0" dy="3"/><feGaussianBlur result="bd" stdDeviation="0"/><feFlood flood-color="#8e0324" flood-opacity="1"/><feComposite in2="bd" operator="in"/><feComposite in="SourceGraphic"/></filter><filter id="bg" filterUnits="userSpaceOnUse"><feOffset dx="0" dy="3"/><feGaussianBlur result="bh" stdDeviation="0"/><feFlood flood-color="#8e0324" flood-opacity="1"/><feComposite in2="bh" operator="in"/><feComposite in="SourceGraphic"/></filter><filter id="bj" filterUnits="userSpaceOnUse"><feOffset dx="0" dy="3"/><feGaussianBlur result="bk" stdDeviation="0"/><feFlood flood-color="#8e0324" flood-opacity="1"/><feComposite in2="bk" operator="in"/><feComposite in="SourceGraphic"/></filter><filter id="bn" filterUnits="userSpaceOnUse"><feOffset dx="0" dy="3"/><feGaussianBlur result="bo" stdDeviation="0"/><feFlood flood-color="#8e0324" flood-opacity="1"/><feComposite in2="bo" operator="in"/><feComposite in="SourceGraphic"/></filter><filter id="br" filterUnits="userSpaceOnUse"><feOffset dx="0" dy="3"/><feGaussianBlur result="bs" stdDeviation="0"/><feFlood flood-color="#8e0324" flood-opacity="1"/><feComposite in2="bs" operator="in"/><feComposite in="SourceGraphic"/></filter></defs><g><polygon class="cg" points="43 2 2 25.33 2 74.67 43 98 43 2"/><g class="cl"><g><g id="e" class="cf"><polyline id="f" class="by" points="1.39 28.35 .77 28.82 .22 29.37 -.25 29.98 -.64 30.65 -.93 31.37 -1.12 32.12 -1.2 32.89 -1.19 33.66 -1.06 34.42 -.84 35.16 -.51 35.87 -.1 36.52 .41 37.11 .98 37.63 1.63 38.07 2.32 38.41 3.06 38.66 3.82 38.81 4.6 38.86 5.38 38.8 6.14 38.64 6.87 38.38 7.56 38.02 8.2 37.58 8.77 37.05 9.26 36.45 9.67 35.8 9.99 35.09 10.19 33.98 10.43 33.12 12.17 33.6 11.93 34.46 11.72 35.57 11.33 36.5 10.81 37.37 10.17 38.17 9.44 38.87 8.62 39.47 7.72 39.96 6.77 40.32 5.77 40.55 4.75 40.64 3.73 40.6 2.73 40.42 1.76 40.11 .83 39.67 -.02 39.11 -.79 38.45 -1.46 37.68 -2.02 36.84 -2.47 35.92 -2.78 34.96 -2.96 33.96 -3 32.95 -2.91 31.94 -2.68 30.95 -2.32 30.01 -1.83 29.12 -1.23 28.3 -.52 27.57 .29 26.94"/></g><g id="g"><polyline id="h" class="cd" points="10.19 39.84 10.88 39.09 11.46 38.26 11.92 37.35 12.25 36.39 12.45 35.4 12.51 34.39 12.44 33.38 12.23 32.39 11.88 31.43 11.41 30.53 10.83 29.71 10.13 28.96 9.34 28.32 8.47 27.79 7.54 27.38 6.56 27.1 5.55 26.95 -7.05 26.71 -7.95 26.69 -7.99 28.48 -7.09 28.49 5.51 28.74 6.28 28.86 7.02 29.09 7.73 29.42 8.38 29.83 8.98 30.34 9.5 30.91 9.93 31.55 10.28 32.24 10.53 32.98 10.68 33.73 10.72 34.51 10.66 35.28 10.49 36.03 10.22 36.76 9.86 37.44 9.41 38.07 8.87 38.63"/><polyline id="i" class="by" points="10.19 36.84 10.88 36.09 11.46 35.26 11.92 34.35 12.25 33.39 12.45 32.4 12.51 31.39 12.44 30.38 12.23 29.39 11.88 28.43 11.41 27.53 10.83 26.71 10.13 25.96 9.34 25.32 8.47 24.79 7.54 24.38 6.56 24.1 5.55 23.95 -7.05 23.71 -7.95 23.69 -7.99 25.48 -7.09 25.49 5.51 25.74 6.28 25.86 7.02 26.09 7.73 26.42 8.38 26.83 8.98 27.34 9.5 27.91 9.93 28.55 10.28 29.24 10.53 29.98 10.68 30.73 10.72 31.51 10.66 32.28 10.49 33.03 10.22 33.76 9.86 34.44 9.41 35.07 8.87 35.63"/></g><g><g class="bu"><polyline id="l" class="bx" points="29.8 49.98 29.94 49.88 30.09 49.78 30.24 49.68 30.41 49.57 31.24 49.1 31.44 48.99 31.65 48.89 31.87 48.79 32.12 48.7 32.32 48.63 32.46 48.58 32.52 48.56 32.59 48.54 32.66 48.52 32.74 48.5 32.82 48.47 32.9 48.45 32.99 48.43 34.3 48.14 34.42 48.11 34.54 48.09 34.66 48.07 34.8 48.05 34.93 48.03 35.08 48.02 35.23 48.01 35.38 48 35.55 47.99 45.94 47.99 46.36 47.99 46.36 45.33 45.94 45.33 35.55 45.34 35.31 45.34 35.09 45.36 34.87 45.37 34.67 45.39 34.47 45.42 34.28 45.44 34.1 45.47 33.93 45.5 33.76 45.54 32.4 45.84 32.27 45.87 32.16 45.9 32.04 45.93 31.93 45.96 31.83 45.99 31.73 46.02 31.64 46.05 31.47 46.11 31.22 46.2 30.9 46.32 30.58 46.46 30.28 46.6 29.99 46.75 29.07 47.27 28.84 47.41 28.61 47.56 28.4 47.7 28.21 47.85"/></g><g class="ck"><polyline id="o" class="bx" points="27.74 52.26 27.77 52.21 27.79 52.16 27.82 52.11 27.85 52.06 27.88 52.01 27.92 51.95 27.95 51.9 27.99 51.84 28.03 51.77 28.07 51.71 28.12 51.65 28.16 51.58 28.21 51.51 28.27 51.44 28.32 51.36 28.38 51.29 28.45 51.21 28.52 51.13 28.59 51.05 28.66 50.96 28.75 50.87 28.83 50.79 28.92 50.7 29.02 50.6 29.13 50.51 29.24 50.42 29.35 50.32 29.48 50.22 29.64 50.1 29.8 49.98 28.21 47.85 28.04 47.97 27.88 48.09 27.7 48.23 27.53 48.37 27.37 48.5 27.23 48.63 27.09 48.77 26.95 48.9 26.83 49.02 26.71 49.15 26.6 49.27 26.5 49.38 26.4 49.5 26.31 49.61 26.22 49.72 26.14 49.83 26.06 49.93 25.99 50.03 25.92 50.12 25.86 50.22 25.8 50.31 25.74 50.4 25.69 50.48 25.63 50.56 25.59 50.64 25.54 50.72 25.5 50.79 25.46 50.86 25.42 50.93 25.38 51"/></g></g><g id="r" class="co"><polyline id="s" class="by" points="-21.97 33.66 17.56 55.14 18.52 55.51 19.51 55.74 20.53 55.83 21.55 55.79 22.55 55.61 23.53 55.31 24.45 54.87 25.3 54.31 26.07 53.65 26.75 52.89 27.31 52.04 25.7 51.25 25.25 51.89 24.73 52.46 24.13 52.96 23.47 53.37 22.76 53.69 22.02 53.91 21.25 54.03 20.47 54.05 19.7 53.96 18.94 53.77 18.22 53.48 -21.09 32.1"/></g><g id="v" class="cm"><path id="w" class="by" d="M1.51,64.66l.63,3.64,.31,.96,.44,.91,.56,.85,.67,.76,.77,.67,.85,.56,.92,.44,.97,.31,1.01,.18,1.02,.04,1.02-.09,1-.23,.96-.36,.9-.48c2.95-1.45,1.7-2.99,5.88-2.97l-.11-1.94c-3.57-.5-4.78,2.45-6.82,3.45l-.69,.36-.73,.26-.76,.16-.78,.06-.78-.05-.76-.15-.74-.25-.7-.35-.64-.44-.58-.52-.5-.59-.42-.65-.32-.7-.23-.74-2.64-8.1"/></g><g id="a`" class="ch"><polyline id="aa" class="by" points="19.31 67.92 20.26 68.28 21.16 68.76 21.98 69.36 22.72 70.07 23.35 70.86 23.87 71.73 24.26 72.67 24.53 73.65 24.66 74.65 24.65 75.66 24.51 76.67 24.23 77.64 23.82 78.57 23.28 79.43 22.64 80.22 21.89 80.91 21.06 81.5 20.16 81.97 19.2 82.31 18.2 82.53 17.18 82.61 4.72 81.98 3.94 82.04 3.18 82.2 2.44 82.46 1.75 82.82 1.12 83.27 -3.54 87.65 -4.37 88.24 -5.28 88.71 -6.24 89.05 -7.24 89.27 -8.26 89.35 -9.28 89.29 -10.28 89.09 -11.24 88.77 -12.16 88.31 -13 87.74 -13.76 87.07 -14.42 86.29 -14.97 85.44 -15.4 84.52 -15.7 83.55 -13.92 83.25 -13.68 83.98 -13.34 84.68 -12.91 85.32 -12.4 85.9 -11.81 86.41 -11.16 86.83 -10.45 87.16 -9.71 87.4 -8.94 87.53 -8.17 87.56 -7.39 87.49 -6.63 87.31 -5.9 87.03 -5.22 86.66 -4.6 86.2 -.12 81.97 .7 81.37 1.6 80.89 2.55 80.53 3.54 80.3 4.56 80.2 17.27 80.82 18.05 80.75 18.8 80.57 19.53 80.3 20.21 79.92 20.84 79.47 21.4 78.93 21.88 78.32 22.27 77.65 22.57 76.94 22.77 76.19 22.87 75.42 22.86 74.65 22.75 73.89 22.53 73.15 22.21 72.44 21.81 71.78 21.31 71.18 20.74 70.66 20.11 70.21 19.41 69.86 18.68 69.59"/></g><g id="ad" class="bw"><polyline id="ae" class="by" points="-3.97 62.61 8.05 56.24 8.87 55.65 9.61 54.94 10.24 54.15 10.76 53.27 11.16 52.34 11.42 51.36 11.55 50.36 11.54 49.34 11.4 48.34 11.12 47.37 10.71 46.44 10.18 45.57 9.53 44.79 8.79 44.1 1.58 38.94 1.01 38.42 -.39 39.53 .34 40.24 7.73 45.54 8.29 46.08 8.77 46.69 9.16 47.36 9.46 48.07 9.66 48.82 9.76 49.58 9.75 50.36 9.64 51.12 9.42 51.86 9.11 52.57 8.7 53.23 8.2 53.83 7.63 54.35 7 54.8 -4.82 61.03"/></g><g id="ah" class="cp"><polyline id="ai" class="by" points="30.8 91.19 25.4 78.79 24.86 77.92 24.21 77.14 23.47 76.45 22.63 75.87 21.73 75.4 20.76 75.06 19.77 74.85 18.75 74.77 17.73 74.83 16.73 75.03 15.76 75.36 14.85 75.81 14 76.39 13.25 77.07 7.48 83.77 6.91 84.29 7.91 85.77 8.68 85.1 14.62 78.23 15.2 77.72 15.85 77.29 16.56 76.96 17.3 76.72 18.06 76.59 18.84 76.55 19.62 76.63 20.38 76.8 21.1 77.07 21.79 77.44 22.42 77.9 22.98 78.44 23.46 79.04 23.85 79.71 29.15 91.9"/></g><g id="al" class="ci"><polyline id="am" class="by" points="-8.87 54.37 -8.1 54.25 -7.32 54.23 -6.55 54.31 23.81 62.2 24.54 62.49 25.21 62.87 25.83 63.33 26.38 63.88 26.85 64.5 27.24 65.17 27.53 65.89 32.51 86.61 32.59 87.38 32.57 88.15 32.45 88.92 32.22 89.66 31.9 90.36 31.48 91.01 30.98 91.6 30.4 92.12 29.76 92.55 29.06 92.9 28.32 93.15 27.56 93.3 26.78 93.34 26 93.28 25.24 93.12 24.51 92.86 23.82 92.5 23.18 92.06 21.94 93.35 22.76 93.95 23.66 94.43 24.61 94.8 25.61 95.03 26.62 95.12 27.64 95.08 28.65 94.9 29.62 94.59 30.54 94.16 31.4 93.6 32.17 92.94 32.84 92.18 33.41 91.33 33.85 90.42 34.17 89.46 34.35 88.46 34.39 87.45 34.3 86.44 29.28 65.47 28.92 64.53 28.43 63.63 27.83 62.82 27.12 62.09 26.32 61.46 25.44 60.94 24.5 60.55 -6.09 52.59 -7.1 52.46 -8.13 52.46 -9.14 52.6"/></g><polygon id="ap" class="ca" points="10.58 38.05 19.24 39.99 19.98 40.25 20.67 40.61 21.3 41.06 21.87 41.59 22.36 42.18 22.77 42.84 23.08 43.55 23.29 44.29 23.4 45.06 23.41 45.83 23.31 46.6 23.11 47.34 22.81 48.06 22.41 48.72 21.93 49.33 21.37 49.87 20.74 50.32 20.05 50.69 19.33 50.97 18.57 51.14 18.71 52.92 19.71 52.71 20.68 52.37 21.58 51.9 22.42 51.32 23.16 50.63 23.81 49.84 24.35 48.98 24.76 48.05 25.04 47.08 25.19 46.08 25.2 45.06 25.08 44.06 24.81 43.08 24.42 42.15 23.91 41.27 23.28 40.47 22.54 39.77 21.72 39.16 20.83 38.68 19.87 38.32 10.98 36.31 10.23 36.09 9.52 35.78 8.85 35.38 8.25 34.89 7.72 34.33 7.27 33.7 6.91 33.01 6.64 32.29 6.48 31.53 6.42 30.76 6.47 29.99 6.62 29.23 6.87 28.5 7.22 27.81 7.66 27.17 8.18 26.6 8.77 26.1 9.43 25.68 10.14 25.36 10.88 25.14 11.65 25.01 12.43 24.99 13.21 25.08 13.96 25.26 14.68 25.55 15.36 25.93 15.98 26.4 16.53 26.94 17.01 27.56 18.58 26.69 17.98 25.88 17.27 25.15 16.47 24.52 15.59 24 14.65 23.61 13.66 23.35 12.65 23.22 11.62 23.23 10.61 23.37 9.63 23.65 8.7 24.05 7.82 24.58 7.03 25.22 6.33 25.96 5.74 26.78 5.27 27.68 4.92 28.63 4.7 29.62 4.62 30.63 4.68 31.65 4.88 32.64 5.21 33.6 5.66 34.51 6.24 35.34 6.92 36.1 7.7 36.75 8.56 37.3 9.49 37.72 10.46 38.02 10.58 38.05"/><g id="as" class="cj"><path id="at" class="by" d="M36.02,25.98l-.28-.97-.41-.93-.54-.86-3.79-4.76-.75-.69-.84-.58-.91-.47-.96-.34-1-.21-1.02-.07-1.02,.06-1,.2-.97,.33-.91,.46-.84,.57-.76,.68-.66,.78-1.39,2.16-.5,.59-.58,.52-.64,.44-.69,.35-.74,.25-.76,.15-.78,.05-.78-.05s-1.29-.37-2.42-1.9-3.06-1.72-1.51,.95c1.55,2.67,3.54,2.7,3.54,2.7l1.02,.09,1.02-.05,1-.18,.97-.32,.92-.44,.85-.56,.77-.67,.67-.77,1.53-2.35,.51-.58,.59-.51,.65-.43,.7-.34,.74-.24,.77-.14,.78-.03,.78,.07,.76,.17,.73,.27,.68,.37,.63,.46,.56,.54,3.63,4.58,.4,.66,.3,.71,.2,.75"/></g><g><g id="aw" class="bv"><polyline id="ax" class="by" points="18.45 37.3 24.29 23.27 31.76 3.67 30.09 2.98 22.63 22.59 16.79 36.62"/></g><g id="ba" class="cq"><polyline id="bb" class="by" points="20.24 67.01 21.19 66.63 22.08 66.14 22.9 65.53 23.62 64.81 24.24 64.01 24.75 63.13 25.13 62.19 25.38 61.21 25.5 60.2 25.48 59.19 25.32 58.19 25.03 57.22 24.6 56.3 24.06 55.44 23.4 54.66 22.65 53.98 21.81 53.4 17.91 51.42 17.27 50.98 16.69 50.46 16.19 49.87 15.77 49.22 15.45 48.52 15.22 47.78 15.1 47.01 15.08 46.24 15.17 45.47 15.36 44.72 18.11 38.12 18.45 37.3 16.79 36.62 16.44 37.44 13.69 44.04 13.43 45.02 13.29 46.02 13.3 47.04 13.44 48.04 13.72 49.02 14.13 49.94 14.66 50.81 15.3 51.6 16.05 52.29 16.88 52.88 20.98 54.99 21.61 55.44 22.18 55.97 22.67 56.57 23.07 57.23 23.38 57.94 23.59 58.69 23.7 59.45 23.7 60.23 23.6 60.99 23.39 61.74 23.09 62.45 22.69 63.11 22.2 63.72 21.64 64.25 21.01 64.7 20.32 65.07 19.59 65.34"/></g></g><g id="be" class="ce"><path id="bf" class="c`" d="M-5.43,39.81l.62,17.97,.18,1,.31,.96,.44,.91,.56,.85,.67,.76,.77,.67,.85,.56,.92,.44,.97,.31,16.93,3.15s1.46,.12,2.44-.38l-.65-1.67c-.6,.31-1.7,.26-1.7,.26L1.21,62.48l-.74-.25-.7-.35-.64-.44-.58-.52-.5-.59-.42-.65-.32-.7-.23-.74-.12-.76-.6-17.73"/></g><polyline id="bi" class="cb" points="10.63 61.94 11.61 61.64 12.54 61.22 13.4 60.68 14.18 60.03 14.87 59.28 15.45 58.44 15.91 57.54 16.24 56.58 18.04 47.96 18.29 47.22 18.64 46.53 19.08 45.9 27.09 37.27 27.67 36.43 28.13 35.53 28.46 34.57 28.66 33.58 28.72 32.57 28.65 31.56 28.43 30.57 28.09 29.61 27.62 28.71 27.03 27.88 26.34 27.14 25.55 26.5 24.68 25.97 23.74 25.56 22.76 25.28 21.75 25.13 20.73 25.12 19.72 25.24 18.73 25.5 19.41 27.16 20.16 26.97 20.94 26.89 21.72 26.92 22.48 27.04 23.23 27.27 23.93 27.6 24.59 28.01 25.18 28.51 25.7 29.09 26.14 29.73 26.49 30.42 26.73 31.15 26.88 31.91 26.92 32.68 26.86 33.45 26.7 34.21 26.43 34.94 26.06 35.62 25.61 36.25 17.75 44.68 17.16 45.51 16.69 46.41 16.34 47.36 14.48 56.22 14.21 56.94 13.85 57.63 13.39 58.26 12.86 58.82 12.25 59.3 11.59 59.7 10.87 60.01 10.12 60.22"/><g id="bl" class="cn"><polyline id="bm" class="by" points="34.26 26.4 34.45 27.15 34.54 27.91 34.52 28.69 34.4 29.45 34.17 30.19 33.85 30.89 33.43 31.54 32.93 32.13 32.35 32.65 31.71 33.09 31.01 33.44 30.27 33.69 29.51 33.84 28.73 33.88 27.96 33.83 27.19 33.66 26.46 33.4 25.13 32.6 25.13 32.6 19.09 27.28 17.51 28.05 23.89 33.89 24.72 34.49 25.61 34.98 26.57 35.34 27.56 35.57 28.58 35.66 29.6 35.62 30.61 35.44 31.58 35.13 32.5 34.69 33.35 34.14 34.12 33.47 34.79 32.71 35.36 31.86 35.8 30.95 36.11 29.99 36.3 28.99 36.34 27.98 36.25 26.97 36.02 25.98"/></g><g id="bp" class="ct"><polyline id="bq" class="by" points="1.01 68.31 5.21 64.18 5.81 63.68 6.47 63.26 7.17 62.94 9.77 62.19 10.63 61.94 10.12 60.22 9.26 60.47 6.67 61.23 5.73 61.63 4.86 62.16 4.07 62.8 -.31 67.1"/></g><path id="bt" class="cc" d="M20.73,25.12l-1.01,.12-.99,.26-8.34,3.36-.83,.34L.68,32.82l.45,1.73,9.1-3.69,.83-.34,8.34-3.36,.76-.18,.77-.08s1.27-.02,1.83,.24"/></g></g><polygon class="cs" points="46 2 46 98 87 74 87 26 46 2"/><path class="bx" d="M78.28,58.09c-1.24-1.97-3.38-3.15-5.72-3.15-.67,0-1.32,.1-1.96,.29-2.63-3.12-5.82-4.78-8.6-5.64,2.24-1.71,4.21-3.77,5.91-6.15,1.74,.39,3.63,.13,5.16-.83,3.16-2.01,4.1-6.2,2.1-9.35-1.25-1.97-3.39-3.15-5.72-3.15-1.28,0-2.53,.36-3.62,1.05-3.15,1.99-4.09,6.18-2.11,9.34,.13,.21,.27,.4,.42,.6-2.51,3.44-5.71,6.06-9.52,7.79h-.01c-3.53,1.61-5.62,2.12-8.62,2.12v5c4,0,5.93-1.12,10.02-2.9,1.37-.02,6.96,.18,10.99,4.75-1.51,2.16-1.66,5.11-.16,7.47,1.24,1.97,3.38,3.15,5.72,3.15,1.28,0,2.52-.36,3.61-1.04,1.54-.97,2.6-2.48,3-4.25,.4-1.76,.08-3.57-.89-5.09Zm-10.22-23.42c.42-.27,.9-.41,1.4-.41,.9,0,1.73,.46,2.22,1.22,.77,1.21,.4,2.84-.82,3.61-.41,.26-.9,.4-1.39,.4s-.97-.13-1.39-.39c-.34-.21-.62-.49-.83-.82-.77-1.22-.41-2.85,.81-3.62Zm7.06,27.6c-.15,.69-.56,1.27-1.16,1.64-.41,.26-.9,.41-1.39,.41-.91,0-1.73-.46-2.21-1.22-.75-1.18-.44-2.73,.69-3.53l.12-.08c1.21-.77,2.87-.37,3.61,.81,.38,.59,.5,1.29,.34,1.97Z"/></g><g><path class="cg" d="M116.43,6.42l9.06,28.24,9.03-28.24h12.88V47h-9.81v-9.48l.95-19.4-9.81,28.88h-6.47l-9.84-28.91,.95,19.43v9.48h-9.78V6.42h12.85Z"/><path class="cg" d="M167.77,47.56c-4.63,0-8.37-1.38-11.23-4.14-2.86-2.76-4.29-6.35-4.29-10.77v-.78c0-3.08,.57-5.81,1.71-8.17,1.14-2.36,2.81-4.19,5-5.48,2.19-1.29,4.79-1.94,7.8-1.94,4.24,0,7.58,1.31,10.03,3.94,2.45,2.63,3.68,6.29,3.68,11v3.65h-18.68c.33,1.69,1.07,3.02,2.2,3.99,1.13,.97,2.6,1.45,4.4,1.45,2.97,0,5.3-1.04,6.97-3.12l4.29,5.07c-1.17,1.62-2.83,2.9-4.98,3.86-2.15,.96-4.46,1.44-6.93,1.44Zm-1.06-24.03c-2.75,0-4.39,1.82-4.91,5.46h9.48v-.72c.04-1.5-.34-2.67-1.14-3.5-.8-.83-1.94-1.24-3.43-1.24Z"/><path class="cg" d="M200.05,38.53c0-.8-.42-1.44-1.25-1.92-.84-.48-2.42-.99-4.77-1.51-2.34-.52-4.27-1.2-5.8-2.05-1.52-.84-2.69-1.87-3.48-3.08-.8-1.21-1.2-2.59-1.2-4.15,0-2.77,1.14-5.05,3.43-6.84,2.29-1.79,5.28-2.69,8.98-2.69,3.98,0,7.17,.9,9.59,2.7,2.42,1.8,3.62,4.17,3.62,7.11h-9.42c0-2.42-1.27-3.62-3.82-3.62-.98,0-1.81,.27-2.48,.82-.67,.55-1,1.23-1,2.05s.41,1.51,1.23,2.04c.82,.52,2.12,.95,3.92,1.28,1.79,.33,3.37,.73,4.72,1.2,4.53,1.56,6.8,4.36,6.8,8.39,0,2.75-1.22,4.99-3.67,6.72-2.44,1.73-5.61,2.59-9.49,2.59-2.58,0-4.89-.46-6.91-1.39-2.03-.93-3.6-2.19-4.74-3.79-1.13-1.6-1.7-3.28-1.7-5.04h8.78c.04,1.39,.5,2.41,1.39,3.05,.89,.64,2.04,.96,3.43,.96,1.28,0,2.24-.26,2.88-.78,.64-.52,.96-1.2,.96-2.04Z"/><path class="cg" d="M229.29,38.53c0-.8-.42-1.44-1.25-1.92-.84-.48-2.42-.99-4.77-1.51-2.34-.52-4.27-1.2-5.8-2.05-1.52-.84-2.69-1.87-3.48-3.08-.8-1.21-1.2-2.59-1.2-4.15,0-2.77,1.14-5.05,3.43-6.84,2.29-1.79,5.28-2.69,8.98-2.69,3.98,0,7.17,.9,9.59,2.7,2.42,1.8,3.62,4.17,3.62,7.11h-9.42c0-2.42-1.27-3.62-3.82-3.62-.98,0-1.81,.27-2.48,.82-.67,.55-1,1.23-1,2.05s.41,1.51,1.23,2.04c.82,.52,2.12,.95,3.92,1.28,1.79,.33,3.37,.73,4.72,1.2,4.53,1.56,6.8,4.36,6.8,8.39,0,2.75-1.22,4.99-3.67,6.72-2.44,1.73-5.61,2.59-9.49,2.59-2.58,0-4.89-.46-6.91-1.39-2.03-.93-3.6-2.19-4.74-3.79-1.13-1.6-1.7-3.28-1.7-5.04h8.78c.04,1.39,.5,2.41,1.39,3.05,.89,.64,2.04,.96,3.43,.96,1.28,0,2.24-.26,2.88-.78,.64-.52,.96-1.2,.96-2.04Z"/><path class="cg" d="M254.8,33.84l5.02-17h10.06l-12.29,35.2-.53,1.28c-1.75,3.9-4.83,5.85-9.25,5.85-1.23,0-2.52-.18-3.88-.55v-6.69h1.23c1.32,0,2.33-.19,3.02-.57,.7-.38,1.21-1.07,1.55-2.05l.75-2.01-10.48-30.46h10.03l4.77,17Z"/><path class="cs" d="M103.58,93V52.42h14.58c5.22,0,9.19,.96,11.92,2.87,2.72,1.92,4.08,4.69,4.08,8.33,0,2.1-.48,3.89-1.45,5.38-.97,1.49-2.39,2.58-4.26,3.29,2.12,.56,3.74,1.6,4.88,3.12,1.13,1.52,1.7,3.38,1.7,5.58,0,3.98-1.26,6.96-3.78,8.96-2.52,2-6.25,3.01-11.19,3.05h-16.47Zm9.78-23.67h5.1c2.14-.02,3.66-.41,4.57-1.17,.91-.76,1.37-1.89,1.37-3.38,0-1.71-.49-2.95-1.48-3.7-.98-.75-2.57-1.13-4.77-1.13h-4.79v9.39Zm0,6.41v9.73h6.41c1.77,0,3.12-.4,4.07-1.21,.95-.81,1.42-1.95,1.42-3.42,0-3.38-1.68-5.08-5.04-5.1h-6.86Z"/><path class="cs" d="M158.21,71.34l-3.09-.22c-2.95,0-4.85,.93-5.69,2.79v19.09h-9.39v-30.16h8.81l.31,3.87c1.58-2.95,3.78-4.43,6.61-4.43,1,0,1.88,.11,2.62,.33l-.17,8.72Z"/><path class="cs" d="M177.75,93c-.33-.61-.63-1.51-.89-2.7-1.73,2.17-4.14,3.26-7.25,3.26-2.84,0-5.26-.86-7.25-2.58-1.99-1.72-2.98-3.88-2.98-6.48,0-3.27,1.21-5.74,3.62-7.41,2.42-1.67,5.93-2.51,10.54-2.51h2.9v-1.6c0-2.78-1.2-4.17-3.6-4.17-2.23,0-3.35,1.1-3.35,3.3h-9.39c0-2.91,1.24-5.28,3.72-7.1,2.48-1.82,5.64-2.73,9.49-2.73s6.88,.94,9.11,2.82c2.23,1.88,3.37,4.45,3.43,7.72v13.35c.04,2.77,.46,4.89,1.28,6.36v.47h-9.39Zm-5.88-6.13c1.17,0,2.14-.25,2.91-.75,.77-.5,1.32-1.07,1.66-1.7v-4.82h-2.73c-3.27,0-4.91,1.47-4.91,4.4,0,.85,.29,1.55,.86,2.08,.58,.53,1.31,.79,2.2,.79Z"/><path class="cs" d="M190.99,55.04c0-1.35,.48-2.45,1.45-3.31,.97-.86,2.22-1.29,3.76-1.29s2.8,.43,3.76,1.29c.97,.86,1.45,1.96,1.45,3.31s-.48,2.45-1.45,3.31c-.97,.86-2.22,1.29-3.76,1.29s-2.8-.43-3.76-1.29c-.97-.86-1.45-1.96-1.45-3.31Zm9.98,37.96h-9.42v-30.16h9.42v30.16Z"/><path class="cs" d="M215.38,62.84l.31,3.54c2.08-2.73,4.95-4.1,8.61-4.1,3.14,0,5.49,.94,7.04,2.82s2.36,4.7,2.41,8.47v19.43h-9.42v-19.04c0-1.52-.31-2.64-.92-3.36s-1.73-1.07-3.34-1.07c-1.84,0-3.21,.72-4.1,2.17v21.3h-9.39v-30.16h8.81Z"/><path class="cs" d="M250.03,85.75h13.74v7.25h-25.62v-5.24l13.38-17.67h-12.79v-7.25h24.72v5.07l-13.44,17.84Z"/></g></svg>