<?xml version="1.0" encoding="UTF-8"?><svg xmlns="http://www.w3.org/2000/svg" xmlns:xlink="http://www.w3.org/1999/xlink" viewBox="0 0 150 150"><defs><style>.bu{filter:url(#j);}.bv{filter:url(#au);}.bw{filter:url(#ab);}.bx{mix-blend-mode:multiply;opacity:.07;}.by{isolation:isolate;}.c`,.ca,.cb,.cc,.cd,.ce{fill:#fffedb;}.ca,.cb,.cc,.cf,.cd,.ce{stroke-width:1.5px;}.ca,.cb,.cc,.cd,.ce{stroke:#fffedb;}.cg{filter:url(#bc);}.ch{filter:url(#c);}.cb{stroke-linecap:square;stroke-linejoin:round;}.ci{fill:#b50437;}.cj{filter:url(#x);}.ck{filter:url(#aj);}.cl{filter:url(#aq);}.cc{filter:url(#an);}.cm{filter:url(#m);}.cn{clip-path:url(#b);}.co{filter:url(#t);}.cp{filter:url(#bj);}.cq{filter:url(#p);}.cf{fill:#8e0324;stroke:#8e0324;}.cr{filter:url(#af);}.cs{filter:url(#ay);}.ct{fill:none;}.cu{fill:#d3562c;}.cd{filter:url(#bg);}.ce{filter:url(#br);}.cv{fill:#eb743b;}.cw{filter:url(#bn);}</style><clipPath id="b"><polygon class="ct" points="16.5 109.1 16.5 40.9 72.5 8.69 72.5 141.19 16.5 109.1"/></clipPath><filter id="c" filterUnits="userSpaceOnUse"><feOffset dx="0" dy="3"/><feGaussianBlur result="d" stdDeviation="0"/><feFlood flood-color="#8e0324" flood-opacity="1"/><feComposite in2="d" operator="in"/><feComposite in="SourceGraphic"/></filter><filter id="j" filterUnits="userSpaceOnUse"><feOffset dx="0" dy="3"/><feGaussianBlur result="k" stdDeviation="0"/><feFlood flood-color="#8e0324" flood-opacity="1"/><feComposite in2="k" operator="in"/><feComposite in="SourceGraphic"/></filter><filter id="m" filterUnits="userSpaceOnUse"><feOffset dx="0" dy="3"/><feGaussianBlur result="n" stdDeviation="0"/><feFlood flood-color="#8e0324" flood-opacity="1"/><feComposite in2="n" operator="in"/><feComposite in="SourceGraphic"/></filter><filter id="p" filterUnits="userSpaceOnUse"><feOffset dx="0" dy="3"/><feGaussianBlur result="q" stdDeviation="0"/><feFlood flood-color="#8e0324" flood-opacity="1"/><feComposite in2="q" operator="in"/><feComposite in="SourceGraphic"/></filter><filter id="t" filterUnits="userSpaceOnUse"><feOffset dx="0" dy="3"/><feGaussianBlur result="u" stdDeviation="0"/><feFlood flood-color="#8e0324" flood-opacity="1"/><feComposite in2="u" operator="in"/><feComposite in="SourceGraphic"/></filter><filter id="x" filterUnits="userSpaceOnUse"><feOffset dx="0" dy="3"/><feGaussianBlur result="y" stdDeviation="0"/><feFlood flood-color="#8e0324" flood-opacity="1"/><feComposite in2="y" operator="in"/><feComposite in="SourceGraphic"/></filter><filter id="ab" filterUnits="userSpaceOnUse"><feOffset dx="0" dy="3"/><feGaussianBlur result="ac" stdDeviation="0"/><feFlood flood-color="#8e0324" flood-opacity="1"/><feComposite in2="ac" operator="in"/><feComposite in="SourceGraphic"/></filter><filter id="af" filterUnits="userSpaceOnUse"><feOffset dx="0" dy="3"/><feGaussianBlur result="ag" stdDeviation="0"/><feFlood flood-color="#8e0324" flood-opacity="1"/><feComposite in2="ag" operator="in"/><feComposite in="SourceGraphic"/></filter><filter id="aj" filterUnits="userSpaceOnUse"><feOffset dx="0" dy="3"/><feGaussianBlur result="ak" stdDeviation="0"/><feFlood flood-color="#8e0324" flood-opacity="1"/><feComposite in2="ak" operator="in"/><feComposite in="SourceGraphic"/></filter><filter id="an" filterUnits="userSpaceOnUse"><feOffset dx="0" dy="3"/><feGaussianBlur result="ao" stdDeviation="0"/><feFlood flood-color="#8e0324" flood-opacity="1"/><feComposite in2="ao" operator="in"/><feComposite in="SourceGraphic"/></filter><filter id="aq" filterUnits="userSpaceOnUse"><feOffset dx="0" dy="3"/><feGaussianBlur result="ar" stdDeviation="0"/><feFlood flood-color="#8e0324" flood-opacity="1"/><feComposite in2="ar" operator="in"/><feComposite in="SourceGraphic"/></filter><filter id="au" filterUnits="userSpaceOnUse"><feOffset dx="0" dy="3"/><feGaussianBlur result="av" stdDeviation="0"/><feFlood flood-color="#8e0324" flood-opacity="1"/><feComposite in2="av" operator="in"/><feComposite in="SourceGraphic"/></filter><filter id="ay" filterUnits="userSpaceOnUse"><feOffset dx="0" dy="3"/><feGaussianBlur result="b`" stdDeviation="0"/><feFlood flood-color="#8e0324" flood-opacity="1"/><feComposite in2="b`" operator="in"/><feComposite in="SourceGraphic"/></filter><filter id="bc" filterUnits="userSpaceOnUse"><feOffset dx="0" dy="3"/><feGaussianBlur result="bd" stdDeviation="0"/><feFlood flood-color="#8e0324" flood-opacity="1"/><feComposite in2="bd" operator="in"/><feComposite in="SourceGraphic"/></filter><filter id="bg" filterUnits="userSpaceOnUse"><feOffset dx="0" dy="3"/><feGaussianBlur result="bh" stdDeviation="0"/><feFlood flood-color="#8e0324" flood-opacity="1"/><feComposite in2="bh" operator="in"/><feComposite in="SourceGraphic"/></filter><filter id="bj" filterUnits="userSpaceOnUse"><feOffset dx="0" dy="3"/><feGaussianBlur result="bk" stdDeviation="0"/><feFlood flood-color="#8e0324" flood-opacity="1"/><feComposite in2="bk" operator="in"/><feComposite in="SourceGraphic"/></filter><filter id="bn" filterUnits="userSpaceOnUse"><feOffset dx="0" dy="3"/><feGaussianBlur result="bo" stdDeviation="0"/><feFlood flood-color="#8e0324" flood-opacity="1"/><feComposite in2="bo" operator="in"/><feComposite in="SourceGraphic"/></filter><filter id="br" filterUnits="userSpaceOnUse"><feOffset dx="0" dy="3"/><feGaussianBlur result="bs" stdDeviation="0"/><feFlood flood-color="#8e0324" flood-opacity="1"/><feComposite in2="bs" operator="in"/><feComposite in="SourceGraphic"/></filter></defs><g class="by"><g id="a"><g><polygon class="cv" points="77.5 3 77.5 147 138.5 112 138.5 38 77.5 3"/><polygon class="ci" points="72.5 3 11.5 38 11.5 112 72.5 147 72.5 3"/><g class="cn"><g><g id="e" class="ch"><polyline id="f" class="ca" points="10.59 42.53 9.67 43.23 8.85 44.05 8.15 44.97 7.57 45.98 7.14 47.06 6.86 48.18 6.73 49.33 6.76 50.49 6.94 51.64 7.28 52.74 7.76 53.8 8.38 54.78 9.13 55.66 9.99 56.44 10.94 57.1 11.98 57.62 13.08 57.99 14.21 58.22 15.37 58.29 16.52 58.2 17.66 57.96 18.75 57.57 19.78 57.04 20.72 56.37 21.57 55.58 22.31 54.68 22.91 53.69 23.38 52.63 23.69 50.98 24.05 49.68 26.63 50.4 26.27 51.69 25.96 53.35 25.37 54.75 24.6 56.06 23.66 57.25 22.57 58.31 21.35 59.21 20.01 59.93 18.59 60.47 17.11 60.82 15.6 60.96 14.08 60.9 12.58 60.63 11.14 60.16 9.77 59.5 8.5 58.67 7.35 57.67 6.35 56.52 5.51 55.26 4.86 53.89 4.39 52.44 4.12 50.94 4.06 49.43 4.2 47.91 4.54 46.43 5.08 45.01 5.8 43.68 6.7 42.45 7.76 41.36 8.95 40.42"/></g><g id="g"><polyline id="h" class="cf" points="23.69 58.26 24.71 57.14 25.57 55.88 26.26 54.53 26.75 53.09 27.05 51.6 27.14 50.08 27.03 48.57 26.72 47.08 26.21 45.65 25.51 44.3 24.63 43.06 23.6 41.95 22.42 40.98 21.13 40.19 19.74 39.57 18.28 39.15 16.77 38.93 -1.97 38.56 -3.31 38.54 -3.36 41.21 -2.02 41.24 16.72 41.6 17.87 41.79 18.97 42.14 20.02 42.63 21 43.25 21.88 44 22.65 44.87 23.3 45.83 23.82 46.86 24.19 47.96 24.41 49.1 24.47 50.26 24.38 51.41 24.13 52.55 23.73 53.63 23.19 54.66 22.52 55.6 21.72 56.45"/><polyline id="i" class="ca" points="23.69 55.26 24.71 54.14 25.57 52.88 26.26 51.53 26.75 50.09 27.05 48.6 27.14 47.08 27.03 45.57 26.72 44.08 26.21 42.65 25.51 41.3 24.63 40.06 23.6 38.95 22.42 37.98 21.13 37.19 19.74 36.57 18.28 36.15 16.77 35.93 -1.97 35.56 -3.31 35.54 -3.36 38.21 -2.02 38.24 16.72 38.6 17.87 38.79 18.97 39.14 20.02 39.63 21 40.25 21.88 41 22.65 41.87 23.3 42.83 23.82 43.86 24.19 44.96 24.41 46.1 24.47 47.26 24.38 48.41 24.13 49.55 23.73 50.63 23.19 51.66 22.52 52.6 21.72 53.45"/></g><g><g class="bu"><polyline id="l" class="c`" points="52.87 74.97 53.07 74.82 53.29 74.67 53.52 74.51 53.76 74.36 55.01 73.64 55.3 73.49 55.61 73.34 55.94 73.19 56.31 73.05 56.6 72.94 56.81 72.87 56.91 72.84 57.01 72.81 57.12 72.78 57.23 72.74 57.35 72.71 57.47 72.68 57.6 72.65 59.56 72.21 59.73 72.17 59.91 72.14 60.1 72.11 60.29 72.08 60.5 72.05 60.71 72.03 60.94 72.01 61.17 72 61.41 71.99 76.88 71.98 77.5 71.98 77.5 68 76.88 68 61.41 68.01 61.06 68.02 60.73 68.03 60.41 68.06 60.1 68.09 59.81 68.12 59.53 68.16 59.26 68.21 59 68.26 58.75 68.31 56.73 68.76 56.54 68.81 56.37 68.85 56.2 68.9 56.04 68.94 55.88 68.99 55.73 69.03 55.59 69.08 55.34 69.16 54.97 69.29 54.49 69.48 54.02 69.69 53.57 69.9 53.15 70.12 51.78 70.91 51.43 71.12 51.1 71.34 50.78 71.56 50.49 71.78"/></g><g class="cm"><polyline id="o" class="c`" points="49.8 78.39 49.84 78.32 49.87 78.25 49.92 78.17 49.96 78.09 50.01 78.01 50.06 77.93 50.11 77.84 50.17 77.75 50.23 77.66 50.29 77.57 50.35 77.47 50.43 77.37 50.5 77.26 50.58 77.16 50.66 77.04 50.75 76.93 50.85 76.81 50.95 76.69 51.06 76.57 51.17 76.44 51.29 76.31 51.42 76.18 51.56 76.04 51.7 75.91 51.86 75.77 52.02 75.62 52.2 75.48 52.38 75.33 52.62 75.15 52.87 74.97 50.49 71.78 50.25 71.96 50.01 72.14 49.74 72.34 49.49 72.55 49.25 72.75 49.03 72.95 48.82 73.15 48.62 73.34 48.44 73.53 48.27 73.72 48.1 73.9 47.95 74.08 47.8 74.25 47.66 74.42 47.54 74.58 47.41 74.74 47.3 74.89 47.19 75.04 47.09 75.19 46.99 75.33 46.9 75.46 46.82 75.59 46.74 75.72 46.66 75.85 46.59 75.96 46.52 76.08 46.46 76.19 46.4 76.3 46.34 76.4 46.29 76.5"/></g></g><g id="r" class="cq"><polyline id="s" class="ca" points="-24.16 50.5 34.65 82.72 36.07 83.26 37.55 83.6 39.06 83.75 40.58 83.69 42.08 83.42 43.53 82.96 44.9 82.3 46.17 81.47 47.32 80.47 48.32 79.33 49.16 78.06 46.75 76.88 46.1 77.83 45.32 78.69 44.43 79.43 43.45 80.05 42.39 80.53 41.28 80.86 40.14 81.05 38.98 81.07 37.83 80.94 36.7 80.65 35.63 80.22 -22.86 48.16"/></g><g id="v" class="co"><path id="w" class="ca" d="M10.77,97l.94,5.46,.47,1.45,.66,1.37,.84,1.27,1,1.15,1.14,1,1.27,.84,1.37,.66,1.45,.47,1.5,.27,1.52,.07,1.51-.14,1.48-.34,1.42-.54,1.34-.73c4.4-2.17,2.53-4.48,8.74-4.45l-.16-2.9c-5.31-.76-7.11,3.68-10.15,5.18l-1.03,.53-1.09,.39-1.13,.24-1.16,.09-1.16-.07-1.14-.23-1.1-.38-1.04-.52-.96-.66-.86-.78-.75-.89-.62-.98-.48-1.05-.34-1.11-3.93-12.15"/></g><g id="a`" class="cj"><polyline id="aa" class="ca" points="37.25 101.88 38.67 102.42 40 103.14 41.23 104.04 42.32 105.1 43.26 106.29 44.04 107.6 44.62 109 45.02 110.47 45.21 111.98 45.2 113.5 44.99 115 44.57 116.46 43.96 117.85 43.17 119.15 42.21 120.33 41.1 121.37 39.86 122.25 38.51 122.95 37.09 123.47 35.6 123.79 34.09 123.91 15.54 122.97 14.38 123.06 13.25 123.3 12.16 123.69 11.13 124.23 10.19 124.9 3.26 131.48 2.02 132.36 .67 133.06 -.76 133.58 -2.24 133.9 -3.76 134.02 -5.28 133.93 -6.77 133.64 -8.21 133.15 -9.57 132.47 -10.82 131.62 -11.95 130.6 -12.93 129.44 -13.75 128.16 -14.39 126.78 -14.83 125.32 -12.19 124.87 -11.83 125.97 -11.33 127.02 -10.68 127.98 -9.92 128.85 -9.04 129.61 -8.07 130.25 -7.03 130.74 -5.92 131.1 -4.78 131.3 -3.62 131.34 -2.47 131.23 -1.34 130.97 -.26 130.55 .76 130 1.69 129.31 8.34 122.96 9.56 122.06 10.9 121.33 12.32 120.79 13.8 120.45 15.31 120.31 34.22 121.23 35.37 121.12 36.5 120.86 37.58 120.44 38.6 119.89 39.53 119.2 40.36 118.39 41.08 117.48 41.66 116.48 42.11 115.41 42.4 114.29 42.55 113.14 42.53 111.98 42.37 110.83 42.04 109.72 41.58 108.66 40.97 107.67 40.23 106.77 39.38 105.99 38.44 105.32 37.41 104.78 36.32 104.39"/></g><g id="ad" class="bw"><polyline id="ae" class="ca" points="2.62 93.91 20.5 84.37 21.73 83.47 22.82 82.41 23.76 81.22 24.53 79.91 25.12 78.51 25.52 77.04 25.71 75.54 25.7 74.02 25.48 72.51 25.07 71.05 24.46 69.66 23.67 68.36 22.71 67.18 21.6 66.14 10.88 58.41 10.03 57.62 7.94 59.3 9.03 60.35 20.03 68.31 20.86 69.12 21.57 70.03 22.16 71.03 22.6 72.1 22.9 73.22 23.04 74.37 23.03 75.53 22.86 76.68 22.54 77.79 22.07 78.85 21.47 79.84 20.73 80.74 19.88 81.53 18.94 82.19 1.36 91.55"/></g><g id="ah" class="cr"><polyline id="ai" class="ca" points="54.36 136.78 46.31 118.18 45.51 116.89 44.55 115.71 43.44 114.68 42.2 113.8 40.85 113.1 39.42 112.58 37.93 112.27 36.42 112.16 34.9 112.25 33.41 112.54 31.97 113.04 30.61 113.72 29.36 114.58 28.23 115.6 19.66 125.65 18.8 126.43 20.3 128.65 21.44 127.65 30.27 117.34 31.14 116.58 32.11 115.94 33.16 115.44 34.26 115.08 35.4 114.88 36.56 114.83 37.71 114.94 38.84 115.2 39.92 115.61 40.94 116.17 41.88 116.85 42.71 117.66 43.43 118.57 44.01 119.57 51.9 137.85"/></g><g id="al" class="ck"><polyline id="am" class="ca" points="-4.67 81.55 -3.53 81.37 -2.37 81.34 -1.22 81.47 43.95 93.3 45.03 93.73 46.04 94.3 46.96 95 47.78 95.82 48.48 96.75 49.05 97.75 49.48 98.83 56.89 129.92 57.02 131.07 56.99 132.23 56.8 133.37 56.47 134.48 55.98 135.54 55.36 136.51 54.61 137.4 53.75 138.18 52.79 138.83 51.76 139.35 50.66 139.72 49.52 139.95 48.37 140.02 47.21 139.93 46.08 139.68 44.99 139.29 43.96 138.75 43.02 138.08 41.17 140.02 42.39 140.92 43.72 141.65 45.14 142.19 46.62 142.54 48.14 142.68 49.65 142.62 51.15 142.36 52.6 141.89 53.97 141.24 55.24 140.4 56.39 139.41 57.39 138.26 58.23 137 58.89 135.63 59.36 134.18 59.63 132.69 59.7 131.17 59.56 129.66 52.08 98.21 51.55 96.79 50.82 95.45 49.93 94.22 48.87 93.13 47.68 92.19 46.37 91.41 44.97 90.82 -.54 78.88 -2.05 78.68 -3.57 78.69 -5.07 78.91"/></g><polygon id="ap" class="cc" points="24.27 57.07 37.15 59.98 38.24 60.38 39.27 60.91 40.21 61.59 41.06 62.38 41.79 63.28 42.4 64.27 42.86 65.33 43.18 66.44 43.34 67.59 43.35 68.75 43.2 69.9 42.9 71.02 42.45 72.09 41.87 73.08 41.15 73.99 40.31 74.8 39.38 75.48 38.36 76.04 37.28 76.45 36.15 76.71 36.37 79.38 37.85 79.06 39.28 78.55 40.63 77.85 41.88 76.98 42.99 75.94 43.95 74.76 44.75 73.47 45.36 72.08 45.78 70.62 46 69.12 46.02 67.6 45.83 66.09 45.44 64.62 44.86 63.22 44.09 61.91 43.16 60.71 42.07 59.65 40.84 58.75 39.51 58.02 38.09 57.47 24.86 54.46 23.74 54.14 22.68 53.68 21.69 53.07 20.8 52.34 20.01 51.49 19.34 50.55 18.8 49.52 18.41 48.43 18.16 47.29 18.07 46.14 18.14 44.98 18.37 43.84 18.74 42.75 19.26 41.71 19.91 40.76 20.69 39.89 21.58 39.15 22.56 38.53 23.61 38.04 24.72 37.7 25.86 37.52 27.02 37.49 28.17 37.61 29.3 37.9 30.37 38.32 31.38 38.9 32.3 39.6 33.12 40.42 33.83 41.34 36.17 40.04 35.27 38.82 34.22 37.72 33.02 36.78 31.72 36.01 30.31 35.42 28.85 35.02 27.34 34.83 25.82 34.84 24.32 35.06 22.85 35.47 21.46 36.08 20.16 36.87 18.99 37.83 17.95 38.94 17.07 40.18 16.36 41.52 15.84 42.95 15.52 44.44 15.4 45.95 15.49 47.47 15.78 48.96 16.27 50.4 16.95 51.76 17.8 53.02 18.82 54.15 19.98 55.13 21.26 55.95 22.64 56.58 24.09 57.03 24.27 57.07"/><g id="as" class="cl"><path id="at" class="ca" d="M62.11,38.97l-.42-1.46-.62-1.39-.8-1.29-5.65-7.14-1.11-1.03-1.24-.87-1.35-.7-1.43-.51-1.49-.31-1.52-.11-1.52,.09-1.49,.3-1.44,.5-1.36,.69-1.25,.86-1.12,1.02-.98,1.16-2.06,3.24-.74,.89-.86,.78-.95,.66-1.03,.53-1.09,.38-1.14,.23-1.16,.08-1.16-.08s-1.92-.55-3.59-2.85-4.56-2.59-2.25,1.42,5.27,4.05,5.27,4.05l1.51,.13,1.52-.07,1.49-.27,1.44-.47,1.37-.66,1.27-.84,1.14-1,1-1.15,2.28-3.53,.76-.87,.87-.76,.97-.64,1.04-.5,1.1-.36,1.14-.21,1.16-.05,1.15,.11,1.13,.26,1.08,.41,1.02,.55,.94,.68,.83,.8,5.4,6.88,.59,1,.45,1.07,.3,1.12"/></g><g><g id="aw" class="bv"><polyline id="ax" class="ca" points="35.98 55.95 44.67 34.9 55.77 5.5 53.3 4.48 42.19 33.88 33.5 54.92"/></g><g id="ba" class="cs"><polyline id="bb" class="ca" points="38.64 100.51 40.06 99.95 41.38 99.21 42.59 98.29 43.67 97.22 44.6 96.01 45.35 94.69 45.92 93.28 46.29 91.81 46.46 90.3 46.43 88.78 46.19 87.28 45.76 85.83 45.13 84.44 44.32 83.16 43.34 81.99 42.22 80.97 40.97 80.11 35.17 77.13 34.22 76.47 33.36 75.69 32.61 74.81 31.99 73.83 31.51 72.77 31.17 71.66 30.99 70.52 30.96 69.36 31.09 68.21 31.37 67.09 35.47 57.18 35.98 55.95 33.5 54.92 32.99 56.16 28.9 66.06 28.5 67.53 28.3 69.04 28.31 70.56 28.53 72.06 28.94 73.52 29.55 74.92 30.34 76.22 31.29 77.4 32.4 78.44 33.64 79.32 39.74 82.49 40.68 83.16 41.52 83.96 42.25 84.86 42.85 85.85 43.31 86.92 43.62 88.03 43.78 89.18 43.79 90.34 43.63 91.49 43.33 92.6 42.87 93.67 42.28 94.67 41.56 95.57 40.72 96.37 39.78 97.06 38.76 97.6 37.68 98.01"/></g></g><g id="be" class="cg"><path id="bf" class="cb" d="M.44,59.71l.93,26.95,.27,1.5,.47,1.45,.66,1.37,.84,1.27,1,1.14,1.14,1,1.27,.84,1.37,.66,1.45,.47,25.19,4.72s2.18,.18,3.63-.56l-.96-2.5c-.9,.46-2.53,.39-2.53,.39l-24.83-4.68-1.1-.38-1.04-.52-.96-.66-.86-.78-.75-.89-.62-.98-.48-1.05-.34-1.11-.18-1.14-.89-26.59"/></g><polyline id="bi" class="cd" points="24.34 92.9 25.79 92.46 27.18 91.83 28.46 91.02 29.62 90.04 30.65 88.92 31.51 87.67 32.19 86.31 32.69 84.87 35.36 71.93 35.73 70.84 36.25 69.8 36.91 68.84 48.83 55.91 49.69 54.65 50.37 53.3 50.87 51.86 51.16 50.37 51.26 48.85 51.14 47.34 50.83 45.85 50.32 44.42 49.62 43.07 48.74 41.83 47.71 40.71 46.53 39.75 45.24 38.95 43.85 38.34 42.39 37.92 40.89 37.7 39.37 37.68 37.86 37.87 36.39 38.25 37.4 40.74 38.52 40.46 39.67 40.34 40.83 40.37 41.98 40.56 43.08 40.91 44.13 41.39 45.11 42.02 45.99 42.77 46.77 43.64 47.42 44.59 47.93 45.63 48.3 46.73 48.52 47.87 48.58 49.03 48.49 50.18 48.24 51.31 47.84 52.4 47.3 53.43 46.63 54.37 34.94 67.03 34.06 68.27 33.35 69.61 32.83 71.04 30.06 84.33 29.66 85.42 29.12 86.44 28.45 87.38 27.66 88.23 26.75 88.96 25.76 89.56 24.7 90.02 23.58 90.33"/><g id="bl" class="cp"><polyline id="bm" class="ca" points="59.5 39.6 59.79 40.72 59.91 41.87 59.88 43.03 59.7 44.17 59.36 45.28 58.88 46.34 58.26 47.32 57.51 48.2 56.65 48.98 55.7 49.63 54.66 50.15 53.57 50.53 52.43 50.76 51.27 50.83 50.12 50.74 48.98 50.5 47.89 50.11 45.92 48.9 45.92 48.9 36.93 40.93 34.58 42.08 44.07 50.84 45.3 51.74 46.63 52.47 48.05 53.01 49.53 53.35 51.04 53.49 52.56 53.43 54.06 53.16 55.51 52.7 56.88 52.04 58.15 51.2 59.29 50.21 60.29 49.06 61.13 47.79 61.79 46.42 62.26 44.98 62.52 43.48 62.59 41.97 62.45 40.45 62.11 38.97"/></g><g id="bp" class="cw"><polyline id="bq" class="ca" points="10.03 102.46 16.28 96.26 17.17 95.52 18.15 94.9 19.2 94.41 23.05 93.28 24.34 92.9 23.58 90.33 22.3 90.71 18.44 91.84 17.05 92.45 15.75 93.24 14.58 94.2 8.07 100.65"/></g><path id="bt" class="ce" d="M39.37,37.68l-1.51,.19-1.47,.39-12.41,5.04-1.24,.5-13.2,5.42,.66,2.59,13.54-5.54,1.24-.5,12.41-5.04,1.13-.28,1.15-.12s1.89-.02,2.73,.36"/></g></g><g><g class="bx"><path d="M94.8,94.73c.39-.64,1.07-1.03,1.82-1.03,.38,0,.75,.1,1.08,.3,1,.6,1.33,1.9,.74,2.9-.38,.65-1.06,1.03-1.82,1.03-.38,0-.75-.1-1.08-.3-.48-.29-.83-.75-.96-1.29-.14-.55-.06-1.12,.23-1.6Zm12.6,22.36c-.49,.42-1.02,.51-1.37,.51-.62,0-1.21-.27-1.61-.73-.76-.88-.65-2.22,.23-2.98,.49-.42,1.02-.51,1.37-.51,.62,0,1.2,.27,1.61,.74,.37,.43,.55,.98,.5,1.54-.04,.56-.3,1.07-.73,1.44Z"/><path d="M86.5,48.61c.07,.02,.14,.03,.21,.05-.07-.01-.14-.03-.21-.05Z"/><path d="M97.88,58.26c.17-.27,.39-.49,.67-.66,.33-.21,.72-.32,1.12-.32s.79,.11,1.12,.32c.99,.63,1.28,1.94,.66,2.92-.39,.62-1.06,.99-1.79,.99-.4,0-.79-.11-1.12-.33-.98-.62-1.28-1.94-.66-2.92Zm6.38-20.19c-.6,.95-1.94,1.27-2.91,.65l-.1-.06c-.91-.65-1.16-1.9-.56-2.85,.39-.61,1.05-.98,1.78-.98,.4,0,.79,.11,1.12,.33,.48,.3,.81,.78,.94,1.33,.12,.55,.03,1.11-.28,1.58Z"/><path d="M121.03,49.67c.39-.61,1.05-.98,1.78-.98,.4,0,.79,.11,1.12,.33,.48,.3,.81,.78,.94,1.33,.12,.55,.02,1.11-.28,1.58-.6,.95-1.94,1.27-2.91,.65l-.09-.06c-.92-.65-1.16-1.9-.56-2.85Zm0,23.46c.39-.61,1.05-.98,1.78-.98,.4,0,.79,.11,1.12,.33,.48,.3,.81,.77,.94,1.33,.12,.55,.02,1.11-.28,1.58-.6,.95-1.94,1.27-2.91,.65l-.09-.06c-.92-.65-1.16-1.9-.56-2.85Zm0,26.3c.39-.61,1.05-.98,1.78-.98,.4,0,.79,.11,1.12,.33,.48,.3,.81,.78,.94,1.33,.12,.55,.02,1.11-.28,1.58-.6,.95-1.94,1.27-2.91,.65l-.09-.06c-.92-.65-1.16-1.9-.56-2.85Z"/><path d="M110.68,109.1c-1.17-1.36-2.86-2.14-4.65-2.14-1.46,0-2.88,.53-3.98,1.48-1.61,1.38-2.33,3.43-2.09,5.4-1.95,.7-4.26,1.37-5.33,1.33-.82-.04-1.3-.35-2.22-.97-1.17-.79-2.42-1.51-4.15-1.85,2.94-2.76,6.01-6.83,8.58-12.83,2.06-.08,3.98-1.19,5.04-2.97,1.72-2.9,.77-6.66-2.12-8.39-.95-.57-2.03-.86-3.13-.86-2.15,0-4.16,1.14-5.26,2.99-.84,1.41-1.08,3.05-.68,4.64,.35,1.39,1.16,2.59,2.3,3.43-4.05,9.22-9.22,13.08-12.57,14.68-.13,.04-.25,.1-.36,.17-1.19,.53-2.05,.7-2.56,.81v4c.28-.03,1.88-.12,4.25-1.19,5.35-1.36,6.84-.35,8.41,.71,1.02,.69,2.29,1.55,4.26,1.66,.1,0,.2,0,.31,0,2.11,0,5.17-1.02,7.02-1.72,1.14,1.12,2.68,1.75,4.29,1.75h0c1.46,0,2.88-.52,3.98-1.48,1.24-1.06,1.99-2.55,2.12-4.18,.12-1.63-.39-3.21-1.46-4.45Zm-15.87-16.78c.39-.64,1.07-1.03,1.82-1.03,.38,0,.75,.1,1.08,.3,1,.6,1.33,1.9,.74,2.9-.38,.65-1.06,1.03-1.82,1.03-.38,0-.75-.1-1.08-.3-.48-.29-.83-.75-.96-1.29-.14-.55-.06-1.12,.23-1.6Zm12.6,22.36c-.49,.42-1.02,.51-1.37,.51-.62,0-1.21-.27-1.61-.73-.76-.88-.65-2.22,.23-2.98,.49-.42,1.02-.51,1.37-.51,.62,0,1.2,.27,1.61,.74,.37,.43,.55,.98,.5,1.54-.04,.56-.3,1.07-.73,1.44Z"/><path d="M86.5,46.21c.07,.02,.14,.03,.21,.05-.07-.01-.14-.03-.21-.05Z"/><path d="M108.45,33.2c-.36-1.6-1.32-2.96-2.71-3.84-.98-.62-2.11-.94-3.26-.94-2.12,0-4.05,1.07-5.17,2.85-1.35,2.14-1.22,4.8,.14,6.76-3.65,4.12-8.71,4.31-9.94,4.29-3.69-1.6-7.23-2.16-10-2.32v4c2.44,.14,5.55,.69,8.75,2.14h.01c3.45,1.57,6.33,3.93,8.61,7.05-.14,.17-.26,.35-.38,.54-1.8,2.85-.94,6.64,1.9,8.44,.98,.62,2.11,.95,3.27,.95,2.11,0,4.05-1.07,5.18-2.85,1.81-2.85,.95-6.64-1.91-8.45-1.38-.87-3.09-1.11-4.67-.75-1.54-2.15-3.32-4.02-5.34-5.57,2.52-.78,5.4-2.27,7.78-5.1,.57,.17,1.17,.27,1.77,.27,2.12,0,4.05-1.07,5.17-2.85,.88-1.38,1.16-3.01,.8-4.6Zm-10.57,22.65c.17-.27,.39-.49,.67-.66,.33-.21,.72-.32,1.12-.32s.79,.11,1.12,.32c.99,.63,1.28,1.94,.66,2.92-.39,.62-1.06,.99-1.79,.99-.4,0-.79-.11-1.12-.33-.98-.62-1.28-1.94-.66-2.92Zm6.38-20.19c-.6,.95-1.94,1.27-2.91,.65l-.1-.06c-.91-.65-1.16-1.9-.56-2.85,.39-.61,1.05-.98,1.78-.98,.4,0,.79,.11,1.12,.33,.48,.3,.81,.78,.94,1.33,.12,.55,.03,1.11-.28,1.58Z"/><path d="M117.15,74.19c.42,1.04,1.14,1.96,2.11,2.65,.07,.05,.15,.11,.28,.19,.98,.62,2.11,.95,3.27,.95,2.12,0,4.05-1.07,5.17-2.85,.88-1.38,1.16-3.01,.8-4.6-.36-1.6-1.32-2.96-2.71-3.84-.98-.62-2.11-.94-3.27-.94-.12,0-.25,0-.38,.02-.71-3.16-.92-7.77,.04-11.26,.11,.01,.22,.02,.34,.02,2.12,0,4.05-1.07,5.17-2.85,.88-1.38,1.16-3.01,.8-4.6-.36-1.6-1.32-2.96-2.71-3.84-.98-.62-2.11-.94-3.27-.94-2.11,0-4.05,1.07-5.17,2.85-1.6,2.53-1.12,5.8,1.02,7.76,.02,.02,.05,.04,.07,.06-1.35,4.52-1.15,10.32-.04,14.42-.14,.13-.29,.25-.43,.4-.23,.25-.45,.53-.63,.82-.32,.5-.55,1.03-.71,1.58-3.37,.49-5.2,1.67-6.82,2.73-2.04,1.32-3.96,2.57-9.64,2.67-1.96-.23-3.55-.18-5.29-.12-1.43,.05-2.91,.11-4.85,0-1.33-.07-2.1-.88-3.46-2.42-1.8-2.05-4.22-4.65-9.37-5.02v4c3.29,.3,4.8,1.89,6.36,3.67,1.49,1.69,3.17,3.62,6.26,3.78,2.12,.11,3.76,.05,5.21,0,2.49-.09,4.45-.16,7.86,.68,2.61,.64,12.1,9.67,14.77,14.32-.11,.14-.22,.28-.31,.43-1.74,2.75-1.03,6.38,1.62,8.25,.07,.05,.15,.1,.28,.19,.98,.62,2.11,.95,3.27,.95,2.12,0,4.05-1.07,5.17-2.85,.88-1.37,1.16-3.01,.8-4.6-.36-1.6-1.32-2.96-2.71-3.84-.98-.62-2.11-.94-3.27-.94-.53,0-1.05,.07-1.54,.2-2.56-4.19-8.65-10.46-13.19-13.79,1.81-.63,3.05-1.43,4.21-2.19,1.43-.93,2.61-1.69,4.86-2.07Zm3.88-26.92c.39-.61,1.05-.98,1.78-.98,.4,0,.79,.11,1.12,.33,.48,.3,.81,.78,.94,1.33,.12,.55,.02,1.11-.28,1.58-.6,.95-1.94,1.27-2.91,.65l-.09-.06c-.92-.65-1.16-1.9-.56-2.85Zm0,23.46c.39-.61,1.05-.98,1.78-.98,.4,0,.79,.11,1.12,.33,.48,.3,.81,.77,.94,1.33,.12,.55,.02,1.11-.28,1.59-.6,.95-1.94,1.27-2.91,.65l-.09-.06c-.92-.65-1.16-1.9-.56-2.85Zm0,26.3c.39-.61,1.05-.98,1.78-.98,.4,0,.79,.11,1.12,.33,.48,.3,.81,.78,.94,1.33,.12,.55,.02,1.11-.28,1.58-.6,.95-1.94,1.27-2.91,.65l-.09-.06c-.92-.65-1.16-1.9-.56-2.85Z"/></g><g><g><path class="cu" d="M110.68,112.1c-1.17-1.36-2.86-2.14-4.65-2.14-1.46,0-2.88,.53-3.98,1.48-1.61,1.38-2.33,3.43-2.09,5.4-1.95,.7-4.26,1.37-5.33,1.33-.82-.04-1.3-.35-2.22-.97-1.17-.79-2.42-1.51-4.15-1.85,2.94-2.76,6.01-6.83,8.58-12.83,2.06-.08,3.98-1.19,5.04-2.97,1.72-2.9,.77-6.66-2.12-8.39-.95-.57-2.03-.86-3.13-.86-2.15,0-4.16,1.14-5.26,2.99-.84,1.41-1.08,3.05-.68,4.64,.35,1.39,1.16,2.59,2.3,3.43-4.05,9.22-9.22,13.08-12.57,14.68-.13,.04-.25,.1-.36,.17-1.19,.53-2.05,.7-2.56,.81v4c.28-.03,1.88-.12,4.25-1.19,5.35-1.36,6.84-.35,8.41,.71,1.02,.69,2.29,1.55,4.26,1.66,.1,0,.2,0,.31,0,2.11,0,5.17-1.02,7.02-1.72,1.14,1.12,2.68,1.75,4.29,1.75h0c1.46,0,2.88-.52,3.98-1.48,1.24-1.06,1.99-2.55,2.12-4.18,.12-1.63-.39-3.21-1.46-4.45Zm-15.87-16.78c.39-.64,1.07-1.03,1.82-1.03,.38,0,.75,.1,1.08,.3,1,.6,1.33,1.9,.74,2.9-.38,.65-1.06,1.03-1.82,1.03-.38,0-.75-.1-1.08-.3-.48-.29-.83-.75-.96-1.29-.14-.55-.06-1.12,.23-1.6Zm12.6,22.36c-.49,.42-1.02,.51-1.37,.51-.62,0-1.21-.27-1.61-.73-.76-.88-.65-2.22,.23-2.98,.49-.42,1.02-.51,1.37-.51,.62,0,1.2,.27,1.61,.74,.37,.43,.55,.98,.5,1.54-.04,.56-.3,1.07-.73,1.44Z"/><path d="M86.5,48.61c.07,.02,.14,.03,.21,.05-.07-.01-.14-.03-.21-.05Z"/><path class="cu" d="M108.45,35.21c-.36-1.6-1.32-2.96-2.71-3.84-.98-.62-2.11-.94-3.26-.94-2.12,0-4.05,1.07-5.17,2.85-1.35,2.14-1.22,4.8,.14,6.76-3.65,4.12-8.71,4.31-9.94,4.29-3.69-1.6-7.23-2.16-10-2.32v4c2.44,.14,5.55,.69,8.75,2.14h.01c3.45,1.57,6.33,3.93,8.61,7.05-.14,.17-.26,.35-.38,.54-1.8,2.85-.94,6.64,1.9,8.44,.98,.62,2.11,.95,3.27,.95,2.11,0,4.05-1.07,5.18-2.85,1.81-2.85,.95-6.64-1.91-8.45-1.38-.87-3.09-1.11-4.67-.75-1.54-2.15-3.32-4.02-5.34-5.57,2.52-.78,5.4-2.27,7.78-5.1,.57,.17,1.17,.27,1.77,.27,2.12,0,4.05-1.07,5.17-2.85,.88-1.38,1.16-3.01,.8-4.6Zm-10.57,22.65c.17-.27,.39-.49,.67-.66,.33-.21,.72-.32,1.12-.32s.79,.11,1.12,.32c.99,.63,1.28,1.94,.66,2.92-.39,.62-1.06,.99-1.79,.99-.4,0-.79-.11-1.12-.33-.98-.62-1.28-1.94-.66-2.92Zm6.38-20.19c-.6,.95-1.94,1.27-2.91,.65l-.1-.06c-.91-.65-1.16-1.9-.56-2.85,.39-.61,1.05-.98,1.78-.98,.4,0,.79,.11,1.12,.33,.48,.3,.81,.78,.94,1.33,.12,.55,.03,1.11-.28,1.58Z"/><path class="cu" d="M117.15,77.19c.42,1.04,1.14,1.96,2.11,2.65,.07,.05,.15,.11,.28,.19,.98,.62,2.11,.95,3.27,.95,2.12,0,4.05-1.07,5.17-2.85,.88-1.38,1.16-3.01,.8-4.6-.36-1.6-1.32-2.96-2.71-3.84-.98-.62-2.11-.94-3.27-.94-.12,0-.25,0-.38,.02-.71-3.16-.92-7.77,.04-11.26,.11,.01,.22,.02,.34,.02,2.12,0,4.05-1.07,5.17-2.85,.88-1.38,1.16-3.01,.8-4.6-.36-1.6-1.32-2.96-2.71-3.84-.98-.62-2.11-.94-3.27-.94-2.11,0-4.05,1.07-5.17,2.85-1.6,2.53-1.12,5.8,1.02,7.76,.02,.02,.05,.04,.07,.06-1.35,4.52-1.15,10.32-.04,14.42-.14,.13-.29,.25-.43,.4-.23,.25-.45,.53-.63,.82-.32,.5-.55,1.03-.71,1.58-3.37,.49-5.2,1.67-6.82,2.73-2.04,1.32-3.96,2.57-9.64,2.67-1.96-.23-3.55-.18-5.29-.12-1.43,.05-2.91,.11-4.85,0-1.33-.07-2.1-.88-3.46-2.42-1.8-2.05-4.22-4.65-9.37-5.02v4c3.29,.3,4.8,1.89,6.36,3.67,1.49,1.69,3.17,3.62,6.26,3.78,2.12,.11,3.76,.05,5.21,0,2.49-.09,4.45-.16,7.86,.68,2.61,.64,12.1,9.67,14.77,14.32-.11,.14-.22,.28-.31,.43-1.74,2.75-1.03,6.38,1.62,8.25,.07,.05,.15,.1,.28,.19,.98,.62,2.11,.95,3.27,.95,2.12,0,4.05-1.07,5.17-2.85,.88-1.37,1.16-3.01,.8-4.6-.36-1.6-1.32-2.96-2.71-3.84-.98-.62-2.11-.94-3.27-.94-.53,0-1.05,.07-1.54,.2-2.56-4.19-8.65-10.46-13.19-13.79,1.81-.63,3.05-1.43,4.21-2.19,1.43-.93,2.61-1.69,4.86-2.07Zm3.88-26.92c.39-.61,1.05-.98,1.78-.98,.4,0,.79,.11,1.12,.33,.48,.3,.81,.78,.94,1.33,.12,.55,.02,1.11-.28,1.58-.6,.95-1.94,1.27-2.91,.65l-.09-.06c-.92-.65-1.16-1.9-.56-2.85Zm0,23.46c.39-.61,1.05-.98,1.78-.98,.4,0,.79,.11,1.12,.33,.48,.3,.81,.77,.94,1.33,.12,.55,.02,1.11-.28,1.59-.6,.95-1.94,1.27-2.91,.65l-.09-.06c-.92-.65-1.16-1.9-.56-2.85Zm0,26.3c.39-.61,1.05-.98,1.78-.98,.4,0,.79,.11,1.12,.33,.48,.3,.81,.78,.94,1.33,.12,.55,.02,1.11-.28,1.58-.6,.95-1.94,1.27-2.91,.65l-.09-.06c-.92-.65-1.16-1.9-.56-2.85Z"/></g><g><path class="c`" d="M110.68,109.1c-1.17-1.36-2.86-2.14-4.65-2.14-1.46,0-2.88,.53-3.98,1.48-1.61,1.38-2.33,3.43-2.09,5.4-1.95,.7-4.26,1.37-5.33,1.33-.82-.04-1.3-.35-2.22-.97-1.17-.79-2.42-1.51-4.15-1.85,2.94-2.76,6.01-6.83,8.58-12.83,2.06-.08,3.98-1.19,5.04-2.97,1.72-2.9,.77-6.66-2.12-8.39-.95-.57-2.03-.86-3.13-.86-2.15,0-4.16,1.14-5.26,2.99-.84,1.41-1.08,3.05-.68,4.64,.35,1.39,1.16,2.59,2.3,3.43-4.05,9.22-9.22,13.08-12.57,14.68-.13,.04-.25,.1-.36,.17-1.19,.53-2.05,.7-2.56,.81v4c.28-.03,1.88-.12,4.25-1.19,5.35-1.36,6.84-.35,8.41,.71,1.02,.69,2.29,1.55,4.26,1.66,.1,0,.2,0,.31,0,2.11,0,5.17-1.02,7.02-1.72,1.14,1.12,2.68,1.75,4.29,1.75h0c1.46,0,2.88-.52,3.98-1.48,1.24-1.06,1.99-2.55,2.12-4.18,.12-1.63-.39-3.21-1.46-4.45Zm-15.87-16.78c.39-.64,1.07-1.03,1.82-1.03,.38,0,.75,.1,1.08,.3,1,.6,1.33,1.9,.74,2.9-.38,.65-1.06,1.03-1.82,1.03-.38,0-.75-.1-1.08-.3-.48-.29-.83-.75-.96-1.29-.14-.55-.06-1.12,.23-1.6Zm12.6,22.36c-.49,.42-1.02,.51-1.37,.51-.62,0-1.21-.27-1.61-.73-.76-.88-.65-2.22,.23-2.98,.49-.42,1.02-.51,1.37-.51,.62,0,1.2,.27,1.61,.74,.37,.43,.55,.98,.5,1.54-.04,.56-.3,1.07-.73,1.44Z"/><path class="c`" d="M86.5,46.21c.07,.02,.14,.03,.21,.05-.07-.01-.14-.03-.21-.05Z"/><path class="c`" d="M108.45,33.2c-.36-1.6-1.32-2.96-2.71-3.84-.98-.62-2.11-.94-3.26-.94-2.12,0-4.05,1.07-5.17,2.85-1.35,2.14-1.22,4.8,.14,6.76-3.65,4.12-8.71,4.31-9.94,4.29-3.69-1.6-7.23-2.16-10-2.32v4c2.44,.14,5.55,.69,8.75,2.14h.01c3.45,1.57,6.33,3.93,8.61,7.05-.14,.17-.26,.35-.38,.54-1.8,2.85-.94,6.64,1.9,8.44,.98,.62,2.11,.95,3.27,.95,2.11,0,4.05-1.07,5.18-2.85,1.81-2.85,.95-6.64-1.91-8.45-1.38-.87-3.09-1.11-4.67-.75-1.54-2.15-3.32-4.02-5.34-5.57,2.52-.78,5.4-2.27,7.78-5.1,.57,.17,1.17,.27,1.77,.27,2.12,0,4.05-1.07,5.17-2.85,.88-1.38,1.16-3.01,.8-4.6Zm-10.57,22.65c.17-.27,.39-.49,.67-.66,.33-.21,.72-.32,1.12-.32s.79,.11,1.12,.32c.99,.63,1.28,1.94,.66,2.92-.39,.62-1.06,.99-1.79,.99-.4,0-.79-.11-1.12-.33-.98-.62-1.28-1.94-.66-2.92Zm6.38-20.19c-.6,.95-1.94,1.27-2.91,.65l-.1-.06c-.91-.65-1.16-1.9-.56-2.85,.39-.61,1.05-.98,1.78-.98,.4,0,.79,.11,1.12,.33,.48,.3,.81,.78,.94,1.33,.12,.55,.03,1.11-.28,1.58Z"/><path class="c`" d="M117.15,74.19c.42,1.04,1.14,1.96,2.11,2.65,.07,.05,.15,.11,.28,.19,.98,.62,2.11,.95,3.27,.95,2.12,0,4.05-1.07,5.17-2.85,.88-1.38,1.16-3.01,.8-4.6-.36-1.6-1.32-2.96-2.71-3.84-.98-.62-2.11-.94-3.27-.94-.12,0-.25,0-.38,.02-.71-3.16-.92-7.77,.04-11.26,.11,.01,.22,.02,.34,.02,2.12,0,4.05-1.07,5.17-2.85,.88-1.38,1.16-3.01,.8-4.6-.36-1.6-1.32-2.96-2.71-3.84-.98-.62-2.11-.94-3.27-.94-2.11,0-4.05,1.07-5.17,2.85-1.6,2.53-1.12,5.8,1.02,7.76,.02,.02,.05,.04,.07,.06-1.35,4.52-1.15,10.32-.04,14.42-.14,.13-.29,.25-.43,.4-.23,.25-.45,.53-.63,.82-.32,.5-.55,1.03-.71,1.58-3.37,.49-5.2,1.67-6.82,2.73-2.04,1.32-3.96,2.57-9.64,2.67-1.96-.23-3.55-.18-5.29-.12-1.43,.05-2.91,.11-4.85,0-1.33-.07-2.1-.88-3.46-2.42-1.8-2.05-4.22-4.65-9.37-5.02v4c3.29,.3,4.8,1.89,6.36,3.67,1.49,1.69,3.17,3.62,6.26,3.78,2.12,.11,3.76,.05,5.21,0,2.49-.09,4.45-.16,7.86,.68,2.61,.64,12.1,9.67,14.77,14.32-.11,.14-.22,.28-.31,.43-1.74,2.75-1.03,6.38,1.62,8.25,.07,.05,.15,.1,.28,.19,.98,.62,2.11,.95,3.27,.95,2.12,0,4.05-1.07,5.17-2.85,.88-1.37,1.16-3.01,.8-4.6-.36-1.6-1.32-2.96-2.71-3.84-.98-.62-2.11-.94-3.27-.94-.53,0-1.05,.07-1.54,.2-2.56-4.19-8.65-10.46-13.19-13.79,1.81-.63,3.05-1.43,4.21-2.19,1.43-.93,2.61-1.69,4.86-2.07Zm3.88-26.92c.39-.61,1.05-.98,1.78-.98,.4,0,.79,.11,1.12,.33,.48,.3,.81,.78,.94,1.33,.12,.55,.02,1.11-.28,1.58-.6,.95-1.94,1.27-2.91,.65l-.09-.06c-.92-.65-1.16-1.9-.56-2.85Zm0,23.46c.39-.61,1.05-.98,1.78-.98,.4,0,.79,.11,1.12,.33,.48,.3,.81,.77,.94,1.33,.12,.55,.02,1.11-.28,1.59-.6,.95-1.94,1.27-2.91,.65l-.09-.06c-.92-.65-1.16-1.9-.56-2.85Zm0,26.3c.39-.61,1.05-.98,1.78-.98,.4,0,.79,.11,1.12,.33,.48,.3,.81,.78,.94,1.33,.12,.55,.02,1.11-.28,1.58-.6,.95-1.94,1.27-2.91,.65l-.09-.06c-.92-.65-1.16-1.9-.56-2.85Z"/></g></g></g></g></g></g></svg>