<?xml version="1.0" encoding="UTF-8"?><svg id="a" xmlns="http://www.w3.org/2000/svg" xmlns:xlink="http://www.w3.org/1999/xlink" viewBox="0 0 514 100"><defs><style>.bu{filter:url(#j);}.bv{filter:url(#au);}.bw{filter:url(#ab);}.bx,.by,.c`,.ca,.cb,.cc{fill:#fffedb;}.by,.c`,.ca,.cd,.cb,.cc{stroke-width:1.5px;}.by,.c`,.ca,.cb,.cc{stroke:#fffedb;}.ce{filter:url(#bc);}.cf{filter:url(#c);}.c`{stroke-linecap:square;stroke-linejoin:round;}.cg{fill:#b50437;}.ch{filter:url(#x);}.ci{filter:url(#aj);}.cj{filter:url(#aq);}.ca{filter:url(#an);}.ck{filter:url(#m);}.cl{clip-path:url(#b);}.cm{filter:url(#t);}.cn{filter:url(#bj);}.co{filter:url(#p);}.cd{fill:#8e0324;stroke:#8e0324;}.cp{filter:url(#af);}.cq{filter:url(#ay);}.cr{fill:none;}.cb{filter:url(#bg);}.cc{filter:url(#br);}.cs{fill:#eb743b;}.ct{filter:url(#bn);}</style><clipPath id="b"><polygon class="cr" points="6.36 72.74 6.36 27.26 44 5.79 44 94.12 6.36 72.74"/></clipPath><filter id="c" filterUnits="userSpaceOnUse"><feOffset dx="0" dy="3"/><feGaussianBlur result="d" stdDeviation="0"/><feFlood flood-color="#8e0324" flood-opacity="1"/><feComposite in2="d" operator="in"/><feComposite in="SourceGraphic"/></filter><filter id="j" filterUnits="userSpaceOnUse"><feOffset dx="0" dy="3"/><feGaussianBlur result="k" stdDeviation="0"/><feFlood flood-color="#8e0324" flood-opacity="1"/><feComposite in2="k" operator="in"/><feComposite in="SourceGraphic"/></filter><filter id="m" filterUnits="userSpaceOnUse"><feOffset dx="0" dy="3"/><feGaussianBlur result="n" stdDeviation="0"/><feFlood flood-color="#8e0324" flood-opacity="1"/><feComposite in2="n" operator="in"/><feComposite in="SourceGraphic"/></filter><filter id="p" filterUnits="userSpaceOnUse"><feOffset dx="0" dy="3"/><feGaussianBlur result="q" stdDeviation="0"/><feFlood flood-color="#8e0324" flood-opacity="1"/><feComposite in2="q" operator="in"/><feComposite in="SourceGraphic"/></filter><filter id="t" filterUnits="userSpaceOnUse"><feOffset dx="0" dy="3"/><feGaussianBlur result="u" stdDeviation="0"/><feFlood flood-color="#8e0324" flood-opacity="1"/><feComposite in2="u" operator="in"/><feComposite in="SourceGraphic"/></filter><filter id="x" filterUnits="userSpaceOnUse"><feOffset dx="0" dy="3"/><feGaussianBlur result="y" stdDeviation="0"/><feFlood flood-color="#8e0324" flood-opacity="1"/><feComposite in2="y" operator="in"/><feComposite in="SourceGraphic"/></filter><filter id="ab" filterUnits="userSpaceOnUse"><feOffset dx="0" dy="3"/><feGaussianBlur result="ac" stdDeviation="0"/><feFlood flood-color="#8e0324" flood-opacity="1"/><feComposite in2="ac" operator="in"/><feComposite in="SourceGraphic"/></filter><filter id="af" filterUnits="userSpaceOnUse"><feOffset dx="0" dy="3"/><feGaussianBlur result="ag" stdDeviation="0"/><feFlood flood-color="#8e0324" flood-opacity="1"/><feComposite in2="ag" operator="in"/><feComposite in="SourceGraphic"/></filter><filter id="aj" filterUnits="userSpaceOnUse"><feOffset dx="0" dy="3"/><feGaussianBlur result="ak" stdDeviation="0"/><feFlood flood-color="#8e0324" flood-opacity="1"/><feComposite in2="ak" operator="in"/><feComposite in="SourceGraphic"/></filter><filter id="an" filterUnits="userSpaceOnUse"><feOffset dx="0" dy="3"/><feGaussianBlur result="ao" stdDeviation="0"/><feFlood flood-color="#8e0324" flood-opacity="1"/><feComposite in2="ao" operator="in"/><feComposite in="SourceGraphic"/></filter><filter id="aq" filterUnits="userSpaceOnUse"><feOffset dx="0" dy="3"/><feGaussianBlur result="ar" stdDeviation="0"/><feFlood flood-color="#8e0324" flood-opacity="1"/><feComposite in2="ar" operator="in"/><feComposite in="SourceGraphic"/></filter><filter id="au" filterUnits="userSpaceOnUse"><feOffset dx="0" dy="3"/><feGaussianBlur result="av" stdDeviation="0"/><feFlood flood-color="#8e0324" flood-opacity="1"/><feComposite in2="av" operator="in"/><feComposite in="SourceGraphic"/></filter><filter id="ay" filterUnits="userSpaceOnUse"><feOffset dx="0" dy="3"/><feGaussianBlur result="b`" stdDeviation="0"/><feFlood flood-color="#8e0324" flood-opacity="1"/><feComposite in2="b`" operator="in"/><feComposite in="SourceGraphic"/></filter><filter id="bc" filterUnits="userSpaceOnUse"><feOffset dx="0" dy="3"/><feGaussianBlur result="bd" stdDeviation="0"/><feFlood flood-color="#8e0324" flood-opacity="1"/><feComposite in2="bd" operator="in"/><feComposite in="SourceGraphic"/></filter><filter id="bg" filterUnits="userSpaceOnUse"><feOffset dx="0" dy="3"/><feGaussianBlur result="bh" stdDeviation="0"/><feFlood flood-color="#8e0324" flood-opacity="1"/><feComposite in2="bh" operator="in"/><feComposite in="SourceGraphic"/></filter><filter id="bj" filterUnits="userSpaceOnUse"><feOffset dx="0" dy="3"/><feGaussianBlur result="bk" stdDeviation="0"/><feFlood flood-color="#8e0324" flood-opacity="1"/><feComposite in2="bk" operator="in"/><feComposite in="SourceGraphic"/></filter><filter id="bn" filterUnits="userSpaceOnUse"><feOffset dx="0" dy="3"/><feGaussianBlur result="bo" stdDeviation="0"/><feFlood flood-color="#8e0324" flood-opacity="1"/><feComposite in2="bo" operator="in"/><feComposite in="SourceGraphic"/></filter><filter id="br" filterUnits="userSpaceOnUse"><feOffset dx="0" dy="3"/><feGaussianBlur result="bs" stdDeviation="0"/><feFlood flood-color="#8e0324" flood-opacity="1"/><feComposite in2="bs" operator="in"/><feComposite in="SourceGraphic"/></filter></defs><g><polygon class="cg" points="44 2 3 25.33 3 74.67 44 98 44 2"/><g class="cl"><g><g id="e" class="cf"><polyline id="f" class="by" points="2.39 28.35 1.77 28.82 1.22 29.37 .75 29.98 .36 30.65 .07 31.37 -.12 32.12 -.2 32.89 -.19 33.66 -.06 34.42 .16 35.16 .49 35.87 .9 36.52 1.41 37.11 1.98 37.63 2.63 38.07 3.32 38.41 4.06 38.66 4.82 38.81 5.6 38.86 6.38 38.8 7.14 38.64 7.87 38.38 8.56 38.02 9.2 37.58 9.77 37.05 10.26 36.45 10.67 35.8 10.99 35.09 11.19 33.98 11.43 33.12 13.17 33.6 12.93 34.46 12.72 35.57 12.33 36.5 11.81 37.37 11.17 38.17 10.44 38.87 9.62 39.47 8.72 39.96 7.77 40.32 6.77 40.55 5.75 40.64 4.73 40.6 3.73 40.42 2.76 40.11 1.83 39.67 .98 39.11 .21 38.45 -.46 37.68 -1.02 36.84 -1.47 35.92 -1.78 34.96 -1.96 33.96 -2 32.95 -1.91 31.94 -1.68 30.95 -1.32 30.01 -.83 29.12 -.23 28.3 .48 27.57 1.29 26.94"/></g><g id="g"><polyline id="h" class="cd" points="11.19 39.84 11.88 39.09 12.46 38.26 12.92 37.35 13.25 36.39 13.45 35.4 13.51 34.39 13.44 33.38 13.23 32.39 12.88 31.43 12.41 30.53 11.83 29.71 11.13 28.96 10.34 28.32 9.47 27.79 8.54 27.38 7.56 27.1 6.55 26.95 -6.05 26.71 -6.95 26.69 -6.99 28.48 -6.09 28.49 6.51 28.74 7.28 28.86 8.02 29.09 8.73 29.42 9.38 29.83 9.98 30.34 10.5 30.91 10.93 31.55 11.28 32.24 11.53 32.98 11.68 33.73 11.72 34.51 11.66 35.28 11.49 36.03 11.22 36.76 10.86 37.44 10.41 38.07 9.87 38.63"/><polyline id="i" class="by" points="11.19 36.84 11.88 36.09 12.46 35.26 12.92 34.35 13.25 33.39 13.45 32.4 13.51 31.39 13.44 30.38 13.23 29.39 12.88 28.43 12.41 27.53 11.83 26.71 11.13 25.96 10.34 25.32 9.47 24.79 8.54 24.38 7.56 24.1 6.55 23.95 -6.05 23.71 -6.95 23.69 -6.99 25.48 -6.09 25.49 6.51 25.74 7.28 25.86 8.02 26.09 8.73 26.42 9.38 26.83 9.98 27.34 10.5 27.91 10.93 28.55 11.28 29.24 11.53 29.98 11.68 30.73 11.72 31.51 11.66 32.28 11.49 33.03 11.22 33.76 10.86 34.44 10.41 35.07 9.87 35.63"/></g><g><g class="bu"><polyline id="l" class="bx" points="30.8 49.98 30.94 49.88 31.09 49.78 31.24 49.68 31.41 49.57 32.24 49.1 32.44 48.99 32.65 48.89 32.87 48.79 33.12 48.7 33.32 48.63 33.46 48.58 33.52 48.56 33.59 48.54 33.66 48.52 33.74 48.5 33.82 48.47 33.9 48.45 33.99 48.43 35.3 48.14 35.42 48.11 35.54 48.09 35.66 48.07 35.8 48.05 35.93 48.03 36.08 48.02 36.23 48.01 36.38 48 36.55 47.99 46.94 47.99 47.36 47.99 47.36 45.33 46.94 45.33 36.55 45.34 36.31 45.34 36.09 45.36 35.87 45.37 35.67 45.39 35.47 45.42 35.28 45.44 35.1 45.47 34.93 45.5 34.76 45.54 33.4 45.84 33.27 45.87 33.16 45.9 33.04 45.93 32.93 45.96 32.83 45.99 32.73 46.02 32.64 46.05 32.47 46.11 32.22 46.2 31.9 46.32 31.58 46.46 31.28 46.6 30.99 46.75 30.07 47.27 29.84 47.41 29.61 47.56 29.4 47.7 29.21 47.85"/></g><g class="ck"><polyline id="o" class="bx" points="28.74 52.26 28.77 52.21 28.79 52.16 28.82 52.11 28.85 52.06 28.88 52.01 28.92 51.95 28.95 51.9 28.99 51.84 29.03 51.77 29.07 51.71 29.12 51.65 29.16 51.58 29.21 51.51 29.27 51.44 29.32 51.36 29.38 51.29 29.45 51.21 29.52 51.13 29.59 51.05 29.66 50.96 29.75 50.87 29.83 50.79 29.92 50.7 30.02 50.6 30.13 50.51 30.24 50.42 30.35 50.32 30.48 50.22 30.64 50.1 30.8 49.98 29.21 47.85 29.04 47.97 28.88 48.09 28.7 48.23 28.53 48.37 28.37 48.5 28.23 48.63 28.09 48.77 27.95 48.9 27.83 49.02 27.71 49.15 27.6 49.27 27.5 49.38 27.4 49.5 27.31 49.61 27.22 49.72 27.14 49.83 27.06 49.93 26.99 50.03 26.92 50.12 26.86 50.22 26.8 50.31 26.74 50.4 26.69 50.48 26.63 50.56 26.59 50.64 26.54 50.72 26.5 50.79 26.46 50.86 26.42 50.93 26.38 51"/></g></g><g id="r" class="co"><polyline id="s" class="by" points="-20.97 33.66 18.56 55.14 19.52 55.51 20.51 55.74 21.53 55.83 22.55 55.79 23.55 55.61 24.53 55.31 25.45 54.87 26.3 54.31 27.07 53.65 27.75 52.89 28.31 52.04 26.7 51.25 26.25 51.89 25.73 52.46 25.13 52.96 24.47 53.37 23.76 53.69 23.02 53.91 22.25 54.03 21.47 54.05 20.7 53.96 19.94 53.77 19.22 53.48 -20.09 32.1"/></g><g id="v" class="cm"><path id="w" class="by" d="M2.51,64.66l.63,3.64,.31,.96,.44,.91,.56,.85,.67,.76,.77,.67,.85,.56,.92,.44,.97,.31,1.01,.18,1.02,.04,1.02-.09,1-.23,.96-.36,.9-.48c2.95-1.45,1.7-2.99,5.88-2.97l-.11-1.94c-3.57-.5-4.78,2.45-6.82,3.45l-.69,.36-.73,.26-.76,.16-.78,.06-.78-.05-.76-.15-.74-.25-.7-.35-.64-.44-.58-.52-.5-.59-.42-.65-.32-.7-.23-.74-2.64-8.1"/></g><g id="a`" class="ch"><polyline id="aa" class="by" points="20.31 67.92 21.26 68.28 22.16 68.76 22.98 69.36 23.72 70.07 24.35 70.86 24.87 71.73 25.26 72.67 25.53 73.65 25.66 74.65 25.65 75.66 25.51 76.67 25.23 77.64 24.82 78.57 24.28 79.43 23.64 80.22 22.89 80.91 22.06 81.5 21.16 81.97 20.2 82.31 19.2 82.53 18.18 82.61 5.72 81.98 4.94 82.04 4.18 82.2 3.44 82.46 2.75 82.82 2.12 83.27 -2.54 87.65 -3.37 88.24 -4.28 88.71 -5.24 89.05 -6.24 89.27 -7.26 89.35 -8.28 89.29 -9.28 89.09 -10.24 88.77 -11.16 88.31 -12 87.74 -12.76 87.07 -13.42 86.29 -13.97 85.44 -14.4 84.52 -14.7 83.55 -12.92 83.25 -12.68 83.98 -12.34 84.68 -11.91 85.32 -11.4 85.9 -10.81 86.41 -10.16 86.83 -9.45 87.16 -8.71 87.4 -7.94 87.53 -7.17 87.56 -6.39 87.49 -5.63 87.31 -4.9 87.03 -4.22 86.66 -3.6 86.2 .88 81.97 1.7 81.37 2.6 80.89 3.55 80.53 4.54 80.3 5.56 80.2 18.27 80.82 19.05 80.75 19.8 80.57 20.53 80.3 21.21 79.92 21.84 79.47 22.4 78.93 22.88 78.32 23.27 77.65 23.57 76.94 23.77 76.19 23.87 75.42 23.86 74.65 23.75 73.89 23.53 73.15 23.21 72.44 22.81 71.78 22.31 71.18 21.74 70.66 21.11 70.21 20.41 69.86 19.68 69.59"/></g><g id="ad" class="bw"><polyline id="ae" class="by" points="-2.97 62.61 9.05 56.24 9.87 55.65 10.61 54.94 11.24 54.15 11.76 53.27 12.16 52.34 12.42 51.36 12.55 50.36 12.54 49.34 12.4 48.34 12.12 47.37 11.71 46.44 11.18 45.57 10.53 44.79 9.79 44.1 2.58 38.94 2.01 38.42 .61 39.53 1.34 40.24 8.73 45.54 9.29 46.08 9.77 46.69 10.16 47.36 10.46 48.07 10.66 48.82 10.76 49.58 10.75 50.36 10.64 51.12 10.42 51.86 10.11 52.57 9.7 53.23 9.2 53.83 8.63 54.35 8 54.8 -3.82 61.03"/></g><g id="ah" class="cp"><polyline id="ai" class="by" points="31.8 91.19 26.4 78.79 25.86 77.92 25.21 77.14 24.47 76.45 23.63 75.87 22.73 75.4 21.76 75.06 20.77 74.85 19.75 74.77 18.73 74.83 17.73 75.03 16.76 75.36 15.85 75.81 15 76.39 14.25 77.07 8.48 83.77 7.91 84.29 8.91 85.77 9.68 85.1 15.62 78.23 16.2 77.72 16.85 77.29 17.56 76.96 18.3 76.72 19.06 76.59 19.84 76.55 20.62 76.63 21.38 76.8 22.1 77.07 22.79 77.44 23.42 77.9 23.98 78.44 24.46 79.04 24.85 79.71 30.15 91.9"/></g><g id="al" class="ci"><polyline id="am" class="by" points="-7.87 54.37 -7.1 54.25 -6.32 54.23 -5.55 54.31 24.81 62.2 25.54 62.49 26.21 62.87 26.83 63.33 27.38 63.88 27.85 64.5 28.24 65.17 28.53 65.89 33.51 86.61 33.59 87.38 33.57 88.15 33.45 88.92 33.22 89.66 32.9 90.36 32.48 91.01 31.98 91.6 31.4 92.12 30.76 92.55 30.06 92.9 29.32 93.15 28.56 93.3 27.78 93.34 27 93.28 26.24 93.12 25.51 92.86 24.82 92.5 24.18 92.06 22.94 93.35 23.76 93.95 24.66 94.43 25.61 94.8 26.61 95.03 27.62 95.12 28.64 95.08 29.65 94.9 30.62 94.59 31.54 94.16 32.4 93.6 33.17 92.94 33.84 92.18 34.41 91.33 34.85 90.42 35.17 89.46 35.35 88.46 35.39 87.45 35.3 86.44 30.28 65.47 29.92 64.53 29.43 63.63 28.83 62.82 28.12 62.09 27.32 61.46 26.44 60.94 25.5 60.55 -5.09 52.59 -6.1 52.46 -7.13 52.46 -8.14 52.6"/></g><polygon id="ap" class="ca" points="11.58 38.05 20.24 39.99 20.98 40.25 21.67 40.61 22.3 41.06 22.87 41.59 23.36 42.18 23.77 42.84 24.08 43.55 24.29 44.29 24.4 45.06 24.41 45.83 24.31 46.6 24.11 47.34 23.81 48.06 23.41 48.72 22.93 49.33 22.37 49.87 21.74 50.32 21.05 50.69 20.33 50.97 19.57 51.14 19.71 52.92 20.71 52.71 21.68 52.37 22.58 51.9 23.42 51.32 24.16 50.63 24.81 49.84 25.35 48.98 25.76 48.05 26.04 47.08 26.19 46.08 26.2 45.06 26.08 44.06 25.81 43.08 25.42 42.15 24.91 41.27 24.28 40.47 23.54 39.77 22.72 39.16 21.83 38.68 20.87 38.32 11.98 36.31 11.23 36.09 10.52 35.78 9.85 35.38 9.25 34.89 8.72 34.33 8.27 33.7 7.91 33.01 7.64 32.29 7.48 31.53 7.42 30.76 7.47 29.99 7.62 29.23 7.87 28.5 8.22 27.81 8.66 27.17 9.18 26.6 9.77 26.1 10.43 25.68 11.14 25.36 11.88 25.14 12.65 25.01 13.43 24.99 14.21 25.08 14.96 25.26 15.68 25.55 16.36 25.93 16.98 26.4 17.53 26.94 18.01 27.56 19.58 26.69 18.98 25.88 18.27 25.15 17.47 24.52 16.59 24 15.65 23.61 14.66 23.35 13.65 23.22 12.62 23.23 11.61 23.37 10.63 23.65 9.7 24.05 8.82 24.58 8.03 25.22 7.33 25.96 6.74 26.78 6.27 27.68 5.92 28.63 5.7 29.62 5.62 30.63 5.68 31.65 5.88 32.64 6.21 33.6 6.66 34.51 7.24 35.34 7.92 36.1 8.7 36.75 9.56 37.3 10.49 37.72 11.46 38.02 11.58 38.05"/><g id="as" class="cj"><path id="at" class="by" d="M37.02,25.98l-.28-.97-.41-.93-.54-.86-3.79-4.76-.75-.69-.84-.58-.91-.47-.96-.34-1-.21-1.02-.07-1.02,.06-1,.2-.97,.33-.91,.46-.84,.57-.76,.68-.66,.78-1.39,2.16-.5,.59-.58,.52-.64,.44-.69,.35-.74,.25-.76,.15-.78,.05-.78-.05s-1.29-.37-2.42-1.9c-1.13-1.53-3.06-1.72-1.51,.95,1.55,2.67,3.54,2.7,3.54,2.7l1.02,.09,1.02-.05,1-.18,.97-.32,.92-.44,.85-.56,.77-.67,.67-.77,1.53-2.35,.51-.58,.59-.51,.65-.43,.7-.34,.74-.24,.77-.14,.78-.03,.78,.07,.76,.17,.73,.27,.68,.37,.63,.46,.56,.54,3.63,4.58,.4,.66,.3,.71,.2,.75"/></g><g><g id="aw" class="bv"><polyline id="ax" class="by" points="19.45 37.3 25.29 23.27 32.76 3.67 31.09 2.98 23.63 22.59 17.79 36.62"/></g><g id="ba" class="cq"><polyline id="bb" class="by" points="21.24 67.01 22.19 66.63 23.08 66.14 23.9 65.53 24.62 64.81 25.24 64.01 25.75 63.13 26.13 62.19 26.38 61.21 26.5 60.2 26.48 59.19 26.32 58.19 26.03 57.22 25.6 56.3 25.06 55.44 24.4 54.66 23.65 53.98 22.81 53.4 18.91 51.42 18.27 50.98 17.69 50.46 17.19 49.87 16.77 49.22 16.45 48.52 16.22 47.78 16.1 47.01 16.08 46.24 16.17 45.47 16.36 44.72 19.11 38.12 19.45 37.3 17.79 36.62 17.44 37.44 14.69 44.04 14.43 45.02 14.29 46.02 14.3 47.04 14.44 48.04 14.72 49.02 15.13 49.94 15.66 50.81 16.3 51.6 17.05 52.29 17.88 52.88 21.98 54.99 22.61 55.44 23.18 55.97 23.67 56.57 24.07 57.23 24.38 57.94 24.59 58.69 24.7 59.45 24.7 60.23 24.6 60.99 24.39 61.74 24.09 62.45 23.69 63.11 23.2 63.72 22.64 64.25 22.01 64.7 21.32 65.07 20.59 65.34"/></g></g><g id="be" class="ce"><path id="bf" class="c`" d="M-4.43,39.81l.62,17.97,.18,1,.31,.96,.44,.91,.56,.85,.67,.76,.77,.67,.85,.56,.92,.44,.97,.31,16.93,3.15s1.46,.12,2.44-.38l-.65-1.67c-.6,.31-1.7,.26-1.7,.26l-16.69-3.12-.74-.25-.7-.35-.64-.44-.58-.52-.5-.59-.42-.65-.32-.7-.23-.74-.12-.76-.6-17.73"/></g><polyline id="bi" class="cb" points="11.63 61.94 12.61 61.64 13.54 61.22 14.4 60.68 15.18 60.03 15.87 59.28 16.45 58.44 16.91 57.54 17.24 56.58 19.04 47.96 19.29 47.22 19.64 46.53 20.08 45.9 28.09 37.27 28.67 36.43 29.13 35.53 29.46 34.57 29.66 33.58 29.72 32.57 29.65 31.56 29.43 30.57 29.09 29.61 28.62 28.71 28.03 27.88 27.34 27.14 26.55 26.5 25.68 25.97 24.74 25.56 23.76 25.28 22.75 25.13 21.73 25.12 20.72 25.24 19.73 25.5 20.41 27.16 21.16 26.97 21.94 26.89 22.72 26.92 23.48 27.04 24.23 27.27 24.93 27.6 25.59 28.01 26.18 28.51 26.7 29.09 27.14 29.73 27.49 30.42 27.73 31.15 27.88 31.91 27.92 32.68 27.86 33.45 27.7 34.21 27.43 34.94 27.06 35.62 26.61 36.25 18.75 44.68 18.16 45.51 17.69 46.41 17.34 47.36 15.48 56.22 15.21 56.94 14.85 57.63 14.39 58.26 13.86 58.82 13.25 59.3 12.59 59.7 11.87 60.01 11.12 60.22"/><g id="bl" class="cn"><polyline id="bm" class="by" points="35.26 26.4 35.45 27.15 35.54 27.91 35.52 28.69 35.4 29.45 35.17 30.19 34.85 30.89 34.43 31.54 33.93 32.13 33.35 32.65 32.71 33.09 32.01 33.44 31.27 33.69 30.51 33.84 29.73 33.88 28.96 33.83 28.19 33.66 27.46 33.4 26.13 32.6 26.13 32.6 20.09 27.28 18.51 28.05 24.89 33.89 25.72 34.49 26.61 34.98 27.57 35.34 28.56 35.57 29.58 35.66 30.6 35.62 31.61 35.44 32.58 35.13 33.5 34.69 34.35 34.14 35.12 33.47 35.79 32.71 36.36 31.86 36.8 30.95 37.11 29.99 37.3 28.99 37.34 27.98 37.25 26.97 37.02 25.98"/></g><g id="bp" class="ct"><polyline id="bq" class="by" points="2.01 68.31 6.21 64.18 6.81 63.68 7.47 63.26 8.17 62.94 10.77 62.19 11.63 61.94 11.12 60.22 10.26 60.47 7.67 61.23 6.73 61.63 5.86 62.16 5.07 62.8 .69 67.1"/></g><path id="bt" class="cc" d="M21.73,25.12l-1.01,.12-.99,.26-8.34,3.36-.83,.34-8.87,3.62,.45,1.73,9.1-3.69,.83-.34,8.34-3.36,.76-.18,.77-.08s1.27-.02,1.83,.24"/></g></g><polygon class="cs" points="47 2 47 98 88 74 88 26 47 2"/><path class="bx" d="M79.28,58.09c-1.24-1.97-3.38-3.15-5.72-3.15-.67,0-1.32,.1-1.96,.29-2.63-3.12-5.82-4.78-8.6-5.64,2.24-1.71,4.21-3.77,5.91-6.15,1.74,.39,3.63,.13,5.16-.83,3.16-2.01,4.1-6.2,2.1-9.35-1.25-1.97-3.39-3.15-5.72-3.15-1.28,0-2.53,.36-3.62,1.05-3.15,1.99-4.09,6.18-2.11,9.34,.13,.21,.27,.4,.42,.6-2.51,3.44-5.71,6.06-9.52,7.79h-.01c-3.53,1.61-5.62,2.12-8.62,2.12v5c4,0,5.93-1.12,10.02-2.9,1.37-.02,6.96,.18,10.99,4.75-1.51,2.16-1.66,5.11-.16,7.47,1.24,1.97,3.38,3.15,5.72,3.15,1.28,0,2.52-.36,3.61-1.04,1.54-.97,2.6-2.48,3-4.25,.4-1.76,.08-3.57-.89-5.09Zm-10.22-23.42c.42-.27,.9-.41,1.4-.41,.9,0,1.73,.46,2.22,1.22,.77,1.21,.4,2.84-.82,3.61-.41,.26-.9,.4-1.39,.4s-.97-.13-1.39-.39c-.34-.21-.62-.49-.83-.82-.77-1.22-.41-2.85,.81-3.62Zm7.06,27.6c-.15,.69-.56,1.27-1.16,1.64-.41,.26-.9,.41-1.39,.41-.91,0-1.73-.46-2.21-1.22-.75-1.18-.44-2.73,.69-3.53l.12-.08c1.21-.77,2.87-.37,3.61,.81,.38,.59,.5,1.29,.34,1.97Z"/></g><g><path class="cg" d="M119.75,24.46l11.24,35.04,11.21-35.04h15.98v50.36h-12.18v-11.76l1.18-24.07-12.17,35.83h-8.03l-12.21-35.87,1.18,24.11v11.76h-12.14V24.46h15.95Z"/><path class="cg" d="M183.46,75.51c-5.74,0-10.39-1.71-13.94-5.14-3.55-3.42-5.33-7.88-5.33-13.37v-.97c0-3.83,.71-7.21,2.13-10.13,1.42-2.93,3.49-5.19,6.21-6.8,2.72-1.6,5.95-2.4,9.68-2.4,5.26,0,9.41,1.63,12.45,4.89,3.04,3.26,4.57,7.81,4.57,13.65v4.53h-23.17c.42,2.1,1.33,3.75,2.73,4.95,1.41,1.2,3.23,1.8,5.46,1.8,3.69,0,6.57-1.29,8.65-3.87l5.33,6.3c-1.45,2.01-3.51,3.6-6.17,4.79s-5.53,1.78-8.6,1.78Zm-1.31-29.82c-3.41,0-5.44,2.26-6.09,6.78h11.76v-.9c.05-1.87-.43-3.31-1.42-4.34-.99-1.03-2.41-1.54-4.25-1.54Z"/><path class="cg" d="M223.52,64.31c0-.99-.52-1.79-1.56-2.39-1.04-.6-3.01-1.22-5.91-1.87-2.91-.65-5.3-1.49-7.2-2.54-1.89-1.05-3.33-2.32-4.32-3.82-.99-1.5-1.49-3.22-1.49-5.15,0-3.44,1.42-6.27,4.25-8.49,2.84-2.23,6.55-3.34,11.14-3.34,4.93,0,8.9,1.12,11.9,3.35,3,2.24,4.5,5.18,4.5,8.82h-11.69c0-3-1.58-4.5-4.74-4.5-1.22,0-2.25,.34-3.08,1.02-.83,.68-1.25,1.53-1.25,2.54s.51,1.88,1.52,2.53,2.63,1.18,4.86,1.59c2.22,.42,4.18,.91,5.86,1.49,5.63,1.94,8.44,5.41,8.44,10.41,0,3.41-1.52,6.19-4.55,8.34s-6.96,3.22-11.78,3.22c-3.21,0-6.07-.58-8.58-1.73-2.51-1.15-4.47-2.72-5.88-4.7-1.41-1.98-2.11-4.07-2.11-6.26h10.9c.05,1.73,.62,2.99,1.73,3.79,1.11,.79,2.52,1.19,4.25,1.19,1.59,0,2.79-.32,3.58-.97,.8-.65,1.19-1.49,1.19-2.53Z"/><path class="cg" d="M259.8,64.31c0-.99-.52-1.79-1.56-2.39-1.04-.6-3.01-1.22-5.91-1.87-2.91-.65-5.3-1.49-7.2-2.54-1.89-1.05-3.33-2.32-4.32-3.82-.99-1.5-1.49-3.22-1.49-5.15,0-3.44,1.42-6.27,4.25-8.49,2.84-2.23,6.55-3.34,11.14-3.34,4.93,0,8.9,1.12,11.9,3.35,3,2.24,4.5,5.18,4.5,8.82h-11.69c0-3-1.58-4.5-4.74-4.5-1.22,0-2.25,.34-3.08,1.02-.83,.68-1.25,1.53-1.25,2.54s.51,1.88,1.52,2.53,2.63,1.18,4.86,1.59c2.22,.42,4.18,.91,5.86,1.49,5.63,1.94,8.44,5.41,8.44,10.41,0,3.41-1.52,6.19-4.55,8.34s-6.96,3.22-11.78,3.22c-3.21,0-6.07-.58-8.58-1.73-2.51-1.15-4.47-2.72-5.88-4.7-1.41-1.98-2.11-4.07-2.11-6.26h10.9c.05,1.73,.62,2.99,1.73,3.79,1.11,.79,2.52,1.19,4.25,1.19,1.59,0,2.79-.32,3.58-.97,.8-.65,1.19-1.49,1.19-2.53Z"/><path class="cg" d="M291.45,58.5l6.23-21.1h12.49l-15.25,43.69-.66,1.59c-2.17,4.84-6,7.26-11.48,7.26-1.52,0-3.12-.23-4.81-.69v-8.3h1.52c1.64,0,2.89-.24,3.75-.71,.86-.47,1.5-1.32,1.92-2.54l.93-2.49-13.01-37.8h12.45l5.92,21.1Z"/><path class="cs" d="M313.73,74.82V24.46h18.09c6.48,0,11.41,1.19,14.79,3.56,3.38,2.38,5.07,5.82,5.07,10.34,0,2.61-.6,4.83-1.8,6.68-1.2,1.84-2.96,3.21-5.29,4.08,2.63,.69,4.65,1.98,6.05,3.87,1.41,1.89,2.11,4.2,2.11,6.92,0,4.94-1.56,8.64-4.69,11.12-3.12,2.48-7.75,3.74-13.89,3.79h-20.44Zm12.14-29.37h6.33c2.65-.02,4.54-.51,5.67-1.46s1.7-2.35,1.7-4.2c0-2.13-.61-3.66-1.83-4.6s-3.19-1.41-5.91-1.41h-5.95v11.66Zm0,7.96v12.07h7.96c2.19,0,3.87-.5,5.05-1.5s1.76-2.42,1.76-4.24c0-4.2-2.09-6.31-6.26-6.33h-8.51Z"/><path class="cs" d="M381.52,47.95l-3.84-.28c-3.67,0-6.02,1.15-7.06,3.46v23.69h-11.66V37.4h10.93l.38,4.81c1.96-3.67,4.69-5.5,8.2-5.5,1.25,0,2.33,.14,3.25,.42l-.21,10.83Z"/><path class="cs" d="M405.77,74.82c-.42-.76-.78-1.88-1.11-3.36-2.14,2.7-5.14,4.05-8.99,4.05-3.53,0-6.53-1.07-8.99-3.2-2.47-2.13-3.7-4.81-3.7-8.04,0-4.06,1.5-7.12,4.5-9.2,3-2.08,7.36-3.11,13.08-3.11h3.6v-1.98c0-3.45-1.49-5.18-4.46-5.18-2.77,0-4.15,1.37-4.15,4.1h-11.66c0-3.62,1.54-6.55,4.62-8.81,3.08-2.26,7-3.39,11.78-3.39s8.54,1.16,11.31,3.49c2.77,2.33,4.19,5.52,4.25,9.58v16.57c.05,3.44,.58,6.07,1.59,7.89v.59h-11.66Zm-7.3-7.61c1.45,0,2.66-.31,3.61-.93,.96-.62,1.64-1.33,2.06-2.11v-5.98h-3.39c-4.06,0-6.09,1.82-6.09,5.46,0,1.06,.36,1.92,1.07,2.58,.71,.66,1.62,.99,2.73,.99Z"/><path class="cs" d="M422.2,27.71c0-1.67,.6-3.04,1.8-4.11s2.76-1.6,4.67-1.6,3.47,.53,4.67,1.6c1.2,1.07,1.8,2.44,1.8,4.11s-.6,3.04-1.8,4.11c-1.2,1.07-2.76,1.6-4.67,1.6s-3.47-.53-4.67-1.6c-1.2-1.07-1.8-2.44-1.8-4.11Zm12.38,47.11h-11.69V37.4h11.69v37.43Z"/><path class="cs" d="M452.47,37.4l.38,4.39c2.58-3.39,6.15-5.08,10.69-5.08,3.9,0,6.81,1.16,8.73,3.49s2.92,5.83,2.99,10.52v24.11h-11.69v-23.62c0-1.89-.38-3.28-1.14-4.17-.76-.89-2.14-1.33-4.15-1.33-2.28,0-3.98,.9-5.08,2.7v26.43h-11.66V37.4h10.93Z"/><path class="cs" d="M495.46,65.83h17.05v8.99h-31.79v-6.5l16.6-21.93h-15.88v-8.99h30.68v6.29l-16.67,22.14Z"/></g></svg>