<?xml version="1.0" encoding="UTF-8"?><svg xmlns="http://www.w3.org/2000/svg" xmlns:xlink="http://www.w3.org/1999/xlink" viewBox="0 0 145 160"><defs><style>.bu{filter:url(#j);}.bv{filter:url(#au);}.bw{filter:url(#ab);}.bx{mix-blend-mode:multiply;opacity:.07;}.by{isolation:isolate;}.c`,.ca,.cb,.cc,.cd,.ce{fill:#fffedb;}.ca,.cb,.cc,.cf,.cd,.ce{stroke-width:1.5px;}.ca,.cb,.cc,.cd,.ce{stroke:#fffedb;}.cg{filter:url(#bc);}.ch{filter:url(#c);}.cb{stroke-linecap:square;stroke-linejoin:round;}.ci{fill:#b50437;}.cj{filter:url(#x);}.ck{filter:url(#aj);}.cl{filter:url(#aq);}.cc{filter:url(#an);}.cm{filter:url(#m);}.cn{clip-path:url(#b);}.co{filter:url(#t);}.cp{filter:url(#bj);}.cq{filter:url(#p);}.cf{fill:#8e0324;stroke:#8e0324;}.cr{filter:url(#af);}.cs{filter:url(#ay);}.ct{fill:none;}.cu{fill:#d3562c;}.cd{filter:url(#bg);}.ce{filter:url(#br);}.cv{fill:#eb743b;}.cw{filter:url(#bn);}</style><clipPath id="b"><polygon class="ct" points="14 114.1 14 45.9 70 13.69 70 146.19 14 114.1"/></clipPath><filter id="c" filterUnits="userSpaceOnUse"><feOffset dx="0" dy="3"/><feGaussianBlur result="d" stdDeviation="0"/><feFlood flood-color="#8e0324" flood-opacity="1"/><feComposite in2="d" operator="in"/><feComposite in="SourceGraphic"/></filter><filter id="j" filterUnits="userSpaceOnUse"><feOffset dx="0" dy="3"/><feGaussianBlur result="k" stdDeviation="0"/><feFlood flood-color="#8e0324" flood-opacity="1"/><feComposite in2="k" operator="in"/><feComposite in="SourceGraphic"/></filter><filter id="m" filterUnits="userSpaceOnUse"><feOffset dx="0" dy="3"/><feGaussianBlur result="n" stdDeviation="0"/><feFlood flood-color="#8e0324" flood-opacity="1"/><feComposite in2="n" operator="in"/><feComposite in="SourceGraphic"/></filter><filter id="p" filterUnits="userSpaceOnUse"><feOffset dx="0" dy="3"/><feGaussianBlur result="q" stdDeviation="0"/><feFlood flood-color="#8e0324" flood-opacity="1"/><feComposite in2="q" operator="in"/><feComposite in="SourceGraphic"/></filter><filter id="t" filterUnits="userSpaceOnUse"><feOffset dx="0" dy="3"/><feGaussianBlur result="u" stdDeviation="0"/><feFlood flood-color="#8e0324" flood-opacity="1"/><feComposite in2="u" operator="in"/><feComposite in="SourceGraphic"/></filter><filter id="x" filterUnits="userSpaceOnUse"><feOffset dx="0" dy="3"/><feGaussianBlur result="y" stdDeviation="0"/><feFlood flood-color="#8e0324" flood-opacity="1"/><feComposite in2="y" operator="in"/><feComposite in="SourceGraphic"/></filter><filter id="ab" filterUnits="userSpaceOnUse"><feOffset dx="0" dy="3"/><feGaussianBlur result="ac" stdDeviation="0"/><feFlood flood-color="#8e0324" flood-opacity="1"/><feComposite in2="ac" operator="in"/><feComposite in="SourceGraphic"/></filter><filter id="af" filterUnits="userSpaceOnUse"><feOffset dx="0" dy="3"/><feGaussianBlur result="ag" stdDeviation="0"/><feFlood flood-color="#8e0324" flood-opacity="1"/><feComposite in2="ag" operator="in"/><feComposite in="SourceGraphic"/></filter><filter id="aj" filterUnits="userSpaceOnUse"><feOffset dx="0" dy="3"/><feGaussianBlur result="ak" stdDeviation="0"/><feFlood flood-color="#8e0324" flood-opacity="1"/><feComposite in2="ak" operator="in"/><feComposite in="SourceGraphic"/></filter><filter id="an" filterUnits="userSpaceOnUse"><feOffset dx="0" dy="3"/><feGaussianBlur result="ao" stdDeviation="0"/><feFlood flood-color="#8e0324" flood-opacity="1"/><feComposite in2="ao" operator="in"/><feComposite in="SourceGraphic"/></filter><filter id="aq" filterUnits="userSpaceOnUse"><feOffset dx="0" dy="3"/><feGaussianBlur result="ar" stdDeviation="0"/><feFlood flood-color="#8e0324" flood-opacity="1"/><feComposite in2="ar" operator="in"/><feComposite in="SourceGraphic"/></filter><filter id="au" filterUnits="userSpaceOnUse"><feOffset dx="0" dy="3"/><feGaussianBlur result="av" stdDeviation="0"/><feFlood flood-color="#8e0324" flood-opacity="1"/><feComposite in2="av" operator="in"/><feComposite in="SourceGraphic"/></filter><filter id="ay" filterUnits="userSpaceOnUse"><feOffset dx="0" dy="3"/><feGaussianBlur result="b`" stdDeviation="0"/><feFlood flood-color="#8e0324" flood-opacity="1"/><feComposite in2="b`" operator="in"/><feComposite in="SourceGraphic"/></filter><filter id="bc" filterUnits="userSpaceOnUse"><feOffset dx="0" dy="3"/><feGaussianBlur result="bd" stdDeviation="0"/><feFlood flood-color="#8e0324" flood-opacity="1"/><feComposite in2="bd" operator="in"/><feComposite in="SourceGraphic"/></filter><filter id="bg" filterUnits="userSpaceOnUse"><feOffset dx="0" dy="3"/><feGaussianBlur result="bh" stdDeviation="0"/><feFlood flood-color="#8e0324" flood-opacity="1"/><feComposite in2="bh" operator="in"/><feComposite in="SourceGraphic"/></filter><filter id="bj" filterUnits="userSpaceOnUse"><feOffset dx="0" dy="3"/><feGaussianBlur result="bk" stdDeviation="0"/><feFlood flood-color="#8e0324" flood-opacity="1"/><feComposite in2="bk" operator="in"/><feComposite in="SourceGraphic"/></filter><filter id="bn" filterUnits="userSpaceOnUse"><feOffset dx="0" dy="3"/><feGaussianBlur result="bo" stdDeviation="0"/><feFlood flood-color="#8e0324" flood-opacity="1"/><feComposite in2="bo" operator="in"/><feComposite in="SourceGraphic"/></filter><filter id="br" filterUnits="userSpaceOnUse"><feOffset dx="0" dy="3"/><feGaussianBlur result="bs" stdDeviation="0"/><feFlood flood-color="#8e0324" flood-opacity="1"/><feComposite in2="bs" operator="in"/><feComposite in="SourceGraphic"/></filter></defs><g class="by"><g id="a"><g><polygon class="cv" points="75 8 75 152 136 117 136 43 75 8"/><polygon class="ci" points="70 8 9 43 9 117 70 152 70 8"/><g class="cn"><g><g id="e" class="ch"><polyline id="f" class="ca" points="8.09 47.53 7.17 48.23 6.35 49.05 5.65 49.97 5.07 50.98 4.64 52.06 4.36 53.18 4.23 54.33 4.26 55.49 4.44 56.64 4.78 57.74 5.26 58.8 5.88 59.78 6.63 60.66 7.49 61.44 8.44 62.1 9.48 62.62 10.58 62.99 11.71 63.22 12.87 63.29 14.02 63.2 15.16 62.96 16.25 62.57 17.28 62.04 18.22 61.37 19.07 60.58 19.81 59.68 20.41 58.69 20.88 57.63 21.19 55.98 21.55 54.68 24.13 55.4 23.77 56.69 23.46 58.35 22.87 59.75 22.1 61.06 21.16 62.25 20.07 63.31 18.85 64.21 17.51 64.93 16.09 65.47 14.61 65.82 13.1 65.96 11.58 65.9 10.08 65.63 8.64 65.16 7.27 64.5 6 63.67 4.85 62.67 3.85 61.52 3.01 60.26 2.36 58.89 1.89 57.44 1.62 55.94 1.56 54.43 1.7 52.91 2.04 51.43 2.58 50.01 3.3 48.68 4.2 47.45 5.26 46.36 6.45 45.42"/></g><g id="g"><polyline id="h" class="cf" points="21.19 63.26 22.21 62.14 23.07 60.88 23.76 59.53 24.25 58.09 24.55 56.6 24.64 55.08 24.53 53.57 24.22 52.08 23.71 50.65 23.01 49.3 22.13 48.06 21.1 46.95 19.92 45.98 18.63 45.19 17.24 44.57 15.78 44.15 14.27 43.93 -4.47 43.56 -5.81 43.54 -5.86 46.21 -4.52 46.24 14.22 46.6 15.37 46.79 16.47 47.14 17.52 47.63 18.5 48.25 19.38 49 20.15 49.87 20.8 50.83 21.32 51.86 21.69 52.96 21.91 54.1 21.97 55.26 21.88 56.41 21.63 57.55 21.23 58.63 20.69 59.66 20.02 60.6 19.22 61.45"/><polyline id="i" class="ca" points="21.19 60.26 22.21 59.14 23.07 57.88 23.76 56.53 24.25 55.09 24.55 53.6 24.64 52.08 24.53 50.57 24.22 49.08 23.71 47.65 23.01 46.3 22.13 45.06 21.1 43.95 19.92 42.98 18.63 42.19 17.24 41.57 15.78 41.15 14.27 40.93 -4.47 40.56 -5.81 40.54 -5.86 43.21 -4.52 43.24 14.22 43.6 15.37 43.79 16.47 44.14 17.52 44.63 18.5 45.25 19.38 46 20.15 46.87 20.8 47.83 21.32 48.86 21.69 49.96 21.91 51.1 21.97 52.26 21.88 53.41 21.63 54.55 21.23 55.63 20.69 56.66 20.02 57.6 19.22 58.45"/></g><g><g class="bu"><polyline id="l" class="c`" points="50.37 79.97 50.57 79.82 50.79 79.67 51.02 79.51 51.26 79.36 52.51 78.64 52.8 78.49 53.11 78.34 53.44 78.19 53.81 78.05 54.1 77.94 54.31 77.87 54.41 77.84 54.51 77.81 54.62 77.78 54.73 77.74 54.85 77.71 54.97 77.68 55.1 77.65 57.06 77.21 57.23 77.17 57.41 77.14 57.6 77.11 57.79 77.08 58 77.05 58.21 77.03 58.44 77.01 58.67 77 58.91 76.99 74.38 76.98 75 76.98 75 73 74.38 73 58.91 73.01 58.56 73.02 58.23 73.03 57.91 73.06 57.6 73.09 57.31 73.12 57.03 73.16 56.76 73.21 56.5 73.26 56.25 73.31 54.23 73.76 54.04 73.81 53.87 73.85 53.7 73.9 53.54 73.94 53.38 73.99 53.23 74.03 53.09 74.08 52.84 74.16 52.47 74.29 51.99 74.48 51.52 74.69 51.07 74.9 50.65 75.12 49.28 75.91 48.93 76.12 48.6 76.34 48.28 76.56 47.99 76.78"/></g><g class="cm"><polyline id="o" class="c`" points="47.3 83.39 47.34 83.32 47.37 83.25 47.42 83.17 47.46 83.09 47.51 83.01 47.56 82.93 47.61 82.84 47.67 82.75 47.73 82.66 47.79 82.57 47.85 82.47 47.93 82.37 48 82.26 48.08 82.16 48.16 82.04 48.25 81.93 48.35 81.81 48.45 81.69 48.56 81.57 48.67 81.44 48.79 81.31 48.92 81.18 49.06 81.04 49.2 80.91 49.36 80.77 49.52 80.62 49.7 80.48 49.88 80.33 50.12 80.15 50.37 79.97 47.99 76.78 47.75 76.96 47.51 77.14 47.24 77.34 46.99 77.55 46.75 77.75 46.53 77.95 46.32 78.15 46.12 78.34 45.94 78.53 45.77 78.72 45.6 78.9 45.45 79.08 45.3 79.25 45.16 79.42 45.04 79.58 44.91 79.74 44.8 79.89 44.69 80.04 44.59 80.19 44.49 80.33 44.4 80.46 44.32 80.59 44.24 80.72 44.16 80.85 44.09 80.96 44.02 81.08 43.96 81.19 43.9 81.3 43.84 81.4 43.79 81.5"/></g></g><g id="r" class="cq"><polyline id="s" class="ca" points="-26.66 55.5 32.15 87.72 33.57 88.26 35.05 88.6 36.56 88.75 38.08 88.69 39.58 88.42 41.03 87.96 42.4 87.3 43.67 86.47 44.82 85.47 45.82 84.33 46.66 83.06 44.25 81.88 43.6 82.83 42.82 83.69 41.93 84.43 40.95 85.05 39.89 85.53 38.78 85.86 37.64 86.05 36.48 86.07 35.33 85.94 34.2 85.65 33.13 85.22 -25.36 53.16"/></g><g id="v" class="co"><path id="w" class="ca" d="M8.27,102l.94,5.46,.47,1.45,.66,1.37,.84,1.27,1,1.15,1.14,1,1.27,.84,1.37,.66,1.45,.47,1.5,.27,1.52,.07,1.51-.14,1.48-.34,1.42-.54,1.34-.73c4.4-2.17,2.53-4.48,8.74-4.45l-.16-2.9c-5.31-.76-7.11,3.68-10.15,5.18l-1.03,.53-1.09,.39-1.13,.24-1.16,.09-1.16-.07-1.14-.23-1.1-.38-1.04-.52-.96-.66-.86-.78-.75-.89-.62-.98-.48-1.05-.34-1.11-3.93-12.15"/></g><g id="a`" class="cj"><polyline id="aa" class="ca" points="34.75 106.88 36.17 107.42 37.5 108.14 38.73 109.04 39.82 110.1 40.76 111.29 41.54 112.6 42.12 114 42.52 115.47 42.71 116.98 42.7 118.5 42.49 120 42.07 121.46 41.46 122.85 40.67 124.15 39.71 125.33 38.6 126.37 37.36 127.25 36.01 127.95 34.59 128.47 33.1 128.79 31.59 128.91 13.04 127.97 11.88 128.06 10.75 128.3 9.66 128.69 8.63 129.23 7.69 129.9 .76 136.48 -.48 137.36 -1.83 138.06 -3.26 138.58 -4.74 138.9 -6.26 139.02 -7.78 138.93 -9.27 138.64 -10.71 138.15 -12.07 137.47 -13.32 136.62 -14.45 135.6 -15.43 134.44 -16.25 133.16 -16.89 131.78 -17.33 130.32 -14.69 129.87 -14.33 130.97 -13.83 132.02 -13.18 132.98 -12.42 133.85 -11.54 134.61 -10.57 135.25 -9.53 135.74 -8.42 136.1 -7.28 136.3 -6.12 136.34 -4.97 136.23 -3.84 135.97 -2.76 135.55 -1.74 135 -.81 134.31 5.84 127.96 7.06 127.06 8.4 126.33 9.82 125.79 11.3 125.45 12.81 125.31 31.72 126.23 32.87 126.12 34 125.86 35.08 125.44 36.1 124.89 37.03 124.2 37.86 123.39 38.58 122.48 39.16 121.48 39.61 120.41 39.9 119.29 40.05 118.14 40.03 116.98 39.87 115.83 39.54 114.72 39.08 113.66 38.47 112.67 37.73 111.77 36.88 110.99 35.94 110.32 34.91 109.78 33.82 109.39"/></g><g id="ad" class="bw"><polyline id="ae" class="ca" points=".12 98.91 18 89.37 19.23 88.47 20.32 87.41 21.26 86.22 22.03 84.91 22.62 83.51 23.02 82.04 23.21 80.54 23.2 79.02 22.98 77.51 22.57 76.05 21.96 74.66 21.17 73.36 20.21 72.18 19.1 71.14 8.38 63.41 7.53 62.62 5.44 64.3 6.53 65.35 17.53 73.31 18.36 74.12 19.07 75.03 19.66 76.03 20.1 77.1 20.4 78.22 20.54 79.37 20.53 80.53 20.36 81.68 20.04 82.79 19.57 83.85 18.97 84.84 18.23 85.74 17.38 86.53 16.44 87.19 -1.14 96.55"/></g><g id="ah" class="cr"><polyline id="ai" class="ca" points="51.86 141.78 43.81 123.18 43.01 121.89 42.05 120.71 40.94 119.68 39.7 118.8 38.35 118.1 36.92 117.58 35.43 117.27 33.92 117.16 32.4 117.25 30.91 117.54 29.47 118.04 28.11 118.72 26.86 119.58 25.73 120.6 17.16 130.65 16.3 131.43 17.8 133.65 18.94 132.65 27.77 122.34 28.64 121.58 29.61 120.94 30.66 120.44 31.76 120.08 32.9 119.88 34.06 119.83 35.21 119.94 36.34 120.2 37.42 120.61 38.44 121.17 39.38 121.85 40.21 122.66 40.93 123.57 41.51 124.57 49.4 142.85"/></g><g id="al" class="ck"><polyline id="am" class="ca" points="-7.17 86.55 -6.03 86.37 -4.87 86.34 -3.72 86.47 41.45 98.3 42.53 98.73 43.54 99.3 44.46 100 45.28 100.82 45.98 101.75 46.55 102.75 46.98 103.83 54.39 134.92 54.52 136.07 54.49 137.23 54.3 138.37 53.97 139.48 53.48 140.54 52.86 141.51 52.11 142.4 51.25 143.18 50.29 143.83 49.26 144.35 48.16 144.72 47.02 144.95 45.87 145.02 44.71 144.93 43.58 144.68 42.49 144.29 41.46 143.75 40.52 143.08 38.67 145.02 39.89 145.92 41.22 146.65 42.64 147.19 44.12 147.54 45.64 147.68 47.15 147.62 48.65 147.36 50.1 146.89 51.47 146.24 52.74 145.4 53.89 144.41 54.89 143.26 55.73 142 56.39 140.63 56.86 139.18 57.13 137.69 57.2 136.17 57.06 134.66 49.58 103.21 49.05 101.79 48.32 100.45 47.43 99.22 46.37 98.13 45.18 97.19 43.87 96.41 42.47 95.82 -3.04 83.88 -4.55 83.68 -6.07 83.69 -7.57 83.91"/></g><polygon id="ap" class="cc" points="21.77 62.07 34.65 64.98 35.74 65.38 36.77 65.91 37.71 66.59 38.56 67.38 39.29 68.28 39.9 69.27 40.36 70.33 40.68 71.44 40.84 72.59 40.85 73.75 40.7 74.9 40.4 76.02 39.95 77.09 39.37 78.08 38.65 78.99 37.81 79.8 36.88 80.48 35.86 81.04 34.78 81.45 33.65 81.71 33.87 84.38 35.35 84.06 36.78 83.55 38.13 82.85 39.38 81.98 40.49 80.94 41.45 79.76 42.25 78.47 42.86 77.08 43.28 75.62 43.5 74.12 43.52 72.6 43.33 71.09 42.94 69.62 42.36 68.22 41.59 66.91 40.66 65.71 39.57 64.65 38.34 63.75 37.01 63.02 35.59 62.47 22.36 59.46 21.24 59.14 20.18 58.68 19.19 58.07 18.3 57.34 17.51 56.49 16.84 55.55 16.3 54.52 15.91 53.43 15.66 52.29 15.57 51.14 15.64 49.98 15.87 48.84 16.24 47.75 16.76 46.71 17.41 45.76 18.19 44.89 19.08 44.15 20.06 43.53 21.11 43.04 22.22 42.7 23.36 42.52 24.52 42.49 25.67 42.61 26.8 42.9 27.87 43.32 28.88 43.9 29.8 44.6 30.62 45.42 31.33 46.34 33.67 45.04 32.77 43.82 31.72 42.72 30.52 41.78 29.22 41.01 27.81 40.42 26.35 40.02 24.84 39.83 23.32 39.84 21.82 40.06 20.35 40.47 18.96 41.08 17.66 41.87 16.49 42.83 15.45 43.94 14.57 45.18 13.86 46.52 13.34 47.95 13.02 49.44 12.9 50.95 12.99 52.47 13.28 53.96 13.77 55.4 14.45 56.76 15.3 58.02 16.32 59.15 17.48 60.13 18.76 60.95 20.14 61.58 21.59 62.03 21.77 62.07"/><g id="as" class="cl"><path id="at" class="ca" d="M59.61,43.97l-.42-1.46-.62-1.39-.8-1.29-5.65-7.14-1.11-1.03-1.24-.87-1.35-.7-1.43-.51-1.49-.31-1.52-.11-1.52,.09-1.49,.3-1.44,.5-1.36,.69-1.25,.86-1.12,1.02-.98,1.16-2.06,3.24-.74,.89-.86,.78-.95,.66-1.03,.53-1.09,.38-1.14,.23-1.16,.08-1.16-.08s-1.92-.55-3.59-2.85-4.56-2.59-2.25,1.42,5.27,4.05,5.27,4.05l1.51,.13,1.52-.07,1.49-.27,1.44-.47,1.37-.66,1.27-.84,1.14-1,1-1.15,2.28-3.53,.76-.87,.87-.76,.97-.64,1.04-.5,1.1-.36,1.14-.21,1.16-.05,1.15,.11,1.13,.26,1.08,.41,1.02,.55,.94,.68,.83,.8,5.4,6.88,.59,1,.45,1.07,.3,1.12"/></g><g><g id="aw" class="bv"><polyline id="ax" class="ca" points="33.48 60.95 42.17 39.9 53.27 10.5 50.8 9.48 39.69 38.88 31 59.92"/></g><g id="ba" class="cs"><polyline id="bb" class="ca" points="36.14 105.51 37.56 104.95 38.88 104.21 40.09 103.29 41.17 102.22 42.1 101.01 42.85 99.69 43.42 98.28 43.79 96.81 43.96 95.3 43.93 93.78 43.69 92.28 43.26 90.83 42.63 89.44 41.82 88.16 40.84 86.99 39.72 85.97 38.47 85.11 32.67 82.13 31.72 81.47 30.86 80.69 30.11 79.81 29.49 78.83 29.01 77.77 28.67 76.66 28.49 75.52 28.46 74.36 28.59 73.21 28.87 72.09 32.97 62.18 33.48 60.95 31 59.92 30.49 61.16 26.4 71.06 26 72.53 25.8 74.04 25.81 75.56 26.03 77.06 26.44 78.52 27.05 79.92 27.84 81.22 28.79 82.4 29.9 83.44 31.14 84.32 37.24 87.49 38.18 88.16 39.02 88.96 39.75 89.86 40.35 90.85 40.81 91.92 41.12 93.03 41.28 94.18 41.29 95.34 41.13 96.49 40.83 97.6 40.37 98.67 39.78 99.67 39.06 100.57 38.22 101.37 37.28 102.06 36.26 102.6 35.18 103.01"/></g></g><g id="be" class="cg"><path id="bf" class="cb" d="M-2.06,64.71l.93,26.95,.27,1.5,.47,1.45,.66,1.37,.84,1.27,1,1.14,1.14,1,1.27,.84,1.37,.66,1.45,.47,25.19,4.72s2.18,.18,3.63-.56l-.96-2.5c-.9,.46-2.53,.39-2.53,.39l-24.83-4.68-1.1-.38-1.04-.52-.96-.66-.86-.78-.75-.89-.62-.98-.48-1.05-.34-1.11-.18-1.14-.89-26.59"/></g><polyline id="bi" class="cd" points="21.84 97.9 23.29 97.46 24.68 96.83 25.96 96.02 27.12 95.04 28.15 93.92 29.01 92.67 29.69 91.31 30.19 89.87 32.86 76.93 33.23 75.84 33.75 74.8 34.41 73.84 46.33 60.91 47.19 59.65 47.87 58.3 48.37 56.86 48.66 55.37 48.76 53.85 48.64 52.34 48.33 50.85 47.82 49.42 47.12 48.07 46.24 46.83 45.21 45.71 44.03 44.75 42.74 43.95 41.35 43.34 39.89 42.92 38.39 42.7 36.87 42.68 35.36 42.87 33.89 43.25 34.9 45.74 36.02 45.46 37.17 45.34 38.33 45.37 39.48 45.56 40.58 45.91 41.63 46.39 42.61 47.02 43.49 47.77 44.27 48.64 44.92 49.59 45.43 50.63 45.8 51.73 46.02 52.87 46.08 54.03 45.99 55.18 45.74 56.31 45.34 57.4 44.8 58.43 44.13 59.37 32.44 72.03 31.56 73.27 30.85 74.61 30.33 76.04 27.56 89.33 27.16 90.42 26.62 91.44 25.95 92.38 25.16 93.23 24.25 93.96 23.26 94.56 22.2 95.02 21.08 95.33"/><g id="bl" class="cp"><polyline id="bm" class="ca" points="57 44.6 57.29 45.72 57.41 46.87 57.38 48.03 57.2 49.17 56.86 50.28 56.38 51.34 55.76 52.32 55.01 53.2 54.15 53.98 53.2 54.63 52.16 55.15 51.07 55.53 49.93 55.76 48.77 55.83 47.62 55.74 46.48 55.5 45.39 55.11 43.42 53.9 43.42 53.9 34.43 45.93 32.08 47.08 41.57 55.84 42.8 56.74 44.13 57.47 45.55 58.01 47.03 58.35 48.54 58.49 50.06 58.43 51.56 58.16 53.01 57.7 54.38 57.04 55.65 56.2 56.79 55.21 57.79 54.06 58.63 52.79 59.29 51.42 59.76 49.98 60.02 48.48 60.09 46.97 59.95 45.45 59.61 43.97"/></g><g id="bp" class="cw"><polyline id="bq" class="ca" points="7.53 107.46 13.78 101.26 14.67 100.52 15.65 99.9 16.7 99.41 20.55 98.28 21.84 97.9 21.08 95.33 19.8 95.71 15.94 96.84 14.55 97.45 13.25 98.24 12.08 99.2 5.57 105.65"/></g><path id="bt" class="ce" d="M36.87,42.68l-1.51,.19-1.47,.39-12.41,5.04-1.24,.5-13.2,5.42,.66,2.59,13.54-5.54,1.24-.5,12.41-5.04,1.13-.28,1.15-.12s1.89-.02,2.73,.36"/></g></g><g><g class="bx"><path d="M92.3,99.73c.39-.64,1.07-1.03,1.82-1.03,.38,0,.75,.1,1.08,.3,1,.6,1.33,1.9,.74,2.9-.38,.65-1.06,1.03-1.82,1.03-.38,0-.75-.1-1.08-.3-.48-.29-.83-.75-.96-1.29-.14-.55-.06-1.12,.23-1.6Zm12.6,22.36c-.49,.42-1.02,.51-1.37,.51-.62,0-1.21-.27-1.61-.73-.76-.88-.65-2.22,.23-2.98,.49-.42,1.02-.51,1.37-.51,.62,0,1.2,.27,1.61,.74,.37,.43,.55,.98,.5,1.54-.04,.56-.3,1.07-.73,1.44Z"/><path d="M84,53.61c.07,.02,.14,.03,.21,.05-.07-.01-.14-.03-.21-.05Z"/><path d="M95.38,63.26c.17-.27,.39-.49,.67-.66,.33-.21,.72-.32,1.12-.32s.79,.11,1.12,.32c.99,.63,1.28,1.94,.66,2.92-.39,.62-1.06,.99-1.79,.99-.4,0-.79-.11-1.12-.33-.98-.62-1.28-1.94-.66-2.92Zm6.38-20.19c-.6,.95-1.94,1.27-2.91,.65l-.1-.06c-.91-.65-1.16-1.9-.56-2.85,.39-.61,1.05-.98,1.78-.98,.4,0,.79,.11,1.12,.33,.48,.3,.81,.78,.94,1.33,.12,.55,.03,1.11-.28,1.58Z"/><path d="M118.53,54.67c.39-.61,1.05-.98,1.78-.98,.4,0,.79,.11,1.12,.33,.48,.3,.81,.78,.94,1.33,.12,.55,.02,1.11-.28,1.58-.6,.95-1.94,1.27-2.91,.65l-.09-.06c-.92-.65-1.16-1.9-.56-2.85Zm0,23.46c.39-.61,1.05-.98,1.78-.98,.4,0,.79,.11,1.12,.33,.48,.3,.81,.77,.94,1.33,.12,.55,.02,1.11-.28,1.58-.6,.95-1.94,1.27-2.91,.65l-.09-.06c-.92-.65-1.16-1.9-.56-2.85Zm0,26.3c.39-.61,1.05-.98,1.78-.98,.4,0,.79,.11,1.12,.33,.48,.3,.81,.78,.94,1.33,.12,.55,.02,1.11-.28,1.58-.6,.95-1.94,1.27-2.91,.65l-.09-.06c-.92-.65-1.16-1.9-.56-2.85Z"/><path d="M108.18,114.1c-1.17-1.36-2.86-2.14-4.65-2.14-1.46,0-2.88,.53-3.98,1.48-1.61,1.38-2.33,3.43-2.09,5.4-1.95,.7-4.26,1.37-5.33,1.33-.82-.04-1.3-.35-2.22-.97-1.17-.79-2.42-1.51-4.15-1.85,2.94-2.76,6.01-6.83,8.58-12.83,2.06-.08,3.98-1.19,5.04-2.97,1.72-2.9,.77-6.66-2.12-8.39-.95-.57-2.03-.86-3.13-.86-2.15,0-4.16,1.14-5.26,2.99-.84,1.41-1.08,3.05-.68,4.64,.35,1.39,1.16,2.59,2.3,3.43-4.05,9.22-9.22,13.08-12.57,14.68-.13,.04-.25,.1-.36,.17-1.19,.53-2.05,.7-2.56,.81v4c.28-.03,1.88-.12,4.25-1.19,5.35-1.36,6.84-.35,8.41,.71,1.02,.69,2.29,1.55,4.26,1.66,.1,0,.2,0,.31,0,2.11,0,5.17-1.02,7.02-1.72,1.14,1.12,2.68,1.75,4.29,1.75h0c1.46,0,2.88-.52,3.98-1.48,1.24-1.06,1.99-2.55,2.12-4.18,.12-1.63-.39-3.21-1.46-4.45Zm-15.87-16.78c.39-.64,1.07-1.03,1.82-1.03,.38,0,.75,.1,1.08,.3,1,.6,1.33,1.9,.74,2.9-.38,.65-1.06,1.03-1.82,1.03-.38,0-.75-.1-1.08-.3-.48-.29-.83-.75-.96-1.29-.14-.55-.06-1.12,.23-1.6Zm12.6,22.36c-.49,.42-1.02,.51-1.37,.51-.62,0-1.21-.27-1.61-.73-.76-.88-.65-2.22,.23-2.98,.49-.42,1.02-.51,1.37-.51,.62,0,1.2,.27,1.61,.74,.37,.43,.55,.98,.5,1.54-.04,.56-.3,1.07-.73,1.44Z"/><path d="M84,51.21c.07,.02,.14,.03,.21,.05-.07-.01-.14-.03-.21-.05Z"/><path d="M105.95,38.2c-.36-1.6-1.32-2.96-2.71-3.84-.98-.62-2.11-.94-3.26-.94-2.12,0-4.05,1.07-5.17,2.85-1.35,2.14-1.22,4.8,.14,6.76-3.65,4.12-8.71,4.31-9.94,4.29-3.69-1.6-7.23-2.16-10-2.32v4c2.44,.14,5.55,.69,8.75,2.14h.01c3.45,1.57,6.33,3.93,8.61,7.05-.14,.17-.26,.35-.38,.54-1.8,2.85-.94,6.64,1.9,8.44,.98,.62,2.11,.95,3.27,.95,2.11,0,4.05-1.07,5.18-2.85,1.81-2.85,.95-6.64-1.91-8.45-1.38-.87-3.09-1.11-4.67-.75-1.54-2.15-3.32-4.02-5.34-5.57,2.52-.78,5.4-2.27,7.78-5.1,.57,.17,1.17,.27,1.77,.27,2.12,0,4.05-1.07,5.17-2.85,.88-1.38,1.16-3.01,.8-4.6Zm-10.57,22.65c.17-.27,.39-.49,.67-.66,.33-.21,.72-.32,1.12-.32s.79,.11,1.12,.32c.99,.63,1.28,1.94,.66,2.92-.39,.62-1.06,.99-1.79,.99-.4,0-.79-.11-1.12-.33-.98-.62-1.28-1.94-.66-2.92Zm6.38-20.19c-.6,.95-1.94,1.27-2.91,.65l-.1-.06c-.91-.65-1.16-1.9-.56-2.85,.39-.61,1.05-.98,1.78-.98,.4,0,.79,.11,1.12,.33,.48,.3,.81,.78,.94,1.33,.12,.55,.03,1.11-.28,1.58Z"/><path d="M114.65,79.19c.42,1.04,1.14,1.96,2.11,2.65,.07,.05,.15,.11,.28,.19,.98,.62,2.11,.95,3.27,.95,2.12,0,4.05-1.07,5.17-2.85,.88-1.38,1.16-3.01,.8-4.6-.36-1.6-1.32-2.96-2.71-3.84-.98-.62-2.11-.94-3.27-.94-.12,0-.25,0-.38,.02-.71-3.16-.92-7.77,.04-11.26,.11,.01,.22,.02,.34,.02,2.12,0,4.05-1.07,5.17-2.85,.88-1.38,1.16-3.01,.8-4.6-.36-1.6-1.32-2.96-2.71-3.84-.98-.62-2.11-.94-3.27-.94-2.11,0-4.05,1.07-5.17,2.85-1.6,2.53-1.12,5.8,1.02,7.76,.02,.02,.05,.04,.07,.06-1.35,4.52-1.15,10.32-.04,14.42-.14,.13-.29,.25-.43,.4-.23,.25-.45,.53-.63,.82-.32,.5-.55,1.03-.71,1.58-3.37,.49-5.2,1.67-6.82,2.73-2.04,1.32-3.96,2.57-9.64,2.67-1.96-.23-3.55-.18-5.29-.12-1.43,.05-2.91,.11-4.85,0-1.33-.07-2.1-.88-3.46-2.42-1.8-2.05-4.22-4.65-9.37-5.02v4c3.29,.3,4.8,1.89,6.36,3.67,1.49,1.69,3.17,3.62,6.26,3.78,2.12,.11,3.76,.05,5.21,0,2.49-.09,4.45-.16,7.86,.68,2.61,.64,12.1,9.67,14.77,14.32-.11,.14-.22,.28-.31,.43-1.74,2.75-1.03,6.38,1.62,8.25,.07,.05,.15,.1,.28,.19,.98,.62,2.11,.95,3.27,.95,2.12,0,4.05-1.07,5.17-2.85,.88-1.37,1.16-3.01,.8-4.6-.36-1.6-1.32-2.96-2.71-3.84-.98-.62-2.11-.94-3.27-.94-.53,0-1.05,.07-1.54,.2-2.56-4.19-8.65-10.46-13.19-13.79,1.81-.63,3.05-1.43,4.21-2.19,1.43-.93,2.61-1.69,4.86-2.07Zm3.88-26.92c.39-.61,1.05-.98,1.78-.98,.4,0,.79,.11,1.12,.33,.48,.3,.81,.78,.94,1.33,.12,.55,.02,1.11-.28,1.58-.6,.95-1.94,1.27-2.91,.65l-.09-.06c-.92-.65-1.16-1.9-.56-2.85Zm0,23.46c.39-.61,1.05-.98,1.78-.98,.4,0,.79,.11,1.12,.33,.48,.3,.81,.77,.94,1.33,.12,.55,.02,1.11-.28,1.59-.6,.95-1.94,1.27-2.91,.65l-.09-.06c-.92-.65-1.16-1.9-.56-2.85Zm0,26.3c.39-.61,1.05-.98,1.78-.98,.4,0,.79,.11,1.12,.33,.48,.3,.81,.78,.94,1.33,.12,.55,.02,1.11-.28,1.58-.6,.95-1.94,1.27-2.91,.65l-.09-.06c-.92-.65-1.16-1.9-.56-2.85Z"/></g><g><g><path class="cu" d="M108.18,117.1c-1.17-1.36-2.86-2.14-4.65-2.14-1.46,0-2.88,.53-3.98,1.48-1.61,1.38-2.33,3.43-2.09,5.4-1.95,.7-4.26,1.37-5.33,1.33-.82-.04-1.3-.35-2.22-.97-1.17-.79-2.42-1.51-4.15-1.85,2.94-2.76,6.01-6.83,8.58-12.83,2.06-.08,3.98-1.19,5.04-2.97,1.72-2.9,.77-6.66-2.12-8.39-.95-.57-2.03-.86-3.13-.86-2.15,0-4.16,1.14-5.26,2.99-.84,1.41-1.08,3.05-.68,4.64,.35,1.39,1.16,2.59,2.3,3.43-4.05,9.22-9.22,13.08-12.57,14.68-.13,.04-.25,.1-.36,.17-1.19,.53-2.05,.7-2.56,.81v4c.28-.03,1.88-.12,4.25-1.19,5.35-1.36,6.84-.35,8.41,.71,1.02,.69,2.29,1.55,4.26,1.66,.1,0,.2,0,.31,0,2.11,0,5.17-1.02,7.02-1.72,1.14,1.12,2.68,1.75,4.29,1.75h0c1.46,0,2.88-.52,3.98-1.48,1.24-1.06,1.99-2.55,2.12-4.18,.12-1.63-.39-3.21-1.46-4.45Zm-15.87-16.78c.39-.64,1.07-1.03,1.82-1.03,.38,0,.75,.1,1.08,.3,1,.6,1.33,1.9,.74,2.9-.38,.65-1.06,1.03-1.82,1.03-.38,0-.75-.1-1.08-.3-.48-.29-.83-.75-.96-1.29-.14-.55-.06-1.12,.23-1.6Zm12.6,22.36c-.49,.42-1.02,.51-1.37,.51-.62,0-1.21-.27-1.61-.73-.76-.88-.65-2.22,.23-2.98,.49-.42,1.02-.51,1.37-.51,.62,0,1.2,.27,1.61,.74,.37,.43,.55,.98,.5,1.54-.04,.56-.3,1.07-.73,1.44Z"/><path d="M84,53.61c.07,.02,.14,.03,.21,.05-.07-.01-.14-.03-.21-.05Z"/><path class="cu" d="M105.95,40.21c-.36-1.6-1.32-2.96-2.71-3.84-.98-.62-2.11-.94-3.26-.94-2.12,0-4.05,1.07-5.17,2.85-1.35,2.14-1.22,4.8,.14,6.76-3.65,4.12-8.71,4.31-9.94,4.29-3.69-1.6-7.23-2.16-10-2.32v4c2.44,.14,5.55,.69,8.75,2.14h.01c3.45,1.57,6.33,3.93,8.61,7.05-.14,.17-.26,.35-.38,.54-1.8,2.85-.94,6.64,1.9,8.44,.98,.62,2.11,.95,3.27,.95,2.11,0,4.05-1.07,5.18-2.85,1.81-2.85,.95-6.64-1.91-8.45-1.38-.87-3.09-1.11-4.67-.75-1.54-2.15-3.32-4.02-5.34-5.57,2.52-.78,5.4-2.27,7.78-5.1,.57,.17,1.17,.27,1.77,.27,2.12,0,4.05-1.07,5.17-2.85,.88-1.38,1.16-3.01,.8-4.6Zm-10.57,22.65c.17-.27,.39-.49,.67-.66,.33-.21,.72-.32,1.12-.32s.79,.11,1.12,.32c.99,.63,1.28,1.94,.66,2.92-.39,.62-1.06,.99-1.79,.99-.4,0-.79-.11-1.12-.33-.98-.62-1.28-1.94-.66-2.92Zm6.38-20.19c-.6,.95-1.94,1.27-2.91,.65l-.1-.06c-.91-.65-1.16-1.9-.56-2.85,.39-.61,1.05-.98,1.78-.98,.4,0,.79,.11,1.12,.33,.48,.3,.81,.78,.94,1.33,.12,.55,.03,1.11-.28,1.58Z"/><path class="cu" d="M114.65,82.19c.42,1.04,1.14,1.96,2.11,2.65,.07,.05,.15,.11,.28,.19,.98,.62,2.11,.95,3.27,.95,2.12,0,4.05-1.07,5.17-2.85,.88-1.38,1.16-3.01,.8-4.6-.36-1.6-1.32-2.96-2.71-3.84-.98-.62-2.11-.94-3.27-.94-.12,0-.25,0-.38,.02-.71-3.16-.92-7.77,.04-11.26,.11,.01,.22,.02,.34,.02,2.12,0,4.05-1.07,5.17-2.85,.88-1.38,1.16-3.01,.8-4.6-.36-1.6-1.32-2.96-2.71-3.84-.98-.62-2.11-.94-3.27-.94-2.11,0-4.05,1.07-5.17,2.85-1.6,2.53-1.12,5.8,1.02,7.76,.02,.02,.05,.04,.07,.06-1.35,4.52-1.15,10.32-.04,14.42-.14,.13-.29,.25-.43,.4-.23,.25-.45,.53-.63,.82-.32,.5-.55,1.03-.71,1.58-3.37,.49-5.2,1.67-6.82,2.73-2.04,1.32-3.96,2.57-9.64,2.67-1.96-.23-3.55-.18-5.29-.12-1.43,.05-2.91,.11-4.85,0-1.33-.07-2.1-.88-3.46-2.42-1.8-2.05-4.22-4.65-9.37-5.02v4c3.29,.3,4.8,1.89,6.36,3.67,1.49,1.69,3.17,3.62,6.26,3.78,2.12,.11,3.76,.05,5.21,0,2.49-.09,4.45-.16,7.86,.68,2.61,.64,12.1,9.67,14.77,14.32-.11,.14-.22,.28-.31,.43-1.74,2.75-1.03,6.38,1.62,8.25,.07,.05,.15,.1,.28,.19,.98,.62,2.11,.95,3.27,.95,2.12,0,4.05-1.07,5.17-2.85,.88-1.37,1.16-3.01,.8-4.6-.36-1.6-1.32-2.96-2.71-3.84-.98-.62-2.11-.94-3.27-.94-.53,0-1.05,.07-1.54,.2-2.56-4.19-8.65-10.46-13.19-13.79,1.81-.63,3.05-1.43,4.21-2.19,1.43-.93,2.61-1.69,4.86-2.07Zm3.88-26.92c.39-.61,1.05-.98,1.78-.98,.4,0,.79,.11,1.12,.33,.48,.3,.81,.78,.94,1.33,.12,.55,.02,1.11-.28,1.58-.6,.95-1.94,1.27-2.91,.65l-.09-.06c-.92-.65-1.16-1.9-.56-2.85Zm0,23.46c.39-.61,1.05-.98,1.78-.98,.4,0,.79,.11,1.12,.33,.48,.3,.81,.77,.94,1.33,.12,.55,.02,1.11-.28,1.59-.6,.95-1.94,1.27-2.91,.65l-.09-.06c-.92-.65-1.16-1.9-.56-2.85Zm0,26.3c.39-.61,1.05-.98,1.78-.98,.4,0,.79,.11,1.12,.33,.48,.3,.81,.78,.94,1.33,.12,.55,.02,1.11-.28,1.58-.6,.95-1.94,1.27-2.91,.65l-.09-.06c-.92-.65-1.16-1.9-.56-2.85Z"/></g><g><path class="c`" d="M108.18,114.1c-1.17-1.36-2.86-2.14-4.65-2.14-1.46,0-2.88,.53-3.98,1.48-1.61,1.38-2.33,3.43-2.09,5.4-1.95,.7-4.26,1.37-5.33,1.33-.82-.04-1.3-.35-2.22-.97-1.17-.79-2.42-1.51-4.15-1.85,2.94-2.76,6.01-6.83,8.58-12.83,2.06-.08,3.98-1.19,5.04-2.97,1.72-2.9,.77-6.66-2.12-8.39-.95-.57-2.03-.86-3.13-.86-2.15,0-4.16,1.14-5.26,2.99-.84,1.41-1.08,3.05-.68,4.64,.35,1.39,1.16,2.59,2.3,3.43-4.05,9.22-9.22,13.08-12.57,14.68-.13,.04-.25,.1-.36,.17-1.19,.53-2.05,.7-2.56,.81v4c.28-.03,1.88-.12,4.25-1.19,5.35-1.36,6.84-.35,8.41,.71,1.02,.69,2.29,1.55,4.26,1.66,.1,0,.2,0,.31,0,2.11,0,5.17-1.02,7.02-1.72,1.14,1.12,2.68,1.75,4.29,1.75h0c1.46,0,2.88-.52,3.98-1.48,1.24-1.06,1.99-2.55,2.12-4.18,.12-1.63-.39-3.21-1.46-4.45Zm-15.87-16.78c.39-.64,1.07-1.03,1.82-1.03,.38,0,.75,.1,1.08,.3,1,.6,1.33,1.9,.74,2.9-.38,.65-1.06,1.03-1.82,1.03-.38,0-.75-.1-1.08-.3-.48-.29-.83-.75-.96-1.29-.14-.55-.06-1.12,.23-1.6Zm12.6,22.36c-.49,.42-1.02,.51-1.37,.51-.62,0-1.21-.27-1.61-.73-.76-.88-.65-2.22,.23-2.98,.49-.42,1.02-.51,1.37-.51,.62,0,1.2,.27,1.61,.74,.37,.43,.55,.98,.5,1.54-.04,.56-.3,1.07-.73,1.44Z"/><path class="c`" d="M84,51.21c.07,.02,.14,.03,.21,.05-.07-.01-.14-.03-.21-.05Z"/><path class="c`" d="M105.95,38.2c-.36-1.6-1.32-2.96-2.71-3.84-.98-.62-2.11-.94-3.26-.94-2.12,0-4.05,1.07-5.17,2.85-1.35,2.14-1.22,4.8,.14,6.76-3.65,4.12-8.71,4.31-9.94,4.29-3.69-1.6-7.23-2.16-10-2.32v4c2.44,.14,5.55,.69,8.75,2.14h.01c3.45,1.57,6.33,3.93,8.61,7.05-.14,.17-.26,.35-.38,.54-1.8,2.85-.94,6.64,1.9,8.44,.98,.62,2.11,.95,3.27,.95,2.11,0,4.05-1.07,5.18-2.85,1.81-2.85,.95-6.64-1.91-8.45-1.38-.87-3.09-1.11-4.67-.75-1.54-2.15-3.32-4.02-5.34-5.57,2.52-.78,5.4-2.27,7.78-5.1,.57,.17,1.17,.27,1.77,.27,2.12,0,4.05-1.07,5.17-2.85,.88-1.38,1.16-3.01,.8-4.6Zm-10.57,22.65c.17-.27,.39-.49,.67-.66,.33-.21,.72-.32,1.12-.32s.79,.11,1.12,.32c.99,.63,1.28,1.94,.66,2.92-.39,.62-1.06,.99-1.79,.99-.4,0-.79-.11-1.12-.33-.98-.62-1.28-1.94-.66-2.92Zm6.38-20.19c-.6,.95-1.94,1.27-2.91,.65l-.1-.06c-.91-.65-1.16-1.9-.56-2.85,.39-.61,1.05-.98,1.78-.98,.4,0,.79,.11,1.12,.33,.48,.3,.81,.78,.94,1.33,.12,.55,.03,1.11-.28,1.58Z"/><path class="c`" d="M114.65,79.19c.42,1.04,1.14,1.96,2.11,2.65,.07,.05,.15,.11,.28,.19,.98,.62,2.11,.95,3.27,.95,2.12,0,4.05-1.07,5.17-2.85,.88-1.38,1.16-3.01,.8-4.6-.36-1.6-1.32-2.96-2.71-3.84-.98-.62-2.11-.94-3.27-.94-.12,0-.25,0-.38,.02-.71-3.16-.92-7.77,.04-11.26,.11,.01,.22,.02,.34,.02,2.12,0,4.05-1.07,5.17-2.85,.88-1.38,1.16-3.01,.8-4.6-.36-1.6-1.32-2.96-2.71-3.84-.98-.62-2.11-.94-3.27-.94-2.11,0-4.05,1.07-5.17,2.85-1.6,2.53-1.12,5.8,1.02,7.76,.02,.02,.05,.04,.07,.06-1.35,4.52-1.15,10.32-.04,14.42-.14,.13-.29,.25-.43,.4-.23,.25-.45,.53-.63,.82-.32,.5-.55,1.03-.71,1.58-3.37,.49-5.2,1.67-6.82,2.73-2.04,1.32-3.96,2.57-9.64,2.67-1.96-.23-3.55-.18-5.29-.12-1.43,.05-2.91,.11-4.85,0-1.33-.07-2.1-.88-3.46-2.42-1.8-2.05-4.22-4.65-9.37-5.02v4c3.29,.3,4.8,1.89,6.36,3.67,1.49,1.69,3.17,3.62,6.26,3.78,2.12,.11,3.76,.05,5.21,0,2.49-.09,4.45-.16,7.86,.68,2.61,.64,12.1,9.67,14.77,14.32-.11,.14-.22,.28-.31,.43-1.74,2.75-1.03,6.38,1.62,8.25,.07,.05,.15,.1,.28,.19,.98,.62,2.11,.95,3.27,.95,2.12,0,4.05-1.07,5.17-2.85,.88-1.37,1.16-3.01,.8-4.6-.36-1.6-1.32-2.96-2.71-3.84-.98-.62-2.11-.94-3.27-.94-.53,0-1.05,.07-1.54,.2-2.56-4.19-8.65-10.46-13.19-13.79,1.81-.63,3.05-1.43,4.21-2.19,1.43-.93,2.61-1.69,4.86-2.07Zm3.88-26.92c.39-.61,1.05-.98,1.78-.98,.4,0,.79,.11,1.12,.33,.48,.3,.81,.78,.94,1.33,.12,.55,.02,1.11-.28,1.58-.6,.95-1.94,1.27-2.91,.65l-.09-.06c-.92-.65-1.16-1.9-.56-2.85Zm0,23.46c.39-.61,1.05-.98,1.78-.98,.4,0,.79,.11,1.12,.33,.48,.3,.81,.77,.94,1.33,.12,.55,.02,1.11-.28,1.59-.6,.95-1.94,1.27-2.91,.65l-.09-.06c-.92-.65-1.16-1.9-.56-2.85Zm0,26.3c.39-.61,1.05-.98,1.78-.98,.4,0,.79,.11,1.12,.33,.48,.3,.81,.78,.94,1.33,.12,.55,.02,1.11-.28,1.58-.6,.95-1.94,1.27-2.91,.65l-.09-.06c-.92-.65-1.16-1.9-.56-2.85Z"/></g></g></g></g></g></g></svg>