<?xml version="1.0" encoding="UTF-8"?>
<svg id="Layer_1" data-name="Layer 1" xmlns="http://www.w3.org/2000/svg" width="150" height="150" viewBox="0 0 150 150">
  <defs>
    <style>
      .cls-1 {
        fill: #282422;
        stroke-width: 0px;
      }
    </style>
  </defs>
  <g>
    <path class="cls-1" d="m77.24,3v73.5c4.48,0,7.61-.77,12.89-3.18h.02c5.69-2.6,10.47-6.52,14.22-11.68-.23-.29-.44-.58-.63-.89-2.97-4.73-1.56-11.02,3.15-14,1.62-1.03,3.49-1.57,5.4-1.57,3.49,0,6.69,1.77,8.55,4.73,2.99,4.73,1.57,11.01-3.14,14.02-2.29,1.44-5.11,1.84-7.71,1.25-2.54,3.57-5.49,6.66-8.83,9.23,4.16,1.29,8.92,3.77,12.85,8.45.94-.29,1.93-.44,2.92-.44,3.49,0,6.69,1.77,8.54,4.72,1.44,2.28,1.92,4.99,1.33,7.63-.59,2.65-2.18,4.92-4.48,6.38-1.62,1.03-3.48,1.57-5.39,1.57-3.49,0-6.69-1.77-8.55-4.73-2.23-3.54-2.01-7.96.24-11.21-6.02-6.84-14.38-7.16-16.42-7.12-6.1,2.66-8.99,4.35-14.96,4.35v63l61.26-36V39L77.24,3Z"/>
    <path class="cls-1" d="m116.94,96.48c.74,0,1.46-.21,2.08-.61.89-.56,1.5-1.44,1.73-2.47.23-1.02.05-2.06-.52-2.95-1.11-1.76-3.59-2.36-5.39-1.21l-.18.12c-1.69,1.2-2.15,3.52-1.03,5.29.71,1.14,1.95,1.83,3.3,1.83Z"/>
    <path class="cls-1" d="m110.23,58.66c.62.39,1.34.59,2.08.59s1.46-.21,2.07-.6c1.83-1.16,2.38-3.59,1.22-5.42-.73-1.15-1.97-1.84-3.32-1.84-.74,0-1.45.21-2.09.61-1.82,1.16-2.37,3.59-1.21,5.43.31.49.73.91,1.24,1.23Z"/>
  </g>
  <g>
    <circle class="cls-1" cx="43.5" cy="75.5" r="3.79"/>
    <path class="cls-1" d="m11.5,39v72l61.26,36V3L11.5,39Zm32,46.79c-5.67,0-10.29-4.62-10.29-10.29s4.62-10.29,10.29-10.29,10.29,4.62,10.29,10.29-4.62,10.29-10.29,10.29Z"/>
  </g>
</svg>