<?xml version="1.0" encoding="UTF-8"?>
<svg id="Layer_1" data-name="Layer 1" xmlns="http://www.w3.org/2000/svg" width="186.06" height="30.21" viewBox="0 0 186.06 30.21">
  <defs>
    <style>
      .cls-1 {
        fill: #282422;
        stroke-width: 0px;
      }
    </style>
  </defs>
  <g>
    <path class="cls-1" d="m38.51,3.28l5.07,15.81,5.06-15.81h7.21v22.72h-5.49v-5.31l.53-10.86-5.49,16.17h-3.62l-5.51-16.18.53,10.88v5.31h-5.48V3.28h7.19Z"/>
    <path class="cls-1" d="m59.33,26V3.28h8.16c2.92,0,5.15.54,6.67,1.61,1.52,1.07,2.29,2.63,2.29,4.67,0,1.18-.27,2.18-.81,3.01-.54.83-1.34,1.45-2.39,1.84,1.19.31,2.1.89,2.73,1.75.63.85.95,1.89.95,3.12,0,2.23-.71,3.9-2.11,5.02-1.41,1.12-3.5,1.69-6.27,1.71h-9.22Zm5.48-13.25h2.86c1.2-.01,2.05-.23,2.56-.66s.76-1.06.76-1.89c0-.96-.28-1.65-.83-2.07-.55-.42-1.44-.63-2.67-.63h-2.68v5.26Zm0,3.59v5.45h3.59c.99,0,1.75-.23,2.28-.68.53-.45.8-1.09.8-1.91,0-1.89-.94-2.85-2.82-2.86h-3.84Z"/>
    <path class="cls-1" d="m97.36,7.51h-6.82v18.49h-5.48V7.51h-6.7V3.28h18.99v4.23Z"/>
    <path class="cls-1" d="m99.39,4.75c0-.75.27-1.37.81-1.85s1.24-.72,2.11-.72,1.57.24,2.11.72.81,1.1.81,1.85-.27,1.37-.81,1.85-1.24.72-2.11.72-1.57-.24-2.11-.72-.81-1.1-.81-1.85Zm5.59,21.25h-5.27V9.12h5.27v16.88Z"/>
    <path class="cls-1" d="m115.35,22.25c.74,0,1.31-.2,1.72-.6.41-.4.6-.96.59-1.68h4.93c0,1.85-.66,3.37-1.99,4.56-1.33,1.19-3.04,1.78-5.13,1.78-2.46,0-4.39-.77-5.81-2.31-1.42-1.54-2.12-3.67-2.12-6.4v-.22c0-1.71.31-3.21.94-4.52.63-1.31,1.54-2.31,2.72-3.01,1.19-.7,2.59-1.05,4.21-1.05,2.2,0,3.94.61,5.23,1.83,1.29,1.22,1.94,2.87,1.94,4.95h-4.93c0-.87-.21-1.54-.64-2.01s-1-.7-1.72-.7c-1.36,0-2.16.87-2.39,2.61-.07.55-.11,1.31-.11,2.28,0,1.7.2,2.87.61,3.53.41.66,1.05.98,1.94.98Z"/>
    <path class="cls-1" d="m131.6,19.71l-1.48,1.48v4.81h-5.26V2.01h5.26v12.73l.53-.7,3.96-4.93h6.3l-5.91,6.94,6.3,9.94h-6.02l-3.68-6.29Z"/>
    <path class="cls-1" d="m150.15,26.31c-2.59,0-4.69-.77-6.29-2.32-1.6-1.54-2.4-3.56-2.4-6.03v-.44c0-1.73.32-3.25.96-4.57.64-1.32,1.57-2.34,2.8-3.07,1.23-.72,2.68-1.08,4.37-1.08,2.37,0,4.25.74,5.62,2.21,1.37,1.47,2.06,3.52,2.06,6.16v2.04h-10.46c.19.95.6,1.69,1.23,2.23s1.46.81,2.47.81c1.67,0,2.96-.58,3.9-1.75l2.4,2.84c-.66.91-1.58,1.63-2.79,2.16-1.2.54-2.5.8-3.88.8Zm-.59-13.45c-1.54,0-2.46,1.02-2.75,3.06h5.31v-.41c.02-.84-.19-1.5-.64-1.96s-1.09-.69-1.92-.69Z"/>
    <path class="cls-1" d="m165.51,4.92v4.2h2.78v3.65h-2.78v7.72c0,.63.11,1.08.34,1.33.23.25.68.38,1.36.38.52,0,.96-.03,1.31-.09v3.76c-.95.3-1.93.45-2.96.45-1.81,0-3.15-.43-4.01-1.28-.86-.85-1.29-2.15-1.29-3.89v-8.38h-2.15v-3.65h2.15v-4.2h5.26Z"/>
    <path class="cls-1" d="m179.19,21.26c0-.45-.23-.81-.7-1.08-.47-.27-1.36-.55-2.67-.84-1.31-.29-2.39-.67-3.25-1.15-.85-.47-1.5-1.05-1.95-1.72-.45-.68-.67-1.45-.67-2.33,0-1.55.64-2.83,1.92-3.83,1.28-1,2.96-1.51,5.03-1.51,2.23,0,4.02.5,5.37,1.51,1.35,1.01,2.03,2.34,2.03,3.98h-5.27c0-1.35-.71-2.03-2.14-2.03-.55,0-1.01.15-1.39.46-.38.31-.56.69-.56,1.15s.23.85.69,1.14,1.19.53,2.19.72c1,.19,1.88.41,2.64.67,2.54.87,3.81,2.44,3.81,4.7,0,1.54-.68,2.79-2.05,3.76-1.37.97-3.14,1.45-5.31,1.45-1.45,0-2.74-.26-3.87-.78-1.13-.52-2.02-1.23-2.65-2.12-.63-.89-.95-1.84-.95-2.82h4.92c.02.78.28,1.35.78,1.71.5.36,1.14.54,1.92.54.72,0,1.26-.15,1.61-.44.36-.29.54-.67.54-1.14Z"/>
  </g>
  <g>
    <path class="cls-1" d="m23.22,18.99c.18-.11.3-.28.34-.48.04-.2,0-.4-.1-.58-.22-.35-.71-.46-1.06-.24l-.03.02c-.33.24-.42.69-.2,1.04.14.22.38.36.65.36.15,0,.29-.04.41-.12Z"/>
    <path class="cls-1" d="m15,1v14.19c.88,0,1.5-.15,2.54-.62h0c1.12-.51,2.06-1.28,2.8-2.29-.04-.06-.09-.11-.12-.18-.58-.93-.31-2.16.62-2.75.32-.2.69-.31,1.06-.31.69,0,1.32.35,1.68.93.59.93.31,2.16-.62,2.75-.45.28-1.01.36-1.52.24-.5.7-1.08,1.31-1.74,1.81.82.25,1.76.74,2.53,1.66.19-.06.38-.09.58-.09.69,0,1.32.35,1.68.93.28.45.38.98.26,1.5-.12.52-.43.96-.88,1.25-.32.2-.69.31-1.06.31-.69,0-1.32-.35-1.68-.93-.44-.69-.4-1.56.05-2.2-1.19-1.34-2.83-1.4-3.23-1.4-1.2.52-1.77.85-2.95.85v12.34l12-7v-14L15,1Z"/>
    <path class="cls-1" d="m21.9,11.8c.14,0,.29-.04.41-.12.36-.23.47-.7.24-1.06-.14-.23-.39-.36-.65-.36-.15,0-.29.04-.41.12-.36.23-.47.7-.24,1.06.06.1.14.18.24.24.12.08.26.11.41.11Z"/>
  </g>
  <g>
    <path class="cls-1" d="m2,8v14l12,7V1L2,8Zm6.33,8.96c-1.08,0-1.96-.88-1.96-1.96s.88-1.96,1.96-1.96,1.96.88,1.96,1.96-.88,1.96-1.96,1.96Z"/>
    <circle class="cls-1" cx="8.33" cy="15" r=".46"/>
  </g>
</svg>