<?xml version="1.0" encoding="UTF-8"?><svg id="a" xmlns="http://www.w3.org/2000/svg" xmlns:xlink="http://www.w3.org/1999/xlink" viewBox="0 0 148 190"><defs><style>.bu{filter:url(#j);}.bv{filter:url(#au);}.bw{filter:url(#ab);}.bx,.by,.c`,.ca,.cb,.cc{fill:#fffedb;}.by,.c`,.ca,.cd,.cb,.cc{stroke-width:1.5px;}.by,.c`,.ca,.cb,.cc{stroke:#fffedb;}.ce{filter:url(#bc);}.cf{filter:url(#c);}.c`{stroke-linecap:square;stroke-linejoin:round;}.cg{fill:#b50437;}.ch{filter:url(#x);}.ci{filter:url(#aj);}.cj{filter:url(#aq);}.ca{filter:url(#an);}.ck{filter:url(#m);}.cl{clip-path:url(#b);}.cm{filter:url(#t);}.cn{filter:url(#bj);}.co{filter:url(#p);}.cd{fill:#8e0324;stroke:#8e0324;}.cp{filter:url(#af);}.cq{filter:url(#ay);}.cr{fill:none;}.cb{filter:url(#bg);}.cc{filter:url(#br);}.cs{fill:#eb743b;}.ct{filter:url(#bn);}</style><clipPath id="b"><polygon class="cr" points="34.86 73.74 34.86 28.26 72.5 6.79 72.5 95.12 34.86 73.74"/></clipPath><filter id="c" filterUnits="userSpaceOnUse"><feOffset dx="0" dy="3"/><feGaussianBlur result="d" stdDeviation="0"/><feFlood flood-color="#8e0324" flood-opacity="1"/><feComposite in2="d" operator="in"/><feComposite in="SourceGraphic"/></filter><filter id="j" filterUnits="userSpaceOnUse"><feOffset dx="0" dy="3"/><feGaussianBlur result="k" stdDeviation="0"/><feFlood flood-color="#8e0324" flood-opacity="1"/><feComposite in2="k" operator="in"/><feComposite in="SourceGraphic"/></filter><filter id="m" filterUnits="userSpaceOnUse"><feOffset dx="0" dy="3"/><feGaussianBlur result="n" stdDeviation="0"/><feFlood flood-color="#8e0324" flood-opacity="1"/><feComposite in2="n" operator="in"/><feComposite in="SourceGraphic"/></filter><filter id="p" filterUnits="userSpaceOnUse"><feOffset dx="0" dy="3"/><feGaussianBlur result="q" stdDeviation="0"/><feFlood flood-color="#8e0324" flood-opacity="1"/><feComposite in2="q" operator="in"/><feComposite in="SourceGraphic"/></filter><filter id="t" filterUnits="userSpaceOnUse"><feOffset dx="0" dy="3"/><feGaussianBlur result="u" stdDeviation="0"/><feFlood flood-color="#8e0324" flood-opacity="1"/><feComposite in2="u" operator="in"/><feComposite in="SourceGraphic"/></filter><filter id="x" filterUnits="userSpaceOnUse"><feOffset dx="0" dy="3"/><feGaussianBlur result="y" stdDeviation="0"/><feFlood flood-color="#8e0324" flood-opacity="1"/><feComposite in2="y" operator="in"/><feComposite in="SourceGraphic"/></filter><filter id="ab" filterUnits="userSpaceOnUse"><feOffset dx="0" dy="3"/><feGaussianBlur result="ac" stdDeviation="0"/><feFlood flood-color="#8e0324" flood-opacity="1"/><feComposite in2="ac" operator="in"/><feComposite in="SourceGraphic"/></filter><filter id="af" filterUnits="userSpaceOnUse"><feOffset dx="0" dy="3"/><feGaussianBlur result="ag" stdDeviation="0"/><feFlood flood-color="#8e0324" flood-opacity="1"/><feComposite in2="ag" operator="in"/><feComposite in="SourceGraphic"/></filter><filter id="aj" filterUnits="userSpaceOnUse"><feOffset dx="0" dy="3"/><feGaussianBlur result="ak" stdDeviation="0"/><feFlood flood-color="#8e0324" flood-opacity="1"/><feComposite in2="ak" operator="in"/><feComposite in="SourceGraphic"/></filter><filter id="an" filterUnits="userSpaceOnUse"><feOffset dx="0" dy="3"/><feGaussianBlur result="ao" stdDeviation="0"/><feFlood flood-color="#8e0324" flood-opacity="1"/><feComposite in2="ao" operator="in"/><feComposite in="SourceGraphic"/></filter><filter id="aq" filterUnits="userSpaceOnUse"><feOffset dx="0" dy="3"/><feGaussianBlur result="ar" stdDeviation="0"/><feFlood flood-color="#8e0324" flood-opacity="1"/><feComposite in2="ar" operator="in"/><feComposite in="SourceGraphic"/></filter><filter id="au" filterUnits="userSpaceOnUse"><feOffset dx="0" dy="3"/><feGaussianBlur result="av" stdDeviation="0"/><feFlood flood-color="#8e0324" flood-opacity="1"/><feComposite in2="av" operator="in"/><feComposite in="SourceGraphic"/></filter><filter id="ay" filterUnits="userSpaceOnUse"><feOffset dx="0" dy="3"/><feGaussianBlur result="b`" stdDeviation="0"/><feFlood flood-color="#8e0324" flood-opacity="1"/><feComposite in2="b`" operator="in"/><feComposite in="SourceGraphic"/></filter><filter id="bc" filterUnits="userSpaceOnUse"><feOffset dx="0" dy="3"/><feGaussianBlur result="bd" stdDeviation="0"/><feFlood flood-color="#8e0324" flood-opacity="1"/><feComposite in2="bd" operator="in"/><feComposite in="SourceGraphic"/></filter><filter id="bg" filterUnits="userSpaceOnUse"><feOffset dx="0" dy="3"/><feGaussianBlur result="bh" stdDeviation="0"/><feFlood flood-color="#8e0324" flood-opacity="1"/><feComposite in2="bh" operator="in"/><feComposite in="SourceGraphic"/></filter><filter id="bj" filterUnits="userSpaceOnUse"><feOffset dx="0" dy="3"/><feGaussianBlur result="bk" stdDeviation="0"/><feFlood flood-color="#8e0324" flood-opacity="1"/><feComposite in2="bk" operator="in"/><feComposite in="SourceGraphic"/></filter><filter id="bn" filterUnits="userSpaceOnUse"><feOffset dx="0" dy="3"/><feGaussianBlur result="bo" stdDeviation="0"/><feFlood flood-color="#8e0324" flood-opacity="1"/><feComposite in2="bo" operator="in"/><feComposite in="SourceGraphic"/></filter><filter id="br" filterUnits="userSpaceOnUse"><feOffset dx="0" dy="3"/><feGaussianBlur result="bs" stdDeviation="0"/><feFlood flood-color="#8e0324" flood-opacity="1"/><feComposite in2="bs" operator="in"/><feComposite in="SourceGraphic"/></filter></defs><g><polygon class="cg" points="72.5 3 31.5 26.33 31.5 75.67 72.5 99 72.5 3"/><g class="cl"><g><g id="e" class="cf"><polyline id="f" class="by" points="30.89 29.35 30.27 29.82 29.72 30.37 29.25 30.98 28.86 31.65 28.57 32.37 28.38 33.12 28.3 33.89 28.31 34.66 28.44 35.42 28.66 36.16 28.99 36.87 29.4 37.52 29.91 38.11 30.48 38.63 31.13 39.07 31.82 39.41 32.56 39.66 33.32 39.81 34.1 39.86 34.88 39.8 35.64 39.64 36.37 39.38 37.06 39.02 37.7 38.58 38.27 38.05 38.76 37.45 39.17 36.8 39.49 36.09 39.69 34.98 39.93 34.12 41.67 34.6 41.43 35.46 41.22 36.57 40.83 37.5 40.31 38.37 39.67 39.17 38.94 39.87 38.12 40.47 37.22 40.96 36.27 41.32 35.27 41.55 34.25 41.64 33.23 41.6 32.23 41.42 31.26 41.11 30.33 40.67 29.48 40.11 28.71 39.45 28.04 38.68 27.48 37.84 27.03 36.92 26.72 35.96 26.54 34.96 26.5 33.95 26.59 32.94 26.82 31.95 27.18 31.01 27.67 30.12 28.27 29.3 28.98 28.57 29.79 27.94"/></g><g id="g"><polyline id="h" class="cd" points="39.69 40.84 40.38 40.09 40.96 39.26 41.42 38.35 41.75 37.39 41.95 36.4 42.01 35.39 41.94 34.38 41.73 33.39 41.38 32.43 40.91 31.53 40.33 30.71 39.63 29.96 38.84 29.32 37.97 28.79 37.04 28.38 36.06 28.1 35.05 27.95 22.45 27.71 21.55 27.69 21.51 29.48 22.41 29.49 35.01 29.74 35.78 29.86 36.52 30.09 37.23 30.42 37.88 30.83 38.48 31.34 39 31.91 39.43 32.55 39.78 33.24 40.03 33.98 40.18 34.73 40.22 35.51 40.16 36.28 39.99 37.03 39.72 37.76 39.36 38.44 38.91 39.07 38.37 39.63"/><polyline id="i" class="by" points="39.69 37.84 40.38 37.09 40.96 36.26 41.42 35.35 41.75 34.39 41.95 33.4 42.01 32.39 41.94 31.38 41.73 30.39 41.38 29.43 40.91 28.53 40.33 27.71 39.63 26.96 38.84 26.32 37.97 25.79 37.04 25.38 36.06 25.1 35.05 24.95 22.45 24.71 21.55 24.69 21.51 26.48 22.41 26.49 35.01 26.74 35.78 26.86 36.52 27.09 37.23 27.42 37.88 27.83 38.48 28.34 39 28.91 39.43 29.55 39.78 30.24 40.03 30.98 40.18 31.73 40.22 32.51 40.16 33.28 39.99 34.03 39.72 34.76 39.36 35.44 38.91 36.07 38.37 36.63"/></g><g><g class="bu"><polyline id="l" class="bx" points="59.3 50.98 59.44 50.88 59.59 50.78 59.74 50.68 59.91 50.57 60.74 50.1 60.94 49.99 61.15 49.89 61.37 49.79 61.62 49.7 61.82 49.63 61.96 49.58 62.02 49.56 62.09 49.54 62.16 49.52 62.24 49.5 62.32 49.47 62.4 49.45 62.49 49.43 63.8 49.14 63.92 49.11 64.04 49.09 64.16 49.07 64.3 49.05 64.43 49.03 64.58 49.02 64.73 49.01 64.88 49 65.05 48.99 75.44 48.99 75.86 48.99 75.86 46.33 75.44 46.33 65.05 46.34 64.81 46.34 64.59 46.36 64.37 46.37 64.17 46.39 63.97 46.42 63.78 46.44 63.6 46.47 63.43 46.5 63.26 46.54 61.9 46.84 61.77 46.87 61.66 46.9 61.54 46.93 61.43 46.96 61.33 46.99 61.23 47.02 61.14 47.05 60.97 47.11 60.72 47.2 60.4 47.32 60.08 47.46 59.78 47.6 59.49 47.75 58.57 48.27 58.34 48.41 58.11 48.56 57.9 48.7 57.71 48.85"/></g><g class="ck"><polyline id="o" class="bx" points="57.24 53.26 57.27 53.21 57.29 53.16 57.32 53.11 57.35 53.06 57.38 53.01 57.42 52.95 57.45 52.9 57.49 52.84 57.53 52.77 57.57 52.71 57.62 52.65 57.66 52.58 57.71 52.51 57.77 52.44 57.82 52.36 57.88 52.29 57.95 52.21 58.02 52.13 58.09 52.05 58.16 51.96 58.25 51.87 58.33 51.79 58.42 51.7 58.52 51.6 58.63 51.51 58.74 51.42 58.85 51.32 58.98 51.22 59.14 51.1 59.3 50.98 57.71 48.85 57.54 48.97 57.38 49.09 57.2 49.23 57.03 49.37 56.87 49.5 56.73 49.63 56.59 49.77 56.45 49.9 56.33 50.02 56.21 50.15 56.1 50.27 56 50.38 55.9 50.5 55.81 50.61 55.72 50.72 55.64 50.83 55.56 50.93 55.49 51.03 55.42 51.12 55.36 51.22 55.3 51.31 55.24 51.4 55.19 51.48 55.13 51.56 55.09 51.64 55.04 51.72 55 51.79 54.96 51.86 54.92 51.93 54.88 52"/></g></g><g id="r" class="co"><polyline id="s" class="by" points="7.53 34.66 47.06 56.14 48.02 56.51 49.01 56.74 50.03 56.83 51.05 56.79 52.05 56.61 53.03 56.31 53.95 55.87 54.8 55.31 55.57 54.65 56.25 53.89 56.81 53.04 55.2 52.25 54.75 52.89 54.23 53.46 53.63 53.96 52.97 54.37 52.26 54.69 51.52 54.91 50.75 55.03 49.97 55.05 49.2 54.96 48.44 54.77 47.72 54.48 8.41 33.1"/></g><g id="v" class="cm"><path id="w" class="by" d="M31.01,65.66l.63,3.64,.31,.96,.44,.91,.56,.85,.67,.76,.77,.67,.85,.56,.92,.44,.97,.31,1.01,.18,1.02,.04,1.02-.09,1-.23,.96-.36,.9-.48c2.95-1.45,1.7-2.99,5.88-2.97l-.11-1.94c-3.57-.5-4.78,2.45-6.82,3.45l-.69,.36-.73,.26-.76,.16-.78,.06-.78-.05-.76-.15-.74-.25-.7-.35-.64-.44-.58-.52-.5-.59-.42-.65-.32-.7-.23-.74-2.64-8.1"/></g><g id="a`" class="ch"><polyline id="aa" class="by" points="48.81 68.92 49.76 69.28 50.66 69.76 51.48 70.36 52.22 71.07 52.85 71.86 53.37 72.73 53.76 73.67 54.03 74.65 54.16 75.65 54.15 76.66 54.01 77.67 53.73 78.64 53.32 79.57 52.78 80.43 52.14 81.22 51.39 81.91 50.56 82.5 49.66 82.97 48.7 83.31 47.7 83.53 46.68 83.61 34.22 82.98 33.44 83.04 32.68 83.2 31.94 83.46 31.25 83.82 30.62 84.27 25.96 88.65 25.13 89.24 24.22 89.71 23.26 90.05 22.26 90.27 21.24 90.35 20.22 90.29 19.22 90.09 18.26 89.77 17.34 89.31 16.5 88.74 15.74 88.07 15.08 87.29 14.53 86.44 14.1 85.52 13.8 84.55 15.58 84.25 15.82 84.98 16.16 85.68 16.59 86.32 17.1 86.9 17.69 87.41 18.34 87.83 19.05 88.16 19.79 88.4 20.56 88.53 21.33 88.56 22.11 88.49 22.87 88.31 23.6 88.03 24.28 87.66 24.9 87.2 29.38 82.97 30.2 82.37 31.1 81.89 32.05 81.53 33.04 81.3 34.06 81.2 46.77 81.82 47.55 81.75 48.3 81.57 49.03 81.3 49.71 80.92 50.34 80.47 50.9 79.93 51.38 79.32 51.77 78.65 52.07 77.94 52.27 77.19 52.37 76.42 52.36 75.65 52.25 74.89 52.03 74.15 51.71 73.44 51.31 72.78 50.81 72.18 50.24 71.66 49.61 71.21 48.91 70.86 48.18 70.59"/></g><g id="ad" class="bw"><polyline id="ae" class="by" points="25.53 63.61 37.55 57.24 38.37 56.65 39.11 55.94 39.74 55.15 40.26 54.27 40.66 53.34 40.92 52.36 41.05 51.36 41.04 50.34 40.9 49.34 40.62 48.37 40.21 47.44 39.68 46.57 39.03 45.79 38.29 45.1 31.08 39.94 30.51 39.42 29.11 40.53 29.84 41.24 37.23 46.54 37.79 47.08 38.27 47.69 38.66 48.36 38.96 49.07 39.16 49.82 39.26 50.58 39.25 51.36 39.14 52.12 38.92 52.86 38.61 53.57 38.2 54.23 37.7 54.83 37.13 55.35 36.5 55.8 24.68 62.03"/></g><g id="ah" class="cp"><polyline id="ai" class="by" points="60.3 92.19 54.9 79.79 54.36 78.92 53.71 78.14 52.97 77.45 52.13 76.87 51.23 76.4 50.26 76.06 49.27 75.85 48.25 75.77 47.23 75.83 46.23 76.03 45.26 76.36 44.35 76.81 43.5 77.39 42.75 78.07 36.98 84.77 36.41 85.29 37.41 86.77 38.18 86.1 44.12 79.23 44.7 78.72 45.35 78.29 46.06 77.96 46.8 77.72 47.56 77.59 48.34 77.55 49.12 77.63 49.88 77.8 50.6 78.07 51.29 78.44 51.92 78.9 52.48 79.44 52.96 80.04 53.35 80.71 58.65 92.9"/></g><g id="al" class="ci"><polyline id="am" class="by" points="20.63 55.37 21.4 55.25 22.18 55.23 22.95 55.31 53.31 63.2 54.04 63.49 54.71 63.87 55.33 64.33 55.88 64.88 56.35 65.5 56.74 66.17 57.03 66.89 62.01 87.61 62.09 88.38 62.07 89.15 61.95 89.92 61.72 90.66 61.4 91.36 60.98 92.01 60.48 92.6 59.9 93.12 59.26 93.55 58.56 93.9 57.82 94.15 57.06 94.3 56.28 94.34 55.5 94.28 54.74 94.12 54.01 93.86 53.32 93.5 52.68 93.06 51.44 94.35 52.26 94.95 53.16 95.43 54.11 95.8 55.11 96.03 56.12 96.12 57.14 96.08 58.15 95.9 59.12 95.59 60.04 95.16 60.9 94.6 61.67 93.94 62.34 93.18 62.91 92.33 63.35 91.42 63.67 90.46 63.85 89.46 63.89 88.45 63.8 87.44 58.78 66.47 58.42 65.53 57.93 64.63 57.33 63.82 56.62 63.09 55.82 62.46 54.94 61.94 54 61.55 23.41 53.59 22.4 53.46 21.37 53.46 20.36 53.6"/></g><polygon id="ap" class="ca" points="40.08 39.05 48.74 40.99 49.48 41.25 50.17 41.61 50.8 42.06 51.37 42.59 51.86 43.18 52.27 43.84 52.58 44.55 52.79 45.29 52.9 46.06 52.91 46.83 52.81 47.6 52.61 48.34 52.31 49.06 51.91 49.72 51.43 50.33 50.87 50.87 50.24 51.32 49.55 51.69 48.83 51.97 48.07 52.14 48.21 53.92 49.21 53.71 50.18 53.37 51.08 52.9 51.92 52.32 52.66 51.63 53.31 50.84 53.85 49.98 54.26 49.05 54.54 48.08 54.69 47.08 54.7 46.06 54.58 45.06 54.31 44.08 53.92 43.15 53.41 42.27 52.78 41.47 52.04 40.77 51.22 40.16 50.33 39.68 49.37 39.32 40.48 37.31 39.73 37.09 39.02 36.78 38.35 36.38 37.75 35.89 37.22 35.33 36.77 34.7 36.41 34.01 36.14 33.29 35.98 32.53 35.92 31.76 35.97 30.99 36.12 30.23 36.37 29.5 36.72 28.81 37.16 28.17 37.68 27.6 38.27 27.1 38.93 26.68 39.64 26.36 40.38 26.14 41.15 26.01 41.93 25.99 42.71 26.08 43.46 26.26 44.18 26.55 44.86 26.93 45.48 27.4 46.03 27.94 46.51 28.56 48.08 27.69 47.48 26.88 46.77 26.15 45.97 25.52 45.09 25 44.15 24.61 43.16 24.35 42.15 24.22 41.12 24.23 40.11 24.37 39.13 24.65 38.2 25.05 37.32 25.58 36.53 26.22 35.83 26.96 35.24 27.78 34.77 28.68 34.42 29.63 34.2 30.62 34.12 31.63 34.18 32.65 34.38 33.64 34.71 34.6 35.16 35.51 35.74 36.34 36.42 37.1 37.2 37.75 38.06 38.3 38.99 38.72 39.96 39.02 40.08 39.05"/><g id="as" class="cj"><path id="at" class="by" d="M65.52,26.98l-.28-.97-.41-.93-.54-.86-3.79-4.76-.75-.69-.84-.58-.91-.47-.96-.34-1-.21-1.02-.07-1.02,.06-1,.2-.97,.33-.91,.46-.84,.57-.76,.68-.66,.78-1.39,2.16-.5,.59-.58,.52-.64,.44-.69,.35-.74,.25-.76,.15-.78,.05-.78-.05s-1.29-.37-2.42-1.9c-1.13-1.53-3.06-1.72-1.51,.95,1.55,2.67,3.54,2.7,3.54,2.7l1.02,.09,1.02-.05,1-.18,.97-.32,.92-.44,.85-.56,.77-.67,.67-.77,1.53-2.35,.51-.58,.59-.51,.65-.43,.7-.34,.74-.24,.77-.14,.78-.03,.78,.07,.76,.17,.73,.27,.68,.37,.63,.46,.56,.54,3.63,4.58,.4,.66,.3,.71,.2,.75"/></g><g><g id="aw" class="bv"><polyline id="ax" class="by" points="47.95 38.3 53.79 24.27 61.26 4.67 59.59 3.98 52.13 23.59 46.29 37.62"/></g><g id="ba" class="cq"><polyline id="bb" class="by" points="49.74 68.01 50.69 67.63 51.58 67.14 52.4 66.53 53.12 65.81 53.74 65.01 54.25 64.13 54.63 63.19 54.88 62.21 55 61.2 54.98 60.19 54.82 59.19 54.53 58.22 54.1 57.3 53.56 56.44 52.9 55.66 52.15 54.98 51.31 54.4 47.41 52.42 46.77 51.98 46.19 51.46 45.69 50.87 45.27 50.22 44.95 49.52 44.72 48.78 44.6 48.01 44.58 47.24 44.67 46.47 44.86 45.72 47.61 39.12 47.95 38.3 46.29 37.62 45.94 38.44 43.19 45.04 42.93 46.02 42.79 47.02 42.8 48.04 42.94 49.04 43.22 50.02 43.63 50.94 44.16 51.81 44.8 52.6 45.55 53.29 46.38 53.88 50.48 55.99 51.11 56.44 51.68 56.97 52.17 57.57 52.57 58.23 52.88 58.94 53.09 59.69 53.2 60.45 53.2 61.23 53.1 61.99 52.89 62.74 52.59 63.45 52.19 64.11 51.7 64.72 51.14 65.25 50.51 65.7 49.82 66.07 49.09 66.34"/></g></g><g id="be" class="ce"><path id="bf" class="c`" d="M24.07,40.81l.62,17.97,.18,1,.31,.96,.44,.91,.56,.85,.67,.76,.77,.67,.85,.56,.92,.44,.97,.31,16.93,3.15s1.46,.12,2.44-.38l-.65-1.67c-.6,.31-1.7,.26-1.7,.26l-16.69-3.12-.74-.25-.7-.35-.64-.44-.58-.52-.5-.59-.42-.65-.32-.7-.23-.74-.12-.76-.6-17.73"/></g><polyline id="bi" class="cb" points="40.13 62.94 41.11 62.64 42.04 62.22 42.9 61.68 43.68 61.03 44.37 60.28 44.95 59.44 45.41 58.54 45.74 57.58 47.54 48.96 47.79 48.22 48.14 47.53 48.58 46.9 56.59 38.27 57.17 37.43 57.63 36.53 57.96 35.57 58.16 34.58 58.22 33.57 58.15 32.56 57.93 31.57 57.59 30.61 57.12 29.71 56.53 28.88 55.84 28.14 55.05 27.5 54.18 26.97 53.24 26.56 52.26 26.28 51.25 26.13 50.23 26.12 49.22 26.24 48.23 26.5 48.91 28.16 49.66 27.97 50.44 27.89 51.22 27.92 51.98 28.04 52.73 28.27 53.43 28.6 54.09 29.01 54.68 29.51 55.2 30.09 55.64 30.73 55.99 31.42 56.23 32.15 56.38 32.91 56.42 33.68 56.36 34.45 56.2 35.21 55.93 35.94 55.56 36.62 55.11 37.25 47.25 45.68 46.66 46.51 46.19 47.41 45.84 48.36 43.98 57.22 43.71 57.94 43.35 58.63 42.89 59.26 42.36 59.82 41.75 60.3 41.09 60.7 40.37 61.01 39.62 61.22"/><g id="bl" class="cn"><polyline id="bm" class="by" points="63.76 27.4 63.95 28.15 64.04 28.91 64.02 29.69 63.9 30.45 63.67 31.19 63.35 31.89 62.93 32.54 62.43 33.13 61.85 33.65 61.21 34.09 60.51 34.44 59.77 34.69 59.01 34.84 58.23 34.88 57.46 34.83 56.69 34.66 55.96 34.4 54.63 33.6 54.63 33.6 48.59 28.28 47.01 29.05 53.39 34.89 54.22 35.49 55.11 35.98 56.07 36.34 57.06 36.57 58.08 36.66 59.1 36.62 60.11 36.44 61.08 36.13 62 35.69 62.85 35.14 63.62 34.47 64.29 33.71 64.86 32.86 65.3 31.95 65.61 30.99 65.8 29.99 65.84 28.98 65.75 27.97 65.52 26.98"/></g><g id="bp" class="ct"><polyline id="bq" class="by" points="30.51 69.31 34.71 65.18 35.31 64.68 35.97 64.26 36.67 63.94 39.27 63.19 40.13 62.94 39.62 61.22 38.76 61.47 36.17 62.23 35.23 62.63 34.36 63.16 33.57 63.8 29.19 68.1"/></g><path id="bt" class="cc" d="M50.23,26.12l-1.01,.12-.99,.26-8.34,3.36-.83,.34-8.87,3.62,.45,1.73,9.1-3.69,.83-.34,8.34-3.36,.76-.18,.77-.08s1.27-.02,1.83,.24"/></g></g><polygon class="cs" points="75.5 3 75.5 99 116.5 75 116.5 27 75.5 3"/><path class="bx" d="M107.78,59.09c-1.24-1.97-3.38-3.15-5.72-3.15-.67,0-1.32,.1-1.96,.29-2.63-3.12-5.82-4.78-8.6-5.64,2.24-1.71,4.21-3.77,5.91-6.15,1.74,.39,3.63,.13,5.16-.83,3.16-2.01,4.1-6.2,2.1-9.35-1.25-1.97-3.39-3.15-5.72-3.15-1.28,0-2.53,.36-3.62,1.05-3.15,1.99-4.09,6.18-2.11,9.34,.13,.21,.27,.4,.42,.6-2.51,3.44-5.71,6.06-9.52,7.79h-.01c-3.53,1.61-5.62,2.12-8.62,2.12v5c4,0,5.93-1.12,10.02-2.9,1.37-.02,6.96,.18,10.99,4.75-1.51,2.16-1.66,5.11-.16,7.47,1.24,1.97,3.38,3.15,5.72,3.15,1.28,0,2.52-.36,3.61-1.04,1.54-.97,2.6-2.48,3-4.25,.4-1.76,.08-3.57-.89-5.09Zm-10.22-23.42c.42-.27,.9-.41,1.4-.41,.9,0,1.73,.46,2.22,1.22,.77,1.21,.4,2.84-.82,3.61-.41,.26-.9,.4-1.39,.4s-.97-.13-1.39-.39c-.34-.21-.62-.49-.83-.82-.77-1.22-.41-2.85,.81-3.62Zm7.06,27.6c-.15,.69-.56,1.27-1.16,1.64-.41,.26-.9,.41-1.39,.41-.91,0-1.73-.46-2.21-1.22-.75-1.18-.44-2.73,.69-3.53l.12-.08c1.21-.77,2.87-.37,3.61,.81,.38,.59,.5,1.29,.34,1.97Z"/></g><g><path class="cg" d="M15.91,106.7l6.24,23.69,6.24-23.69h11.3v35.3h-8.6v-7.03l.82-16.42-6.94,23.45h-5.67l-6.91-23.33,.82,16.3v7.03H4.64v-35.3H15.91Z"/><path class="cg" d="M57.56,142.56c-4.05,0-7.21-1.21-9.48-3.62-2.27-2.42-3.4-5.87-3.4-10.37v-2.4c0-4.76,1.04-8.43,3.12-11.01,2.08-2.58,5.06-3.87,8.95-3.87s6.64,1.21,8.56,3.63c1.91,2.42,2.89,6.01,2.93,10.76v3.87h-15.69c.11,2.24,.6,3.88,1.48,4.91,.87,1.04,2.22,1.55,4.04,1.55,2.64,0,4.84-.9,6.61-2.7l3.09,4.77c-.97,1.34-2.37,2.42-4.21,3.25-1.84,.83-3.84,1.24-5.99,1.24Zm-4.96-18.51h7.89v-.72c-.04-1.8-.33-3.17-.89-4.1-.56-.93-1.52-1.39-2.9-1.39s-2.37,.49-3,1.48c-.62,.99-.99,2.56-1.1,4.74Z"/><path class="cg" d="M86.05,133.92c0-.67-.32-1.29-.96-1.85-.64-.57-2.07-1.33-4.28-2.3-3.25-1.32-5.49-2.69-6.7-4.1s-1.83-3.17-1.83-5.27c0-2.64,.95-4.82,2.86-6.54,1.91-1.72,4.43-2.58,7.57-2.58,3.31,0,5.96,.85,7.94,2.56,1.99,1.71,2.98,4,2.98,6.88h-7.89c0-2.45-1.02-3.68-3.07-3.68-.84,0-1.52,.26-2.06,.78-.54,.52-.81,1.25-.81,2.17,0,.67,.3,1.26,.89,1.77,.59,.51,2,1.24,4.21,2.19,3.21,1.19,5.49,2.51,6.81,3.97,1.33,1.46,1.99,3.35,1.99,5.67,0,2.69-1.01,4.86-3.04,6.49-2.03,1.64-4.68,2.45-7.97,2.45-2.21,0-4.16-.43-5.85-1.3-1.69-.86-3.02-2.07-3.97-3.61-.96-1.54-1.44-3.21-1.44-4.99h7.5c.04,1.38,.36,2.41,.96,3.09,.6,.69,1.59,1.03,2.97,1.03,2.12,0,3.18-.96,3.18-2.87Z"/><path class="cg" d="M111.97,133.92c0-.67-.32-1.29-.96-1.85-.64-.57-2.07-1.33-4.28-2.3-3.25-1.32-5.49-2.69-6.7-4.1s-1.83-3.17-1.83-5.27c0-2.64,.95-4.82,2.86-6.54,1.91-1.72,4.43-2.58,7.57-2.58,3.31,0,5.96,.85,7.94,2.56,1.99,1.71,2.98,4,2.98,6.88h-7.89c0-2.45-1.02-3.68-3.07-3.68-.84,0-1.52,.26-2.06,.78-.54,.52-.81,1.25-.81,2.17,0,.67,.3,1.26,.89,1.77,.59,.51,2,1.24,4.21,2.19,3.21,1.19,5.49,2.51,6.81,3.97,1.33,1.46,1.99,3.35,1.99,5.67,0,2.69-1.01,4.86-3.04,6.49-2.03,1.64-4.68,2.45-7.97,2.45-2.21,0-4.16-.43-5.85-1.3-1.69-.86-3.02-2.07-3.97-3.61-.96-1.54-1.44-3.21-1.44-4.99h7.5c.04,1.38,.36,2.41,.96,3.09,.6,.69,1.59,1.03,2.97,1.03,2.12,0,3.18-.96,3.18-2.87Z"/><path class="cg" d="M134.22,128.87l4.01-17.03h8.42l-9.92,34.67c-1.49,5.11-4.28,7.67-8.39,7.67-.95,0-2.03-.18-3.23-.53v-6.16l.92,.03c1.23,0,2.15-.24,2.77-.71,.62-.47,1.09-1.3,1.41-2.47l.61-2.04-8.7-30.47h8.47l3.62,17.03Z"/><path class="cs" d="M5.45,188v-35.3h12c4.12,0,7.27,.83,9.44,2.5,2.17,1.67,3.26,4.08,3.26,7.26,0,1.8-.39,3.36-1.18,4.7-.79,1.33-1.95,2.31-3.48,2.94,1.66,.49,2.94,1.41,3.85,2.77s1.36,3.04,1.36,5.01c0,3.51-1.02,6.08-3.06,7.7-2.04,1.62-5.11,2.42-9.21,2.42H5.45Zm8.57-20.63h4.12c2.28-.06,3.42-1.27,3.42-3.64,0-1.39-.28-2.39-.85-2.98s-1.43-.89-2.61-.89h-4.09v7.51Zm0,5.97v7.6h4.39c1.19,0,2.11-.32,2.74-.97,.64-.65,.95-1.54,.95-2.68,0-2.55-1.03-3.87-3.09-3.95h-5Z"/><path class="cs" d="M50.81,165.45l-2.62-.22c-2.16,0-3.61,.95-4.38,2.84v19.93h-7.92v-30.16h7.44l.22,3.26c1.24-2.55,2.96-3.82,5.16-3.82,.89,0,1.62,.12,2.17,.36l-.08,7.8Z"/><path class="cs" d="M68.34,188c-.22-.46-.45-1.25-.67-2.34-1.41,1.93-3.33,2.9-5.74,2.9s-4.62-.84-6.29-2.51c-1.66-1.67-2.5-3.84-2.5-6.49,0-3.16,1.01-5.6,3.02-7.33,2.02-1.73,4.92-2.61,8.71-2.65h2.4v-2.42c0-1.36-.23-2.31-.7-2.87-.46-.56-1.14-.84-2.04-.84-1.97,0-2.95,1.15-2.95,3.46h-7.89c0-2.79,1.04-5.09,3.14-6.9,2.09-1.81,4.73-2.72,7.93-2.72s5.87,.86,7.68,2.58,2.72,4.18,2.72,7.37v14.19c.04,2.6,.41,4.64,1.12,6.1v.47h-7.94Zm-4.66-5.63c.87,0,1.62-.18,2.23-.53,.61-.35,1.07-.77,1.37-1.25v-6.27h-1.9c-1.34,0-2.39,.43-3.16,1.28-.77,.86-1.16,2-1.16,3.43,0,2.23,.87,3.34,2.62,3.34Z"/><path class="cs" d="M80.89,150.04c0-1.23,.39-2.23,1.17-3.01s1.82-1.17,3.12-1.17,2.34,.39,3.12,1.17c.78,.78,1.17,1.78,1.17,3.01s-.39,2.21-1.16,3.01c-.77,.8-1.82,1.2-3.14,1.2s-2.37-.4-3.14-1.2c-.77-.8-1.16-1.8-1.16-3.01Zm8.28,37.96h-7.92v-30.16h7.92v30.16Z"/><path class="cs" d="M102.49,157.84l.22,2.98c1.78-2.36,4.12-3.54,7-3.54,5.18,0,7.85,3.63,8,10.9v19.82h-7.92v-19.23c0-1.71-.26-2.95-.77-3.72-.51-.77-1.41-1.16-2.69-1.16-1.43,0-2.55,.73-3.34,2.2v21.91h-7.92v-30.16h7.42Z"/><path class="cs" d="M132.09,181.45h11.93v6.55h-21.3v-4.93l11.65-18.65h-11.37v-6.58h20.85v4.77l-11.76,18.84Z"/></g></svg>