<svg xmlns="http://www.w3.org/2000/svg" viewBox="0 0 243.41 275.99"><defs><style>.cls-1{fill:#eb753a;}.cls-2{fill:#764f38;}.cls-3{fill:#583b2a;}.cls-4{fill:#fefbdc;}.cls-5{fill:#d0a691;}.cls-6{opacity:0.07;}.cls-7{fill:#010101;}.cls-8{fill:#d4572b;}</style></defs><title>BookBrainz</title><g id="Layer_2" data-name="Layer 2"><g id="Layer_1-2" data-name="Layer 1"><polygon class="cls-1" points="126.5 0 126.5 275.99 243.41 208.91 243.41 67.08 126.5 0"/><polygon class="cls-2" points="116.92 0 0 67.08 0 208.91 116.92 275.99 116.92 0"/><path class="cls-3" d="M116.92,234.38H103.48a3.07,3.07,0,0,1-3.07-3.07h0c0-4.43,0-9.43-16-11.5-16.69-2.22-60.34-9.47-60.78-9.58a3.07,3.07,0,0,1-2.57-3V88.68a3.07,3.07,0,0,1,3.07-3.07h.35l13.8,1.53a3.07,3.07,0,1,1-.63,6.11h0L27.28,92.13V204.6c9.58,1.59,43.76,7.17,58,9.08,16.23,2.17,20.34,8,21.08,14.59h10.52Z"/><path class="cls-3" d="M110,104.61c0-18-33.48-42.93-72.07-34.06v118.5c39.62-1.65,72.07,12.75,72.07,31Z"/><path class="cls-3" d="M59.86,100.22a3,3,0,0,0-3,2.89,2.68,2.68,0,0,0,2.89,3.12c27.75,0,50.29,23.69,50.29,31v-8c0-7.67-21.08-29-50.06-29Z"/><path class="cls-3" d="M59.86,121.09a3,3,0,0,0-3,2.89,2.68,2.68,0,0,0,2.89,3.12c27.75,0,50.29,23.69,50.29,31v-8c0-7.67-21.08-29-50.06-29Z"/><path class="cls-3" d="M59.86,142a3,3,0,0,0-3,2.89,2.68,2.68,0,0,0,2.91,3c27.75,0,50.29,23.75,50.29,31.11v-8.11c0-7.67-21.08-29-50.06-29Z"/><path class="cls-4" d="M116.92,228.63H103.48a3.07,3.07,0,0,1-3.07-3.07h0c0-4.43,0-9.43-16-11.5-16.69-2.22-60.34-9.47-60.78-9.58a3.07,3.07,0,0,1-2.57-3V82.93a3.07,3.07,0,0,1,3.07-3.07h.35l13.8,1.53a3.07,3.07,0,1,1-.63,6.11L27.26,86.35v112.5c9.58,1.59,43.76,7.17,58,9.08,16.23,2.17,20.34,8,21.08,14.59h10.52Z"/><path class="cls-5" d="M110,98.86c0-18-33.48-42.93-72.07-34.06V183.3c39.62-1.65,72.07,12.75,72.07,31Z"/><path class="cls-4" d="M59.86,94.47a3,3,0,0,0-3,2.89,2.68,2.68,0,0,0,2.89,3.12c27.75,0,50.29,23.69,50.29,31v-8c0-7.67-21.08-29-50.06-29Z"/><path class="cls-4" d="M59.86,115.34a3,3,0,0,0-3,2.89,2.68,2.68,0,0,0,2.89,3.12c27.75,0,50.29,23.69,50.29,31v-8c0-7.67-21.08-29-50.06-29Z"/><path class="cls-4" d="M59.86,136.23a3,3,0,0,0-3,2.89,2.68,2.68,0,0,0,2.91,3c27.75,0,50.29,23.75,50.29,31.11v-8.11c0-7.67-21.08-29-50.06-29Z"/><g class="cls-6"><path class="cls-7" d="M159.68,175.83a4,4,0,1,1-.44,3.07A4,4,0,0,1,159.68,175.83Zm24.15,42.9a4,4,0,1,1-2.64-7.13,4.06,4.06,0,0,1,4.06,4.06h0v.3A4,4,0,0,1,183.83,218.73Z"/><path class="cls-7" d="M143.77,87.41Z"/><path class="cls-7" d="M165.56,105.91a4,4,0,1,1,0,4.24A4,4,0,0,1,165.56,105.91Zm12.23-38.7a4.1,4.1,0,0,1-5.58,1.25l-.19-.12a4.05,4.05,0,1,1,5.77-1.13Z"/><path class="cls-7" d="M209.93,89.45a4,4,0,1,1,6.84,4.33h0A4.1,4.1,0,0,1,211.19,95l-.17-.12A4,4,0,0,1,209.93,89.45Zm0,45a4,4,0,1,1,6.84,4.33h0a4.1,4.1,0,0,1-5.58,1.25l-.17-.11a4,4,0,0,1-1.09-5.37Zm0,50.41a4,4,0,1,1,6.84,4.33h0a4.1,4.1,0,0,1-5.58,1.25l-.17-.11a4,4,0,0,1-1.09-5.44Z"/><path class="cls-7" d="M190.09,203.37a11.73,11.73,0,0,0-20.55,9.08A38.06,38.06,0,0,1,159.32,215a7.67,7.67,0,0,1-4.25-1.92,20.53,20.53,0,0,0-8-3.55A72.14,72.14,0,0,0,163.53,185a11.7,11.7,0,1,0-7.4-2.26c-7.76,17.67-17.67,25.07-24.09,28.14a3.83,3.83,0,0,0-.69.33,21.58,21.58,0,0,1-4.87,1.54v7.67a24.13,24.13,0,0,0,8.15-2.28c10.25-2.61,13.11-.67,16.12,1.36a15.1,15.1,0,0,0,8.16,3.18h.57a45.25,45.25,0,0,0,13.42-3.3,11.75,11.75,0,0,0,8.26,3.3h0A11.73,11.73,0,0,0,190,203.3Zm-30.41-32.16a4,4,0,1,1-.44,3.07A4,4,0,0,1,159.68,171.21Zm24.15,42.86a4,4,0,1,1-2.64-7.13,4.06,4.06,0,0,1,4.06,4.06h0v.3a4,4,0,0,1-1.42,2.76Z"/><path class="cls-7" d="M143.77,82.73Z"/><path class="cls-7" d="M185.82,57.84a11.73,11.73,0,1,0-21.08,9.24,25.59,25.59,0,0,1-19,8.22,55.87,55.87,0,0,0-19.21-4.44v7.67a47.53,47.53,0,0,1,16.79,4.2h0a41.38,41.38,0,0,1,16.5,13.42,12.12,12.12,0,0,0-.73,1,11.73,11.73,0,1,0,16.2-3.66,11.92,11.92,0,0,0-9-1.44A49.83,49.83,0,0,0,156,81.37a31.34,31.34,0,0,0,14.91-9.77,11.74,11.74,0,0,0,14.89-13.76Zm-20.26,43.45a4,4,0,1,1,0,4.24A4,4,0,0,1,165.56,101.29Zm12.23-38.7a4.1,4.1,0,0,1-5.58,1.25l-.19-.12a4.06,4.06,0,1,1,5.77-1.16Z"/><path class="cls-7" d="M202.48,136.42a11.5,11.5,0,0,0,4,5.08l.54.36a11.73,11.73,0,1,0,6.27-21.64h-.71a49.31,49.31,0,0,1,0-21.58h.65a11.73,11.73,0,1,0-8-3.12l.13.12a54.91,54.91,0,0,0,0,27.64c-.27.25-.56.48-.82.77a12,12,0,0,0-1.21,1.57,11.81,11.81,0,0,0-1.36,3,29.13,29.13,0,0,0-13,5.33c-3.83,2.53-7.67,4.93-18.48,5.12a62.56,62.56,0,0,0-10.27-.23,92.48,92.48,0,0,1-9.3,0c-2.55-.13-4-1.69-6.63-4.64-3.45-3.93-8.09-8.91-18-9.58v7.67c6.31.57,9.2,3.62,12.19,7s6.08,6.94,12,7.24c4.06.21,7.21.1,10,0a46.42,46.42,0,0,1,15,1.34c5,1.23,23.19,18.53,28.31,27.45a8.15,8.15,0,0,0-.59.82,11.69,11.69,0,0,0,3.1,15.81l.54.36A11.73,11.73,0,1,0,210.16,171c-4.91-8-16.58-20-25.28-26.43a34.84,34.84,0,0,0,8.07-4.2A21.68,21.68,0,0,1,202.48,136.42Zm7.44-51.6a4,4,0,1,1,6.84,4.33,4.1,4.1,0,0,1-5.58,1.25l-.17-.12a4,4,0,0,1-1.09-5.44Zm0,45a4,4,0,1,1,6.84,4.33h0a4.1,4.1,0,0,1-5.58,1.25l-.17-.11a4,4,0,0,1-1.09-5.44Zm0,50.41a4,4,0,1,1,6.84,4.33h0a4.1,4.1,0,0,1-5.58,1.25l-.17-.11a4,4,0,0,1-1.09-5.44Z"/></g><path class="cls-8" d="M190.09,209.12a11.73,11.73,0,0,0-20.55,9.08,38.06,38.06,0,0,1-10.21,2.53,7.67,7.67,0,0,1-4.25-1.92,20.53,20.53,0,0,0-8-3.55,72.14,72.14,0,0,0,16.49-24.53,11.7,11.7,0,1,0-7.4-2.26c-7.76,17.67-17.67,25.07-24.09,28.14a3.83,3.83,0,0,0-.69.33,21.58,21.58,0,0,1-4.91,1.55v7.67a24.13,24.13,0,0,0,8.15-2.28c10.25-2.61,13.11-.67,16.12,1.36a15.1,15.1,0,0,0,8.18,3.22h.55a45.25,45.25,0,0,0,13.42-3.3,11.75,11.75,0,0,0,8.26,3.3h0A11.73,11.73,0,0,0,190,209.1ZM159.68,177a4,4,0,1,1-.44,3.07A4,4,0,0,1,159.68,177Zm24.15,42.86a4,4,0,1,1-2.64-7.13,4.06,4.06,0,0,1,4.06,4.06h0v.3a4,4,0,0,1-1.42,2.76Z"/><path class="cls-7" d="M143.77,87.41Z"/><path class="cls-8" d="M185.82,63.59a11.73,11.73,0,1,0-21.08,9.24,25.59,25.59,0,0,1-19,8.22,55.87,55.87,0,0,0-19.21-4.44v7.67a47.55,47.55,0,0,1,16.75,4.24h0a41.38,41.38,0,0,1,16.5,13.42,12.12,12.12,0,0,0-.73,1,11.73,11.73,0,1,0,16.2-3.66,11.92,11.92,0,0,0-9-1.44A49.83,49.83,0,0,0,156,87.16a31.34,31.34,0,0,0,14.91-9.77,11.74,11.74,0,0,0,14.89-13.76Zm-20.26,43.47a4,4,0,1,1,0,4.24A4,4,0,0,1,165.56,107.06Zm12.23-38.7a4.1,4.1,0,0,1-5.58,1.25l-.19-.12a4.05,4.05,0,1,1,5.77-1.13Z"/><path class="cls-8" d="M202.48,142.17a11.5,11.5,0,0,0,4,5.08l.54.36A11.73,11.73,0,1,0,213.29,126h-.71a49.31,49.31,0,0,1,0-21.58h.65a11.73,11.73,0,1,0-8-3.12l.13.12a54.91,54.91,0,0,0,0,27.64c-.27.25-.56.48-.82.77a12,12,0,0,0-1.21,1.57,11.81,11.81,0,0,0-1.36,3,29.13,29.13,0,0,0-13,5.33c-3.83,2.53-7.67,4.93-18.48,5.12a62.56,62.56,0,0,0-10.27-.23,92.48,92.48,0,0,1-9.3,0c-2.55-.13-4-1.69-6.63-4.64-3.45-3.93-8.09-8.91-18-9.58V138c6.31.57,9.2,3.62,12.19,7s6.08,6.94,12,7.24c4.06.21,7.21.1,10,0a46.42,46.42,0,0,1,15,1.34c5,1.23,23.19,18.53,28.31,27.45a8.15,8.15,0,0,0-.59.82,11.69,11.69,0,0,0,3.28,15.84l.54.36a11.73,11.73,0,1,0,3.32-21.26c-4.91-8-16.58-20-25.28-26.43a34.84,34.84,0,0,0,8.07-4.2A21.68,21.68,0,0,1,202.48,142.17Zm7.44-51.6a4,4,0,1,1,6.84,4.33h0a4.1,4.1,0,0,1-5.58,1.25L211,96a4,4,0,0,1-1.09-5.44Zm0,45a4,4,0,1,1,6.84,4.33h0a4.1,4.1,0,0,1-5.58,1.25L211,141a4,4,0,0,1-1.09-5.44Zm0,50.41a4,4,0,1,1,6.84,4.33h0a4.1,4.1,0,0,1-5.58,1.25l-.17-.11a4,4,0,0,1-1.09-5.44Z"/><path class="cls-4" d="M190.09,203.37a11.73,11.73,0,0,0-20.55,9.08A38.06,38.06,0,0,1,159.32,215a7.67,7.67,0,0,1-4.25-1.92,20.53,20.53,0,0,0-8-3.55A72.14,72.14,0,0,0,163.53,185a11.7,11.7,0,1,0-7.4-2.26c-7.76,17.67-17.67,25.07-24.09,28.14a3.83,3.83,0,0,0-.69.33,21.58,21.58,0,0,1-4.87,1.54v7.67a24.13,24.13,0,0,0,8.15-2.28c10.25-2.61,13.11-.67,16.12,1.36a15.1,15.1,0,0,0,8.16,3.18h.57a45.25,45.25,0,0,0,13.42-3.3,11.75,11.75,0,0,0,8.26,3.3h0A11.73,11.73,0,0,0,190,203.3Zm-30.41-32.16a4,4,0,1,1-.44,3.07A4,4,0,0,1,159.68,171.21Zm24.15,42.86a4,4,0,1,1-2.64-7.13,4.06,4.06,0,0,1,4.06,4.06h0v.3a4,4,0,0,1-1.42,2.76Z"/><path class="cls-4" d="M143.77,82.73Z"/><path class="cls-4" d="M185.82,57.84a11.73,11.73,0,1,0-21.08,9.24,25.59,25.59,0,0,1-19,8.22,55.87,55.87,0,0,0-19.21-4.44v7.67a47.53,47.53,0,0,1,16.79,4.2h0a41.38,41.38,0,0,1,16.5,13.42,12.12,12.12,0,0,0-.73,1,11.73,11.73,0,1,0,16.2-3.66,11.92,11.92,0,0,0-9-1.44A49.83,49.83,0,0,0,156,81.37a31.34,31.34,0,0,0,14.91-9.77,11.74,11.74,0,0,0,14.89-13.76Zm-20.26,43.45a4,4,0,1,1,0,4.24A4,4,0,0,1,165.56,101.29Zm12.23-38.7a4.1,4.1,0,0,1-5.58,1.25l-.19-.12a4.06,4.06,0,1,1,5.77-1.16Z"/><path class="cls-4" d="M202.48,136.42a11.5,11.5,0,0,0,4,5.08l.54.36a11.73,11.73,0,1,0,6.27-21.64h-.71a49.31,49.31,0,0,1,0-21.58h.65a11.73,11.73,0,1,0-8-3.12l.13.12a54.91,54.91,0,0,0,0,27.64c-.27.25-.56.48-.82.77a12,12,0,0,0-1.21,1.57,11.81,11.81,0,0,0-1.36,3,29.13,29.13,0,0,0-13,5.33c-3.83,2.53-7.67,4.93-18.48,5.12a62.56,62.56,0,0,0-10.27-.23,92.48,92.48,0,0,1-9.3,0c-2.55-.13-4-1.69-6.63-4.64-3.45-3.93-8.09-8.91-18-9.58v7.67c6.31.57,9.2,3.62,12.19,7s6.08,6.94,12,7.24c4.06.21,7.21.1,10,0a46.42,46.42,0,0,1,15,1.34c5,1.23,23.19,18.53,28.31,27.45a8.15,8.15,0,0,0-.59.82,11.69,11.69,0,0,0,3.1,15.81l.54.36A11.73,11.73,0,1,0,210.16,171c-4.91-8-16.58-20-25.28-26.43a34.84,34.84,0,0,0,8.07-4.2A21.68,21.68,0,0,1,202.48,136.42Zm7.44-51.6a4,4,0,1,1,6.84,4.33,4.1,4.1,0,0,1-5.58,1.25l-.17-.12a4,4,0,0,1-1.09-5.44Zm0,45a4,4,0,1,1,6.84,4.33h0a4.1,4.1,0,0,1-5.58,1.25l-.17-.11a4,4,0,0,1-1.09-5.44Zm0,50.41a4,4,0,1,1,6.84,4.33h0a4.1,4.1,0,0,1-5.58,1.25l-.17-.11a4,4,0,0,1-1.09-5.44Z"/></g></g></svg>