<svg xmlns="http://www.w3.org/2000/svg" viewBox="0 0 243.41 276"><defs><style>.cls-1{fill:#eb753a;}.cls-2{fill:#21656d;}.cls-3{opacity:0.07;}.cls-4{fill:#010101;}.cls-5{fill:#d4572b;}.cls-6{fill:#fefbdc;}.cls-7{fill:#274447;}.cls-8{fill:#589ca0;}</style></defs><title>CoverArtArchive</title><g id="Layer_2" data-name="Layer 2"><g id="Layer_1-2" data-name="Layer 1"><polygon class="cls-1" points="126.5 0 126.5 276 243.41 208.91 243.41 67.08 126.5 0"/><polygon class="cls-2" points="116.92 0 0 67.08 0 208.91 116.92 276 116.92 0"/><g class="cls-3"><path class="cls-4" d="M159.68,175.83a4,4,0,1,1-.44,3.07A4,4,0,0,1,159.68,175.83Zm24.18,42.86a4,4,0,1,1-2.64-7.13,4.06,4.06,0,0,1,4.06,4.06h0v.3A4,4,0,0,1,183.86,218.69Z"/><path class="cls-4" d="M143.77,87.42Z"/><path class="cls-4" d="M165.56,105.91a4,4,0,1,1,0,4.24A4,4,0,0,1,165.56,105.91Zm12.23-38.7a4.1,4.1,0,0,1-5.58,1.25l-.19-.12a4,4,0,1,1,5.77-1.12Z"/><path class="cls-4" d="M209.93,89.45a4,4,0,0,1,6.84,4.33h0A4.1,4.1,0,0,1,211.19,95l-.17-.12A4,4,0,0,1,209.93,89.45Zm0,45a4,4,0,0,1,6.84,4.33h0a4.1,4.1,0,0,1-5.58,1.25l-.17-.11a4,4,0,0,1-1.09-5.37Zm0,50.41a4,4,0,0,1,6.84,4.33h0a4.1,4.1,0,0,1-5.58,1.25l-.17-.11a4,4,0,0,1-1.09-5.44Z"/><path class="cls-4" d="M190.09,203.37a11.73,11.73,0,0,0-20.55,9.08A38.06,38.06,0,0,1,159.32,215a7.67,7.67,0,0,1-4.25-1.92,20.53,20.53,0,0,0-8-3.55A72.14,72.14,0,0,0,163.59,185a11.7,11.7,0,1,0-7.4-2.26c-7.76,17.67-17.67,25.07-24.09,28.14a3.83,3.83,0,0,0-.69.33,21.58,21.58,0,0,1-4.91,1.55v7.67a24.13,24.13,0,0,0,8.15-2.28c10.25-2.61,13.11-.67,16.12,1.36a15.1,15.1,0,0,0,8.16,3.18h.59a45.25,45.25,0,0,0,13.42-3.3,11.75,11.75,0,0,0,8.26,3.3h0a11.73,11.73,0,0,0,8.89-19.36Zm-30.42-32.16a4,4,0,1,1-.44,3.07,4,4,0,0,1,.44-3.07Zm24.19,42.86a4,4,0,1,1-2.64-7.13,4.06,4.06,0,0,1,4.06,4.06h0v.3A4,4,0,0,1,183.86,214.07Z"/><path class="cls-4" d="M143.77,82.76Z"/><path class="cls-4" d="M185.86,57.84a11.73,11.73,0,1,0-21.08,9.24,25.59,25.59,0,0,1-19.05,8.22,55.87,55.87,0,0,0-19.17-4.45v7.67a47.53,47.53,0,0,1,16.75,4.24h0a41.38,41.38,0,0,1,16.5,13.42,12.09,12.09,0,0,0-.73,1,11.73,11.73,0,1,0,16.2-3.66,11.92,11.92,0,0,0-9-1.44A49.83,49.83,0,0,0,156,81.4,31.34,31.34,0,0,0,171,71.63a11.74,11.74,0,0,0,14.9-13.73ZM165.6,101.29a4,4,0,1,1-.05,4.21,4,4,0,0,1,.05-4.21Zm12.23-38.7a4.1,4.1,0,0,1-5.58,1.25l-.19-.12a4.06,4.06,0,1,1,5.77-1.16Z"/><path class="cls-4" d="M202.49,136.43a11.5,11.5,0,0,0,4,5.08l.54.36a11.73,11.73,0,1,0,6.27-21.64h-.71a49.31,49.31,0,0,1,0-21.58h.65a11.73,11.73,0,1,0-8-3.12l.13.12a54.91,54.91,0,0,0,0,27.64c-.27.25-.56.48-.82.77a12,12,0,0,0-1.21,1.57,11.81,11.81,0,0,0-1.36,3A29.13,29.13,0,0,0,189,134c-3.83,2.53-7.67,4.93-18.48,5.12a62.56,62.56,0,0,0-10.27-.23,92.47,92.47,0,0,1-9.3,0c-2.55-.13-4-1.69-6.63-4.64-3.45-3.93-8.09-8.91-18-9.58v7.67c6.31.57,9.2,3.62,12.19,7s6.08,6.94,12,7.24c4.06.21,7.21.1,10,0a46.42,46.42,0,0,1,15,1.34c5,1.23,23.19,18.53,28.31,27.45a8.12,8.12,0,0,0-.59.82,11.69,11.69,0,0,0,3.1,15.81l.54.36a11.73,11.73,0,1,0,3.32-21.26c-4.91-8-16.58-20-25.28-26.43a34.84,34.84,0,0,0,8.07-4.2A21.68,21.68,0,0,1,202.49,136.43Zm7.44-51.6a4,4,0,0,1,6.84,4.33h0a4.1,4.1,0,0,1-5.58,1.25l-.17-.12a4,4,0,0,1-1.09-5.44Zm0,45a4,4,0,0,1,6.84,4.33h0a4.1,4.1,0,0,1-5.58,1.25l-.17-.11a4,4,0,0,1-1.09-5.44Zm0,50.41a4,4,0,0,1,6.84,4.33h0a4.1,4.1,0,0,1-5.58,1.25l-.17-.11a4,4,0,0,1-1.09-5.44Z"/></g><path class="cls-5" d="M190.09,209.12a11.73,11.73,0,0,0-20.55,9.08,38.06,38.06,0,0,1-10.22,2.55,7.67,7.67,0,0,1-4.25-1.92,20.53,20.53,0,0,0-8-3.55,72.14,72.14,0,0,0,16.44-24.59,11.7,11.7,0,1,0-7.4-2.26c-7.76,17.67-17.67,25.07-24.09,28.14a3.83,3.83,0,0,0-.69.33,21.58,21.58,0,0,1-4.91,1.55v7.67a24.13,24.13,0,0,0,8.15-2.28c10.25-2.61,13.11-.67,16.12,1.36a15.1,15.1,0,0,0,8.18,3.22h.59a45.25,45.25,0,0,0,13.42-3.3,11.75,11.75,0,0,0,8.26,3.3h0A11.73,11.73,0,0,0,190,209.06ZM159.68,177a4,4,0,1,1-.44,3.07A4,4,0,0,1,159.68,177Zm24.18,42.82a4,4,0,1,1-2.64-7.13,4.06,4.06,0,0,1,4.06,4.06h0v.3A4,4,0,0,1,183.86,219.82Z"/><path class="cls-4" d="M143.77,87.42Z"/><path class="cls-5" d="M185.86,63.59a11.73,11.73,0,1,0-21.08,9.24,25.59,25.59,0,0,1-19.05,8.22,55.87,55.87,0,0,0-19.17-4.45v7.67a47.55,47.55,0,0,1,16.75,4.24h0a41.38,41.38,0,0,1,16.5,13.42,12.09,12.09,0,0,0-.73,1,11.73,11.73,0,1,0,16.2-3.66,11.92,11.92,0,0,0-9-1.44A49.83,49.83,0,0,0,156,87.15,31.34,31.34,0,0,0,171,77.38a11.74,11.74,0,0,0,14.9-13.73ZM165.6,107.06a4,4,0,1,1,0,4.24A4,4,0,0,1,165.6,107.06Zm12.23-38.7a4.1,4.1,0,0,1-5.58,1.25l-.19-.12a4.07,4.07,0,1,1,5.73-1.12Z"/><path class="cls-5" d="M202.49,142.18a11.5,11.5,0,0,0,4,5.08l.54.36A11.73,11.73,0,1,0,213.3,126h-.71a49.31,49.31,0,0,1,0-21.58h.65a11.73,11.73,0,1,0-8-3.12l.13.12a54.91,54.91,0,0,0,0,27.64c-.27.25-.56.48-.82.77a12,12,0,0,0-1.21,1.57,11.81,11.81,0,0,0-1.36,3,29.13,29.13,0,0,0-13,5.33c-3.83,2.53-7.67,4.93-18.48,5.12a62.56,62.56,0,0,0-10.27-.23,92.48,92.48,0,0,1-9.3,0c-2.55-.13-4-1.69-6.63-4.64-3.45-3.93-8.09-8.91-18-9.58v7.67c6.31.57,9.2,3.62,12.19,7s6.08,6.94,12,7.24c4.06.21,7.21.1,10,0a46.42,46.42,0,0,1,15,1.34c5,1.23,23.19,18.53,28.31,27.45a8.12,8.12,0,0,0-.59.82,11.69,11.69,0,0,0,3.1,15.81l.54.36a11.73,11.73,0,1,0,3.32-21.26c-4.91-8-16.58-20-25.28-26.43a34.84,34.84,0,0,0,8.07-4.2A21.68,21.68,0,0,1,202.49,142.18Zm7.44-51.6a4,4,0,0,1,6.84,4.33h0a4.1,4.1,0,0,1-5.58,1.25L211,96a4,4,0,0,1-1.09-5.44Zm0,45a4,4,0,0,1,6.84,4.33h0a4.1,4.1,0,0,1-5.58,1.25L211,141a4,4,0,0,1-1.09-5.44Zm0,50.41a4,4,0,0,1,6.84,4.33h0a4.1,4.1,0,0,1-5.58,1.25l-.17-.11a4,4,0,0,1-1.09-5.44Z"/><path class="cls-6" d="M190.09,203.37a11.73,11.73,0,0,0-20.55,9.08A38.06,38.06,0,0,1,159.32,215a7.67,7.67,0,0,1-4.25-1.92,20.53,20.53,0,0,0-8-3.55A72.14,72.14,0,0,0,163.59,185a11.7,11.7,0,1,0-7.4-2.26c-7.76,17.67-17.67,25.07-24.09,28.14a3.83,3.83,0,0,0-.69.33,21.58,21.58,0,0,1-4.91,1.55v7.67a24.13,24.13,0,0,0,8.15-2.28c10.25-2.61,13.11-.67,16.12,1.36a15.1,15.1,0,0,0,8.16,3.18h.59a45.25,45.25,0,0,0,13.42-3.3,11.75,11.75,0,0,0,8.26,3.3h0a11.73,11.73,0,0,0,8.89-19.36Zm-30.42-32.16a4,4,0,1,1-.44,3.07,4,4,0,0,1,.44-3.07Zm24.19,42.86a4,4,0,1,1-2.64-7.13,4.06,4.06,0,0,1,4.06,4.06h0v.3A4,4,0,0,1,183.86,214.07Z"/><path class="cls-6" d="M143.77,82.76Z"/><path class="cls-6" d="M185.86,57.84a11.73,11.73,0,1,0-21.08,9.24,25.59,25.59,0,0,1-19.05,8.22,55.87,55.87,0,0,0-19.17-4.45v7.67a47.53,47.53,0,0,1,16.75,4.24h0a41.38,41.38,0,0,1,16.5,13.42,12.09,12.09,0,0,0-.73,1,11.73,11.73,0,1,0,16.2-3.66,11.92,11.92,0,0,0-9-1.44A49.83,49.83,0,0,0,156,81.4,31.34,31.34,0,0,0,171,71.63a11.74,11.74,0,0,0,14.9-13.73ZM165.6,101.29a4,4,0,1,1-.05,4.21,4,4,0,0,1,.05-4.21Zm12.23-38.7a4.1,4.1,0,0,1-5.58,1.25l-.19-.12a4.06,4.06,0,1,1,5.77-1.16Z"/><path class="cls-6" d="M202.49,136.43a11.5,11.5,0,0,0,4,5.08l.54.36a11.73,11.73,0,1,0,6.27-21.64h-.71a49.31,49.31,0,0,1,0-21.58h.65a11.73,11.73,0,1,0-8-3.12l.13.12a54.91,54.91,0,0,0,0,27.64c-.27.25-.56.48-.82.77a12,12,0,0,0-1.21,1.57,11.81,11.81,0,0,0-1.36,3A29.13,29.13,0,0,0,189,134c-3.83,2.53-7.67,4.93-18.48,5.12a62.56,62.56,0,0,0-10.27-.23,92.47,92.47,0,0,1-9.3,0c-2.55-.13-4-1.69-6.63-4.64-3.45-3.93-8.09-8.91-18-9.58v7.67c6.31.57,9.2,3.62,12.19,7s6.08,6.94,12,7.24c4.06.21,7.21.1,10,0a46.42,46.42,0,0,1,15,1.34c5,1.23,23.19,18.53,28.31,27.45a8.12,8.12,0,0,0-.59.82,11.69,11.69,0,0,0,3.1,15.81l.54.36a11.73,11.73,0,1,0,3.32-21.26c-4.91-8-16.58-20-25.28-26.43a34.84,34.84,0,0,0,8.07-4.2A21.68,21.68,0,0,1,202.49,136.43Zm7.44-51.6a4,4,0,0,1,6.84,4.33h0a4.1,4.1,0,0,1-5.58,1.25l-.17-.12a4,4,0,0,1-1.09-5.44Zm0,45a4,4,0,0,1,6.84,4.33h0a4.1,4.1,0,0,1-5.58,1.25l-.17-.11a4,4,0,0,1-1.09-5.44Zm0,50.41a4,4,0,0,1,6.84,4.33h0a4.1,4.1,0,0,1-5.58,1.25l-.17-.11a4,4,0,0,1-1.09-5.44Z"/><polygon class="cls-7" points="25.09 197.59 39.37 194.75 39.37 106.78 25.09 103.94 25.09 197.59"/><path class="cls-7" d="M25.11,197.59V103.94l14.26,2.84v-5l-16-3.55H22.7a1.26,1.26,0,0,0-.31.19,1.44,1.44,0,0,0-.27.29,1.92,1.92,0,0,0-.23.36,2.63,2.63,0,0,0-.17.44,3.55,3.55,0,0,0-.1.48,4,4,0,0,0,0,.52V201a3.81,3.81,0,0,0,0,.52,3.48,3.48,0,0,0,.1.48,2.74,2.74,0,0,0,.17.44,2.23,2.23,0,0,0,.23.36,1.48,1.48,0,0,0,.27.27,1.3,1.3,0,0,0,.31.17h.67l16-3.55v-5Z"/><polygon class="cls-7" points="44.7 208.05 63.25 204.91 63.25 96.64 44.7 93.49 44.7 208.05"/><path class="cls-7" d="M44.72,208.05V93.49l18.53,3.14v-6.2L49.34,87.8l-7.28-1.36a2.07,2.07,0,0,0-.52,0,2,2,0,0,0-1,.31,2.17,2.17,0,0,0-.4.34,2.47,2.47,0,0,0-.33.44,2.83,2.83,0,0,0-.25.52,3.32,3.32,0,0,0-.15.59,4,4,0,0,0,0,.63v123a4,4,0,0,0,0,.63,3.34,3.34,0,0,0,.15.59,2.91,2.91,0,0,0,.25.54,2.53,2.53,0,0,0,.33.44,2.17,2.17,0,0,0,.4.34A2.09,2.09,0,0,0,41,215a1.92,1.92,0,0,0,.5,0,2.07,2.07,0,0,0,.52,0l7.28-1.36,13.91-2.51V205Z"/><rect class="cls-7" x="70.99" y="83.66" width="45.92" height="134.22"/><path class="cls-7" d="M63.25,79.79v142a3.83,3.83,0,0,0,3.83,3.83h49.83V218h-46V83.76h46V76.09H67.08A3.83,3.83,0,0,0,63.25,79.79Z"/><polygon class="cls-2" points="25.09 191.84 39.37 189 39.37 101.03 25.09 98.19 25.09 191.84"/><path class="cls-6" d="M25.11,191.84V98.19L39.37,101V96l-16-3.55H22.7a1.26,1.26,0,0,0-.31.19,1.44,1.44,0,0,0-.27.29,1.92,1.92,0,0,0-.23.36,2.63,2.63,0,0,0-.17.44,3.55,3.55,0,0,0-.1.48,4,4,0,0,0,0,.52V195.27a3.81,3.81,0,0,0,0,.52,3.48,3.48,0,0,0,.1.48,2.74,2.74,0,0,0,.17.44,2.23,2.23,0,0,0,.23.36,1.48,1.48,0,0,0,.27.27,1.3,1.3,0,0,0,.31.17h.67l16-3.55v-5Z"/><polygon class="cls-2" points="44.7 202.3 63.25 199.16 63.25 90.89 44.7 87.74 44.7 202.3"/><path class="cls-6" d="M44.72,202.3V87.74l18.53,3.14v-6.2L49.34,82.05l-7.28-1.36a2.07,2.07,0,0,0-.52,0,2,2,0,0,0-1,.31,2.17,2.17,0,0,0-.4.34,2.47,2.47,0,0,0-.33.44,2.83,2.83,0,0,0-.25.52,3.32,3.32,0,0,0-.15.59,4,4,0,0,0,0,.63v123a4,4,0,0,0,0,.63,3.34,3.34,0,0,0,.15.59,2.91,2.91,0,0,0,.25.54,2.53,2.53,0,0,0,.33.44,2.17,2.17,0,0,0,.4.34,2.09,2.09,0,0,0,.46.21,1.92,1.92,0,0,0,.5,0,2.07,2.07,0,0,0,.52,0l7.28-1.36,13.91-2.51v-6.19Z"/><rect class="cls-8" x="70.99" y="77.91" width="45.92" height="134.22"/><path class="cls-6" d="M63.25,74V216a3.83,3.83,0,0,0,3.83,3.83h49.83v-7.67h-46V78h46V70.34H67.08A3.83,3.83,0,0,0,63.25,74Z"/></g></g></svg>