<svg xmlns="http://www.w3.org/2000/svg" viewBox="0 0 243.41 275.99"><defs><style>.cls-1{fill:#eb753a;}.cls-2{fill:#37b5b2;}.cls-3{fill:#299793;}.cls-4{fill:#73cbce;}.cls-5{fill:#fefbdc;}.cls-6{opacity:0.07;}.cls-7{fill:#010101;}.cls-8{fill:#d4572b;}</style></defs><title>CritiqueBrainz</title><g id="Layer_2" data-name="Layer 2"><g id="Layer_1-2" data-name="Layer 1"><polygon class="cls-1" points="126.49 0 126.49 275.99 243.41 208.91 243.41 67.08 126.49 0"/><polygon class="cls-2" points="116.91 0 0 67.08 0 208.91 116.91 275.99 116.91 0"/><polygon class="cls-3" points="30.64 89.68 27.96 166.86 45.23 186.75 45.75 186.77 44 211.17 91.09 188.63 116.91 189.69 116.91 75.11 50.54 72.39 30.64 89.68"/><polygon class="cls-4" points="30.64 83.93 27.96 161.11 45.23 181 45.75 181.02 44 205.42 91.09 182.88 116.91 183.94 116.91 69.36 50.54 66.64 30.64 83.93"/><path class="cls-5" d="M65.89,101.44a3,3,0,0,0-.12,6h0l51.14,1.92v-6L66,101.44Z"/><path class="cls-5" d="M62.89,125.48a3,3,0,0,0,2.88,3.12h0l51.14,1.92v-6L66,122.6a3,3,0,0,0-3.12,2.77Z"/><path class="cls-5" d="M62.89,146.62a3,3,0,0,0,2.88,3.12h0l51.14,1.92v-6L66,143.73a3,3,0,0,0-3.12,2.77S62.89,146.59,62.89,146.62Z"/><g class="cls-6"><path class="cls-7" d="M159.67,175.83a4,4,0,1,1-.44,3.07A4,4,0,0,1,159.67,175.83Zm24.15,42.9a4,4,0,1,1-2.64-7.13,4.06,4.06,0,0,1,4.06,4.06h0v.3A4,4,0,0,1,183.82,218.73Z"/><path class="cls-7" d="M143.76,87.41Z"/><path class="cls-7" d="M165.55,105.91a4,4,0,1,1,0,4.24A4,4,0,0,1,165.55,105.91Zm12.23-38.7a4.1,4.1,0,0,1-5.58,1.25l-.19-.12a4.05,4.05,0,1,1,5.77-1.13Z"/><path class="cls-7" d="M209.89,89.45a4,4,0,0,1,6.84,4.33h0A4.1,4.1,0,0,1,211.15,95l-.17-.12A4,4,0,0,1,209.89,89.45Zm0,45a4,4,0,0,1,6.84,4.33h0a4.1,4.1,0,0,1-5.58,1.25l-.17-.11a4,4,0,0,1-1.09-5.37Zm0,50.41a4,4,0,0,1,6.84,4.33,4.1,4.1,0,0,1-5.58,1.25l-.17-.11a4,4,0,0,1-1.09-5.44Z"/><path class="cls-7" d="M190.09,203.37a11.73,11.73,0,0,0-20.55,9.08A38.06,38.06,0,0,1,159.32,215a7.67,7.67,0,0,1-4.25-1.92,20.53,20.53,0,0,0-8-3.55A72.14,72.14,0,0,0,163.53,185a11.7,11.7,0,1,0-7.4-2.26c-7.76,17.67-17.67,25.07-24.09,28.14a3.83,3.83,0,0,0-.69.33,21.58,21.58,0,0,1-4.91,1.55v7.67a24.13,24.13,0,0,0,8.15-2.28c10.25-2.61,13.11-.67,16.12,1.36a15.1,15.1,0,0,0,8.16,3.18h.59a45.25,45.25,0,0,0,13.42-3.3,11.75,11.75,0,0,0,8.26,3.3h0A11.73,11.73,0,0,0,190,203.31Zm-30.42-32.16a4,4,0,1,1-.44,3.07,4,4,0,0,1,.44-3.07Zm24.15,42.86a4,4,0,1,1-2.64-7.13,4.06,4.06,0,0,1,4.06,4.06h0v.3a4,4,0,0,1-1.42,2.76Z"/><path class="cls-7" d="M143.76,82.73Z"/><path class="cls-7" d="M185.81,57.84a11.73,11.73,0,1,0-21.08,9.24,25.59,25.59,0,0,1-19.05,8.22,55.87,55.87,0,0,0-19.17-4.45v7.67a47.53,47.53,0,0,1,16.75,4.24h0a41.38,41.38,0,0,1,16.5,13.42,12.1,12.1,0,0,0-.73,1,11.73,11.73,0,1,0,16.2-3.66,11.92,11.92,0,0,0-9-1.44A49.83,49.83,0,0,0,156,81.4a31.34,31.34,0,0,0,14.91-9.77,11.74,11.74,0,0,0,15-13.73Zm-20.26,43.45a4,4,0,1,1,0,4.24A4,4,0,0,1,165.55,101.29Zm12.23-38.7a4.1,4.1,0,0,1-5.58,1.25l-.19-.12a4.06,4.06,0,1,1,5.77-1.16Z"/><path class="cls-7" d="M202.49,136.42a11.5,11.5,0,0,0,4,5.08l.54.36a11.73,11.73,0,1,0,6.27-21.64h-.71a49.31,49.31,0,0,1,0-21.58h.65a11.73,11.73,0,1,0-8-3.12l.13.12a54.91,54.91,0,0,0,0,27.64c-.27.25-.56.48-.82.77a12,12,0,0,0-1.21,1.57,11.81,11.81,0,0,0-1.36,3,29.13,29.13,0,0,0-13,5.33c-3.83,2.53-7.67,4.93-18.48,5.12a62.56,62.56,0,0,0-10.27-.23,92.48,92.48,0,0,1-9.3,0c-2.55-.13-4-1.69-6.63-4.64-3.45-3.93-8.09-8.91-18-9.58v7.67c6.31.57,9.2,3.62,12.19,7s6.08,6.94,12,7.24c4.06.21,7.21.1,10,0a46.42,46.42,0,0,1,15,1.34c5,1.23,23.19,18.53,28.31,27.45a8.13,8.13,0,0,0-.59.82,11.69,11.69,0,0,0,3.1,15.81l.54.36A11.73,11.73,0,1,0,210.17,171c-4.91-8-16.58-20-25.28-26.43a34.84,34.84,0,0,0,8.07-4.2A21.68,21.68,0,0,1,202.49,136.42Zm7.44-51.6a4,4,0,0,1,6.84,4.33h0a4.1,4.1,0,0,1-5.58,1.25l-.17-.12a4,4,0,0,1-1.09-5.44Zm0,45a4,4,0,0,1,6.84,4.33h0a4.1,4.1,0,0,1-5.58,1.25l-.17-.11a4,4,0,0,1-1.09-5.44Zm0,50.41a4,4,0,0,1,6.84,4.33h0a4.1,4.1,0,0,1-5.58,1.25l-.17-.11a4,4,0,0,1-1.09-5.44Z"/></g><path class="cls-8" d="M190.09,209.12a11.73,11.73,0,0,0-20.55,9.08,38.06,38.06,0,0,1-10.22,2.55,7.67,7.67,0,0,1-4.25-1.92,20.53,20.53,0,0,0-8-3.55,72.14,72.14,0,0,0,16.49-24.55,11.7,11.7,0,1,0-7.4-2.26c-7.76,17.67-17.67,25.07-24.09,28.14a3.83,3.83,0,0,0-.69.33,21.58,21.58,0,0,1-4.91,1.55v7.67a24.13,24.13,0,0,0,8.15-2.28c10.25-2.61,13.11-.67,16.12,1.36a15.1,15.1,0,0,0,8.18,3.22h.59a45.25,45.25,0,0,0,13.42-3.3,11.75,11.75,0,0,0,8.26,3.3h0a11.73,11.73,0,0,0,8.89-19.36ZM159.67,177a4,4,0,1,1-.44,3.07,4,4,0,0,1,.44-3.07Zm24.15,42.86a4,4,0,1,1-2.64-7.13,4.06,4.06,0,0,1,4.06,4.06h0v.3a4,4,0,0,1-1.42,2.76Z"/><path class="cls-7" d="M143.76,87.41Z"/><path class="cls-8" d="M185.81,63.59a11.73,11.73,0,1,0-21.08,9.24A25.59,25.59,0,0,1,145.68,81a55.87,55.87,0,0,0-19.17-4.45v7.67a47.55,47.55,0,0,1,16.75,4.24h0a41.38,41.38,0,0,1,16.5,13.42,12.1,12.1,0,0,0-.73,1,11.73,11.73,0,1,0,16.2-3.66,11.92,11.92,0,0,0-9-1.44A49.83,49.83,0,0,0,156,87.15a31.34,31.34,0,0,0,14.91-9.77,11.74,11.74,0,0,0,15-13.73Zm-20.26,43.47a4,4,0,1,1,0,4.24A4,4,0,0,1,165.55,107.06Zm12.23-38.7a4.1,4.1,0,0,1-5.58,1.25l-.19-.12a4.05,4.05,0,1,1,5.77-1.13Z"/><path class="cls-8" d="M202.49,142.17a11.5,11.5,0,0,0,4,5.08l.54.36A11.73,11.73,0,1,0,213.3,126h-.71a49.31,49.31,0,0,1,0-21.58h.65a11.73,11.73,0,1,0-8-3.12l.13.12a54.91,54.91,0,0,0,0,27.64c-.27.25-.56.48-.82.77a12,12,0,0,0-1.21,1.57,11.81,11.81,0,0,0-1.36,3,29.13,29.13,0,0,0-13,5.33c-3.83,2.53-7.67,4.93-18.48,5.12a62.56,62.56,0,0,0-10.27-.23,92.48,92.48,0,0,1-9.3,0c-2.55-.13-4-1.69-6.63-4.64-3.45-3.93-8.09-8.91-18-9.58V138c6.31.57,9.2,3.62,12.19,7s6.08,6.94,12,7.24c4.06.21,7.21.1,10,0a46.42,46.42,0,0,1,15,1.34c5,1.23,23.19,18.53,28.31,27.45a8.13,8.13,0,0,0-.59.82,11.69,11.69,0,0,0,3.1,15.81l.54.36a11.73,11.73,0,1,0,3.32-21.26c-4.91-8-16.58-20-25.28-26.43a34.84,34.84,0,0,0,8.07-4.2A21.68,21.68,0,0,1,202.49,142.17Zm7.44-51.6a4,4,0,0,1,6.84,4.33h0a4.1,4.1,0,0,1-5.58,1.25L211,96a4,4,0,0,1-1.09-5.44Zm0,45a4,4,0,0,1,6.84,4.33h0a4.1,4.1,0,0,1-5.58,1.25L211,141a4,4,0,0,1-1.09-5.44Zm0,50.41a4,4,0,0,1,6.84,4.33h0a4.1,4.1,0,0,1-5.58,1.25l-.17-.11a4,4,0,0,1-1.09-5.44Z"/><path class="cls-5" d="M190.09,203.37a11.73,11.73,0,0,0-20.55,9.08A38.06,38.06,0,0,1,159.32,215a7.67,7.67,0,0,1-4.25-1.92,20.53,20.53,0,0,0-8-3.55A72.14,72.14,0,0,0,163.53,185a11.7,11.7,0,1,0-7.4-2.26c-7.76,17.67-17.67,25.07-24.09,28.14a3.83,3.83,0,0,0-.69.33,21.58,21.58,0,0,1-4.91,1.55v7.67a24.13,24.13,0,0,0,8.15-2.28c10.25-2.61,13.11-.67,16.12,1.36a15.1,15.1,0,0,0,8.16,3.18h.59a45.25,45.25,0,0,0,13.42-3.3,11.75,11.75,0,0,0,8.26,3.3h0A11.73,11.73,0,0,0,190,203.31Zm-30.42-32.16a4,4,0,1,1-.44,3.07,4,4,0,0,1,.44-3.07Zm24.15,42.86a4,4,0,1,1-2.64-7.13,4.06,4.06,0,0,1,4.06,4.06h0v.3a4,4,0,0,1-1.42,2.76Z"/><path class="cls-5" d="M143.76,82.73Z"/><path class="cls-5" d="M185.81,57.84a11.73,11.73,0,1,0-21.08,9.24,25.59,25.59,0,0,1-19.05,8.22,55.87,55.87,0,0,0-19.17-4.45v7.67a47.53,47.53,0,0,1,16.75,4.24h0a41.38,41.38,0,0,1,16.5,13.42,12.1,12.1,0,0,0-.73,1,11.73,11.73,0,1,0,16.2-3.66,11.92,11.92,0,0,0-9-1.44A49.83,49.83,0,0,0,156,81.4a31.34,31.34,0,0,0,14.91-9.77,11.74,11.74,0,0,0,15-13.73Zm-20.26,43.45a4,4,0,1,1,0,4.24A4,4,0,0,1,165.55,101.29Zm12.23-38.7a4.1,4.1,0,0,1-5.58,1.25l-.19-.12a4.06,4.06,0,1,1,5.77-1.16Z"/><path class="cls-5" d="M202.49,136.42a11.5,11.5,0,0,0,4,5.08l.54.36a11.73,11.73,0,1,0,6.27-21.64h-.71a49.31,49.31,0,0,1,0-21.58h.65a11.73,11.73,0,1,0-8-3.12l.13.12a54.91,54.91,0,0,0,0,27.64c-.27.25-.56.48-.82.77a12,12,0,0,0-1.21,1.57,11.81,11.81,0,0,0-1.36,3,29.13,29.13,0,0,0-13,5.33c-3.83,2.53-7.67,4.93-18.48,5.12a62.56,62.56,0,0,0-10.27-.23,92.48,92.48,0,0,1-9.3,0c-2.55-.13-4-1.69-6.63-4.64-3.45-3.93-8.09-8.91-18-9.58v7.67c6.31.57,9.2,3.62,12.19,7s6.08,6.94,12,7.24c4.06.21,7.21.1,10,0a46.42,46.42,0,0,1,15,1.34c5,1.23,23.19,18.53,28.31,27.45a8.13,8.13,0,0,0-.59.82,11.69,11.69,0,0,0,3.1,15.81l.54.36A11.73,11.73,0,1,0,210.17,171c-4.91-8-16.58-20-25.28-26.43a34.84,34.84,0,0,0,8.07-4.2A21.68,21.68,0,0,1,202.49,136.42Zm7.44-51.6a4,4,0,0,1,6.84,4.33h0a4.1,4.1,0,0,1-5.58,1.25l-.17-.12a4,4,0,0,1-1.09-5.44Zm0,45a4,4,0,0,1,6.84,4.33h0a4.1,4.1,0,0,1-5.58,1.25l-.17-.11a4,4,0,0,1-1.09-5.44Zm0,50.41a4,4,0,0,1,6.84,4.33h0a4.1,4.1,0,0,1-5.58,1.25l-.17-.11a4,4,0,0,1-1.09-5.44Z"/></g></g></svg>