<?xml version="1.0" encoding="utf-8"?>
<!-- Generator: Adobe Illustrator 26.0.3, SVG Export Plug-In . SVG Version: 6.00 Build 0)  -->
<svg version="1.1" id="Layer_1" xmlns="http://www.w3.org/2000/svg" xmlns:xlink="http://www.w3.org/1999/xlink" x="0px" y="0px"
	 viewBox="0 0 243.4 276" style="enable-background:new 0 0 243.4 276;" xml:space="preserve">
<style type="text/css">
	.st0{fill:#EB743B;}
	.st1{fill:#353070;}
	.st2{opacity:7.000700e-02;}
	.st3{clip-path:url(#SVGID_00000055700513664575215600000015078660556881228675_);}
	.st4{fill:#D3562C;}
	.st5{fill:#FFFEDB;}
	.st6{opacity:0.25;}
</style>
<g>
	<polygon class="st0" points="126.5,0 126.5,276 243.4,208.9 243.4,67.1 	"/>
	<polygon class="st1" points="116.9,-0.1 0,66.9 0,208.8 116.9,275.8 	"/>
	<g class="st2">
		<g>
			<defs>
				<rect id="SVGID_1_" x="126.5" y="48.7" width="98.6" height="174"/>
			</defs>
			<clipPath id="SVGID_00000174580272020098573140000013435618909666146198_">
				<use xlink:href="#SVGID_1_"  style="overflow:visible;"/>
			</clipPath>
			<path style="clip-path:url(#SVGID_00000174580272020098573140000013435618909666146198_);" d="M159.7,175.8c0.7-1.2,2-2,3.5-2
				c0.7,0,1.4,0.2,2.1,0.6c1.9,1.2,2.6,3.6,1.4,5.6c-0.7,1.2-2,2-3.5,2c-0.7,0-1.4-0.2-2.1-0.6c-0.9-0.6-1.6-1.4-1.8-2.5
				C158.9,177.8,159.1,176.8,159.7,175.8 M183.8,218.7c-0.9,0.8-2,1-2.6,1c-1.2,0-2.3-0.5-3.1-1.4c-1.5-1.7-1.3-4.3,0.4-5.7
				c0.9-0.8,2-1,2.6-1c1.2,0,2.3,0.5,3.1,1.4c0.7,0.8,1,1.9,1,2.9C185.1,217,184.6,218,183.8,218.7"/>
			<path style="clip-path:url(#SVGID_00000174580272020098573140000013435618909666146198_);" d="M143.7,87.4c0.1,0,0.3,0.1,0.4,0.1
				C144,87.5,143.9,87.5,143.7,87.4"/>
			<path style="clip-path:url(#SVGID_00000174580272020098573140000013435618909666146198_);" d="M165.5,105.9
				c0.3-0.5,0.8-0.9,1.3-1.3c0.6-0.4,1.4-0.6,2.1-0.6c0.8,0,1.5,0.2,2.2,0.6c1.9,1.2,2.5,3.7,1.3,5.6c-0.7,1.2-2,1.9-3.4,1.9
				c-0.8,0-1.5-0.2-2.2-0.6C164.9,110.3,164.4,107.8,165.5,105.9 M177.8,67.2c-1.2,1.8-3.7,2.4-5.6,1.2l-0.2-0.1
				c-1.8-1.2-2.2-3.6-1.1-5.5c0.7-1.2,2-1.9,3.4-1.9c0.8,0,1.5,0.2,2.2,0.6c0.9,0.6,1.6,1.5,1.8,2.5
				C178.5,65.2,178.4,66.3,177.8,67.2"/>
			<path style="clip-path:url(#SVGID_00000174580272020098573140000013435618909666146198_);" d="M209.9,89.5c0.7-1.2,2-1.9,3.4-1.9
				c0.8,0,1.5,0.2,2.2,0.6c0.9,0.6,1.6,1.5,1.8,2.5c0.2,1,0,2.1-0.5,3c-1.1,1.8-3.7,2.4-5.6,1.3l-0.2-0.1
				C209.2,93.7,208.8,91.3,209.9,89.5 M209.9,134.4c0.7-1.2,2-1.9,3.4-1.9c0.8,0,1.5,0.2,2.2,0.6c0.9,0.6,1.6,1.5,1.8,2.5
				c0.2,1,0,2.1-0.5,3c-1.1,1.8-3.7,2.4-5.6,1.3l-0.2-0.1C209.2,138.6,208.8,136.3,209.9,134.4 M209.9,184.8c0.7-1.2,2-1.9,3.4-1.9
				c0.8,0,1.5,0.2,2.2,0.6c0.9,0.6,1.6,1.5,1.8,2.5c0.2,1,0,2.1-0.5,3c-1.1,1.8-3.7,2.4-5.6,1.3l-0.2-0.1
				C209.2,189.1,208.8,186.7,209.9,184.8"/>
			<path style="clip-path:url(#SVGID_00000174580272020098573140000013435618909666146198_);" d="M190.1,203.4
				c-2.2-2.6-5.5-4.1-8.9-4.1c-2.8,0-5.5,1-7.6,2.8c-3.1,2.7-4.5,6.6-4,10.3c-3.7,1.3-8.2,2.6-10.2,2.6c-1.6-0.1-2.5-0.7-4.3-1.9
				c-2.2-1.5-4.6-2.9-8-3.5c5.6-5.3,11.5-13.1,16.5-24.6c4-0.1,7.6-2.3,9.7-5.7c3.3-5.6,1.5-12.8-4.1-16.1c-1.8-1.1-3.9-1.7-6-1.7
				c-4.1,0-8,2.2-10.1,5.7c-1.6,2.7-2.1,5.8-1.3,8.9c0.7,2.7,2.2,5,4.4,6.6c-7.8,17.7-17.7,25.1-24.1,28.1c-0.2,0.1-0.5,0.2-0.7,0.3
				c-2.3,1-3.9,1.4-4.9,1.5v7.7c0.5-0.1,3.6-0.2,8.1-2.3c10.2-2.6,13.1-0.7,16.1,1.4c2,1.3,4.4,3,8.2,3.2c0.2,0,0.4,0,0.6,0
				c4,0,9.9-2,13.5-3.3c2.2,2.1,5.1,3.4,8.2,3.4c2.8,0,5.5-1,7.6-2.8c2.4-2,3.8-4.9,4.1-8C193.1,208.8,192.1,205.7,190.1,203.4
				 M159.7,171.2c0.7-1.2,2-2,3.5-2c0.7,0,1.4,0.2,2.1,0.6c1.9,1.1,2.6,3.6,1.4,5.6c-0.7,1.2-2,2-3.5,2c-0.7,0-1.4-0.2-2.1-0.6
				c-0.9-0.6-1.6-1.4-1.8-2.5C158.9,173.2,159.1,172.2,159.7,171.2 M183.8,214.1c-0.9,0.8-2,1-2.6,1c-1.2,0-2.3-0.5-3.1-1.4
				c-1.5-1.7-1.3-4.3,0.4-5.7c0.9-0.8,2-1,2.6-1c1.2,0,2.3,0.5,3.1,1.4c0.7,0.8,1,1.9,1,3C185.1,212.4,184.6,213.4,183.8,214.1"/>
			<path style="clip-path:url(#SVGID_00000174580272020098573140000013435618909666146198_);" d="M143.7,82.8c0.1,0,0.3,0.1,0.4,0.1
				C144,82.9,143.9,82.9,143.7,82.8"/>
			<path style="clip-path:url(#SVGID_00000174580272020098573140000013435618909666146198_);" d="M185.8,57.9
				c-0.7-3.1-2.5-5.7-5.2-7.4c-1.9-1.2-4-1.8-6.3-1.8c-4.1,0-7.8,2-9.9,5.5c-2.6,4.1-2.3,9.2,0.3,13c-7,7.9-16.7,8.3-19.1,8.2
				c-7.1-3.1-13.9-4.1-19.2-4.4v7.7c4.7,0.3,10.6,1.3,16.8,4.1c0,0,0,0,0,0c6.6,3,12.1,7.5,16.5,13.5c-0.3,0.3-0.5,0.7-0.7,1
				c-3.4,5.5-1.8,12.7,3.6,16.2c1.9,1.2,4,1.8,6.3,1.8c4.1,0,7.8-2,9.9-5.5c3.5-5.5,1.8-12.7-3.7-16.2c-2.7-1.7-5.9-2.1-8.9-1.4
				c-2.9-4.1-6.4-7.7-10.2-10.7c4.8-1.5,10.4-4.3,14.9-9.8c1.1,0.3,2.2,0.5,3.4,0.5c4.1,0,7.8-2,9.9-5.5
				C185.9,64.1,186.5,61,185.8,57.9 M165.5,101.3c0.3-0.5,0.8-0.9,1.3-1.3c0.6-0.4,1.4-0.6,2.1-0.6c0.8,0,1.5,0.2,2.2,0.6
				c1.9,1.2,2.5,3.7,1.3,5.6c-0.7,1.2-2,1.9-3.4,1.9c-0.8,0-1.5-0.2-2.2-0.6C164.9,105.7,164.4,103.2,165.5,101.3 M177.8,62.6
				c-1.2,1.8-3.7,2.4-5.6,1.3l-0.2-0.1c-1.8-1.2-2.2-3.6-1.1-5.5c0.7-1.2,2-1.9,3.4-1.9c0.8,0,1.5,0.2,2.2,0.6
				c0.9,0.6,1.6,1.5,1.8,2.5C178.5,60.6,178.4,61.7,177.8,62.6"/>
			<path style="clip-path:url(#SVGID_00000174580272020098573140000013435618909666146198_);" d="M202.5,136.5c0.8,2,2.2,3.8,4,5.1
				c0.1,0.1,0.3,0.2,0.5,0.4c1.9,1.2,4,1.8,6.3,1.8c4.1,0,7.8-2,9.9-5.5c1.7-2.6,2.2-5.8,1.5-8.8c-0.7-3.1-2.5-5.7-5.2-7.4
				c-1.9-1.2-4-1.8-6.3-1.8c-0.2,0-0.5,0-0.7,0c-1.4-6.1-1.8-14.9,0.1-21.6c0.2,0,0.4,0,0.6,0c4.1,0,7.8-2,9.9-5.5
				c1.7-2.6,2.2-5.8,1.5-8.8c-0.7-3.1-2.5-5.7-5.2-7.4c-1.9-1.2-4-1.8-6.3-1.8c-4.1,0-7.8,2-9.9,5.5c-3.1,4.9-2.1,11.1,2,14.9
				c0,0,0.1,0.1,0.1,0.1c-2.6,8.7-2.2,19.8-0.1,27.6c-0.3,0.3-0.6,0.5-0.8,0.8c-0.4,0.5-0.9,1-1.2,1.6c-0.6,1-1.1,2-1.4,3
				c-6.5,0.9-10,3.2-13.1,5.2c-3.9,2.5-7.6,4.9-18.5,5.1c-3.8-0.4-6.8-0.3-10.1-0.2c-2.7,0.1-5.6,0.2-9.3,0c-2.6-0.1-4-1.7-6.6-4.6
				c-3.5-3.9-8.1-8.9-18-9.6v7.7c6.3,0.6,9.2,3.6,12.2,7c2.8,3.2,6.1,6.9,12,7.3c4.1,0.2,7.2,0.1,10,0c4.8-0.2,8.5-0.3,15.1,1.3
				c5,1.2,23.2,18.5,28.3,27.4c-0.2,0.3-0.4,0.5-0.6,0.8c-3.3,5.3-2,12.2,3.1,15.8c0.1,0.1,0.3,0.2,0.5,0.4c1.9,1.2,4,1.8,6.3,1.8
				c4.1,0,7.8-2,9.9-5.5c1.7-2.6,2.2-5.8,1.5-8.8c-0.7-3.1-2.5-5.7-5.2-7.4c-1.9-1.2-4-1.8-6.3-1.8c-1,0-2,0.1-3,0.4
				c-4.9-8-16.6-20-25.3-26.4c3.5-1.2,5.8-2.8,8.1-4.2C195.9,138.6,198.2,137.2,202.5,136.5 M209.9,84.8c0.7-1.2,2-1.9,3.4-1.9
				c0.8,0,1.5,0.2,2.2,0.6c0.9,0.6,1.6,1.5,1.8,2.5c0.2,1,0,2.1-0.5,3c-1.1,1.8-3.7,2.4-5.6,1.3l-0.2-0.1
				C209.2,89.1,208.8,86.7,209.9,84.8 M209.9,129.8c0.7-1.2,2-1.9,3.4-1.9c0.8,0,1.5,0.2,2.2,0.6c0.9,0.6,1.6,1.5,1.8,2.5
				c0.2,1,0,2.1-0.5,3c-1.1,1.8-3.7,2.4-5.6,1.3l-0.2-0.1C209.2,134,208.8,131.6,209.9,129.8 M209.9,180.2c0.7-1.2,2-1.9,3.4-1.9
				c0.8,0,1.5,0.2,2.2,0.6c0.9,0.6,1.6,1.5,1.8,2.5c0.2,1,0,2.1-0.5,3c-1.1,1.8-3.7,2.4-5.6,1.3l-0.2-0.1
				C209.2,184.4,208.8,182.1,209.9,180.2"/>
		</g>
	</g>
	<path class="st4" d="M190.1,209.1c-2.2-2.6-5.5-4.1-8.9-4.1c-2.8,0-5.5,1-7.6,2.8c-3.1,2.7-4.5,6.6-4,10.3
		c-3.7,1.3-8.2,2.6-10.2,2.6c-1.6-0.1-2.5-0.7-4.3-1.9c-2.2-1.5-4.6-2.9-8-3.5c5.6-5.3,11.5-13.1,16.5-24.6c4-0.1,7.6-2.3,9.7-5.7
		c3.3-5.6,1.5-12.8-4.1-16.1c-1.8-1.1-3.9-1.7-6-1.7c-4.1,0-8,2.2-10.1,5.7c-1.6,2.7-2.1,5.8-1.3,8.9c0.7,2.7,2.2,5,4.4,6.6
		c-7.8,17.7-17.7,25.1-24.1,28.1c-0.2,0.1-0.5,0.2-0.7,0.3c-2.3,1-3.9,1.4-4.9,1.5v7.7c0.5-0.1,3.6-0.2,8.1-2.3
		c10.2-2.6,13.1-0.7,16.1,1.4c2,1.3,4.4,3,8.2,3.2c0.2,0,0.4,0,0.6,0c4,0,9.9-2,13.5-3.3c2.2,2.1,5.1,3.4,8.2,3.4
		c2.8,0,5.5-1,7.6-2.8c2.4-2,3.8-4.9,4.1-8C193.1,214.5,192.1,211.5,190.1,209.1 M159.7,177c0.7-1.2,2-2,3.5-2
		c0.7,0,1.4,0.2,2.1,0.6c1.9,1.1,2.6,3.6,1.4,5.6c-0.7,1.2-2,2-3.5,2c-0.7,0-1.4-0.2-2.1-0.6c-0.9-0.6-1.6-1.4-1.8-2.5
		C158.9,179,159.1,177.9,159.7,177 M183.8,219.8c-0.9,0.8-2,1-2.6,1c-1.2,0-2.3-0.5-3.1-1.4c-1.5-1.7-1.3-4.3,0.4-5.7
		c0.9-0.8,2-1,2.6-1c1.2,0,2.3,0.5,3.1,1.4c0.7,0.8,1,1.9,1,3C185.1,218.1,184.6,219.1,183.8,219.8"/>
	<path d="M143.7,87.4c0.1,0,0.3,0.1,0.4,0.1C144,87.5,143.9,87.5,143.7,87.4"/>
	<path class="st4" d="M185.8,61.7c-0.7-3.1-2.5-5.7-5.2-7.4c-1.9-1.2-4-1.8-6.3-1.8c-4.1,0-7.8,2-9.9,5.5c-2.6,4.1-2.3,9.2,0.3,12.9
		c-7,7.9-16.7,8.3-19.1,8.2c-7.1-3.1-13.9-4.1-19.2-4.4v7.7c4.7,0.3,10.6,1.3,16.8,4.1c0,0,0,0,0,0c6.6,3,12.1,7.5,16.5,13.5
		c-0.3,0.3-0.5,0.7-0.7,1c-3.4,5.5-1.8,12.7,3.6,16.2c1.9,1.2,4,1.8,6.3,1.8c4.1,0,7.8-2,9.9-5.5c3.5-5.5,1.8-12.7-3.7-16.2
		c-2.7-1.7-5.9-2.1-8.9-1.4c-2.9-4.1-6.4-7.7-10.2-10.7c4.8-1.5,10.4-4.3,14.9-9.8c1.1,0.3,2.2,0.5,3.4,0.5c4.1,0,7.8-2,9.9-5.5
		C185.9,67.9,186.5,64.8,185.8,61.7 M165.5,105.2c0.3-0.5,0.8-0.9,1.3-1.3c0.6-0.4,1.4-0.6,2.1-0.6c0.8,0,1.5,0.2,2.2,0.6
		c1.9,1.2,2.5,3.7,1.3,5.6c-0.7,1.2-2,1.9-3.4,1.9c-0.8,0-1.5-0.2-2.2-0.6C164.9,109.6,164.4,107,165.5,105.2 M177.8,66.5
		c-1.2,1.8-3.7,2.4-5.6,1.2l-0.2-0.1c-1.8-1.2-2.2-3.6-1.1-5.5c0.7-1.2,2-1.9,3.4-1.9c0.8,0,1.5,0.2,2.2,0.6
		c0.9,0.6,1.6,1.5,1.8,2.5C178.5,64.5,178.4,65.5,177.8,66.5"/>
	<path class="st4" d="M202.5,142.2c0.8,2,2.2,3.8,4,5.1c0.1,0.1,0.3,0.2,0.5,0.4c1.9,1.2,4,1.8,6.3,1.8c4.1,0,7.8-2,9.9-5.5
		c1.7-2.6,2.2-5.8,1.5-8.8c-0.7-3.1-2.5-5.7-5.2-7.4c-1.9-1.2-4-1.8-6.3-1.8c-0.2,0-0.5,0-0.7,0c-1.4-6.1-1.8-14.9,0.1-21.6
		c0.2,0,0.4,0,0.6,0c4.1,0,7.8-2,9.9-5.5c1.7-2.6,2.2-5.8,1.5-8.8c-0.7-3.1-2.5-5.7-5.2-7.4c-1.9-1.2-4-1.8-6.3-1.8
		c-4.1,0-7.8,2-9.9,5.5c-3.1,4.9-2.1,11.1,2,14.9c0,0,0.1,0.1,0.1,0.1c-2.6,8.7-2.2,19.8-0.1,27.6c-0.3,0.3-0.6,0.5-0.8,0.8
		c-0.4,0.5-0.9,1-1.2,1.6c-0.6,1-1.1,2-1.4,3c-6.5,0.9-10,3.2-13.1,5.2c-3.9,2.5-7.6,4.9-18.5,5.1c-3.8-0.4-6.8-0.3-10.1-0.2
		c-2.7,0.1-5.6,0.2-9.3,0c-2.6-0.1-4-1.7-6.6-4.6c-3.5-3.9-8.1-8.9-18-9.6v7.7c6.3,0.6,9.2,3.6,12.2,7c2.8,3.2,6.1,6.9,12,7.2
		c4.1,0.2,7.2,0.1,10,0c4.8-0.2,8.5-0.3,15.1,1.3c5,1.2,23.2,18.5,28.3,27.4c-0.2,0.3-0.4,0.5-0.6,0.8c-3.3,5.3-2,12.2,3.1,15.8
		c0.1,0.1,0.3,0.2,0.5,0.4c1.9,1.2,4,1.8,6.3,1.8c4.1,0,7.8-2,9.9-5.5c1.7-2.6,2.2-5.8,1.5-8.8c-0.7-3.1-2.5-5.7-5.2-7.4
		c-1.9-1.2-4-1.8-6.3-1.8c-1,0-2,0.1-3,0.4c-4.9-8-16.6-20-25.3-26.4c3.5-1.2,5.8-2.8,8.1-4.2C195.9,144.4,198.2,142.9,202.5,142.2
		 M209.9,90.6c0.7-1.2,2-1.9,3.4-1.9c0.8,0,1.5,0.2,2.2,0.6c0.9,0.6,1.6,1.5,1.8,2.5c0.2,1,0,2.1-0.5,3c-1.1,1.8-3.7,2.4-5.6,1.3
		l-0.2-0.1C209.2,94.8,208.8,92.4,209.9,90.6 M209.9,135.6c0.7-1.2,2-1.9,3.4-1.9c0.8,0,1.5,0.2,2.2,0.6c0.9,0.6,1.6,1.5,1.8,2.5
		c0.2,1,0,2.1-0.5,3c-1.1,1.8-3.7,2.4-5.6,1.3L211,141C209.2,139.8,208.8,137.4,209.9,135.6 M209.9,186c0.7-1.2,2-1.9,3.4-1.9
		c0.8,0,1.5,0.2,2.2,0.6c0.9,0.6,1.6,1.5,1.8,2.5c0.2,1,0,2.1-0.5,3c-1.1,1.8-3.7,2.4-5.6,1.3l-0.2-0.1
		C209.2,190.2,208.8,187.8,209.9,186"/>
	<path class="st5" d="M190.1,203.4c-2.2-2.6-5.5-4.1-8.9-4.1c-2.8,0-5.5,1-7.6,2.8c-3.1,2.7-4.5,6.6-4,10.3
		c-3.7,1.3-8.2,2.6-10.2,2.6c-1.6-0.1-2.5-0.7-4.3-1.9c-2.2-1.5-4.6-2.9-8-3.5c5.6-5.3,11.5-13.1,16.5-24.6c4-0.1,7.6-2.3,9.7-5.7
		c3.3-5.6,1.5-12.8-4.1-16.1c-1.8-1.1-3.9-1.7-6-1.7c-4.1,0-8,2.2-10.1,5.7c-1.6,2.7-2.1,5.8-1.3,8.9c0.7,2.7,2.2,5,4.4,6.6
		c-7.8,17.7-17.7,25.1-24.1,28.1c-0.2,0.1-0.5,0.2-0.7,0.3c-2.3,1-3.9,1.4-4.9,1.5v7.7c0.5-0.1,3.6-0.2,8.1-2.3
		c10.2-2.6,13.1-0.7,16.1,1.4c2,1.3,4.4,3,8.2,3.2c0.2,0,0.4,0,0.6,0c4,0,9.9-2,13.5-3.3c2.2,2.1,5.1,3.4,8.2,3.4
		c2.8,0,5.5-1,7.6-2.8c2.4-2,3.8-4.9,4.1-8C193.1,208.8,192.1,205.7,190.1,203.4 M159.7,171.2c0.7-1.2,2-2,3.5-2
		c0.7,0,1.4,0.2,2.1,0.6c1.9,1.1,2.6,3.6,1.4,5.6c-0.7,1.2-2,2-3.5,2c-0.7,0-1.4-0.2-2.1-0.6c-0.9-0.6-1.6-1.4-1.8-2.5
		C158.9,173.2,159.1,172.2,159.7,171.2 M183.8,214.1c-0.9,0.8-2,1-2.6,1c-1.2,0-2.3-0.5-3.1-1.4c-1.5-1.7-1.3-4.3,0.4-5.7
		c0.9-0.8,2-1,2.6-1c1.2,0,2.3,0.5,3.1,1.4c0.7,0.8,1,1.9,1,3C185.1,212.4,184.6,213.4,183.8,214.1"/>
	<path class="st5" d="M143.7,82.8c0.1,0,0.3,0.1,0.4,0.1C144,82.9,143.9,82.9,143.7,82.8"/>
	<path class="st5" d="M185.8,57.9c-0.7-3.1-2.5-5.7-5.2-7.4c-1.9-1.2-4-1.8-6.3-1.8c-4.1,0-7.8,2-9.9,5.5c-2.6,4.1-2.3,9.2,0.3,13
		c-7,7.9-16.7,8.3-19.1,8.2c-7.1-3.1-13.9-4.1-19.2-4.4v7.7c4.7,0.3,10.6,1.3,16.8,4.1c0,0,0,0,0,0c6.6,3,12.1,7.5,16.5,13.5
		c-0.3,0.3-0.5,0.7-0.7,1c-3.4,5.5-1.8,12.7,3.6,16.2c1.9,1.2,4,1.8,6.3,1.8c4.1,0,7.8-2,9.9-5.5c3.5-5.5,1.8-12.7-3.7-16.2
		c-2.7-1.7-5.9-2.1-8.9-1.4c-2.9-4.1-6.4-7.7-10.2-10.7c4.8-1.5,10.4-4.3,14.9-9.8c1.1,0.3,2.2,0.5,3.4,0.5c4.1,0,7.8-2,9.9-5.5
		C185.9,64.1,186.5,61,185.8,57.9 M165.5,101.3c0.3-0.5,0.8-0.9,1.3-1.3c0.6-0.4,1.4-0.6,2.1-0.6c0.8,0,1.5,0.2,2.2,0.6
		c1.9,1.2,2.5,3.7,1.3,5.6c-0.7,1.2-2,1.9-3.4,1.9c-0.8,0-1.5-0.2-2.2-0.6C164.9,105.7,164.4,103.2,165.5,101.3 M177.8,62.6
		c-1.2,1.8-3.7,2.4-5.6,1.3l-0.2-0.1c-1.8-1.2-2.2-3.6-1.1-5.5c0.7-1.2,2-1.9,3.4-1.9c0.8,0,1.5,0.2,2.2,0.6
		c0.9,0.6,1.6,1.5,1.8,2.5C178.5,60.6,178.4,61.7,177.8,62.6"/>
	<path class="st5" d="M202.5,136.5c0.8,2,2.2,3.8,4,5.1c0.1,0.1,0.3,0.2,0.5,0.4c1.9,1.2,4,1.8,6.3,1.8c4.1,0,7.8-2,9.9-5.5
		c1.7-2.6,2.2-5.8,1.5-8.8c-0.7-3.1-2.5-5.7-5.2-7.4c-1.9-1.2-4-1.8-6.3-1.8c-0.2,0-0.5,0-0.7,0c-1.4-6.1-1.8-14.9,0.1-21.6
		c0.2,0,0.4,0,0.6,0c4.1,0,7.8-2,9.9-5.5c1.7-2.6,2.2-5.8,1.5-8.8c-0.7-3.1-2.5-5.7-5.2-7.4c-1.9-1.2-4-1.8-6.3-1.8
		c-4.1,0-7.8,2-9.9,5.5c-3.1,4.9-2.1,11.1,2,14.9c0,0,0.1,0.1,0.1,0.1c-2.6,8.7-2.2,19.8-0.1,27.6c-0.3,0.3-0.6,0.5-0.8,0.8
		c-0.4,0.5-0.9,1-1.2,1.6c-0.6,1-1.1,2-1.4,3c-6.5,0.9-10,3.2-13.1,5.2c-3.9,2.5-7.6,4.9-18.5,5.1c-3.8-0.4-6.8-0.3-10.1-0.2
		c-2.7,0.1-5.6,0.2-9.3,0c-2.6-0.1-4-1.7-6.6-4.6c-3.5-3.9-8.1-8.9-18-9.6v7.7c6.3,0.6,9.2,3.6,12.2,7c2.8,3.2,6.1,6.9,12,7.3
		c4.1,0.2,7.2,0.1,10,0c4.8-0.2,8.5-0.3,15.1,1.3c5,1.2,23.2,18.5,28.3,27.4c-0.2,0.3-0.4,0.5-0.6,0.8c-3.3,5.3-2,12.2,3.1,15.8
		c0.1,0.1,0.3,0.2,0.5,0.4c1.9,1.2,4,1.8,6.3,1.8c4.1,0,7.8-2,9.9-5.5c1.7-2.6,2.2-5.8,1.5-8.8c-0.7-3.1-2.5-5.7-5.2-7.4
		c-1.9-1.2-4-1.8-6.3-1.8c-1,0-2,0.1-3,0.4c-4.9-8-16.6-20-25.3-26.4c3.5-1.2,5.8-2.8,8.1-4.2C195.9,138.6,198.2,137.2,202.5,136.5
		 M209.9,84.8c0.7-1.2,2-1.9,3.4-1.9c0.8,0,1.5,0.2,2.2,0.6c0.9,0.6,1.6,1.5,1.8,2.5c0.2,1,0,2.1-0.5,3c-1.1,1.8-3.7,2.4-5.6,1.3
		l-0.2-0.1C209.2,89.1,208.8,86.7,209.9,84.8 M209.9,129.8c0.7-1.2,2-1.9,3.4-1.9c0.8,0,1.5,0.2,2.2,0.6c0.9,0.6,1.6,1.5,1.8,2.5
		c0.2,1,0,2.1-0.5,3c-1.1,1.8-3.7,2.4-5.6,1.3l-0.2-0.1C209.2,134,208.8,131.6,209.9,129.8 M209.9,180.2c0.7-1.2,2-1.9,3.4-1.9
		c0.8,0,1.5,0.2,2.2,0.6c0.9,0.6,1.6,1.5,1.8,2.5c0.2,1,0,2.1-0.5,3c-1.1,1.8-3.7,2.4-5.6,1.3l-0.2-0.1
		C209.2,184.4,208.8,182.1,209.9,180.2"/>
	<g>
		<g class="st6">
			<path d="M84.4,185.6c-0.5,0-0.9-0.1-1.4-0.4c-1.1-0.8-1.3-2.2-0.6-3.3c0.5-0.8,1-1.6,1.4-2.4c2.8-5.7,2.4-12.2-1-17.6
				c-0.7-1.1-0.4-2.6,0.7-3.3c1.1-0.7,2.6-0.4,3.3,0.7c4.3,6.6,4.7,15.2,1.2,22.2c-0.5,1.1-1.1,2.1-1.8,3
				C85.9,185.2,85.2,185.6,84.4,185.6"/>
			<path d="M95.3,191.2c-0.5,0-1-0.1-1.4-0.5c-1.1-0.8-1.3-2.3-0.5-3.3c0.9-1.2,1.7-2.5,2.3-3.9c4.4-8.8,3.4-19.2-2.5-27.1
				c-0.8-1-0.6-2.5,0.5-3.3c1-0.8,2.5-0.6,3.3,0.5c7,9.3,8.1,21.6,2.9,32.1c-0.8,1.6-1.7,3.1-2.8,4.6
				C96.8,190.9,96,191.2,95.3,191.2"/>
			<path d="M73.8,179.6c-0.4,0-0.8-0.1-1.2-0.3c-1.1-0.6-1.5-2.1-0.9-3.2c1.5-2.6,1.6-5.8,0.4-8.6c-0.5-1.2,0-2.6,1.2-3.1
				c1.2-0.5,2.6,0,3.1,1.2c1.9,4.1,1.7,8.9-0.5,12.9C75.4,179.2,74.6,179.6,73.8,179.6"/>
		</g>
		<g>
			<path class="st0" d="M84.4,181.6c-0.5,0-0.9-0.1-1.4-0.4c-1.1-0.8-1.3-2.2-0.6-3.3c0.5-0.8,1-1.6,1.4-2.4
				c2.8-5.7,2.4-12.2-1-17.6c-0.7-1.1-0.4-2.6,0.7-3.3c1.1-0.7,2.6-0.4,3.3,0.7c4.3,6.6,4.7,15.2,1.2,22.2c-0.5,1.1-1.1,2.1-1.8,3
				C85.9,181.3,85.2,181.6,84.4,181.6"/>
			<path class="st0" d="M95.3,187.3c-0.5,0-1-0.1-1.4-0.5c-1.1-0.8-1.3-2.3-0.5-3.3c0.9-1.2,1.7-2.5,2.3-3.9
				c4.4-8.8,3.4-19.2-2.5-27.1c-0.8-1-0.6-2.5,0.5-3.3c1-0.8,2.5-0.6,3.3,0.5c7,9.3,8.1,21.6,2.9,32.1c-0.8,1.6-1.7,3.1-2.8,4.6
				C96.8,186.9,96,187.3,95.3,187.3"/>
			<path class="st0" d="M73.8,175.7c-0.4,0-0.8-0.1-1.2-0.3c-1.1-0.6-1.5-2.1-0.9-3.2c1.5-2.6,1.6-5.8,0.4-8.6
				c-0.5-1.2,0-2.6,1.2-3.1c1.2-0.5,2.6,0,3.1,1.2c1.9,4.1,1.7,8.9-0.5,12.9C75.4,175.2,74.6,175.7,73.8,175.7"/>
		</g>
	</g>
	<g>
		<g class="st6">
			<path d="M108.5,73.3c-19.8,0-39.9,7.2-52.4,18.7c-13.5,12.5-20.6,31.8-20.3,54.9c-3.8,0.6-6.7,3.8-6.7,7.7v35.5
				c0,4.3,3.5,7.8,7.8,7.8h4c0.6,0,1.2-0.1,1.8-0.2v3.1c0,4.3,3.1,7.8,6.8,7.8h3.7c3.8,0,6.8-3.5,6.8-7.8v-58.1
				c0-4.3-3.1-7.8-6.8-7.8h-3.7c-3.4,0-6.1,2.8-6.7,6.4c0.1-3.6,0.4-7.2,0.9-10c2.3-14.2,8.1-26,17-34.3
				c11.1-10.3,29.8-16.9,47.7-16.9c2,0,6.4,0.1,8.4,0.3v-6.8C114.6,73.3,110.7,73.3,108.5,73.3z M41,189.3c-2.9,0-5.2-2.3-5.2-5.2
				v-23.5c0-2.9,2.3-5.2,5.2-5.2h1.8v33.9H41z"/>
		</g>
		<g>
			<path class="st5" d="M108.5,69.3c-19.8,0-39.9,7.2-52.4,18.7c-13.5,12.5-20.6,31.8-20.3,54.9c-3.8,0.6-6.7,3.8-6.7,7.7v35.5
				c0,4.3,3.5,7.8,7.8,7.8h4c0.6,0,1.2-0.1,1.8-0.2v3.1c0,4.3,3.1,7.8,6.8,7.8h3.7c3.8,0,6.8-3.5,6.8-7.8v-58.1
				c0-4.3-3.1-7.8-6.8-7.8h-3.7c-3.4,0-6.1,2.8-6.7,6.4c0.1-3.6,0.4-7.2,0.9-10c2.3-14.2,8.1-26,17-34.3
				c11.1-10.3,29.8-16.9,47.7-16.9c2,0,6.4,0.1,8.4,0.3v-6.8C114.6,69.4,110.7,69.3,108.5,69.3z M41,185.3c-2.9,0-5.2-2.3-5.2-5.2
				v-23.5c0-2.9,2.3-5.2,5.2-5.2h1.8v33.9H41z"/>
		</g>
	</g>
</g>
</svg>
