<svg xmlns="http://www.w3.org/2000/svg" xmlns:xlink="http://www.w3.org/1999/xlink" viewBox="69 0 246 278"><defs><style>.cls-1,.cls-10,.cls-9{fill:none;}.cls-2{fill:#eb743b;}.cls-3{fill:#b50437;}.cls-4{clip-path:url(#clip-path);}.cls-11,.cls-5,.cls-7{fill:#8e0324;}.cls-11,.cls-5,.cls-9{stroke:#8e0324;}.cls-10,.cls-11,.cls-12,.cls-5,.cls-6,.cls-9{stroke-width:2.9px;}.cls-12,.cls-6,.cls-8{fill:#fffedb;}.cls-10,.cls-12,.cls-6{stroke:#fffedb;}.cls-11,.cls-12{stroke-linecap:square;stroke-linejoin:round;}.cls-13{opacity:0.07;}.cls-14{fill:#d3562c;}</style><clipPath id="clip-path"><polygon class="cls-1" points="79.2 73.16 187.31 10.98 187.31 266.78 79.2 204.84 79.2 73.16"/></clipPath></defs><title>MessyBrainz</title><g id="Layer_2" data-name="Layer 2"><g id="Layer_1-2" data-name="Layer 1"><g id="g6522"><g id="g6524"><g id="g6526"><polygon id="polygon6528" class="cls-2" points="196.96 278 314.73 210.43 314.73 67.57 196.96 0 196.96 278"/><polygon id="polygon6530" class="cls-3" points="69.55 67.57 69.55 210.43 187.31 278 187.31 0 69.55 67.57"/><g id="g6532"><g class="cls-4"><g id="g6540"><g id="section"><g id="g6543"><polyline id="background" class="cls-5" points="67.79 82.11 66.01 83.46 64.43 85.05 63.07 86.82 61.97 88.77 61.13 90.85 60.59 93.02 60.34 95.24 60.4 97.48 60.75 99.69 61.4 101.83 62.33 103.86 63.53 105.75 64.97 107.46 66.63 108.97 68.47 110.23 70.47 111.24 72.59 111.96 74.78 112.4 77.02 112.53 79.25 112.37 81.44 111.9 83.54 111.15 85.53 110.11 87.35 108.82 88.99 107.3 90.41 105.57 91.58 103.66 92.48 101.61 93.08 98.41 93.77 95.92 98.75 97.3 98.06 99.79 97.47 102.99 96.33 105.7 94.84 108.22 93.03 110.53 90.92 112.57 88.55 114.31 85.98 115.71 83.23 116.75 80.38 117.41 77.45 117.69 74.52 117.56 71.64 117.05 68.84 116.14 66.2 114.87 63.75 113.26 61.54 111.33 59.61 109.12 57.99 106.67 56.72 104.03 55.82 101.24 55.3 98.35 55.17 95.42 55.44 92.5 56.1 89.64 57.15 86.9 58.55 84.32 60.28 81.95 62.32 79.84 64.62 78.03"/></g><g id="g6546"><g id="g6548"><polyline id="background-2" data-name="background" class="cls-6" points="67.79 76.32 66.01 77.67 64.43 79.25 63.07 81.03 61.97 82.98 61.13 85.05 60.59 87.22 60.34 89.45 60.4 91.69 60.75 93.89 61.4 96.03 62.33 98.07 63.53 99.96 64.97 101.67 66.63 103.17 68.47 104.44 70.47 105.44 72.59 106.17 74.78 106.61 77.02 106.74 79.25 106.58 81.44 106.11 83.54 105.35 85.53 104.32 87.35 103.03 88.99 101.51 90.41 99.78 91.58 97.87 92.48 95.82 93.08 92.62 93.77 90.13 98.75 91.51 98.06 94 97.47 97.2 96.33 99.91 94.84 102.43 93.03 104.74 90.92 106.78 88.55 108.52 85.98 109.92 83.23 110.96 80.38 111.62 77.45 111.89 74.52 111.77 71.64 111.25 68.84 110.35 66.2 109.08 63.75 107.47 61.54 105.54 59.61 103.33 57.99 100.88 56.72 98.24 55.82 95.45 55.3 92.56 55.17 89.63 55.44 86.71 56.1 83.85 57.15 81.11 58.55 78.53 60.28 76.16 62.32 74.05 64.62 72.23"/></g></g></g><g id="section-2" data-name="section"><g id="g6552"><polyline id="background-3" data-name="background" class="cls-5" points="93.08 106.68 95.06 104.51 96.72 102.1 98.04 99.48 98.99 96.7 99.57 93.83 99.75 90.9 99.53 87.97 98.93 85.1 97.94 82.34 96.59 79.73 94.9 77.34 92.9 75.19 90.63 73.33 88.13 71.79 85.45 70.6 82.63 69.79 79.73 69.36 43.54 68.65 40.95 68.6 40.85 73.77 43.44 73.82 79.63 74.53 81.83 74.9 83.97 75.56 86 76.5 87.89 77.71 89.59 79.16 91.08 80.83 92.33 82.68 93.33 84.68 94.04 86.8 94.47 89 94.59 91.23 94.41 93.46 93.93 95.65 93.16 97.75 92.12 99.73 90.82 101.55 89.28 103.18"/></g><g id="g6555"><g id="g6557"><polyline id="background-4" data-name="background" class="cls-6" points="93.08 100.89 95.06 98.72 96.72 96.3 98.04 93.68 98.99 90.91 99.57 88.03 99.75 85.11 99.53 82.18 98.93 79.31 97.94 76.55 96.59 73.94 94.9 71.54 92.9 69.4 90.63 67.53 88.13 66 85.45 64.81 82.63 63.99 79.73 63.56 43.54 62.86 40.95 62.81 40.85 67.98 43.44 68.03 79.63 68.73 81.83 69.1 83.97 69.76 86 70.71 87.89 71.92 89.59 73.37 91.08 75.03 92.33 76.89 93.33 78.89 94.04 81.01 94.47 83.21 94.59 85.44 94.41 87.67 93.93 89.86 93.16 91.96 92.12 93.94 90.82 95.76 89.28 97.39"/></g></g></g><g id="g6560"><g id="g6562"><g id="g6564"><polyline id="background-5" data-name="background" class="cls-7" points="149.4 144.74 149.8 144.44 150.22 144.15 150.66 143.85 151.14 143.56 153.54 142.18 154.11 141.88 154.71 141.58 155.35 141.3 156.06 141.02 156.62 140.82 157.02 140.68 157.21 140.62 157.41 140.56 157.62 140.5 157.84 140.44 158.07 140.38 158.3 140.31 158.55 140.25 162.33 139.4 162.66 139.33 163.01 139.27 163.37 139.21 163.75 139.15 164.14 139.1 164.55 139.06 164.98 139.02 165.43 139 165.9 138.99 195.76 138.97 196.97 138.97 196.96 131.28 195.76 131.28 165.9 131.29 165.23 131.31 164.58 131.34 163.97 131.39 163.38 131.45 162.81 131.52 162.27 131.59 161.75 131.68 161.25 131.77 160.77 131.87 156.86 132.75 156.5 132.84 156.16 132.93 155.84 133.01 155.52 133.1 155.23 133.19 154.94 133.28 154.67 133.36 154.19 133.52 153.47 133.78 152.54 134.14 151.63 134.53 150.77 134.95 149.95 135.38 147.31 136.89 146.63 137.31 145.99 137.73 145.39 138.15 144.82 138.57"/></g><g id="g6567"><g id="g6569"><polyline id="background-6" data-name="background" class="cls-8" points="149.4 138.95 149.8 138.65 150.22 138.36 150.66 138.06 151.14 137.77 153.54 136.38 154.11 136.08 154.71 135.79 155.35 135.51 156.06 135.23 156.62 135.03 157.02 134.89 157.21 134.83 157.41 134.77 157.62 134.71 157.84 134.65 158.07 134.58 158.3 134.52 158.55 134.46 162.33 133.61 162.66 133.54 163.01 133.47 163.37 133.41 163.75 133.36 164.14 133.31 164.55 133.27 164.98 133.23 165.43 133.21 165.9 133.19 195.76 133.18 196.97 133.18 196.96 125.49 195.76 125.49 165.9 125.5 165.23 125.52 164.58 125.55 163.97 125.6 163.38 125.66 162.81 125.72 162.27 125.8 161.75 125.89 161.25 125.98 160.77 126.08 156.86 126.96 156.5 127.05 156.16 127.13 155.84 127.22 155.52 127.31 155.23 127.39 154.94 127.48 154.67 127.57 154.19 127.73 153.47 127.99 152.54 128.35 151.63 128.74 150.77 129.16 149.95 129.59 147.31 131.1 146.63 131.51 145.99 131.93 145.39 132.35 144.82 132.77"/></g></g></g><g id="g6572"><g id="g6574"><polyline id="background-7" data-name="background" class="cls-7" points="143.48 151.33 143.56 151.2 143.63 151.06 143.71 150.91 143.8 150.76 143.89 150.61 143.98 150.45 144.09 150.28 144.19 150.11 144.31 149.93 144.43 149.75 144.56 149.56 144.69 149.36 144.84 149.16 144.99 148.95 145.16 148.74 145.33 148.52 145.51 148.29 145.71 148.06 145.91 147.82 146.13 147.58 146.37 147.32 146.62 147.07 146.88 146.81 147.16 146.54 147.46 146.27 147.78 145.99 148.11 145.72 148.47 145.44 148.93 145.09 149.4 144.74 144.82 138.57 144.35 138.92 143.88 139.26 143.37 139.66 142.88 140.06 142.43 140.45 142 140.84 141.6 141.22 141.22 141.59 140.86 141.96 140.52 142.32 140.21 142.67 139.91 143.01 139.63 143.34 139.36 143.66 139.12 143.98 138.88 144.29 138.66 144.58 138.45 144.87 138.25 145.15 138.07 145.42 137.9 145.69 137.73 145.94 137.58 146.19 137.43 146.42 137.29 146.65 137.16 146.88 137.04 147.09 136.92 147.3 136.81 147.5 136.71 147.69"/></g><g id="g6577"><g id="g6579"><polyline id="background-8" data-name="background" class="cls-8" points="143.48 145.54 143.56 145.41 143.63 145.26 143.71 145.12 143.8 144.97 143.89 144.81 143.98 144.66 144.09 144.49 144.19 144.32 144.31 144.14 144.43 143.96 144.56 143.77 144.69 143.57 144.84 143.37 144.99 143.16 145.16 142.95 145.33 142.73 145.51 142.5 145.71 142.27 145.91 142.03 146.13 141.78 146.37 141.53 146.62 141.28 146.88 141.01 147.16 140.75 147.46 140.48 147.78 140.2 148.11 139.93 148.47 139.64 148.93 139.3 149.4 138.95 144.82 132.77 144.35 133.13 143.88 133.47 143.37 133.87 142.88 134.27 142.43 134.66 142 135.05 141.6 135.43 141.22 135.8 140.86 136.17 140.52 136.53 140.21 136.87 139.91 137.22 139.63 137.55 139.36 137.87 139.12 138.19 138.88 138.49 138.66 138.79 138.45 139.08 138.25 139.36 138.07 139.63 137.9 139.89 137.73 140.15 137.58 140.39 137.43 140.63 137.29 140.86 137.16 141.08 137.04 141.3 136.92 141.51 136.81 141.71 136.71 141.9"/></g></g></g></g><g id="section-3" data-name="section"><g id="g6583"><polyline id="background-9" data-name="background" class="cls-5" points="0.7 97.49 114.24 159.69 116.98 160.73 119.84 161.4 122.76 161.68 125.69 161.56 128.58 161.05 131.38 160.16 134.02 158.89 136.47 157.28 138.69 155.36 140.62 153.15 142.24 150.71 137.6 148.42 136.34 150.26 134.83 151.91 133.11 153.35 131.22 154.54 129.18 155.47 127.04 156.11 124.83 156.46 122.59 156.51 120.37 156.26 118.2 155.71 116.13 154.87 3.21 92.97"/></g><g id="g6586"><g id="g6588"><polyline id="background-10" data-name="background" class="cls-6" points="0.7 91.7 114.24 153.89 116.98 154.94 119.84 155.61 122.76 155.89 125.69 155.77 128.58 155.26 131.38 154.36 134.02 153.1 136.47 151.49 138.69 149.56 140.62 147.36 142.24 144.91 137.6 142.63 136.34 144.47 134.83 146.12 133.11 147.56 131.22 148.75 129.18 149.68 127.04 150.32 124.83 150.67 122.59 150.72 120.37 150.47 118.2 149.92 116.13 149.08 3.21 87.18"/></g></g></g><g id="section-4" data-name="section"><g id="g6592"><path id="background-11" data-name="background" class="cls-5" d="M68.14,187.26,70,197.79l.9,2.79,1.27,2.64,1.61,2.45,1.93,2.21,2.21,1.93,2.45,1.62L83,212.7l2.79.9,2.89.52,2.93.13,2.92-.27,2.86-.66,2.74-1,2.58-1.4c8.49-4.19,4.88-8.65,16.88-8.59l-.31-5.6c-10.25-1.46-13.73,7.1-19.59,10l-2,1-2.11.75-2.19.46-2.23.17L88.91,209l-2.2-.44-2.12-.73-2-1-1.84-1.27L79.11,204l-1.44-1.71-1.2-1.89-.93-2-.65-2.14-7.59-23.46"/></g><g id="g6595"><g id="g6597"><path id="background-12" data-name="background" class="cls-6" d="M68.14,181.46,70,192l.9,2.79,1.27,2.64,1.61,2.45,1.93,2.21L77.88,204l2.45,1.62L83,206.91l2.79.9,2.89.52,2.93.13,2.92-.27,2.86-.66,2.74-1,2.58-1.4c8.49-4.19,4.88-8.65,16.88-8.59l-.31-5.6c-10.25-1.46-13.73,7.1-19.59,10l-2,1-2.11.75-2.19.46-2.23.17-2.23-.14-2.2-.44L84.6,202l-2-1-1.84-1.27-1.66-1.5-1.44-1.71-1.2-1.89-.93-2-.65-2.14L67.31,167"/></g></g></g><g id="section-5" data-name="section"><g id="g6601"><polyline id="background-13" data-name="background" class="cls-5" points="119.25 196.69 122 197.73 124.58 199.13 126.94 200.86 129.05 202.9 130.87 205.2 132.36 207.73 133.5 210.43 134.26 213.27 134.63 216.18 134.61 219.11 134.19 222.01 133.39 224.84 132.21 227.52 130.68 230.03 128.83 232.3 126.69 234.31 124.3 236.01 121.7 237.37 118.94 238.37 116.07 238.99 113.15 239.22 77.34 237.41 75.11 237.58 72.92 238.04 70.82 238.8 68.83 239.83 67.01 241.12 53.63 253.83 51.24 255.52 48.64 256.89 45.88 257.89 43.02 258.5 40.09 258.73 37.16 258.56 34.28 258 31.5 257.05 28.88 255.75 26.45 254.09 24.27 252.13 22.38 249.89 20.8 247.41 19.57 244.75 18.71 241.95 23.81 241.07 24.5 243.2 25.48 245.21 26.72 247.07 28.19 248.76 29.88 250.22 31.76 251.45 33.78 252.41 35.91 253.09 38.11 253.48 40.34 253.57 42.57 253.35 44.75 252.84 46.84 252.04 48.8 250.97 50.6 249.63 63.44 237.38 65.81 235.64 68.38 234.24 71.13 233.2 73.98 232.53 76.9 232.26 113.41 234.05 115.63 233.84 117.81 233.32 119.9 232.52 121.86 231.45 123.66 230.12 125.27 228.56 126.64 226.8 127.77 224.87 128.63 222.8 129.21 220.64 129.49 218.42 129.46 216.18 129.13 213.97 128.51 211.82 127.61 209.77 126.44 207.87 125.02 206.13 123.38 204.61 121.55 203.32 119.57 202.29 117.46 201.53"/></g><g id="g6604"><g id="g6606"><polyline id="background-14" data-name="background" class="cls-6" points="119.25 190.89 122 191.93 124.58 193.34 126.94 195.07 129.05 197.11 130.87 199.41 132.36 201.94 133.5 204.64 134.26 207.47 134.63 210.38 134.61 213.32 134.19 216.22 133.39 219.04 132.21 221.73 130.68 224.24 128.83 226.51 126.69 228.52 124.3 230.22 121.7 231.58 118.94 232.58 116.07 233.2 113.15 233.42 77.34 231.62 75.11 231.78 72.92 232.25 70.82 233.01 68.83 234.04 67.01 235.33 53.63 248.03 51.24 249.73 48.64 251.1 45.88 252.09 43.02 252.71 40.09 252.94 37.16 252.77 34.28 252.21 31.5 251.26 28.88 249.95 26.45 248.3 24.27 246.34 22.38 244.1 20.8 241.62 19.57 238.96 18.71 236.15 23.81 235.28 24.5 237.41 25.48 239.42 26.72 241.28 28.19 242.96 29.88 244.43 31.76 245.66 33.78 246.62 35.91 247.3 38.11 247.69 40.34 247.78 42.57 247.56 44.75 247.05 46.84 246.25 48.8 245.17 50.6 243.84 63.44 231.59 65.81 229.85 68.38 228.45 71.13 227.4 73.98 226.74 76.9 226.47 113.41 228.26 115.63 228.04 117.81 227.53 119.9 226.73 121.86 225.66 123.66 224.33 125.27 222.77 126.64 221.01 127.77 219.07 128.63 217.01 129.21 214.85 129.49 212.63 129.46 210.39 129.13 208.17 128.51 206.03 127.61 203.98 126.44 202.07 125.02 200.34 123.38 198.82 121.55 197.53 119.57 196.5 117.46 195.74"/></g></g></g><g id="section-6" data-name="section"><g id="g6610"><polyline id="background-15" data-name="background" class="cls-5" points="52.4 181.3 86.92 162.88 89.29 161.14 91.4 159.1 93.22 156.8 94.71 154.27 95.84 151.57 96.61 148.74 96.98 145.82 96.96 142.89 96.54 139.99 95.74 137.17 94.56 134.48 93.03 131.97 91.18 129.7 89.04 127.69 68.35 112.77 66.72 111.25 62.68 114.48 64.79 116.52 86.01 131.88 87.61 133.44 89 135.21 90.13 137.14 90.98 139.2 91.56 141.37 91.83 143.59 91.81 145.82 91.48 148.04 90.86 150.19 89.96 152.23 88.78 154.14 87.37 155.87 85.73 157.39 83.9 158.68 49.97 176.74"/></g><g id="g6613"><g id="g6615"><polyline id="background-16" data-name="background" class="cls-6" points="52.4 175.5 86.92 157.08 89.29 155.35 91.4 153.31 93.22 151.01 94.71 148.48 95.84 145.78 96.61 142.94 96.98 140.03 96.96 137.1 96.54 134.2 95.74 131.37 94.56 128.69 93.03 126.18 91.18 123.91 89.04 121.9 68.35 106.98 66.72 105.46 62.68 108.69 64.79 110.73 86.01 126.09 87.61 127.65 89 129.41 90.13 131.34 90.98 133.41 91.56 135.57 91.83 137.79 91.81 140.03 91.48 142.25 90.86 144.39 89.96 146.44 88.78 148.35 87.37 150.08 85.73 151.6 83.9 152.89 49.97 170.94"/></g></g></g><g id="section-7" data-name="section"><g id="g6619"><polyline id="background-17" data-name="background" class="cls-5" points="152.28 264.07 136.75 228.16 135.21 225.66 133.35 223.39 131.2 221.39 128.81 219.69 126.2 218.34 123.44 217.35 120.57 216.74 117.65 216.52 114.72 216.7 111.84 217.27 109.07 218.23 106.45 219.54 104.03 221.2 101.85 223.17 85.29 242.57 83.64 244.08 86.53 248.37 88.73 246.43 105.78 226.53 107.47 225.06 109.34 223.83 111.35 222.86 113.48 222.18 115.69 221.78 117.92 221.69 120.15 221.89 122.33 222.4 124.42 223.19 126.38 224.26 128.19 225.59 129.8 227.14 131.18 228.9 132.32 230.83 147.53 266.12"/></g><g id="g6622"><g id="g6624"><polyline id="background-18" data-name="background" class="cls-6" points="152.28 258.28 136.75 222.37 135.21 219.87 133.35 217.59 131.2 215.6 128.81 213.9 126.2 212.55 123.44 211.56 120.57 210.95 117.65 210.73 114.72 210.91 111.84 211.48 109.07 212.43 106.45 213.75 104.03 215.41 101.85 217.38 85.29 236.78 83.64 238.29 86.53 242.57 88.73 240.64 105.78 220.74 107.47 219.27 109.34 218.04 111.35 217.07 113.48 216.38 115.69 215.99 117.92 215.9 120.15 216.1 122.33 216.61 124.42 217.4 126.38 218.47 128.19 219.8 129.8 221.35 131.18 223.11 132.32 225.04 147.53 260.33"/></g></g></g><g id="section-8" data-name="section"><g id="g6628"><polyline id="background-19" data-name="background" class="cls-5" points="38.32 157.45 40.53 157.09 42.77 157.04 44.99 157.28 132.2 180.12 134.28 180.95 136.22 182.05 138 183.41 139.58 184.99 140.94 186.77 142.03 188.72 142.86 190.8 157.18 250.82 157.42 253.04 157.37 255.28 157.01 257.49 156.35 259.63 155.42 261.66 154.22 263.55 152.78 265.26 151.12 266.76 149.27 268.02 147.26 269.02 145.15 269.75 142.95 270.18 140.72 270.31 138.49 270.14 136.3 269.67 134.2 268.91 132.21 267.87 130.39 266.58 126.82 270.32 129.18 272.06 131.75 273.47 134.5 274.51 137.35 275.18 140.27 275.46 143.2 275.34 146.09 274.83 148.88 273.93 151.53 272.67 153.99 271.06 156.2 269.13 158.13 266.93 159.75 264.48 161.03 261.84 161.94 259.05 162.46 256.16 162.59 253.23 162.33 250.31 147.9 189.6 146.86 186.85 145.46 184.28 143.73 181.91 141.7 179.79 139.4 177.97 136.87 176.48 134.17 175.34 46.3 152.28 43.39 151.9 40.46 151.92 37.56 152.33"/></g><g id="g6631"><g id="g6633"><polyline id="background-20" data-name="background" class="cls-6" points="38.32 151.66 40.53 151.3 42.77 151.25 44.99 151.49 132.2 174.32 134.28 175.16 136.22 176.26 138 177.62 139.58 179.2 140.94 180.98 142.03 182.93 142.86 185.01 157.18 245.03 157.42 247.25 157.37 249.49 157.01 251.7 156.35 253.84 155.42 255.87 154.22 257.76 152.78 259.47 151.12 260.96 149.27 262.23 147.26 263.23 145.15 263.95 142.95 264.38 140.72 264.51 138.49 264.35 136.3 263.88 134.2 263.12 132.21 262.08 130.39 260.79 126.82 264.53 129.18 266.27 131.75 267.68 134.5 268.72 137.35 269.39 140.27 269.67 143.2 269.55 146.09 269.04 148.88 268.14 151.53 266.88 153.99 265.27 156.2 263.34 158.13 261.13 159.75 258.69 161.03 256.05 161.94 253.26 162.46 250.37 162.59 247.44 162.33 244.52 147.9 183.81 146.86 181.06 145.46 178.48 143.73 176.12 141.7 174 139.4 172.18 136.87 170.68 134.17 169.54 46.3 146.49 43.39 146.11 40.46 146.13 37.56 146.54"/></g></g></g><g id="background-21" data-name="background"><g id="g6637"><polygon id="polygon6639" class="cls-7" points="125.17 144.4 123.37 145.73 121.4 146.79 119.31 147.59 117.13 148.09 117.55 153.25 120.42 152.64 123.19 151.65 125.79 150.3 128.19 148.61 130.34 146.61 132.19 144.34 133.73 141.84 134.92 139.16 135.73 136.34 136.16 133.43 136.19 130.5 135.83 127.59 135.08 124.75 133.95 122.05 132.47 119.51 130.66 117.2 128.56 115.16 126.2 113.41 123.62 112 120.88 110.96 95.33 105.14 93.18 104.52 91.13 103.63 89.23 102.46 87.49 101.04 85.97 99.41 84.67 97.58 83.64 95.6 82.88 93.49 82.41 91.31 82.24 89.07 82.37 86.84 82.8 84.64 83.53 82.53 84.53 80.53 85.79 78.68 87.29 77.02 89 75.58 90.89 74.38 92.92 73.44 95.06 72.79 97.27 72.43 99.51 72.38 101.73 72.62 103.9 73.16 105.98 73.99 107.93 75.09 109.71 76.44 111.29 78.03 112.65 79.81 117.17 77.3 115.44 74.94 113.4 72.82 111.1 71.01 108.57 69.51 105.87 68.38 103.03 67.61 100.13 67.24 97.19 67.26 94.29 67.68 91.47 68.48 88.78 69.66 86.27 71.18 84 73.03 81.99 75.17 80.29 77.57 78.93 80.16 77.93 82.92 77.31 85.79 77.08 88.72 77.25 91.64 77.81 94.52 78.75 97.3 80.06 99.93 81.72 102.35 83.68 104.53 85.92 106.43 88.39 108 91.05 109.24 93.86 110.1 94.19 110.18 119.07 115.8 121.18 116.56 123.16 117.6 124.98 118.89 126.61 120.42 128.03 122.16 129.19 124.07 130.09 126.12 130.7 128.27 131.02 130.49 131.04 132.72 130.75 134.94 130.17 137.1 129.31 139.17 128.17 141.09 126.78 142.85 125.17 144.4"/><polygon id="polygon6641" class="cls-9" points="125.17 144.4 123.37 145.73 121.4 146.79 119.31 147.59 117.13 148.09 117.55 153.25 120.42 152.64 123.19 151.65 125.79 150.3 128.19 148.61 130.34 146.61 132.19 144.34 133.73 141.84 134.92 139.16 135.73 136.34 136.16 133.43 136.19 130.5 135.83 127.59 135.08 124.75 133.95 122.05 132.47 119.51 130.66 117.2 128.56 115.16 126.2 113.41 123.62 112 120.88 110.96 95.33 105.14 93.18 104.52 91.13 103.63 89.23 102.46 87.49 101.04 85.97 99.41 84.67 97.58 83.64 95.6 82.88 93.49 82.41 91.31 82.24 89.07 82.37 86.84 82.8 84.64 83.53 82.53 84.53 80.53 85.79 78.68 87.29 77.02 89 75.58 90.89 74.38 92.92 73.44 95.06 72.79 97.27 72.43 99.51 72.38 101.73 72.62 103.9 73.16 105.98 73.99 107.93 75.09 109.71 76.44 111.29 78.03 112.65 79.81 117.17 77.3 115.44 74.94 113.4 72.82 111.1 71.01 108.57 69.51 105.87 68.38 103.03 67.61 100.13 67.24 97.19 67.26 94.29 67.68 91.47 68.48 88.78 69.66 86.27 71.18 84 73.03 81.99 75.17 80.29 77.57 78.93 80.16 77.93 82.92 77.31 85.79 77.08 88.72 77.25 91.64 77.81 94.52 78.75 97.3 80.06 99.93 81.72 102.35 83.68 104.53 85.92 106.43 88.39 108 91.05 109.24 93.86 110.1 94.19 110.18 119.07 115.8 121.18 116.56 123.16 117.6 124.98 118.89 126.61 120.42 128.03 122.16 129.19 124.07 130.09 126.12 130.7 128.27 131.02 130.49 131.04 132.72 130.75 134.94 130.17 137.1 129.31 139.17 128.17 141.09 126.78 142.85 125.17 144.4"/></g><g id="g6643"><polygon id="polygon6645" class="cls-8" points="125.17 138.61 123.37 139.93 121.4 141 119.31 141.8 117.13 142.3 117.55 147.45 120.42 146.85 123.19 145.86 125.79 144.5 128.19 142.81 130.34 140.81 132.19 138.55 133.73 136.05 134.92 133.37 135.73 130.55 136.16 127.64 136.19 124.71 135.83 121.8 135.08 118.96 133.95 116.25 132.47 113.72 130.66 111.41 128.56 109.37 126.2 107.62 123.62 106.21 120.88 105.17 95.33 99.35 93.18 98.73 91.13 97.83 89.23 96.67 87.49 95.25 85.97 93.61 84.67 91.79 83.64 89.81 82.88 87.7 82.41 85.51 82.24 83.28 82.37 81.05 82.8 78.85 83.53 76.74 84.53 74.74 85.79 72.89 87.29 71.23 89 69.79 90.89 68.58 92.92 67.65 95.06 67 97.27 66.64 99.51 66.58 101.73 66.83 103.9 67.37 105.98 68.2 107.93 69.3 109.71 70.65 111.29 72.23 112.65 74.01 117.17 71.51 115.44 69.14 113.4 67.03 111.1 65.21 108.57 63.72 105.87 62.59 103.03 61.82 100.13 61.45 97.19 61.47 94.29 61.89 91.47 62.69 88.78 63.87 86.27 65.39 84 67.24 81.99 69.38 80.29 71.77 78.93 74.37 77.93 77.13 77.31 80 77.08 82.92 77.25 85.85 77.81 88.73 78.75 91.51 80.06 94.13 81.72 96.56 83.68 98.74 85.92 100.64 88.39 102.21 91.05 103.44 93.86 104.3 94.19 104.39 119.07 110.01 121.18 110.77 123.16 111.81 124.98 113.1 126.61 114.63 128.03 116.37 129.19 118.28 130.09 120.33 130.7 122.48 131.02 124.69 131.04 126.93 130.75 129.15 130.17 131.31 129.31 133.37 128.17 135.3 126.78 137.06 125.17 138.61"/><polygon id="polygon6647" class="cls-10" points="125.17 138.61 123.37 139.93 121.4 141 119.31 141.8 117.13 142.3 117.55 147.45 120.42 146.85 123.19 145.86 125.79 144.5 128.19 142.81 130.34 140.81 132.19 138.55 133.73 136.05 134.92 133.37 135.73 130.55 136.16 127.64 136.19 124.71 135.83 121.8 135.08 118.96 133.95 116.25 132.47 113.72 130.66 111.41 128.56 109.37 126.2 107.62 123.62 106.21 120.88 105.17 95.33 99.35 93.18 98.73 91.13 97.83 89.23 96.67 87.49 95.25 85.97 93.61 84.67 91.79 83.64 89.81 82.88 87.7 82.41 85.51 82.24 83.28 82.37 81.05 82.8 78.85 83.53 76.74 84.53 74.74 85.79 72.89 87.29 71.23 89 69.79 90.89 68.58 92.92 67.65 95.06 67 97.27 66.64 99.51 66.58 101.73 66.83 103.9 67.37 105.98 68.2 107.93 69.3 109.71 70.65 111.29 72.23 112.65 74.01 117.17 71.51 115.44 69.14 113.4 67.03 111.1 65.21 108.57 63.72 105.87 62.59 103.03 61.82 100.13 61.45 97.19 61.47 94.29 61.89 91.47 62.69 88.78 63.87 86.27 65.39 84 67.24 81.99 69.38 80.29 71.77 78.93 74.37 77.93 77.13 77.31 80 77.08 82.92 77.25 85.85 77.81 88.73 78.75 91.51 80.06 94.13 81.72 96.56 83.68 98.74 85.92 100.64 88.39 102.21 91.05 103.44 93.86 104.3 94.19 104.39 119.07 110.01 121.18 110.77 123.16 111.81 124.98 113.1 126.61 114.63 128.03 116.37 129.19 118.28 130.09 120.33 130.7 122.48 131.02 124.69 131.04 126.93 130.75 129.15 130.17 131.31 129.31 133.37 128.17 135.3 126.78 137.06 125.17 138.61"/></g></g><g id="section-9" data-name="section"><g id="g6650"><path id="background-22" data-name="background" class="cls-5" d="M167.25,75.24l-.82-2.82-1.19-2.68-1.54-2.5L152.8,53.45l-2.15-2-2.4-1.69-2.6-1.35-2.76-1-2.87-.6-2.93-.21-2.93.18-2.88.58-2.77,1-2.62,1.32-2.42,1.66-2.17,2-1.88,2.25-4,6.25L114,63.51,112.35,65l-1.84,1.27-2,1-2.11.74-2.19.44-2.23.14-2.23-.16A14.65,14.65,0,0,1,92.81,63c-3.23-4.44-8.8-5-4.34,2.74s10.18,7.82,10.18,7.82l2.92.26,2.93-.14,2.89-.53,2.79-.91,2.64-1.28,2.44-1.62,2.2-1.94,1.92-2.22,4.4-6.81,1.47-1.69,1.68-1.47,1.86-1.23,2-1,2.13-.69,2.2-.4,2.24-.1,2.23.2,2.18.5,2.09.79,2,1.07,1.81,1.32,1.61,1.55,10.43,13.27,1.14,1.93.87,2.06.58,2.16"/></g><g id="g6653"><g id="g6655"><path id="background-23" data-name="background" class="cls-6" d="M167.25,69.44l-.82-2.82-1.19-2.68-1.54-2.5L152.8,47.66l-2.15-2L148.25,44l-2.6-1.35-2.76-1L140,41l-2.93-.21-2.93.18-2.88.58-2.77,1-2.62,1.32-2.42,1.66-2.17,2-1.88,2.25-4,6.25L114,57.72l-1.65,1.51-1.84,1.27-2,1-2.11.74-2.19.44-2.23.14-2.23-.16a14.65,14.65,0,0,1-6.94-5.51c-3.23-4.44-8.8-5-4.34,2.74s10.18,7.82,10.18,7.82l2.92.26,2.93-.14,2.89-.53,2.79-.91,2.64-1.28,2.44-1.62,2.2-1.94,1.92-2.22,4.4-6.81,1.47-1.69,1.68-1.47,1.86-1.23,2-1,2.13-.69,2.2-.4,2.24-.1,2.23.2,2.18.5,2.09.79,2,1.07,1.81,1.32,1.61,1.55L159.68,64.7l1.14,1.93.87,2.06.58,2.16"/></g></g></g><g id="g6658"><g id="section-10" data-name="section"><g id="g6661"><polyline id="background-24" data-name="background" class="cls-5" points="116.8 108.01 133.58 67.38 155.02 10.62 150.24 8.64 128.8 65.41 112.02 106.03"/></g><g id="g6664"><g id="g6666"><polyline id="background-25" data-name="background" class="cls-6" points="116.8 102.22 133.58 61.59 155.02 4.83 150.24 2.85 128.8 59.62 112.02 100.24"/></g></g></g><g id="section-11" data-name="section"><g id="g6670"><polyline id="background-26" data-name="background" class="cls-5" points="121.94 194.04 124.67 192.96 127.23 191.52 129.57 189.76 131.66 187.69 133.44 185.36 134.89 182.81 135.99 180.09 136.72 177.25 137.05 174.33 136.98 171.4 136.53 168.5 135.68 165.69 134.47 163.02 132.91 160.54 131.02 158.29 128.85 156.31 126.44 154.65 115.25 148.9 113.41 147.63 111.75 146.13 110.31 144.42 109.11 142.53 108.18 140.49 107.53 138.35 107.17 136.14 107.12 133.91 107.37 131.68 107.92 129.51 115.81 110.4 116.8 108.01 112.02 106.03 111.03 108.42 103.14 127.54 102.37 130.37 101.99 133.28 102 136.21 102.42 139.12 103.21 141.94 104.39 144.63 105.91 147.14 107.75 149.42 109.89 151.43 112.28 153.13 124.07 159.24 125.88 160.55 127.51 162.08 128.91 163.83 130.07 165.74 130.96 167.8 131.56 169.95 131.87 172.16 131.88 174.4 131.58 176.62 130.99 178.78 130.11 180.84 128.97 182.76 127.58 184.51 125.96 186.06 124.15 187.37 122.18 188.43 120.08 189.21"/></g><g id="g6673"><g id="g6675"><polyline id="background-27" data-name="background" class="cls-6" points="121.94 188.25 124.67 187.17 127.23 185.73 129.57 183.97 131.66 181.9 133.44 179.57 134.89 177.02 135.99 174.3 136.72 171.46 137.05 168.54 136.98 165.61 136.53 162.71 135.68 159.9 134.47 157.23 132.91 154.75 131.02 152.5 128.85 150.52 126.44 148.86 115.25 143.11 113.41 141.84 111.75 140.34 110.31 138.63 109.11 136.74 108.18 134.7 107.53 132.56 107.17 130.35 107.12 128.12 107.37 125.89 107.92 123.72 115.81 104.61 116.8 102.22 112.02 100.24 111.03 102.63 103.14 121.75 102.37 124.58 101.99 127.49 102 130.42 102.42 133.33 103.21 136.15 104.39 138.84 105.91 141.35 107.75 143.63 109.89 145.63 112.28 147.34 124.07 153.45 125.88 154.75 127.51 156.29 128.91 158.03 130.07 159.95 130.96 162 131.56 164.16 131.87 166.37 131.88 168.61 131.58 170.83 130.99 172.99 130.11 175.04 128.97 176.97 127.58 178.72 125.96 180.27 124.15 181.58 122.18 182.64 120.08 183.42"/></g></g></g></g><g id="section-12" data-name="section"><g id="g6679"><path id="background-28" data-name="background" class="cls-11" d="M48.19,115.28l1.79,52,.52,2.89.9,2.79,1.27,2.64,1.61,2.45,1.93,2.21,2.21,1.93,2.45,1.62,2.64,1.27,2.79.9,48.62,9.12s4.2.34,7-1.09l-1.86-4.82a12.37,12.37,0,0,1-4.89.75l-47.93-9-2.12-.73-2-1-1.84-1.27-1.66-1.5-1.44-1.71L57,172.82l-.93-2-.65-2.14-.35-2.21L53.36,115.1"/></g><g id="g6682"><g id="g6684"><path id="background-29" data-name="background" class="cls-12" d="M48.19,109.48l1.79,52,.52,2.89.9,2.79,1.27,2.64,1.61,2.45,1.93,2.21,2.21,1.93L60.87,178l2.64,1.27,2.79.9,48.62,9.12s4.2.34,7-1.09l-1.86-4.82a12.37,12.37,0,0,1-4.89.75l-47.93-9-2.12-.73-2-1-1.84-1.27-1.66-1.5-1.44-1.71L57,167l-.93-2-.65-2.14-.35-2.21-1.72-51.33"/></g></g></g><g id="background-30" data-name="background"><g id="g6688"><polyline id="polyline6690" class="cls-7" points="94.33 179.35 97.14 178.5 99.81 177.29 102.29 175.72 104.54 173.83 106.51 171.66 108.17 169.24 109.49 166.62 110.45 163.85 115.61 138.87 116.33 136.75 117.33 134.75 118.6 132.91 141.6 107.93 143.26 105.51 144.59 102.89 145.54 100.12 146.12 97.24 146.3 94.31 146.08 91.39 145.47 88.51 144.49 85.75 143.13 83.15 141.44 80.75 139.45 78.6 137.18 76.74 134.68 75.2 132 74.02 129.18 73.2 126.28 72.77 123.34 72.74 120.43 73.1 117.59 73.85 119.54 78.64 121.71 78.11 123.94 77.88 126.18 77.94 128.38 78.31 130.52 78.97 132.55 79.92 134.43 81.12 136.14 82.57 137.63 84.24 138.88 86.09 139.88 88.1 140.59 90.22 141.01 92.42 141.14 94.65 140.96 96.88 140.48 99.06 139.71 101.17 138.67 103.15 137.37 104.97 114.8 129.4 113.1 131.79 111.73 134.39 110.73 137.15 105.38 162.8 104.61 164.9 103.57 166.88 102.27 168.7 100.73 170.33 99 171.73 97.08 172.9 95.03 173.78 92.88 174.39"/><polyline id="polyline6692" class="cls-9" points="94.33 179.35 97.14 178.5 99.81 177.29 102.29 175.72 104.54 173.83 106.51 171.66 108.17 169.24 109.49 166.62 110.45 163.85 115.61 138.87 116.33 136.75 117.33 134.75 118.6 132.91 141.6 107.93 143.26 105.51 144.59 102.89 145.54 100.12 146.12 97.24 146.3 94.31 146.08 91.39 145.47 88.51 144.49 85.75 143.13 83.15 141.44 80.75 139.45 78.6 137.18 76.74 134.68 75.2 132 74.02 129.18 73.2 126.28 72.77 123.34 72.74 120.43 73.1 117.59 73.85 119.54 78.64 121.71 78.11 123.94 77.88 126.18 77.94 128.38 78.31 130.52 78.97 132.55 79.92 134.43 81.12 136.14 82.57 137.63 84.24 138.88 86.09 139.88 88.1 140.59 90.22 141.01 92.42 141.14 94.65 140.96 96.88 140.48 99.06 139.71 101.17 138.67 103.15 137.37 104.97 114.8 129.4 113.1 131.79 111.73 134.39 110.73 137.15 105.38 162.8 104.61 164.9 103.57 166.88 102.27 168.7 100.73 170.33 99 171.73 97.08 172.9 95.03 173.78 92.88 174.39"/></g><g id="g6694"><polyline id="polyline6696" class="cls-8" points="94.33 173.56 97.14 172.71 99.81 171.5 102.29 169.93 104.54 168.04 106.51 165.87 108.17 163.45 109.49 160.83 110.45 158.06 115.61 133.08 116.33 130.96 117.33 128.96 118.6 127.11 141.6 102.14 143.26 99.72 144.59 97.1 145.54 94.33 146.12 91.45 146.3 88.52 146.08 85.59 145.47 82.72 144.49 79.96 143.13 77.36 141.44 74.96 139.45 72.81 137.18 70.95 134.68 69.41 132 68.22 129.18 67.41 126.28 66.98 123.34 66.95 120.43 67.31 117.59 68.06 119.54 72.85 121.71 72.32 123.94 72.08 126.18 72.15 128.38 72.52 130.52 73.18 132.55 74.12 134.43 75.33 136.14 76.78 137.63 78.45 138.88 80.3 139.88 82.31 140.59 84.43 141.01 86.62 141.14 88.86 140.96 91.09 140.48 93.27 139.71 95.38 138.67 97.35 137.37 99.17 114.8 123.61 113.1 126 111.73 128.6 110.73 131.35 105.38 157.01 104.61 159.11 103.57 161.09 102.27 162.91 100.73 164.53 99 165.94 97.08 167.1 95.03 167.99 92.88 168.6"/><polyline id="polyline6698" class="cls-10" points="94.33 173.56 97.14 172.71 99.81 171.5 102.29 169.93 104.54 168.04 106.51 165.87 108.17 163.45 109.49 160.83 110.45 158.06 115.61 133.08 116.33 130.96 117.33 128.96 118.6 127.11 141.6 102.14 143.26 99.72 144.59 97.1 145.54 94.33 146.12 91.45 146.3 88.52 146.08 85.59 145.47 82.72 144.49 79.96 143.13 77.36 141.44 74.96 139.45 72.81 137.18 70.95 134.68 69.41 132 68.22 129.18 67.41 126.28 66.98 123.34 66.95 120.43 67.31 117.59 68.06 119.54 72.85 121.71 72.32 123.94 72.08 126.18 72.15 128.38 72.52 130.52 73.18 132.55 74.12 134.43 75.33 136.14 76.78 137.63 78.45 138.88 80.3 139.88 82.31 140.59 84.43 141.01 86.62 141.14 88.86 140.96 91.09 140.48 93.27 139.71 95.38 138.67 97.35 137.37 99.17 114.8 123.61 113.1 126 111.73 128.6 110.73 131.35 105.38 157.01 104.61 159.11 103.57 161.09 102.27 162.91 100.73 164.53 99 165.94 97.08 167.1 95.03 167.99 92.88 168.6"/></g></g><g id="section-13" data-name="section"><g id="g6701"><polyline id="background-31" data-name="background" class="cls-5" points="162.22 76.44 162.76 78.61 163.01 80.83 162.96 83.07 162.6 85.28 161.95 87.42 161.02 89.46 159.82 91.35 158.38 93.06 156.72 94.56 154.87 95.82 152.88 96.83 150.76 97.55 148.56 97.99 146.33 98.12 144.1 97.95 141.91 97.49 139.8 96.73 135.99 94.41 135.99 94.41 118.64 79.01 114.1 81.23 132.43 98.15 134.79 99.89 137.37 101.29 140.11 102.34 142.97 103 145.89 103.28 148.82 103.15 151.71 102.64 154.5 101.74 157.15 100.47 159.6 98.85 161.81 96.93 163.74 94.72 165.36 92.27 166.63 89.63 167.53 86.83 168.05 83.95 168.18 81.02 167.91 78.09 167.25 75.24"/></g><g id="g6704"><g id="g6706"><polyline id="background-32" data-name="background" class="cls-6" points="162.22 70.65 162.76 72.82 163.01 75.04 162.96 77.28 162.6 79.49 161.95 81.63 161.02 83.66 159.82 85.56 158.38 87.27 156.72 88.77 154.87 90.03 152.88 91.03 150.76 91.76 148.56 92.2 146.33 92.33 144.1 92.16 141.91 91.7 139.8 90.94 135.99 88.61 135.99 88.61 118.64 73.22 114.1 75.44 132.43 92.36 134.79 94.1 137.37 95.5 140.11 96.55 142.97 97.21 145.89 97.48 148.82 97.36 151.71 96.84 154.5 95.94 157.15 94.68 159.6 93.06 161.81 91.14 163.74 88.93 165.36 86.48 166.63 83.83 167.53 81.04 168.05 78.16 168.18 75.22 167.91 72.3 167.25 69.44"/></g></g></g><g id="section-14" data-name="section"><g id="g6710"><polyline id="background-33" data-name="background" class="cls-5" points="66.72 197.81 78.78 185.84 80.49 184.4 82.38 183.2 84.41 182.27 91.85 180.08 94.33 179.35 92.88 174.39 90.39 175.12 82.95 177.3 80.27 178.48 77.76 180.01 75.48 181.86 62.91 194.31"/></g><g id="g6713"><g id="g6715"><polyline id="background-34" data-name="background" class="cls-6" points="66.72 192.02 78.78 180.05 80.49 178.61 82.38 177.41 84.41 176.47 91.85 174.29 94.33 173.56 92.88 168.6 90.39 169.33 82.95 171.51 80.27 172.69 77.76 174.22 75.48 176.07 62.91 188.51"/></g></g></g><g id="background-35" data-name="background"><g id="g6719"><path id="path6721" class="cls-7" d="M123.34,72.74l-2.91.36-2.84.75-24,9.73-2.4,1L65.76,95,67,100,93.19,89.35l2.4-1,24-9.73,2.17-.53,2.23-.24s3.65,0,5.27.69"/><path id="path6723" class="cls-9" d="M123.34,72.74l-2.91.36-2.84.75-24,9.73-2.4,1L65.76,95,67,100,93.19,89.35l2.4-1,24-9.73,2.17-.53,2.23-.24s3.65,0,5.27.69"/></g><g id="g6725"><path id="path6727" class="cls-8" d="M123.34,66.95l-2.91.36-2.84.75-24,9.73-2.4,1L65.76,89.24l1.28,5L93.19,83.56l2.4-1,24-9.73,2.17-.53,2.23-.24s3.65,0,5.27.69"/><path id="path6729" class="cls-10" d="M123.34,66.95l-2.91.36-2.84.75-24,9.73-2.4,1L65.76,89.24l1.28,5L93.19,83.56l2.4-1,24-9.73,2.17-.53,2.23-.24s3.65,0,5.27.69"/></g></g></g></g></g><g id="g6731"><g id="g6733" class="cls-13"><path id="path6735" d="M230.36,177.1a4.08,4.08,0,1,1-.45,3.09A4.06,4.06,0,0,1,230.36,177.1Zm24.33,43.17a4,4,0,0,1-2.65,1,4.07,4.07,0,0,1-2.66-7.17,4,4,0,0,1,2.65-1,4.08,4.08,0,0,1,2.66,7.18Z"/><path id="path6737" d="M214.34,88.05l.41.09Z"/><path id="path6739" d="M236.31,106.68a4,4,0,0,1,1.3-1.28,4.08,4.08,0,1,1,2.14,7.55,4.06,4.06,0,0,1-2.17-.63A4.11,4.11,0,0,1,236.31,106.68Zm12.32-39A4.14,4.14,0,0,1,243,69l-.19-.12a4.08,4.08,0,1,1,6.35-4.2A4,4,0,0,1,248.62,67.7Z"/><path id="path6741" d="M281,90.1a4.07,4.07,0,1,1,6.88,4.36,4.13,4.13,0,0,1-5.62,1.26l-.18-.12A4.06,4.06,0,0,1,281,90.1Zm0,45.3a4.08,4.08,0,1,1,6.88,4.36,4.14,4.14,0,0,1-5.62,1.26l-.18-.12A4.06,4.06,0,0,1,281,135.39Zm0,50.78a4.08,4.08,0,1,1,6.88,4.36,4.14,4.14,0,0,1-5.62,1.26l-.18-.12A4.06,4.06,0,0,1,281,186.17Z"/><path id="path6743" d="M261,204.84A11.81,11.81,0,0,0,240.32,214c-3.76,1.35-8.22,2.64-10.29,2.57-1.58-.08-2.51-.67-4.29-1.88a20.67,20.67,0,0,0-8-3.57c5.67-5.33,11.6-13.19,16.57-24.78a11.81,11.81,0,1,0-10.58-17.85,11.82,11.82,0,0,0,3.14,15.57c-7.82,17.8-17.8,25.25-24.26,28.35a3.81,3.81,0,0,0-.7.32,21.83,21.83,0,0,1-4.94,1.56V222a24.29,24.29,0,0,0,8.2-2.3c10.32-2.62,13.2-.68,16.23,1.37a15.2,15.2,0,0,0,8.23,3.2l.6,0c4.07,0,10-2,13.55-3.33a11.84,11.84,0,0,0,8.27,3.38h0a11.81,11.81,0,0,0,9-19.51Zm-30.65-32.39a4.08,4.08,0,1,1-.45,3.09A4.06,4.06,0,0,1,230.36,172.45Zm24.33,43.17a4,4,0,0,1-2.65,1,4.07,4.07,0,0,1-2.66-7.17,4,4,0,0,1,2.65-1,4.08,4.08,0,0,1,2.66,7.18Z"/><path id="path6745" d="M214.34,83.41l.41.09Z"/><path id="path6747" d="M256.71,58.31a11.82,11.82,0,1,0-21.24,9.31c-7,8-16.81,8.33-19.19,8.29A56.28,56.28,0,0,0,197,71.43v7.71a47.84,47.84,0,0,1,16.89,4.12h0A41.68,41.68,0,0,1,230.5,96.87a12.18,12.18,0,0,0-.74,1,11.82,11.82,0,1,0,16.31-3.69,12,12,0,0,0-9-1.46A50.16,50.16,0,0,0,226.74,82a31.55,31.55,0,0,0,15-9.84,11.86,11.86,0,0,0,3.42.52,11.82,11.82,0,0,0,11.54-14.39ZM236.31,102a4,4,0,0,1,1.3-1.28,4.08,4.08,0,1,1,2.14,7.55,4.06,4.06,0,0,1-2.17-.63A4.11,4.11,0,0,1,236.31,102Zm12.32-39A4.14,4.14,0,0,1,243,64.32l-.19-.12a4.08,4.08,0,1,1,6.35-4.2A4,4,0,0,1,248.62,63.06Z"/><path id="path6749" d="M273.5,137.43a11.66,11.66,0,0,0,4.07,5.11l.55.37a11.81,11.81,0,1,0,6.31-21.8c-.24,0-.48,0-.72,0-1.37-6.09-1.77-15,.07-21.75.22,0,.43,0,.65,0a11.82,11.82,0,1,0-8-3.14l.14.11c-2.6,8.72-2.21,19.93-.07,27.83-.28.25-.57.49-.82.77a12,12,0,0,0-1.22,1.59,11.9,11.9,0,0,0-1.37,3,29.36,29.36,0,0,0-13.17,5.27c-3.93,2.56-7.65,5-18.6,5.14a63,63,0,0,0-10.21-.22c-2.76.1-5.62.2-9.36,0-2.58-.14-4.06-1.7-6.68-4.68-3.48-4-8.15-9-18.09-9.7v7.72c6.36.58,9.26,3.64,12.27,7.08,2.87,3.27,6.13,7,12.08,7.3,4.09.22,7.26.1,10.05,0a46.72,46.72,0,0,1,15.16,1.32c5,1.24,23.36,18.67,28.52,27.65-.21.27-.42.54-.61.84a11.78,11.78,0,0,0,3.13,15.93l.55.37a11.82,11.82,0,1,0,6.31-21.8,11.93,11.93,0,0,0-3,.38c-4.94-8.08-16.7-20.18-25.46-26.63a35.18,35.18,0,0,0,8.13-4.22,21.93,21.93,0,0,1,9.38-4Zm7.49-52a4.07,4.07,0,1,1,6.88,4.36,4.13,4.13,0,0,1-5.62,1.26l-.18-.12A4.06,4.06,0,0,1,281,85.45Zm0,45.3a4.08,4.08,0,1,1,6.88,4.36,4.14,4.14,0,0,1-5.62,1.26l-.18-.12A4.06,4.06,0,0,1,281,130.75Zm0,50.78a4.08,4.08,0,1,1,6.88,4.36,4.14,4.14,0,0,1-5.62,1.26l-.18-.12A4.06,4.06,0,0,1,281,181.53Z"/></g><g id="g6751"><g id="g6753"><path id="path6755" class="cls-14" d="M261,210.63a11.81,11.81,0,0,0-20.69,9.14c-3.76,1.35-8.22,2.64-10.29,2.57-1.58-.08-2.51-.67-4.29-1.88a20.67,20.67,0,0,0-8-3.57c5.67-5.33,11.6-13.19,16.57-24.78a11.81,11.81,0,1,0-10.58-17.85,11.82,11.82,0,0,0,3.14,15.57c-7.82,17.8-17.8,25.25-24.26,28.35a3.81,3.81,0,0,0-.7.32,21.83,21.83,0,0,1-4.94,1.56v7.72a24.29,24.29,0,0,0,8.2-2.3c10.32-2.62,13.2-.68,16.23,1.37a15.2,15.2,0,0,0,8.23,3.2l.6,0c4.07,0,10-2,13.55-3.33a11.84,11.84,0,0,0,8.27,3.38h0a11.81,11.81,0,0,0,9-19.51Zm-30.65-32.39a4.08,4.08,0,1,1-.45,3.09A4.06,4.06,0,0,1,230.36,178.24Zm24.33,43.17a4,4,0,0,1-2.65,1,4.07,4.07,0,0,1-2.66-7.17,4,4,0,0,1,2.65-1,4.08,4.08,0,0,1,2.66,7.18Z"/><path id="path6757" d="M214.34,88.05l.41.09Z"/><path id="path6759" class="cls-14" d="M256.71,62.18a11.82,11.82,0,1,0-21.24,9.31c-7,8-16.81,8.33-19.19,8.29A56.28,56.28,0,0,0,197,75.3V83a47.92,47.92,0,0,1,16.89,4.12h0a41.68,41.68,0,0,1,16.62,13.59,12.18,12.18,0,0,0-.74,1,11.82,11.82,0,1,0,16.31-3.69,12,12,0,0,0-9-1.46,50.16,50.16,0,0,0-10.32-10.75,31.55,31.55,0,0,0,15-9.84,11.86,11.86,0,0,0,3.42.52,11.82,11.82,0,0,0,11.54-14.39ZM236.31,105.9a4,4,0,0,1,1.3-1.28,4.08,4.08,0,1,1,2.14,7.55,4.06,4.06,0,0,1-2.17-.63A4.11,4.11,0,0,1,236.31,105.9Zm12.32-39A4.14,4.14,0,0,1,243,68.19l-.19-.12a4.08,4.08,0,1,1,6.35-4.2A4,4,0,0,1,248.62,66.93Z"/><path id="path6761" class="cls-14" d="M273.5,143.22a11.66,11.66,0,0,0,4.07,5.11l.55.37a11.81,11.81,0,1,0,6.31-21.8c-.24,0-.48,0-.72,0-1.37-6.09-1.77-15,.07-21.75.22,0,.43,0,.65,0a11.82,11.82,0,1,0-8-3.14l.14.11c-2.6,8.72-2.21,19.93-.07,27.83-.28.25-.57.49-.82.77a12,12,0,0,0-1.22,1.59,11.9,11.9,0,0,0-1.37,3,29.36,29.36,0,0,0-13.17,5.27c-3.93,2.56-7.65,5-18.6,5.14a63,63,0,0,0-10.21-.22c-2.76.1-5.62.2-9.36,0-2.58-.14-4.06-1.7-6.68-4.68-3.48-4-8.15-9-18.09-9.7V139c6.36.58,9.26,3.64,12.27,7.08,2.87,3.27,6.13,7,12.08,7.3,4.09.22,7.26.1,10.05,0a46.72,46.72,0,0,1,15.16,1.32c5,1.24,23.36,18.67,28.52,27.65-.21.27-.42.54-.61.84a11.78,11.78,0,0,0,3.13,15.93l.55.37a11.82,11.82,0,1,0,6.31-21.8,11.93,11.93,0,0,0-3,.38c-4.94-8.08-16.7-20.18-25.46-26.63a35.18,35.18,0,0,0,8.13-4.22,21.93,21.93,0,0,1,9.38-4Zm7.49-52a4.07,4.07,0,1,1,6.88,4.36,4.13,4.13,0,0,1-5.62,1.26l-.18-.12A4.06,4.06,0,0,1,281,91.24Zm0,45.3a4.08,4.08,0,1,1,6.88,4.36,4.14,4.14,0,0,1-5.62,1.26l-.18-.12A4.06,4.06,0,0,1,281,136.54Zm0,50.78a4.08,4.08,0,1,1,6.88,4.36,4.14,4.14,0,0,1-5.62,1.26l-.18-.12A4.06,4.06,0,0,1,281,187.32Z"/></g><g id="g6763"><path id="path6765" class="cls-8" d="M261,204.84A11.81,11.81,0,0,0,240.32,214c-3.76,1.35-8.22,2.64-10.29,2.57-1.58-.08-2.51-.67-4.29-1.88a20.67,20.67,0,0,0-8-3.57c5.67-5.33,11.6-13.19,16.57-24.78a11.81,11.81,0,1,0-10.58-17.85,11.82,11.82,0,0,0,3.14,15.57c-7.82,17.8-17.8,25.25-24.26,28.35a3.81,3.81,0,0,0-.7.32,21.83,21.83,0,0,1-4.94,1.56V222a24.29,24.29,0,0,0,8.2-2.3c10.32-2.62,13.2-.68,16.23,1.37a15.2,15.2,0,0,0,8.23,3.2l.6,0c4.07,0,10-2,13.55-3.33a11.84,11.84,0,0,0,8.27,3.38h0a11.81,11.81,0,0,0,9-19.51Zm-30.65-32.39a4.08,4.08,0,1,1-.45,3.09A4.06,4.06,0,0,1,230.36,172.45Zm24.33,43.17a4,4,0,0,1-2.65,1,4.07,4.07,0,0,1-2.66-7.17,4,4,0,0,1,2.65-1,4.08,4.08,0,0,1,2.66,7.18Z"/><path id="path6767" class="cls-8" d="M214.34,83.41l.41.09Z"/><path id="path6769" class="cls-8" d="M256.71,58.31a11.82,11.82,0,1,0-21.24,9.31c-7,8-16.81,8.33-19.19,8.29A56.28,56.28,0,0,0,197,71.43v7.71a47.84,47.84,0,0,1,16.89,4.12h0A41.68,41.68,0,0,1,230.5,96.87a12.18,12.18,0,0,0-.74,1,11.82,11.82,0,1,0,16.31-3.69,12,12,0,0,0-9-1.46A50.16,50.16,0,0,0,226.74,82a31.55,31.55,0,0,0,15-9.84,11.86,11.86,0,0,0,3.42.52,11.82,11.82,0,0,0,11.54-14.39ZM236.31,102a4,4,0,0,1,1.3-1.28,4.08,4.08,0,1,1,2.14,7.55,4.06,4.06,0,0,1-2.17-.63A4.11,4.11,0,0,1,236.31,102Zm12.32-39A4.14,4.14,0,0,1,243,64.32l-.19-.12a4.08,4.08,0,1,1,6.35-4.2A4,4,0,0,1,248.62,63.06Z"/><path id="path6771" class="cls-8" d="M273.5,137.43a11.66,11.66,0,0,0,4.07,5.11l.55.37a11.81,11.81,0,1,0,6.31-21.8c-.24,0-.48,0-.72,0-1.37-6.09-1.77-15,.07-21.75.22,0,.43,0,.65,0a11.82,11.82,0,1,0-8-3.14l.14.11c-2.6,8.72-2.21,19.93-.07,27.83-.28.25-.57.49-.82.77a12,12,0,0,0-1.22,1.59,11.9,11.9,0,0,0-1.37,3,29.36,29.36,0,0,0-13.17,5.27c-3.93,2.56-7.65,5-18.6,5.14a63,63,0,0,0-10.21-.22c-2.76.1-5.62.2-9.36,0-2.58-.14-4.06-1.7-6.68-4.68-3.48-4-8.15-9-18.09-9.7v7.72c6.36.58,9.26,3.64,12.27,7.08,2.87,3.27,6.13,7,12.08,7.3,4.09.22,7.26.1,10.05,0a46.72,46.72,0,0,1,15.16,1.32c5,1.24,23.36,18.67,28.52,27.65-.21.27-.42.54-.61.84a11.78,11.78,0,0,0,3.13,15.93l.55.37a11.82,11.82,0,1,0,6.31-21.8,11.93,11.93,0,0,0-3,.38c-4.94-8.08-16.7-20.18-25.46-26.63a35.18,35.18,0,0,0,8.13-4.22,21.93,21.93,0,0,1,9.38-4Zm7.49-52a4.07,4.07,0,1,1,6.88,4.36,4.13,4.13,0,0,1-5.62,1.26l-.18-.12A4.06,4.06,0,0,1,281,85.45Zm0,45.3a4.08,4.08,0,1,1,6.88,4.36,4.14,4.14,0,0,1-5.62,1.26l-.18-.12A4.06,4.06,0,0,1,281,130.75Zm0,50.78a4.08,4.08,0,1,1,6.88,4.36,4.14,4.14,0,0,1-5.62,1.26l-.18-.12A4.06,4.06,0,0,1,281,181.53Z"/></g></g></g></g></g></g></g></g></svg>