<svg xmlns="http://www.w3.org/2000/svg" viewBox="0 0 255.44 288.49"><defs><style>.cls-1{fill:#eb743b;}.cls-2{fill:#5aa854;}.cls-3{fill:#fffedb;}</style></defs><title>MetaBrainz Community</title><g id="Layer_2" data-name="Layer 2"><g id="Layer_1-2" data-name="Layer 1"><polygon class="cls-1" points="132.23 0 132.23 288.49 255.44 216.37 255.44 72.12 132.23 0"/><polygon class="cls-2" points="123.21 0 0 72.12 0 216.37 123.21 288.49 123.21 0"/><path class="cls-3" d="M229.23,168.56a20.25,20.25,0,0,0-23-8.56A54.36,54.36,0,0,0,180.31,143a86.4,86.4,0,0,0,17.76-18.48,20.8,20.8,0,0,0,15.51-2.49,20.34,20.34,0,1,0-28.07-6.34,20.1,20.1,0,0,0,1.26,1.8,71.76,71.76,0,0,1-28.61,23.41h0a55.69,55.69,0,0,1-25.93,6.31v15c12,0,17.82-3.37,30.05-8.71a44.33,44.33,0,0,1,33.06,14.27,20.34,20.34,0,1,0,36.54,16A20.07,20.07,0,0,0,229.23,168.56ZM198.52,98.18a7.86,7.86,0,1,1,.06,13.34,7.78,7.78,0,0,1-2.49-2.46A7.9,7.9,0,0,1,198.52,98.18Zm21.22,82.94A7.84,7.84,0,1,1,207.36,173l.36-.24a8,8,0,0,1,10.85,2.43A7.75,7.75,0,0,1,219.74,181.12Z"/><path class="cls-3" d="M34.92,108a20.25,20.25,0,0,0,18.81,15.87c4.27,11.39,12.2,21.67,19.62,26.42a56.65,56.65,0,0,0-18.57,10.4A20.8,20.8,0,0,0,39.07,159a20.34,20.34,0,1,0,25.46,13.41h0a20.07,20.07,0,0,0-.75-2c10-8,16.26-9.35,28.67-11.42h0a61.12,61.12,0,0,1,30.77,3.37v-15c-10.7-3-20.25-3-33.48-1-4-1-16.38-9-23.14-26.11a20.34,20.34,0,1,0-29-27.41A20.07,20.07,0,0,0,34.92,108Zm12.59,78a7.82,7.82,0,1,1,3.4-12.8,7.78,7.78,0,0,1,1.77,3A7.9,7.9,0,0,1,47.51,185.93Zm.57-86.58a7.84,7.84,0,1,1,8.81,11.84H56.5a8,8,0,0,1-9.38-6A7.75,7.75,0,0,1,48.08,99.35Z"/></g></g></svg>