<svg xmlns="http://www.w3.org/2000/svg" viewBox="0 0 255.95 290.21"><defs><style>.cls-1{fill:#eb743b;}.cls-2{opacity:0.07;}.cls-3{fill:#d3562c;}.cls-4{fill:#fffedb;}.cls-5{fill:#ffde00;}.cls-6{fill:#fffdbe;}.cls-7{fill:#fffdbf;fill-opacity:0.94;}.cls-8{fill:#e3c604;}</style></defs><title>OfficeBrainz</title><g id="Layer_2" data-name="Layer 2"><g id="Layer_1-2" data-name="Layer 1"><g id="g3429"><g id="g3388"><polygon id="polygon3512" class="cls-1" points="133.01 0 133.01 290.21 255.95 219.68 255.95 70.54 133.01 0"/><g id="g3518" class="cls-2"><path id="path3520" d="M167.88,184.88a4.26,4.26,0,1,1-.47,3.23A4.24,4.24,0,0,1,167.88,184.88Zm25.4,45.07a4.2,4.2,0,0,1-2.77,1,4.25,4.25,0,0,1-2.78-7.49,4.19,4.19,0,0,1,2.77-1,4.26,4.26,0,0,1,2.78,7.49Z"/><path id="path3522" d="M151.16,91.92l.43.09Z"/><path id="path3524" d="M174.09,111.36a4.18,4.18,0,0,1,1.36-1.33,4.26,4.26,0,1,1,2.23,7.88,4.24,4.24,0,0,1-2.27-.66A4.29,4.29,0,0,1,174.09,111.36Zm12.86-40.68A4.32,4.32,0,0,1,181.08,72l-.19-.13a4.25,4.25,0,1,1,6.62-4.38A4.18,4.18,0,0,1,186.94,70.68Z"/><path id="path3526" d="M220.74,94.05a4.25,4.25,0,1,1,7.19,4.55,4.32,4.32,0,0,1-5.87,1.32l-.19-.13A4.24,4.24,0,0,1,220.74,94.05Zm0,47.29a4.25,4.25,0,1,1,7.19,4.55,4.32,4.32,0,0,1-5.87,1.31l-.19-.13A4.24,4.24,0,0,1,220.74,141.34Zm0,53a4.25,4.25,0,1,1,7.19,4.55,4.32,4.32,0,0,1-5.87,1.32l-.19-.13A4.24,4.24,0,0,1,220.74,194.35Z"/><path id="path3528" d="M199.88,213.84a12.33,12.33,0,0,0-21.6,9.54c-3.93,1.41-8.58,2.75-10.74,2.68-1.65-.09-2.62-.7-4.48-2a21.59,21.59,0,0,0-8.36-3.72c5.92-5.56,12.11-13.77,17.3-25.87a12.33,12.33,0,1,0-11-18.63,12.34,12.34,0,0,0,3.27,16.25c-8.17,18.58-18.58,26.36-25.32,29.6a4,4,0,0,0-.73.34,22.79,22.79,0,0,1-5.16,1.63v8.06a25.36,25.36,0,0,0,8.56-2.4c10.78-2.73,13.78-.71,16.94,1.43a15.87,15.87,0,0,0,8.59,3.34l.62,0c4.25,0,10.42-2.06,14.15-3.47a12.36,12.36,0,0,0,8.64,3.53h0a12.33,12.33,0,0,0,9.36-20.36Zm-32-33.81a4.26,4.26,0,1,1-.47,3.23A4.24,4.24,0,0,1,167.88,180Zm25.4,45.07a4.2,4.2,0,0,1-2.77,1,4.25,4.25,0,0,1-2.78-7.49,4.19,4.19,0,0,1,2.77-1,4.26,4.26,0,0,1,2.78,7.49Z"/><path id="path3530" d="M151.16,87.07l.43.09Z"/><path id="path3532" d="M195.39,60.87a12.34,12.34,0,1,0-22.18,9.72c-7.35,8.31-17.55,8.69-20,8.65A58.75,58.75,0,0,0,133,74.57v8.05a50,50,0,0,1,17.63,4.3h0A43.51,43.51,0,0,1,168,101.13a12.72,12.72,0,0,0-.77,1.08,12.34,12.34,0,1,0,17-3.85,12.54,12.54,0,0,0-9.41-1.52A52.36,52.36,0,0,0,164.1,85.63a32.94,32.94,0,0,0,15.68-10.27,12.38,12.38,0,0,0,3.57.54,12.34,12.34,0,0,0,12-15Zm-21.3,45.64a4.18,4.18,0,0,1,1.36-1.33,4.26,4.26,0,1,1,2.23,7.88,4.24,4.24,0,0,1-2.27-.66A4.29,4.29,0,0,1,174.09,106.52Zm12.86-40.69a4.32,4.32,0,0,1-5.87,1.32l-.19-.13a4.25,4.25,0,1,1,6.62-4.38A4.18,4.18,0,0,1,186.94,65.83Z"/><path id="path3534" d="M212.92,143.47a12.17,12.17,0,0,0,4.25,5.34l.57.38a12.33,12.33,0,1,0,6.59-22.76c-.25,0-.5,0-.76,0-1.43-6.36-1.85-15.66.07-22.7.23,0,.45,0,.68,0a12.34,12.34,0,1,0-8.36-3.28l.14.12c-2.72,9.11-2.31,20.81-.07,29.06-.29.27-.59.51-.86.8a12.56,12.56,0,0,0-1.28,1.66,12.43,12.43,0,0,0-1.43,3.18,30.65,30.65,0,0,0-13.75,5.5c-4.1,2.67-8,5.18-19.42,5.37a65.81,65.81,0,0,0-10.66-.23c-2.88.1-5.86.21-9.77,0-2.69-.14-4.24-1.78-7-4.89-3.63-4.14-8.5-9.37-18.88-10.12v8.06c6.64.6,9.67,3.81,12.81,7.39,3,3.41,6.4,7.29,12.61,7.62,4.27.23,7.58.1,10.5,0a48.78,48.78,0,0,1,15.83,1.38c5.25,1.3,24.38,19.49,29.77,28.86-.22.29-.44.57-.63.87a12.3,12.3,0,0,0,3.26,16.63l.57.38a12.33,12.33,0,1,0,6.59-22.76,12.45,12.45,0,0,0-3.11.39c-5.16-8.44-17.44-21.07-26.58-27.8a36.73,36.73,0,0,0,8.49-4.41c2.88-1.87,5.27-3.4,9.79-4.16Zm7.82-54.26a4.25,4.25,0,1,1,7.19,4.55,4.32,4.32,0,0,1-5.87,1.32l-.19-.13A4.24,4.24,0,0,1,220.74,89.21Zm0,47.29a4.25,4.25,0,1,1,7.19,4.55,4.32,4.32,0,0,1-5.87,1.31l-.19-.13A4.24,4.24,0,0,1,220.74,136.49Zm0,53a4.25,4.25,0,1,1,7.19,4.55,4.32,4.32,0,0,1-5.87,1.32l-.19-.13A4.24,4.24,0,0,1,220.74,189.5Z"/></g><g id="g3538"><path id="path3540" class="cls-3" d="M199.88,219.89a12.33,12.33,0,0,0-21.6,9.54c-3.93,1.41-8.58,2.75-10.74,2.68-1.65-.09-2.62-.7-4.48-2a21.59,21.59,0,0,0-8.36-3.72c5.92-5.56,12.11-13.77,17.3-25.87a12.33,12.33,0,1,0-11-18.63,12.34,12.34,0,0,0,3.27,16.25c-8.17,18.58-18.58,26.36-25.32,29.6a4,4,0,0,0-.73.34,22.79,22.79,0,0,1-5.16,1.63v8.06a25.36,25.36,0,0,0,8.56-2.4c10.78-2.73,13.78-.71,16.94,1.43a15.87,15.87,0,0,0,8.59,3.34l.62,0c4.25,0,10.42-2.06,14.15-3.47a12.36,12.36,0,0,0,8.64,3.53h0a12.33,12.33,0,0,0,9.36-20.36Zm-32-33.81a4.26,4.26,0,1,1-.47,3.23A4.24,4.24,0,0,1,167.88,186.08Zm25.4,45.07a4.2,4.2,0,0,1-2.77,1,4.25,4.25,0,0,1-2.78-7.49,4.19,4.19,0,0,1,2.77-1,4.26,4.26,0,0,1,2.78,7.49Z"/><path id="path3542" d="M151.16,91.92l.43.09Z"/><path id="path3544" class="cls-3" d="M195.39,66.93a12.34,12.34,0,1,0-22.18,9.72c-7.35,8.31-17.55,8.69-20,8.65A58.75,58.75,0,0,0,133,80.63v8.05A50,50,0,0,1,150.65,93h0A43.51,43.51,0,0,1,168,107.18a12.72,12.72,0,0,0-.77,1.08,12.34,12.34,0,1,0,17-3.85,12.54,12.54,0,0,0-9.41-1.52A52.36,52.36,0,0,0,164.1,91.68a32.94,32.94,0,0,0,15.68-10.27,12.38,12.38,0,0,0,3.57.54,12.34,12.34,0,0,0,12-15Zm-21.3,45.64a4.18,4.18,0,0,1,1.36-1.33,4.26,4.26,0,1,1,2.23,7.88,4.24,4.24,0,0,1-2.27-.66A4.29,4.29,0,0,1,174.09,112.57Zm12.86-40.69a4.32,4.32,0,0,1-5.87,1.32l-.19-.13a4.25,4.25,0,1,1,6.62-4.38A4.18,4.18,0,0,1,186.94,71.88Z"/><path id="path3546" class="cls-3" d="M212.92,149.52a12.17,12.17,0,0,0,4.25,5.34l.57.38a12.33,12.33,0,1,0,6.59-22.76c-.25,0-.5,0-.76,0-1.43-6.36-1.85-15.66.07-22.7.23,0,.45,0,.68,0a12.34,12.34,0,1,0-8.36-3.28l.14.12c-2.72,9.11-2.31,20.81-.07,29.06-.29.27-.59.51-.86.8a12.56,12.56,0,0,0-1.28,1.66,12.43,12.43,0,0,0-1.43,3.18,30.65,30.65,0,0,0-13.75,5.5c-4.1,2.67-8,5.18-19.42,5.37a65.81,65.81,0,0,0-10.66-.23c-2.88.1-5.86.21-9.77,0-2.69-.14-4.24-1.78-7-4.89C148.26,143,143.39,137.8,133,137v8.06c6.64.6,9.67,3.81,12.81,7.39,3,3.41,6.4,7.29,12.61,7.62,4.27.23,7.58.1,10.5,0a48.78,48.78,0,0,1,15.83,1.38c5.25,1.3,24.38,19.49,29.77,28.86-.22.29-.44.57-.63.87a12.3,12.3,0,0,0,3.26,16.63l.57.38a12.33,12.33,0,1,0,6.59-22.76,12.45,12.45,0,0,0-3.11.39c-5.16-8.44-17.44-21.07-26.58-27.8a36.73,36.73,0,0,0,8.49-4.41c2.88-1.87,5.27-3.4,9.79-4.16Zm7.82-54.26a4.25,4.25,0,1,1,7.19,4.55,4.32,4.32,0,0,1-5.87,1.32l-.19-.13A4.24,4.24,0,0,1,220.74,95.25Zm0,47.29a4.25,4.25,0,1,1,7.19,4.55,4.32,4.32,0,0,1-5.87,1.31l-.19-.13A4.24,4.24,0,0,1,220.74,142.54Zm0,53a4.25,4.25,0,1,1,7.19,4.55,4.32,4.32,0,0,1-5.87,1.32l-.19-.13A4.24,4.24,0,0,1,220.74,195.55Z"/></g><path id="path3550" class="cls-4" d="M199.88,213.84a12.33,12.33,0,0,0-21.6,9.54c-3.93,1.41-8.58,2.75-10.74,2.68-1.65-.09-2.62-.7-4.48-2a21.59,21.59,0,0,0-8.36-3.72c5.92-5.56,12.11-13.77,17.3-25.87a12.33,12.33,0,1,0-11-18.63,12.34,12.34,0,0,0,3.27,16.25c-8.17,18.58-18.58,26.36-25.32,29.6a4,4,0,0,0-.73.34,22.79,22.79,0,0,1-5.16,1.63v8.06a25.36,25.36,0,0,0,8.56-2.4c10.78-2.73,13.78-.71,16.94,1.43a15.87,15.87,0,0,0,8.59,3.34l.62,0c4.25,0,10.42-2.06,14.15-3.47a12.36,12.36,0,0,0,8.64,3.53h0a12.33,12.33,0,0,0,9.36-20.36Zm-32-33.81a4.26,4.26,0,1,1-.47,3.23A4.24,4.24,0,0,1,167.88,180Zm25.4,45.07a4.2,4.2,0,0,1-2.77,1,4.25,4.25,0,0,1-2.78-7.49,4.19,4.19,0,0,1,2.77-1,4.26,4.26,0,0,1,2.78,7.49Z"/><path id="path3552" class="cls-4" d="M151.16,87.07l.43.09Z"/><path id="path3554" class="cls-4" d="M195.39,60.87a12.34,12.34,0,1,0-22.18,9.72c-7.35,8.31-17.55,8.69-20,8.65A58.75,58.75,0,0,0,133,74.57v8.05a50,50,0,0,1,17.63,4.3h0A43.51,43.51,0,0,1,168,101.13a12.72,12.72,0,0,0-.77,1.08,12.34,12.34,0,1,0,17-3.85,12.54,12.54,0,0,0-9.41-1.52A52.36,52.36,0,0,0,164.1,85.63a32.94,32.94,0,0,0,15.68-10.27,12.38,12.38,0,0,0,3.57.54,12.34,12.34,0,0,0,12-15Zm-21.3,45.64a4.18,4.18,0,0,1,1.36-1.33,4.26,4.26,0,1,1,2.23,7.88,4.24,4.24,0,0,1-2.27-.66A4.29,4.29,0,0,1,174.09,106.52Zm12.86-40.69a4.32,4.32,0,0,1-5.87,1.32l-.19-.13a4.25,4.25,0,1,1,6.62-4.38A4.18,4.18,0,0,1,186.94,65.83Z"/><path id="path3556" class="cls-4" d="M212.92,143.47a12.17,12.17,0,0,0,4.25,5.34l.57.38a12.33,12.33,0,1,0,6.59-22.76c-.25,0-.5,0-.76,0-1.43-6.36-1.85-15.66.07-22.7.23,0,.45,0,.68,0a12.34,12.34,0,1,0-8.36-3.28l.14.12c-2.72,9.11-2.31,20.81-.07,29.06-.29.27-.59.51-.86.8a12.56,12.56,0,0,0-1.28,1.66,12.43,12.43,0,0,0-1.43,3.18,30.65,30.65,0,0,0-13.75,5.5c-4.1,2.67-8,5.18-19.42,5.37a65.81,65.81,0,0,0-10.66-.23c-2.88.1-5.86.21-9.77,0-2.69-.14-4.24-1.78-7-4.89-3.63-4.14-8.5-9.37-18.88-10.12v8.06c6.64.6,9.67,3.81,12.81,7.39,3,3.41,6.4,7.29,12.61,7.62,4.27.23,7.58.1,10.5,0a48.78,48.78,0,0,1,15.83,1.38c5.25,1.3,24.38,19.49,29.77,28.86-.22.29-.44.57-.63.87a12.3,12.3,0,0,0,3.26,16.63l.57.38a12.33,12.33,0,1,0,6.59-22.76,12.45,12.45,0,0,0-3.11.39c-5.16-8.44-17.44-21.07-26.58-27.8a36.73,36.73,0,0,0,8.49-4.41c2.88-1.87,5.27-3.4,9.79-4.16Zm7.82-54.26a4.25,4.25,0,1,1,7.19,4.55,4.32,4.32,0,0,1-5.87,1.32l-.19-.13A4.24,4.24,0,0,1,220.74,89.21Zm0,47.29a4.25,4.25,0,1,1,7.19,4.55,4.32,4.32,0,0,1-5.87,1.31l-.19-.13A4.24,4.24,0,0,1,220.74,136.49Zm0,53a4.25,4.25,0,1,1,7.19,4.55,4.32,4.32,0,0,1-5.87,1.32l-.19-.13A4.24,4.24,0,0,1,220.74,189.5Z"/></g><g id="g3374"><polygon id="polygon3514" class="cls-5" points="122.94 0 0 70.54 0 219.68 122.94 290.21 122.94 0"/><g id="layer1-1"><rect id="rect5065" class="cls-4" x="37.82" y="61.66" width="72.26" height="168.2"/><rect id="rect5071" class="cls-5" x="44.4" y="65.72" width="58.74" height="43.07"/><rect id="rect5073" class="cls-6" x="60.82" y="72.57" width="25.58" height="3.1"/><rect id="rect5085" class="cls-5" x="44.27" y="121.09" width="58.74" height="43.07"/><rect id="rect5087" class="cls-7" x="60.69" y="127.94" width="25.58" height="3.1"/><rect id="rect5091" class="cls-5" x="44.53" y="177.24" width="58.74" height="43.07"/><rect id="rect5093" class="cls-7" x="60.95" y="184.09" width="25.58" height="3.1"/><rect id="rect5552" class="cls-8" x="43.93" y="60.58" width="68.33" height="1.3"/><rect id="rect5554" class="cls-8" x="109.8" y="61.58" width="2.48" height="168.34"/><rect id="rect5556" class="cls-8" x="49.46" y="229.82" width="62.81" height="1.3"/></g></g></g></g></g></svg>