<?xml version="1.0" encoding="UTF-8"?>
<svg id="Layer_1" data-name="Layer 1" xmlns="http://www.w3.org/2000/svg" width="150" height="150" viewBox="0 0 150 150">
  <defs>
    <style>
      .cls-1 {
        fill: #282422;
        stroke-width: 0px;
      }
    </style>
  </defs>
  <g>
    <path class="cls-1" d="m44.6,62.95c3.36,8.48,9.53,12.54,11.51,13.04,6.58-.98,11.33-.99,16.65.51V3L11.5,39v72l61.26,36v-63c-4.22-1.52-9.53-2.64-15.25-1.69h-.02c-6.17,1.03-9.29,1.69-14.25,5.7.14.34.27.68.38,1.03,1.65,5.34-1.34,11.05-6.65,12.71-1.83.57-3.77.61-5.62.12-3.37-.91-6-3.44-7.04-6.79-1.66-5.34,1.32-11.05,6.65-12.73,2.58-.79,5.41-.45,7.77.8,3.7-3.06,5.44-3.61,9.24-5.19-3.68-2.33-7.63-7.39-9.75-13.14-.99-.05-1.96-.24-2.9-.58-3.29-1.19-5.7-3.94-6.45-7.34-.59-2.64-.13-5.35,1.32-7.63,1.45-2.3,3.7-3.89,6.36-4.48,1.87-.42,3.8-.29,5.6.36,3.29,1.19,5.7,3.94,6.45,7.35.91,4.09-.79,8.17-4,10.46Z"/>
    <path class="cls-1" d="m34.96,88.26c-.71-.19-1.46-.18-2.16.04-2.06.65-3.22,2.85-2.58,4.91.41,1.3,1.43,2.28,2.73,2.63.71.19,1.46.18,2.17-.04,2.06-.65,3.21-2.85,2.57-4.93-.17-.56-.47-1.07-.88-1.51-.5-.53-1.14-.91-1.85-1.11Z"/>
    <path class="cls-1" d="m40.05,50.99c-.69-.25-1.45-.29-2.16-.13-1.03.23-1.9.84-2.46,1.73-.56.88-.74,1.92-.51,2.95.45,2.03,2.58,3.44,4.67,2.97l.2-.05c2-.56,3.21-2.59,2.75-4.63-.29-1.32-1.22-2.38-2.49-2.84Z"/>
  </g>
  <g>
    <path class="cls-1" d="m77.24,3v73.5c4.48,0,7.61-.77,12.89-3.18h.02c5.69-2.6,10.47-6.52,14.22-11.68-.23-.29-.44-.58-.63-.89-2.97-4.73-1.56-11.02,3.15-14,1.62-1.03,3.49-1.57,5.4-1.57,3.49,0,6.69,1.77,8.55,4.73,2.99,4.73,1.57,11.01-3.14,14.02-2.29,1.44-5.11,1.84-7.71,1.25-2.54,3.57-5.49,6.66-8.83,9.23,4.16,1.29,8.92,3.77,12.85,8.45.94-.29,1.93-.44,2.92-.44,3.49,0,6.69,1.77,8.54,4.72,1.44,2.28,1.92,4.99,1.33,7.63-.59,2.65-2.18,4.92-4.48,6.38-1.62,1.03-3.48,1.57-5.39,1.57-3.49,0-6.69-1.77-8.55-4.73-2.23-3.54-2.01-7.96.24-11.21-6.02-6.84-14.38-7.16-16.42-7.12-6.1,2.66-8.99,4.35-14.96,4.35v63l61.26-36V39L77.24,3Z"/>
    <path class="cls-1" d="m116.94,96.48c.74,0,1.46-.21,2.08-.61.89-.56,1.5-1.44,1.73-2.47.23-1.02.05-2.06-.52-2.95-1.11-1.76-3.59-2.36-5.39-1.21l-.18.12c-1.69,1.2-2.15,3.52-1.03,5.29.71,1.14,1.95,1.83,3.3,1.83Z"/>
    <path class="cls-1" d="m110.23,58.66c.62.39,1.34.59,2.08.59s1.46-.21,2.07-.6c1.83-1.16,2.38-3.59,1.22-5.42-.73-1.15-1.97-1.84-3.32-1.84-.74,0-1.45.21-2.09.61-1.82,1.16-2.37,3.59-1.21,5.43.31.49.73.91,1.24,1.23Z"/>
  </g>
</svg>