<?xml version="1.0" encoding="UTF-8"?>
<svg id="Layer_1" data-name="Layer 1" xmlns="http://www.w3.org/2000/svg" width="246.05" height="34.22" viewBox="0 0 246.05 34.22">
  <defs>
    <style>
      .cls-1 {
        fill: #282422;
        stroke-width: 0px;
      }
    </style>
  </defs>
  <g>
    <path class="cls-1" d="m38.62,3.21l5.07,15.81,5.06-15.81h7.21v22.72h-5.49v-5.31l.53-10.86-5.49,16.17h-3.62l-5.51-16.18.53,10.88v5.31h-5.48V3.21h7.19Z"/>
    <path class="cls-1" d="m59.44,25.93V3.21h8.16c2.92,0,5.15.54,6.67,1.61,1.52,1.07,2.29,2.63,2.29,4.67,0,1.18-.27,2.18-.81,3.01-.54.83-1.34,1.45-2.39,1.84,1.19.31,2.1.89,2.73,1.75.63.85.95,1.89.95,3.12,0,2.23-.71,3.9-2.11,5.02-1.41,1.12-3.5,1.69-6.27,1.71h-9.22Zm5.48-13.25h2.86c1.2-.01,2.05-.23,2.56-.66s.76-1.06.76-1.89c0-.96-.28-1.65-.83-2.07-.55-.42-1.44-.63-2.67-.63h-2.68v5.26Zm0,3.59v5.45h3.59c.99,0,1.75-.23,2.28-.68.53-.45.8-1.09.8-1.91,0-1.89-.94-2.85-2.82-2.86h-3.84Z"/>
    <path class="cls-1" d="m98.43,18.23c-.07,1.58-.5,2.98-1.28,4.19-.78,1.21-1.88,2.15-3.29,2.82s-3.02,1-4.83,1c-2.99,0-5.34-.97-7.05-2.92-1.72-1.95-2.57-4.69-2.57-8.24v-1.12c0-2.23.39-4.17,1.16-5.84s1.89-2.96,3.35-3.87c1.46-.91,3.14-1.37,5.06-1.37,2.76,0,4.97.73,6.65,2.18,1.67,1.45,2.63,3.45,2.86,6h-5.46c-.04-1.38-.39-2.38-1.04-2.98-.66-.6-1.65-.91-3-.91s-2.36.51-3,1.53-.97,2.65-1,4.88v1.61c0,2.42.3,4.16.91,5.2.61,1.04,1.66,1.56,3.14,1.56,1.26,0,2.22-.3,2.89-.89.67-.59,1.02-1.53,1.06-2.82h5.45Z"/>
    <path class="cls-1" d="m100.12,17.33c0-1.69.33-3.19.98-4.5s1.6-2.33,2.82-3.04c1.23-.71,2.67-1.06,4.32-1.06,2.53,0,4.52.78,5.98,2.35,1.46,1.57,2.18,3.7,2.18,6.39v.19c0,2.63-.73,4.72-2.19,6.27s-3.44,2.32-5.94,2.32-4.33-.72-5.79-2.16c-1.46-1.44-2.24-3.39-2.36-5.86l-.02-.89Zm5.26.33c0,1.56.24,2.71.73,3.43.49.73,1.21,1.09,2.17,1.09,1.87,0,2.83-1.44,2.87-4.32v-.53c0-3.03-.97-4.54-2.9-4.54-1.76,0-2.71,1.31-2.86,3.92l-.02.95Z"/>
    <path class="cls-1" d="m123.7,9.04l.17,1.98c1.2-1.53,2.8-2.29,4.82-2.29,2.13,0,3.57.85,4.32,2.54,1.14-1.7,2.8-2.54,4.96-2.54,3.42,0,5.18,2.07,5.28,6.21v10.99h-5.28v-10.66c0-.86-.15-1.49-.44-1.89s-.82-.59-1.59-.59c-1.04,0-1.82.46-2.33,1.39l.02.22v11.53h-5.27v-10.63c0-.88-.14-1.52-.42-1.92-.28-.4-.82-.59-1.61-.59-1.01,0-1.78.46-2.31,1.39v11.75h-5.26V9.04h4.93Z"/>
    <path class="cls-1" d="m151.23,9.04l.17,1.98c1.2-1.53,2.8-2.29,4.82-2.29,2.13,0,3.57.85,4.32,2.54,1.14-1.7,2.8-2.54,4.96-2.54,3.42,0,5.18,2.07,5.28,6.21v10.99h-5.28v-10.66c0-.86-.15-1.49-.44-1.89s-.82-.59-1.59-.59c-1.04,0-1.82.46-2.33,1.39l.02.22v11.53h-5.27v-10.63c0-.88-.14-1.52-.42-1.92-.28-.4-.82-.59-1.61-.59-1.01,0-1.78.46-2.31,1.39v11.75h-5.26V9.04h4.93Z"/>
    <path class="cls-1" d="m183.84,24.1c-1.11,1.43-2.62,2.14-4.51,2.14s-3.25-.54-4.21-1.62c-.95-1.08-1.43-2.62-1.43-4.64v-10.94h5.26v10.97c0,1.45.7,2.17,2.11,2.17,1.21,0,2.06-.43,2.57-1.3v-11.84h5.29v16.88h-4.93l-.16-1.83Z"/>
    <path class="cls-1" d="m196.64,9.04l.17,1.98c1.17-1.53,2.77-2.29,4.82-2.29,1.76,0,3.07.53,3.94,1.58.87,1.05,1.32,2.63,1.35,4.74v10.88h-5.27v-10.66c0-.85-.17-1.48-.52-1.88-.34-.4-.97-.6-1.87-.6-1.03,0-1.79.41-2.29,1.22v11.92h-5.26V9.04h4.93Z"/>
    <path class="cls-1" d="m209.79,4.67c0-.75.27-1.37.81-1.85s1.24-.72,2.11-.72,1.57.24,2.11.72.81,1.1.81,1.85-.27,1.37-.81,1.85-1.24.72-2.11.72-1.57-.24-2.11-.72-.81-1.1-.81-1.85Zm5.59,21.25h-5.27V9.04h5.27v16.88Z"/>
    <path class="cls-1" d="m224.74,4.84v4.2h2.78v3.65h-2.78v7.72c0,.63.11,1.08.34,1.33.23.25.68.38,1.36.38.52,0,.96-.03,1.31-.09v3.76c-.95.3-1.93.45-2.96.45-1.81,0-3.15-.43-4.01-1.28-.86-.85-1.29-2.15-1.29-3.89v-8.38h-2.15v-3.65h2.15v-4.2h5.26Z"/>
    <path class="cls-1" d="m236.34,18.56l2.81-9.52h5.63l-6.88,19.71-.3.72c-.98,2.19-2.71,3.28-5.18,3.28-.69,0-1.41-.1-2.17-.31v-3.75h.69c.74,0,1.3-.11,1.69-.32.39-.21.68-.6.87-1.15l.42-1.12-5.87-17.05h5.62l2.67,9.52Z"/>
  </g>
  <g>
    <polygon class="cls-1" points="14 1 2 8 2 22 14 29 14 1"/>
    <polygon class="cls-1" points="15 1 27 8 27 22 15 29 15 1"/>
  </g>
</svg>