<?xml version="1.0" encoding="UTF-8"?>
<svg id="Layer_1" data-name="Layer 1" xmlns="http://www.w3.org/2000/svg" width="27" height="30" viewBox="0 0 27 30">
  <defs>
    <style>
      .cls-1 {
        fill: #282422;
        stroke-width: 0px;
      }
    </style>
  </defs>
  <g>
    <path class="cls-1" d="m7.66,12.27c.74,1.01,1.68,1.78,2.8,2.29h0c1.04.47,1.65.62,2.54.62V1L1,8v14l12,7v-12.34c-1.18,0-1.74-.33-2.95-.85-.4,0-2.05.05-3.23,1.4.44.64.49,1.5.05,2.2-.37.58-.99.93-1.68.93-.38,0-.74-.11-1.06-.31-.45-.29-.76-.73-.88-1.25-.12-.52-.02-1.05.26-1.5.36-.58.99-.93,1.68-.93.2,0,.39.03.58.09.77-.92,1.71-1.4,2.53-1.66-.66-.5-1.24-1.11-1.74-1.81-.51.12-1.07.04-1.52-.24-.93-.59-1.21-1.82-.62-2.75.37-.58,1-.93,1.68-.93.38,0,.75.11,1.06.31.93.59,1.2,1.82.62,2.75-.04.06-.08.12-.12.18Z"/>
    <path class="cls-1" d="m5.6,17.69c-.36-.23-.84-.11-1.06.24-.11.17-.15.38-.1.58.05.2.17.37.34.48.12.08.26.12.41.12.27,0,.51-.13.65-.36.22-.35.13-.8-.2-1.04l-.03-.02Z"/>
    <path class="cls-1" d="m6.1,10.26c-.27,0-.51.13-.65.36-.23.36-.12.83.24,1.06.12.08.26.12.41.12s.29-.04.41-.11c.1-.06.18-.14.24-.24.23-.36.12-.84-.24-1.06-.12-.08-.27-.12-.41-.12Z"/>
  </g>
  <g>
    <path class="cls-1" d="m14,1v14.19c.88,0,1.5-.15,2.54-.62h0c1.12-.51,2.06-1.28,2.8-2.29-.04-.06-.09-.11-.12-.18-.58-.93-.31-2.16.62-2.75.32-.2.69-.31,1.06-.31.69,0,1.32.35,1.68.93.59.93.31,2.16-.62,2.75-.45.28-1.01.36-1.52.24-.5.7-1.08,1.31-1.74,1.81.82.25,1.76.74,2.53,1.66.19-.06.38-.09.58-.09.69,0,1.32.35,1.68.93.28.45.38.98.26,1.5-.12.52-.43.96-.88,1.25-.32.2-.69.31-1.06.31-.69,0-1.32-.35-1.68-.93-.44-.69-.4-1.56.05-2.2-1.19-1.34-2.83-1.4-3.23-1.4-1.2.52-1.77.85-2.95.85v12.34l12-7V8L14,1Z"/>
    <path class="cls-1" d="m20.9,11.8c.14,0,.29-.04.41-.12.36-.23.47-.7.24-1.06-.14-.23-.39-.36-.65-.36-.15,0-.29.04-.41.12-.36.23-.47.7-.24,1.06.06.1.14.18.24.24.12.08.26.11.41.11Z"/>
    <path class="cls-1" d="m22.22,18.99c.18-.11.3-.28.34-.48.04-.2,0-.4-.1-.58-.22-.35-.71-.46-1.06-.24l-.03.02c-.33.24-.42.69-.2,1.04.14.22.38.36.65.36.15,0,.29-.04.41-.12Z"/>
  </g>
</svg>