<?xml version="1.0" encoding="utf-8"?>
<!-- Generator: Adobe Illustrator 28.1.0, SVG Export Plug-In . SVG Version: 6.00 Build 0)  -->
<svg version="1.1" id="Layer_1" xmlns="http://www.w3.org/2000/svg" xmlns:xlink="http://www.w3.org/1999/xlink" x="0px" y="0px"
	 viewBox="0 0 32 32" style="enable-background:new 0 0 32 32;" xml:space="preserve">
<style type="text/css">
	.st0{fill:#353070;}
	.st1{fill:#FFFEDB;}
	.st2{fill:#EB743B;}
</style>
<g>
	<polygon class="st0" points="15.5,0 1.8,8 1.8,24 15.5,32 	"/>
	<g>
		<path class="st1" d="M15.5,21.5c-2.5,0-4.5-2-4.5-4.5s2-4.5,4.5-4.5v1.7c-1.6,0-2.9,1.3-2.9,2.9s1.3,2.9,2.9,2.9V21.5z"/>
	</g>
	<g>
		<g>
			<path class="st2" d="M6.8,19.4c0.1,0,0.2,0,0.2-0.1c0.2-0.1,0.2-0.4,0.1-0.6C7,18.6,7,18.5,6.9,18.4c-0.5-1-0.4-2.1,0.2-3.1
				c0.1-0.2,0.1-0.4-0.1-0.6c-0.2-0.1-0.4-0.1-0.6,0.1c-0.7,1.2-0.8,2.6-0.2,3.9c0.1,0.2,0.2,0.4,0.3,0.5
				C6.5,19.4,6.7,19.4,6.8,19.4"/>
			<path class="st2" d="M4.9,20.4c0.1,0,0.2,0,0.2-0.1c0.2-0.1,0.2-0.4,0.1-0.6c-0.2-0.2-0.3-0.4-0.4-0.7c-0.8-1.5-0.6-3.3,0.4-4.7
				c0.1-0.2,0.1-0.4-0.1-0.6c-0.2-0.1-0.4-0.1-0.6,0.1c-1.2,1.6-1.4,3.8-0.5,5.6c0.1,0.3,0.3,0.5,0.5,0.8
				C4.7,20.3,4.8,20.4,4.9,20.4"/>
			<path class="st2" d="M8.7,18.4c0.1,0,0.1,0,0.2-0.1C9.1,18.2,9.1,18,9,17.8c-0.3-0.5-0.3-1-0.1-1.5c0.1-0.2,0-0.5-0.2-0.5
				c-0.2-0.1-0.5,0-0.5,0.2c-0.3,0.7-0.3,1.6,0.1,2.2C8.4,18.3,8.5,18.4,8.7,18.4"/>
		</g>
	</g>
</g>
<g>
	<polygon class="st2" points="16.5,0 16.5,32 30.2,24 30.2,8 	"/>
	<path class="st1" d="M27.3,18.8c-0.5-0.7-1.1-1-1.9-1c-0.2,0-0.5,0-0.7,0.1c-0.8-0.9-1.7-1.6-2.9-1.8c0.8-0.6,1.4-1.3,1.9-2.1
		c0.6,0.1,1.1,0,1.7-0.2c1-0.7,1.4-2.1,0.8-3.1c-0.7-1-2.1-1.4-3.1-0.8c-1,0.6-1.4,2.1-0.8,3.1l0,0l0.1,0.2
		c-0.8,1.1-1.9,2.1-3.2,2.6l0,0c-0.9,0.5-1.8,0.7-2.9,0.7v1.7c1.1,0,2.3-0.3,3.3-1c1.4,0,2.7,0.6,3.7,1.6c-0.7,1-0.3,2.5,0.8,3.1
		c0.7,0.5,1.6,0.5,2.3,0C27.7,21.2,27.9,19.8,27.3,18.8L27.3,18.8z M23.9,10.9c0.1-0.1,0.3-0.1,0.5-0.1c0.5,0,0.9,0.3,0.9,0.8
		c0,0.3-0.1,0.6-0.5,0.8c-0.1,0.1-0.3,0.1-0.5,0.1c-0.1,0-0.3,0-0.5-0.1s-0.2-0.1-0.2-0.2C23.3,11.7,23.4,11.2,23.9,10.9L23.9,10.9
		L23.9,10.9z M26.2,20c-0.1,0.3-0.5,0.7-0.8,0.7c-0.5,0-0.9-0.5-0.9-0.9c0-0.2,0.1-0.6,0.3-0.7l0,0c0.3-0.2,0.9-0.1,1.1,0.2
		C26.2,19.6,26.3,19.9,26.2,20L26.2,20z"/>
</g>
</svg>
